G75*
%MOIN*%
%OFA0B0*%
%FSLAX25Y25*%
%IPPOS*%
%LPD*%
%AMOC8*
5,1,8,0,0,1.08239X$1,22.5*
%
%ADD10C,0.11624*%
%ADD11C,0.05000*%
%ADD12C,0.08000*%
%ADD13C,0.02100*%
%ADD14C,0.13261*%
%ADD15C,0.03600*%
%ADD16OC8,0.07200*%
%ADD17R,0.04537X0.04931*%
%ADD18C,0.06506*%
%ADD19R,0.07293X0.14380*%
%ADD20C,0.07687*%
%ADD21R,0.04143X0.05521*%
%ADD22C,0.07100*%
%ADD23R,0.05600X0.12600*%
%ADD24R,0.12600X0.05600*%
%ADD25R,0.06100X0.12600*%
%ADD26R,0.06200X0.12600*%
%ADD27R,0.06000X0.06000*%
%ADD28C,0.06000*%
%ADD29C,0.01025*%
%ADD30R,0.01781X0.04537*%
%ADD31R,0.02962X0.04537*%
%ADD32C,0.03159*%
%ADD33C,0.00039*%
%ADD34C,0.08100*%
%ADD35R,0.04537X0.03750*%
%ADD36C,0.01361*%
%ADD37C,0.08600*%
%ADD38R,0.03300X0.08300*%
%ADD39R,0.03300X0.05200*%
%ADD40R,0.04537X0.13592*%
%ADD41R,0.03789X0.07293*%
%ADD42R,0.03789X0.04734*%
%ADD43C,0.06899*%
%ADD44C,0.09261*%
%ADD45C,0.07293*%
%ADD46C,0.03500*%
%ADD47C,0.05000*%
%ADD48R,0.03100X0.05600*%
%ADD49R,0.06600X0.01900*%
%ADD50R,0.04734X0.05718*%
%ADD51R,0.11624X0.07261*%
%ADD52R,0.11624X0.09624*%
%ADD53R,0.11624X0.11624*%
%ADD54R,0.02800X0.06400*%
%ADD55C,0.06600*%
D10*
X0062220Y0049040D03*
X0056314Y0292064D03*
X0284661Y0292064D03*
X0338913Y0049040D03*
D11*
X0053981Y0049178D02*
X0053983Y0049381D01*
X0053991Y0049583D01*
X0054003Y0049785D01*
X0054021Y0049987D01*
X0054043Y0050188D01*
X0054070Y0050389D01*
X0054103Y0050589D01*
X0054140Y0050788D01*
X0054182Y0050986D01*
X0054228Y0051184D01*
X0054280Y0051379D01*
X0054336Y0051574D01*
X0054398Y0051767D01*
X0054463Y0051959D01*
X0054534Y0052149D01*
X0054609Y0052337D01*
X0054689Y0052523D01*
X0054773Y0052707D01*
X0054862Y0052889D01*
X0054956Y0053069D01*
X0055053Y0053246D01*
X0055155Y0053421D01*
X0055262Y0053594D01*
X0055372Y0053764D01*
X0055487Y0053931D01*
X0055605Y0054095D01*
X0055728Y0054256D01*
X0055855Y0054414D01*
X0055985Y0054569D01*
X0056119Y0054721D01*
X0056257Y0054869D01*
X0056399Y0055014D01*
X0056544Y0055156D01*
X0056692Y0055294D01*
X0056844Y0055428D01*
X0056999Y0055558D01*
X0057157Y0055685D01*
X0057318Y0055808D01*
X0057482Y0055926D01*
X0057649Y0056041D01*
X0057819Y0056151D01*
X0057992Y0056258D01*
X0058167Y0056360D01*
X0058344Y0056457D01*
X0058524Y0056551D01*
X0058706Y0056640D01*
X0058890Y0056724D01*
X0059076Y0056804D01*
X0059264Y0056879D01*
X0059454Y0056950D01*
X0059646Y0057015D01*
X0059839Y0057077D01*
X0060034Y0057133D01*
X0060229Y0057185D01*
X0060427Y0057231D01*
X0060625Y0057273D01*
X0060824Y0057310D01*
X0061024Y0057343D01*
X0061225Y0057370D01*
X0061426Y0057392D01*
X0061628Y0057410D01*
X0061830Y0057422D01*
X0062032Y0057430D01*
X0062235Y0057432D01*
X0062438Y0057430D01*
X0062640Y0057422D01*
X0062842Y0057410D01*
X0063044Y0057392D01*
X0063245Y0057370D01*
X0063446Y0057343D01*
X0063646Y0057310D01*
X0063845Y0057273D01*
X0064043Y0057231D01*
X0064241Y0057185D01*
X0064436Y0057133D01*
X0064631Y0057077D01*
X0064824Y0057015D01*
X0065016Y0056950D01*
X0065206Y0056879D01*
X0065394Y0056804D01*
X0065580Y0056724D01*
X0065764Y0056640D01*
X0065946Y0056551D01*
X0066126Y0056457D01*
X0066303Y0056360D01*
X0066478Y0056258D01*
X0066651Y0056151D01*
X0066821Y0056041D01*
X0066988Y0055926D01*
X0067152Y0055808D01*
X0067313Y0055685D01*
X0067471Y0055558D01*
X0067626Y0055428D01*
X0067778Y0055294D01*
X0067926Y0055156D01*
X0068071Y0055014D01*
X0068213Y0054869D01*
X0068351Y0054721D01*
X0068485Y0054569D01*
X0068615Y0054414D01*
X0068742Y0054256D01*
X0068865Y0054095D01*
X0068983Y0053931D01*
X0069098Y0053764D01*
X0069208Y0053594D01*
X0069315Y0053421D01*
X0069417Y0053246D01*
X0069514Y0053069D01*
X0069608Y0052889D01*
X0069697Y0052707D01*
X0069781Y0052523D01*
X0069861Y0052337D01*
X0069936Y0052149D01*
X0070007Y0051959D01*
X0070072Y0051767D01*
X0070134Y0051574D01*
X0070190Y0051379D01*
X0070242Y0051184D01*
X0070288Y0050986D01*
X0070330Y0050788D01*
X0070367Y0050589D01*
X0070400Y0050389D01*
X0070427Y0050188D01*
X0070449Y0049987D01*
X0070467Y0049785D01*
X0070479Y0049583D01*
X0070487Y0049381D01*
X0070489Y0049178D01*
X0070487Y0048975D01*
X0070479Y0048773D01*
X0070467Y0048571D01*
X0070449Y0048369D01*
X0070427Y0048168D01*
X0070400Y0047967D01*
X0070367Y0047767D01*
X0070330Y0047568D01*
X0070288Y0047370D01*
X0070242Y0047172D01*
X0070190Y0046977D01*
X0070134Y0046782D01*
X0070072Y0046589D01*
X0070007Y0046397D01*
X0069936Y0046207D01*
X0069861Y0046019D01*
X0069781Y0045833D01*
X0069697Y0045649D01*
X0069608Y0045467D01*
X0069514Y0045287D01*
X0069417Y0045110D01*
X0069315Y0044935D01*
X0069208Y0044762D01*
X0069098Y0044592D01*
X0068983Y0044425D01*
X0068865Y0044261D01*
X0068742Y0044100D01*
X0068615Y0043942D01*
X0068485Y0043787D01*
X0068351Y0043635D01*
X0068213Y0043487D01*
X0068071Y0043342D01*
X0067926Y0043200D01*
X0067778Y0043062D01*
X0067626Y0042928D01*
X0067471Y0042798D01*
X0067313Y0042671D01*
X0067152Y0042548D01*
X0066988Y0042430D01*
X0066821Y0042315D01*
X0066651Y0042205D01*
X0066478Y0042098D01*
X0066303Y0041996D01*
X0066126Y0041899D01*
X0065946Y0041805D01*
X0065764Y0041716D01*
X0065580Y0041632D01*
X0065394Y0041552D01*
X0065206Y0041477D01*
X0065016Y0041406D01*
X0064824Y0041341D01*
X0064631Y0041279D01*
X0064436Y0041223D01*
X0064241Y0041171D01*
X0064043Y0041125D01*
X0063845Y0041083D01*
X0063646Y0041046D01*
X0063446Y0041013D01*
X0063245Y0040986D01*
X0063044Y0040964D01*
X0062842Y0040946D01*
X0062640Y0040934D01*
X0062438Y0040926D01*
X0062235Y0040924D01*
X0062032Y0040926D01*
X0061830Y0040934D01*
X0061628Y0040946D01*
X0061426Y0040964D01*
X0061225Y0040986D01*
X0061024Y0041013D01*
X0060824Y0041046D01*
X0060625Y0041083D01*
X0060427Y0041125D01*
X0060229Y0041171D01*
X0060034Y0041223D01*
X0059839Y0041279D01*
X0059646Y0041341D01*
X0059454Y0041406D01*
X0059264Y0041477D01*
X0059076Y0041552D01*
X0058890Y0041632D01*
X0058706Y0041716D01*
X0058524Y0041805D01*
X0058344Y0041899D01*
X0058167Y0041996D01*
X0057992Y0042098D01*
X0057819Y0042205D01*
X0057649Y0042315D01*
X0057482Y0042430D01*
X0057318Y0042548D01*
X0057157Y0042671D01*
X0056999Y0042798D01*
X0056844Y0042928D01*
X0056692Y0043062D01*
X0056544Y0043200D01*
X0056399Y0043342D01*
X0056257Y0043487D01*
X0056119Y0043635D01*
X0055985Y0043787D01*
X0055855Y0043942D01*
X0055728Y0044100D01*
X0055605Y0044261D01*
X0055487Y0044425D01*
X0055372Y0044592D01*
X0055262Y0044762D01*
X0055155Y0044935D01*
X0055053Y0045110D01*
X0054956Y0045287D01*
X0054862Y0045467D01*
X0054773Y0045649D01*
X0054689Y0045833D01*
X0054609Y0046019D01*
X0054534Y0046207D01*
X0054463Y0046397D01*
X0054398Y0046589D01*
X0054336Y0046782D01*
X0054280Y0046977D01*
X0054228Y0047172D01*
X0054182Y0047370D01*
X0054140Y0047568D01*
X0054103Y0047767D01*
X0054070Y0047967D01*
X0054043Y0048168D01*
X0054021Y0048369D01*
X0054003Y0048571D01*
X0053991Y0048773D01*
X0053983Y0048975D01*
X0053981Y0049178D01*
D12*
X0059835Y0099628D03*
X0059835Y0109628D03*
X0059835Y0119628D03*
X0059835Y0129628D03*
X0079135Y0149628D03*
X0089135Y0149628D03*
X0099135Y0149628D03*
X0109135Y0149628D03*
X0120235Y0145128D03*
X0120235Y0135128D03*
X0120235Y0125128D03*
X0120235Y0115128D03*
X0120235Y0105128D03*
X0120235Y0095128D03*
X0120235Y0155128D03*
X0048335Y0210528D03*
X0048335Y0220528D03*
X0047735Y0274128D03*
X0047735Y0284128D03*
X0075645Y0287064D03*
X0085645Y0287064D03*
X0085645Y0297064D03*
X0075645Y0297064D03*
X0095645Y0297064D03*
X0105645Y0297064D03*
X0115645Y0297064D03*
X0125645Y0297064D03*
X0135645Y0297064D03*
X0145645Y0297064D03*
X0155645Y0297064D03*
X0165645Y0297064D03*
X0175645Y0297064D03*
X0185645Y0297064D03*
X0195645Y0297064D03*
X0205645Y0297064D03*
X0215645Y0297064D03*
X0225645Y0297064D03*
X0235645Y0297064D03*
X0245645Y0297064D03*
X0255645Y0297064D03*
X0265645Y0297064D03*
X0265645Y0287064D03*
X0255645Y0287064D03*
X0245645Y0287064D03*
X0235645Y0287064D03*
X0225645Y0287064D03*
X0215645Y0287064D03*
X0205645Y0287064D03*
X0195645Y0287064D03*
X0185645Y0287064D03*
X0175645Y0287064D03*
X0165645Y0287064D03*
X0155645Y0287064D03*
X0145645Y0287064D03*
X0135645Y0287064D03*
X0125645Y0287064D03*
X0115645Y0287064D03*
X0105645Y0287064D03*
X0095645Y0287064D03*
X0195035Y0275028D03*
X0205035Y0275028D03*
X0226035Y0274728D03*
X0236035Y0274728D03*
X0285935Y0257828D03*
X0350135Y0259428D03*
X0350135Y0269428D03*
X0350135Y0279428D03*
X0350135Y0249428D03*
X0350135Y0239428D03*
X0350135Y0229428D03*
X0350135Y0219428D03*
X0350135Y0209428D03*
X0354635Y0188128D03*
X0344635Y0188128D03*
X0300435Y0188528D03*
X0290435Y0188528D03*
X0287335Y0071628D03*
X0297335Y0071628D03*
X0280035Y0034628D03*
X0270035Y0034628D03*
X0260035Y0034628D03*
X0250035Y0034628D03*
D13*
X0248495Y0282314D02*
X0242995Y0282314D01*
X0242995Y0284414D01*
X0248495Y0284414D01*
X0248495Y0282314D01*
X0248495Y0284413D02*
X0242995Y0284413D01*
X0238295Y0282314D02*
X0232795Y0282314D01*
X0232795Y0284414D01*
X0238295Y0284414D01*
X0238295Y0282314D01*
X0238295Y0284413D02*
X0232795Y0284413D01*
X0228495Y0282314D02*
X0222995Y0282314D01*
X0222995Y0284414D01*
X0228495Y0284414D01*
X0228495Y0282314D01*
X0228495Y0284413D02*
X0222995Y0284413D01*
X0218295Y0282314D02*
X0212795Y0282314D01*
X0212795Y0284414D01*
X0218295Y0284414D01*
X0218295Y0282314D01*
X0218295Y0284413D02*
X0212795Y0284413D01*
X0208495Y0282314D02*
X0202995Y0282314D01*
X0202995Y0284414D01*
X0208495Y0284414D01*
X0208495Y0282314D01*
X0208495Y0284413D02*
X0202995Y0284413D01*
X0198495Y0282314D02*
X0192995Y0282314D01*
X0192995Y0284414D01*
X0198495Y0284414D01*
X0198495Y0282314D01*
X0198495Y0284413D02*
X0192995Y0284413D01*
X0188295Y0282314D02*
X0182795Y0282314D01*
X0182795Y0284414D01*
X0188295Y0284414D01*
X0188295Y0282314D01*
X0188295Y0284413D02*
X0182795Y0284413D01*
X0178295Y0282314D02*
X0172795Y0282314D01*
X0172795Y0284414D01*
X0178295Y0284414D01*
X0178295Y0282314D01*
X0178295Y0284413D02*
X0172795Y0284413D01*
X0168395Y0282314D02*
X0162895Y0282314D01*
X0162895Y0284414D01*
X0168395Y0284414D01*
X0168395Y0282314D01*
X0168395Y0284413D02*
X0162895Y0284413D01*
X0158395Y0282314D02*
X0152895Y0282314D01*
X0152895Y0284414D01*
X0158395Y0284414D01*
X0158395Y0282314D01*
X0158395Y0284413D02*
X0152895Y0284413D01*
X0148495Y0282314D02*
X0142995Y0282314D01*
X0142995Y0284414D01*
X0148495Y0284414D01*
X0148495Y0282314D01*
X0148495Y0284413D02*
X0142995Y0284413D01*
X0138395Y0282314D02*
X0132895Y0282314D01*
X0132895Y0284414D01*
X0138395Y0284414D01*
X0138395Y0282314D01*
X0138395Y0284413D02*
X0132895Y0284413D01*
X0128495Y0282314D02*
X0122995Y0282314D01*
X0122995Y0284414D01*
X0128495Y0284414D01*
X0128495Y0282314D01*
X0128495Y0284413D02*
X0122995Y0284413D01*
X0118495Y0282314D02*
X0112995Y0282314D01*
X0112995Y0284414D01*
X0118495Y0284414D01*
X0118495Y0282314D01*
X0118495Y0284413D02*
X0112995Y0284413D01*
X0108295Y0282314D02*
X0102795Y0282314D01*
X0102795Y0284414D01*
X0108295Y0284414D01*
X0108295Y0282314D01*
X0108295Y0284413D02*
X0102795Y0284413D01*
X0098195Y0282314D02*
X0092695Y0282314D01*
X0092695Y0284414D01*
X0098195Y0284414D01*
X0098195Y0282314D01*
X0098195Y0284413D02*
X0092695Y0284413D01*
X0088395Y0282314D02*
X0082895Y0282314D01*
X0082895Y0284414D01*
X0088395Y0284414D01*
X0088395Y0282314D01*
X0088395Y0284413D02*
X0082895Y0284413D01*
X0078395Y0282314D02*
X0072895Y0282314D01*
X0072895Y0284414D01*
X0078395Y0284414D01*
X0078395Y0282314D01*
X0078395Y0284413D02*
X0072895Y0284413D01*
X0072945Y0299764D02*
X0078445Y0299764D01*
X0072945Y0299764D02*
X0072945Y0301864D01*
X0078445Y0301864D01*
X0078445Y0299764D01*
X0078445Y0301863D02*
X0072945Y0301863D01*
X0082895Y0299714D02*
X0088395Y0299714D01*
X0082895Y0299714D02*
X0082895Y0301814D01*
X0088395Y0301814D01*
X0088395Y0299714D01*
X0088395Y0301813D02*
X0082895Y0301813D01*
X0092895Y0299714D02*
X0098395Y0299714D01*
X0092895Y0299714D02*
X0092895Y0301814D01*
X0098395Y0301814D01*
X0098395Y0299714D01*
X0098395Y0301813D02*
X0092895Y0301813D01*
X0102995Y0299714D02*
X0108495Y0299714D01*
X0102995Y0299714D02*
X0102995Y0301814D01*
X0108495Y0301814D01*
X0108495Y0299714D01*
X0108495Y0301813D02*
X0102995Y0301813D01*
X0112895Y0299714D02*
X0118395Y0299714D01*
X0112895Y0299714D02*
X0112895Y0301814D01*
X0118395Y0301814D01*
X0118395Y0299714D01*
X0118395Y0301813D02*
X0112895Y0301813D01*
X0122895Y0299714D02*
X0128395Y0299714D01*
X0122895Y0299714D02*
X0122895Y0301814D01*
X0128395Y0301814D01*
X0128395Y0299714D01*
X0128395Y0301813D02*
X0122895Y0301813D01*
X0132895Y0299714D02*
X0138395Y0299714D01*
X0132895Y0299714D02*
X0132895Y0301814D01*
X0138395Y0301814D01*
X0138395Y0299714D01*
X0138395Y0301813D02*
X0132895Y0301813D01*
X0142795Y0299714D02*
X0148295Y0299714D01*
X0142795Y0299714D02*
X0142795Y0301814D01*
X0148295Y0301814D01*
X0148295Y0299714D01*
X0148295Y0301813D02*
X0142795Y0301813D01*
X0152995Y0299714D02*
X0158495Y0299714D01*
X0152995Y0299714D02*
X0152995Y0301814D01*
X0158495Y0301814D01*
X0158495Y0299714D01*
X0158495Y0301813D02*
X0152995Y0301813D01*
X0162795Y0299714D02*
X0168295Y0299714D01*
X0162795Y0299714D02*
X0162795Y0301814D01*
X0168295Y0301814D01*
X0168295Y0299714D01*
X0168295Y0301813D02*
X0162795Y0301813D01*
X0172795Y0299714D02*
X0178295Y0299714D01*
X0172795Y0299714D02*
X0172795Y0301814D01*
X0178295Y0301814D01*
X0178295Y0299714D01*
X0178295Y0301813D02*
X0172795Y0301813D01*
X0182795Y0299714D02*
X0188295Y0299714D01*
X0182795Y0299714D02*
X0182795Y0301814D01*
X0188295Y0301814D01*
X0188295Y0299714D01*
X0188295Y0301813D02*
X0182795Y0301813D01*
X0192995Y0299714D02*
X0198495Y0299714D01*
X0192995Y0299714D02*
X0192995Y0301814D01*
X0198495Y0301814D01*
X0198495Y0299714D01*
X0198495Y0301813D02*
X0192995Y0301813D01*
X0202995Y0299714D02*
X0208495Y0299714D01*
X0202995Y0299714D02*
X0202995Y0301814D01*
X0208495Y0301814D01*
X0208495Y0299714D01*
X0208495Y0301813D02*
X0202995Y0301813D01*
X0212895Y0299714D02*
X0218395Y0299714D01*
X0212895Y0299714D02*
X0212895Y0301814D01*
X0218395Y0301814D01*
X0218395Y0299714D01*
X0218395Y0301813D02*
X0212895Y0301813D01*
X0222895Y0299714D02*
X0228395Y0299714D01*
X0222895Y0299714D02*
X0222895Y0301814D01*
X0228395Y0301814D01*
X0228395Y0299714D01*
X0228395Y0301813D02*
X0222895Y0301813D01*
X0232895Y0299714D02*
X0238395Y0299714D01*
X0232895Y0299714D02*
X0232895Y0301814D01*
X0238395Y0301814D01*
X0238395Y0299714D01*
X0238395Y0301813D02*
X0232895Y0301813D01*
X0242995Y0299714D02*
X0248495Y0299714D01*
X0242995Y0299714D02*
X0242995Y0301814D01*
X0248495Y0301814D01*
X0248495Y0299714D01*
X0248495Y0301813D02*
X0242995Y0301813D01*
X0252895Y0299714D02*
X0258395Y0299714D01*
X0252895Y0299714D02*
X0252895Y0301814D01*
X0258395Y0301814D01*
X0258395Y0299714D01*
X0258395Y0301813D02*
X0252895Y0301813D01*
X0262895Y0299714D02*
X0268395Y0299714D01*
X0262895Y0299714D02*
X0262895Y0301814D01*
X0268395Y0301814D01*
X0268395Y0299714D01*
X0268395Y0301813D02*
X0262895Y0301813D01*
X0262995Y0282314D02*
X0268495Y0282314D01*
X0262995Y0282314D02*
X0262995Y0284414D01*
X0268495Y0284414D01*
X0268495Y0282314D01*
X0268495Y0284413D02*
X0262995Y0284413D01*
X0258295Y0282314D02*
X0252795Y0282314D01*
X0252795Y0284414D01*
X0258295Y0284414D01*
X0258295Y0282314D01*
X0258295Y0284413D02*
X0252795Y0284413D01*
D14*
X0063627Y0323334D03*
D15*
X0116835Y0272628D03*
X0126835Y0272628D03*
X0126835Y0272628D03*
X0135135Y0272728D03*
X0145135Y0272728D03*
X0145135Y0272728D03*
X0161135Y0271228D03*
X0161135Y0271228D03*
X0171135Y0271228D03*
X0149535Y0309278D03*
X0149535Y0309278D03*
X0149535Y0319278D03*
X0238935Y0318828D03*
X0238935Y0308828D03*
X0238935Y0308828D03*
X0258335Y0268628D03*
X0258335Y0268628D03*
X0268335Y0268628D03*
X0276635Y0268528D03*
X0286635Y0268528D03*
X0286635Y0268528D03*
X0277835Y0234228D03*
X0267835Y0234228D03*
X0267835Y0234228D03*
X0272735Y0212028D03*
X0272735Y0202028D03*
X0272735Y0202028D03*
X0293785Y0307028D03*
X0293785Y0307028D03*
X0293785Y0317028D03*
D16*
X0294235Y0328828D03*
X0294235Y0338828D03*
X0238885Y0338728D03*
X0238885Y0328728D03*
X0149635Y0328178D03*
X0149635Y0338178D03*
X0055435Y0258528D03*
X0045435Y0258528D03*
X0045835Y0236428D03*
X0055835Y0236428D03*
D17*
X0049035Y0203574D03*
X0049035Y0196881D03*
X0052835Y0275581D03*
X0052835Y0282274D03*
X0156135Y0310881D03*
X0156135Y0317574D03*
X0169488Y0328928D03*
X0176181Y0328928D03*
X0218788Y0329128D03*
X0225481Y0329128D03*
X0247635Y0318174D03*
X0247635Y0311481D03*
X0260088Y0274828D03*
X0266781Y0274828D03*
X0278288Y0274828D03*
X0284981Y0274828D03*
X0300135Y0308781D03*
X0300135Y0315474D03*
X0296181Y0063628D03*
X0289488Y0063628D03*
D18*
X0291835Y0091728D03*
X0281835Y0091728D03*
X0271835Y0091728D03*
X0261835Y0091728D03*
X0251835Y0091728D03*
X0241835Y0091728D03*
X0231835Y0091728D03*
X0221835Y0091728D03*
X0211835Y0091728D03*
X0201835Y0091728D03*
X0191835Y0091728D03*
X0181835Y0091728D03*
X0171835Y0091728D03*
X0161835Y0091728D03*
X0161835Y0161728D03*
X0171835Y0161728D03*
X0181835Y0161728D03*
X0191835Y0161728D03*
X0201835Y0161728D03*
X0211835Y0161728D03*
X0221835Y0161728D03*
X0231835Y0161728D03*
X0241835Y0161728D03*
X0251835Y0161728D03*
X0261835Y0161728D03*
X0271835Y0161728D03*
X0281835Y0161728D03*
X0291835Y0161728D03*
X0301835Y0161728D03*
X0311835Y0161728D03*
X0321835Y0161728D03*
X0331835Y0161728D03*
X0341835Y0161728D03*
X0351835Y0161728D03*
X0339394Y0136275D03*
X0339394Y0117180D03*
X0341835Y0091728D03*
X0351835Y0091728D03*
X0331835Y0091728D03*
X0321835Y0091728D03*
X0311835Y0091728D03*
X0301835Y0091728D03*
D19*
X0301835Y0087358D03*
X0311835Y0087358D03*
X0321835Y0087358D03*
X0331835Y0087358D03*
X0341835Y0087358D03*
X0351835Y0087358D03*
X0291835Y0087358D03*
X0281835Y0087358D03*
X0271835Y0087358D03*
X0261835Y0087358D03*
X0251835Y0087358D03*
X0241835Y0087358D03*
X0231835Y0087358D03*
X0221835Y0087358D03*
X0211835Y0087358D03*
X0201835Y0087358D03*
X0191835Y0087358D03*
X0181835Y0087358D03*
X0171835Y0087358D03*
X0161835Y0087358D03*
X0161835Y0166098D03*
X0171835Y0166098D03*
X0181835Y0166098D03*
X0191835Y0166098D03*
X0201835Y0166098D03*
X0211835Y0166098D03*
X0221835Y0166098D03*
X0231835Y0166098D03*
X0241835Y0166098D03*
X0251835Y0166098D03*
X0261835Y0166098D03*
X0271835Y0166098D03*
X0281835Y0166098D03*
X0291835Y0166098D03*
X0301835Y0166098D03*
X0311835Y0166098D03*
X0321835Y0166098D03*
X0331835Y0166098D03*
X0341835Y0166098D03*
X0351835Y0166098D03*
D20*
X0351323Y0137456D03*
X0351323Y0115999D03*
D21*
X0351597Y0075594D03*
X0346243Y0075594D03*
X0346282Y0059255D03*
X0351597Y0059255D03*
X0269797Y0326155D03*
X0264482Y0326155D03*
X0264443Y0342494D03*
X0269797Y0342494D03*
D22*
X0267835Y0256228D03*
X0267835Y0246228D03*
X0267835Y0224728D03*
X0277835Y0224728D03*
X0306135Y0055328D03*
X0316135Y0055328D03*
D23*
X0206009Y0201432D03*
X0193189Y0201432D03*
X0158669Y0201932D03*
X0158788Y0260736D03*
X0193504Y0261169D03*
X0206004Y0261279D03*
D24*
X0247287Y0249432D03*
X0247268Y0211932D03*
X0146748Y0211736D03*
X0146768Y0250236D03*
D25*
X0217504Y0261389D03*
X0217528Y0201432D03*
X0229048Y0201432D03*
D26*
X0229004Y0261499D03*
D27*
X0105435Y0254928D03*
X0065735Y0261728D03*
X0065835Y0220528D03*
D28*
X0065835Y0210528D03*
X0065835Y0200528D03*
X0065835Y0190528D03*
X0095835Y0190528D03*
X0095835Y0200528D03*
X0095835Y0210528D03*
X0095835Y0220528D03*
X0105435Y0224928D03*
X0105435Y0234928D03*
X0105435Y0244928D03*
X0095735Y0241728D03*
X0095735Y0231728D03*
X0095735Y0251728D03*
X0095735Y0261728D03*
X0065735Y0251728D03*
X0065735Y0241728D03*
X0065735Y0231728D03*
X0135435Y0234928D03*
X0135435Y0244928D03*
X0135435Y0254928D03*
X0135435Y0224928D03*
D29*
X0131573Y0263690D02*
X0128497Y0263690D01*
X0128497Y0266766D01*
X0131573Y0266766D01*
X0131573Y0263690D01*
X0131573Y0264714D02*
X0128497Y0264714D01*
X0128497Y0265738D02*
X0131573Y0265738D01*
X0131573Y0266762D02*
X0128497Y0266762D01*
X0125573Y0263690D02*
X0122497Y0263690D01*
X0122497Y0266766D01*
X0125573Y0266766D01*
X0125573Y0263690D01*
X0125573Y0264714D02*
X0122497Y0264714D01*
X0122497Y0265738D02*
X0125573Y0265738D01*
X0125573Y0266762D02*
X0122497Y0266762D01*
X0135597Y0267066D02*
X0138673Y0267066D01*
X0138673Y0263990D01*
X0135597Y0263990D01*
X0135597Y0267066D01*
X0135597Y0265014D02*
X0138673Y0265014D01*
X0138673Y0266038D02*
X0135597Y0266038D01*
X0135597Y0267062D02*
X0138673Y0267062D01*
X0141597Y0267066D02*
X0144673Y0267066D01*
X0144673Y0263990D01*
X0141597Y0263990D01*
X0141597Y0267066D01*
X0141597Y0265014D02*
X0144673Y0265014D01*
X0144673Y0266038D02*
X0141597Y0266038D01*
X0141597Y0267062D02*
X0144673Y0267062D01*
X0150797Y0266490D02*
X0150797Y0269566D01*
X0153873Y0269566D01*
X0153873Y0266490D01*
X0150797Y0266490D01*
X0150797Y0267514D02*
X0153873Y0267514D01*
X0153873Y0268538D02*
X0150797Y0268538D01*
X0150797Y0269562D02*
X0153873Y0269562D01*
X0150797Y0272490D02*
X0150797Y0275566D01*
X0153873Y0275566D01*
X0153873Y0272490D01*
X0150797Y0272490D01*
X0150797Y0273514D02*
X0153873Y0273514D01*
X0153873Y0274538D02*
X0150797Y0274538D01*
X0150797Y0275562D02*
X0153873Y0275562D01*
X0083297Y0322890D02*
X0083297Y0325966D01*
X0086373Y0325966D01*
X0086373Y0322890D01*
X0083297Y0322890D01*
X0083297Y0323914D02*
X0086373Y0323914D01*
X0086373Y0324938D02*
X0083297Y0324938D01*
X0083297Y0325962D02*
X0086373Y0325962D01*
X0083297Y0328890D02*
X0083297Y0331966D01*
X0086373Y0331966D01*
X0086373Y0328890D01*
X0083297Y0328890D01*
X0083297Y0329914D02*
X0086373Y0329914D01*
X0086373Y0330938D02*
X0083297Y0330938D01*
X0083297Y0331962D02*
X0086373Y0331962D01*
X0065397Y0292166D02*
X0065397Y0289090D01*
X0065397Y0292166D02*
X0068473Y0292166D01*
X0068473Y0289090D01*
X0065397Y0289090D01*
X0065397Y0290114D02*
X0068473Y0290114D01*
X0068473Y0291138D02*
X0065397Y0291138D01*
X0065397Y0292162D02*
X0068473Y0292162D01*
X0065397Y0286166D02*
X0065397Y0283090D01*
X0065397Y0286166D02*
X0068473Y0286166D01*
X0068473Y0283090D01*
X0065397Y0283090D01*
X0065397Y0284114D02*
X0068473Y0284114D01*
X0068473Y0285138D02*
X0065397Y0285138D01*
X0065397Y0286162D02*
X0068473Y0286162D01*
X0259197Y0255666D02*
X0259197Y0252590D01*
X0259197Y0255666D02*
X0262273Y0255666D01*
X0262273Y0252590D01*
X0259197Y0252590D01*
X0259197Y0253614D02*
X0262273Y0253614D01*
X0262273Y0254638D02*
X0259197Y0254638D01*
X0259197Y0255662D02*
X0262273Y0255662D01*
X0259197Y0249666D02*
X0259197Y0246590D01*
X0259197Y0249666D02*
X0262273Y0249666D01*
X0262273Y0246590D01*
X0259197Y0246590D01*
X0259197Y0247614D02*
X0262273Y0247614D01*
X0262273Y0248638D02*
X0259197Y0248638D01*
X0259197Y0249662D02*
X0262273Y0249662D01*
X0262973Y0238890D02*
X0259897Y0238890D01*
X0259897Y0241966D01*
X0262973Y0241966D01*
X0262973Y0238890D01*
X0262973Y0239914D02*
X0259897Y0239914D01*
X0259897Y0240938D02*
X0262973Y0240938D01*
X0262973Y0241962D02*
X0259897Y0241962D01*
X0265897Y0238890D02*
X0268973Y0238890D01*
X0265897Y0238890D02*
X0265897Y0241966D01*
X0268973Y0241966D01*
X0268973Y0238890D01*
X0268973Y0239914D02*
X0265897Y0239914D01*
X0265897Y0240938D02*
X0268973Y0240938D01*
X0268973Y0241962D02*
X0265897Y0241962D01*
X0265397Y0219166D02*
X0268473Y0219166D01*
X0268473Y0216090D01*
X0265397Y0216090D01*
X0265397Y0219166D01*
X0265397Y0217114D02*
X0268473Y0217114D01*
X0268473Y0218138D02*
X0265397Y0218138D01*
X0265397Y0219162D02*
X0268473Y0219162D01*
X0262473Y0219166D02*
X0259397Y0219166D01*
X0262473Y0219166D02*
X0262473Y0216090D01*
X0259397Y0216090D01*
X0259397Y0219166D01*
X0259397Y0217114D02*
X0262473Y0217114D01*
X0262473Y0218138D02*
X0259397Y0218138D01*
X0259397Y0219162D02*
X0262473Y0219162D01*
X0259197Y0211766D02*
X0259197Y0208690D01*
X0259197Y0211766D02*
X0262273Y0211766D01*
X0262273Y0208690D01*
X0259197Y0208690D01*
X0259197Y0209714D02*
X0262273Y0209714D01*
X0262273Y0210738D02*
X0259197Y0210738D01*
X0259197Y0211762D02*
X0262273Y0211762D01*
X0259197Y0205766D02*
X0259197Y0202690D01*
X0259197Y0205766D02*
X0262273Y0205766D01*
X0262273Y0202690D01*
X0259197Y0202690D01*
X0259197Y0203714D02*
X0262273Y0203714D01*
X0262273Y0204738D02*
X0259197Y0204738D01*
X0259197Y0205762D02*
X0262273Y0205762D01*
X0290897Y0193290D02*
X0293973Y0193290D01*
X0290897Y0193290D02*
X0290897Y0196366D01*
X0293973Y0196366D01*
X0293973Y0193290D01*
X0293973Y0194314D02*
X0290897Y0194314D01*
X0290897Y0195338D02*
X0293973Y0195338D01*
X0293973Y0196362D02*
X0290897Y0196362D01*
X0296897Y0193290D02*
X0299973Y0193290D01*
X0296897Y0193290D02*
X0296897Y0196366D01*
X0299973Y0196366D01*
X0299973Y0193290D01*
X0299973Y0194314D02*
X0296897Y0194314D01*
X0296897Y0195338D02*
X0299973Y0195338D01*
X0299973Y0196362D02*
X0296897Y0196362D01*
X0344897Y0192890D02*
X0347973Y0192890D01*
X0344897Y0192890D02*
X0344897Y0195966D01*
X0347973Y0195966D01*
X0347973Y0192890D01*
X0347973Y0193914D02*
X0344897Y0193914D01*
X0344897Y0194938D02*
X0347973Y0194938D01*
X0347973Y0195962D02*
X0344897Y0195962D01*
X0350897Y0192890D02*
X0353973Y0192890D01*
X0350897Y0192890D02*
X0350897Y0195966D01*
X0353973Y0195966D01*
X0353973Y0192890D01*
X0353973Y0193914D02*
X0350897Y0193914D01*
X0350897Y0194938D02*
X0353973Y0194938D01*
X0353973Y0195962D02*
X0350897Y0195962D01*
X0316173Y0047666D02*
X0313097Y0047666D01*
X0316173Y0047666D02*
X0316173Y0044590D01*
X0313097Y0044590D01*
X0313097Y0047666D01*
X0313097Y0045614D02*
X0316173Y0045614D01*
X0316173Y0046638D02*
X0313097Y0046638D01*
X0313097Y0047662D02*
X0316173Y0047662D01*
X0310173Y0047666D02*
X0307097Y0047666D01*
X0310173Y0047666D02*
X0310173Y0044590D01*
X0307097Y0044590D01*
X0307097Y0047666D01*
X0307097Y0045614D02*
X0310173Y0045614D01*
X0310173Y0046638D02*
X0307097Y0046638D01*
X0307097Y0047662D02*
X0310173Y0047662D01*
D30*
X0204325Y0319966D03*
X0202356Y0319966D03*
X0200387Y0319966D03*
X0198419Y0319966D03*
X0196450Y0319966D03*
X0194482Y0319966D03*
X0192513Y0319966D03*
X0190545Y0319966D03*
D31*
X0187789Y0319966D03*
X0184738Y0319966D03*
X0207080Y0319966D03*
X0210132Y0319966D03*
D32*
X0208813Y0324317D03*
X0186057Y0324317D03*
D33*
X0182789Y0324318D02*
X0178065Y0324318D01*
X0178065Y0324356D02*
X0182789Y0324356D01*
X0182789Y0324393D02*
X0178065Y0324393D01*
X0178065Y0324431D02*
X0182789Y0324431D01*
X0182789Y0324469D02*
X0178065Y0324469D01*
X0178065Y0324507D02*
X0182789Y0324507D01*
X0182789Y0324545D02*
X0178065Y0324545D01*
X0178065Y0324583D02*
X0182789Y0324583D01*
X0182789Y0324612D02*
X0182708Y0325111D01*
X0182519Y0325579D01*
X0182230Y0325994D01*
X0181856Y0326333D01*
X0181416Y0326581D01*
X0180931Y0326725D01*
X0180427Y0326758D01*
X0179923Y0326725D01*
X0179438Y0326581D01*
X0178998Y0326333D01*
X0178624Y0325994D01*
X0178335Y0325579D01*
X0178145Y0325111D01*
X0178065Y0324612D01*
X0178065Y0319887D01*
X0178141Y0319384D01*
X0178328Y0318910D01*
X0178616Y0318489D01*
X0178990Y0318143D01*
X0179432Y0317889D01*
X0179919Y0317740D01*
X0180427Y0317702D01*
X0180872Y0317729D01*
X0181304Y0317842D01*
X0181705Y0318036D01*
X0182061Y0318306D01*
X0182357Y0318639D01*
X0182582Y0319024D01*
X0182728Y0319446D01*
X0182789Y0319887D01*
X0182789Y0324612D01*
X0182788Y0324621D02*
X0178066Y0324621D01*
X0178072Y0324659D02*
X0182782Y0324659D01*
X0182775Y0324696D02*
X0178078Y0324696D01*
X0178084Y0324734D02*
X0182769Y0324734D01*
X0182763Y0324772D02*
X0178091Y0324772D01*
X0178097Y0324810D02*
X0182757Y0324810D01*
X0182751Y0324848D02*
X0178103Y0324848D01*
X0178109Y0324886D02*
X0182745Y0324886D01*
X0182739Y0324924D02*
X0178115Y0324924D01*
X0178121Y0324962D02*
X0182733Y0324962D01*
X0182726Y0324999D02*
X0178127Y0324999D01*
X0178133Y0325037D02*
X0182720Y0325037D01*
X0182714Y0325075D02*
X0178140Y0325075D01*
X0178146Y0325113D02*
X0182707Y0325113D01*
X0182692Y0325151D02*
X0178162Y0325151D01*
X0178177Y0325189D02*
X0182677Y0325189D01*
X0182661Y0325227D02*
X0178192Y0325227D01*
X0178208Y0325265D02*
X0182646Y0325265D01*
X0182631Y0325303D02*
X0178223Y0325303D01*
X0178238Y0325340D02*
X0182615Y0325340D01*
X0182600Y0325378D02*
X0178254Y0325378D01*
X0178269Y0325416D02*
X0182585Y0325416D01*
X0182570Y0325454D02*
X0178284Y0325454D01*
X0178300Y0325492D02*
X0182554Y0325492D01*
X0182539Y0325530D02*
X0178315Y0325530D01*
X0178330Y0325568D02*
X0182523Y0325568D01*
X0182500Y0325606D02*
X0178353Y0325606D01*
X0178380Y0325643D02*
X0182474Y0325643D01*
X0182448Y0325681D02*
X0178406Y0325681D01*
X0178433Y0325719D02*
X0182421Y0325719D01*
X0182395Y0325757D02*
X0178459Y0325757D01*
X0178485Y0325795D02*
X0182368Y0325795D01*
X0182342Y0325833D02*
X0178512Y0325833D01*
X0178538Y0325871D02*
X0182315Y0325871D01*
X0182289Y0325909D02*
X0178565Y0325909D01*
X0178591Y0325947D02*
X0182263Y0325947D01*
X0182236Y0325984D02*
X0178618Y0325984D01*
X0178656Y0326022D02*
X0182198Y0326022D01*
X0182157Y0326060D02*
X0178697Y0326060D01*
X0178739Y0326098D02*
X0182115Y0326098D01*
X0182073Y0326136D02*
X0178781Y0326136D01*
X0178822Y0326174D02*
X0182031Y0326174D01*
X0181990Y0326212D02*
X0178864Y0326212D01*
X0178906Y0326250D02*
X0181948Y0326250D01*
X0181906Y0326287D02*
X0178947Y0326287D01*
X0178989Y0326325D02*
X0181865Y0326325D01*
X0181803Y0326363D02*
X0179051Y0326363D01*
X0179118Y0326401D02*
X0181735Y0326401D01*
X0181668Y0326439D02*
X0179186Y0326439D01*
X0179253Y0326477D02*
X0181601Y0326477D01*
X0181534Y0326515D02*
X0179320Y0326515D01*
X0179387Y0326553D02*
X0181466Y0326553D01*
X0181385Y0326591D02*
X0179469Y0326591D01*
X0179597Y0326628D02*
X0181257Y0326628D01*
X0181129Y0326666D02*
X0179724Y0326666D01*
X0179852Y0326704D02*
X0181002Y0326704D01*
X0180668Y0326742D02*
X0180185Y0326742D01*
X0178065Y0324280D02*
X0182789Y0324280D01*
X0182789Y0324242D02*
X0178065Y0324242D01*
X0178065Y0324204D02*
X0182789Y0324204D01*
X0182789Y0324166D02*
X0178065Y0324166D01*
X0178065Y0324128D02*
X0182789Y0324128D01*
X0182789Y0324090D02*
X0178065Y0324090D01*
X0178065Y0324052D02*
X0182789Y0324052D01*
X0182789Y0324015D02*
X0178065Y0324015D01*
X0178065Y0323977D02*
X0182789Y0323977D01*
X0182789Y0323939D02*
X0178065Y0323939D01*
X0178065Y0323901D02*
X0182789Y0323901D01*
X0182789Y0323863D02*
X0178065Y0323863D01*
X0178065Y0323825D02*
X0182789Y0323825D01*
X0182789Y0323787D02*
X0178065Y0323787D01*
X0178065Y0323749D02*
X0182789Y0323749D01*
X0182789Y0323712D02*
X0178065Y0323712D01*
X0178065Y0323674D02*
X0182789Y0323674D01*
X0182789Y0323636D02*
X0178065Y0323636D01*
X0178065Y0323598D02*
X0182789Y0323598D01*
X0182789Y0323560D02*
X0178065Y0323560D01*
X0178065Y0323522D02*
X0182789Y0323522D01*
X0182789Y0323484D02*
X0178065Y0323484D01*
X0178065Y0323446D02*
X0182789Y0323446D01*
X0182789Y0323408D02*
X0178065Y0323408D01*
X0178065Y0323371D02*
X0182789Y0323371D01*
X0182789Y0323333D02*
X0178065Y0323333D01*
X0178065Y0323295D02*
X0182789Y0323295D01*
X0182789Y0323257D02*
X0178065Y0323257D01*
X0178065Y0323219D02*
X0182789Y0323219D01*
X0182789Y0323181D02*
X0178065Y0323181D01*
X0178065Y0323143D02*
X0182789Y0323143D01*
X0182789Y0323105D02*
X0178065Y0323105D01*
X0178065Y0323068D02*
X0182789Y0323068D01*
X0182789Y0323030D02*
X0178065Y0323030D01*
X0178065Y0322992D02*
X0182789Y0322992D01*
X0182789Y0322954D02*
X0178065Y0322954D01*
X0178065Y0322916D02*
X0182789Y0322916D01*
X0182789Y0322878D02*
X0178065Y0322878D01*
X0178065Y0322840D02*
X0182789Y0322840D01*
X0182789Y0322802D02*
X0178065Y0322802D01*
X0178065Y0322764D02*
X0182789Y0322764D01*
X0182789Y0322727D02*
X0178065Y0322727D01*
X0178065Y0322689D02*
X0182789Y0322689D01*
X0182789Y0322651D02*
X0178065Y0322651D01*
X0178065Y0322613D02*
X0182789Y0322613D01*
X0182789Y0322575D02*
X0178065Y0322575D01*
X0178065Y0322537D02*
X0182789Y0322537D01*
X0182789Y0322499D02*
X0178065Y0322499D01*
X0178065Y0322461D02*
X0182789Y0322461D01*
X0182789Y0322424D02*
X0178065Y0322424D01*
X0178065Y0322386D02*
X0182789Y0322386D01*
X0182789Y0322348D02*
X0178065Y0322348D01*
X0178065Y0322310D02*
X0182789Y0322310D01*
X0182789Y0322272D02*
X0178065Y0322272D01*
X0178065Y0322234D02*
X0182789Y0322234D01*
X0182789Y0322196D02*
X0178065Y0322196D01*
X0178065Y0322158D02*
X0182789Y0322158D01*
X0182789Y0322121D02*
X0178065Y0322121D01*
X0178065Y0322083D02*
X0182789Y0322083D01*
X0182789Y0322045D02*
X0178065Y0322045D01*
X0178065Y0322007D02*
X0182789Y0322007D01*
X0182789Y0321969D02*
X0178065Y0321969D01*
X0178065Y0321931D02*
X0182789Y0321931D01*
X0182789Y0321893D02*
X0178065Y0321893D01*
X0178065Y0321855D02*
X0182789Y0321855D01*
X0182789Y0321817D02*
X0178065Y0321817D01*
X0178065Y0321780D02*
X0182789Y0321780D01*
X0182789Y0321742D02*
X0178065Y0321742D01*
X0178065Y0321704D02*
X0182789Y0321704D01*
X0182789Y0321666D02*
X0178065Y0321666D01*
X0178065Y0321628D02*
X0182789Y0321628D01*
X0182789Y0321590D02*
X0178065Y0321590D01*
X0178065Y0321552D02*
X0182789Y0321552D01*
X0182789Y0321514D02*
X0178065Y0321514D01*
X0178065Y0321477D02*
X0182789Y0321477D01*
X0182789Y0321439D02*
X0178065Y0321439D01*
X0178065Y0321401D02*
X0182789Y0321401D01*
X0182789Y0321363D02*
X0178065Y0321363D01*
X0178065Y0321325D02*
X0182789Y0321325D01*
X0182789Y0321287D02*
X0178065Y0321287D01*
X0178065Y0321249D02*
X0182789Y0321249D01*
X0182789Y0321211D02*
X0178065Y0321211D01*
X0178065Y0321173D02*
X0182789Y0321173D01*
X0182789Y0321136D02*
X0178065Y0321136D01*
X0178065Y0321098D02*
X0182789Y0321098D01*
X0182789Y0321060D02*
X0178065Y0321060D01*
X0178065Y0321022D02*
X0182789Y0321022D01*
X0182789Y0320984D02*
X0178065Y0320984D01*
X0178065Y0320946D02*
X0182789Y0320946D01*
X0182789Y0320908D02*
X0178065Y0320908D01*
X0178065Y0320870D02*
X0182789Y0320870D01*
X0182789Y0320833D02*
X0178065Y0320833D01*
X0178065Y0320795D02*
X0182789Y0320795D01*
X0182789Y0320757D02*
X0178065Y0320757D01*
X0178065Y0320719D02*
X0182789Y0320719D01*
X0182789Y0320681D02*
X0178065Y0320681D01*
X0178065Y0320643D02*
X0182789Y0320643D01*
X0182789Y0320605D02*
X0178065Y0320605D01*
X0178065Y0320567D02*
X0182789Y0320567D01*
X0182789Y0320529D02*
X0178065Y0320529D01*
X0178065Y0320492D02*
X0182789Y0320492D01*
X0182789Y0320454D02*
X0178065Y0320454D01*
X0178065Y0320416D02*
X0182789Y0320416D01*
X0182789Y0320378D02*
X0178065Y0320378D01*
X0178065Y0320340D02*
X0182789Y0320340D01*
X0182789Y0320302D02*
X0178065Y0320302D01*
X0178065Y0320264D02*
X0182789Y0320264D01*
X0182789Y0320226D02*
X0178065Y0320226D01*
X0178065Y0320189D02*
X0182789Y0320189D01*
X0182789Y0320151D02*
X0178065Y0320151D01*
X0178065Y0320113D02*
X0182789Y0320113D01*
X0182789Y0320075D02*
X0178065Y0320075D01*
X0178065Y0320037D02*
X0182789Y0320037D01*
X0182789Y0319999D02*
X0178065Y0319999D01*
X0178065Y0319961D02*
X0182789Y0319961D01*
X0182789Y0319923D02*
X0178065Y0319923D01*
X0178065Y0319886D02*
X0182789Y0319886D01*
X0182784Y0319848D02*
X0178071Y0319848D01*
X0178077Y0319810D02*
X0182778Y0319810D01*
X0182773Y0319772D02*
X0178082Y0319772D01*
X0178088Y0319734D02*
X0182768Y0319734D01*
X0182763Y0319696D02*
X0178094Y0319696D01*
X0178100Y0319658D02*
X0182757Y0319658D01*
X0182752Y0319620D02*
X0178105Y0319620D01*
X0178111Y0319582D02*
X0182747Y0319582D01*
X0182742Y0319545D02*
X0178117Y0319545D01*
X0178123Y0319507D02*
X0182737Y0319507D01*
X0182731Y0319469D02*
X0178128Y0319469D01*
X0178134Y0319431D02*
X0182723Y0319431D01*
X0182710Y0319393D02*
X0178140Y0319393D01*
X0178153Y0319355D02*
X0182697Y0319355D01*
X0182684Y0319317D02*
X0178168Y0319317D01*
X0178183Y0319279D02*
X0182671Y0319279D01*
X0182657Y0319242D02*
X0178197Y0319242D01*
X0178212Y0319204D02*
X0182644Y0319204D01*
X0182631Y0319166D02*
X0178227Y0319166D01*
X0178242Y0319128D02*
X0182618Y0319128D01*
X0182605Y0319090D02*
X0178257Y0319090D01*
X0178272Y0319052D02*
X0182592Y0319052D01*
X0182576Y0319014D02*
X0178287Y0319014D01*
X0178302Y0318976D02*
X0182554Y0318976D01*
X0182532Y0318938D02*
X0178317Y0318938D01*
X0178335Y0318901D02*
X0182510Y0318901D01*
X0182488Y0318863D02*
X0178360Y0318863D01*
X0178386Y0318825D02*
X0182465Y0318825D01*
X0182443Y0318787D02*
X0178412Y0318787D01*
X0178438Y0318749D02*
X0182421Y0318749D01*
X0182399Y0318711D02*
X0178464Y0318711D01*
X0178490Y0318673D02*
X0182377Y0318673D01*
X0182353Y0318635D02*
X0178516Y0318635D01*
X0178542Y0318598D02*
X0182320Y0318598D01*
X0182286Y0318560D02*
X0178568Y0318560D01*
X0178594Y0318522D02*
X0182252Y0318522D01*
X0182219Y0318484D02*
X0178622Y0318484D01*
X0178663Y0318446D02*
X0182185Y0318446D01*
X0182151Y0318408D02*
X0178704Y0318408D01*
X0178745Y0318370D02*
X0182118Y0318370D01*
X0182084Y0318332D02*
X0178786Y0318332D01*
X0178826Y0318294D02*
X0182046Y0318294D01*
X0181996Y0318257D02*
X0178867Y0318257D01*
X0178908Y0318219D02*
X0181946Y0318219D01*
X0181896Y0318181D02*
X0178949Y0318181D01*
X0178990Y0318143D02*
X0181846Y0318143D01*
X0181796Y0318105D02*
X0179056Y0318105D01*
X0179122Y0318067D02*
X0181746Y0318067D01*
X0181690Y0318029D02*
X0179188Y0318029D01*
X0179254Y0317991D02*
X0181612Y0317991D01*
X0181534Y0317954D02*
X0179320Y0317954D01*
X0179386Y0317916D02*
X0181456Y0317916D01*
X0181378Y0317878D02*
X0179469Y0317878D01*
X0179592Y0317840D02*
X0181297Y0317840D01*
X0181152Y0317802D02*
X0179716Y0317802D01*
X0179839Y0317764D02*
X0181007Y0317764D01*
X0180829Y0317726D02*
X0180102Y0317726D01*
X0180427Y0335143D02*
X0179964Y0335191D01*
X0179520Y0335328D01*
X0179111Y0335549D01*
X0178752Y0335845D01*
X0178459Y0336206D01*
X0178241Y0336617D01*
X0178108Y0337062D01*
X0178065Y0337525D01*
X0178065Y0339887D01*
X0182789Y0339887D01*
X0182728Y0340411D01*
X0182552Y0340907D01*
X0182270Y0341352D01*
X0181896Y0341723D01*
X0181448Y0342001D01*
X0180951Y0342173D01*
X0180427Y0342230D01*
X0179968Y0342187D01*
X0179526Y0342055D01*
X0179118Y0341839D01*
X0178761Y0341548D01*
X0178467Y0341193D01*
X0178247Y0340787D01*
X0178112Y0340346D01*
X0178065Y0339887D01*
X0178068Y0339925D02*
X0182785Y0339925D01*
X0182789Y0339887D02*
X0182789Y0337525D01*
X0182732Y0336997D01*
X0182558Y0336495D01*
X0182278Y0336044D01*
X0181904Y0335667D01*
X0181455Y0335383D01*
X0180954Y0335205D01*
X0180427Y0335143D01*
X0180498Y0335152D02*
X0180346Y0335152D01*
X0179977Y0335190D02*
X0180822Y0335190D01*
X0181018Y0335227D02*
X0179845Y0335227D01*
X0179722Y0335265D02*
X0181125Y0335265D01*
X0181231Y0335303D02*
X0179599Y0335303D01*
X0179495Y0335341D02*
X0181338Y0335341D01*
X0181445Y0335379D02*
X0179425Y0335379D01*
X0179355Y0335417D02*
X0181509Y0335417D01*
X0181569Y0335455D02*
X0179285Y0335455D01*
X0179214Y0335493D02*
X0181629Y0335493D01*
X0181688Y0335531D02*
X0179144Y0335531D01*
X0179087Y0335568D02*
X0181748Y0335568D01*
X0181808Y0335606D02*
X0179041Y0335606D01*
X0178995Y0335644D02*
X0181868Y0335644D01*
X0181919Y0335682D02*
X0178949Y0335682D01*
X0178904Y0335720D02*
X0181956Y0335720D01*
X0181994Y0335758D02*
X0178858Y0335758D01*
X0178812Y0335796D02*
X0182031Y0335796D01*
X0182069Y0335834D02*
X0178766Y0335834D01*
X0178731Y0335871D02*
X0182106Y0335871D01*
X0182144Y0335909D02*
X0178700Y0335909D01*
X0178669Y0335947D02*
X0182182Y0335947D01*
X0182219Y0335985D02*
X0178639Y0335985D01*
X0178608Y0336023D02*
X0182257Y0336023D01*
X0182288Y0336061D02*
X0178577Y0336061D01*
X0178546Y0336099D02*
X0182312Y0336099D01*
X0182335Y0336137D02*
X0178515Y0336137D01*
X0178484Y0336175D02*
X0182359Y0336175D01*
X0182382Y0336212D02*
X0178455Y0336212D01*
X0178435Y0336250D02*
X0182406Y0336250D01*
X0182430Y0336288D02*
X0178415Y0336288D01*
X0178395Y0336326D02*
X0182453Y0336326D01*
X0182477Y0336364D02*
X0178375Y0336364D01*
X0178355Y0336402D02*
X0182500Y0336402D01*
X0182524Y0336440D02*
X0178335Y0336440D01*
X0178315Y0336478D02*
X0182548Y0336478D01*
X0182565Y0336515D02*
X0178295Y0336515D01*
X0178275Y0336553D02*
X0182579Y0336553D01*
X0182592Y0336591D02*
X0178255Y0336591D01*
X0178238Y0336629D02*
X0182605Y0336629D01*
X0182618Y0336667D02*
X0178226Y0336667D01*
X0178215Y0336705D02*
X0182631Y0336705D01*
X0182644Y0336743D02*
X0178204Y0336743D01*
X0178193Y0336781D02*
X0182657Y0336781D01*
X0182670Y0336818D02*
X0178181Y0336818D01*
X0178170Y0336856D02*
X0182683Y0336856D01*
X0182696Y0336894D02*
X0178159Y0336894D01*
X0178147Y0336932D02*
X0182709Y0336932D01*
X0182722Y0336970D02*
X0178136Y0336970D01*
X0178125Y0337008D02*
X0182733Y0337008D01*
X0182737Y0337046D02*
X0178113Y0337046D01*
X0178106Y0337084D02*
X0182741Y0337084D01*
X0182745Y0337122D02*
X0178103Y0337122D01*
X0178099Y0337159D02*
X0182749Y0337159D01*
X0182754Y0337197D02*
X0178096Y0337197D01*
X0178092Y0337235D02*
X0182758Y0337235D01*
X0182762Y0337273D02*
X0178088Y0337273D01*
X0178085Y0337311D02*
X0182766Y0337311D01*
X0182770Y0337349D02*
X0178081Y0337349D01*
X0178078Y0337387D02*
X0182774Y0337387D01*
X0182778Y0337425D02*
X0178074Y0337425D01*
X0178071Y0337462D02*
X0182782Y0337462D01*
X0182786Y0337500D02*
X0178067Y0337500D01*
X0178065Y0337538D02*
X0182789Y0337538D01*
X0182789Y0337576D02*
X0178065Y0337576D01*
X0178065Y0337614D02*
X0182789Y0337614D01*
X0182789Y0337652D02*
X0178065Y0337652D01*
X0178065Y0337690D02*
X0182789Y0337690D01*
X0182789Y0337728D02*
X0178065Y0337728D01*
X0178065Y0337766D02*
X0182789Y0337766D01*
X0182789Y0337803D02*
X0178065Y0337803D01*
X0178065Y0337841D02*
X0182789Y0337841D01*
X0182789Y0337879D02*
X0178065Y0337879D01*
X0178065Y0337917D02*
X0182789Y0337917D01*
X0182789Y0337955D02*
X0178065Y0337955D01*
X0178065Y0337993D02*
X0182789Y0337993D01*
X0182789Y0338031D02*
X0178065Y0338031D01*
X0178065Y0338069D02*
X0182789Y0338069D01*
X0182789Y0338106D02*
X0178065Y0338106D01*
X0178065Y0338144D02*
X0182789Y0338144D01*
X0182789Y0338182D02*
X0178065Y0338182D01*
X0178065Y0338220D02*
X0182789Y0338220D01*
X0182789Y0338258D02*
X0178065Y0338258D01*
X0178065Y0338296D02*
X0182789Y0338296D01*
X0182789Y0338334D02*
X0178065Y0338334D01*
X0178065Y0338372D02*
X0182789Y0338372D01*
X0182789Y0338410D02*
X0178065Y0338410D01*
X0178065Y0338447D02*
X0182789Y0338447D01*
X0182789Y0338485D02*
X0178065Y0338485D01*
X0178065Y0338523D02*
X0182789Y0338523D01*
X0182789Y0338561D02*
X0178065Y0338561D01*
X0178065Y0338599D02*
X0182789Y0338599D01*
X0182789Y0338637D02*
X0178065Y0338637D01*
X0178065Y0338675D02*
X0182789Y0338675D01*
X0182789Y0338713D02*
X0178065Y0338713D01*
X0178065Y0338750D02*
X0182789Y0338750D01*
X0182789Y0338788D02*
X0178065Y0338788D01*
X0178065Y0338826D02*
X0182789Y0338826D01*
X0182789Y0338864D02*
X0178065Y0338864D01*
X0178065Y0338902D02*
X0182789Y0338902D01*
X0182789Y0338940D02*
X0178065Y0338940D01*
X0178065Y0338978D02*
X0182789Y0338978D01*
X0182789Y0339016D02*
X0178065Y0339016D01*
X0178065Y0339053D02*
X0182789Y0339053D01*
X0182789Y0339091D02*
X0178065Y0339091D01*
X0178065Y0339129D02*
X0182789Y0339129D01*
X0182789Y0339167D02*
X0178065Y0339167D01*
X0178065Y0339205D02*
X0182789Y0339205D01*
X0182789Y0339243D02*
X0178065Y0339243D01*
X0178065Y0339281D02*
X0182789Y0339281D01*
X0182789Y0339319D02*
X0178065Y0339319D01*
X0178065Y0339357D02*
X0182789Y0339357D01*
X0182789Y0339394D02*
X0178065Y0339394D01*
X0178065Y0339432D02*
X0182789Y0339432D01*
X0182789Y0339470D02*
X0178065Y0339470D01*
X0178065Y0339508D02*
X0182789Y0339508D01*
X0182789Y0339546D02*
X0178065Y0339546D01*
X0178065Y0339584D02*
X0182789Y0339584D01*
X0182789Y0339622D02*
X0178065Y0339622D01*
X0178065Y0339660D02*
X0182789Y0339660D01*
X0182789Y0339697D02*
X0178065Y0339697D01*
X0178065Y0339735D02*
X0182789Y0339735D01*
X0182789Y0339773D02*
X0178065Y0339773D01*
X0178065Y0339811D02*
X0182789Y0339811D01*
X0182789Y0339849D02*
X0178065Y0339849D01*
X0178072Y0339963D02*
X0182780Y0339963D01*
X0182776Y0340001D02*
X0178076Y0340001D01*
X0178080Y0340038D02*
X0182771Y0340038D01*
X0182767Y0340076D02*
X0178084Y0340076D01*
X0178088Y0340114D02*
X0182763Y0340114D01*
X0182758Y0340152D02*
X0178092Y0340152D01*
X0178096Y0340190D02*
X0182754Y0340190D01*
X0182749Y0340228D02*
X0178100Y0340228D01*
X0178104Y0340266D02*
X0182745Y0340266D01*
X0182740Y0340304D02*
X0178107Y0340304D01*
X0178111Y0340341D02*
X0182736Y0340341D01*
X0182732Y0340379D02*
X0178122Y0340379D01*
X0178134Y0340417D02*
X0182726Y0340417D01*
X0182712Y0340455D02*
X0178145Y0340455D01*
X0178157Y0340493D02*
X0182699Y0340493D01*
X0182685Y0340531D02*
X0178169Y0340531D01*
X0178180Y0340569D02*
X0182672Y0340569D01*
X0182658Y0340607D02*
X0178192Y0340607D01*
X0178204Y0340645D02*
X0182645Y0340645D01*
X0182632Y0340682D02*
X0178215Y0340682D01*
X0178227Y0340720D02*
X0182618Y0340720D01*
X0182605Y0340758D02*
X0178239Y0340758D01*
X0178252Y0340796D02*
X0182591Y0340796D01*
X0182578Y0340834D02*
X0178273Y0340834D01*
X0178293Y0340872D02*
X0182564Y0340872D01*
X0182550Y0340910D02*
X0178314Y0340910D01*
X0178334Y0340948D02*
X0182526Y0340948D01*
X0182502Y0340985D02*
X0178355Y0340985D01*
X0178375Y0341023D02*
X0182478Y0341023D01*
X0182454Y0341061D02*
X0178396Y0341061D01*
X0178416Y0341099D02*
X0182430Y0341099D01*
X0182406Y0341137D02*
X0178436Y0341137D01*
X0178457Y0341175D02*
X0182382Y0341175D01*
X0182358Y0341213D02*
X0178483Y0341213D01*
X0178514Y0341251D02*
X0182334Y0341251D01*
X0182310Y0341288D02*
X0178546Y0341288D01*
X0178577Y0341326D02*
X0182286Y0341326D01*
X0182257Y0341364D02*
X0178609Y0341364D01*
X0178640Y0341402D02*
X0182219Y0341402D01*
X0182181Y0341440D02*
X0178671Y0341440D01*
X0178703Y0341478D02*
X0182143Y0341478D01*
X0182105Y0341516D02*
X0178734Y0341516D01*
X0178768Y0341554D02*
X0182066Y0341554D01*
X0182028Y0341592D02*
X0178814Y0341592D01*
X0178861Y0341629D02*
X0181990Y0341629D01*
X0181952Y0341667D02*
X0178907Y0341667D01*
X0178954Y0341705D02*
X0181914Y0341705D01*
X0181863Y0341743D02*
X0179000Y0341743D01*
X0179047Y0341781D02*
X0181802Y0341781D01*
X0181742Y0341819D02*
X0179093Y0341819D01*
X0179152Y0341857D02*
X0181681Y0341857D01*
X0181620Y0341895D02*
X0179223Y0341895D01*
X0179295Y0341932D02*
X0181559Y0341932D01*
X0181498Y0341970D02*
X0179366Y0341970D01*
X0179438Y0342008D02*
X0181428Y0342008D01*
X0181319Y0342046D02*
X0179510Y0342046D01*
X0179624Y0342084D02*
X0181209Y0342084D01*
X0181099Y0342122D02*
X0179751Y0342122D01*
X0179878Y0342160D02*
X0180990Y0342160D01*
X0180725Y0342198D02*
X0180084Y0342198D01*
X0212080Y0339887D02*
X0212080Y0337525D01*
X0212124Y0337062D01*
X0212257Y0336617D01*
X0212475Y0336206D01*
X0212768Y0335845D01*
X0213126Y0335549D01*
X0213536Y0335328D01*
X0213980Y0335191D01*
X0214443Y0335143D01*
X0214970Y0335205D01*
X0215471Y0335383D01*
X0215919Y0335667D01*
X0216293Y0336044D01*
X0216574Y0336495D01*
X0216748Y0336997D01*
X0216805Y0337525D01*
X0216805Y0339887D01*
X0212080Y0339887D01*
X0212128Y0340346D01*
X0212263Y0340787D01*
X0212482Y0341193D01*
X0212776Y0341548D01*
X0213134Y0341839D01*
X0213542Y0342055D01*
X0213984Y0342187D01*
X0214443Y0342230D01*
X0214966Y0342173D01*
X0215464Y0342001D01*
X0215911Y0341723D01*
X0216285Y0341352D01*
X0216568Y0340907D01*
X0216744Y0340411D01*
X0216805Y0339887D01*
X0216805Y0339849D02*
X0212080Y0339849D01*
X0212080Y0339811D02*
X0216805Y0339811D01*
X0216805Y0339773D02*
X0212080Y0339773D01*
X0212080Y0339735D02*
X0216805Y0339735D01*
X0216805Y0339697D02*
X0212080Y0339697D01*
X0212080Y0339660D02*
X0216805Y0339660D01*
X0216805Y0339622D02*
X0212080Y0339622D01*
X0212080Y0339584D02*
X0216805Y0339584D01*
X0216805Y0339546D02*
X0212080Y0339546D01*
X0212080Y0339508D02*
X0216805Y0339508D01*
X0216805Y0339470D02*
X0212080Y0339470D01*
X0212080Y0339432D02*
X0216805Y0339432D01*
X0216805Y0339394D02*
X0212080Y0339394D01*
X0212080Y0339357D02*
X0216805Y0339357D01*
X0216805Y0339319D02*
X0212080Y0339319D01*
X0212080Y0339281D02*
X0216805Y0339281D01*
X0216805Y0339243D02*
X0212080Y0339243D01*
X0212080Y0339205D02*
X0216805Y0339205D01*
X0216805Y0339167D02*
X0212080Y0339167D01*
X0212080Y0339129D02*
X0216805Y0339129D01*
X0216805Y0339091D02*
X0212080Y0339091D01*
X0212080Y0339053D02*
X0216805Y0339053D01*
X0216805Y0339016D02*
X0212080Y0339016D01*
X0212080Y0338978D02*
X0216805Y0338978D01*
X0216805Y0338940D02*
X0212080Y0338940D01*
X0212080Y0338902D02*
X0216805Y0338902D01*
X0216805Y0338864D02*
X0212080Y0338864D01*
X0212080Y0338826D02*
X0216805Y0338826D01*
X0216805Y0338788D02*
X0212080Y0338788D01*
X0212080Y0338750D02*
X0216805Y0338750D01*
X0216805Y0338713D02*
X0212080Y0338713D01*
X0212080Y0338675D02*
X0216805Y0338675D01*
X0216805Y0338637D02*
X0212080Y0338637D01*
X0212080Y0338599D02*
X0216805Y0338599D01*
X0216805Y0338561D02*
X0212080Y0338561D01*
X0212080Y0338523D02*
X0216805Y0338523D01*
X0216805Y0338485D02*
X0212080Y0338485D01*
X0212080Y0338447D02*
X0216805Y0338447D01*
X0216805Y0338410D02*
X0212080Y0338410D01*
X0212080Y0338372D02*
X0216805Y0338372D01*
X0216805Y0338334D02*
X0212080Y0338334D01*
X0212080Y0338296D02*
X0216805Y0338296D01*
X0216805Y0338258D02*
X0212080Y0338258D01*
X0212080Y0338220D02*
X0216805Y0338220D01*
X0216805Y0338182D02*
X0212080Y0338182D01*
X0212080Y0338144D02*
X0216805Y0338144D01*
X0216805Y0338106D02*
X0212080Y0338106D01*
X0212080Y0338069D02*
X0216805Y0338069D01*
X0216805Y0338031D02*
X0212080Y0338031D01*
X0212080Y0337993D02*
X0216805Y0337993D01*
X0216805Y0337955D02*
X0212080Y0337955D01*
X0212080Y0337917D02*
X0216805Y0337917D01*
X0216805Y0337879D02*
X0212080Y0337879D01*
X0212080Y0337841D02*
X0216805Y0337841D01*
X0216805Y0337803D02*
X0212080Y0337803D01*
X0212080Y0337766D02*
X0216805Y0337766D01*
X0216805Y0337728D02*
X0212080Y0337728D01*
X0212080Y0337690D02*
X0216805Y0337690D01*
X0216805Y0337652D02*
X0212080Y0337652D01*
X0212080Y0337614D02*
X0216805Y0337614D01*
X0216805Y0337576D02*
X0212080Y0337576D01*
X0212080Y0337538D02*
X0216805Y0337538D01*
X0216802Y0337500D02*
X0212083Y0337500D01*
X0212086Y0337462D02*
X0216798Y0337462D01*
X0216794Y0337425D02*
X0212090Y0337425D01*
X0212093Y0337387D02*
X0216790Y0337387D01*
X0216786Y0337349D02*
X0212097Y0337349D01*
X0212101Y0337311D02*
X0216782Y0337311D01*
X0216777Y0337273D02*
X0212104Y0337273D01*
X0212108Y0337235D02*
X0216773Y0337235D01*
X0216769Y0337197D02*
X0212111Y0337197D01*
X0212115Y0337159D02*
X0216765Y0337159D01*
X0216761Y0337122D02*
X0212119Y0337122D01*
X0212122Y0337084D02*
X0216757Y0337084D01*
X0216753Y0337046D02*
X0212129Y0337046D01*
X0212140Y0337008D02*
X0216749Y0337008D01*
X0216738Y0336970D02*
X0212152Y0336970D01*
X0212163Y0336932D02*
X0216725Y0336932D01*
X0216712Y0336894D02*
X0212174Y0336894D01*
X0212186Y0336856D02*
X0216699Y0336856D01*
X0216686Y0336818D02*
X0212197Y0336818D01*
X0212208Y0336781D02*
X0216673Y0336781D01*
X0216660Y0336743D02*
X0212220Y0336743D01*
X0212231Y0336705D02*
X0216647Y0336705D01*
X0216634Y0336667D02*
X0212242Y0336667D01*
X0212254Y0336629D02*
X0216620Y0336629D01*
X0216607Y0336591D02*
X0212271Y0336591D01*
X0212291Y0336553D02*
X0216594Y0336553D01*
X0216581Y0336515D02*
X0212311Y0336515D01*
X0212331Y0336478D02*
X0216563Y0336478D01*
X0216540Y0336440D02*
X0212351Y0336440D01*
X0212371Y0336402D02*
X0216516Y0336402D01*
X0216493Y0336364D02*
X0212391Y0336364D01*
X0212411Y0336326D02*
X0216469Y0336326D01*
X0216445Y0336288D02*
X0212431Y0336288D01*
X0212451Y0336250D02*
X0216422Y0336250D01*
X0216398Y0336212D02*
X0212471Y0336212D01*
X0212500Y0336175D02*
X0216375Y0336175D01*
X0216351Y0336137D02*
X0212531Y0336137D01*
X0212562Y0336099D02*
X0216327Y0336099D01*
X0216304Y0336061D02*
X0212593Y0336061D01*
X0212623Y0336023D02*
X0216272Y0336023D01*
X0216235Y0335985D02*
X0212654Y0335985D01*
X0212685Y0335947D02*
X0216197Y0335947D01*
X0216160Y0335909D02*
X0212716Y0335909D01*
X0212747Y0335871D02*
X0216122Y0335871D01*
X0216085Y0335834D02*
X0212782Y0335834D01*
X0212828Y0335796D02*
X0216047Y0335796D01*
X0216009Y0335758D02*
X0212874Y0335758D01*
X0212919Y0335720D02*
X0215972Y0335720D01*
X0215934Y0335682D02*
X0212965Y0335682D01*
X0213011Y0335644D02*
X0215883Y0335644D01*
X0215824Y0335606D02*
X0213057Y0335606D01*
X0213103Y0335568D02*
X0215764Y0335568D01*
X0215704Y0335531D02*
X0213160Y0335531D01*
X0213230Y0335493D02*
X0215644Y0335493D01*
X0215585Y0335455D02*
X0213300Y0335455D01*
X0213370Y0335417D02*
X0215525Y0335417D01*
X0215461Y0335379D02*
X0213441Y0335379D01*
X0213511Y0335341D02*
X0215354Y0335341D01*
X0215247Y0335303D02*
X0213615Y0335303D01*
X0213738Y0335265D02*
X0215140Y0335265D01*
X0215033Y0335227D02*
X0213861Y0335227D01*
X0213993Y0335190D02*
X0214838Y0335190D01*
X0214514Y0335152D02*
X0214362Y0335152D01*
X0212084Y0339925D02*
X0216800Y0339925D01*
X0216796Y0339963D02*
X0212088Y0339963D01*
X0212092Y0340001D02*
X0216792Y0340001D01*
X0216787Y0340038D02*
X0212096Y0340038D01*
X0212100Y0340076D02*
X0216783Y0340076D01*
X0216778Y0340114D02*
X0212104Y0340114D01*
X0212108Y0340152D02*
X0216774Y0340152D01*
X0216769Y0340190D02*
X0212111Y0340190D01*
X0212115Y0340228D02*
X0216765Y0340228D01*
X0216761Y0340266D02*
X0212119Y0340266D01*
X0212123Y0340304D02*
X0216756Y0340304D01*
X0216752Y0340341D02*
X0212127Y0340341D01*
X0212138Y0340379D02*
X0216747Y0340379D01*
X0216741Y0340417D02*
X0212149Y0340417D01*
X0212161Y0340455D02*
X0216728Y0340455D01*
X0216714Y0340493D02*
X0212173Y0340493D01*
X0212184Y0340531D02*
X0216701Y0340531D01*
X0216688Y0340569D02*
X0212196Y0340569D01*
X0212208Y0340607D02*
X0216674Y0340607D01*
X0216661Y0340645D02*
X0212219Y0340645D01*
X0212231Y0340682D02*
X0216647Y0340682D01*
X0216634Y0340720D02*
X0212243Y0340720D01*
X0212254Y0340758D02*
X0216620Y0340758D01*
X0216607Y0340796D02*
X0212268Y0340796D01*
X0212289Y0340834D02*
X0216594Y0340834D01*
X0216580Y0340872D02*
X0212309Y0340872D01*
X0212330Y0340910D02*
X0216566Y0340910D01*
X0216542Y0340948D02*
X0212350Y0340948D01*
X0212370Y0340985D02*
X0216518Y0340985D01*
X0216494Y0341023D02*
X0212391Y0341023D01*
X0212411Y0341061D02*
X0216470Y0341061D01*
X0216446Y0341099D02*
X0212432Y0341099D01*
X0212452Y0341137D02*
X0216422Y0341137D01*
X0216398Y0341175D02*
X0212473Y0341175D01*
X0212499Y0341213D02*
X0216374Y0341213D01*
X0216350Y0341251D02*
X0212530Y0341251D01*
X0212562Y0341288D02*
X0216326Y0341288D01*
X0216302Y0341326D02*
X0212593Y0341326D01*
X0212624Y0341364D02*
X0216273Y0341364D01*
X0216235Y0341402D02*
X0212656Y0341402D01*
X0212687Y0341440D02*
X0216197Y0341440D01*
X0216159Y0341478D02*
X0212718Y0341478D01*
X0212750Y0341516D02*
X0216120Y0341516D01*
X0216082Y0341554D02*
X0212783Y0341554D01*
X0212830Y0341592D02*
X0216044Y0341592D01*
X0216006Y0341629D02*
X0212876Y0341629D01*
X0212923Y0341667D02*
X0215968Y0341667D01*
X0215929Y0341705D02*
X0212970Y0341705D01*
X0213016Y0341743D02*
X0215879Y0341743D01*
X0215818Y0341781D02*
X0213063Y0341781D01*
X0213109Y0341819D02*
X0215757Y0341819D01*
X0215697Y0341857D02*
X0213167Y0341857D01*
X0213239Y0341895D02*
X0215636Y0341895D01*
X0215575Y0341932D02*
X0213311Y0341932D01*
X0213382Y0341970D02*
X0215514Y0341970D01*
X0215444Y0342008D02*
X0213454Y0342008D01*
X0213525Y0342046D02*
X0215334Y0342046D01*
X0215225Y0342084D02*
X0213640Y0342084D01*
X0213766Y0342122D02*
X0215115Y0342122D01*
X0215005Y0342160D02*
X0213893Y0342160D01*
X0214099Y0342198D02*
X0214741Y0342198D01*
X0214443Y0326758D02*
X0214947Y0326725D01*
X0215431Y0326581D01*
X0215872Y0326333D01*
X0216246Y0325994D01*
X0216535Y0325579D01*
X0216724Y0325111D01*
X0216805Y0324612D01*
X0216805Y0319887D01*
X0216744Y0319446D01*
X0216598Y0319024D01*
X0216372Y0318639D01*
X0216076Y0318306D01*
X0215721Y0318036D01*
X0215319Y0317842D01*
X0214888Y0317729D01*
X0214443Y0317702D01*
X0213934Y0317740D01*
X0213447Y0317889D01*
X0213006Y0318143D01*
X0215861Y0318143D01*
X0215811Y0318105D02*
X0213072Y0318105D01*
X0213138Y0318067D02*
X0215761Y0318067D01*
X0215706Y0318029D02*
X0213204Y0318029D01*
X0213270Y0317991D02*
X0215628Y0317991D01*
X0215550Y0317954D02*
X0213335Y0317954D01*
X0213401Y0317916D02*
X0215472Y0317916D01*
X0215394Y0317878D02*
X0213484Y0317878D01*
X0213608Y0317840D02*
X0215313Y0317840D01*
X0215168Y0317802D02*
X0213731Y0317802D01*
X0213855Y0317764D02*
X0215023Y0317764D01*
X0214844Y0317726D02*
X0214118Y0317726D01*
X0213006Y0318143D02*
X0212632Y0318489D01*
X0212344Y0318910D01*
X0212157Y0319384D01*
X0212080Y0319887D01*
X0212080Y0324612D01*
X0212161Y0325111D01*
X0212351Y0325579D01*
X0212640Y0325994D01*
X0213014Y0326333D01*
X0213454Y0326581D01*
X0213938Y0326725D01*
X0214443Y0326758D01*
X0214684Y0326742D02*
X0214201Y0326742D01*
X0213868Y0326704D02*
X0215018Y0326704D01*
X0215145Y0326666D02*
X0213740Y0326666D01*
X0213612Y0326628D02*
X0215273Y0326628D01*
X0215400Y0326591D02*
X0213485Y0326591D01*
X0213403Y0326553D02*
X0215482Y0326553D01*
X0215549Y0326515D02*
X0213336Y0326515D01*
X0213268Y0326477D02*
X0215617Y0326477D01*
X0215684Y0326439D02*
X0213201Y0326439D01*
X0213134Y0326401D02*
X0215751Y0326401D01*
X0215818Y0326363D02*
X0213067Y0326363D01*
X0213005Y0326325D02*
X0215880Y0326325D01*
X0215922Y0326287D02*
X0212963Y0326287D01*
X0212921Y0326250D02*
X0215964Y0326250D01*
X0216005Y0326212D02*
X0212880Y0326212D01*
X0212838Y0326174D02*
X0216047Y0326174D01*
X0216089Y0326136D02*
X0212796Y0326136D01*
X0212755Y0326098D02*
X0216131Y0326098D01*
X0216172Y0326060D02*
X0212713Y0326060D01*
X0212671Y0326022D02*
X0216214Y0326022D01*
X0216252Y0325984D02*
X0212633Y0325984D01*
X0212607Y0325947D02*
X0216278Y0325947D01*
X0216305Y0325909D02*
X0212580Y0325909D01*
X0212554Y0325871D02*
X0216331Y0325871D01*
X0216358Y0325833D02*
X0212528Y0325833D01*
X0212501Y0325795D02*
X0216384Y0325795D01*
X0216410Y0325757D02*
X0212475Y0325757D01*
X0212448Y0325719D02*
X0216437Y0325719D01*
X0216463Y0325681D02*
X0212422Y0325681D01*
X0212395Y0325643D02*
X0216490Y0325643D01*
X0216516Y0325606D02*
X0212369Y0325606D01*
X0212346Y0325568D02*
X0216539Y0325568D01*
X0216555Y0325530D02*
X0212331Y0325530D01*
X0212315Y0325492D02*
X0216570Y0325492D01*
X0216585Y0325454D02*
X0212300Y0325454D01*
X0212285Y0325416D02*
X0216601Y0325416D01*
X0216616Y0325378D02*
X0212269Y0325378D01*
X0212254Y0325340D02*
X0216631Y0325340D01*
X0216647Y0325303D02*
X0212239Y0325303D01*
X0212223Y0325265D02*
X0216662Y0325265D01*
X0216677Y0325227D02*
X0212208Y0325227D01*
X0212193Y0325189D02*
X0216693Y0325189D01*
X0216708Y0325151D02*
X0212177Y0325151D01*
X0212162Y0325113D02*
X0216723Y0325113D01*
X0216730Y0325075D02*
X0212155Y0325075D01*
X0212149Y0325037D02*
X0216736Y0325037D01*
X0216742Y0324999D02*
X0212143Y0324999D01*
X0212137Y0324962D02*
X0216748Y0324962D01*
X0216754Y0324924D02*
X0212131Y0324924D01*
X0212125Y0324886D02*
X0216761Y0324886D01*
X0216767Y0324848D02*
X0212119Y0324848D01*
X0212112Y0324810D02*
X0216773Y0324810D01*
X0216779Y0324772D02*
X0212106Y0324772D01*
X0212100Y0324734D02*
X0216785Y0324734D01*
X0216791Y0324696D02*
X0212094Y0324696D01*
X0212088Y0324659D02*
X0216797Y0324659D01*
X0216803Y0324621D02*
X0212082Y0324621D01*
X0212080Y0324583D02*
X0216805Y0324583D01*
X0216805Y0324545D02*
X0212080Y0324545D01*
X0212080Y0324507D02*
X0216805Y0324507D01*
X0216805Y0324469D02*
X0212080Y0324469D01*
X0212080Y0324431D02*
X0216805Y0324431D01*
X0216805Y0324393D02*
X0212080Y0324393D01*
X0212080Y0324356D02*
X0216805Y0324356D01*
X0216805Y0324318D02*
X0212080Y0324318D01*
X0212080Y0324280D02*
X0216805Y0324280D01*
X0216805Y0324242D02*
X0212080Y0324242D01*
X0212080Y0324204D02*
X0216805Y0324204D01*
X0216805Y0324166D02*
X0212080Y0324166D01*
X0212080Y0324128D02*
X0216805Y0324128D01*
X0216805Y0324090D02*
X0212080Y0324090D01*
X0212080Y0324052D02*
X0216805Y0324052D01*
X0216805Y0324015D02*
X0212080Y0324015D01*
X0212080Y0323977D02*
X0216805Y0323977D01*
X0216805Y0323939D02*
X0212080Y0323939D01*
X0212080Y0323901D02*
X0216805Y0323901D01*
X0216805Y0323863D02*
X0212080Y0323863D01*
X0212080Y0323825D02*
X0216805Y0323825D01*
X0216805Y0323787D02*
X0212080Y0323787D01*
X0212080Y0323749D02*
X0216805Y0323749D01*
X0216805Y0323712D02*
X0212080Y0323712D01*
X0212080Y0323674D02*
X0216805Y0323674D01*
X0216805Y0323636D02*
X0212080Y0323636D01*
X0212080Y0323598D02*
X0216805Y0323598D01*
X0216805Y0323560D02*
X0212080Y0323560D01*
X0212080Y0323522D02*
X0216805Y0323522D01*
X0216805Y0323484D02*
X0212080Y0323484D01*
X0212080Y0323446D02*
X0216805Y0323446D01*
X0216805Y0323408D02*
X0212080Y0323408D01*
X0212080Y0323371D02*
X0216805Y0323371D01*
X0216805Y0323333D02*
X0212080Y0323333D01*
X0212080Y0323295D02*
X0216805Y0323295D01*
X0216805Y0323257D02*
X0212080Y0323257D01*
X0212080Y0323219D02*
X0216805Y0323219D01*
X0216805Y0323181D02*
X0212080Y0323181D01*
X0212080Y0323143D02*
X0216805Y0323143D01*
X0216805Y0323105D02*
X0212080Y0323105D01*
X0212080Y0323068D02*
X0216805Y0323068D01*
X0216805Y0323030D02*
X0212080Y0323030D01*
X0212080Y0322992D02*
X0216805Y0322992D01*
X0216805Y0322954D02*
X0212080Y0322954D01*
X0212080Y0322916D02*
X0216805Y0322916D01*
X0216805Y0322878D02*
X0212080Y0322878D01*
X0212080Y0322840D02*
X0216805Y0322840D01*
X0216805Y0322802D02*
X0212080Y0322802D01*
X0212080Y0322764D02*
X0216805Y0322764D01*
X0216805Y0322727D02*
X0212080Y0322727D01*
X0212080Y0322689D02*
X0216805Y0322689D01*
X0216805Y0322651D02*
X0212080Y0322651D01*
X0212080Y0322613D02*
X0216805Y0322613D01*
X0216805Y0322575D02*
X0212080Y0322575D01*
X0212080Y0322537D02*
X0216805Y0322537D01*
X0216805Y0322499D02*
X0212080Y0322499D01*
X0212080Y0322461D02*
X0216805Y0322461D01*
X0216805Y0322424D02*
X0212080Y0322424D01*
X0212080Y0322386D02*
X0216805Y0322386D01*
X0216805Y0322348D02*
X0212080Y0322348D01*
X0212080Y0322310D02*
X0216805Y0322310D01*
X0216805Y0322272D02*
X0212080Y0322272D01*
X0212080Y0322234D02*
X0216805Y0322234D01*
X0216805Y0322196D02*
X0212080Y0322196D01*
X0212080Y0322158D02*
X0216805Y0322158D01*
X0216805Y0322121D02*
X0212080Y0322121D01*
X0212080Y0322083D02*
X0216805Y0322083D01*
X0216805Y0322045D02*
X0212080Y0322045D01*
X0212080Y0322007D02*
X0216805Y0322007D01*
X0216805Y0321969D02*
X0212080Y0321969D01*
X0212080Y0321931D02*
X0216805Y0321931D01*
X0216805Y0321893D02*
X0212080Y0321893D01*
X0212080Y0321855D02*
X0216805Y0321855D01*
X0216805Y0321817D02*
X0212080Y0321817D01*
X0212080Y0321780D02*
X0216805Y0321780D01*
X0216805Y0321742D02*
X0212080Y0321742D01*
X0212080Y0321704D02*
X0216805Y0321704D01*
X0216805Y0321666D02*
X0212080Y0321666D01*
X0212080Y0321628D02*
X0216805Y0321628D01*
X0216805Y0321590D02*
X0212080Y0321590D01*
X0212080Y0321552D02*
X0216805Y0321552D01*
X0216805Y0321514D02*
X0212080Y0321514D01*
X0212080Y0321477D02*
X0216805Y0321477D01*
X0216805Y0321439D02*
X0212080Y0321439D01*
X0212080Y0321401D02*
X0216805Y0321401D01*
X0216805Y0321363D02*
X0212080Y0321363D01*
X0212080Y0321325D02*
X0216805Y0321325D01*
X0216805Y0321287D02*
X0212080Y0321287D01*
X0212080Y0321249D02*
X0216805Y0321249D01*
X0216805Y0321211D02*
X0212080Y0321211D01*
X0212080Y0321173D02*
X0216805Y0321173D01*
X0216805Y0321136D02*
X0212080Y0321136D01*
X0212080Y0321098D02*
X0216805Y0321098D01*
X0216805Y0321060D02*
X0212080Y0321060D01*
X0212080Y0321022D02*
X0216805Y0321022D01*
X0216805Y0320984D02*
X0212080Y0320984D01*
X0212080Y0320946D02*
X0216805Y0320946D01*
X0216805Y0320908D02*
X0212080Y0320908D01*
X0212080Y0320870D02*
X0216805Y0320870D01*
X0216805Y0320833D02*
X0212080Y0320833D01*
X0212080Y0320795D02*
X0216805Y0320795D01*
X0216805Y0320757D02*
X0212080Y0320757D01*
X0212080Y0320719D02*
X0216805Y0320719D01*
X0216805Y0320681D02*
X0212080Y0320681D01*
X0212080Y0320643D02*
X0216805Y0320643D01*
X0216805Y0320605D02*
X0212080Y0320605D01*
X0212080Y0320567D02*
X0216805Y0320567D01*
X0216805Y0320529D02*
X0212080Y0320529D01*
X0212080Y0320492D02*
X0216805Y0320492D01*
X0216805Y0320454D02*
X0212080Y0320454D01*
X0212080Y0320416D02*
X0216805Y0320416D01*
X0216805Y0320378D02*
X0212080Y0320378D01*
X0212080Y0320340D02*
X0216805Y0320340D01*
X0216805Y0320302D02*
X0212080Y0320302D01*
X0212080Y0320264D02*
X0216805Y0320264D01*
X0216805Y0320226D02*
X0212080Y0320226D01*
X0212080Y0320189D02*
X0216805Y0320189D01*
X0216805Y0320151D02*
X0212080Y0320151D01*
X0212080Y0320113D02*
X0216805Y0320113D01*
X0216805Y0320075D02*
X0212080Y0320075D01*
X0212080Y0320037D02*
X0216805Y0320037D01*
X0216805Y0319999D02*
X0212080Y0319999D01*
X0212080Y0319961D02*
X0216805Y0319961D01*
X0216805Y0319923D02*
X0212080Y0319923D01*
X0212081Y0319886D02*
X0216805Y0319886D01*
X0216799Y0319848D02*
X0212086Y0319848D01*
X0212092Y0319810D02*
X0216794Y0319810D01*
X0216789Y0319772D02*
X0212098Y0319772D01*
X0212104Y0319734D02*
X0216784Y0319734D01*
X0216778Y0319696D02*
X0212110Y0319696D01*
X0212115Y0319658D02*
X0216773Y0319658D01*
X0216768Y0319620D02*
X0212121Y0319620D01*
X0212127Y0319582D02*
X0216763Y0319582D01*
X0216758Y0319545D02*
X0212133Y0319545D01*
X0212138Y0319507D02*
X0216752Y0319507D01*
X0216747Y0319469D02*
X0212144Y0319469D01*
X0212150Y0319431D02*
X0216739Y0319431D01*
X0216726Y0319393D02*
X0212156Y0319393D01*
X0212168Y0319355D02*
X0216713Y0319355D01*
X0216699Y0319317D02*
X0212183Y0319317D01*
X0212198Y0319279D02*
X0216686Y0319279D01*
X0216673Y0319242D02*
X0212213Y0319242D01*
X0212228Y0319204D02*
X0216660Y0319204D01*
X0216647Y0319166D02*
X0212243Y0319166D01*
X0212258Y0319128D02*
X0216634Y0319128D01*
X0216621Y0319090D02*
X0212273Y0319090D01*
X0212288Y0319052D02*
X0216608Y0319052D01*
X0216592Y0319014D02*
X0212303Y0319014D01*
X0212318Y0318976D02*
X0216570Y0318976D01*
X0216548Y0318938D02*
X0212333Y0318938D01*
X0212350Y0318901D02*
X0216525Y0318901D01*
X0216503Y0318863D02*
X0212376Y0318863D01*
X0212402Y0318825D02*
X0216481Y0318825D01*
X0216459Y0318787D02*
X0212428Y0318787D01*
X0212454Y0318749D02*
X0216437Y0318749D01*
X0216415Y0318711D02*
X0212480Y0318711D01*
X0212506Y0318673D02*
X0216392Y0318673D01*
X0216369Y0318635D02*
X0212532Y0318635D01*
X0212558Y0318598D02*
X0216335Y0318598D01*
X0216302Y0318560D02*
X0212584Y0318560D01*
X0212609Y0318522D02*
X0216268Y0318522D01*
X0216234Y0318484D02*
X0212637Y0318484D01*
X0212678Y0318446D02*
X0216201Y0318446D01*
X0216167Y0318408D02*
X0212719Y0318408D01*
X0212760Y0318370D02*
X0216134Y0318370D01*
X0216100Y0318332D02*
X0212801Y0318332D01*
X0212842Y0318294D02*
X0216061Y0318294D01*
X0216011Y0318257D02*
X0212883Y0318257D01*
X0212924Y0318219D02*
X0215961Y0318219D01*
X0215911Y0318181D02*
X0212965Y0318181D01*
D34*
X0211735Y0311528D03*
X0221735Y0311528D03*
X0201735Y0311528D03*
X0191735Y0311528D03*
X0181735Y0311528D03*
X0171735Y0311528D03*
D35*
X0296398Y0298528D03*
X0304272Y0298528D03*
X0306398Y0063228D03*
X0314272Y0063228D03*
X0324298Y0059628D03*
X0332172Y0059628D03*
X0228972Y0063828D03*
X0221098Y0063828D03*
D36*
X0055275Y0228040D02*
X0055275Y0231216D01*
X0055275Y0228040D02*
X0052099Y0228040D01*
X0052099Y0231216D01*
X0055275Y0231216D01*
X0055275Y0229400D02*
X0052099Y0229400D01*
X0052099Y0230760D02*
X0055275Y0230760D01*
X0048370Y0231216D02*
X0048370Y0228040D01*
X0045194Y0228040D01*
X0045194Y0231216D01*
X0048370Y0231216D01*
X0048370Y0229400D02*
X0045194Y0229400D01*
X0045194Y0230760D02*
X0048370Y0230760D01*
X0048870Y0263440D02*
X0048870Y0266616D01*
X0048870Y0263440D02*
X0045694Y0263440D01*
X0045694Y0266616D01*
X0048870Y0266616D01*
X0048870Y0264800D02*
X0045694Y0264800D01*
X0045694Y0266160D02*
X0048870Y0266160D01*
X0055775Y0266616D02*
X0055775Y0263440D01*
X0052599Y0263440D01*
X0052599Y0266616D01*
X0055775Y0266616D01*
X0055775Y0264800D02*
X0052599Y0264800D01*
X0052599Y0266160D02*
X0055775Y0266160D01*
X0154247Y0332487D02*
X0157423Y0332487D01*
X0154247Y0332487D02*
X0154247Y0335663D01*
X0157423Y0335663D01*
X0157423Y0332487D01*
X0157423Y0333847D02*
X0154247Y0333847D01*
X0154247Y0335207D02*
X0157423Y0335207D01*
X0157423Y0339392D02*
X0154247Y0339392D01*
X0154247Y0342568D01*
X0157423Y0342568D01*
X0157423Y0339392D01*
X0157423Y0340752D02*
X0154247Y0340752D01*
X0154247Y0342112D02*
X0157423Y0342112D01*
X0245547Y0338992D02*
X0248723Y0338992D01*
X0245547Y0338992D02*
X0245547Y0342168D01*
X0248723Y0342168D01*
X0248723Y0338992D01*
X0248723Y0340352D02*
X0245547Y0340352D01*
X0245547Y0341712D02*
X0248723Y0341712D01*
X0248723Y0332087D02*
X0245547Y0332087D01*
X0245547Y0335263D01*
X0248723Y0335263D01*
X0248723Y0332087D01*
X0248723Y0333447D02*
X0245547Y0333447D01*
X0245547Y0334807D02*
X0248723Y0334807D01*
X0298547Y0332187D02*
X0301723Y0332187D01*
X0298547Y0332187D02*
X0298547Y0335363D01*
X0301723Y0335363D01*
X0301723Y0332187D01*
X0301723Y0333547D02*
X0298547Y0333547D01*
X0298547Y0334907D02*
X0301723Y0334907D01*
X0301723Y0339092D02*
X0298547Y0339092D01*
X0298547Y0342268D01*
X0301723Y0342268D01*
X0301723Y0339092D01*
X0301723Y0340452D02*
X0298547Y0340452D01*
X0298547Y0341812D02*
X0301723Y0341812D01*
D37*
X0212035Y0072928D03*
X0202035Y0072928D03*
X0192035Y0072928D03*
X0182035Y0072928D03*
X0172035Y0072928D03*
X0162035Y0072928D03*
X0152035Y0072928D03*
X0142035Y0072928D03*
D38*
X0086410Y0308578D03*
D39*
X0091135Y0307028D03*
X0095859Y0307028D03*
X0095859Y0317028D03*
X0091135Y0317028D03*
X0086410Y0317028D03*
D40*
X0090402Y0331628D03*
X0090402Y0334628D03*
X0090402Y0337628D03*
X0135902Y0337628D03*
X0135894Y0334628D03*
X0135894Y0331628D03*
D41*
X0102750Y0310875D03*
D42*
X0107435Y0309595D03*
X0112120Y0309595D03*
X0112120Y0318060D03*
X0107435Y0318060D03*
X0102750Y0318060D03*
D43*
X0227298Y0049162D03*
X0235172Y0049162D03*
D44*
X0253255Y0328385D03*
X0280814Y0328385D03*
D45*
X0276877Y0338228D03*
X0257192Y0338228D03*
X0331935Y0338791D03*
X0331935Y0311232D03*
D46*
X0276877Y0338228D03*
X0257192Y0338228D03*
D47*
X0253255Y0328385D03*
X0280814Y0328385D03*
D48*
X0349335Y0287928D03*
X0352535Y0287928D03*
D49*
X0078485Y0278365D03*
X0078485Y0276396D03*
X0078485Y0274428D03*
X0078485Y0272459D03*
X0078485Y0270491D03*
X0062385Y0270491D03*
X0062385Y0272459D03*
X0062385Y0274428D03*
X0062385Y0276396D03*
X0062385Y0278365D03*
D50*
X0088090Y0278255D03*
X0094980Y0278255D03*
X0094980Y0269200D03*
X0088090Y0269200D03*
D51*
X0317368Y0342122D03*
D52*
X0317368Y0306114D03*
D53*
X0334888Y0289973D03*
D54*
X0123575Y0243428D03*
X0119835Y0243428D03*
X0116095Y0243428D03*
X0116095Y0234028D03*
X0123575Y0234028D03*
X0082675Y0242628D03*
X0075195Y0242628D03*
X0075195Y0252028D03*
X0078935Y0252028D03*
X0082675Y0252028D03*
X0083575Y0211728D03*
X0079835Y0211728D03*
X0076095Y0211728D03*
X0076095Y0202328D03*
X0083575Y0202328D03*
D55*
X0079935Y0139728D03*
X0089935Y0139728D03*
X0099935Y0139728D03*
X0109935Y0139728D03*
X0109935Y0129728D03*
X0109935Y0119728D03*
X0099935Y0119728D03*
X0099935Y0129728D03*
X0089935Y0129728D03*
X0089935Y0119728D03*
X0079935Y0119728D03*
X0079935Y0129728D03*
X0069935Y0129728D03*
X0069935Y0119728D03*
X0069935Y0109728D03*
X0079935Y0109728D03*
X0089935Y0109728D03*
X0099935Y0109728D03*
X0109935Y0109728D03*
X0109935Y0099728D03*
X0109535Y0089828D03*
X0099535Y0089828D03*
X0099935Y0099728D03*
X0089935Y0099728D03*
X0089535Y0089828D03*
X0079535Y0089828D03*
X0079935Y0099728D03*
X0069935Y0099728D03*
X0069535Y0089828D03*
X0059535Y0089828D03*
X0049535Y0089828D03*
X0049935Y0099728D03*
X0049935Y0109728D03*
X0049935Y0119728D03*
X0049935Y0129728D03*
X0049935Y0139728D03*
X0059935Y0139728D03*
X0069935Y0139728D03*
X0069535Y0079828D03*
X0069535Y0069828D03*
X0079535Y0069828D03*
X0079535Y0079828D03*
X0089535Y0079828D03*
X0089535Y0069828D03*
X0099535Y0069828D03*
X0099535Y0079828D03*
X0109535Y0079828D03*
X0109535Y0069828D03*
X0059535Y0069828D03*
X0059535Y0079828D03*
X0049535Y0079828D03*
X0049535Y0069828D03*
M02*
