G75*
%MOIN*%
%OFA0B0*%
%FSLAX25Y25*%
%IPPOS*%
%LPD*%
%AMOC8*
5,1,8,0,0,1.08239X$1,22.5*
%
%ADD10C,0.00600*%
%ADD11C,0.00300*%
%ADD12C,0.00800*%
%ADD13C,0.00500*%
%ADD14C,0.00400*%
D10*
X0173359Y0185638D02*
X0174827Y0185638D01*
X0175561Y0186372D01*
X0175561Y0187840D01*
X0174827Y0188573D01*
X0173359Y0188573D01*
X0172625Y0187840D01*
X0172625Y0187106D01*
X0175561Y0187106D01*
X0177229Y0188573D02*
X0179431Y0188573D01*
X0180165Y0187840D01*
X0180165Y0186372D01*
X0179431Y0185638D01*
X0177229Y0185638D01*
X0177229Y0190041D01*
X0182500Y0190041D02*
X0182500Y0190775D01*
X0182500Y0188573D02*
X0182500Y0185638D01*
X0183234Y0185638D02*
X0181766Y0185638D01*
X0182500Y0188573D02*
X0183234Y0188573D01*
X0184902Y0188573D02*
X0187104Y0188573D01*
X0187838Y0187840D01*
X0187104Y0187106D01*
X0185636Y0187106D01*
X0184902Y0186372D01*
X0185636Y0185638D01*
X0187838Y0185638D01*
X0194110Y0185638D02*
X0197046Y0185638D01*
X0197046Y0186372D01*
X0194110Y0189307D01*
X0194110Y0190041D01*
X0197046Y0190041D01*
X0198714Y0187840D02*
X0201650Y0187840D01*
X0068235Y0298728D02*
X0068235Y0305528D01*
X0068233Y0305588D01*
X0068228Y0305649D01*
X0068219Y0305708D01*
X0068206Y0305767D01*
X0068190Y0305826D01*
X0068170Y0305883D01*
X0068147Y0305938D01*
X0068120Y0305993D01*
X0068091Y0306045D01*
X0068058Y0306096D01*
X0068022Y0306145D01*
X0067984Y0306191D01*
X0067942Y0306235D01*
X0067898Y0306277D01*
X0067852Y0306315D01*
X0067803Y0306351D01*
X0067752Y0306384D01*
X0067700Y0306413D01*
X0067645Y0306440D01*
X0067590Y0306463D01*
X0067533Y0306483D01*
X0067474Y0306499D01*
X0067415Y0306512D01*
X0067356Y0306521D01*
X0067295Y0306526D01*
X0067235Y0306528D01*
X0061235Y0306528D01*
X0061175Y0306526D01*
X0061114Y0306521D01*
X0061055Y0306512D01*
X0060996Y0306499D01*
X0060937Y0306483D01*
X0060880Y0306463D01*
X0060825Y0306440D01*
X0060770Y0306413D01*
X0060718Y0306384D01*
X0060667Y0306351D01*
X0060618Y0306315D01*
X0060572Y0306277D01*
X0060528Y0306235D01*
X0060486Y0306191D01*
X0060448Y0306145D01*
X0060412Y0306096D01*
X0060379Y0306045D01*
X0060350Y0305993D01*
X0060323Y0305938D01*
X0060300Y0305883D01*
X0060280Y0305826D01*
X0060264Y0305767D01*
X0060251Y0305708D01*
X0060242Y0305649D01*
X0060237Y0305588D01*
X0060235Y0305528D01*
X0060235Y0298728D01*
X0060237Y0298668D01*
X0060242Y0298607D01*
X0060251Y0298548D01*
X0060264Y0298489D01*
X0060280Y0298430D01*
X0060300Y0298373D01*
X0060323Y0298318D01*
X0060350Y0298263D01*
X0060379Y0298211D01*
X0060412Y0298160D01*
X0060448Y0298111D01*
X0060486Y0298065D01*
X0060528Y0298021D01*
X0060572Y0297979D01*
X0060618Y0297941D01*
X0060667Y0297905D01*
X0060718Y0297872D01*
X0060770Y0297843D01*
X0060825Y0297816D01*
X0060880Y0297793D01*
X0060937Y0297773D01*
X0060996Y0297757D01*
X0061055Y0297744D01*
X0061114Y0297735D01*
X0061175Y0297730D01*
X0061235Y0297728D01*
X0067235Y0297728D01*
X0067295Y0297730D01*
X0067356Y0297735D01*
X0067415Y0297744D01*
X0067474Y0297757D01*
X0067533Y0297773D01*
X0067590Y0297793D01*
X0067645Y0297816D01*
X0067700Y0297843D01*
X0067752Y0297872D01*
X0067803Y0297905D01*
X0067852Y0297941D01*
X0067898Y0297979D01*
X0067942Y0298021D01*
X0067984Y0298065D01*
X0068022Y0298111D01*
X0068058Y0298160D01*
X0068091Y0298211D01*
X0068120Y0298263D01*
X0068147Y0298318D01*
X0068170Y0298373D01*
X0068190Y0298430D01*
X0068206Y0298489D01*
X0068219Y0298548D01*
X0068228Y0298607D01*
X0068233Y0298668D01*
X0068235Y0298728D01*
D11*
X0088958Y0307578D02*
X0089308Y0307928D01*
X0089308Y0309329D01*
X0089658Y0308979D02*
X0088958Y0308979D01*
X0090467Y0308979D02*
X0090467Y0307578D01*
X0091518Y0307578D01*
X0091868Y0307928D01*
X0091868Y0308979D01*
X0092677Y0308629D02*
X0093027Y0308979D01*
X0093728Y0308979D01*
X0094078Y0308629D01*
X0094078Y0307928D01*
X0093728Y0307578D01*
X0093027Y0307578D01*
X0092677Y0307928D01*
X0092677Y0308629D01*
X0094887Y0308629D02*
X0094887Y0307578D01*
X0094887Y0308629D02*
X0095237Y0308979D01*
X0095938Y0308979D01*
X0096288Y0308629D01*
X0097061Y0308979D02*
X0097761Y0308979D01*
X0097411Y0309329D02*
X0097411Y0307928D01*
X0097061Y0307578D01*
X0096288Y0307578D02*
X0096288Y0309679D01*
X0095974Y0311178D02*
X0097025Y0311178D01*
X0097025Y0313279D01*
X0095974Y0313279D01*
X0095623Y0312929D01*
X0095623Y0312579D01*
X0095974Y0312229D01*
X0097025Y0312229D01*
X0095974Y0312229D02*
X0095623Y0311878D01*
X0095623Y0311528D01*
X0095974Y0311178D01*
X0094815Y0311528D02*
X0094464Y0311878D01*
X0093414Y0311878D01*
X0093414Y0312229D02*
X0093414Y0311178D01*
X0094464Y0311178D01*
X0094815Y0311528D01*
X0094464Y0312579D02*
X0093764Y0312579D01*
X0093414Y0312229D01*
X0092605Y0312579D02*
X0091904Y0312579D01*
X0092255Y0312929D02*
X0092255Y0311528D01*
X0091904Y0311178D01*
X0090781Y0311528D02*
X0090431Y0311178D01*
X0090781Y0311528D02*
X0090781Y0312929D01*
X0090431Y0312579D02*
X0091132Y0312579D01*
X0098884Y0310030D02*
X0098884Y0309679D01*
X0098884Y0308979D02*
X0098884Y0307578D01*
X0099234Y0307578D02*
X0098534Y0307578D01*
X0098884Y0308979D02*
X0099234Y0308979D01*
X0100043Y0308979D02*
X0100043Y0307928D01*
X0100393Y0307578D01*
X0100744Y0307928D01*
X0101094Y0307578D01*
X0101444Y0307928D01*
X0101444Y0308979D01*
X0101480Y0311178D02*
X0102181Y0311178D01*
X0101831Y0311178D02*
X0101831Y0312579D01*
X0102181Y0312579D01*
X0101831Y0313279D02*
X0101831Y0313630D01*
X0100357Y0312929D02*
X0100357Y0311178D01*
X0100007Y0312229D02*
X0100708Y0312229D01*
X0100357Y0312929D02*
X0100007Y0313279D01*
X0104463Y0309679D02*
X0104463Y0307578D01*
X0105514Y0307578D01*
X0105864Y0307928D01*
X0105864Y0308629D01*
X0105514Y0308979D01*
X0104463Y0308979D01*
X0106673Y0308629D02*
X0106673Y0308278D01*
X0108074Y0308278D01*
X0108074Y0307928D02*
X0108074Y0308629D01*
X0107724Y0308979D01*
X0107023Y0308979D01*
X0106673Y0308629D01*
X0107023Y0307578D02*
X0107724Y0307578D01*
X0108074Y0307928D01*
X0108883Y0307928D02*
X0109233Y0307578D01*
X0110284Y0307578D01*
X0109934Y0308278D02*
X0110284Y0308629D01*
X0109934Y0308979D01*
X0108883Y0308979D01*
X0109233Y0308278D02*
X0109934Y0308278D01*
X0109233Y0308278D02*
X0108883Y0307928D01*
X0111093Y0307578D02*
X0111093Y0308979D01*
X0112494Y0308979D02*
X0112494Y0307928D01*
X0112143Y0307578D01*
X0111093Y0307578D01*
X0112180Y0306079D02*
X0111829Y0305729D01*
X0111829Y0305379D01*
X0112180Y0305029D01*
X0113230Y0305029D01*
X0113230Y0306079D02*
X0112180Y0306079D01*
X0113230Y0306079D02*
X0113230Y0303978D01*
X0112180Y0303978D01*
X0111829Y0304328D01*
X0111829Y0304678D01*
X0112180Y0305029D01*
X0111021Y0305029D02*
X0111021Y0304328D01*
X0110670Y0303978D01*
X0109970Y0303978D01*
X0109619Y0304328D01*
X0109619Y0305029D01*
X0109970Y0305379D01*
X0110670Y0305379D01*
X0111021Y0305029D01*
X0108811Y0304328D02*
X0108460Y0304678D01*
X0107409Y0304678D01*
X0107409Y0305029D02*
X0107409Y0303978D01*
X0108460Y0303978D01*
X0108811Y0304328D01*
X0108460Y0305379D02*
X0107760Y0305379D01*
X0107409Y0305029D01*
X0106601Y0305379D02*
X0106601Y0303978D01*
X0106601Y0304678D02*
X0105900Y0305379D01*
X0105550Y0305379D01*
X0104759Y0305029D02*
X0104409Y0305379D01*
X0103358Y0305379D01*
X0103358Y0306079D02*
X0103358Y0303978D01*
X0104409Y0303978D01*
X0104759Y0304328D01*
X0104759Y0305029D01*
X0105550Y0311178D02*
X0106250Y0311178D01*
X0106601Y0311528D01*
X0105900Y0312229D02*
X0105550Y0312229D01*
X0105200Y0311878D01*
X0105200Y0311528D01*
X0105550Y0311178D01*
X0105550Y0312229D02*
X0105200Y0312579D01*
X0105200Y0312929D01*
X0105550Y0313279D01*
X0106250Y0313279D01*
X0106601Y0312929D01*
X0107409Y0312929D02*
X0107409Y0312229D01*
X0107760Y0311878D01*
X0108811Y0311878D01*
X0108811Y0311178D02*
X0108811Y0313279D01*
X0107760Y0313279D01*
X0107409Y0312929D01*
X0109619Y0313279D02*
X0110320Y0313279D01*
X0109970Y0313279D02*
X0109970Y0311528D01*
X0110320Y0311178D01*
X0110670Y0311178D01*
X0111021Y0311528D01*
X0114039Y0311878D02*
X0115440Y0311878D01*
X0115440Y0311528D02*
X0115440Y0312229D01*
X0115090Y0312579D01*
X0114389Y0312579D01*
X0114039Y0312229D01*
X0114039Y0311878D01*
X0114389Y0311178D02*
X0115090Y0311178D01*
X0115440Y0311528D01*
X0116249Y0311178D02*
X0117300Y0311178D01*
X0117650Y0311528D01*
X0117650Y0312229D01*
X0117300Y0312579D01*
X0116249Y0312579D01*
X0116249Y0310827D01*
X0116599Y0310477D01*
X0116950Y0310477D01*
X0116563Y0308979D02*
X0115512Y0308979D01*
X0115512Y0309679D02*
X0115512Y0307578D01*
X0116563Y0307578D01*
X0116914Y0307928D01*
X0116914Y0308629D01*
X0116563Y0308979D01*
X0117704Y0308979D02*
X0118055Y0308979D01*
X0118755Y0308278D01*
X0118755Y0307578D02*
X0118755Y0308979D01*
X0119564Y0308629D02*
X0119564Y0307578D01*
X0120615Y0307578D01*
X0120965Y0307928D01*
X0120615Y0308278D01*
X0119564Y0308278D01*
X0119564Y0308629D02*
X0119914Y0308979D01*
X0120615Y0308979D01*
X0121774Y0308629D02*
X0122124Y0308979D01*
X0122825Y0308979D01*
X0123175Y0308629D01*
X0123175Y0307928D01*
X0122825Y0307578D01*
X0122124Y0307578D01*
X0121774Y0307928D01*
X0121774Y0308629D01*
X0123984Y0308979D02*
X0124334Y0308629D01*
X0125385Y0308629D01*
X0125385Y0309679D02*
X0124334Y0309679D01*
X0123984Y0309329D01*
X0123984Y0308979D01*
X0124334Y0308629D02*
X0123984Y0308278D01*
X0123984Y0307928D01*
X0124334Y0307578D01*
X0125385Y0307578D01*
X0125385Y0309679D01*
X0125385Y0311178D02*
X0124334Y0311178D01*
X0123984Y0311528D01*
X0123984Y0311878D01*
X0124334Y0312229D01*
X0125385Y0312229D01*
X0125385Y0313279D02*
X0124334Y0313279D01*
X0123984Y0312929D01*
X0123984Y0312579D01*
X0124334Y0312229D01*
X0123175Y0312579D02*
X0123175Y0311178D01*
X0123175Y0311878D02*
X0122474Y0312579D01*
X0122124Y0312579D01*
X0121333Y0312579D02*
X0120983Y0312579D01*
X0120983Y0311178D01*
X0121333Y0311178D02*
X0120633Y0311178D01*
X0119860Y0311528D02*
X0119860Y0312229D01*
X0119510Y0312579D01*
X0118459Y0312579D01*
X0118459Y0313279D02*
X0118459Y0311178D01*
X0119510Y0311178D01*
X0119860Y0311528D01*
X0120983Y0313279D02*
X0120983Y0313630D01*
X0125385Y0313279D02*
X0125385Y0311178D01*
X0125034Y0306079D02*
X0125385Y0305729D01*
X0125385Y0305379D01*
X0125034Y0305029D01*
X0124334Y0305029D01*
X0123984Y0304678D01*
X0123984Y0304328D01*
X0124334Y0303978D01*
X0125034Y0303978D01*
X0125385Y0304328D01*
X0125034Y0306079D02*
X0124334Y0306079D01*
X0123984Y0305729D01*
X0123175Y0305029D02*
X0123175Y0304328D01*
X0122825Y0303978D01*
X0122124Y0303978D01*
X0121774Y0304328D01*
X0121774Y0305029D01*
X0122124Y0305379D01*
X0122825Y0305379D01*
X0123175Y0305029D01*
X0120965Y0306079D02*
X0120615Y0306079D01*
X0120615Y0303978D01*
X0120965Y0303978D02*
X0120264Y0303978D01*
X0119492Y0304328D02*
X0119141Y0304678D01*
X0118091Y0304678D01*
X0118091Y0305029D02*
X0118091Y0303978D01*
X0119141Y0303978D01*
X0119492Y0304328D01*
X0119141Y0305379D02*
X0118441Y0305379D01*
X0118091Y0305029D01*
X0117282Y0305379D02*
X0117282Y0303978D01*
X0117282Y0304678D02*
X0116581Y0305379D01*
X0116231Y0305379D01*
X0175237Y0327278D02*
X0176288Y0327278D01*
X0176639Y0327628D01*
X0176639Y0328329D01*
X0176288Y0328679D01*
X0175237Y0328679D01*
X0175237Y0329379D02*
X0175237Y0327278D01*
X0177429Y0328679D02*
X0177780Y0328679D01*
X0178480Y0327978D01*
X0178480Y0327278D02*
X0178480Y0328679D01*
X0179289Y0328329D02*
X0179289Y0327278D01*
X0180340Y0327278D01*
X0180690Y0327628D01*
X0180340Y0327978D01*
X0179289Y0327978D01*
X0179289Y0328329D02*
X0179639Y0328679D01*
X0180340Y0328679D01*
X0181499Y0328329D02*
X0181849Y0328679D01*
X0182550Y0328679D01*
X0182900Y0328329D01*
X0182900Y0327628D01*
X0182550Y0327278D01*
X0181849Y0327278D01*
X0181499Y0327628D01*
X0181499Y0328329D01*
X0183709Y0328329D02*
X0184059Y0328679D01*
X0185110Y0328679D01*
X0185110Y0329379D02*
X0185110Y0327278D01*
X0184059Y0327278D01*
X0183709Y0327628D01*
X0183709Y0328329D01*
X0188092Y0328679D02*
X0188793Y0328679D01*
X0188443Y0329029D02*
X0188443Y0327628D01*
X0188092Y0327278D01*
X0189602Y0327278D02*
X0189602Y0328679D01*
X0191003Y0328679D02*
X0191003Y0327628D01*
X0190653Y0327278D01*
X0189602Y0327278D01*
X0191811Y0327628D02*
X0191811Y0328329D01*
X0192162Y0328679D01*
X0192862Y0328679D01*
X0193213Y0328329D01*
X0193213Y0327628D01*
X0192862Y0327278D01*
X0192162Y0327278D01*
X0191811Y0327628D01*
X0194003Y0327278D02*
X0195054Y0327978D01*
X0194003Y0328679D01*
X0195054Y0329379D02*
X0195054Y0327278D01*
X0195863Y0327278D02*
X0196914Y0327278D01*
X0197264Y0327628D01*
X0196914Y0327978D01*
X0195863Y0327978D01*
X0195863Y0328329D02*
X0195863Y0327278D01*
X0195863Y0328329D02*
X0196213Y0328679D01*
X0196914Y0328679D01*
X0198073Y0328329D02*
X0198073Y0327978D01*
X0199474Y0327978D01*
X0199474Y0327628D02*
X0199474Y0328329D01*
X0199124Y0328679D01*
X0198423Y0328679D01*
X0198073Y0328329D01*
X0198423Y0327278D02*
X0199124Y0327278D01*
X0199474Y0327628D01*
X0200265Y0328679D02*
X0200615Y0328679D01*
X0201316Y0327978D01*
X0201316Y0327278D02*
X0201316Y0328679D01*
X0202124Y0328329D02*
X0202475Y0328679D01*
X0203525Y0328679D01*
X0203525Y0329379D02*
X0203525Y0327278D01*
X0202475Y0327278D01*
X0202124Y0327628D01*
X0202124Y0328329D01*
X0206544Y0329029D02*
X0206894Y0329379D01*
X0207595Y0329379D01*
X0207945Y0329029D01*
X0207945Y0327628D01*
X0207595Y0327278D01*
X0206894Y0327278D01*
X0206544Y0327628D01*
X0208754Y0328329D02*
X0210155Y0328329D01*
X0210964Y0328679D02*
X0211314Y0328329D01*
X0212365Y0328329D01*
X0213174Y0327978D02*
X0213174Y0327628D01*
X0213524Y0327278D01*
X0214225Y0327278D01*
X0214575Y0327628D01*
X0214225Y0328329D02*
X0213524Y0328329D01*
X0213174Y0327978D01*
X0213174Y0329029D02*
X0213524Y0329379D01*
X0214225Y0329379D01*
X0214575Y0329029D01*
X0214575Y0328679D01*
X0214225Y0328329D01*
X0215384Y0327628D02*
X0215384Y0329379D01*
X0216785Y0329379D02*
X0216785Y0327628D01*
X0216434Y0327278D01*
X0215734Y0327278D01*
X0215384Y0327628D01*
X0212365Y0327278D02*
X0211314Y0327278D01*
X0210964Y0327628D01*
X0210964Y0327978D01*
X0211314Y0328329D01*
X0210964Y0328679D02*
X0210964Y0329029D01*
X0211314Y0329379D01*
X0212365Y0329379D01*
X0212365Y0327278D01*
X0211876Y0321564D02*
X0212227Y0321213D01*
X0212227Y0320162D01*
X0210125Y0320162D01*
X0210125Y0321213D01*
X0210475Y0321564D01*
X0211876Y0321564D01*
X0212227Y0319354D02*
X0210125Y0319354D01*
X0212227Y0317953D01*
X0210125Y0317953D01*
X0210475Y0317144D02*
X0211176Y0317144D01*
X0211176Y0316443D01*
X0211876Y0315743D02*
X0210475Y0315743D01*
X0210125Y0316093D01*
X0210125Y0316794D01*
X0210475Y0317144D01*
X0211876Y0317144D02*
X0212227Y0316794D01*
X0212227Y0316093D01*
X0211876Y0315743D01*
X0220725Y0316543D02*
X0221425Y0317244D01*
X0222827Y0317244D01*
X0222827Y0318053D02*
X0222827Y0319103D01*
X0222476Y0319454D01*
X0222126Y0319454D01*
X0221776Y0319103D01*
X0221776Y0318053D01*
X0221776Y0319103D02*
X0221425Y0319454D01*
X0221075Y0319454D01*
X0220725Y0319103D01*
X0220725Y0318053D01*
X0222827Y0318053D01*
X0222827Y0320262D02*
X0221075Y0320262D01*
X0220725Y0320613D01*
X0220725Y0321313D01*
X0221075Y0321664D01*
X0222827Y0321664D01*
X0222476Y0322472D02*
X0222126Y0322472D01*
X0221776Y0322823D01*
X0221776Y0323523D01*
X0221425Y0323873D01*
X0221075Y0323873D01*
X0220725Y0323523D01*
X0220725Y0322823D01*
X0221075Y0322472D01*
X0222476Y0322472D02*
X0222827Y0322823D01*
X0222827Y0323523D01*
X0222476Y0323873D01*
X0220725Y0316543D02*
X0221425Y0315843D01*
X0222827Y0315843D01*
X0282549Y0224979D02*
X0282549Y0224529D01*
X0282999Y0224529D01*
X0282999Y0224979D01*
X0282549Y0224979D01*
X0282549Y0223628D02*
X0282549Y0223178D01*
X0282999Y0223178D01*
X0282999Y0223628D01*
X0282549Y0223628D01*
X0283940Y0223178D02*
X0284390Y0223628D01*
X0284390Y0225430D01*
X0284841Y0224979D02*
X0283940Y0224979D01*
X0285801Y0224979D02*
X0285801Y0223178D01*
X0287152Y0223178D01*
X0287603Y0223628D01*
X0287603Y0224979D01*
X0288564Y0224979D02*
X0289915Y0224979D01*
X0290365Y0224529D01*
X0290365Y0223628D01*
X0289915Y0223178D01*
X0288564Y0223178D01*
X0291786Y0220930D02*
X0293588Y0219128D01*
X0293138Y0218678D01*
X0292237Y0218678D01*
X0291786Y0219128D01*
X0291786Y0220930D01*
X0292237Y0221380D01*
X0293138Y0221380D01*
X0293588Y0220930D01*
X0293588Y0219128D01*
X0294549Y0218678D02*
X0296350Y0218678D01*
X0295450Y0218678D02*
X0295450Y0221380D01*
X0296350Y0220479D01*
X0297311Y0220029D02*
X0297762Y0219578D01*
X0299113Y0219578D01*
X0299113Y0218678D02*
X0299113Y0221380D01*
X0297762Y0221380D01*
X0297311Y0220930D01*
X0297311Y0220029D01*
X0300073Y0221380D02*
X0300974Y0221380D01*
X0300524Y0221380D02*
X0300524Y0219128D01*
X0300974Y0218678D01*
X0301425Y0218678D01*
X0301875Y0219128D01*
X0300764Y0216880D02*
X0300764Y0214178D01*
X0302115Y0214178D01*
X0302566Y0214628D01*
X0302566Y0215529D01*
X0302115Y0215979D01*
X0300764Y0215979D01*
X0299803Y0215529D02*
X0299353Y0215979D01*
X0298452Y0215979D01*
X0298002Y0215529D01*
X0298002Y0215078D01*
X0299803Y0215078D01*
X0299803Y0214628D02*
X0299803Y0215529D01*
X0299803Y0214628D02*
X0299353Y0214178D01*
X0298452Y0214178D01*
X0294279Y0214178D02*
X0294279Y0216880D01*
X0292927Y0216880D01*
X0292477Y0216430D01*
X0292477Y0214628D01*
X0292927Y0214178D01*
X0294279Y0214178D01*
X0291516Y0214178D02*
X0289715Y0214178D01*
X0290615Y0214178D02*
X0290615Y0216880D01*
X0291516Y0215979D01*
X0290826Y0217777D02*
X0289925Y0218678D01*
X0290375Y0218678D01*
X0290375Y0219128D01*
X0289925Y0219128D01*
X0289925Y0218678D01*
X0288754Y0214628D02*
X0288303Y0214628D01*
X0288303Y0214178D01*
X0288754Y0214178D01*
X0288754Y0214628D01*
X0294969Y0222277D02*
X0294068Y0223178D01*
X0294519Y0223178D01*
X0294519Y0223628D01*
X0294068Y0223628D01*
X0294068Y0223178D01*
X0295930Y0224078D02*
X0297731Y0224078D01*
X0297731Y0223628D02*
X0297731Y0224529D01*
X0297281Y0224979D01*
X0296380Y0224979D01*
X0295930Y0224529D01*
X0295930Y0224078D01*
X0296380Y0223178D02*
X0297281Y0223178D01*
X0297731Y0223628D01*
X0298692Y0223628D02*
X0299143Y0224078D01*
X0300043Y0224078D01*
X0300494Y0224529D01*
X0300043Y0224979D01*
X0298692Y0224979D01*
X0298692Y0223628D02*
X0299143Y0223178D01*
X0300494Y0223178D01*
X0301455Y0223178D02*
X0301455Y0224979D01*
X0303256Y0224979D02*
X0303256Y0223628D01*
X0302806Y0223178D01*
X0301455Y0223178D01*
X0306979Y0223178D02*
X0306979Y0224529D01*
X0307430Y0224979D01*
X0308781Y0224979D01*
X0308781Y0223178D01*
X0309722Y0223178D02*
X0310622Y0223178D01*
X0310172Y0223178D02*
X0310172Y0224979D01*
X0310622Y0224979D01*
X0310172Y0225880D02*
X0310172Y0226330D01*
X0314346Y0224979D02*
X0315697Y0224979D01*
X0316147Y0224529D01*
X0315697Y0224078D01*
X0314796Y0224078D01*
X0314346Y0223628D01*
X0314796Y0223178D01*
X0316147Y0223178D01*
X0317088Y0223178D02*
X0317989Y0223178D01*
X0317538Y0223178D02*
X0317538Y0224979D01*
X0317989Y0224979D01*
X0317538Y0225880D02*
X0317538Y0226330D01*
X0321712Y0224529D02*
X0322162Y0224979D01*
X0323063Y0224979D01*
X0323513Y0224529D01*
X0323513Y0223628D01*
X0323063Y0223178D01*
X0322162Y0223178D01*
X0321712Y0223628D01*
X0321712Y0224529D01*
X0324464Y0224979D02*
X0324915Y0224979D01*
X0325815Y0224078D01*
X0325815Y0223178D02*
X0325815Y0224979D01*
X0326776Y0224529D02*
X0326776Y0224078D01*
X0328578Y0224078D01*
X0328578Y0223628D02*
X0328578Y0224529D01*
X0328127Y0224979D01*
X0327227Y0224979D01*
X0326776Y0224529D01*
X0327227Y0223178D02*
X0328127Y0223178D01*
X0328578Y0223628D01*
X0329539Y0223178D02*
X0331340Y0223178D01*
X0331340Y0223628D01*
X0329539Y0225430D01*
X0329539Y0225880D01*
X0331340Y0225880D01*
X0335494Y0225880D02*
X0335494Y0226330D01*
X0335494Y0224979D02*
X0335494Y0223178D01*
X0335944Y0223178D02*
X0335043Y0223178D01*
X0335023Y0221380D02*
X0333222Y0221380D01*
X0333222Y0220930D01*
X0335023Y0219128D01*
X0335023Y0218678D01*
X0335984Y0220029D02*
X0336434Y0219578D01*
X0337786Y0219578D01*
X0337786Y0218678D02*
X0337786Y0221380D01*
X0336434Y0221380D01*
X0335984Y0220930D01*
X0335984Y0220029D01*
X0338746Y0221380D02*
X0339647Y0221380D01*
X0339197Y0221380D02*
X0339197Y0219128D01*
X0339647Y0218678D01*
X0340098Y0218678D01*
X0340548Y0219128D01*
X0338947Y0215979D02*
X0338046Y0215979D01*
X0337595Y0215529D01*
X0337595Y0214178D01*
X0338947Y0214178D01*
X0339397Y0214628D01*
X0338947Y0215078D01*
X0337595Y0215078D01*
X0336635Y0214178D02*
X0336635Y0215979D01*
X0335283Y0215979D01*
X0334833Y0215529D01*
X0334833Y0214178D01*
X0333872Y0214628D02*
X0333872Y0215529D01*
X0333422Y0215979D01*
X0332071Y0215979D01*
X0332071Y0216880D02*
X0332071Y0214178D01*
X0333422Y0214178D01*
X0333872Y0214628D01*
X0332261Y0217777D02*
X0331360Y0218678D01*
X0331811Y0218678D01*
X0331811Y0219128D01*
X0331360Y0219128D01*
X0331360Y0218678D01*
X0327897Y0217330D02*
X0327897Y0216880D01*
X0327897Y0215979D02*
X0327897Y0214178D01*
X0327447Y0214178D02*
X0328348Y0214178D01*
X0328348Y0215979D02*
X0327897Y0215979D01*
X0326506Y0215979D02*
X0325155Y0215979D01*
X0324704Y0215529D01*
X0324704Y0214178D01*
X0323744Y0214178D02*
X0322392Y0214178D01*
X0321942Y0214628D01*
X0322392Y0215078D01*
X0323293Y0215078D01*
X0323744Y0215529D01*
X0323293Y0215979D01*
X0321942Y0215979D01*
X0320981Y0215979D02*
X0320081Y0215979D01*
X0320531Y0216430D02*
X0320531Y0214628D01*
X0320081Y0214178D01*
X0319140Y0214628D02*
X0318689Y0215078D01*
X0317338Y0215078D01*
X0317338Y0215529D02*
X0317338Y0214178D01*
X0318689Y0214178D01*
X0319140Y0214628D01*
X0318689Y0215979D02*
X0317789Y0215979D01*
X0317338Y0215529D01*
X0316377Y0216880D02*
X0315927Y0216880D01*
X0315927Y0214178D01*
X0316377Y0214178D02*
X0315477Y0214178D01*
X0314536Y0214178D02*
X0313635Y0214178D01*
X0314085Y0214178D02*
X0314085Y0216880D01*
X0314536Y0216880D01*
X0314316Y0218678D02*
X0313865Y0218678D01*
X0313415Y0219128D01*
X0313415Y0221380D01*
X0313865Y0221380D02*
X0312964Y0221380D01*
X0312004Y0221380D02*
X0310652Y0221380D01*
X0310202Y0220930D01*
X0310202Y0220029D01*
X0310652Y0219578D01*
X0312004Y0219578D01*
X0312004Y0218678D02*
X0312004Y0221380D01*
X0309241Y0220930D02*
X0309241Y0220479D01*
X0308791Y0220029D01*
X0307440Y0220029D01*
X0307440Y0220930D02*
X0307890Y0221380D01*
X0308791Y0221380D01*
X0309241Y0220930D01*
X0307440Y0220930D02*
X0307440Y0219128D01*
X0307890Y0218678D01*
X0308791Y0218678D01*
X0309241Y0219128D01*
X0308130Y0216880D02*
X0308130Y0214178D01*
X0309481Y0214178D01*
X0309932Y0214628D01*
X0309932Y0215529D01*
X0309481Y0215979D01*
X0308130Y0215979D01*
X0307170Y0215979D02*
X0306719Y0215979D01*
X0306719Y0214178D01*
X0306269Y0214178D02*
X0307170Y0214178D01*
X0305328Y0214628D02*
X0305328Y0215529D01*
X0304878Y0215979D01*
X0303977Y0215979D01*
X0303526Y0215529D01*
X0303526Y0214628D01*
X0303977Y0214178D01*
X0304878Y0214178D01*
X0305328Y0214628D01*
X0306719Y0216880D02*
X0306719Y0217330D01*
X0306479Y0217777D02*
X0305578Y0218678D01*
X0306029Y0218678D01*
X0306029Y0219128D01*
X0305578Y0219128D01*
X0305578Y0218678D01*
X0314316Y0218678D02*
X0314766Y0219128D01*
X0318469Y0219128D02*
X0318920Y0219128D01*
X0318920Y0218678D01*
X0318469Y0218678D01*
X0318469Y0219128D01*
X0318469Y0218678D02*
X0319370Y0217777D01*
X0320331Y0219128D02*
X0320781Y0218678D01*
X0321682Y0218678D01*
X0322132Y0219128D01*
X0322132Y0219578D01*
X0321682Y0220029D01*
X0320781Y0220029D01*
X0320331Y0219578D01*
X0320331Y0219128D01*
X0320781Y0220029D02*
X0320331Y0220479D01*
X0320331Y0220930D01*
X0320781Y0221380D01*
X0321682Y0221380D01*
X0322132Y0220930D01*
X0322132Y0220479D01*
X0321682Y0220029D01*
X0323093Y0220029D02*
X0323543Y0219578D01*
X0324895Y0219578D01*
X0324895Y0218678D02*
X0324895Y0221380D01*
X0323543Y0221380D01*
X0323093Y0220930D01*
X0323093Y0220029D01*
X0325855Y0221380D02*
X0326756Y0221380D01*
X0326306Y0221380D02*
X0326306Y0219128D01*
X0326756Y0218678D01*
X0327207Y0218678D01*
X0327657Y0219128D01*
X0326506Y0215979D02*
X0326506Y0214178D01*
X0335494Y0224979D02*
X0335944Y0224979D01*
X0336905Y0224529D02*
X0337355Y0224078D01*
X0338706Y0224078D01*
X0338706Y0223178D02*
X0338706Y0225880D01*
X0337355Y0225880D01*
X0336905Y0225430D01*
X0336905Y0224529D01*
X0342410Y0224529D02*
X0343310Y0224529D01*
X0342860Y0225430D02*
X0342410Y0225880D01*
X0342860Y0225430D02*
X0342860Y0223178D01*
X0344251Y0223178D02*
X0345152Y0223178D01*
X0344702Y0223178D02*
X0344702Y0225880D01*
X0345152Y0225880D02*
X0344251Y0225880D01*
X0343824Y0300878D02*
X0344875Y0300878D01*
X0344875Y0302979D01*
X0343824Y0302979D01*
X0343474Y0302629D01*
X0343474Y0302279D01*
X0343824Y0301929D01*
X0344875Y0301929D01*
X0345684Y0301929D02*
X0346034Y0301578D01*
X0347085Y0301578D01*
X0347085Y0300878D02*
X0347085Y0302979D01*
X0346034Y0302979D01*
X0345684Y0302629D01*
X0345684Y0301929D01*
X0346384Y0301578D02*
X0345684Y0300878D01*
X0343824Y0300878D02*
X0343474Y0301228D01*
X0343474Y0301578D01*
X0343824Y0301929D01*
X0342665Y0301929D02*
X0341964Y0301929D01*
X0341264Y0302979D02*
X0342665Y0302979D01*
X0342665Y0300878D01*
X0342683Y0304478D02*
X0342683Y0305879D01*
X0343033Y0305879D01*
X0342683Y0306579D02*
X0342683Y0306930D01*
X0343824Y0305879D02*
X0344174Y0305879D01*
X0344875Y0305178D01*
X0344875Y0304478D02*
X0344875Y0305879D01*
X0345684Y0305879D02*
X0346034Y0305529D01*
X0347085Y0305529D01*
X0347085Y0306579D02*
X0346034Y0306579D01*
X0345684Y0306229D01*
X0345684Y0305879D01*
X0346034Y0305529D02*
X0345684Y0305178D01*
X0345684Y0304828D01*
X0346034Y0304478D01*
X0347085Y0304478D01*
X0347085Y0306579D01*
X0343033Y0304478D02*
X0342333Y0304478D01*
X0341560Y0304828D02*
X0341560Y0305529D01*
X0341210Y0305879D01*
X0340159Y0305879D01*
X0340159Y0306579D02*
X0340159Y0304478D01*
X0341210Y0304478D01*
X0341560Y0304828D01*
X0339350Y0304828D02*
X0339000Y0304478D01*
X0337949Y0304478D01*
X0337949Y0304127D02*
X0337949Y0305879D01*
X0339000Y0305879D01*
X0339350Y0305529D01*
X0339350Y0304828D01*
X0338650Y0303777D02*
X0338299Y0303777D01*
X0337949Y0304127D01*
X0337895Y0303330D02*
X0337895Y0302979D01*
X0337895Y0302279D02*
X0337895Y0300878D01*
X0338245Y0300878D02*
X0337545Y0300878D01*
X0336772Y0300878D02*
X0335721Y0300878D01*
X0335371Y0301228D01*
X0335721Y0301578D01*
X0336422Y0301578D01*
X0336772Y0301929D01*
X0336422Y0302279D01*
X0335371Y0302279D01*
X0336089Y0304478D02*
X0336790Y0304478D01*
X0337140Y0304828D01*
X0337140Y0305529D01*
X0336790Y0305879D01*
X0336089Y0305879D01*
X0335739Y0305529D01*
X0335739Y0305178D01*
X0337140Y0305178D01*
X0337895Y0302279D02*
X0338245Y0302279D01*
X0332352Y0302279D02*
X0331301Y0302279D01*
X0330951Y0301929D01*
X0330951Y0300878D01*
X0330142Y0301228D02*
X0329792Y0300878D01*
X0329091Y0300878D01*
X0328741Y0301228D01*
X0328741Y0301929D01*
X0329091Y0302279D01*
X0329792Y0302279D01*
X0330142Y0301929D01*
X0330142Y0301228D01*
X0332352Y0300878D02*
X0332352Y0302279D01*
X0332370Y0304478D02*
X0332020Y0304478D01*
X0331670Y0304828D01*
X0331670Y0306579D01*
X0332020Y0306579D02*
X0331319Y0306579D01*
X0330511Y0306579D02*
X0329460Y0306579D01*
X0329109Y0306229D01*
X0329109Y0305529D01*
X0329460Y0305178D01*
X0330511Y0305178D01*
X0330511Y0304478D02*
X0330511Y0306579D01*
X0328301Y0306579D02*
X0328301Y0305529D01*
X0327600Y0305879D01*
X0327250Y0305879D01*
X0326900Y0305529D01*
X0326900Y0304828D01*
X0327250Y0304478D01*
X0327950Y0304478D01*
X0328301Y0304828D01*
X0328301Y0306579D02*
X0326900Y0306579D01*
X0323881Y0305879D02*
X0323531Y0305879D01*
X0323531Y0304478D01*
X0323881Y0304478D02*
X0323180Y0304478D01*
X0322057Y0304478D02*
X0322057Y0306229D01*
X0321707Y0306579D01*
X0321707Y0305529D02*
X0322408Y0305529D01*
X0323531Y0306579D02*
X0323531Y0306930D01*
X0322848Y0302279D02*
X0322848Y0300878D01*
X0323899Y0300878D01*
X0324249Y0301228D01*
X0324249Y0302279D01*
X0322039Y0301929D02*
X0321689Y0302279D01*
X0320638Y0302279D01*
X0320989Y0301578D02*
X0321689Y0301578D01*
X0322039Y0301929D01*
X0322039Y0300878D02*
X0320989Y0300878D01*
X0320638Y0301228D01*
X0320989Y0301578D01*
X0319830Y0301578D02*
X0318428Y0301578D01*
X0318428Y0301929D01*
X0318779Y0302279D01*
X0319479Y0302279D01*
X0319830Y0301929D01*
X0319830Y0301228D01*
X0319479Y0300878D01*
X0318779Y0300878D01*
X0317620Y0301228D02*
X0317620Y0301929D01*
X0317269Y0302279D01*
X0316218Y0302279D01*
X0316218Y0302979D02*
X0316218Y0300878D01*
X0317269Y0300878D01*
X0317620Y0301228D01*
X0327232Y0300878D02*
X0327582Y0301228D01*
X0327582Y0302629D01*
X0327932Y0302279D02*
X0327232Y0302279D01*
X0332370Y0304478D02*
X0332721Y0304828D01*
X0217204Y0079279D02*
X0216503Y0079279D01*
X0216854Y0079279D02*
X0216854Y0077528D01*
X0217204Y0077178D01*
X0217554Y0077178D01*
X0217905Y0077528D01*
X0215695Y0078229D02*
X0214293Y0078229D01*
X0214644Y0079279D02*
X0215695Y0078229D01*
X0214644Y0079279D02*
X0214644Y0077178D01*
X0214500Y0068047D02*
X0213799Y0068047D01*
X0213449Y0067696D01*
X0213449Y0067346D01*
X0213799Y0066996D01*
X0213449Y0066645D01*
X0213449Y0066295D01*
X0213799Y0065945D01*
X0214500Y0065945D01*
X0214850Y0066295D01*
X0214149Y0066996D02*
X0213799Y0066996D01*
X0214850Y0067696D02*
X0214500Y0068047D01*
X0212640Y0066295D02*
X0212290Y0066295D01*
X0212290Y0065945D01*
X0212640Y0065945D01*
X0212640Y0066295D01*
X0211535Y0066295D02*
X0211185Y0065945D01*
X0210484Y0065945D01*
X0210134Y0066295D01*
X0210134Y0066645D01*
X0210484Y0066996D01*
X0210834Y0066996D01*
X0210484Y0066996D02*
X0210134Y0067346D01*
X0210134Y0067696D01*
X0210484Y0068047D01*
X0211185Y0068047D01*
X0211535Y0067696D01*
X0209325Y0068047D02*
X0209325Y0066645D01*
X0208625Y0065945D01*
X0207924Y0066645D01*
X0207924Y0068047D01*
X0200200Y0078045D02*
X0200550Y0078395D01*
X0200200Y0078045D02*
X0199499Y0078045D01*
X0199149Y0078395D01*
X0199149Y0078745D01*
X0199499Y0079096D01*
X0200200Y0079096D01*
X0200550Y0079446D01*
X0200550Y0079796D01*
X0200200Y0080147D01*
X0199499Y0080147D01*
X0199149Y0079796D01*
X0198340Y0079096D02*
X0197990Y0079446D01*
X0197289Y0079446D01*
X0196939Y0079096D01*
X0196939Y0078745D01*
X0198340Y0078745D01*
X0198340Y0078395D02*
X0198340Y0079096D01*
X0198340Y0078395D02*
X0197990Y0078045D01*
X0197289Y0078045D01*
X0196130Y0078045D02*
X0196130Y0079446D01*
X0195430Y0079446D02*
X0195079Y0079446D01*
X0195430Y0079446D02*
X0196130Y0078745D01*
X0194289Y0078045D02*
X0193588Y0078045D01*
X0193938Y0078045D02*
X0193938Y0079446D01*
X0194289Y0079446D01*
X0193938Y0080147D02*
X0193938Y0080497D01*
X0192465Y0079446D02*
X0191764Y0079446D01*
X0191414Y0079096D01*
X0191414Y0078045D01*
X0192465Y0078045D01*
X0192815Y0078395D01*
X0192465Y0078745D01*
X0191414Y0078745D01*
X0190605Y0078045D02*
X0189905Y0078045D01*
X0190255Y0078045D02*
X0190255Y0080147D01*
X0190605Y0080147D01*
X0186922Y0079096D02*
X0186222Y0079096D01*
X0185449Y0079096D02*
X0185449Y0078395D01*
X0185099Y0078045D01*
X0184398Y0078045D01*
X0184048Y0078395D01*
X0184048Y0079096D01*
X0184398Y0079446D01*
X0185099Y0079446D01*
X0185449Y0079096D01*
X0186222Y0080147D02*
X0186572Y0079796D01*
X0186572Y0078045D01*
X0183239Y0078045D02*
X0183239Y0079446D01*
X0182539Y0079446D02*
X0182188Y0079446D01*
X0182539Y0079446D02*
X0183239Y0078745D01*
X0179188Y0078395D02*
X0178837Y0078045D01*
X0178137Y0078045D01*
X0177787Y0078395D01*
X0176978Y0078395D02*
X0176628Y0078745D01*
X0175577Y0078745D01*
X0175577Y0079096D02*
X0175577Y0078045D01*
X0176628Y0078045D01*
X0176978Y0078395D01*
X0176628Y0079446D02*
X0175927Y0079446D01*
X0175577Y0079096D01*
X0174768Y0079446D02*
X0174418Y0079446D01*
X0174067Y0079096D01*
X0173717Y0079446D01*
X0173367Y0079096D01*
X0173367Y0078045D01*
X0174067Y0078045D02*
X0174067Y0079096D01*
X0174768Y0079446D02*
X0174768Y0078045D01*
X0172558Y0078395D02*
X0172558Y0079096D01*
X0172208Y0079446D01*
X0171507Y0079446D01*
X0171157Y0079096D01*
X0171157Y0078745D01*
X0172558Y0078745D01*
X0172558Y0078395D02*
X0172208Y0078045D01*
X0171507Y0078045D01*
X0170348Y0078045D02*
X0170348Y0079446D01*
X0169648Y0079446D02*
X0169297Y0079446D01*
X0169648Y0079446D02*
X0170348Y0078745D01*
X0168507Y0078395D02*
X0168156Y0078745D01*
X0167105Y0078745D01*
X0167105Y0079096D02*
X0167105Y0078045D01*
X0168156Y0078045D01*
X0168507Y0078395D01*
X0168156Y0079446D02*
X0167456Y0079446D01*
X0167105Y0079096D01*
X0164087Y0079096D02*
X0164087Y0078395D01*
X0163737Y0078045D01*
X0163036Y0078045D01*
X0162686Y0078395D01*
X0162686Y0079096D01*
X0163036Y0079446D01*
X0163737Y0079446D01*
X0164087Y0079096D01*
X0161877Y0079446D02*
X0161877Y0078045D01*
X0161877Y0078745D02*
X0161176Y0079446D01*
X0160826Y0079446D01*
X0157826Y0079796D02*
X0157826Y0078395D01*
X0157475Y0078045D01*
X0156775Y0078045D01*
X0156424Y0078395D01*
X0156424Y0079096D01*
X0157125Y0079096D01*
X0157826Y0079796D02*
X0157475Y0080147D01*
X0156775Y0080147D01*
X0156424Y0079796D01*
X0155616Y0080147D02*
X0154565Y0080147D01*
X0154214Y0079796D01*
X0154214Y0079096D01*
X0154565Y0078745D01*
X0155616Y0078745D01*
X0155616Y0078045D02*
X0155616Y0080147D01*
X0153406Y0079796D02*
X0153406Y0079446D01*
X0153055Y0079096D01*
X0152355Y0079096D01*
X0152005Y0078745D01*
X0152005Y0078395D01*
X0152355Y0078045D01*
X0153055Y0078045D01*
X0153406Y0078395D01*
X0153406Y0079796D02*
X0153055Y0080147D01*
X0152355Y0080147D01*
X0152005Y0079796D01*
X0151639Y0068047D02*
X0153040Y0065945D01*
X0153849Y0065945D02*
X0154549Y0066645D01*
X0154199Y0066645D02*
X0155250Y0066645D01*
X0155250Y0065945D02*
X0155250Y0068047D01*
X0154199Y0068047D01*
X0153849Y0067696D01*
X0153849Y0066996D01*
X0154199Y0066645D01*
X0153040Y0068047D02*
X0151639Y0065945D01*
X0150830Y0065945D02*
X0149429Y0067346D01*
X0149429Y0067696D01*
X0149779Y0068047D01*
X0150480Y0068047D01*
X0150830Y0067696D01*
X0150830Y0065945D02*
X0149429Y0065945D01*
X0159529Y0065845D02*
X0160930Y0065845D01*
X0159529Y0067246D01*
X0159529Y0067596D01*
X0159879Y0067947D01*
X0160580Y0067947D01*
X0160930Y0067596D01*
X0161739Y0067947D02*
X0163140Y0065845D01*
X0161739Y0065845D02*
X0163140Y0067947D01*
X0163949Y0067947D02*
X0165350Y0067947D01*
X0164649Y0067947D02*
X0164649Y0065845D01*
X0179429Y0066195D02*
X0179429Y0067596D01*
X0179779Y0067947D01*
X0180830Y0067947D01*
X0180830Y0065845D01*
X0179779Y0065845D01*
X0179429Y0066195D01*
X0181639Y0065845D02*
X0181639Y0067947D01*
X0183040Y0067947D02*
X0181639Y0065845D01*
X0183040Y0065845D02*
X0183040Y0067947D01*
X0183849Y0067596D02*
X0184199Y0067947D01*
X0184900Y0067947D01*
X0185250Y0067596D01*
X0185250Y0066195D01*
X0184900Y0065845D01*
X0184199Y0065845D01*
X0183849Y0066195D01*
X0183849Y0066896D01*
X0184549Y0066896D01*
X0179188Y0078395D02*
X0179188Y0079796D01*
X0178837Y0080147D01*
X0178137Y0080147D01*
X0177787Y0079796D01*
D12*
X0138135Y0070028D02*
X0138135Y0031528D01*
X0216135Y0032528D02*
X0216135Y0071028D01*
X0295335Y0203228D02*
X0301335Y0203228D01*
X0301418Y0203230D01*
X0301501Y0203236D01*
X0301584Y0203245D01*
X0301666Y0203259D01*
X0301747Y0203276D01*
X0301828Y0203297D01*
X0301907Y0203321D01*
X0301985Y0203350D01*
X0302062Y0203381D01*
X0302137Y0203417D01*
X0302211Y0203455D01*
X0302283Y0203498D01*
X0302352Y0203543D01*
X0302420Y0203592D01*
X0302485Y0203643D01*
X0302548Y0203698D01*
X0302608Y0203755D01*
X0302665Y0203815D01*
X0302720Y0203878D01*
X0302771Y0203943D01*
X0302820Y0204011D01*
X0302865Y0204080D01*
X0302908Y0204152D01*
X0302946Y0204226D01*
X0302982Y0204301D01*
X0303013Y0204378D01*
X0303042Y0204456D01*
X0303066Y0204535D01*
X0303087Y0204616D01*
X0303104Y0204697D01*
X0303118Y0204779D01*
X0303127Y0204862D01*
X0303133Y0204945D01*
X0303135Y0205028D01*
X0303135Y0209428D01*
X0303133Y0209511D01*
X0303127Y0209594D01*
X0303118Y0209677D01*
X0303104Y0209759D01*
X0303087Y0209840D01*
X0303066Y0209921D01*
X0303042Y0210000D01*
X0303013Y0210078D01*
X0302982Y0210155D01*
X0302946Y0210230D01*
X0302908Y0210304D01*
X0302865Y0210376D01*
X0302820Y0210445D01*
X0302771Y0210513D01*
X0302720Y0210578D01*
X0302665Y0210641D01*
X0302608Y0210701D01*
X0302548Y0210758D01*
X0302485Y0210813D01*
X0302420Y0210864D01*
X0302352Y0210913D01*
X0302283Y0210958D01*
X0302211Y0211001D01*
X0302137Y0211039D01*
X0302062Y0211075D01*
X0301985Y0211106D01*
X0301907Y0211135D01*
X0301828Y0211159D01*
X0301747Y0211180D01*
X0301666Y0211197D01*
X0301584Y0211211D01*
X0301501Y0211220D01*
X0301418Y0211226D01*
X0301335Y0211228D01*
X0295335Y0211228D01*
X0295252Y0211226D01*
X0295169Y0211220D01*
X0295086Y0211211D01*
X0295004Y0211197D01*
X0294923Y0211180D01*
X0294842Y0211159D01*
X0294763Y0211135D01*
X0294685Y0211106D01*
X0294608Y0211075D01*
X0294533Y0211039D01*
X0294459Y0211001D01*
X0294387Y0210958D01*
X0294318Y0210913D01*
X0294250Y0210864D01*
X0294185Y0210813D01*
X0294122Y0210758D01*
X0294062Y0210701D01*
X0294005Y0210641D01*
X0293950Y0210578D01*
X0293899Y0210513D01*
X0293850Y0210445D01*
X0293805Y0210376D01*
X0293762Y0210304D01*
X0293724Y0210230D01*
X0293688Y0210155D01*
X0293657Y0210078D01*
X0293628Y0210000D01*
X0293604Y0209921D01*
X0293583Y0209840D01*
X0293566Y0209759D01*
X0293552Y0209677D01*
X0293543Y0209594D01*
X0293537Y0209511D01*
X0293535Y0209428D01*
X0293535Y0205028D01*
X0293537Y0204945D01*
X0293543Y0204862D01*
X0293552Y0204779D01*
X0293566Y0204697D01*
X0293583Y0204616D01*
X0293604Y0204535D01*
X0293628Y0204456D01*
X0293657Y0204378D01*
X0293688Y0204301D01*
X0293724Y0204226D01*
X0293762Y0204152D01*
X0293805Y0204080D01*
X0293850Y0204011D01*
X0293899Y0203943D01*
X0293950Y0203878D01*
X0294005Y0203815D01*
X0294062Y0203755D01*
X0294122Y0203698D01*
X0294185Y0203643D01*
X0294250Y0203592D01*
X0294318Y0203543D01*
X0294387Y0203498D01*
X0294459Y0203455D01*
X0294533Y0203417D01*
X0294608Y0203381D01*
X0294685Y0203350D01*
X0294763Y0203321D01*
X0294842Y0203297D01*
X0294923Y0203276D01*
X0295004Y0203259D01*
X0295086Y0203245D01*
X0295169Y0203236D01*
X0295252Y0203230D01*
X0295335Y0203228D01*
X0333135Y0205028D02*
X0333135Y0209428D01*
X0333137Y0209511D01*
X0333143Y0209594D01*
X0333152Y0209677D01*
X0333166Y0209759D01*
X0333183Y0209840D01*
X0333204Y0209921D01*
X0333228Y0210000D01*
X0333257Y0210078D01*
X0333288Y0210155D01*
X0333324Y0210230D01*
X0333362Y0210304D01*
X0333405Y0210376D01*
X0333450Y0210445D01*
X0333499Y0210513D01*
X0333550Y0210578D01*
X0333605Y0210641D01*
X0333662Y0210701D01*
X0333722Y0210758D01*
X0333785Y0210813D01*
X0333850Y0210864D01*
X0333918Y0210913D01*
X0333987Y0210958D01*
X0334059Y0211001D01*
X0334133Y0211039D01*
X0334208Y0211075D01*
X0334285Y0211106D01*
X0334363Y0211135D01*
X0334442Y0211159D01*
X0334523Y0211180D01*
X0334604Y0211197D01*
X0334686Y0211211D01*
X0334769Y0211220D01*
X0334852Y0211226D01*
X0334935Y0211228D01*
X0340935Y0211228D01*
X0341018Y0211226D01*
X0341101Y0211220D01*
X0341184Y0211211D01*
X0341266Y0211197D01*
X0341347Y0211180D01*
X0341428Y0211159D01*
X0341507Y0211135D01*
X0341585Y0211106D01*
X0341662Y0211075D01*
X0341737Y0211039D01*
X0341811Y0211001D01*
X0341883Y0210958D01*
X0341952Y0210913D01*
X0342020Y0210864D01*
X0342085Y0210813D01*
X0342148Y0210758D01*
X0342208Y0210701D01*
X0342265Y0210641D01*
X0342320Y0210578D01*
X0342371Y0210513D01*
X0342420Y0210445D01*
X0342465Y0210376D01*
X0342508Y0210304D01*
X0342546Y0210230D01*
X0342582Y0210155D01*
X0342613Y0210078D01*
X0342642Y0210000D01*
X0342666Y0209921D01*
X0342687Y0209840D01*
X0342704Y0209759D01*
X0342718Y0209677D01*
X0342727Y0209594D01*
X0342733Y0209511D01*
X0342735Y0209428D01*
X0342735Y0205028D01*
X0342733Y0204945D01*
X0342727Y0204862D01*
X0342718Y0204779D01*
X0342704Y0204697D01*
X0342687Y0204616D01*
X0342666Y0204535D01*
X0342642Y0204456D01*
X0342613Y0204378D01*
X0342582Y0204301D01*
X0342546Y0204226D01*
X0342508Y0204152D01*
X0342465Y0204080D01*
X0342420Y0204011D01*
X0342371Y0203943D01*
X0342320Y0203878D01*
X0342265Y0203815D01*
X0342208Y0203755D01*
X0342148Y0203698D01*
X0342085Y0203643D01*
X0342020Y0203592D01*
X0341952Y0203543D01*
X0341883Y0203498D01*
X0341811Y0203455D01*
X0341737Y0203417D01*
X0341662Y0203381D01*
X0341585Y0203350D01*
X0341507Y0203321D01*
X0341428Y0203297D01*
X0341347Y0203276D01*
X0341266Y0203259D01*
X0341184Y0203245D01*
X0341101Y0203236D01*
X0341018Y0203230D01*
X0340935Y0203228D01*
X0334935Y0203228D01*
X0334852Y0203230D01*
X0334769Y0203236D01*
X0334686Y0203245D01*
X0334604Y0203259D01*
X0334523Y0203276D01*
X0334442Y0203297D01*
X0334363Y0203321D01*
X0334285Y0203350D01*
X0334208Y0203381D01*
X0334133Y0203417D01*
X0334059Y0203455D01*
X0333987Y0203498D01*
X0333918Y0203543D01*
X0333850Y0203592D01*
X0333785Y0203643D01*
X0333722Y0203698D01*
X0333662Y0203755D01*
X0333605Y0203815D01*
X0333550Y0203878D01*
X0333499Y0203943D01*
X0333450Y0204011D01*
X0333405Y0204080D01*
X0333362Y0204152D01*
X0333324Y0204226D01*
X0333288Y0204301D01*
X0333257Y0204378D01*
X0333228Y0204456D01*
X0333204Y0204535D01*
X0333183Y0204616D01*
X0333166Y0204697D01*
X0333152Y0204779D01*
X0333143Y0204862D01*
X0333137Y0204945D01*
X0333135Y0205028D01*
X0253935Y0272828D02*
X0253935Y0277228D01*
X0253933Y0277311D01*
X0253927Y0277394D01*
X0253918Y0277477D01*
X0253904Y0277559D01*
X0253887Y0277640D01*
X0253866Y0277721D01*
X0253842Y0277800D01*
X0253813Y0277878D01*
X0253782Y0277955D01*
X0253746Y0278030D01*
X0253708Y0278104D01*
X0253665Y0278176D01*
X0253620Y0278245D01*
X0253571Y0278313D01*
X0253520Y0278378D01*
X0253465Y0278441D01*
X0253408Y0278501D01*
X0253348Y0278558D01*
X0253285Y0278613D01*
X0253220Y0278664D01*
X0253152Y0278713D01*
X0253083Y0278758D01*
X0253011Y0278801D01*
X0252937Y0278839D01*
X0252862Y0278875D01*
X0252785Y0278906D01*
X0252707Y0278935D01*
X0252628Y0278959D01*
X0252547Y0278980D01*
X0252466Y0278997D01*
X0252384Y0279011D01*
X0252301Y0279020D01*
X0252218Y0279026D01*
X0252135Y0279028D01*
X0246135Y0279028D01*
X0246052Y0279026D01*
X0245969Y0279020D01*
X0245886Y0279011D01*
X0245804Y0278997D01*
X0245723Y0278980D01*
X0245642Y0278959D01*
X0245563Y0278935D01*
X0245485Y0278906D01*
X0245408Y0278875D01*
X0245333Y0278839D01*
X0245259Y0278801D01*
X0245187Y0278758D01*
X0245118Y0278713D01*
X0245050Y0278664D01*
X0244985Y0278613D01*
X0244922Y0278558D01*
X0244862Y0278501D01*
X0244805Y0278441D01*
X0244750Y0278378D01*
X0244699Y0278313D01*
X0244650Y0278245D01*
X0244605Y0278176D01*
X0244562Y0278104D01*
X0244524Y0278030D01*
X0244488Y0277955D01*
X0244457Y0277878D01*
X0244428Y0277800D01*
X0244404Y0277721D01*
X0244383Y0277640D01*
X0244366Y0277559D01*
X0244352Y0277477D01*
X0244343Y0277394D01*
X0244337Y0277311D01*
X0244335Y0277228D01*
X0244335Y0272828D01*
X0244337Y0272745D01*
X0244343Y0272662D01*
X0244352Y0272579D01*
X0244366Y0272497D01*
X0244383Y0272416D01*
X0244404Y0272335D01*
X0244428Y0272256D01*
X0244457Y0272178D01*
X0244488Y0272101D01*
X0244524Y0272026D01*
X0244562Y0271952D01*
X0244605Y0271880D01*
X0244650Y0271811D01*
X0244699Y0271743D01*
X0244750Y0271678D01*
X0244805Y0271615D01*
X0244862Y0271555D01*
X0244922Y0271498D01*
X0244985Y0271443D01*
X0245050Y0271392D01*
X0245118Y0271343D01*
X0245187Y0271298D01*
X0245259Y0271255D01*
X0245333Y0271217D01*
X0245408Y0271181D01*
X0245485Y0271150D01*
X0245563Y0271121D01*
X0245642Y0271097D01*
X0245723Y0271076D01*
X0245804Y0271059D01*
X0245886Y0271045D01*
X0245969Y0271036D01*
X0246052Y0271030D01*
X0246135Y0271028D01*
X0252135Y0271028D01*
X0252218Y0271030D01*
X0252301Y0271036D01*
X0252384Y0271045D01*
X0252466Y0271059D01*
X0252547Y0271076D01*
X0252628Y0271097D01*
X0252707Y0271121D01*
X0252785Y0271150D01*
X0252862Y0271181D01*
X0252937Y0271217D01*
X0253011Y0271255D01*
X0253083Y0271298D01*
X0253152Y0271343D01*
X0253220Y0271392D01*
X0253285Y0271443D01*
X0253348Y0271498D01*
X0253408Y0271555D01*
X0253465Y0271615D01*
X0253520Y0271678D01*
X0253571Y0271743D01*
X0253620Y0271811D01*
X0253665Y0271880D01*
X0253708Y0271952D01*
X0253746Y0272026D01*
X0253782Y0272101D01*
X0253813Y0272178D01*
X0253842Y0272256D01*
X0253866Y0272335D01*
X0253887Y0272416D01*
X0253904Y0272497D01*
X0253918Y0272579D01*
X0253927Y0272662D01*
X0253933Y0272745D01*
X0253935Y0272828D01*
X0236735Y0306528D02*
X0236935Y0345128D01*
X0236735Y0306528D02*
X0152435Y0306628D01*
X0152135Y0306528D02*
X0152135Y0345028D01*
X0183435Y0279128D02*
X0189435Y0279128D01*
X0189518Y0279126D01*
X0189601Y0279120D01*
X0189684Y0279111D01*
X0189766Y0279097D01*
X0189847Y0279080D01*
X0189928Y0279059D01*
X0190007Y0279035D01*
X0190085Y0279006D01*
X0190162Y0278975D01*
X0190237Y0278939D01*
X0190311Y0278901D01*
X0190383Y0278858D01*
X0190452Y0278813D01*
X0190520Y0278764D01*
X0190585Y0278713D01*
X0190648Y0278658D01*
X0190708Y0278601D01*
X0190765Y0278541D01*
X0190820Y0278478D01*
X0190871Y0278413D01*
X0190920Y0278345D01*
X0190965Y0278276D01*
X0191008Y0278204D01*
X0191046Y0278130D01*
X0191082Y0278055D01*
X0191113Y0277978D01*
X0191142Y0277900D01*
X0191166Y0277821D01*
X0191187Y0277740D01*
X0191204Y0277659D01*
X0191218Y0277577D01*
X0191227Y0277494D01*
X0191233Y0277411D01*
X0191235Y0277328D01*
X0191235Y0272928D01*
X0191233Y0272845D01*
X0191227Y0272762D01*
X0191218Y0272679D01*
X0191204Y0272597D01*
X0191187Y0272516D01*
X0191166Y0272435D01*
X0191142Y0272356D01*
X0191113Y0272278D01*
X0191082Y0272201D01*
X0191046Y0272126D01*
X0191008Y0272052D01*
X0190965Y0271980D01*
X0190920Y0271911D01*
X0190871Y0271843D01*
X0190820Y0271778D01*
X0190765Y0271715D01*
X0190708Y0271655D01*
X0190648Y0271598D01*
X0190585Y0271543D01*
X0190520Y0271492D01*
X0190452Y0271443D01*
X0190383Y0271398D01*
X0190311Y0271355D01*
X0190237Y0271317D01*
X0190162Y0271281D01*
X0190085Y0271250D01*
X0190007Y0271221D01*
X0189928Y0271197D01*
X0189847Y0271176D01*
X0189766Y0271159D01*
X0189684Y0271145D01*
X0189601Y0271136D01*
X0189518Y0271130D01*
X0189435Y0271128D01*
X0183435Y0271128D01*
X0183352Y0271130D01*
X0183269Y0271136D01*
X0183186Y0271145D01*
X0183104Y0271159D01*
X0183023Y0271176D01*
X0182942Y0271197D01*
X0182863Y0271221D01*
X0182785Y0271250D01*
X0182708Y0271281D01*
X0182633Y0271317D01*
X0182559Y0271355D01*
X0182487Y0271398D01*
X0182418Y0271443D01*
X0182350Y0271492D01*
X0182285Y0271543D01*
X0182222Y0271598D01*
X0182162Y0271655D01*
X0182105Y0271715D01*
X0182050Y0271778D01*
X0181999Y0271843D01*
X0181950Y0271911D01*
X0181905Y0271980D01*
X0181862Y0272052D01*
X0181824Y0272126D01*
X0181788Y0272201D01*
X0181757Y0272278D01*
X0181728Y0272356D01*
X0181704Y0272435D01*
X0181683Y0272516D01*
X0181666Y0272597D01*
X0181652Y0272679D01*
X0181643Y0272762D01*
X0181637Y0272845D01*
X0181635Y0272928D01*
X0181635Y0277328D01*
X0181637Y0277411D01*
X0181643Y0277494D01*
X0181652Y0277577D01*
X0181666Y0277659D01*
X0181683Y0277740D01*
X0181704Y0277821D01*
X0181728Y0277900D01*
X0181757Y0277978D01*
X0181788Y0278055D01*
X0181824Y0278130D01*
X0181862Y0278204D01*
X0181905Y0278276D01*
X0181950Y0278345D01*
X0181999Y0278413D01*
X0182050Y0278478D01*
X0182105Y0278541D01*
X0182162Y0278601D01*
X0182222Y0278658D01*
X0182285Y0278713D01*
X0182350Y0278764D01*
X0182418Y0278813D01*
X0182487Y0278858D01*
X0182559Y0278901D01*
X0182633Y0278939D01*
X0182708Y0278975D01*
X0182785Y0279006D01*
X0182863Y0279035D01*
X0182942Y0279059D01*
X0183023Y0279080D01*
X0183104Y0279097D01*
X0183186Y0279111D01*
X0183269Y0279120D01*
X0183352Y0279126D01*
X0183435Y0279128D01*
X0078645Y0280564D02*
X0072145Y0280564D01*
X0073548Y0310933D02*
X0073645Y0310935D01*
X0073743Y0310941D01*
X0073839Y0310950D01*
X0073936Y0310964D01*
X0074032Y0310981D01*
X0074127Y0311002D01*
X0074221Y0311026D01*
X0074314Y0311054D01*
X0074406Y0311086D01*
X0074497Y0311122D01*
X0074586Y0311161D01*
X0074674Y0311203D01*
X0074760Y0311249D01*
X0074844Y0311298D01*
X0074926Y0311351D01*
X0075006Y0311407D01*
X0075083Y0311465D01*
X0075159Y0311527D01*
X0075231Y0311592D01*
X0075302Y0311659D01*
X0075369Y0311730D01*
X0075434Y0311802D01*
X0075496Y0311878D01*
X0075554Y0311955D01*
X0075610Y0312035D01*
X0075663Y0312117D01*
X0075712Y0312201D01*
X0075758Y0312287D01*
X0075800Y0312375D01*
X0075839Y0312464D01*
X0075875Y0312555D01*
X0075907Y0312647D01*
X0075935Y0312740D01*
X0075959Y0312834D01*
X0075980Y0312929D01*
X0075997Y0313025D01*
X0076011Y0313122D01*
X0076020Y0313218D01*
X0076026Y0313316D01*
X0076028Y0313413D01*
X0076028Y0333256D02*
X0076026Y0333353D01*
X0076020Y0333451D01*
X0076011Y0333547D01*
X0075997Y0333644D01*
X0075980Y0333740D01*
X0075959Y0333835D01*
X0075935Y0333929D01*
X0075907Y0334022D01*
X0075875Y0334114D01*
X0075839Y0334205D01*
X0075800Y0334294D01*
X0075758Y0334382D01*
X0075712Y0334468D01*
X0075663Y0334552D01*
X0075610Y0334634D01*
X0075554Y0334714D01*
X0075496Y0334791D01*
X0075434Y0334867D01*
X0075369Y0334939D01*
X0075302Y0335010D01*
X0075231Y0335077D01*
X0075159Y0335142D01*
X0075083Y0335204D01*
X0075006Y0335262D01*
X0074926Y0335318D01*
X0074844Y0335371D01*
X0074760Y0335420D01*
X0074674Y0335466D01*
X0074586Y0335508D01*
X0074497Y0335547D01*
X0074406Y0335583D01*
X0074314Y0335615D01*
X0074221Y0335643D01*
X0074127Y0335667D01*
X0074032Y0335688D01*
X0073936Y0335705D01*
X0073839Y0335719D01*
X0073743Y0335728D01*
X0073645Y0335734D01*
X0073548Y0335736D01*
X0053706Y0335736D02*
X0053609Y0335734D01*
X0053511Y0335728D01*
X0053415Y0335719D01*
X0053318Y0335705D01*
X0053222Y0335688D01*
X0053127Y0335667D01*
X0053033Y0335643D01*
X0052940Y0335615D01*
X0052848Y0335583D01*
X0052757Y0335547D01*
X0052668Y0335508D01*
X0052580Y0335466D01*
X0052494Y0335420D01*
X0052410Y0335371D01*
X0052328Y0335318D01*
X0052248Y0335262D01*
X0052171Y0335204D01*
X0052095Y0335142D01*
X0052023Y0335077D01*
X0051952Y0335010D01*
X0051885Y0334939D01*
X0051820Y0334867D01*
X0051758Y0334791D01*
X0051700Y0334714D01*
X0051644Y0334634D01*
X0051591Y0334552D01*
X0051542Y0334468D01*
X0051496Y0334382D01*
X0051454Y0334294D01*
X0051415Y0334205D01*
X0051379Y0334114D01*
X0051347Y0334022D01*
X0051319Y0333929D01*
X0051295Y0333835D01*
X0051274Y0333740D01*
X0051257Y0333644D01*
X0051243Y0333547D01*
X0051234Y0333451D01*
X0051228Y0333353D01*
X0051226Y0333256D01*
X0051226Y0313413D02*
X0051228Y0313316D01*
X0051234Y0313218D01*
X0051243Y0313122D01*
X0051257Y0313025D01*
X0051274Y0312929D01*
X0051295Y0312834D01*
X0051319Y0312740D01*
X0051347Y0312647D01*
X0051379Y0312555D01*
X0051415Y0312464D01*
X0051454Y0312375D01*
X0051496Y0312287D01*
X0051542Y0312201D01*
X0051591Y0312117D01*
X0051644Y0312035D01*
X0051700Y0311955D01*
X0051758Y0311878D01*
X0051820Y0311802D01*
X0051885Y0311730D01*
X0051952Y0311659D01*
X0052023Y0311592D01*
X0052095Y0311527D01*
X0052171Y0311465D01*
X0052248Y0311407D01*
X0052328Y0311351D01*
X0052410Y0311298D01*
X0052494Y0311249D01*
X0052580Y0311203D01*
X0052668Y0311161D01*
X0052757Y0311122D01*
X0052848Y0311086D01*
X0052940Y0311054D01*
X0053033Y0311026D01*
X0053127Y0311002D01*
X0053222Y0310981D01*
X0053318Y0310964D01*
X0053415Y0310950D01*
X0053511Y0310941D01*
X0053609Y0310935D01*
X0053706Y0310933D01*
D13*
X0062129Y0296879D02*
X0061812Y0296562D01*
X0061812Y0296245D01*
X0062129Y0295928D01*
X0061812Y0295612D01*
X0061812Y0295295D01*
X0062129Y0294978D01*
X0062763Y0294978D01*
X0063080Y0295295D01*
X0062446Y0295928D02*
X0062129Y0295928D01*
X0062129Y0296879D02*
X0062763Y0296879D01*
X0063080Y0296562D01*
X0064022Y0296562D02*
X0064022Y0295928D01*
X0064339Y0295612D01*
X0065290Y0295612D01*
X0065290Y0294978D02*
X0065290Y0296879D01*
X0064339Y0296879D01*
X0064022Y0296562D01*
X0066232Y0296879D02*
X0066866Y0296879D01*
X0066549Y0296879D02*
X0066549Y0295295D01*
X0066866Y0294978D01*
X0067183Y0294978D01*
X0067500Y0295295D01*
X0069845Y0302864D02*
X0069845Y0281264D01*
X0271445Y0281264D01*
X0271445Y0302864D01*
X0069845Y0302864D01*
X0182707Y0270062D02*
X0182707Y0268795D01*
X0183024Y0268478D01*
X0183658Y0268478D01*
X0183975Y0268795D01*
X0182707Y0270062D01*
X0183024Y0270379D01*
X0183658Y0270379D01*
X0183975Y0270062D01*
X0183975Y0268795D01*
X0184917Y0268478D02*
X0186185Y0268478D01*
X0185551Y0268478D02*
X0185551Y0270379D01*
X0186185Y0269745D01*
X0187127Y0269428D02*
X0187444Y0269112D01*
X0188395Y0269112D01*
X0188395Y0268478D02*
X0188395Y0270379D01*
X0187444Y0270379D01*
X0187127Y0270062D01*
X0187127Y0269428D01*
X0189337Y0270379D02*
X0189971Y0270379D01*
X0189654Y0270379D02*
X0189654Y0268795D01*
X0189971Y0268478D01*
X0190288Y0268478D01*
X0190605Y0268795D01*
X0220824Y0303678D02*
X0221458Y0303678D01*
X0221775Y0303995D01*
X0221775Y0304312D01*
X0221458Y0304628D01*
X0220824Y0304628D01*
X0220507Y0304312D01*
X0220507Y0303995D01*
X0220824Y0303678D01*
X0220824Y0304628D02*
X0220507Y0304945D01*
X0220507Y0305262D01*
X0220824Y0305579D01*
X0221458Y0305579D01*
X0221775Y0305262D01*
X0221775Y0304945D01*
X0221458Y0304628D01*
X0222717Y0305579D02*
X0223351Y0305579D01*
X0223034Y0305579D02*
X0223034Y0303995D01*
X0223351Y0303678D01*
X0223668Y0303678D01*
X0223985Y0303995D01*
X0246629Y0269879D02*
X0247263Y0269879D01*
X0247580Y0269562D01*
X0247580Y0269245D01*
X0247263Y0268928D01*
X0246312Y0268928D01*
X0246312Y0268295D02*
X0246312Y0269562D01*
X0246629Y0269879D01*
X0246312Y0268295D02*
X0246629Y0267978D01*
X0247263Y0267978D01*
X0247580Y0268295D01*
X0248522Y0268928D02*
X0248839Y0268612D01*
X0249790Y0268612D01*
X0249790Y0267978D02*
X0249790Y0269879D01*
X0248839Y0269879D01*
X0248522Y0269562D01*
X0248522Y0268928D01*
X0250732Y0269879D02*
X0251366Y0269879D01*
X0251049Y0269879D02*
X0251049Y0268295D01*
X0251366Y0267978D01*
X0251683Y0267978D01*
X0252000Y0268295D01*
X0296429Y0202279D02*
X0296112Y0201962D01*
X0296112Y0201645D01*
X0296429Y0201328D01*
X0297063Y0201328D01*
X0297380Y0201645D01*
X0297380Y0201962D01*
X0297063Y0202279D01*
X0296429Y0202279D01*
X0296429Y0201328D02*
X0296112Y0201012D01*
X0296112Y0200695D01*
X0296429Y0200378D01*
X0297063Y0200378D01*
X0297380Y0200695D01*
X0297380Y0201012D01*
X0297063Y0201328D01*
X0298322Y0201328D02*
X0298639Y0201012D01*
X0299590Y0201012D01*
X0299590Y0200378D02*
X0299590Y0202279D01*
X0298639Y0202279D01*
X0298322Y0201962D01*
X0298322Y0201328D01*
X0300532Y0202279D02*
X0301166Y0202279D01*
X0300849Y0202279D02*
X0300849Y0200695D01*
X0301166Y0200378D01*
X0301483Y0200378D01*
X0301800Y0200695D01*
X0335312Y0202162D02*
X0336580Y0200895D01*
X0336580Y0200578D01*
X0337522Y0201528D02*
X0337839Y0201212D01*
X0338790Y0201212D01*
X0338790Y0200578D02*
X0338790Y0202479D01*
X0337839Y0202479D01*
X0337522Y0202162D01*
X0337522Y0201528D01*
X0336580Y0202479D02*
X0335312Y0202479D01*
X0335312Y0202162D01*
X0339732Y0202479D02*
X0340366Y0202479D01*
X0340049Y0202479D02*
X0340049Y0200895D01*
X0340366Y0200578D01*
X0340683Y0200578D01*
X0341000Y0200895D01*
D14*
X0067795Y0282881D02*
X0067328Y0282414D01*
X0066861Y0282414D01*
X0066394Y0282881D01*
X0066394Y0285216D01*
X0066861Y0285216D02*
X0065927Y0285216D01*
X0064848Y0284282D02*
X0063914Y0285216D01*
X0063914Y0282414D01*
X0064848Y0282414D02*
X0062980Y0282414D01*
M02*
