G75*
%MOIN*%
%OFA0B0*%
%FSLAX25Y25*%
%IPPOS*%
%LPD*%
%AMOC8*
5,1,8,0,0,1.08239X$1,22.5*
%
%ADD10R,0.03937X0.04331*%
%ADD11R,0.06693X0.13780*%
%ADD12R,0.03543X0.04921*%
%ADD13R,0.05000X0.12000*%
%ADD14R,0.12000X0.05000*%
%ADD15R,0.05500X0.12000*%
%ADD16R,0.05600X0.12000*%
%ADD17C,0.00875*%
%ADD18R,0.01181X0.03937*%
%ADD19R,0.02362X0.03937*%
%ADD20C,0.00039*%
%ADD21R,0.02200X0.07800*%
%ADD22R,0.03937X0.03150*%
%ADD23C,0.01181*%
%ADD24R,0.02700X0.07700*%
%ADD25R,0.02700X0.04600*%
%ADD26R,0.03937X0.12992*%
%ADD27R,0.03189X0.06693*%
%ADD28R,0.03189X0.04134*%
D10*
X0049035Y0170154D03*
X0049035Y0176846D03*
X0056135Y0248654D03*
X0056135Y0255346D03*
X0156335Y0283654D03*
X0156335Y0290346D03*
X0169488Y0302200D03*
X0176181Y0302200D03*
X0218788Y0302400D03*
X0225481Y0302400D03*
X0247635Y0291446D03*
X0247635Y0284754D03*
X0260088Y0248100D03*
X0266781Y0248100D03*
X0278288Y0248100D03*
X0284981Y0248100D03*
X0300135Y0282054D03*
X0300135Y0288746D03*
X0289481Y0036900D03*
X0282788Y0036900D03*
D11*
X0161835Y0060630D03*
X0171835Y0060630D03*
X0181835Y0060630D03*
X0191835Y0060630D03*
X0201835Y0060630D03*
X0211835Y0060630D03*
X0221835Y0060630D03*
X0231835Y0060630D03*
X0241835Y0060630D03*
X0251835Y0060630D03*
X0261835Y0060630D03*
X0271835Y0060630D03*
X0281835Y0060630D03*
X0291835Y0060630D03*
X0301835Y0060630D03*
X0311835Y0060630D03*
X0321835Y0060630D03*
X0331835Y0060630D03*
X0341835Y0060630D03*
X0351835Y0060630D03*
X0351835Y0139370D03*
X0341835Y0139370D03*
X0331835Y0139370D03*
X0321835Y0139370D03*
X0311835Y0139370D03*
X0301835Y0139370D03*
X0291835Y0139370D03*
X0281835Y0139370D03*
X0271835Y0139370D03*
X0261835Y0139370D03*
X0251835Y0139370D03*
X0241835Y0139370D03*
X0231835Y0139370D03*
X0221835Y0139370D03*
X0211835Y0139370D03*
X0201835Y0139370D03*
X0191835Y0139370D03*
X0181835Y0139370D03*
X0171835Y0139370D03*
X0161835Y0139370D03*
D12*
X0264482Y0299428D03*
X0269797Y0299428D03*
X0269797Y0315766D03*
X0264443Y0315766D03*
X0346243Y0048866D03*
X0351597Y0048866D03*
X0351597Y0032528D03*
X0346282Y0032528D03*
D13*
X0206009Y0174705D03*
X0193189Y0174705D03*
X0158669Y0175205D03*
X0158788Y0234008D03*
X0193504Y0234441D03*
X0206004Y0234551D03*
D14*
X0247287Y0222705D03*
X0247268Y0185205D03*
X0146748Y0185008D03*
X0146768Y0223508D03*
D15*
X0217504Y0234661D03*
X0217528Y0174705D03*
X0229048Y0174705D03*
D16*
X0229004Y0234772D03*
D17*
X0259422Y0228713D02*
X0259422Y0226087D01*
X0259422Y0228713D02*
X0262048Y0228713D01*
X0262048Y0226087D01*
X0259422Y0226087D01*
X0259422Y0226961D02*
X0262048Y0226961D01*
X0262048Y0227835D02*
X0259422Y0227835D01*
X0259422Y0228709D02*
X0262048Y0228709D01*
X0259422Y0222713D02*
X0259422Y0220087D01*
X0259422Y0222713D02*
X0262048Y0222713D01*
X0262048Y0220087D01*
X0259422Y0220087D01*
X0259422Y0220961D02*
X0262048Y0220961D01*
X0262048Y0221835D02*
X0259422Y0221835D01*
X0259422Y0222709D02*
X0262048Y0222709D01*
X0262748Y0212387D02*
X0260122Y0212387D01*
X0260122Y0215013D01*
X0262748Y0215013D01*
X0262748Y0212387D01*
X0262748Y0213261D02*
X0260122Y0213261D01*
X0260122Y0214135D02*
X0262748Y0214135D01*
X0262748Y0215009D02*
X0260122Y0215009D01*
X0266122Y0212387D02*
X0268748Y0212387D01*
X0266122Y0212387D02*
X0266122Y0215013D01*
X0268748Y0215013D01*
X0268748Y0212387D01*
X0268748Y0213261D02*
X0266122Y0213261D01*
X0266122Y0214135D02*
X0268748Y0214135D01*
X0268748Y0215009D02*
X0266122Y0215009D01*
X0265622Y0192213D02*
X0268248Y0192213D01*
X0268248Y0189587D01*
X0265622Y0189587D01*
X0265622Y0192213D01*
X0265622Y0190461D02*
X0268248Y0190461D01*
X0268248Y0191335D02*
X0265622Y0191335D01*
X0265622Y0192209D02*
X0268248Y0192209D01*
X0262248Y0192213D02*
X0259622Y0192213D01*
X0262248Y0192213D02*
X0262248Y0189587D01*
X0259622Y0189587D01*
X0259622Y0192213D01*
X0259622Y0190461D02*
X0262248Y0190461D01*
X0262248Y0191335D02*
X0259622Y0191335D01*
X0259622Y0192209D02*
X0262248Y0192209D01*
X0259422Y0184813D02*
X0259422Y0182187D01*
X0259422Y0184813D02*
X0262048Y0184813D01*
X0262048Y0182187D01*
X0259422Y0182187D01*
X0259422Y0183061D02*
X0262048Y0183061D01*
X0262048Y0183935D02*
X0259422Y0183935D01*
X0259422Y0184809D02*
X0262048Y0184809D01*
X0259422Y0178813D02*
X0259422Y0176187D01*
X0259422Y0178813D02*
X0262048Y0178813D01*
X0262048Y0176187D01*
X0259422Y0176187D01*
X0259422Y0177061D02*
X0262048Y0177061D01*
X0262048Y0177935D02*
X0259422Y0177935D01*
X0259422Y0178809D02*
X0262048Y0178809D01*
X0291122Y0166787D02*
X0293748Y0166787D01*
X0291122Y0166787D02*
X0291122Y0169413D01*
X0293748Y0169413D01*
X0293748Y0166787D01*
X0293748Y0167661D02*
X0291122Y0167661D01*
X0291122Y0168535D02*
X0293748Y0168535D01*
X0293748Y0169409D02*
X0291122Y0169409D01*
X0297122Y0166787D02*
X0299748Y0166787D01*
X0297122Y0166787D02*
X0297122Y0169413D01*
X0299748Y0169413D01*
X0299748Y0166787D01*
X0299748Y0167661D02*
X0297122Y0167661D01*
X0297122Y0168535D02*
X0299748Y0168535D01*
X0299748Y0169409D02*
X0297122Y0169409D01*
X0345122Y0166387D02*
X0347748Y0166387D01*
X0345122Y0166387D02*
X0345122Y0169013D01*
X0347748Y0169013D01*
X0347748Y0166387D01*
X0347748Y0167261D02*
X0345122Y0167261D01*
X0345122Y0168135D02*
X0347748Y0168135D01*
X0347748Y0169009D02*
X0345122Y0169009D01*
X0351122Y0166387D02*
X0353748Y0166387D01*
X0351122Y0166387D02*
X0351122Y0169013D01*
X0353748Y0169013D01*
X0353748Y0166387D01*
X0353748Y0167261D02*
X0351122Y0167261D01*
X0351122Y0168135D02*
X0353748Y0168135D01*
X0353748Y0169009D02*
X0351122Y0169009D01*
X0151022Y0239987D02*
X0151022Y0242613D01*
X0153648Y0242613D01*
X0153648Y0239987D01*
X0151022Y0239987D01*
X0151022Y0240861D02*
X0153648Y0240861D01*
X0153648Y0241735D02*
X0151022Y0241735D01*
X0151022Y0242609D02*
X0153648Y0242609D01*
X0151022Y0245987D02*
X0151022Y0248613D01*
X0153648Y0248613D01*
X0153648Y0245987D01*
X0151022Y0245987D01*
X0151022Y0246861D02*
X0153648Y0246861D01*
X0153648Y0247735D02*
X0151022Y0247735D01*
X0151022Y0248609D02*
X0153648Y0248609D01*
X0144448Y0240113D02*
X0141822Y0240113D01*
X0144448Y0240113D02*
X0144448Y0237487D01*
X0141822Y0237487D01*
X0141822Y0240113D01*
X0141822Y0238361D02*
X0144448Y0238361D01*
X0144448Y0239235D02*
X0141822Y0239235D01*
X0141822Y0240109D02*
X0144448Y0240109D01*
X0138448Y0240113D02*
X0135822Y0240113D01*
X0138448Y0240113D02*
X0138448Y0237487D01*
X0135822Y0237487D01*
X0135822Y0240113D01*
X0135822Y0238361D02*
X0138448Y0238361D01*
X0138448Y0239235D02*
X0135822Y0239235D01*
X0135822Y0240109D02*
X0138448Y0240109D01*
X0131348Y0237187D02*
X0128722Y0237187D01*
X0128722Y0239813D01*
X0131348Y0239813D01*
X0131348Y0237187D01*
X0131348Y0238061D02*
X0128722Y0238061D01*
X0128722Y0238935D02*
X0131348Y0238935D01*
X0131348Y0239809D02*
X0128722Y0239809D01*
X0125348Y0237187D02*
X0122722Y0237187D01*
X0122722Y0239813D01*
X0125348Y0239813D01*
X0125348Y0237187D01*
X0125348Y0238061D02*
X0122722Y0238061D01*
X0122722Y0238935D02*
X0125348Y0238935D01*
X0125348Y0239809D02*
X0122722Y0239809D01*
X0087022Y0295087D02*
X0087022Y0297713D01*
X0089648Y0297713D01*
X0089648Y0295087D01*
X0087022Y0295087D01*
X0087022Y0295961D02*
X0089648Y0295961D01*
X0089648Y0296835D02*
X0087022Y0296835D01*
X0087022Y0297709D02*
X0089648Y0297709D01*
X0087022Y0301087D02*
X0087022Y0303713D01*
X0089648Y0303713D01*
X0089648Y0301087D01*
X0087022Y0301087D01*
X0087022Y0301961D02*
X0089648Y0301961D01*
X0089648Y0302835D02*
X0087022Y0302835D01*
X0087022Y0303709D02*
X0089648Y0303709D01*
D18*
X0190545Y0293239D03*
X0192513Y0293239D03*
X0194482Y0293239D03*
X0196450Y0293239D03*
X0198419Y0293239D03*
X0200387Y0293239D03*
X0202356Y0293239D03*
X0204325Y0293239D03*
D19*
X0207080Y0293239D03*
X0210132Y0293239D03*
X0187789Y0293239D03*
X0184738Y0293239D03*
D20*
X0182395Y0293357D02*
X0182364Y0292917D01*
X0182235Y0292495D01*
X0182015Y0292112D01*
X0181716Y0291788D01*
X0181352Y0291539D01*
X0180942Y0291376D01*
X0180506Y0291309D01*
X0180069Y0291336D01*
X0179650Y0291460D01*
X0179269Y0291673D01*
X0178945Y0291966D01*
X0178694Y0292324D01*
X0178529Y0292729D01*
X0178458Y0293160D01*
X0178458Y0297884D01*
X0178545Y0298296D01*
X0178720Y0298678D01*
X0178977Y0299012D01*
X0179301Y0299280D01*
X0179677Y0299469D01*
X0180085Y0299570D01*
X0180506Y0299577D01*
X0180887Y0299579D01*
X0181260Y0299495D01*
X0181604Y0299331D01*
X0181903Y0299094D01*
X0182142Y0298796D01*
X0182309Y0298453D01*
X0182395Y0298081D01*
X0182395Y0293357D01*
X0182395Y0293347D02*
X0178458Y0293347D01*
X0178458Y0293309D02*
X0182392Y0293309D01*
X0182389Y0293272D02*
X0178458Y0293272D01*
X0178458Y0293234D02*
X0182386Y0293234D01*
X0182384Y0293196D02*
X0178458Y0293196D01*
X0178459Y0293158D02*
X0182381Y0293158D01*
X0182378Y0293120D02*
X0178465Y0293120D01*
X0178471Y0293082D02*
X0182376Y0293082D01*
X0182373Y0293044D02*
X0178477Y0293044D01*
X0178484Y0293006D02*
X0182370Y0293006D01*
X0182367Y0292968D02*
X0178490Y0292968D01*
X0178496Y0292931D02*
X0182365Y0292931D01*
X0182356Y0292893D02*
X0178502Y0292893D01*
X0178508Y0292855D02*
X0182345Y0292855D01*
X0182333Y0292817D02*
X0178515Y0292817D01*
X0178521Y0292779D02*
X0182321Y0292779D01*
X0182310Y0292741D02*
X0178527Y0292741D01*
X0178539Y0292703D02*
X0182298Y0292703D01*
X0182287Y0292665D02*
X0178555Y0292665D01*
X0178570Y0292628D02*
X0182275Y0292628D01*
X0182264Y0292590D02*
X0178586Y0292590D01*
X0178601Y0292552D02*
X0182252Y0292552D01*
X0182240Y0292514D02*
X0178617Y0292514D01*
X0178632Y0292476D02*
X0182224Y0292476D01*
X0182202Y0292438D02*
X0178648Y0292438D01*
X0178663Y0292400D02*
X0182180Y0292400D01*
X0182159Y0292362D02*
X0178678Y0292362D01*
X0178694Y0292324D02*
X0182137Y0292324D01*
X0182115Y0292287D02*
X0178720Y0292287D01*
X0178747Y0292249D02*
X0182093Y0292249D01*
X0182072Y0292211D02*
X0178773Y0292211D01*
X0178800Y0292173D02*
X0182050Y0292173D01*
X0182028Y0292135D02*
X0178827Y0292135D01*
X0178853Y0292097D02*
X0182001Y0292097D01*
X0181966Y0292059D02*
X0178880Y0292059D01*
X0178906Y0292021D02*
X0181931Y0292021D01*
X0181896Y0291984D02*
X0178933Y0291984D01*
X0178968Y0291946D02*
X0181861Y0291946D01*
X0181826Y0291908D02*
X0179010Y0291908D01*
X0179052Y0291870D02*
X0181791Y0291870D01*
X0181756Y0291832D02*
X0179093Y0291832D01*
X0179135Y0291794D02*
X0181721Y0291794D01*
X0181669Y0291756D02*
X0179177Y0291756D01*
X0179219Y0291718D02*
X0181614Y0291718D01*
X0181559Y0291680D02*
X0179261Y0291680D01*
X0179324Y0291643D02*
X0181504Y0291643D01*
X0181448Y0291605D02*
X0179391Y0291605D01*
X0179459Y0291567D02*
X0181393Y0291567D01*
X0181328Y0291529D02*
X0179527Y0291529D01*
X0179594Y0291491D02*
X0181232Y0291491D01*
X0181136Y0291453D02*
X0179673Y0291453D01*
X0179801Y0291415D02*
X0181040Y0291415D01*
X0180944Y0291377D02*
X0179930Y0291377D01*
X0180059Y0291340D02*
X0180702Y0291340D01*
X0182395Y0293385D02*
X0178458Y0293385D01*
X0178458Y0293423D02*
X0182395Y0293423D01*
X0182395Y0293461D02*
X0178458Y0293461D01*
X0178458Y0293499D02*
X0182395Y0293499D01*
X0182395Y0293537D02*
X0178458Y0293537D01*
X0178458Y0293575D02*
X0182395Y0293575D01*
X0182395Y0293612D02*
X0178458Y0293612D01*
X0178458Y0293650D02*
X0182395Y0293650D01*
X0182395Y0293688D02*
X0178458Y0293688D01*
X0178458Y0293726D02*
X0182395Y0293726D01*
X0182395Y0293764D02*
X0178458Y0293764D01*
X0178458Y0293802D02*
X0182395Y0293802D01*
X0182395Y0293840D02*
X0178458Y0293840D01*
X0178458Y0293878D02*
X0182395Y0293878D01*
X0182395Y0293915D02*
X0178458Y0293915D01*
X0178458Y0293953D02*
X0182395Y0293953D01*
X0182395Y0293991D02*
X0178458Y0293991D01*
X0178458Y0294029D02*
X0182395Y0294029D01*
X0182395Y0294067D02*
X0178458Y0294067D01*
X0178458Y0294105D02*
X0182395Y0294105D01*
X0182395Y0294143D02*
X0178458Y0294143D01*
X0178458Y0294181D02*
X0182395Y0294181D01*
X0182395Y0294219D02*
X0178458Y0294219D01*
X0178458Y0294256D02*
X0182395Y0294256D01*
X0182395Y0294294D02*
X0178458Y0294294D01*
X0178458Y0294332D02*
X0182395Y0294332D01*
X0182395Y0294370D02*
X0178458Y0294370D01*
X0178458Y0294408D02*
X0182395Y0294408D01*
X0182395Y0294446D02*
X0178458Y0294446D01*
X0178458Y0294484D02*
X0182395Y0294484D01*
X0182395Y0294522D02*
X0178458Y0294522D01*
X0178458Y0294559D02*
X0182395Y0294559D01*
X0182395Y0294597D02*
X0178458Y0294597D01*
X0178458Y0294635D02*
X0182395Y0294635D01*
X0182395Y0294673D02*
X0178458Y0294673D01*
X0178458Y0294711D02*
X0182395Y0294711D01*
X0182395Y0294749D02*
X0178458Y0294749D01*
X0178458Y0294787D02*
X0182395Y0294787D01*
X0182395Y0294825D02*
X0178458Y0294825D01*
X0178458Y0294863D02*
X0182395Y0294863D01*
X0182395Y0294900D02*
X0178458Y0294900D01*
X0178458Y0294938D02*
X0182395Y0294938D01*
X0182395Y0294976D02*
X0178458Y0294976D01*
X0178458Y0295014D02*
X0182395Y0295014D01*
X0182395Y0295052D02*
X0178458Y0295052D01*
X0178458Y0295090D02*
X0182395Y0295090D01*
X0182395Y0295128D02*
X0178458Y0295128D01*
X0178458Y0295166D02*
X0182395Y0295166D01*
X0182395Y0295203D02*
X0178458Y0295203D01*
X0178458Y0295241D02*
X0182395Y0295241D01*
X0182395Y0295279D02*
X0178458Y0295279D01*
X0178458Y0295317D02*
X0182395Y0295317D01*
X0182395Y0295355D02*
X0178458Y0295355D01*
X0178458Y0295393D02*
X0182395Y0295393D01*
X0182395Y0295431D02*
X0178458Y0295431D01*
X0178458Y0295469D02*
X0182395Y0295469D01*
X0182395Y0295507D02*
X0178458Y0295507D01*
X0178458Y0295544D02*
X0182395Y0295544D01*
X0182395Y0295582D02*
X0178458Y0295582D01*
X0178458Y0295620D02*
X0182395Y0295620D01*
X0182395Y0295658D02*
X0178458Y0295658D01*
X0178458Y0295696D02*
X0182395Y0295696D01*
X0182395Y0295734D02*
X0178458Y0295734D01*
X0178458Y0295772D02*
X0182395Y0295772D01*
X0182395Y0295810D02*
X0178458Y0295810D01*
X0178458Y0295847D02*
X0182395Y0295847D01*
X0182395Y0295885D02*
X0178458Y0295885D01*
X0178458Y0295923D02*
X0182395Y0295923D01*
X0182395Y0295961D02*
X0178458Y0295961D01*
X0178458Y0295999D02*
X0182395Y0295999D01*
X0182395Y0296037D02*
X0178458Y0296037D01*
X0178458Y0296075D02*
X0182395Y0296075D01*
X0182395Y0296113D02*
X0178458Y0296113D01*
X0178458Y0296150D02*
X0182395Y0296150D01*
X0182395Y0296188D02*
X0178458Y0296188D01*
X0178458Y0296226D02*
X0182395Y0296226D01*
X0182395Y0296264D02*
X0178458Y0296264D01*
X0178458Y0296302D02*
X0182395Y0296302D01*
X0182395Y0296340D02*
X0178458Y0296340D01*
X0178458Y0296378D02*
X0182395Y0296378D01*
X0182395Y0296416D02*
X0178458Y0296416D01*
X0178458Y0296454D02*
X0182395Y0296454D01*
X0182395Y0296491D02*
X0178458Y0296491D01*
X0178458Y0296529D02*
X0182395Y0296529D01*
X0182395Y0296567D02*
X0178458Y0296567D01*
X0178458Y0296605D02*
X0182395Y0296605D01*
X0182395Y0296643D02*
X0178458Y0296643D01*
X0178458Y0296681D02*
X0182395Y0296681D01*
X0182395Y0296719D02*
X0178458Y0296719D01*
X0178458Y0296757D02*
X0182395Y0296757D01*
X0182395Y0296794D02*
X0178458Y0296794D01*
X0178458Y0296832D02*
X0182395Y0296832D01*
X0182395Y0296870D02*
X0178458Y0296870D01*
X0178458Y0296908D02*
X0182395Y0296908D01*
X0182395Y0296946D02*
X0178458Y0296946D01*
X0178458Y0296984D02*
X0182395Y0296984D01*
X0182395Y0297022D02*
X0178458Y0297022D01*
X0178458Y0297060D02*
X0182395Y0297060D01*
X0182395Y0297098D02*
X0178458Y0297098D01*
X0178458Y0297135D02*
X0182395Y0297135D01*
X0182395Y0297173D02*
X0178458Y0297173D01*
X0178458Y0297211D02*
X0182395Y0297211D01*
X0182395Y0297249D02*
X0178458Y0297249D01*
X0178458Y0297287D02*
X0182395Y0297287D01*
X0182395Y0297325D02*
X0178458Y0297325D01*
X0178458Y0297363D02*
X0182395Y0297363D01*
X0182395Y0297401D02*
X0178458Y0297401D01*
X0178458Y0297438D02*
X0182395Y0297438D01*
X0182395Y0297476D02*
X0178458Y0297476D01*
X0178458Y0297514D02*
X0182395Y0297514D01*
X0182395Y0297552D02*
X0178458Y0297552D01*
X0178458Y0297590D02*
X0182395Y0297590D01*
X0182395Y0297628D02*
X0178458Y0297628D01*
X0178458Y0297666D02*
X0182395Y0297666D01*
X0182395Y0297704D02*
X0178458Y0297704D01*
X0178458Y0297742D02*
X0182395Y0297742D01*
X0182395Y0297779D02*
X0178458Y0297779D01*
X0178458Y0297817D02*
X0182395Y0297817D01*
X0182395Y0297855D02*
X0178458Y0297855D01*
X0178460Y0297893D02*
X0182395Y0297893D01*
X0182395Y0297931D02*
X0178468Y0297931D01*
X0178476Y0297969D02*
X0182395Y0297969D01*
X0182395Y0298007D02*
X0178484Y0298007D01*
X0178492Y0298045D02*
X0182395Y0298045D01*
X0182395Y0298082D02*
X0178500Y0298082D01*
X0178508Y0298120D02*
X0182386Y0298120D01*
X0182377Y0298158D02*
X0178516Y0298158D01*
X0178524Y0298196D02*
X0182369Y0298196D01*
X0182360Y0298234D02*
X0178532Y0298234D01*
X0178540Y0298272D02*
X0182351Y0298272D01*
X0182342Y0298310D02*
X0178551Y0298310D01*
X0178568Y0298348D02*
X0182334Y0298348D01*
X0182325Y0298385D02*
X0178586Y0298385D01*
X0178603Y0298423D02*
X0182316Y0298423D01*
X0182305Y0298461D02*
X0178621Y0298461D01*
X0178638Y0298499D02*
X0182287Y0298499D01*
X0182268Y0298537D02*
X0178656Y0298537D01*
X0178673Y0298575D02*
X0182250Y0298575D01*
X0182231Y0298613D02*
X0178690Y0298613D01*
X0178708Y0298651D02*
X0182213Y0298651D01*
X0182195Y0298689D02*
X0178728Y0298689D01*
X0178758Y0298726D02*
X0182176Y0298726D01*
X0182158Y0298764D02*
X0178787Y0298764D01*
X0178816Y0298802D02*
X0182137Y0298802D01*
X0182107Y0298840D02*
X0178845Y0298840D01*
X0178874Y0298878D02*
X0182077Y0298878D01*
X0182046Y0298916D02*
X0178903Y0298916D01*
X0178932Y0298954D02*
X0182016Y0298954D01*
X0181985Y0298992D02*
X0178961Y0298992D01*
X0178998Y0299029D02*
X0181955Y0299029D01*
X0181924Y0299067D02*
X0179044Y0299067D01*
X0179090Y0299105D02*
X0181889Y0299105D01*
X0181841Y0299143D02*
X0179136Y0299143D01*
X0179182Y0299181D02*
X0181793Y0299181D01*
X0181745Y0299219D02*
X0179228Y0299219D01*
X0179273Y0299257D02*
X0181697Y0299257D01*
X0181649Y0299295D02*
X0179331Y0299295D01*
X0179406Y0299333D02*
X0181600Y0299333D01*
X0181521Y0299370D02*
X0179481Y0299370D01*
X0179556Y0299408D02*
X0181441Y0299408D01*
X0181362Y0299446D02*
X0179632Y0299446D01*
X0179738Y0299484D02*
X0181282Y0299484D01*
X0181139Y0299522D02*
X0179892Y0299522D01*
X0180045Y0299560D02*
X0180971Y0299560D01*
X0180506Y0308829D02*
X0180058Y0308871D01*
X0179631Y0309011D01*
X0179245Y0309243D01*
X0178921Y0309554D01*
X0178674Y0309930D01*
X0178517Y0310352D01*
X0178458Y0310798D01*
X0178458Y0313160D01*
X0178493Y0313586D01*
X0178622Y0313994D01*
X0178838Y0314363D01*
X0179131Y0314675D01*
X0179486Y0314914D01*
X0179885Y0315067D01*
X0180309Y0315128D01*
X0180742Y0315115D01*
X0181161Y0315006D01*
X0181546Y0314806D01*
X0181876Y0314525D01*
X0182136Y0314178D01*
X0182312Y0313782D01*
X0182395Y0313357D01*
X0182395Y0310994D01*
X0182375Y0310540D01*
X0182254Y0310101D01*
X0182039Y0309700D01*
X0181740Y0309357D01*
X0181372Y0309090D01*
X0180953Y0308911D01*
X0180506Y0308829D01*
X0180569Y0308841D02*
X0180380Y0308841D01*
X0180034Y0308879D02*
X0180778Y0308879D01*
X0180967Y0308917D02*
X0179918Y0308917D01*
X0179803Y0308954D02*
X0181056Y0308954D01*
X0181144Y0308992D02*
X0179687Y0308992D01*
X0179598Y0309030D02*
X0181233Y0309030D01*
X0181321Y0309068D02*
X0179535Y0309068D01*
X0179472Y0309106D02*
X0181394Y0309106D01*
X0181446Y0309144D02*
X0179409Y0309144D01*
X0179346Y0309182D02*
X0181498Y0309182D01*
X0181550Y0309220D02*
X0179284Y0309220D01*
X0179230Y0309257D02*
X0181602Y0309257D01*
X0181654Y0309295D02*
X0179190Y0309295D01*
X0179151Y0309333D02*
X0181706Y0309333D01*
X0181752Y0309371D02*
X0179112Y0309371D01*
X0179072Y0309409D02*
X0181785Y0309409D01*
X0181818Y0309447D02*
X0179033Y0309447D01*
X0178993Y0309485D02*
X0181851Y0309485D01*
X0181884Y0309523D02*
X0178954Y0309523D01*
X0178917Y0309561D02*
X0181917Y0309561D01*
X0181950Y0309598D02*
X0178892Y0309598D01*
X0178867Y0309636D02*
X0181983Y0309636D01*
X0182016Y0309674D02*
X0178842Y0309674D01*
X0178818Y0309712D02*
X0182045Y0309712D01*
X0182066Y0309750D02*
X0178793Y0309750D01*
X0178768Y0309788D02*
X0182086Y0309788D01*
X0182106Y0309826D02*
X0178743Y0309826D01*
X0178718Y0309864D02*
X0182127Y0309864D01*
X0182147Y0309901D02*
X0178693Y0309901D01*
X0178671Y0309939D02*
X0182167Y0309939D01*
X0182188Y0309977D02*
X0178657Y0309977D01*
X0178643Y0310015D02*
X0182208Y0310015D01*
X0182228Y0310053D02*
X0178629Y0310053D01*
X0178615Y0310091D02*
X0182249Y0310091D01*
X0182262Y0310129D02*
X0178600Y0310129D01*
X0178586Y0310167D02*
X0182272Y0310167D01*
X0182283Y0310204D02*
X0178572Y0310204D01*
X0178558Y0310242D02*
X0182293Y0310242D01*
X0182304Y0310280D02*
X0178544Y0310280D01*
X0178530Y0310318D02*
X0182314Y0310318D01*
X0182325Y0310356D02*
X0178517Y0310356D01*
X0178512Y0310394D02*
X0182335Y0310394D01*
X0182345Y0310432D02*
X0178507Y0310432D01*
X0178502Y0310470D02*
X0182356Y0310470D01*
X0182366Y0310508D02*
X0178497Y0310508D01*
X0178492Y0310545D02*
X0182375Y0310545D01*
X0182377Y0310583D02*
X0178487Y0310583D01*
X0178482Y0310621D02*
X0182379Y0310621D01*
X0182380Y0310659D02*
X0178477Y0310659D01*
X0178472Y0310697D02*
X0182382Y0310697D01*
X0182384Y0310735D02*
X0178467Y0310735D01*
X0178462Y0310773D02*
X0182386Y0310773D01*
X0182387Y0310811D02*
X0178458Y0310811D01*
X0178458Y0310848D02*
X0182389Y0310848D01*
X0182391Y0310886D02*
X0178458Y0310886D01*
X0178458Y0310924D02*
X0182392Y0310924D01*
X0182394Y0310962D02*
X0178458Y0310962D01*
X0178458Y0311000D02*
X0182395Y0311000D01*
X0182395Y0311038D02*
X0178458Y0311038D01*
X0178458Y0311076D02*
X0182395Y0311076D01*
X0182395Y0311114D02*
X0178458Y0311114D01*
X0178458Y0311152D02*
X0182395Y0311152D01*
X0182395Y0311189D02*
X0178458Y0311189D01*
X0178458Y0311227D02*
X0182395Y0311227D01*
X0182395Y0311265D02*
X0178458Y0311265D01*
X0178458Y0311303D02*
X0182395Y0311303D01*
X0182395Y0311341D02*
X0178458Y0311341D01*
X0178458Y0311379D02*
X0182395Y0311379D01*
X0182395Y0311417D02*
X0178458Y0311417D01*
X0178458Y0311455D02*
X0182395Y0311455D01*
X0182395Y0311492D02*
X0178458Y0311492D01*
X0178458Y0311530D02*
X0182395Y0311530D01*
X0182395Y0311568D02*
X0178458Y0311568D01*
X0178458Y0311606D02*
X0182395Y0311606D01*
X0182395Y0311644D02*
X0178458Y0311644D01*
X0178458Y0311682D02*
X0182395Y0311682D01*
X0182395Y0311720D02*
X0178458Y0311720D01*
X0178458Y0311758D02*
X0182395Y0311758D01*
X0182395Y0311796D02*
X0178458Y0311796D01*
X0178458Y0311833D02*
X0182395Y0311833D01*
X0182395Y0311871D02*
X0178458Y0311871D01*
X0178458Y0311909D02*
X0182395Y0311909D01*
X0182395Y0311947D02*
X0178458Y0311947D01*
X0178458Y0311985D02*
X0182395Y0311985D01*
X0182395Y0312023D02*
X0178458Y0312023D01*
X0178458Y0312061D02*
X0182395Y0312061D01*
X0182395Y0312099D02*
X0178458Y0312099D01*
X0178458Y0312136D02*
X0182395Y0312136D01*
X0182395Y0312174D02*
X0178458Y0312174D01*
X0178458Y0312212D02*
X0182395Y0312212D01*
X0182395Y0312250D02*
X0178458Y0312250D01*
X0178458Y0312288D02*
X0182395Y0312288D01*
X0182395Y0312326D02*
X0178458Y0312326D01*
X0178458Y0312364D02*
X0182395Y0312364D01*
X0182395Y0312402D02*
X0178458Y0312402D01*
X0178458Y0312439D02*
X0182395Y0312439D01*
X0182395Y0312477D02*
X0178458Y0312477D01*
X0178458Y0312515D02*
X0182395Y0312515D01*
X0182395Y0312553D02*
X0178458Y0312553D01*
X0178458Y0312591D02*
X0182395Y0312591D01*
X0182395Y0312629D02*
X0178458Y0312629D01*
X0178458Y0312667D02*
X0182395Y0312667D01*
X0182395Y0312705D02*
X0178458Y0312705D01*
X0178458Y0312743D02*
X0182395Y0312743D01*
X0182395Y0312780D02*
X0178458Y0312780D01*
X0178458Y0312818D02*
X0182395Y0312818D01*
X0182395Y0312856D02*
X0178458Y0312856D01*
X0178458Y0312894D02*
X0182395Y0312894D01*
X0182395Y0312932D02*
X0178458Y0312932D01*
X0178458Y0312970D02*
X0182395Y0312970D01*
X0182395Y0313008D02*
X0178458Y0313008D01*
X0178458Y0313046D02*
X0182395Y0313046D01*
X0182395Y0313083D02*
X0178458Y0313083D01*
X0178458Y0313121D02*
X0182395Y0313121D01*
X0182395Y0313159D02*
X0178458Y0313159D01*
X0178461Y0313197D02*
X0182395Y0313197D01*
X0182395Y0313235D02*
X0178464Y0313235D01*
X0178468Y0313273D02*
X0182395Y0313273D01*
X0182395Y0313311D02*
X0178471Y0313311D01*
X0178474Y0313349D02*
X0182395Y0313349D01*
X0182390Y0313387D02*
X0178477Y0313387D01*
X0178480Y0313424D02*
X0182382Y0313424D01*
X0182375Y0313462D02*
X0178483Y0313462D01*
X0178486Y0313500D02*
X0182367Y0313500D01*
X0182360Y0313538D02*
X0178489Y0313538D01*
X0178492Y0313576D02*
X0182352Y0313576D01*
X0182345Y0313614D02*
X0178502Y0313614D01*
X0178514Y0313652D02*
X0182338Y0313652D01*
X0182330Y0313690D02*
X0178526Y0313690D01*
X0178538Y0313727D02*
X0182323Y0313727D01*
X0182315Y0313765D02*
X0178550Y0313765D01*
X0178562Y0313803D02*
X0182303Y0313803D01*
X0182286Y0313841D02*
X0178574Y0313841D01*
X0178585Y0313879D02*
X0182269Y0313879D01*
X0182252Y0313917D02*
X0178597Y0313917D01*
X0178609Y0313955D02*
X0182235Y0313955D01*
X0182218Y0313993D02*
X0178621Y0313993D01*
X0178643Y0314031D02*
X0182202Y0314031D01*
X0182185Y0314068D02*
X0178665Y0314068D01*
X0178688Y0314106D02*
X0182168Y0314106D01*
X0182151Y0314144D02*
X0178710Y0314144D01*
X0178732Y0314182D02*
X0182133Y0314182D01*
X0182105Y0314220D02*
X0178754Y0314220D01*
X0178776Y0314258D02*
X0182076Y0314258D01*
X0182048Y0314296D02*
X0178799Y0314296D01*
X0178821Y0314334D02*
X0182020Y0314334D01*
X0181991Y0314371D02*
X0178846Y0314371D01*
X0178881Y0314409D02*
X0181963Y0314409D01*
X0181935Y0314447D02*
X0178917Y0314447D01*
X0178953Y0314485D02*
X0181906Y0314485D01*
X0181878Y0314523D02*
X0178988Y0314523D01*
X0179024Y0314561D02*
X0181834Y0314561D01*
X0181790Y0314599D02*
X0179059Y0314599D01*
X0179095Y0314637D02*
X0181745Y0314637D01*
X0181700Y0314674D02*
X0179131Y0314674D01*
X0179187Y0314712D02*
X0181656Y0314712D01*
X0181611Y0314750D02*
X0179243Y0314750D01*
X0179299Y0314788D02*
X0181567Y0314788D01*
X0181507Y0314826D02*
X0179356Y0314826D01*
X0179412Y0314864D02*
X0181434Y0314864D01*
X0181361Y0314902D02*
X0179469Y0314902D01*
X0179554Y0314940D02*
X0181288Y0314940D01*
X0181215Y0314978D02*
X0179652Y0314978D01*
X0179751Y0315015D02*
X0181124Y0315015D01*
X0180979Y0315053D02*
X0179849Y0315053D01*
X0180051Y0315091D02*
X0180833Y0315091D01*
X0212474Y0313160D02*
X0212474Y0310798D01*
X0212514Y0310367D01*
X0212648Y0309957D01*
X0212870Y0309586D01*
X0213170Y0309275D01*
X0213531Y0309037D01*
X0213936Y0308886D01*
X0214364Y0308829D01*
X0214812Y0308871D01*
X0215239Y0309011D01*
X0215624Y0309243D01*
X0215949Y0309554D01*
X0216195Y0309930D01*
X0216352Y0310352D01*
X0216411Y0310798D01*
X0216411Y0313160D01*
X0216352Y0313606D01*
X0216195Y0314027D01*
X0215949Y0314403D01*
X0215624Y0314715D01*
X0215239Y0314947D01*
X0214812Y0315087D01*
X0214364Y0315128D01*
X0213936Y0315071D01*
X0213531Y0314920D01*
X0213170Y0314683D01*
X0212870Y0314371D01*
X0212648Y0314001D01*
X0212514Y0313590D01*
X0212474Y0313160D01*
X0212474Y0313159D02*
X0216411Y0313159D01*
X0216411Y0313121D02*
X0212474Y0313121D01*
X0212474Y0313083D02*
X0216411Y0313083D01*
X0216411Y0313046D02*
X0212474Y0313046D01*
X0212474Y0313008D02*
X0216411Y0313008D01*
X0216411Y0312970D02*
X0212474Y0312970D01*
X0212474Y0312932D02*
X0216411Y0312932D01*
X0216411Y0312894D02*
X0212474Y0312894D01*
X0212474Y0312856D02*
X0216411Y0312856D01*
X0216411Y0312818D02*
X0212474Y0312818D01*
X0212474Y0312780D02*
X0216411Y0312780D01*
X0216411Y0312743D02*
X0212474Y0312743D01*
X0212474Y0312705D02*
X0216411Y0312705D01*
X0216411Y0312667D02*
X0212474Y0312667D01*
X0212474Y0312629D02*
X0216411Y0312629D01*
X0216411Y0312591D02*
X0212474Y0312591D01*
X0212474Y0312553D02*
X0216411Y0312553D01*
X0216411Y0312515D02*
X0212474Y0312515D01*
X0212474Y0312477D02*
X0216411Y0312477D01*
X0216411Y0312439D02*
X0212474Y0312439D01*
X0212474Y0312402D02*
X0216411Y0312402D01*
X0216411Y0312364D02*
X0212474Y0312364D01*
X0212474Y0312326D02*
X0216411Y0312326D01*
X0216411Y0312288D02*
X0212474Y0312288D01*
X0212474Y0312250D02*
X0216411Y0312250D01*
X0216411Y0312212D02*
X0212474Y0312212D01*
X0212474Y0312174D02*
X0216411Y0312174D01*
X0216411Y0312136D02*
X0212474Y0312136D01*
X0212474Y0312099D02*
X0216411Y0312099D01*
X0216411Y0312061D02*
X0212474Y0312061D01*
X0212474Y0312023D02*
X0216411Y0312023D01*
X0216411Y0311985D02*
X0212474Y0311985D01*
X0212474Y0311947D02*
X0216411Y0311947D01*
X0216411Y0311909D02*
X0212474Y0311909D01*
X0212474Y0311871D02*
X0216411Y0311871D01*
X0216411Y0311833D02*
X0212474Y0311833D01*
X0212474Y0311796D02*
X0216411Y0311796D01*
X0216411Y0311758D02*
X0212474Y0311758D01*
X0212474Y0311720D02*
X0216411Y0311720D01*
X0216411Y0311682D02*
X0212474Y0311682D01*
X0212474Y0311644D02*
X0216411Y0311644D01*
X0216411Y0311606D02*
X0212474Y0311606D01*
X0212474Y0311568D02*
X0216411Y0311568D01*
X0216411Y0311530D02*
X0212474Y0311530D01*
X0212474Y0311492D02*
X0216411Y0311492D01*
X0216411Y0311455D02*
X0212474Y0311455D01*
X0212474Y0311417D02*
X0216411Y0311417D01*
X0216411Y0311379D02*
X0212474Y0311379D01*
X0212474Y0311341D02*
X0216411Y0311341D01*
X0216411Y0311303D02*
X0212474Y0311303D01*
X0212474Y0311265D02*
X0216411Y0311265D01*
X0216411Y0311227D02*
X0212474Y0311227D01*
X0212474Y0311189D02*
X0216411Y0311189D01*
X0216411Y0311152D02*
X0212474Y0311152D01*
X0212474Y0311114D02*
X0216411Y0311114D01*
X0216411Y0311076D02*
X0212474Y0311076D01*
X0212474Y0311038D02*
X0216411Y0311038D01*
X0216411Y0311000D02*
X0212474Y0311000D01*
X0212474Y0310962D02*
X0216411Y0310962D01*
X0216411Y0310924D02*
X0212474Y0310924D01*
X0212474Y0310886D02*
X0216411Y0310886D01*
X0216411Y0310848D02*
X0212474Y0310848D01*
X0212474Y0310811D02*
X0216411Y0310811D01*
X0216408Y0310773D02*
X0212476Y0310773D01*
X0212480Y0310735D02*
X0216403Y0310735D01*
X0216398Y0310697D02*
X0212483Y0310697D01*
X0212487Y0310659D02*
X0216393Y0310659D01*
X0216388Y0310621D02*
X0212490Y0310621D01*
X0212494Y0310583D02*
X0216383Y0310583D01*
X0216378Y0310545D02*
X0212497Y0310545D01*
X0212501Y0310508D02*
X0216373Y0310508D01*
X0216368Y0310470D02*
X0212504Y0310470D01*
X0212508Y0310432D02*
X0216363Y0310432D01*
X0216358Y0310394D02*
X0212511Y0310394D01*
X0212517Y0310356D02*
X0216353Y0310356D01*
X0216339Y0310318D02*
X0212530Y0310318D01*
X0212542Y0310280D02*
X0216325Y0310280D01*
X0216311Y0310242D02*
X0212555Y0310242D01*
X0212567Y0310204D02*
X0216297Y0310204D01*
X0216283Y0310167D02*
X0212579Y0310167D01*
X0212592Y0310129D02*
X0216269Y0310129D01*
X0216255Y0310091D02*
X0212604Y0310091D01*
X0212617Y0310053D02*
X0216241Y0310053D01*
X0216227Y0310015D02*
X0212629Y0310015D01*
X0212641Y0309977D02*
X0216213Y0309977D01*
X0216199Y0309939D02*
X0212659Y0309939D01*
X0212681Y0309901D02*
X0216176Y0309901D01*
X0216151Y0309864D02*
X0212704Y0309864D01*
X0212727Y0309826D02*
X0216127Y0309826D01*
X0216102Y0309788D02*
X0212749Y0309788D01*
X0212772Y0309750D02*
X0216077Y0309750D01*
X0216052Y0309712D02*
X0212795Y0309712D01*
X0212818Y0309674D02*
X0216027Y0309674D01*
X0216002Y0309636D02*
X0212840Y0309636D01*
X0212863Y0309598D02*
X0215977Y0309598D01*
X0215953Y0309561D02*
X0212895Y0309561D01*
X0212932Y0309523D02*
X0215916Y0309523D01*
X0215876Y0309485D02*
X0212968Y0309485D01*
X0213004Y0309447D02*
X0215837Y0309447D01*
X0215797Y0309409D02*
X0213041Y0309409D01*
X0213077Y0309371D02*
X0215758Y0309371D01*
X0215719Y0309333D02*
X0213113Y0309333D01*
X0213150Y0309295D02*
X0215679Y0309295D01*
X0215640Y0309257D02*
X0213196Y0309257D01*
X0213253Y0309220D02*
X0215586Y0309220D01*
X0215523Y0309182D02*
X0213311Y0309182D01*
X0213369Y0309144D02*
X0215460Y0309144D01*
X0215397Y0309106D02*
X0213426Y0309106D01*
X0213484Y0309068D02*
X0215334Y0309068D01*
X0215271Y0309030D02*
X0213550Y0309030D01*
X0213651Y0308992D02*
X0215182Y0308992D01*
X0215067Y0308954D02*
X0213753Y0308954D01*
X0213854Y0308917D02*
X0214951Y0308917D01*
X0214836Y0308879D02*
X0213993Y0308879D01*
X0214277Y0308841D02*
X0214489Y0308841D01*
X0216406Y0313197D02*
X0212478Y0313197D01*
X0212481Y0313235D02*
X0216401Y0313235D01*
X0216396Y0313273D02*
X0212485Y0313273D01*
X0212488Y0313311D02*
X0216391Y0313311D01*
X0216386Y0313349D02*
X0212491Y0313349D01*
X0212495Y0313387D02*
X0216381Y0313387D01*
X0216376Y0313424D02*
X0212498Y0313424D01*
X0212502Y0313462D02*
X0216371Y0313462D01*
X0216366Y0313500D02*
X0212505Y0313500D01*
X0212509Y0313538D02*
X0216361Y0313538D01*
X0216356Y0313576D02*
X0212512Y0313576D01*
X0212521Y0313614D02*
X0216349Y0313614D01*
X0216335Y0313652D02*
X0212534Y0313652D01*
X0212546Y0313690D02*
X0216321Y0313690D01*
X0216307Y0313727D02*
X0212559Y0313727D01*
X0212571Y0313765D02*
X0216293Y0313765D01*
X0216279Y0313803D02*
X0212583Y0313803D01*
X0212596Y0313841D02*
X0216264Y0313841D01*
X0216250Y0313879D02*
X0212608Y0313879D01*
X0212621Y0313917D02*
X0216236Y0313917D01*
X0216222Y0313955D02*
X0212633Y0313955D01*
X0212645Y0313993D02*
X0216208Y0313993D01*
X0216193Y0314031D02*
X0212666Y0314031D01*
X0212689Y0314068D02*
X0216168Y0314068D01*
X0216143Y0314106D02*
X0212711Y0314106D01*
X0212734Y0314144D02*
X0216118Y0314144D01*
X0216094Y0314182D02*
X0212757Y0314182D01*
X0212780Y0314220D02*
X0216069Y0314220D01*
X0216044Y0314258D02*
X0212802Y0314258D01*
X0212825Y0314296D02*
X0216019Y0314296D01*
X0215994Y0314334D02*
X0212848Y0314334D01*
X0212871Y0314371D02*
X0215969Y0314371D01*
X0215942Y0314409D02*
X0212907Y0314409D01*
X0212943Y0314447D02*
X0215903Y0314447D01*
X0215863Y0314485D02*
X0212980Y0314485D01*
X0213016Y0314523D02*
X0215824Y0314523D01*
X0215784Y0314561D02*
X0213052Y0314561D01*
X0213089Y0314599D02*
X0215745Y0314599D01*
X0215706Y0314637D02*
X0213125Y0314637D01*
X0213162Y0314674D02*
X0215666Y0314674D01*
X0215627Y0314712D02*
X0213214Y0314712D01*
X0213272Y0314750D02*
X0215565Y0314750D01*
X0215502Y0314788D02*
X0213330Y0314788D01*
X0213387Y0314826D02*
X0215439Y0314826D01*
X0215376Y0314864D02*
X0213445Y0314864D01*
X0213503Y0314902D02*
X0215313Y0314902D01*
X0215250Y0314940D02*
X0213583Y0314940D01*
X0213684Y0314978D02*
X0215145Y0314978D01*
X0215029Y0315015D02*
X0213786Y0315015D01*
X0213888Y0315053D02*
X0214914Y0315053D01*
X0214764Y0315091D02*
X0214085Y0315091D01*
X0214135Y0299574D02*
X0213721Y0299475D01*
X0213340Y0299288D01*
X0213009Y0299020D01*
X0212747Y0298685D01*
X0212565Y0298300D01*
X0212474Y0297884D01*
X0212474Y0293160D01*
X0212550Y0292725D01*
X0212720Y0292317D01*
X0212977Y0291958D01*
X0213308Y0291665D01*
X0213695Y0291453D01*
X0214120Y0291333D01*
X0214561Y0291309D01*
X0214972Y0291356D01*
X0215364Y0291493D01*
X0215714Y0291713D01*
X0216007Y0292006D01*
X0216228Y0292357D01*
X0216365Y0292748D01*
X0216411Y0293160D01*
X0216411Y0297884D01*
X0216349Y0298277D01*
X0216202Y0298645D01*
X0215976Y0298972D01*
X0215683Y0299240D01*
X0215337Y0299436D01*
X0214957Y0299550D01*
X0214561Y0299577D01*
X0214135Y0299574D01*
X0214077Y0299560D02*
X0214816Y0299560D01*
X0215051Y0299522D02*
X0213917Y0299522D01*
X0213758Y0299484D02*
X0215177Y0299484D01*
X0215303Y0299446D02*
X0213662Y0299446D01*
X0213585Y0299408D02*
X0215386Y0299408D01*
X0215452Y0299370D02*
X0213508Y0299370D01*
X0213431Y0299333D02*
X0215519Y0299333D01*
X0215586Y0299295D02*
X0213354Y0299295D01*
X0213302Y0299257D02*
X0215653Y0299257D01*
X0215705Y0299219D02*
X0213255Y0299219D01*
X0213208Y0299181D02*
X0215747Y0299181D01*
X0215788Y0299143D02*
X0213161Y0299143D01*
X0213115Y0299105D02*
X0215830Y0299105D01*
X0215871Y0299067D02*
X0213068Y0299067D01*
X0213021Y0299029D02*
X0215912Y0299029D01*
X0215954Y0298992D02*
X0212987Y0298992D01*
X0212958Y0298954D02*
X0215988Y0298954D01*
X0216014Y0298916D02*
X0212928Y0298916D01*
X0212898Y0298878D02*
X0216040Y0298878D01*
X0216067Y0298840D02*
X0212868Y0298840D01*
X0212839Y0298802D02*
X0216093Y0298802D01*
X0216119Y0298764D02*
X0212809Y0298764D01*
X0212779Y0298726D02*
X0216145Y0298726D01*
X0216171Y0298689D02*
X0212750Y0298689D01*
X0212731Y0298651D02*
X0216198Y0298651D01*
X0216214Y0298613D02*
X0212713Y0298613D01*
X0212695Y0298575D02*
X0216230Y0298575D01*
X0216245Y0298537D02*
X0212677Y0298537D01*
X0212659Y0298499D02*
X0216260Y0298499D01*
X0216275Y0298461D02*
X0212641Y0298461D01*
X0212624Y0298423D02*
X0216290Y0298423D01*
X0216306Y0298385D02*
X0212606Y0298385D01*
X0212588Y0298348D02*
X0216321Y0298348D01*
X0216336Y0298310D02*
X0212570Y0298310D01*
X0212559Y0298272D02*
X0216350Y0298272D01*
X0216356Y0298234D02*
X0212551Y0298234D01*
X0212543Y0298196D02*
X0216362Y0298196D01*
X0216368Y0298158D02*
X0212534Y0298158D01*
X0212526Y0298120D02*
X0216374Y0298120D01*
X0216380Y0298082D02*
X0212518Y0298082D01*
X0212509Y0298045D02*
X0216386Y0298045D01*
X0216392Y0298007D02*
X0212501Y0298007D01*
X0212493Y0297969D02*
X0216398Y0297969D01*
X0216404Y0297931D02*
X0212484Y0297931D01*
X0212476Y0297893D02*
X0216410Y0297893D01*
X0216411Y0297855D02*
X0212474Y0297855D01*
X0212474Y0297817D02*
X0216411Y0297817D01*
X0216411Y0297779D02*
X0212474Y0297779D01*
X0212474Y0297742D02*
X0216411Y0297742D01*
X0216411Y0297704D02*
X0212474Y0297704D01*
X0212474Y0297666D02*
X0216411Y0297666D01*
X0216411Y0297628D02*
X0212474Y0297628D01*
X0212474Y0297590D02*
X0216411Y0297590D01*
X0216411Y0297552D02*
X0212474Y0297552D01*
X0212474Y0297514D02*
X0216411Y0297514D01*
X0216411Y0297476D02*
X0212474Y0297476D01*
X0212474Y0297438D02*
X0216411Y0297438D01*
X0216411Y0297401D02*
X0212474Y0297401D01*
X0212474Y0297363D02*
X0216411Y0297363D01*
X0216411Y0297325D02*
X0212474Y0297325D01*
X0212474Y0297287D02*
X0216411Y0297287D01*
X0216411Y0297249D02*
X0212474Y0297249D01*
X0212474Y0297211D02*
X0216411Y0297211D01*
X0216411Y0297173D02*
X0212474Y0297173D01*
X0212474Y0297135D02*
X0216411Y0297135D01*
X0216411Y0297098D02*
X0212474Y0297098D01*
X0212474Y0297060D02*
X0216411Y0297060D01*
X0216411Y0297022D02*
X0212474Y0297022D01*
X0212474Y0296984D02*
X0216411Y0296984D01*
X0216411Y0296946D02*
X0212474Y0296946D01*
X0212474Y0296908D02*
X0216411Y0296908D01*
X0216411Y0296870D02*
X0212474Y0296870D01*
X0212474Y0296832D02*
X0216411Y0296832D01*
X0216411Y0296794D02*
X0212474Y0296794D01*
X0212474Y0296757D02*
X0216411Y0296757D01*
X0216411Y0296719D02*
X0212474Y0296719D01*
X0212474Y0296681D02*
X0216411Y0296681D01*
X0216411Y0296643D02*
X0212474Y0296643D01*
X0212474Y0296605D02*
X0216411Y0296605D01*
X0216411Y0296567D02*
X0212474Y0296567D01*
X0212474Y0296529D02*
X0216411Y0296529D01*
X0216411Y0296491D02*
X0212474Y0296491D01*
X0212474Y0296454D02*
X0216411Y0296454D01*
X0216411Y0296416D02*
X0212474Y0296416D01*
X0212474Y0296378D02*
X0216411Y0296378D01*
X0216411Y0296340D02*
X0212474Y0296340D01*
X0212474Y0296302D02*
X0216411Y0296302D01*
X0216411Y0296264D02*
X0212474Y0296264D01*
X0212474Y0296226D02*
X0216411Y0296226D01*
X0216411Y0296188D02*
X0212474Y0296188D01*
X0212474Y0296150D02*
X0216411Y0296150D01*
X0216411Y0296113D02*
X0212474Y0296113D01*
X0212474Y0296075D02*
X0216411Y0296075D01*
X0216411Y0296037D02*
X0212474Y0296037D01*
X0212474Y0295999D02*
X0216411Y0295999D01*
X0216411Y0295961D02*
X0212474Y0295961D01*
X0212474Y0295923D02*
X0216411Y0295923D01*
X0216411Y0295885D02*
X0212474Y0295885D01*
X0212474Y0295847D02*
X0216411Y0295847D01*
X0216411Y0295810D02*
X0212474Y0295810D01*
X0212474Y0295772D02*
X0216411Y0295772D01*
X0216411Y0295734D02*
X0212474Y0295734D01*
X0212474Y0295696D02*
X0216411Y0295696D01*
X0216411Y0295658D02*
X0212474Y0295658D01*
X0212474Y0295620D02*
X0216411Y0295620D01*
X0216411Y0295582D02*
X0212474Y0295582D01*
X0212474Y0295544D02*
X0216411Y0295544D01*
X0216411Y0295507D02*
X0212474Y0295507D01*
X0212474Y0295469D02*
X0216411Y0295469D01*
X0216411Y0295431D02*
X0212474Y0295431D01*
X0212474Y0295393D02*
X0216411Y0295393D01*
X0216411Y0295355D02*
X0212474Y0295355D01*
X0212474Y0295317D02*
X0216411Y0295317D01*
X0216411Y0295279D02*
X0212474Y0295279D01*
X0212474Y0295241D02*
X0216411Y0295241D01*
X0216411Y0295203D02*
X0212474Y0295203D01*
X0212474Y0295166D02*
X0216411Y0295166D01*
X0216411Y0295128D02*
X0212474Y0295128D01*
X0212474Y0295090D02*
X0216411Y0295090D01*
X0216411Y0295052D02*
X0212474Y0295052D01*
X0212474Y0295014D02*
X0216411Y0295014D01*
X0216411Y0294976D02*
X0212474Y0294976D01*
X0212474Y0294938D02*
X0216411Y0294938D01*
X0216411Y0294900D02*
X0212474Y0294900D01*
X0212474Y0294863D02*
X0216411Y0294863D01*
X0216411Y0294825D02*
X0212474Y0294825D01*
X0212474Y0294787D02*
X0216411Y0294787D01*
X0216411Y0294749D02*
X0212474Y0294749D01*
X0212474Y0294711D02*
X0216411Y0294711D01*
X0216411Y0294673D02*
X0212474Y0294673D01*
X0212474Y0294635D02*
X0216411Y0294635D01*
X0216411Y0294597D02*
X0212474Y0294597D01*
X0212474Y0294559D02*
X0216411Y0294559D01*
X0216411Y0294522D02*
X0212474Y0294522D01*
X0212474Y0294484D02*
X0216411Y0294484D01*
X0216411Y0294446D02*
X0212474Y0294446D01*
X0212474Y0294408D02*
X0216411Y0294408D01*
X0216411Y0294370D02*
X0212474Y0294370D01*
X0212474Y0294332D02*
X0216411Y0294332D01*
X0216411Y0294294D02*
X0212474Y0294294D01*
X0212474Y0294256D02*
X0216411Y0294256D01*
X0216411Y0294219D02*
X0212474Y0294219D01*
X0212474Y0294181D02*
X0216411Y0294181D01*
X0216411Y0294143D02*
X0212474Y0294143D01*
X0212474Y0294105D02*
X0216411Y0294105D01*
X0216411Y0294067D02*
X0212474Y0294067D01*
X0212474Y0294029D02*
X0216411Y0294029D01*
X0216411Y0293991D02*
X0212474Y0293991D01*
X0212474Y0293953D02*
X0216411Y0293953D01*
X0216411Y0293915D02*
X0212474Y0293915D01*
X0212474Y0293878D02*
X0216411Y0293878D01*
X0216411Y0293840D02*
X0212474Y0293840D01*
X0212474Y0293802D02*
X0216411Y0293802D01*
X0216411Y0293764D02*
X0212474Y0293764D01*
X0212474Y0293726D02*
X0216411Y0293726D01*
X0216411Y0293688D02*
X0212474Y0293688D01*
X0212474Y0293650D02*
X0216411Y0293650D01*
X0216411Y0293612D02*
X0212474Y0293612D01*
X0212474Y0293575D02*
X0216411Y0293575D01*
X0216411Y0293537D02*
X0212474Y0293537D01*
X0212474Y0293499D02*
X0216411Y0293499D01*
X0216411Y0293461D02*
X0212474Y0293461D01*
X0212474Y0293423D02*
X0216411Y0293423D01*
X0216411Y0293385D02*
X0212474Y0293385D01*
X0212474Y0293347D02*
X0216411Y0293347D01*
X0216411Y0293309D02*
X0212474Y0293309D01*
X0212474Y0293272D02*
X0216411Y0293272D01*
X0216411Y0293234D02*
X0212474Y0293234D01*
X0212474Y0293196D02*
X0216411Y0293196D01*
X0216411Y0293158D02*
X0212474Y0293158D01*
X0212481Y0293120D02*
X0216407Y0293120D01*
X0216402Y0293082D02*
X0212488Y0293082D01*
X0212494Y0293044D02*
X0216398Y0293044D01*
X0216394Y0293006D02*
X0212501Y0293006D01*
X0212507Y0292968D02*
X0216390Y0292968D01*
X0216385Y0292931D02*
X0212514Y0292931D01*
X0212521Y0292893D02*
X0216381Y0292893D01*
X0216377Y0292855D02*
X0212527Y0292855D01*
X0212534Y0292817D02*
X0216372Y0292817D01*
X0216368Y0292779D02*
X0212540Y0292779D01*
X0212547Y0292741D02*
X0216362Y0292741D01*
X0216349Y0292703D02*
X0212559Y0292703D01*
X0212575Y0292665D02*
X0216336Y0292665D01*
X0216323Y0292628D02*
X0212590Y0292628D01*
X0212606Y0292590D02*
X0216309Y0292590D01*
X0216296Y0292552D02*
X0212622Y0292552D01*
X0212638Y0292514D02*
X0216283Y0292514D01*
X0216270Y0292476D02*
X0212654Y0292476D01*
X0212670Y0292438D02*
X0216256Y0292438D01*
X0216243Y0292400D02*
X0212686Y0292400D01*
X0212702Y0292362D02*
X0216230Y0292362D01*
X0216207Y0292324D02*
X0212717Y0292324D01*
X0212742Y0292287D02*
X0216184Y0292287D01*
X0216160Y0292249D02*
X0212769Y0292249D01*
X0212797Y0292211D02*
X0216136Y0292211D01*
X0216112Y0292173D02*
X0212824Y0292173D01*
X0212851Y0292135D02*
X0216088Y0292135D01*
X0216065Y0292097D02*
X0212878Y0292097D01*
X0212905Y0292059D02*
X0216041Y0292059D01*
X0216017Y0292021D02*
X0212932Y0292021D01*
X0212959Y0291984D02*
X0215985Y0291984D01*
X0215947Y0291946D02*
X0212991Y0291946D01*
X0213034Y0291908D02*
X0215909Y0291908D01*
X0215871Y0291870D02*
X0213077Y0291870D01*
X0213120Y0291832D02*
X0215833Y0291832D01*
X0215795Y0291794D02*
X0213162Y0291794D01*
X0213205Y0291756D02*
X0215758Y0291756D01*
X0215720Y0291718D02*
X0213248Y0291718D01*
X0213290Y0291680D02*
X0215662Y0291680D01*
X0215602Y0291643D02*
X0213349Y0291643D01*
X0213418Y0291605D02*
X0215542Y0291605D01*
X0215482Y0291567D02*
X0213487Y0291567D01*
X0213557Y0291529D02*
X0215421Y0291529D01*
X0215359Y0291491D02*
X0213626Y0291491D01*
X0213695Y0291453D02*
X0215251Y0291453D01*
X0215142Y0291415D02*
X0213828Y0291415D01*
X0213962Y0291377D02*
X0215034Y0291377D01*
X0214828Y0291340D02*
X0214095Y0291340D01*
D21*
X0128335Y0221800D03*
X0123335Y0221800D03*
X0118335Y0221800D03*
X0113335Y0221800D03*
X0113335Y0202400D03*
X0118335Y0202400D03*
X0123335Y0202400D03*
X0128335Y0202400D03*
X0088535Y0194300D03*
X0083535Y0194300D03*
X0078535Y0194300D03*
X0073535Y0194300D03*
X0073535Y0174900D03*
X0078535Y0174900D03*
X0083535Y0174900D03*
X0088535Y0174900D03*
X0088235Y0219300D03*
X0083235Y0219300D03*
X0078235Y0219300D03*
X0073235Y0219300D03*
X0073235Y0238700D03*
X0078235Y0238700D03*
X0083235Y0238700D03*
X0088235Y0238700D03*
D22*
X0296398Y0271800D03*
X0304272Y0271800D03*
X0302598Y0036500D03*
X0310472Y0036500D03*
X0235272Y0036800D03*
X0227398Y0036800D03*
D23*
X0055065Y0201522D02*
X0055065Y0204278D01*
X0055065Y0201522D02*
X0052309Y0201522D01*
X0052309Y0204278D01*
X0055065Y0204278D01*
X0055065Y0202702D02*
X0052309Y0202702D01*
X0052309Y0203882D02*
X0055065Y0203882D01*
X0048160Y0204278D02*
X0048160Y0201522D01*
X0045404Y0201522D01*
X0045404Y0204278D01*
X0048160Y0204278D01*
X0048160Y0202702D02*
X0045404Y0202702D01*
X0045404Y0203882D02*
X0048160Y0203882D01*
X0048660Y0236922D02*
X0048660Y0239678D01*
X0048660Y0236922D02*
X0045904Y0236922D01*
X0045904Y0239678D01*
X0048660Y0239678D01*
X0048660Y0238102D02*
X0045904Y0238102D01*
X0045904Y0239282D02*
X0048660Y0239282D01*
X0055565Y0239678D02*
X0055565Y0236922D01*
X0052809Y0236922D01*
X0052809Y0239678D01*
X0055565Y0239678D01*
X0055565Y0238102D02*
X0052809Y0238102D01*
X0052809Y0239282D02*
X0055565Y0239282D01*
X0154457Y0305969D02*
X0157213Y0305969D01*
X0154457Y0305969D02*
X0154457Y0308725D01*
X0157213Y0308725D01*
X0157213Y0305969D01*
X0157213Y0307149D02*
X0154457Y0307149D01*
X0154457Y0308329D02*
X0157213Y0308329D01*
X0157213Y0312875D02*
X0154457Y0312875D01*
X0154457Y0315631D01*
X0157213Y0315631D01*
X0157213Y0312875D01*
X0157213Y0314055D02*
X0154457Y0314055D01*
X0154457Y0315235D02*
X0157213Y0315235D01*
X0245757Y0312475D02*
X0248513Y0312475D01*
X0245757Y0312475D02*
X0245757Y0315231D01*
X0248513Y0315231D01*
X0248513Y0312475D01*
X0248513Y0313655D02*
X0245757Y0313655D01*
X0245757Y0314835D02*
X0248513Y0314835D01*
X0248513Y0305569D02*
X0245757Y0305569D01*
X0245757Y0308325D01*
X0248513Y0308325D01*
X0248513Y0305569D01*
X0248513Y0306749D02*
X0245757Y0306749D01*
X0245757Y0307929D02*
X0248513Y0307929D01*
X0298757Y0305669D02*
X0301513Y0305669D01*
X0298757Y0305669D02*
X0298757Y0308425D01*
X0301513Y0308425D01*
X0301513Y0305669D01*
X0301513Y0306849D02*
X0298757Y0306849D01*
X0298757Y0308029D02*
X0301513Y0308029D01*
X0301513Y0312575D02*
X0298757Y0312575D01*
X0298757Y0315331D01*
X0301513Y0315331D01*
X0301513Y0312575D01*
X0301513Y0313755D02*
X0298757Y0313755D01*
X0298757Y0314935D02*
X0301513Y0314935D01*
D24*
X0086510Y0282850D03*
D25*
X0091235Y0281300D03*
X0095959Y0281300D03*
X0095959Y0291300D03*
X0091235Y0291300D03*
X0086510Y0291300D03*
D26*
X0094002Y0304900D03*
X0094002Y0307900D03*
X0094002Y0310900D03*
X0137502Y0310900D03*
X0137494Y0307900D03*
X0137494Y0304900D03*
D27*
X0102750Y0283247D03*
D28*
X0107435Y0281968D03*
X0112120Y0281968D03*
X0112120Y0290432D03*
X0107435Y0290432D03*
X0102750Y0290432D03*
M02*
