%
M48
M72
T01C0.0130
T02C0.0157
T03C0.0160
T04C0.0256
T05C0.0276
T06C0.0315
T07C0.0320
T08C0.0340
T09C0.0354
T10C0.0394
T11C0.0400
T12C0.0472
T13C0.0590
T14C0.0591
T15C0.0600
T16C0.0709
T17C0.0866
T18C0.1102
%
T01
X6418Y1180
X12543Y7020
X13263Y8220
X13883Y8510
X14463Y8810
X14743Y8220
X14163Y7680
X13853Y6405
X14753Y9550
X16233Y9830
X17673Y9810
X19213Y10960
X19693Y11950
X20713Y11770
X21193Y11365
X22683Y11450
X23663Y11710
X24743Y11000
X25153Y10410
X26258Y10645
X27198Y10445
X27153Y12280
X28123Y12390
X29188Y12780
X30218Y12780
X30703Y12390
X31183Y12140
X32183Y11870
X34143Y12350
X34673Y12075
X35123Y11810
X33383Y9940
X32701Y8790
X32253Y8375
X30998Y9525
X30683Y8420
X29681Y9460
X29143Y10495
X27693Y8380
X27273Y8370
X27718Y7685
X28123Y7330
X28753Y7300
X26683Y7330
X25483Y7330
X25083Y8060
X24273Y7670
X22093Y7940
X21743Y8410
X20963Y8345
X20243Y8540
X20293Y9895
X22173Y9990
X19773Y13050
X18063Y14890
X18763Y15405
X18683Y15855
X19423Y16225
X20203Y16120
X21003Y16530
X21313Y15720
X21033Y15365
X21413Y15160
X22663Y14900
X24193Y14885
X25713Y16130
X26293Y16145
X27358Y16110
X27683Y15700
X28423Y16400
X28033Y16520
X29223Y18040
X28753Y18325
X30033Y17420
X30543Y15220
X29933Y14930
X32298Y16455
X32713Y14850
X35063Y15105
X32713Y18040
X32298Y18065
X32698Y20255
X33003Y21300
X32263Y21860
X30938Y22870
X30583Y24190
X29993Y25210
X32263Y26070
X30913Y28050
X30563Y28530
X28943Y29630
X28813Y28530
X28118Y28890
X27493Y28960
X27478Y29510
X26748Y30760
X26063Y29240
X25383Y28990
X24443Y29540
X24433Y29950
X22673Y29720
X22228Y29280
X21833Y27800
X20698Y28690
X20503Y29940
X19658Y29800
X19628Y31070
X22778Y30910
X22998Y31550
X23418Y27780
X25378Y27800
X26578Y27790
X27173Y27030
X27533Y27300
X28078Y27630
X28428Y31340
X33663Y28220
X28383Y22240
X27573Y22425
X29623Y21340
X25283Y19880
X23923Y17920
X24988Y17880
X24693Y16660
X25103Y16560
X22323Y16670
X22023Y16485
X21723Y18280
X20163Y18250
X18853Y18265
X18653Y17540
X17713Y16530
X17093Y16655
X16403Y16550
X15083Y17030
X14613Y17260
X14623Y16510
X13153Y17550
X12283Y17200
X11303Y17395
X10193Y16940
X10023Y18435
X11073Y19625
X12283Y18610
X13823Y18985
X14623Y19825
X13893Y21305
X14793Y22905
X14273Y22925
X15403Y23245
X16363Y23085
X16623Y23430
X16363Y23805
X15653Y24915
X15063Y25270
X14083Y25205
X13093Y25195
X12098Y25150
X11343Y25135
X11323Y23915
X11183Y23115
X12053Y23125
X12953Y23015
X12323Y21210
X10553Y21325
X9743Y21885
X9843Y23035
X9993Y23875
X9943Y25025
X9403Y25015
X8283Y22810
X6723Y20685
X5673Y22125
X9063Y20365
X8293Y18410
X6393Y18435
X6313Y17455
X6353Y16495
X5983Y15820
X5623Y15450
X6143Y15035
X7003Y15025
X7943Y14985
X9053Y15045
X10223Y15075
X11173Y15035
X12073Y15045
X12563Y16190
X13503Y15045
X14643Y14545
X14753Y13670
X14463Y12670
X15423Y12690
X16703Y12290
X15063Y11100
X13265Y10400
X12273Y11970
X9923Y12255
X5798Y14165
X5243Y16535
X7213Y16790
X15713Y21750
X16103Y20975
X16273Y19855
X16642Y18481
X16693Y17960
X17693Y18630
X18983Y20925
X17963Y21930
X18353Y22935
X20533Y21855
X21813Y21785
X22923Y22540
X21753Y24790
X20053Y25330
X16618Y29060
X14208Y28190
X13238Y28600
X13328Y29000
X13783Y29160
X12668Y29075
X12298Y28810
X12608Y28470
X12123Y28360
X11843Y28665
X11883Y29035
X10933Y28610
X9543Y28595
X8298Y28480
X8153Y29080
X8143Y30090
X6543Y31170
X7618Y27865
X6713Y27650
X5698Y27510
X6333Y25575
X20543Y19880
X26203Y12720
X31693Y7030
X31213Y5090
X30113Y4480
X32203Y2550
X32593Y2890
X31238Y1775
X33678Y1225
X35368Y2090
X34403Y7755
X34693Y8050
X27923Y2870
X25858Y4830
X25153Y1400
X19703Y3840
X17223Y7330
X18683Y7950
X15428Y1075
X34048Y20765
X34093Y22180
T02
X21443Y29550
X21443Y31196
X18043Y31196
X18043Y29550
T03
X7398Y29580
T04
X18606Y29759
X20881Y29759
T05
X26783Y22950
X26783Y21950
X26783Y19800
X27783Y19800
X32103Y4450
X33103Y4450
X23517Y2243
X22730Y2243
T06
X25719Y31150
X27688Y31150
T07
X29423Y31210
X29423Y30210
X29583Y26230
X30583Y26230
X23888Y30200
X23888Y31200
X14963Y31145
X14963Y30145
X5603Y23190
X4603Y23190
X4583Y20970
X5583Y20970
X11293Y18610
X12293Y18610
X22623Y4660
X23623Y4660
X30123Y4490
X31123Y4490
T08
X13543Y19820
X13543Y20820
X13543Y21820
X13543Y22820
X10543Y22820
X10543Y21820
X10543Y20820
X10543Y19820
X9583Y19950
X9583Y18950
X9583Y17950
X9583Y16950
X6583Y16950
X6583Y17950
X6583Y18950
X6583Y19950
X6553Y21370
X6553Y22370
X6553Y23370
X6553Y24370
X9553Y24370
X9553Y23370
X9553Y22370
X9553Y21370
T09
X11683Y24590
X12683Y24590
X13513Y24600
X14513Y24600
X16113Y24450
X17113Y24450
X19503Y24830
X20503Y24830
X22603Y24800
X23603Y24800
X25863Y24060
X26863Y24060
X27653Y23960
X28653Y23960
X27783Y20750
X26783Y20750
X27273Y18530
X27273Y17530
X29043Y16180
X30043Y16180
X34463Y16140
X35463Y16140
X29063Y4490
X28063Y4490
X4933Y24720
X4933Y25720
X4833Y19380
X4833Y18380
X14973Y28175
X14973Y29175
X23893Y29210
X23893Y28210
X29378Y28030
X29378Y29030
T10
X29183Y13500
X28183Y13500
X27183Y13500
X26183Y13500
X25183Y13500
X24183Y13500
X23183Y13500
X22183Y13500
X21183Y13500
X20183Y13500
X19183Y13500
X18183Y13500
X17183Y13500
X16183Y13500
X16183Y6500
X17183Y6500
X18183Y6500
X19183Y6500
X20183Y6500
X21183Y6500
X22183Y6500
X23183Y6500
X24183Y6500
X25183Y6500
X26183Y6500
X27183Y6500
X28183Y6500
X29183Y6500
X30183Y6500
X31183Y6500
X32183Y6500
X33183Y6500
X34183Y6500
X35183Y6500
X35183Y13500
X34183Y13500
X33183Y13500
X32183Y13500
X31183Y13500
X30183Y13500
T11
X4953Y4310
X4953Y5310
X5953Y5310
X5953Y4310
X6953Y4310
X6953Y5310
X6953Y6310
X6993Y7300
X5993Y7300
X4993Y7300
X4953Y6310
X5953Y6310
X5993Y8300
X4993Y8300
X4993Y9300
X5993Y9300
X5993Y10300
X4993Y10300
X4993Y11300
X5993Y11300
X6993Y11300
X6993Y10300
X6993Y9300
X6993Y8300
X7993Y8300
X7993Y9300
X8993Y9300
X8993Y8300
X8993Y7300
X7993Y7300
X7953Y6310
X8953Y6310
X8953Y5310
X7953Y5310
X7953Y4310
X8953Y4310
X9953Y4310
X9953Y5310
X9953Y6310
X9993Y7300
X9993Y8300
X9993Y9300
X9993Y10300
X8993Y10300
X7993Y10300
X7993Y11300
X8993Y11300
X9993Y11300
X10993Y11300
X11993Y11300
X11993Y10300
X10993Y10300
X10993Y9300
X10993Y8300
X11993Y8300
X11993Y9300
X11993Y7300
X10993Y7300
X10953Y6310
X11953Y6310
X11953Y5310
X10953Y5310
X10953Y4310
X11953Y4310
X14203Y4620
X15203Y4620
X16203Y4620
X17203Y4620
X18203Y4620
X19203Y4620
X20203Y4620
X21203Y4620
X27313Y2120
X28313Y2120
X29313Y2120
X30313Y2120
X35013Y18270
X35013Y19270
X35013Y20270
X35013Y21270
X35013Y22270
X35013Y23270
X35013Y24270
X35013Y25270
X26564Y26034
X25564Y26034
X24564Y26034
X23564Y26034
X22564Y26034
X21564Y26034
X20564Y26034
X19564Y26034
X18564Y26034
X17564Y26034
X16564Y26034
X15564Y26034
X14564Y26034
X13564Y26034
X12564Y26034
X11564Y26034
X10564Y26034
X9564Y26034
X8564Y26034
X7564Y26034
X7564Y27034
X8564Y27034
X9564Y27034
X10564Y27034
X11564Y27034
X12564Y27034
X13564Y27034
X14564Y27034
X15564Y27034
X16564Y27034
X17564Y27034
X18564Y27034
X19564Y27034
X20564Y27034
X21564Y27034
X22564Y27034
X23564Y27034
X24564Y27034
X25564Y27034
X26564Y27034
X22223Y28310
X21223Y28310
X20223Y28310
X19223Y28310
X18223Y28310
X17223Y28310
X4863Y15670
X4863Y14670
X4863Y13670
X4863Y12670
X10053Y13170
X11053Y13170
X12053Y13170
X13053Y13170
T12
X25326Y30166
X28081Y30166
T13
X31343Y29920
X33193Y31200
X34213Y28660
X35203Y28110
X31553Y26970
T14
X33939Y10955
X33939Y9045
T15
X7363Y28661
X7363Y30661
X5363Y30661
X5363Y28661
T16
X35132Y11073
X35132Y8927
T17
X6363Y29661
T18
X5631Y26534
X28466Y26534
X33891Y2231
X6222Y2231
M30
