G75*
%MOIN*%
%OFA0B0*%
%FSLAX25Y25*%
%IPPOS*%
%LPD*%
%AMOC8*
5,1,8,0,0,1.08239X$1,22.5*
%
%ADD10C,0.11624*%
%ADD11C,0.05000*%
%ADD12C,0.08000*%
%ADD13C,0.09600*%
%ADD14C,0.13261*%
%ADD15OC8,0.07200*%
%ADD16C,0.06506*%
%ADD17C,0.07687*%
%ADD18C,0.07100*%
%ADD19C,0.07200*%
%ADD20R,0.06000X0.06000*%
%ADD21C,0.06000*%
%ADD22R,0.03100X0.05600*%
%ADD23C,0.09100*%
%ADD24C,0.03159*%
%ADD25C,0.08100*%
%ADD26R,0.03200X0.05600*%
%ADD27C,0.00500*%
%ADD28C,0.06899*%
%ADD29C,0.09261*%
%ADD30C,0.07293*%
%ADD31C,0.06600*%
D10*
X0062220Y0022313D03*
X0056314Y0265336D03*
X0284661Y0265336D03*
X0338913Y0022313D03*
D11*
X0053831Y0022500D02*
X0053833Y0022703D01*
X0053841Y0022905D01*
X0053853Y0023107D01*
X0053871Y0023309D01*
X0053893Y0023510D01*
X0053920Y0023711D01*
X0053953Y0023911D01*
X0053990Y0024110D01*
X0054032Y0024308D01*
X0054078Y0024506D01*
X0054130Y0024701D01*
X0054186Y0024896D01*
X0054248Y0025089D01*
X0054313Y0025281D01*
X0054384Y0025471D01*
X0054459Y0025659D01*
X0054539Y0025845D01*
X0054623Y0026029D01*
X0054712Y0026211D01*
X0054806Y0026391D01*
X0054903Y0026568D01*
X0055005Y0026743D01*
X0055112Y0026916D01*
X0055222Y0027086D01*
X0055337Y0027253D01*
X0055455Y0027417D01*
X0055578Y0027578D01*
X0055705Y0027736D01*
X0055835Y0027891D01*
X0055969Y0028043D01*
X0056107Y0028191D01*
X0056249Y0028336D01*
X0056394Y0028478D01*
X0056542Y0028616D01*
X0056694Y0028750D01*
X0056849Y0028880D01*
X0057007Y0029007D01*
X0057168Y0029130D01*
X0057332Y0029248D01*
X0057499Y0029363D01*
X0057669Y0029473D01*
X0057842Y0029580D01*
X0058017Y0029682D01*
X0058194Y0029779D01*
X0058374Y0029873D01*
X0058556Y0029962D01*
X0058740Y0030046D01*
X0058926Y0030126D01*
X0059114Y0030201D01*
X0059304Y0030272D01*
X0059496Y0030337D01*
X0059689Y0030399D01*
X0059884Y0030455D01*
X0060079Y0030507D01*
X0060277Y0030553D01*
X0060475Y0030595D01*
X0060674Y0030632D01*
X0060874Y0030665D01*
X0061075Y0030692D01*
X0061276Y0030714D01*
X0061478Y0030732D01*
X0061680Y0030744D01*
X0061882Y0030752D01*
X0062085Y0030754D01*
X0062288Y0030752D01*
X0062490Y0030744D01*
X0062692Y0030732D01*
X0062894Y0030714D01*
X0063095Y0030692D01*
X0063296Y0030665D01*
X0063496Y0030632D01*
X0063695Y0030595D01*
X0063893Y0030553D01*
X0064091Y0030507D01*
X0064286Y0030455D01*
X0064481Y0030399D01*
X0064674Y0030337D01*
X0064866Y0030272D01*
X0065056Y0030201D01*
X0065244Y0030126D01*
X0065430Y0030046D01*
X0065614Y0029962D01*
X0065796Y0029873D01*
X0065976Y0029779D01*
X0066153Y0029682D01*
X0066328Y0029580D01*
X0066501Y0029473D01*
X0066671Y0029363D01*
X0066838Y0029248D01*
X0067002Y0029130D01*
X0067163Y0029007D01*
X0067321Y0028880D01*
X0067476Y0028750D01*
X0067628Y0028616D01*
X0067776Y0028478D01*
X0067921Y0028336D01*
X0068063Y0028191D01*
X0068201Y0028043D01*
X0068335Y0027891D01*
X0068465Y0027736D01*
X0068592Y0027578D01*
X0068715Y0027417D01*
X0068833Y0027253D01*
X0068948Y0027086D01*
X0069058Y0026916D01*
X0069165Y0026743D01*
X0069267Y0026568D01*
X0069364Y0026391D01*
X0069458Y0026211D01*
X0069547Y0026029D01*
X0069631Y0025845D01*
X0069711Y0025659D01*
X0069786Y0025471D01*
X0069857Y0025281D01*
X0069922Y0025089D01*
X0069984Y0024896D01*
X0070040Y0024701D01*
X0070092Y0024506D01*
X0070138Y0024308D01*
X0070180Y0024110D01*
X0070217Y0023911D01*
X0070250Y0023711D01*
X0070277Y0023510D01*
X0070299Y0023309D01*
X0070317Y0023107D01*
X0070329Y0022905D01*
X0070337Y0022703D01*
X0070339Y0022500D01*
X0070337Y0022297D01*
X0070329Y0022095D01*
X0070317Y0021893D01*
X0070299Y0021691D01*
X0070277Y0021490D01*
X0070250Y0021289D01*
X0070217Y0021089D01*
X0070180Y0020890D01*
X0070138Y0020692D01*
X0070092Y0020494D01*
X0070040Y0020299D01*
X0069984Y0020104D01*
X0069922Y0019911D01*
X0069857Y0019719D01*
X0069786Y0019529D01*
X0069711Y0019341D01*
X0069631Y0019155D01*
X0069547Y0018971D01*
X0069458Y0018789D01*
X0069364Y0018609D01*
X0069267Y0018432D01*
X0069165Y0018257D01*
X0069058Y0018084D01*
X0068948Y0017914D01*
X0068833Y0017747D01*
X0068715Y0017583D01*
X0068592Y0017422D01*
X0068465Y0017264D01*
X0068335Y0017109D01*
X0068201Y0016957D01*
X0068063Y0016809D01*
X0067921Y0016664D01*
X0067776Y0016522D01*
X0067628Y0016384D01*
X0067476Y0016250D01*
X0067321Y0016120D01*
X0067163Y0015993D01*
X0067002Y0015870D01*
X0066838Y0015752D01*
X0066671Y0015637D01*
X0066501Y0015527D01*
X0066328Y0015420D01*
X0066153Y0015318D01*
X0065976Y0015221D01*
X0065796Y0015127D01*
X0065614Y0015038D01*
X0065430Y0014954D01*
X0065244Y0014874D01*
X0065056Y0014799D01*
X0064866Y0014728D01*
X0064674Y0014663D01*
X0064481Y0014601D01*
X0064286Y0014545D01*
X0064091Y0014493D01*
X0063893Y0014447D01*
X0063695Y0014405D01*
X0063496Y0014368D01*
X0063296Y0014335D01*
X0063095Y0014308D01*
X0062894Y0014286D01*
X0062692Y0014268D01*
X0062490Y0014256D01*
X0062288Y0014248D01*
X0062085Y0014246D01*
X0061882Y0014248D01*
X0061680Y0014256D01*
X0061478Y0014268D01*
X0061276Y0014286D01*
X0061075Y0014308D01*
X0060874Y0014335D01*
X0060674Y0014368D01*
X0060475Y0014405D01*
X0060277Y0014447D01*
X0060079Y0014493D01*
X0059884Y0014545D01*
X0059689Y0014601D01*
X0059496Y0014663D01*
X0059304Y0014728D01*
X0059114Y0014799D01*
X0058926Y0014874D01*
X0058740Y0014954D01*
X0058556Y0015038D01*
X0058374Y0015127D01*
X0058194Y0015221D01*
X0058017Y0015318D01*
X0057842Y0015420D01*
X0057669Y0015527D01*
X0057499Y0015637D01*
X0057332Y0015752D01*
X0057168Y0015870D01*
X0057007Y0015993D01*
X0056849Y0016120D01*
X0056694Y0016250D01*
X0056542Y0016384D01*
X0056394Y0016522D01*
X0056249Y0016664D01*
X0056107Y0016809D01*
X0055969Y0016957D01*
X0055835Y0017109D01*
X0055705Y0017264D01*
X0055578Y0017422D01*
X0055455Y0017583D01*
X0055337Y0017747D01*
X0055222Y0017914D01*
X0055112Y0018084D01*
X0055005Y0018257D01*
X0054903Y0018432D01*
X0054806Y0018609D01*
X0054712Y0018789D01*
X0054623Y0018971D01*
X0054539Y0019155D01*
X0054459Y0019341D01*
X0054384Y0019529D01*
X0054313Y0019719D01*
X0054248Y0019911D01*
X0054186Y0020104D01*
X0054130Y0020299D01*
X0054078Y0020494D01*
X0054032Y0020692D01*
X0053990Y0020890D01*
X0053953Y0021089D01*
X0053920Y0021289D01*
X0053893Y0021490D01*
X0053871Y0021691D01*
X0053853Y0021893D01*
X0053841Y0022095D01*
X0053833Y0022297D01*
X0053831Y0022500D01*
D12*
X0142035Y0046200D03*
X0152035Y0046200D03*
X0162035Y0046200D03*
X0172035Y0046200D03*
X0182035Y0046200D03*
X0192035Y0046200D03*
X0202035Y0046200D03*
X0212035Y0046200D03*
X0273135Y0021200D03*
X0283135Y0021200D03*
X0293135Y0021200D03*
X0303135Y0021200D03*
X0290635Y0044900D03*
X0280635Y0044900D03*
X0290435Y0161800D03*
X0300435Y0161800D03*
X0272735Y0175300D03*
X0272735Y0185300D03*
X0267835Y0207500D03*
X0277835Y0207500D03*
X0276535Y0239600D03*
X0268635Y0240600D03*
X0258635Y0240600D03*
X0255645Y0260336D03*
X0265645Y0260336D03*
X0265645Y0270336D03*
X0255645Y0270336D03*
X0245645Y0270336D03*
X0245645Y0260336D03*
X0235645Y0260336D03*
X0225645Y0260336D03*
X0215645Y0260336D03*
X0205645Y0260336D03*
X0195645Y0260336D03*
X0185645Y0260336D03*
X0175645Y0260336D03*
X0165645Y0260336D03*
X0155645Y0260336D03*
X0145645Y0260336D03*
X0135645Y0260336D03*
X0125645Y0260336D03*
X0115645Y0260336D03*
X0105645Y0260336D03*
X0095645Y0260336D03*
X0085645Y0260336D03*
X0075645Y0260336D03*
X0075645Y0270336D03*
X0085645Y0270336D03*
X0095645Y0270336D03*
X0105645Y0270336D03*
X0115645Y0270336D03*
X0125645Y0270336D03*
X0135645Y0270336D03*
X0145645Y0270336D03*
X0155645Y0270336D03*
X0165645Y0270336D03*
X0175645Y0270336D03*
X0185645Y0270336D03*
X0195645Y0270336D03*
X0205645Y0270336D03*
X0215645Y0270336D03*
X0225645Y0270336D03*
X0235645Y0270336D03*
X0238935Y0282100D03*
X0238935Y0292100D03*
X0236035Y0248000D03*
X0226035Y0248000D03*
X0205035Y0248300D03*
X0195035Y0248300D03*
X0171135Y0244500D03*
X0161135Y0244500D03*
X0145135Y0246000D03*
X0135135Y0246000D03*
X0126835Y0245900D03*
X0116835Y0245900D03*
X0149735Y0281750D03*
X0149735Y0291750D03*
X0049335Y0257200D03*
X0049335Y0247200D03*
X0048335Y0193800D03*
X0048335Y0183800D03*
X0048635Y0156700D03*
X0048635Y0146700D03*
X0048635Y0136700D03*
X0048635Y0126700D03*
X0100535Y0131700D03*
X0110535Y0131700D03*
X0120535Y0131700D03*
X0130535Y0131700D03*
X0286535Y0239600D03*
X0293785Y0280300D03*
X0293785Y0290300D03*
X0350135Y0252700D03*
X0350135Y0242700D03*
X0350135Y0232700D03*
X0350135Y0222700D03*
X0350135Y0212700D03*
X0350135Y0202700D03*
X0350135Y0192700D03*
X0350135Y0182700D03*
X0354635Y0161400D03*
X0344635Y0161400D03*
D13*
X0073627Y0286607D03*
X0073627Y0306607D03*
X0053627Y0306607D03*
X0053627Y0286607D03*
D14*
X0063627Y0296607D03*
D15*
X0056035Y0231900D03*
X0046035Y0231900D03*
X0045835Y0209700D03*
X0055835Y0209700D03*
X0149635Y0301450D03*
X0149635Y0311450D03*
X0238885Y0312000D03*
X0238885Y0302000D03*
X0294235Y0302100D03*
X0294235Y0312100D03*
D16*
X0291835Y0135000D03*
X0281835Y0135000D03*
X0271835Y0135000D03*
X0261835Y0135000D03*
X0251835Y0135000D03*
X0241835Y0135000D03*
X0231835Y0135000D03*
X0221835Y0135000D03*
X0211835Y0135000D03*
X0201835Y0135000D03*
X0191835Y0135000D03*
X0181835Y0135000D03*
X0171835Y0135000D03*
X0161835Y0135000D03*
X0161835Y0065000D03*
X0171835Y0065000D03*
X0181835Y0065000D03*
X0191835Y0065000D03*
X0201835Y0065000D03*
X0211835Y0065000D03*
X0221835Y0065000D03*
X0231835Y0065000D03*
X0241835Y0065000D03*
X0251835Y0065000D03*
X0261835Y0065000D03*
X0271835Y0065000D03*
X0281835Y0065000D03*
X0291835Y0065000D03*
X0301835Y0065000D03*
X0311835Y0065000D03*
X0321835Y0065000D03*
X0331835Y0065000D03*
X0341835Y0065000D03*
X0351835Y0065000D03*
X0339394Y0090453D03*
X0339394Y0109547D03*
X0341835Y0135000D03*
X0351835Y0135000D03*
X0331835Y0135000D03*
X0321835Y0135000D03*
X0311835Y0135000D03*
X0301835Y0135000D03*
D17*
X0351323Y0110728D03*
X0351323Y0089272D03*
D18*
X0331035Y0044500D03*
X0321035Y0044500D03*
X0277835Y0198000D03*
X0267835Y0198000D03*
X0267835Y0219500D03*
X0267835Y0229500D03*
D19*
X0295835Y0262300D03*
X0305835Y0262300D03*
X0122935Y0186100D03*
X0112935Y0186100D03*
X0226235Y0046600D03*
X0236235Y0046600D03*
X0301235Y0044900D03*
X0311235Y0044900D03*
D20*
X0105435Y0228200D03*
X0065535Y0243700D03*
X0065835Y0199500D03*
D21*
X0065835Y0189500D03*
X0065835Y0179500D03*
X0065835Y0169500D03*
X0095835Y0169500D03*
X0095835Y0179500D03*
X0095835Y0189500D03*
X0095835Y0199500D03*
X0105435Y0198200D03*
X0105435Y0208200D03*
X0105435Y0218200D03*
X0095535Y0213700D03*
X0095535Y0223700D03*
X0095535Y0233700D03*
X0095535Y0243700D03*
X0065535Y0233700D03*
X0065535Y0223700D03*
X0065535Y0213700D03*
X0135435Y0218200D03*
X0135435Y0208200D03*
X0135435Y0198200D03*
X0135435Y0228200D03*
D22*
X0160935Y0219200D03*
X0164135Y0219200D03*
X0172435Y0179300D03*
X0175635Y0179300D03*
D23*
X0313035Y0299100D03*
X0332035Y0312000D03*
X0341935Y0286300D03*
X0351635Y0280900D03*
X0315535Y0269800D03*
D24*
X0208813Y0297589D03*
X0186057Y0297589D03*
D25*
X0182235Y0283100D03*
X0192235Y0283100D03*
X0202235Y0283100D03*
X0212235Y0283100D03*
X0222235Y0283100D03*
X0172235Y0283100D03*
D26*
X0184385Y0248400D03*
X0188485Y0248400D03*
X0247085Y0248300D03*
X0251185Y0248300D03*
X0286985Y0213400D03*
X0291085Y0213400D03*
X0296285Y0180500D03*
X0300385Y0180500D03*
X0335885Y0180500D03*
X0339985Y0180500D03*
X0343085Y0270600D03*
X0347185Y0270600D03*
X0246885Y0040900D03*
X0242785Y0040900D03*
D27*
X0244085Y0040987D02*
X0245585Y0040987D01*
X0245585Y0041400D02*
X0245585Y0040400D01*
X0244085Y0040400D01*
X0244085Y0041400D01*
X0245585Y0041400D01*
X0245585Y0040488D02*
X0244085Y0040488D01*
X0297585Y0180000D02*
X0299085Y0180000D01*
X0299085Y0181000D01*
X0297585Y0181000D01*
X0297585Y0180000D01*
X0297585Y0180072D02*
X0299085Y0180072D01*
X0299085Y0180570D02*
X0297585Y0180570D01*
X0289785Y0212900D02*
X0288285Y0212900D01*
X0288285Y0213900D01*
X0289785Y0213900D01*
X0289785Y0212900D01*
X0289785Y0212973D02*
X0288285Y0212973D01*
X0288285Y0213472D02*
X0289785Y0213472D01*
X0249885Y0247800D02*
X0249885Y0248800D01*
X0248385Y0248800D01*
X0248385Y0247800D01*
X0249885Y0247800D01*
X0249885Y0247869D02*
X0248385Y0247869D01*
X0248385Y0248368D02*
X0249885Y0248368D01*
X0187185Y0248368D02*
X0185685Y0248368D01*
X0185685Y0247900D02*
X0185685Y0248900D01*
X0187185Y0248900D01*
X0187185Y0247900D01*
X0185685Y0247900D01*
X0185685Y0248866D02*
X0187185Y0248866D01*
X0337185Y0181000D02*
X0337185Y0180000D01*
X0338685Y0180000D01*
X0338685Y0181000D01*
X0337185Y0181000D01*
X0337185Y0180570D02*
X0338685Y0180570D01*
X0338685Y0180072D02*
X0337185Y0180072D01*
X0344385Y0270100D02*
X0344385Y0271100D01*
X0345885Y0271100D01*
X0345885Y0270100D01*
X0344385Y0270100D01*
X0344385Y0270302D02*
X0345885Y0270302D01*
X0345885Y0270801D02*
X0344385Y0270801D01*
D28*
X0235172Y0022435D03*
X0227298Y0022435D03*
D29*
X0253255Y0301657D03*
X0280814Y0301657D03*
D30*
X0276877Y0311500D03*
X0257192Y0311500D03*
D31*
X0049535Y0043100D03*
X0059535Y0043100D03*
X0059535Y0053100D03*
X0049535Y0053100D03*
X0049535Y0063100D03*
X0059535Y0063100D03*
X0059935Y0073000D03*
X0049935Y0073000D03*
X0049935Y0083000D03*
X0059935Y0083000D03*
X0059935Y0093000D03*
X0049935Y0093000D03*
X0049935Y0103000D03*
X0059935Y0103000D03*
X0069935Y0103000D03*
X0079935Y0103000D03*
X0089935Y0103000D03*
X0099935Y0103000D03*
X0109935Y0103000D03*
X0119935Y0103000D03*
X0119935Y0093000D03*
X0119935Y0083000D03*
X0109935Y0083000D03*
X0109935Y0093000D03*
X0099935Y0093000D03*
X0099935Y0083000D03*
X0099935Y0073000D03*
X0099535Y0063100D03*
X0109535Y0063100D03*
X0119535Y0063100D03*
X0119935Y0073000D03*
X0109935Y0073000D03*
X0109535Y0053100D03*
X0119535Y0053100D03*
X0119535Y0043100D03*
X0109535Y0043100D03*
X0099535Y0043100D03*
X0099535Y0053100D03*
X0089535Y0053100D03*
X0089535Y0043100D03*
X0079535Y0043100D03*
X0079535Y0053100D03*
X0079535Y0063100D03*
X0089535Y0063100D03*
X0089935Y0073000D03*
X0079935Y0073000D03*
X0079935Y0083000D03*
X0089935Y0083000D03*
X0089935Y0093000D03*
X0079935Y0093000D03*
X0069935Y0093000D03*
X0069935Y0083000D03*
X0069935Y0073000D03*
X0069535Y0063100D03*
X0069535Y0053100D03*
X0069535Y0043100D03*
X0069935Y0113000D03*
X0079935Y0113000D03*
X0089935Y0113000D03*
X0099935Y0113000D03*
X0109935Y0113000D03*
X0119935Y0113000D03*
X0059935Y0113000D03*
X0049935Y0113000D03*
M02*
