G75*
%MOIN*%
%OFA0B0*%
%FSLAX25Y25*%
%IPPOS*%
%LPD*%
%AMOC8*
5,1,8,0,0,1.08239X$1,22.5*
%
%ADD10C,0.00600*%
%ADD11C,0.00300*%
%ADD12C,0.00800*%
%ADD13C,0.00500*%
%ADD14C,0.00400*%
D10*
X0172625Y0160378D02*
X0172625Y0161112D01*
X0173359Y0161846D01*
X0174827Y0161846D01*
X0175561Y0161112D01*
X0175561Y0159644D01*
X0174827Y0158910D01*
X0173359Y0158910D01*
X0172625Y0160378D02*
X0175561Y0160378D01*
X0177229Y0161846D02*
X0179431Y0161846D01*
X0180165Y0161112D01*
X0180165Y0159644D01*
X0179431Y0158910D01*
X0177229Y0158910D01*
X0177229Y0163314D01*
X0182500Y0163314D02*
X0182500Y0164048D01*
X0182500Y0161846D02*
X0182500Y0158910D01*
X0183234Y0158910D02*
X0181766Y0158910D01*
X0182500Y0161846D02*
X0183234Y0161846D01*
X0184902Y0161846D02*
X0187104Y0161846D01*
X0187838Y0161112D01*
X0187104Y0160378D01*
X0185636Y0160378D01*
X0184902Y0159644D01*
X0185636Y0158910D01*
X0187838Y0158910D01*
X0194110Y0158910D02*
X0197046Y0158910D01*
X0197046Y0159644D01*
X0194110Y0162580D01*
X0194110Y0163314D01*
X0197046Y0163314D01*
X0198714Y0161112D02*
X0201650Y0161112D01*
X0178435Y0176300D02*
X0178435Y0182300D01*
X0178433Y0182360D01*
X0178428Y0182421D01*
X0178419Y0182480D01*
X0178406Y0182539D01*
X0178390Y0182598D01*
X0178370Y0182655D01*
X0178347Y0182710D01*
X0178320Y0182765D01*
X0178291Y0182817D01*
X0178258Y0182868D01*
X0178222Y0182917D01*
X0178184Y0182963D01*
X0178142Y0183007D01*
X0178098Y0183049D01*
X0178052Y0183087D01*
X0178003Y0183123D01*
X0177952Y0183156D01*
X0177900Y0183185D01*
X0177845Y0183212D01*
X0177790Y0183235D01*
X0177733Y0183255D01*
X0177674Y0183271D01*
X0177615Y0183284D01*
X0177556Y0183293D01*
X0177495Y0183298D01*
X0177435Y0183300D01*
X0170635Y0183300D01*
X0170575Y0183298D01*
X0170514Y0183293D01*
X0170455Y0183284D01*
X0170396Y0183271D01*
X0170337Y0183255D01*
X0170280Y0183235D01*
X0170225Y0183212D01*
X0170170Y0183185D01*
X0170118Y0183156D01*
X0170067Y0183123D01*
X0170018Y0183087D01*
X0169972Y0183049D01*
X0169928Y0183007D01*
X0169886Y0182963D01*
X0169848Y0182917D01*
X0169812Y0182868D01*
X0169779Y0182817D01*
X0169750Y0182765D01*
X0169723Y0182710D01*
X0169700Y0182655D01*
X0169680Y0182598D01*
X0169664Y0182539D01*
X0169651Y0182480D01*
X0169642Y0182421D01*
X0169637Y0182360D01*
X0169635Y0182300D01*
X0169635Y0176300D01*
X0169637Y0176240D01*
X0169642Y0176179D01*
X0169651Y0176120D01*
X0169664Y0176061D01*
X0169680Y0176002D01*
X0169700Y0175945D01*
X0169723Y0175890D01*
X0169750Y0175835D01*
X0169779Y0175783D01*
X0169812Y0175732D01*
X0169848Y0175683D01*
X0169886Y0175637D01*
X0169928Y0175593D01*
X0169972Y0175551D01*
X0170018Y0175513D01*
X0170067Y0175477D01*
X0170118Y0175444D01*
X0170170Y0175415D01*
X0170225Y0175388D01*
X0170280Y0175365D01*
X0170337Y0175345D01*
X0170396Y0175329D01*
X0170455Y0175316D01*
X0170514Y0175307D01*
X0170575Y0175302D01*
X0170635Y0175300D01*
X0177435Y0175300D01*
X0177495Y0175302D01*
X0177556Y0175307D01*
X0177615Y0175316D01*
X0177674Y0175329D01*
X0177733Y0175345D01*
X0177790Y0175365D01*
X0177845Y0175388D01*
X0177900Y0175415D01*
X0177952Y0175444D01*
X0178003Y0175477D01*
X0178052Y0175513D01*
X0178098Y0175551D01*
X0178142Y0175593D01*
X0178184Y0175637D01*
X0178222Y0175683D01*
X0178258Y0175732D01*
X0178291Y0175783D01*
X0178320Y0175835D01*
X0178347Y0175890D01*
X0178370Y0175945D01*
X0178390Y0176002D01*
X0178406Y0176061D01*
X0178419Y0176120D01*
X0178428Y0176179D01*
X0178433Y0176240D01*
X0178435Y0176300D01*
X0165935Y0215200D02*
X0159135Y0215200D01*
X0159075Y0215202D01*
X0159014Y0215207D01*
X0158955Y0215216D01*
X0158896Y0215229D01*
X0158837Y0215245D01*
X0158780Y0215265D01*
X0158725Y0215288D01*
X0158670Y0215315D01*
X0158618Y0215344D01*
X0158567Y0215377D01*
X0158518Y0215413D01*
X0158472Y0215451D01*
X0158428Y0215493D01*
X0158386Y0215537D01*
X0158348Y0215583D01*
X0158312Y0215632D01*
X0158279Y0215683D01*
X0158250Y0215735D01*
X0158223Y0215790D01*
X0158200Y0215845D01*
X0158180Y0215902D01*
X0158164Y0215961D01*
X0158151Y0216020D01*
X0158142Y0216079D01*
X0158137Y0216140D01*
X0158135Y0216200D01*
X0158135Y0222200D01*
X0158137Y0222260D01*
X0158142Y0222321D01*
X0158151Y0222380D01*
X0158164Y0222439D01*
X0158180Y0222498D01*
X0158200Y0222555D01*
X0158223Y0222610D01*
X0158250Y0222665D01*
X0158279Y0222717D01*
X0158312Y0222768D01*
X0158348Y0222817D01*
X0158386Y0222863D01*
X0158428Y0222907D01*
X0158472Y0222949D01*
X0158518Y0222987D01*
X0158567Y0223023D01*
X0158618Y0223056D01*
X0158670Y0223085D01*
X0158725Y0223112D01*
X0158780Y0223135D01*
X0158837Y0223155D01*
X0158896Y0223171D01*
X0158955Y0223184D01*
X0159014Y0223193D01*
X0159075Y0223198D01*
X0159135Y0223200D01*
X0165935Y0223200D01*
X0165995Y0223198D01*
X0166056Y0223193D01*
X0166115Y0223184D01*
X0166174Y0223171D01*
X0166233Y0223155D01*
X0166290Y0223135D01*
X0166345Y0223112D01*
X0166400Y0223085D01*
X0166452Y0223056D01*
X0166503Y0223023D01*
X0166552Y0222987D01*
X0166598Y0222949D01*
X0166642Y0222907D01*
X0166684Y0222863D01*
X0166722Y0222817D01*
X0166758Y0222768D01*
X0166791Y0222717D01*
X0166820Y0222665D01*
X0166847Y0222610D01*
X0166870Y0222555D01*
X0166890Y0222498D01*
X0166906Y0222439D01*
X0166919Y0222380D01*
X0166928Y0222321D01*
X0166933Y0222260D01*
X0166935Y0222200D01*
X0166935Y0216200D01*
X0166933Y0216140D01*
X0166928Y0216079D01*
X0166919Y0216020D01*
X0166906Y0215961D01*
X0166890Y0215902D01*
X0166870Y0215845D01*
X0166847Y0215790D01*
X0166820Y0215735D01*
X0166791Y0215683D01*
X0166758Y0215632D01*
X0166722Y0215583D01*
X0166684Y0215537D01*
X0166642Y0215493D01*
X0166598Y0215451D01*
X0166552Y0215413D01*
X0166503Y0215377D01*
X0166452Y0215344D01*
X0166400Y0215315D01*
X0166345Y0215288D01*
X0166290Y0215265D01*
X0166233Y0215245D01*
X0166174Y0215229D01*
X0166115Y0215216D01*
X0166056Y0215207D01*
X0165995Y0215202D01*
X0165935Y0215200D01*
D11*
X0167000Y0206152D02*
X0167000Y0204050D01*
X0166300Y0204050D02*
X0167701Y0204050D01*
X0168509Y0205101D02*
X0168860Y0204751D01*
X0169911Y0204751D01*
X0169911Y0204050D02*
X0169911Y0206152D01*
X0168860Y0206152D01*
X0168509Y0205801D01*
X0168509Y0205101D01*
X0167701Y0205451D02*
X0167000Y0206152D01*
X0166596Y0202552D02*
X0166596Y0200450D01*
X0166596Y0201151D02*
X0165195Y0202552D01*
X0166246Y0201501D02*
X0165195Y0200450D01*
X0165159Y0198251D02*
X0164808Y0198251D01*
X0165159Y0198251D02*
X0165859Y0197551D01*
X0165859Y0198251D02*
X0165859Y0196850D01*
X0166668Y0196850D02*
X0167719Y0196850D01*
X0168069Y0197200D01*
X0167719Y0197551D01*
X0166668Y0197551D01*
X0166668Y0197901D02*
X0166668Y0196850D01*
X0166668Y0197901D02*
X0167018Y0198251D01*
X0167719Y0198251D01*
X0167755Y0200450D02*
X0168455Y0200450D01*
X0168806Y0200800D01*
X0168455Y0201501D02*
X0167755Y0201501D01*
X0167405Y0201151D01*
X0167405Y0200800D01*
X0167755Y0200450D01*
X0168455Y0201501D02*
X0168806Y0201851D01*
X0168806Y0202201D01*
X0168455Y0202552D01*
X0167755Y0202552D01*
X0167405Y0202201D01*
X0169614Y0202201D02*
X0169614Y0201501D01*
X0169965Y0201151D01*
X0171016Y0201151D01*
X0171016Y0200450D02*
X0171016Y0202552D01*
X0169965Y0202552D01*
X0169614Y0202201D01*
X0171824Y0202201D02*
X0171824Y0201851D01*
X0172175Y0201501D01*
X0173225Y0201501D01*
X0172175Y0201501D02*
X0171824Y0201151D01*
X0171824Y0200800D01*
X0172175Y0200450D01*
X0173225Y0200450D01*
X0173225Y0202552D01*
X0172175Y0202552D01*
X0171824Y0202201D01*
X0171770Y0204050D02*
X0171420Y0204050D01*
X0171070Y0204400D01*
X0171070Y0206152D01*
X0171420Y0206152D02*
X0170719Y0206152D01*
X0172121Y0204400D02*
X0171770Y0204050D01*
X0175139Y0204751D02*
X0176540Y0204751D01*
X0176540Y0205101D02*
X0176190Y0205451D01*
X0175489Y0205451D01*
X0175139Y0205101D01*
X0175139Y0204751D01*
X0175489Y0204050D02*
X0176190Y0204050D01*
X0176540Y0204400D01*
X0176540Y0205101D01*
X0177349Y0205451D02*
X0178400Y0205451D01*
X0178750Y0205101D01*
X0178750Y0204400D01*
X0178400Y0204050D01*
X0177349Y0204050D01*
X0177349Y0203700D02*
X0177349Y0205451D01*
X0177349Y0203700D02*
X0177699Y0203349D01*
X0178050Y0203349D01*
X0179559Y0204050D02*
X0180610Y0204050D01*
X0180960Y0204400D01*
X0180960Y0205101D01*
X0180610Y0205451D01*
X0179559Y0205451D01*
X0179559Y0206152D02*
X0179559Y0204050D01*
X0179855Y0202552D02*
X0179855Y0200450D01*
X0180628Y0200450D02*
X0180978Y0200800D01*
X0180978Y0202201D01*
X0181328Y0201851D02*
X0180628Y0201851D01*
X0179855Y0201501D02*
X0179505Y0201851D01*
X0178804Y0201851D01*
X0178454Y0201501D01*
X0178454Y0200450D01*
X0177645Y0200800D02*
X0177645Y0201501D01*
X0177295Y0201851D01*
X0176594Y0201851D01*
X0176244Y0201501D01*
X0176244Y0201151D01*
X0177645Y0201151D01*
X0177645Y0200800D02*
X0177295Y0200450D01*
X0176594Y0200450D01*
X0176909Y0198952D02*
X0176909Y0196850D01*
X0177717Y0196850D02*
X0178768Y0196850D01*
X0179118Y0197200D01*
X0179118Y0197901D01*
X0178768Y0198251D01*
X0177717Y0198251D01*
X0176909Y0197901D02*
X0176558Y0198251D01*
X0175858Y0198251D01*
X0175507Y0197901D01*
X0175507Y0196850D01*
X0174699Y0197200D02*
X0174348Y0196850D01*
X0173648Y0196850D01*
X0173298Y0197551D02*
X0174699Y0197551D01*
X0174699Y0197901D02*
X0174348Y0198251D01*
X0173648Y0198251D01*
X0173298Y0197901D01*
X0173298Y0197551D01*
X0172489Y0197901D02*
X0172139Y0198251D01*
X0171088Y0198251D01*
X0171438Y0197551D02*
X0172139Y0197551D01*
X0172489Y0197901D01*
X0172489Y0196850D02*
X0171438Y0196850D01*
X0171088Y0197200D01*
X0171438Y0197551D01*
X0169911Y0195352D02*
X0169911Y0193250D01*
X0168860Y0193250D01*
X0168509Y0193600D01*
X0168509Y0194301D01*
X0168860Y0194651D01*
X0169911Y0194651D01*
X0167701Y0194301D02*
X0167701Y0193600D01*
X0167350Y0193250D01*
X0166650Y0193250D01*
X0166300Y0193600D01*
X0166300Y0194301D01*
X0166650Y0194651D01*
X0167350Y0194651D01*
X0167701Y0194301D01*
X0165491Y0193600D02*
X0165141Y0193951D01*
X0164090Y0193951D01*
X0164090Y0194301D02*
X0164090Y0193250D01*
X0165141Y0193250D01*
X0165491Y0193600D01*
X0165141Y0194651D02*
X0164440Y0194651D01*
X0164090Y0194301D01*
X0163281Y0194651D02*
X0163281Y0193250D01*
X0163281Y0193951D02*
X0162580Y0194651D01*
X0162230Y0194651D01*
X0161439Y0194301D02*
X0161089Y0194651D01*
X0160038Y0194651D01*
X0160038Y0195352D02*
X0160038Y0193250D01*
X0161089Y0193250D01*
X0161439Y0193600D01*
X0161439Y0194301D01*
X0159230Y0193600D02*
X0159230Y0193250D01*
X0158879Y0193250D01*
X0158879Y0193600D01*
X0159230Y0193600D01*
X0159248Y0196850D02*
X0159598Y0197200D01*
X0159598Y0197901D01*
X0159248Y0198251D01*
X0158547Y0198251D01*
X0158197Y0197901D01*
X0158197Y0197200D01*
X0158547Y0196850D01*
X0159248Y0196850D01*
X0157388Y0196850D02*
X0157388Y0198251D01*
X0156337Y0198251D01*
X0155987Y0197901D01*
X0155987Y0196850D01*
X0151163Y0199749D02*
X0150812Y0199749D01*
X0150462Y0200100D01*
X0150462Y0201851D01*
X0151513Y0201851D01*
X0151863Y0201501D01*
X0151863Y0200800D01*
X0151513Y0200450D01*
X0150462Y0200450D01*
X0152672Y0200800D02*
X0152672Y0201501D01*
X0153022Y0201851D01*
X0153723Y0201851D01*
X0154073Y0201501D01*
X0154073Y0200800D01*
X0153723Y0200450D01*
X0153022Y0200450D01*
X0152672Y0200800D01*
X0154846Y0200450D02*
X0155546Y0200450D01*
X0155196Y0200450D02*
X0155196Y0202552D01*
X0155546Y0202552D01*
X0156355Y0201501D02*
X0156355Y0200450D01*
X0157406Y0200450D01*
X0157756Y0200800D01*
X0157406Y0201151D01*
X0156355Y0201151D01*
X0156355Y0201501D02*
X0156705Y0201851D01*
X0157406Y0201851D01*
X0158565Y0201501D02*
X0158565Y0200450D01*
X0158565Y0201501D02*
X0158915Y0201851D01*
X0159966Y0201851D01*
X0159966Y0200450D01*
X0160775Y0200450D02*
X0161826Y0200450D01*
X0162176Y0200800D01*
X0161826Y0201151D01*
X0160775Y0201151D01*
X0160775Y0201501D02*
X0160775Y0200450D01*
X0160775Y0201501D02*
X0161125Y0201851D01*
X0161826Y0201851D01*
X0161880Y0204050D02*
X0162931Y0204050D01*
X0163281Y0204400D01*
X0162931Y0204751D01*
X0161880Y0204751D01*
X0161880Y0205101D02*
X0161880Y0204050D01*
X0161071Y0204050D02*
X0161071Y0205451D01*
X0160020Y0205451D01*
X0159670Y0205101D01*
X0159670Y0204050D01*
X0158861Y0204400D02*
X0158861Y0205101D01*
X0158511Y0205451D01*
X0157460Y0205451D01*
X0157460Y0206152D02*
X0157460Y0204050D01*
X0158511Y0204050D01*
X0158861Y0204400D01*
X0161880Y0205101D02*
X0162230Y0205451D01*
X0162931Y0205451D01*
X0162967Y0198251D02*
X0162616Y0197901D01*
X0162616Y0197551D01*
X0164018Y0197551D01*
X0164018Y0197901D02*
X0163667Y0198251D01*
X0162967Y0198251D01*
X0164018Y0197901D02*
X0164018Y0197200D01*
X0163667Y0196850D01*
X0162967Y0196850D01*
X0172911Y0194651D02*
X0173262Y0194651D01*
X0173962Y0193951D01*
X0173962Y0194651D02*
X0173962Y0193250D01*
X0174771Y0193951D02*
X0176172Y0193951D01*
X0176172Y0194301D02*
X0175822Y0194651D01*
X0175121Y0194651D01*
X0174771Y0194301D01*
X0174771Y0193951D01*
X0175121Y0193250D02*
X0175822Y0193250D01*
X0176172Y0193600D01*
X0176172Y0194301D01*
X0176981Y0194301D02*
X0176981Y0193250D01*
X0176981Y0194301D02*
X0177331Y0194651D01*
X0178032Y0194651D01*
X0178382Y0194301D01*
X0179155Y0194651D02*
X0179855Y0194651D01*
X0179505Y0195001D02*
X0179505Y0193600D01*
X0179155Y0193250D01*
X0178382Y0193250D02*
X0178382Y0195352D01*
X0179891Y0196850D02*
X0180241Y0197200D01*
X0180241Y0198601D01*
X0179891Y0198251D02*
X0180592Y0198251D01*
X0181715Y0198251D02*
X0181715Y0196850D01*
X0182065Y0196850D02*
X0181364Y0196850D01*
X0181715Y0198251D02*
X0182065Y0198251D01*
X0181715Y0198952D02*
X0181715Y0199302D01*
X0182874Y0198251D02*
X0182874Y0197200D01*
X0183224Y0196850D01*
X0183574Y0197200D01*
X0183925Y0196850D01*
X0184275Y0197200D01*
X0184275Y0198251D01*
X0185084Y0198251D02*
X0186134Y0198251D01*
X0186485Y0197901D01*
X0186134Y0197551D01*
X0185434Y0197551D01*
X0185084Y0197200D01*
X0185434Y0196850D01*
X0186485Y0196850D01*
X0186134Y0194651D02*
X0185434Y0194651D01*
X0185084Y0194301D01*
X0185084Y0193250D01*
X0186134Y0193250D01*
X0186485Y0193600D01*
X0186134Y0193951D01*
X0185084Y0193951D01*
X0184275Y0194651D02*
X0183224Y0194651D01*
X0182874Y0194301D01*
X0182874Y0193250D01*
X0182065Y0193600D02*
X0181715Y0193250D01*
X0181014Y0193250D01*
X0180664Y0193600D01*
X0180664Y0194301D01*
X0181014Y0194651D01*
X0181715Y0194651D01*
X0182065Y0194301D01*
X0182065Y0193600D01*
X0184275Y0193250D02*
X0184275Y0194651D01*
X0184661Y0200450D02*
X0184661Y0202201D01*
X0184311Y0202552D01*
X0184311Y0201501D02*
X0185011Y0201501D01*
X0186134Y0201851D02*
X0186134Y0200450D01*
X0185784Y0200450D02*
X0186485Y0200450D01*
X0186485Y0201851D02*
X0186134Y0201851D01*
X0186134Y0202552D02*
X0186134Y0202902D01*
X0186485Y0204050D02*
X0185434Y0204050D01*
X0185084Y0204400D01*
X0185084Y0204751D01*
X0185434Y0205101D01*
X0186485Y0205101D01*
X0186485Y0206152D02*
X0185434Y0206152D01*
X0185084Y0205801D01*
X0185084Y0205451D01*
X0185434Y0205101D01*
X0184275Y0205451D02*
X0184275Y0204050D01*
X0184275Y0204751D02*
X0183574Y0205451D01*
X0183224Y0205451D01*
X0182433Y0205451D02*
X0182083Y0205451D01*
X0182083Y0204050D01*
X0182433Y0204050D02*
X0181733Y0204050D01*
X0182083Y0206152D02*
X0182083Y0206502D01*
X0186485Y0206152D02*
X0186485Y0204050D01*
X0174699Y0197901D02*
X0174699Y0197200D01*
X0154441Y0204400D02*
X0154091Y0204050D01*
X0153741Y0204050D01*
X0153391Y0204400D01*
X0153391Y0206152D01*
X0153741Y0206152D02*
X0153040Y0206152D01*
X0152232Y0206152D02*
X0151181Y0206152D01*
X0150830Y0205801D01*
X0150830Y0205101D01*
X0151181Y0204751D01*
X0152232Y0204751D01*
X0152232Y0204050D02*
X0152232Y0206152D01*
X0150022Y0205801D02*
X0149671Y0206152D01*
X0148971Y0206152D01*
X0148621Y0205801D01*
X0148621Y0205451D01*
X0150022Y0204050D01*
X0148621Y0204050D01*
X0138534Y0280650D02*
X0138534Y0282401D01*
X0138184Y0282752D01*
X0138184Y0281701D02*
X0138885Y0281701D01*
X0137411Y0281701D02*
X0137061Y0282051D01*
X0136361Y0282051D01*
X0136010Y0281701D01*
X0136010Y0281351D01*
X0137411Y0281351D01*
X0137411Y0281701D02*
X0137411Y0281000D01*
X0137061Y0280650D01*
X0136361Y0280650D01*
X0135202Y0280650D02*
X0135202Y0282051D01*
X0134851Y0282051D01*
X0134501Y0281701D01*
X0134151Y0282051D01*
X0133800Y0281701D01*
X0133800Y0280650D01*
X0134501Y0280650D02*
X0134501Y0281701D01*
X0132992Y0281000D02*
X0132641Y0281351D01*
X0131591Y0281351D01*
X0131591Y0281701D02*
X0131591Y0280650D01*
X0132641Y0280650D01*
X0132992Y0281000D01*
X0132641Y0282051D02*
X0131941Y0282051D01*
X0131591Y0281701D01*
X0130782Y0282752D02*
X0130432Y0282752D01*
X0130432Y0280650D01*
X0130782Y0280650D02*
X0130081Y0280650D01*
X0129309Y0281000D02*
X0129309Y0281701D01*
X0128958Y0282051D01*
X0128258Y0282051D01*
X0127907Y0281701D01*
X0127907Y0281351D01*
X0129309Y0281351D01*
X0129309Y0281000D02*
X0128958Y0280650D01*
X0128258Y0280650D01*
X0124889Y0280650D02*
X0124889Y0282752D01*
X0124539Y0282051D02*
X0123838Y0282051D01*
X0123488Y0281701D01*
X0123488Y0280650D01*
X0122679Y0281000D02*
X0122679Y0281701D01*
X0122329Y0282051D01*
X0121628Y0282051D01*
X0121278Y0281701D01*
X0121278Y0281351D01*
X0122679Y0281351D01*
X0122679Y0281000D02*
X0122329Y0280650D01*
X0121628Y0280650D01*
X0120469Y0281000D02*
X0120119Y0281351D01*
X0119068Y0281351D01*
X0119068Y0281701D02*
X0119068Y0280650D01*
X0120119Y0280650D01*
X0120469Y0281000D01*
X0120119Y0282051D02*
X0119418Y0282051D01*
X0119068Y0281701D01*
X0118259Y0281701D02*
X0117909Y0282051D01*
X0116858Y0282051D01*
X0116858Y0282752D02*
X0116858Y0280650D01*
X0117909Y0280650D01*
X0118259Y0281000D01*
X0118259Y0281701D01*
X0116049Y0281701D02*
X0115699Y0282051D01*
X0114998Y0282051D01*
X0114648Y0281701D01*
X0114648Y0281351D01*
X0116049Y0281351D01*
X0116049Y0281701D02*
X0116049Y0281000D01*
X0115699Y0280650D01*
X0114998Y0280650D01*
X0113839Y0280650D02*
X0113839Y0282051D01*
X0113139Y0282051D02*
X0112789Y0282051D01*
X0113139Y0282051D02*
X0113839Y0281351D01*
X0113489Y0284250D02*
X0112438Y0284250D01*
X0111630Y0284250D02*
X0111630Y0286352D01*
X0112438Y0285651D02*
X0113489Y0285651D01*
X0113839Y0285301D01*
X0113839Y0284600D01*
X0113489Y0284250D01*
X0114648Y0284250D02*
X0115699Y0284250D01*
X0116049Y0284600D01*
X0115699Y0284951D01*
X0114648Y0284951D01*
X0114648Y0285301D02*
X0114648Y0284250D01*
X0114648Y0285301D02*
X0114998Y0285651D01*
X0115699Y0285651D01*
X0116822Y0285651D02*
X0117523Y0285651D01*
X0117172Y0286001D02*
X0117172Y0284600D01*
X0116822Y0284250D01*
X0118331Y0284600D02*
X0118682Y0284951D01*
X0119382Y0284951D01*
X0119732Y0285301D01*
X0119382Y0285651D01*
X0118331Y0285651D01*
X0118331Y0284600D02*
X0118682Y0284250D01*
X0119732Y0284250D01*
X0122751Y0284250D02*
X0124152Y0284250D01*
X0123452Y0284250D02*
X0123452Y0286352D01*
X0124152Y0285651D01*
X0124961Y0286352D02*
X0125662Y0286352D01*
X0125311Y0286352D02*
X0125311Y0284600D01*
X0125662Y0284250D01*
X0126012Y0284250D01*
X0126362Y0284600D01*
X0129345Y0284250D02*
X0129695Y0284600D01*
X0129695Y0286001D01*
X0130045Y0285651D02*
X0129345Y0285651D01*
X0130854Y0285301D02*
X0130854Y0284250D01*
X0130854Y0285301D02*
X0131204Y0285651D01*
X0132255Y0285651D01*
X0132255Y0284250D01*
X0133064Y0284250D02*
X0133064Y0285651D01*
X0134465Y0285651D02*
X0134465Y0284600D01*
X0134115Y0284250D01*
X0133064Y0284250D01*
X0135274Y0284600D02*
X0135274Y0285301D01*
X0135624Y0285651D01*
X0136325Y0285651D01*
X0136675Y0285301D01*
X0136675Y0284600D01*
X0136325Y0284250D01*
X0135624Y0284250D01*
X0135274Y0284600D01*
X0137484Y0284250D02*
X0137484Y0286352D01*
X0138184Y0285651D01*
X0138885Y0286352D01*
X0138885Y0284250D01*
X0124889Y0281701D02*
X0124539Y0282051D01*
X0111630Y0284951D02*
X0110579Y0285651D01*
X0109788Y0285651D02*
X0109438Y0285651D01*
X0109438Y0284250D01*
X0109788Y0284250D02*
X0109087Y0284250D01*
X0108315Y0284250D02*
X0108315Y0285651D01*
X0107264Y0285651D01*
X0106914Y0285301D01*
X0106914Y0284250D01*
X0106105Y0284600D02*
X0105755Y0284250D01*
X0104704Y0284250D01*
X0104704Y0283900D02*
X0104704Y0285651D01*
X0105755Y0285651D01*
X0106105Y0285301D01*
X0106105Y0284600D01*
X0105404Y0283549D02*
X0105054Y0283549D01*
X0104704Y0283900D01*
X0103158Y0282752D02*
X0103158Y0280650D01*
X0102107Y0280650D01*
X0101757Y0281000D01*
X0101757Y0281701D01*
X0102107Y0282051D01*
X0103158Y0282051D01*
X0100948Y0281701D02*
X0100948Y0281000D01*
X0100598Y0280650D01*
X0099898Y0280650D01*
X0099547Y0281000D01*
X0099547Y0281701D01*
X0099898Y0282051D01*
X0100598Y0282051D01*
X0100948Y0281701D01*
X0098739Y0282051D02*
X0098038Y0282051D01*
X0098388Y0282401D02*
X0098388Y0281000D01*
X0098038Y0280650D01*
X0096915Y0281000D02*
X0096565Y0280650D01*
X0096915Y0281000D02*
X0096915Y0282401D01*
X0097265Y0282051D02*
X0096565Y0282051D01*
X0095792Y0281701D02*
X0095792Y0281000D01*
X0095442Y0280650D01*
X0094741Y0280650D01*
X0094391Y0281000D01*
X0094391Y0281701D01*
X0094741Y0282051D01*
X0095442Y0282051D01*
X0095792Y0281701D01*
X0093582Y0282051D02*
X0093232Y0282051D01*
X0092882Y0281701D01*
X0092531Y0282051D01*
X0092181Y0281701D01*
X0092181Y0280650D01*
X0092882Y0280650D02*
X0092882Y0281701D01*
X0093582Y0282051D02*
X0093582Y0280650D01*
X0091372Y0280650D02*
X0091022Y0280650D01*
X0091022Y0281000D01*
X0091372Y0281000D01*
X0091372Y0280650D01*
X0091795Y0284250D02*
X0092495Y0284250D01*
X0092846Y0284600D01*
X0092846Y0285301D01*
X0092495Y0285651D01*
X0091795Y0285651D01*
X0091444Y0285301D01*
X0091444Y0284951D01*
X0092846Y0284951D01*
X0093654Y0285651D02*
X0094705Y0285651D01*
X0095055Y0285301D01*
X0095055Y0284600D01*
X0094705Y0284250D01*
X0093654Y0284250D01*
X0093654Y0286352D01*
X0095864Y0285301D02*
X0095864Y0284250D01*
X0096915Y0284250D01*
X0097265Y0284600D01*
X0096915Y0284951D01*
X0095864Y0284951D01*
X0095864Y0285301D02*
X0096214Y0285651D01*
X0096915Y0285651D01*
X0098074Y0285301D02*
X0098074Y0284951D01*
X0099475Y0284951D01*
X0099475Y0285301D02*
X0099125Y0285651D01*
X0098424Y0285651D01*
X0098074Y0285301D01*
X0098424Y0284250D02*
X0099125Y0284250D01*
X0099475Y0284600D01*
X0099475Y0285301D01*
X0100284Y0285301D02*
X0100284Y0284250D01*
X0100284Y0285301D02*
X0100634Y0285651D01*
X0101335Y0285651D01*
X0101685Y0285301D01*
X0101685Y0286352D02*
X0101685Y0284250D01*
X0106177Y0281701D02*
X0106177Y0280650D01*
X0106177Y0281701D02*
X0106527Y0282051D01*
X0107578Y0282051D01*
X0107578Y0280650D01*
X0108387Y0281000D02*
X0108387Y0281701D01*
X0108737Y0282051D01*
X0109438Y0282051D01*
X0109788Y0281701D01*
X0109788Y0281000D01*
X0109438Y0280650D01*
X0108737Y0280650D01*
X0108387Y0281000D01*
X0110579Y0284250D02*
X0111630Y0284951D01*
X0109438Y0286352D02*
X0109438Y0286702D01*
X0090636Y0285651D02*
X0090636Y0284250D01*
X0090636Y0284951D02*
X0089935Y0285651D01*
X0089585Y0285651D01*
X0086584Y0285301D02*
X0086584Y0284600D01*
X0086234Y0284250D01*
X0085533Y0284250D01*
X0085183Y0284600D01*
X0085183Y0285301D01*
X0085533Y0285651D01*
X0086234Y0285651D01*
X0086584Y0285301D01*
X0084374Y0285651D02*
X0084374Y0284250D01*
X0084374Y0284951D02*
X0083674Y0285651D01*
X0083323Y0285651D01*
X0178516Y0301251D02*
X0179217Y0300550D01*
X0180025Y0300550D02*
X0180025Y0301601D01*
X0180376Y0301951D01*
X0181427Y0301951D01*
X0181427Y0300550D01*
X0182235Y0300900D02*
X0182586Y0300550D01*
X0182936Y0300900D01*
X0183286Y0300550D01*
X0183637Y0300900D01*
X0183637Y0301951D01*
X0184445Y0301601D02*
X0184796Y0301951D01*
X0185496Y0301951D01*
X0185846Y0301601D01*
X0185846Y0300900D01*
X0185496Y0300550D01*
X0184796Y0300550D01*
X0184445Y0300900D01*
X0184445Y0301601D01*
X0182235Y0301951D02*
X0182235Y0300900D01*
X0179217Y0302652D02*
X0178516Y0301951D01*
X0178516Y0301251D01*
X0183673Y0304150D02*
X0184023Y0304500D01*
X0184023Y0305901D01*
X0184373Y0305551D02*
X0183673Y0305551D01*
X0185182Y0305551D02*
X0185182Y0304150D01*
X0186233Y0304150D01*
X0186583Y0304500D01*
X0186583Y0305551D01*
X0187392Y0305201D02*
X0187742Y0305551D01*
X0188443Y0305551D01*
X0188793Y0305201D01*
X0188793Y0304500D01*
X0188443Y0304150D01*
X0187742Y0304150D01*
X0187392Y0304500D01*
X0187392Y0305201D01*
X0189584Y0305551D02*
X0190634Y0304851D01*
X0189584Y0304150D01*
X0190634Y0304150D02*
X0190634Y0306252D01*
X0191443Y0305201D02*
X0191443Y0304150D01*
X0192494Y0304150D01*
X0192844Y0304500D01*
X0192494Y0304851D01*
X0191443Y0304851D01*
X0191443Y0305201D02*
X0191793Y0305551D01*
X0192494Y0305551D01*
X0193653Y0305201D02*
X0193653Y0304851D01*
X0195054Y0304851D01*
X0195054Y0305201D02*
X0194704Y0305551D01*
X0194003Y0305551D01*
X0193653Y0305201D01*
X0194003Y0304150D02*
X0194704Y0304150D01*
X0195054Y0304500D01*
X0195054Y0305201D01*
X0195845Y0305551D02*
X0196195Y0305551D01*
X0196896Y0304851D01*
X0196896Y0305551D02*
X0196896Y0304150D01*
X0197705Y0304500D02*
X0198055Y0304150D01*
X0199106Y0304150D01*
X0199106Y0306252D01*
X0199106Y0305551D02*
X0198055Y0305551D01*
X0197705Y0305201D01*
X0197705Y0304500D01*
X0195809Y0303002D02*
X0195809Y0302652D01*
X0195809Y0301951D02*
X0195809Y0300550D01*
X0196159Y0300550D02*
X0195459Y0300550D01*
X0194686Y0300900D02*
X0194686Y0301601D01*
X0194336Y0301951D01*
X0193285Y0301951D01*
X0193285Y0302652D02*
X0193285Y0300550D01*
X0194336Y0300550D01*
X0194686Y0300900D01*
X0195809Y0301951D02*
X0196159Y0301951D01*
X0196968Y0301951D02*
X0198019Y0301951D01*
X0198369Y0301601D01*
X0198019Y0301251D01*
X0197318Y0301251D01*
X0196968Y0300900D01*
X0197318Y0300550D01*
X0198369Y0300550D01*
X0199178Y0300900D02*
X0199528Y0300550D01*
X0200579Y0300550D01*
X0200579Y0299849D02*
X0200579Y0301951D01*
X0199528Y0301951D01*
X0199178Y0301601D01*
X0199178Y0300900D01*
X0201388Y0300550D02*
X0201388Y0301951D01*
X0202789Y0301951D02*
X0202789Y0300900D01*
X0202439Y0300550D01*
X0201388Y0300550D01*
X0202475Y0304150D02*
X0202124Y0304500D01*
X0202475Y0304150D02*
X0203175Y0304150D01*
X0203525Y0304500D01*
X0203525Y0305901D01*
X0203175Y0306252D01*
X0202475Y0306252D01*
X0202124Y0305901D01*
X0204334Y0305201D02*
X0205735Y0305201D01*
X0206544Y0305551D02*
X0206894Y0305201D01*
X0207945Y0305201D01*
X0208754Y0304851D02*
X0208754Y0304500D01*
X0209104Y0304150D01*
X0209805Y0304150D01*
X0210155Y0304500D01*
X0209805Y0305201D02*
X0209104Y0305201D01*
X0208754Y0304851D01*
X0208754Y0305901D02*
X0209104Y0306252D01*
X0209805Y0306252D01*
X0210155Y0305901D01*
X0210155Y0305551D01*
X0209805Y0305201D01*
X0210964Y0304500D02*
X0211314Y0304150D01*
X0212015Y0304150D01*
X0212365Y0304500D01*
X0212365Y0306252D01*
X0210964Y0306252D02*
X0210964Y0304500D01*
X0210892Y0301951D02*
X0210892Y0300900D01*
X0210541Y0300550D01*
X0209491Y0300550D01*
X0209491Y0301951D01*
X0208682Y0301951D02*
X0207631Y0301951D01*
X0207281Y0301601D01*
X0207281Y0300550D01*
X0206122Y0300900D02*
X0205771Y0300550D01*
X0206122Y0300900D02*
X0206122Y0302301D01*
X0206472Y0301951D02*
X0205771Y0301951D01*
X0206894Y0304150D02*
X0206544Y0304500D01*
X0206544Y0304851D01*
X0206894Y0305201D01*
X0206544Y0305551D02*
X0206544Y0305901D01*
X0206894Y0306252D01*
X0207945Y0306252D01*
X0207945Y0304150D01*
X0206894Y0304150D01*
X0208682Y0301951D02*
X0208682Y0300550D01*
X0211700Y0300900D02*
X0211700Y0301601D01*
X0212051Y0301951D01*
X0212751Y0301951D01*
X0213102Y0301601D01*
X0213102Y0300900D01*
X0212751Y0300550D01*
X0212051Y0300550D01*
X0211700Y0300900D01*
X0213910Y0300550D02*
X0213910Y0301601D01*
X0214261Y0301951D01*
X0214611Y0301601D01*
X0214611Y0300550D01*
X0215311Y0300550D02*
X0215311Y0301951D01*
X0214961Y0301951D01*
X0214611Y0301601D01*
X0216084Y0302652D02*
X0216785Y0301951D01*
X0216785Y0301251D01*
X0216084Y0300550D01*
X0221225Y0295696D02*
X0221225Y0294995D01*
X0221575Y0294645D01*
X0222276Y0294995D02*
X0222276Y0295696D01*
X0221925Y0296046D01*
X0221575Y0296046D01*
X0221225Y0295696D01*
X0222276Y0294995D02*
X0222626Y0294645D01*
X0222976Y0294645D01*
X0223327Y0294995D01*
X0223327Y0295696D01*
X0222976Y0296046D01*
X0223327Y0293836D02*
X0221575Y0293836D01*
X0221225Y0293486D01*
X0221225Y0292785D01*
X0221575Y0292435D01*
X0223327Y0292435D01*
X0222976Y0291626D02*
X0222626Y0291626D01*
X0222276Y0291276D01*
X0222276Y0290225D01*
X0221925Y0289416D02*
X0221225Y0288716D01*
X0221925Y0288015D01*
X0223327Y0288015D01*
X0223327Y0289416D02*
X0221925Y0289416D01*
X0221225Y0290225D02*
X0221225Y0291276D01*
X0221575Y0291626D01*
X0221925Y0291626D01*
X0222276Y0291276D01*
X0222976Y0291626D02*
X0223327Y0291276D01*
X0223327Y0290225D01*
X0221225Y0290225D01*
X0212427Y0290525D02*
X0210325Y0291926D01*
X0212427Y0291926D01*
X0212427Y0292735D02*
X0212427Y0293786D01*
X0212076Y0294136D01*
X0210675Y0294136D01*
X0210325Y0293786D01*
X0210325Y0292735D01*
X0212427Y0292735D01*
X0212427Y0290525D02*
X0210325Y0290525D01*
X0210675Y0289716D02*
X0211376Y0289716D01*
X0211376Y0289016D01*
X0212076Y0289716D02*
X0212427Y0289366D01*
X0212427Y0288665D01*
X0212076Y0288315D01*
X0210675Y0288315D01*
X0210325Y0288665D01*
X0210325Y0289366D01*
X0210675Y0289716D01*
X0192476Y0300900D02*
X0192126Y0300550D01*
X0191425Y0300550D01*
X0191075Y0301251D02*
X0192476Y0301251D01*
X0192476Y0301601D02*
X0192126Y0301951D01*
X0191425Y0301951D01*
X0191075Y0301601D01*
X0191075Y0301251D01*
X0192476Y0300900D02*
X0192476Y0301601D01*
X0188056Y0301601D02*
X0187706Y0301951D01*
X0186655Y0301951D01*
X0186655Y0302652D02*
X0186655Y0300550D01*
X0187706Y0300550D01*
X0188056Y0300900D01*
X0188056Y0301601D01*
X0272022Y0223451D02*
X0272373Y0223451D01*
X0273073Y0222751D01*
X0273073Y0223451D02*
X0273073Y0222050D01*
X0273882Y0222050D02*
X0274933Y0222050D01*
X0275283Y0222400D01*
X0274933Y0222751D01*
X0273882Y0222751D01*
X0273882Y0223101D02*
X0273882Y0222050D01*
X0273882Y0223101D02*
X0274232Y0223451D01*
X0274933Y0223451D01*
X0276406Y0224152D02*
X0276406Y0222050D01*
X0276756Y0222050D02*
X0276056Y0222050D01*
X0277565Y0222400D02*
X0277565Y0223101D01*
X0277915Y0223451D01*
X0278616Y0223451D01*
X0278966Y0223101D01*
X0278966Y0222400D01*
X0278616Y0222050D01*
X0277915Y0222050D01*
X0277565Y0222400D01*
X0276756Y0224152D02*
X0276406Y0224152D01*
X0279775Y0223801D02*
X0280125Y0224152D01*
X0280826Y0224152D01*
X0281176Y0223801D01*
X0281176Y0223451D01*
X0280826Y0223101D01*
X0280125Y0223101D01*
X0279775Y0222751D01*
X0279775Y0222400D01*
X0280125Y0222050D01*
X0280826Y0222050D01*
X0281176Y0222400D01*
X0280880Y0219851D02*
X0281931Y0219851D01*
X0282281Y0219501D01*
X0281931Y0219151D01*
X0281230Y0219151D01*
X0280880Y0218800D01*
X0281230Y0218450D01*
X0282281Y0218450D01*
X0283090Y0218450D02*
X0283090Y0219851D01*
X0284491Y0219851D02*
X0284491Y0218800D01*
X0284141Y0218450D01*
X0283090Y0218450D01*
X0280071Y0218800D02*
X0280071Y0219501D01*
X0279721Y0219851D01*
X0279020Y0219851D01*
X0278670Y0219501D01*
X0278670Y0219151D01*
X0280071Y0219151D01*
X0280071Y0218800D02*
X0279721Y0218450D01*
X0279020Y0218450D01*
X0277861Y0218800D02*
X0277861Y0219501D01*
X0277511Y0219851D01*
X0276460Y0219851D01*
X0276460Y0220552D02*
X0276460Y0218450D01*
X0277511Y0218450D01*
X0277861Y0218800D01*
X0284509Y0222050D02*
X0284509Y0223801D01*
X0284159Y0224152D01*
X0284159Y0223101D02*
X0284859Y0223101D01*
X0285982Y0223451D02*
X0285982Y0222050D01*
X0286332Y0222050D02*
X0285632Y0222050D01*
X0285982Y0223451D02*
X0286332Y0223451D01*
X0285982Y0224152D02*
X0285982Y0224502D01*
X0287509Y0219851D02*
X0288560Y0219851D01*
X0288911Y0219501D01*
X0288560Y0219151D01*
X0287860Y0219151D01*
X0287509Y0218800D01*
X0287860Y0218450D01*
X0288911Y0218450D01*
X0289683Y0218450D02*
X0290384Y0218450D01*
X0290034Y0218450D02*
X0290034Y0219851D01*
X0290384Y0219851D01*
X0290034Y0220552D02*
X0290034Y0220902D01*
X0291561Y0222400D02*
X0291911Y0222050D01*
X0292612Y0222050D01*
X0292962Y0222400D01*
X0292262Y0223101D02*
X0291911Y0223101D01*
X0291561Y0222751D01*
X0291561Y0222400D01*
X0291911Y0223101D02*
X0291561Y0223451D01*
X0291561Y0223801D01*
X0291911Y0224152D01*
X0292612Y0224152D01*
X0292962Y0223801D01*
X0293771Y0223801D02*
X0293771Y0223101D01*
X0294121Y0222751D01*
X0295172Y0222751D01*
X0295172Y0222050D02*
X0295172Y0224152D01*
X0294121Y0224152D01*
X0293771Y0223801D01*
X0295981Y0224152D02*
X0296681Y0224152D01*
X0296331Y0224152D02*
X0296331Y0222400D01*
X0296681Y0222050D01*
X0297032Y0222050D01*
X0297382Y0222400D01*
X0297804Y0219851D02*
X0297454Y0219501D01*
X0297454Y0218450D01*
X0298505Y0218450D01*
X0298855Y0218800D01*
X0298505Y0219151D01*
X0297454Y0219151D01*
X0297804Y0219851D02*
X0298505Y0219851D01*
X0299664Y0219501D02*
X0300014Y0219851D01*
X0300715Y0219851D01*
X0301065Y0219501D01*
X0301065Y0218800D01*
X0300715Y0218450D01*
X0300014Y0218450D01*
X0299664Y0218800D01*
X0299664Y0219501D01*
X0301874Y0219501D02*
X0302224Y0219851D01*
X0303275Y0219851D01*
X0303275Y0220552D02*
X0303275Y0218450D01*
X0302224Y0218450D01*
X0301874Y0218800D01*
X0301874Y0219501D01*
X0301874Y0222050D02*
X0301874Y0223451D01*
X0301065Y0223451D02*
X0300364Y0223451D01*
X0300715Y0223801D02*
X0300715Y0222400D01*
X0300364Y0222050D01*
X0301874Y0222050D02*
X0302925Y0222050D01*
X0303275Y0222400D01*
X0303275Y0223451D01*
X0304084Y0223801D02*
X0304434Y0224152D01*
X0305134Y0224152D01*
X0305485Y0223801D01*
X0305485Y0222400D01*
X0305134Y0222050D01*
X0304434Y0222050D01*
X0304084Y0222400D01*
X0296645Y0219851D02*
X0296645Y0218450D01*
X0296645Y0219151D02*
X0295945Y0219851D01*
X0295594Y0219851D01*
X0294804Y0219501D02*
X0294453Y0219851D01*
X0293402Y0219851D01*
X0293402Y0220552D02*
X0293402Y0218450D01*
X0294453Y0218450D01*
X0294804Y0218800D01*
X0294804Y0219501D01*
X0294880Y0198652D02*
X0294430Y0198201D01*
X0294430Y0197751D01*
X0296231Y0197751D01*
X0296231Y0198201D02*
X0295781Y0198652D01*
X0294880Y0198652D01*
X0296231Y0198201D02*
X0296231Y0197300D01*
X0295781Y0196850D01*
X0294880Y0196850D01*
X0293469Y0195949D02*
X0292568Y0196850D01*
X0293019Y0196850D01*
X0293019Y0197300D01*
X0292568Y0197300D01*
X0292568Y0196850D01*
X0291638Y0195052D02*
X0290737Y0195052D01*
X0290286Y0194602D01*
X0292088Y0192800D01*
X0291638Y0192350D01*
X0290737Y0192350D01*
X0290286Y0192800D01*
X0290286Y0194602D01*
X0291638Y0195052D02*
X0292088Y0194602D01*
X0292088Y0192800D01*
X0293049Y0192350D02*
X0294850Y0192350D01*
X0293950Y0192350D02*
X0293950Y0195052D01*
X0294850Y0194152D01*
X0295811Y0194602D02*
X0295811Y0193701D01*
X0296262Y0193251D01*
X0297613Y0193251D01*
X0297613Y0192350D02*
X0297613Y0195052D01*
X0296262Y0195052D01*
X0295811Y0194602D01*
X0298573Y0195052D02*
X0299474Y0195052D01*
X0299024Y0195052D02*
X0299024Y0192800D01*
X0299474Y0192350D01*
X0299925Y0192350D01*
X0300375Y0192800D01*
X0299264Y0190552D02*
X0299264Y0187850D01*
X0300615Y0187850D01*
X0301066Y0188300D01*
X0301066Y0189201D01*
X0300615Y0189652D01*
X0299264Y0189652D01*
X0298303Y0189201D02*
X0297853Y0189652D01*
X0296952Y0189652D01*
X0296502Y0189201D01*
X0296502Y0188751D01*
X0298303Y0188751D01*
X0298303Y0189201D02*
X0298303Y0188300D01*
X0297853Y0187850D01*
X0296952Y0187850D01*
X0292779Y0187850D02*
X0292779Y0190552D01*
X0291427Y0190552D01*
X0290977Y0190102D01*
X0290977Y0188300D01*
X0291427Y0187850D01*
X0292779Y0187850D01*
X0290016Y0187850D02*
X0288215Y0187850D01*
X0289115Y0187850D02*
X0289115Y0190552D01*
X0290016Y0189652D01*
X0289326Y0191449D02*
X0288425Y0192350D01*
X0288875Y0192350D01*
X0288875Y0192800D01*
X0288425Y0192800D01*
X0288425Y0192350D01*
X0287254Y0188300D02*
X0286803Y0188300D01*
X0286803Y0187850D01*
X0287254Y0187850D01*
X0287254Y0188300D01*
X0287064Y0196850D02*
X0288415Y0196850D01*
X0288865Y0197300D01*
X0288865Y0198201D01*
X0288415Y0198652D01*
X0287064Y0198652D01*
X0286103Y0198652D02*
X0286103Y0197300D01*
X0285652Y0196850D01*
X0284301Y0196850D01*
X0284301Y0198652D01*
X0283341Y0198652D02*
X0282440Y0198652D01*
X0282890Y0199102D02*
X0282890Y0197300D01*
X0282440Y0196850D01*
X0281499Y0196850D02*
X0281499Y0197300D01*
X0281049Y0197300D01*
X0281049Y0196850D01*
X0281499Y0196850D01*
X0281499Y0198201D02*
X0281049Y0198201D01*
X0281049Y0198652D01*
X0281499Y0198652D01*
X0281499Y0198201D01*
X0297192Y0198652D02*
X0298543Y0198652D01*
X0298994Y0198201D01*
X0298543Y0197751D01*
X0297643Y0197751D01*
X0297192Y0197300D01*
X0297643Y0196850D01*
X0298994Y0196850D01*
X0299955Y0196850D02*
X0299955Y0198652D01*
X0301756Y0198652D02*
X0301756Y0197300D01*
X0301306Y0196850D01*
X0299955Y0196850D01*
X0305479Y0196850D02*
X0305479Y0198201D01*
X0305930Y0198652D01*
X0307281Y0198652D01*
X0307281Y0196850D01*
X0308222Y0196850D02*
X0309122Y0196850D01*
X0308672Y0196850D02*
X0308672Y0198652D01*
X0309122Y0198652D01*
X0308672Y0199552D02*
X0308672Y0200003D01*
X0312846Y0198652D02*
X0314197Y0198652D01*
X0314647Y0198201D01*
X0314197Y0197751D01*
X0313296Y0197751D01*
X0312846Y0197300D01*
X0313296Y0196850D01*
X0314647Y0196850D01*
X0315588Y0196850D02*
X0316489Y0196850D01*
X0316038Y0196850D02*
X0316038Y0198652D01*
X0316489Y0198652D01*
X0316038Y0199552D02*
X0316038Y0200003D01*
X0320212Y0198201D02*
X0320662Y0198652D01*
X0321563Y0198652D01*
X0322013Y0198201D01*
X0322013Y0197300D01*
X0321563Y0196850D01*
X0320662Y0196850D01*
X0320212Y0197300D01*
X0320212Y0198201D01*
X0322964Y0198652D02*
X0323415Y0198652D01*
X0324315Y0197751D01*
X0324315Y0196850D02*
X0324315Y0198652D01*
X0325276Y0198201D02*
X0325276Y0197751D01*
X0327078Y0197751D01*
X0327078Y0198201D02*
X0326627Y0198652D01*
X0325727Y0198652D01*
X0325276Y0198201D01*
X0325727Y0196850D02*
X0326627Y0196850D01*
X0327078Y0197300D01*
X0327078Y0198201D01*
X0328039Y0199102D02*
X0329840Y0197300D01*
X0329840Y0196850D01*
X0328039Y0196850D01*
X0328039Y0199102D02*
X0328039Y0199552D01*
X0329840Y0199552D01*
X0333994Y0199552D02*
X0333994Y0200003D01*
X0333994Y0198652D02*
X0333994Y0196850D01*
X0334444Y0196850D02*
X0333543Y0196850D01*
X0333523Y0195052D02*
X0331722Y0195052D01*
X0331722Y0194602D01*
X0333523Y0192800D01*
X0333523Y0192350D01*
X0334484Y0193701D02*
X0334934Y0193251D01*
X0336286Y0193251D01*
X0336286Y0192350D02*
X0336286Y0195052D01*
X0334934Y0195052D01*
X0334484Y0194602D01*
X0334484Y0193701D01*
X0337246Y0195052D02*
X0338147Y0195052D01*
X0337697Y0195052D02*
X0337697Y0192800D01*
X0338147Y0192350D01*
X0338598Y0192350D01*
X0339048Y0192800D01*
X0337447Y0189652D02*
X0336546Y0189652D01*
X0336095Y0189201D01*
X0336095Y0187850D01*
X0337447Y0187850D01*
X0337897Y0188300D01*
X0337447Y0188751D01*
X0336095Y0188751D01*
X0335135Y0189652D02*
X0333783Y0189652D01*
X0333333Y0189201D01*
X0333333Y0187850D01*
X0332372Y0188300D02*
X0332372Y0189201D01*
X0331922Y0189652D01*
X0330571Y0189652D01*
X0330571Y0190552D02*
X0330571Y0187850D01*
X0331922Y0187850D01*
X0332372Y0188300D01*
X0335135Y0187850D02*
X0335135Y0189652D01*
X0330761Y0191449D02*
X0329860Y0192350D01*
X0330311Y0192350D01*
X0330311Y0192800D01*
X0329860Y0192800D01*
X0329860Y0192350D01*
X0326397Y0191003D02*
X0326397Y0190552D01*
X0326397Y0189652D02*
X0326397Y0187850D01*
X0325947Y0187850D02*
X0326848Y0187850D01*
X0326848Y0189652D02*
X0326397Y0189652D01*
X0325006Y0189652D02*
X0323655Y0189652D01*
X0323204Y0189201D01*
X0323204Y0187850D01*
X0322244Y0187850D02*
X0320892Y0187850D01*
X0320442Y0188300D01*
X0320892Y0188751D01*
X0321793Y0188751D01*
X0322244Y0189201D01*
X0321793Y0189652D01*
X0320442Y0189652D01*
X0319481Y0189652D02*
X0318581Y0189652D01*
X0319031Y0190102D02*
X0319031Y0188300D01*
X0318581Y0187850D01*
X0317640Y0188300D02*
X0317189Y0188751D01*
X0315838Y0188751D01*
X0315838Y0189201D02*
X0315838Y0187850D01*
X0317189Y0187850D01*
X0317640Y0188300D01*
X0317189Y0189652D02*
X0316289Y0189652D01*
X0315838Y0189201D01*
X0314877Y0187850D02*
X0313977Y0187850D01*
X0314427Y0187850D02*
X0314427Y0190552D01*
X0314877Y0190552D01*
X0313036Y0190552D02*
X0312585Y0190552D01*
X0312585Y0187850D01*
X0312135Y0187850D02*
X0313036Y0187850D01*
X0312816Y0192350D02*
X0312365Y0192350D01*
X0311915Y0192800D01*
X0311915Y0195052D01*
X0312365Y0195052D02*
X0311464Y0195052D01*
X0310504Y0195052D02*
X0309152Y0195052D01*
X0308702Y0194602D01*
X0308702Y0193701D01*
X0309152Y0193251D01*
X0310504Y0193251D01*
X0310504Y0192350D02*
X0310504Y0195052D01*
X0307741Y0194602D02*
X0307741Y0194152D01*
X0307291Y0193701D01*
X0305940Y0193701D01*
X0305940Y0192800D02*
X0305940Y0194602D01*
X0306390Y0195052D01*
X0307291Y0195052D01*
X0307741Y0194602D01*
X0307741Y0192800D02*
X0307291Y0192350D01*
X0306390Y0192350D01*
X0305940Y0192800D01*
X0304529Y0192800D02*
X0304529Y0192350D01*
X0304078Y0192350D01*
X0304078Y0192800D01*
X0304529Y0192800D01*
X0304078Y0192350D02*
X0304979Y0191449D01*
X0305219Y0191003D02*
X0305219Y0190552D01*
X0305219Y0189652D02*
X0305219Y0187850D01*
X0304769Y0187850D02*
X0305670Y0187850D01*
X0306630Y0187850D02*
X0307981Y0187850D01*
X0308432Y0188300D01*
X0308432Y0189201D01*
X0307981Y0189652D01*
X0306630Y0189652D01*
X0306630Y0190552D02*
X0306630Y0187850D01*
X0305670Y0189652D02*
X0305219Y0189652D01*
X0303828Y0189201D02*
X0303828Y0188300D01*
X0303378Y0187850D01*
X0302477Y0187850D01*
X0302026Y0188300D01*
X0302026Y0189201D01*
X0302477Y0189652D01*
X0303378Y0189652D01*
X0303828Y0189201D01*
X0312816Y0192350D02*
X0313266Y0192800D01*
X0316969Y0192800D02*
X0317420Y0192800D01*
X0317420Y0192350D01*
X0316969Y0192350D01*
X0316969Y0192800D01*
X0316969Y0192350D02*
X0317870Y0191449D01*
X0318831Y0192800D02*
X0319281Y0192350D01*
X0320182Y0192350D01*
X0320632Y0192800D01*
X0320632Y0193251D01*
X0320182Y0193701D01*
X0319281Y0193701D01*
X0318831Y0193251D01*
X0318831Y0192800D01*
X0319281Y0193701D02*
X0318831Y0194152D01*
X0318831Y0194602D01*
X0319281Y0195052D01*
X0320182Y0195052D01*
X0320632Y0194602D01*
X0320632Y0194152D01*
X0320182Y0193701D01*
X0321593Y0193701D02*
X0322043Y0193251D01*
X0323395Y0193251D01*
X0323395Y0192350D02*
X0323395Y0195052D01*
X0322043Y0195052D01*
X0321593Y0194602D01*
X0321593Y0193701D01*
X0324355Y0195052D02*
X0325256Y0195052D01*
X0324806Y0195052D02*
X0324806Y0192800D01*
X0325256Y0192350D01*
X0325707Y0192350D01*
X0326157Y0192800D01*
X0325006Y0189652D02*
X0325006Y0187850D01*
X0333994Y0198652D02*
X0334444Y0198652D01*
X0335405Y0199102D02*
X0335405Y0198201D01*
X0335855Y0197751D01*
X0337206Y0197751D01*
X0337206Y0196850D02*
X0337206Y0199552D01*
X0335855Y0199552D01*
X0335405Y0199102D01*
X0340910Y0199552D02*
X0341360Y0199102D01*
X0341360Y0196850D01*
X0342751Y0196850D02*
X0343652Y0196850D01*
X0343202Y0196850D02*
X0343202Y0199552D01*
X0343652Y0199552D02*
X0342751Y0199552D01*
X0341810Y0198201D02*
X0340910Y0198201D01*
X0341665Y0275650D02*
X0341665Y0277752D01*
X0340264Y0277752D01*
X0340964Y0276701D02*
X0341665Y0276701D01*
X0342474Y0277051D02*
X0342824Y0276701D01*
X0343875Y0276701D01*
X0344684Y0276701D02*
X0345034Y0276351D01*
X0346085Y0276351D01*
X0345384Y0276351D02*
X0344684Y0275650D01*
X0343875Y0275650D02*
X0342824Y0275650D01*
X0342474Y0276000D01*
X0342474Y0276351D01*
X0342824Y0276701D01*
X0342474Y0277051D02*
X0342474Y0277401D01*
X0342824Y0277752D01*
X0343875Y0277752D01*
X0343875Y0275650D01*
X0344684Y0276701D02*
X0344684Y0277401D01*
X0345034Y0277752D01*
X0346085Y0277752D01*
X0346085Y0275650D01*
X0345734Y0279250D02*
X0345034Y0279250D01*
X0344684Y0279600D01*
X0343875Y0279600D02*
X0343525Y0279250D01*
X0342474Y0279250D01*
X0342474Y0280651D01*
X0341665Y0280651D02*
X0340964Y0280651D01*
X0341315Y0281001D02*
X0341315Y0279600D01*
X0340964Y0279250D01*
X0343875Y0279600D02*
X0343875Y0280651D01*
X0344684Y0281001D02*
X0345034Y0281352D01*
X0345734Y0281352D01*
X0346085Y0281001D01*
X0346085Y0279600D01*
X0345734Y0279250D01*
X0337982Y0279600D02*
X0337632Y0279250D01*
X0337281Y0279250D01*
X0336931Y0279600D01*
X0336931Y0281352D01*
X0337281Y0281352D02*
X0336581Y0281352D01*
X0335772Y0281352D02*
X0334721Y0281352D01*
X0334371Y0281001D01*
X0334371Y0280301D01*
X0334721Y0279951D01*
X0335772Y0279951D01*
X0335772Y0279250D02*
X0335772Y0281352D01*
X0333562Y0281352D02*
X0333562Y0280301D01*
X0332862Y0280651D01*
X0332511Y0280651D01*
X0332161Y0280301D01*
X0332161Y0279600D01*
X0332511Y0279250D01*
X0333212Y0279250D01*
X0333562Y0279600D01*
X0333562Y0281352D02*
X0332161Y0281352D01*
X0329142Y0280651D02*
X0328792Y0280651D01*
X0328792Y0279250D01*
X0329142Y0279250D02*
X0328442Y0279250D01*
X0327319Y0279250D02*
X0327319Y0281001D01*
X0326968Y0281352D01*
X0326968Y0280301D02*
X0327669Y0280301D01*
X0328792Y0281352D02*
X0328792Y0281702D01*
X0328792Y0277051D02*
X0327741Y0277051D01*
X0328091Y0276351D02*
X0328792Y0276351D01*
X0329142Y0276701D01*
X0328792Y0277051D01*
X0328091Y0276351D02*
X0327741Y0276000D01*
X0328091Y0275650D01*
X0329142Y0275650D01*
X0329951Y0275650D02*
X0329951Y0277051D01*
X0329951Y0275650D02*
X0331002Y0275650D01*
X0331352Y0276000D01*
X0331352Y0277051D01*
X0334371Y0277051D02*
X0335422Y0277051D01*
X0335772Y0276701D01*
X0335422Y0276351D01*
X0334721Y0276351D01*
X0334371Y0276000D01*
X0334721Y0275650D01*
X0335772Y0275650D01*
X0336545Y0275650D02*
X0337245Y0275650D01*
X0336895Y0275650D02*
X0336895Y0277051D01*
X0337245Y0277051D01*
X0336895Y0277752D02*
X0336895Y0278102D01*
X0326932Y0276701D02*
X0326582Y0277051D01*
X0325882Y0277051D01*
X0325531Y0276701D01*
X0325531Y0276351D01*
X0326932Y0276351D01*
X0326932Y0276701D02*
X0326932Y0276000D01*
X0326582Y0275650D01*
X0325882Y0275650D01*
X0324723Y0276000D02*
X0324723Y0276701D01*
X0324372Y0277051D01*
X0323321Y0277051D01*
X0323321Y0277752D02*
X0323321Y0275650D01*
X0324372Y0275650D01*
X0324723Y0276000D01*
D12*
X0340335Y0272800D02*
X0340335Y0268400D01*
X0340337Y0268317D01*
X0340343Y0268234D01*
X0340352Y0268151D01*
X0340366Y0268069D01*
X0340383Y0267988D01*
X0340404Y0267907D01*
X0340428Y0267828D01*
X0340457Y0267750D01*
X0340488Y0267673D01*
X0340524Y0267598D01*
X0340562Y0267524D01*
X0340605Y0267452D01*
X0340650Y0267383D01*
X0340699Y0267315D01*
X0340750Y0267250D01*
X0340805Y0267187D01*
X0340862Y0267127D01*
X0340922Y0267070D01*
X0340985Y0267015D01*
X0341050Y0266964D01*
X0341118Y0266915D01*
X0341187Y0266870D01*
X0341259Y0266827D01*
X0341333Y0266789D01*
X0341408Y0266753D01*
X0341485Y0266722D01*
X0341563Y0266693D01*
X0341642Y0266669D01*
X0341723Y0266648D01*
X0341804Y0266631D01*
X0341886Y0266617D01*
X0341969Y0266608D01*
X0342052Y0266602D01*
X0342135Y0266600D01*
X0348135Y0266600D01*
X0348218Y0266602D01*
X0348301Y0266608D01*
X0348384Y0266617D01*
X0348466Y0266631D01*
X0348547Y0266648D01*
X0348628Y0266669D01*
X0348707Y0266693D01*
X0348785Y0266722D01*
X0348862Y0266753D01*
X0348937Y0266789D01*
X0349011Y0266827D01*
X0349083Y0266870D01*
X0349152Y0266915D01*
X0349220Y0266964D01*
X0349285Y0267015D01*
X0349348Y0267070D01*
X0349408Y0267127D01*
X0349465Y0267187D01*
X0349520Y0267250D01*
X0349571Y0267315D01*
X0349620Y0267383D01*
X0349665Y0267452D01*
X0349708Y0267524D01*
X0349746Y0267598D01*
X0349782Y0267673D01*
X0349813Y0267750D01*
X0349842Y0267828D01*
X0349866Y0267907D01*
X0349887Y0267988D01*
X0349904Y0268069D01*
X0349918Y0268151D01*
X0349927Y0268234D01*
X0349933Y0268317D01*
X0349935Y0268400D01*
X0349935Y0272800D01*
X0349933Y0272883D01*
X0349927Y0272966D01*
X0349918Y0273049D01*
X0349904Y0273131D01*
X0349887Y0273212D01*
X0349866Y0273293D01*
X0349842Y0273372D01*
X0349813Y0273450D01*
X0349782Y0273527D01*
X0349746Y0273602D01*
X0349708Y0273676D01*
X0349665Y0273748D01*
X0349620Y0273817D01*
X0349571Y0273885D01*
X0349520Y0273950D01*
X0349465Y0274013D01*
X0349408Y0274073D01*
X0349348Y0274130D01*
X0349285Y0274185D01*
X0349220Y0274236D01*
X0349152Y0274285D01*
X0349083Y0274330D01*
X0349011Y0274373D01*
X0348937Y0274411D01*
X0348862Y0274447D01*
X0348785Y0274478D01*
X0348707Y0274507D01*
X0348628Y0274531D01*
X0348547Y0274552D01*
X0348466Y0274569D01*
X0348384Y0274583D01*
X0348301Y0274592D01*
X0348218Y0274598D01*
X0348135Y0274600D01*
X0342135Y0274600D01*
X0342052Y0274598D01*
X0341969Y0274592D01*
X0341886Y0274583D01*
X0341804Y0274569D01*
X0341723Y0274552D01*
X0341642Y0274531D01*
X0341563Y0274507D01*
X0341485Y0274478D01*
X0341408Y0274447D01*
X0341333Y0274411D01*
X0341259Y0274373D01*
X0341187Y0274330D01*
X0341118Y0274285D01*
X0341050Y0274236D01*
X0340985Y0274185D01*
X0340922Y0274130D01*
X0340862Y0274073D01*
X0340805Y0274013D01*
X0340750Y0273950D01*
X0340699Y0273885D01*
X0340650Y0273817D01*
X0340605Y0273748D01*
X0340562Y0273676D01*
X0340524Y0273602D01*
X0340488Y0273527D01*
X0340457Y0273450D01*
X0340428Y0273372D01*
X0340404Y0273293D01*
X0340383Y0273212D01*
X0340366Y0273131D01*
X0340352Y0273049D01*
X0340343Y0272966D01*
X0340337Y0272883D01*
X0340335Y0272800D01*
X0292035Y0217400D02*
X0286035Y0217400D01*
X0285952Y0217398D01*
X0285869Y0217392D01*
X0285786Y0217383D01*
X0285704Y0217369D01*
X0285623Y0217352D01*
X0285542Y0217331D01*
X0285463Y0217307D01*
X0285385Y0217278D01*
X0285308Y0217247D01*
X0285233Y0217211D01*
X0285159Y0217173D01*
X0285087Y0217130D01*
X0285018Y0217085D01*
X0284950Y0217036D01*
X0284885Y0216985D01*
X0284822Y0216930D01*
X0284762Y0216873D01*
X0284705Y0216813D01*
X0284650Y0216750D01*
X0284599Y0216685D01*
X0284550Y0216617D01*
X0284505Y0216548D01*
X0284462Y0216476D01*
X0284424Y0216402D01*
X0284388Y0216327D01*
X0284357Y0216250D01*
X0284328Y0216172D01*
X0284304Y0216093D01*
X0284283Y0216012D01*
X0284266Y0215931D01*
X0284252Y0215849D01*
X0284243Y0215766D01*
X0284237Y0215683D01*
X0284235Y0215600D01*
X0284235Y0211200D01*
X0284237Y0211117D01*
X0284243Y0211034D01*
X0284252Y0210951D01*
X0284266Y0210869D01*
X0284283Y0210788D01*
X0284304Y0210707D01*
X0284328Y0210628D01*
X0284357Y0210550D01*
X0284388Y0210473D01*
X0284424Y0210398D01*
X0284462Y0210324D01*
X0284505Y0210252D01*
X0284550Y0210183D01*
X0284599Y0210115D01*
X0284650Y0210050D01*
X0284705Y0209987D01*
X0284762Y0209927D01*
X0284822Y0209870D01*
X0284885Y0209815D01*
X0284950Y0209764D01*
X0285018Y0209715D01*
X0285087Y0209670D01*
X0285159Y0209627D01*
X0285233Y0209589D01*
X0285308Y0209553D01*
X0285385Y0209522D01*
X0285463Y0209493D01*
X0285542Y0209469D01*
X0285623Y0209448D01*
X0285704Y0209431D01*
X0285786Y0209417D01*
X0285869Y0209408D01*
X0285952Y0209402D01*
X0286035Y0209400D01*
X0292035Y0209400D01*
X0292118Y0209402D01*
X0292201Y0209408D01*
X0292284Y0209417D01*
X0292366Y0209431D01*
X0292447Y0209448D01*
X0292528Y0209469D01*
X0292607Y0209493D01*
X0292685Y0209522D01*
X0292762Y0209553D01*
X0292837Y0209589D01*
X0292911Y0209627D01*
X0292983Y0209670D01*
X0293052Y0209715D01*
X0293120Y0209764D01*
X0293185Y0209815D01*
X0293248Y0209870D01*
X0293308Y0209927D01*
X0293365Y0209987D01*
X0293420Y0210050D01*
X0293471Y0210115D01*
X0293520Y0210183D01*
X0293565Y0210252D01*
X0293608Y0210324D01*
X0293646Y0210398D01*
X0293682Y0210473D01*
X0293713Y0210550D01*
X0293742Y0210628D01*
X0293766Y0210707D01*
X0293787Y0210788D01*
X0293804Y0210869D01*
X0293818Y0210951D01*
X0293827Y0211034D01*
X0293833Y0211117D01*
X0293835Y0211200D01*
X0293835Y0215600D01*
X0293833Y0215683D01*
X0293827Y0215766D01*
X0293818Y0215849D01*
X0293804Y0215931D01*
X0293787Y0216012D01*
X0293766Y0216093D01*
X0293742Y0216172D01*
X0293713Y0216250D01*
X0293682Y0216327D01*
X0293646Y0216402D01*
X0293608Y0216476D01*
X0293565Y0216548D01*
X0293520Y0216617D01*
X0293471Y0216685D01*
X0293420Y0216750D01*
X0293365Y0216813D01*
X0293308Y0216873D01*
X0293248Y0216930D01*
X0293185Y0216985D01*
X0293120Y0217036D01*
X0293052Y0217085D01*
X0292983Y0217130D01*
X0292911Y0217173D01*
X0292837Y0217211D01*
X0292762Y0217247D01*
X0292685Y0217278D01*
X0292607Y0217307D01*
X0292528Y0217331D01*
X0292447Y0217352D01*
X0292366Y0217369D01*
X0292284Y0217383D01*
X0292201Y0217392D01*
X0292118Y0217398D01*
X0292035Y0217400D01*
X0295335Y0184500D02*
X0301335Y0184500D01*
X0301418Y0184498D01*
X0301501Y0184492D01*
X0301584Y0184483D01*
X0301666Y0184469D01*
X0301747Y0184452D01*
X0301828Y0184431D01*
X0301907Y0184407D01*
X0301985Y0184378D01*
X0302062Y0184347D01*
X0302137Y0184311D01*
X0302211Y0184273D01*
X0302283Y0184230D01*
X0302352Y0184185D01*
X0302420Y0184136D01*
X0302485Y0184085D01*
X0302548Y0184030D01*
X0302608Y0183973D01*
X0302665Y0183913D01*
X0302720Y0183850D01*
X0302771Y0183785D01*
X0302820Y0183717D01*
X0302865Y0183648D01*
X0302908Y0183576D01*
X0302946Y0183502D01*
X0302982Y0183427D01*
X0303013Y0183350D01*
X0303042Y0183272D01*
X0303066Y0183193D01*
X0303087Y0183112D01*
X0303104Y0183031D01*
X0303118Y0182949D01*
X0303127Y0182866D01*
X0303133Y0182783D01*
X0303135Y0182700D01*
X0303135Y0178300D01*
X0303133Y0178217D01*
X0303127Y0178134D01*
X0303118Y0178051D01*
X0303104Y0177969D01*
X0303087Y0177888D01*
X0303066Y0177807D01*
X0303042Y0177728D01*
X0303013Y0177650D01*
X0302982Y0177573D01*
X0302946Y0177498D01*
X0302908Y0177424D01*
X0302865Y0177352D01*
X0302820Y0177283D01*
X0302771Y0177215D01*
X0302720Y0177150D01*
X0302665Y0177087D01*
X0302608Y0177027D01*
X0302548Y0176970D01*
X0302485Y0176915D01*
X0302420Y0176864D01*
X0302352Y0176815D01*
X0302283Y0176770D01*
X0302211Y0176727D01*
X0302137Y0176689D01*
X0302062Y0176653D01*
X0301985Y0176622D01*
X0301907Y0176593D01*
X0301828Y0176569D01*
X0301747Y0176548D01*
X0301666Y0176531D01*
X0301584Y0176517D01*
X0301501Y0176508D01*
X0301418Y0176502D01*
X0301335Y0176500D01*
X0295335Y0176500D01*
X0295252Y0176502D01*
X0295169Y0176508D01*
X0295086Y0176517D01*
X0295004Y0176531D01*
X0294923Y0176548D01*
X0294842Y0176569D01*
X0294763Y0176593D01*
X0294685Y0176622D01*
X0294608Y0176653D01*
X0294533Y0176689D01*
X0294459Y0176727D01*
X0294387Y0176770D01*
X0294318Y0176815D01*
X0294250Y0176864D01*
X0294185Y0176915D01*
X0294122Y0176970D01*
X0294062Y0177027D01*
X0294005Y0177087D01*
X0293950Y0177150D01*
X0293899Y0177215D01*
X0293850Y0177283D01*
X0293805Y0177352D01*
X0293762Y0177424D01*
X0293724Y0177498D01*
X0293688Y0177573D01*
X0293657Y0177650D01*
X0293628Y0177728D01*
X0293604Y0177807D01*
X0293583Y0177888D01*
X0293566Y0177969D01*
X0293552Y0178051D01*
X0293543Y0178134D01*
X0293537Y0178217D01*
X0293535Y0178300D01*
X0293535Y0182700D01*
X0293537Y0182783D01*
X0293543Y0182866D01*
X0293552Y0182949D01*
X0293566Y0183031D01*
X0293583Y0183112D01*
X0293604Y0183193D01*
X0293628Y0183272D01*
X0293657Y0183350D01*
X0293688Y0183427D01*
X0293724Y0183502D01*
X0293762Y0183576D01*
X0293805Y0183648D01*
X0293850Y0183717D01*
X0293899Y0183785D01*
X0293950Y0183850D01*
X0294005Y0183913D01*
X0294062Y0183973D01*
X0294122Y0184030D01*
X0294185Y0184085D01*
X0294250Y0184136D01*
X0294318Y0184185D01*
X0294387Y0184230D01*
X0294459Y0184273D01*
X0294533Y0184311D01*
X0294608Y0184347D01*
X0294685Y0184378D01*
X0294763Y0184407D01*
X0294842Y0184431D01*
X0294923Y0184452D01*
X0295004Y0184469D01*
X0295086Y0184483D01*
X0295169Y0184492D01*
X0295252Y0184498D01*
X0295335Y0184500D01*
X0333135Y0182700D02*
X0333135Y0178300D01*
X0333137Y0178217D01*
X0333143Y0178134D01*
X0333152Y0178051D01*
X0333166Y0177969D01*
X0333183Y0177888D01*
X0333204Y0177807D01*
X0333228Y0177728D01*
X0333257Y0177650D01*
X0333288Y0177573D01*
X0333324Y0177498D01*
X0333362Y0177424D01*
X0333405Y0177352D01*
X0333450Y0177283D01*
X0333499Y0177215D01*
X0333550Y0177150D01*
X0333605Y0177087D01*
X0333662Y0177027D01*
X0333722Y0176970D01*
X0333785Y0176915D01*
X0333850Y0176864D01*
X0333918Y0176815D01*
X0333987Y0176770D01*
X0334059Y0176727D01*
X0334133Y0176689D01*
X0334208Y0176653D01*
X0334285Y0176622D01*
X0334363Y0176593D01*
X0334442Y0176569D01*
X0334523Y0176548D01*
X0334604Y0176531D01*
X0334686Y0176517D01*
X0334769Y0176508D01*
X0334852Y0176502D01*
X0334935Y0176500D01*
X0340935Y0176500D01*
X0341018Y0176502D01*
X0341101Y0176508D01*
X0341184Y0176517D01*
X0341266Y0176531D01*
X0341347Y0176548D01*
X0341428Y0176569D01*
X0341507Y0176593D01*
X0341585Y0176622D01*
X0341662Y0176653D01*
X0341737Y0176689D01*
X0341811Y0176727D01*
X0341883Y0176770D01*
X0341952Y0176815D01*
X0342020Y0176864D01*
X0342085Y0176915D01*
X0342148Y0176970D01*
X0342208Y0177027D01*
X0342265Y0177087D01*
X0342320Y0177150D01*
X0342371Y0177215D01*
X0342420Y0177283D01*
X0342465Y0177352D01*
X0342508Y0177424D01*
X0342546Y0177498D01*
X0342582Y0177573D01*
X0342613Y0177650D01*
X0342642Y0177728D01*
X0342666Y0177807D01*
X0342687Y0177888D01*
X0342704Y0177969D01*
X0342718Y0178051D01*
X0342727Y0178134D01*
X0342733Y0178217D01*
X0342735Y0178300D01*
X0342735Y0182700D01*
X0342733Y0182783D01*
X0342727Y0182866D01*
X0342718Y0182949D01*
X0342704Y0183031D01*
X0342687Y0183112D01*
X0342666Y0183193D01*
X0342642Y0183272D01*
X0342613Y0183350D01*
X0342582Y0183427D01*
X0342546Y0183502D01*
X0342508Y0183576D01*
X0342465Y0183648D01*
X0342420Y0183717D01*
X0342371Y0183785D01*
X0342320Y0183850D01*
X0342265Y0183913D01*
X0342208Y0183973D01*
X0342148Y0184030D01*
X0342085Y0184085D01*
X0342020Y0184136D01*
X0341952Y0184185D01*
X0341883Y0184230D01*
X0341811Y0184273D01*
X0341737Y0184311D01*
X0341662Y0184347D01*
X0341585Y0184378D01*
X0341507Y0184407D01*
X0341428Y0184431D01*
X0341347Y0184452D01*
X0341266Y0184469D01*
X0341184Y0184483D01*
X0341101Y0184492D01*
X0341018Y0184498D01*
X0340935Y0184500D01*
X0334935Y0184500D01*
X0334852Y0184498D01*
X0334769Y0184492D01*
X0334686Y0184483D01*
X0334604Y0184469D01*
X0334523Y0184452D01*
X0334442Y0184431D01*
X0334363Y0184407D01*
X0334285Y0184378D01*
X0334208Y0184347D01*
X0334133Y0184311D01*
X0334059Y0184273D01*
X0333987Y0184230D01*
X0333918Y0184185D01*
X0333850Y0184136D01*
X0333785Y0184085D01*
X0333722Y0184030D01*
X0333662Y0183973D01*
X0333605Y0183913D01*
X0333550Y0183850D01*
X0333499Y0183785D01*
X0333450Y0183717D01*
X0333405Y0183648D01*
X0333362Y0183576D01*
X0333324Y0183502D01*
X0333288Y0183427D01*
X0333257Y0183350D01*
X0333228Y0183272D01*
X0333204Y0183193D01*
X0333183Y0183112D01*
X0333166Y0183031D01*
X0333152Y0182949D01*
X0333143Y0182866D01*
X0333137Y0182783D01*
X0333135Y0182700D01*
X0253935Y0246100D02*
X0253935Y0250500D01*
X0253933Y0250583D01*
X0253927Y0250666D01*
X0253918Y0250749D01*
X0253904Y0250831D01*
X0253887Y0250912D01*
X0253866Y0250993D01*
X0253842Y0251072D01*
X0253813Y0251150D01*
X0253782Y0251227D01*
X0253746Y0251302D01*
X0253708Y0251376D01*
X0253665Y0251448D01*
X0253620Y0251517D01*
X0253571Y0251585D01*
X0253520Y0251650D01*
X0253465Y0251713D01*
X0253408Y0251773D01*
X0253348Y0251830D01*
X0253285Y0251885D01*
X0253220Y0251936D01*
X0253152Y0251985D01*
X0253083Y0252030D01*
X0253011Y0252073D01*
X0252937Y0252111D01*
X0252862Y0252147D01*
X0252785Y0252178D01*
X0252707Y0252207D01*
X0252628Y0252231D01*
X0252547Y0252252D01*
X0252466Y0252269D01*
X0252384Y0252283D01*
X0252301Y0252292D01*
X0252218Y0252298D01*
X0252135Y0252300D01*
X0246135Y0252300D01*
X0246052Y0252298D01*
X0245969Y0252292D01*
X0245886Y0252283D01*
X0245804Y0252269D01*
X0245723Y0252252D01*
X0245642Y0252231D01*
X0245563Y0252207D01*
X0245485Y0252178D01*
X0245408Y0252147D01*
X0245333Y0252111D01*
X0245259Y0252073D01*
X0245187Y0252030D01*
X0245118Y0251985D01*
X0245050Y0251936D01*
X0244985Y0251885D01*
X0244922Y0251830D01*
X0244862Y0251773D01*
X0244805Y0251713D01*
X0244750Y0251650D01*
X0244699Y0251585D01*
X0244650Y0251517D01*
X0244605Y0251448D01*
X0244562Y0251376D01*
X0244524Y0251302D01*
X0244488Y0251227D01*
X0244457Y0251150D01*
X0244428Y0251072D01*
X0244404Y0250993D01*
X0244383Y0250912D01*
X0244366Y0250831D01*
X0244352Y0250749D01*
X0244343Y0250666D01*
X0244337Y0250583D01*
X0244335Y0250500D01*
X0244335Y0246100D01*
X0244337Y0246017D01*
X0244343Y0245934D01*
X0244352Y0245851D01*
X0244366Y0245769D01*
X0244383Y0245688D01*
X0244404Y0245607D01*
X0244428Y0245528D01*
X0244457Y0245450D01*
X0244488Y0245373D01*
X0244524Y0245298D01*
X0244562Y0245224D01*
X0244605Y0245152D01*
X0244650Y0245083D01*
X0244699Y0245015D01*
X0244750Y0244950D01*
X0244805Y0244887D01*
X0244862Y0244827D01*
X0244922Y0244770D01*
X0244985Y0244715D01*
X0245050Y0244664D01*
X0245118Y0244615D01*
X0245187Y0244570D01*
X0245259Y0244527D01*
X0245333Y0244489D01*
X0245408Y0244453D01*
X0245485Y0244422D01*
X0245563Y0244393D01*
X0245642Y0244369D01*
X0245723Y0244348D01*
X0245804Y0244331D01*
X0245886Y0244317D01*
X0245969Y0244308D01*
X0246052Y0244302D01*
X0246135Y0244300D01*
X0252135Y0244300D01*
X0252218Y0244302D01*
X0252301Y0244308D01*
X0252384Y0244317D01*
X0252466Y0244331D01*
X0252547Y0244348D01*
X0252628Y0244369D01*
X0252707Y0244393D01*
X0252785Y0244422D01*
X0252862Y0244453D01*
X0252937Y0244489D01*
X0253011Y0244527D01*
X0253083Y0244570D01*
X0253152Y0244615D01*
X0253220Y0244664D01*
X0253285Y0244715D01*
X0253348Y0244770D01*
X0253408Y0244827D01*
X0253465Y0244887D01*
X0253520Y0244950D01*
X0253571Y0245015D01*
X0253620Y0245083D01*
X0253665Y0245152D01*
X0253708Y0245224D01*
X0253746Y0245298D01*
X0253782Y0245373D01*
X0253813Y0245450D01*
X0253842Y0245528D01*
X0253866Y0245607D01*
X0253887Y0245688D01*
X0253904Y0245769D01*
X0253918Y0245851D01*
X0253927Y0245934D01*
X0253933Y0246017D01*
X0253935Y0246100D01*
X0236735Y0279800D02*
X0236935Y0318400D01*
X0236735Y0279800D02*
X0152435Y0279900D01*
X0152135Y0279800D02*
X0152135Y0318300D01*
X0183435Y0252400D02*
X0189435Y0252400D01*
X0189518Y0252398D01*
X0189601Y0252392D01*
X0189684Y0252383D01*
X0189766Y0252369D01*
X0189847Y0252352D01*
X0189928Y0252331D01*
X0190007Y0252307D01*
X0190085Y0252278D01*
X0190162Y0252247D01*
X0190237Y0252211D01*
X0190311Y0252173D01*
X0190383Y0252130D01*
X0190452Y0252085D01*
X0190520Y0252036D01*
X0190585Y0251985D01*
X0190648Y0251930D01*
X0190708Y0251873D01*
X0190765Y0251813D01*
X0190820Y0251750D01*
X0190871Y0251685D01*
X0190920Y0251617D01*
X0190965Y0251548D01*
X0191008Y0251476D01*
X0191046Y0251402D01*
X0191082Y0251327D01*
X0191113Y0251250D01*
X0191142Y0251172D01*
X0191166Y0251093D01*
X0191187Y0251012D01*
X0191204Y0250931D01*
X0191218Y0250849D01*
X0191227Y0250766D01*
X0191233Y0250683D01*
X0191235Y0250600D01*
X0191235Y0246200D01*
X0191233Y0246117D01*
X0191227Y0246034D01*
X0191218Y0245951D01*
X0191204Y0245869D01*
X0191187Y0245788D01*
X0191166Y0245707D01*
X0191142Y0245628D01*
X0191113Y0245550D01*
X0191082Y0245473D01*
X0191046Y0245398D01*
X0191008Y0245324D01*
X0190965Y0245252D01*
X0190920Y0245183D01*
X0190871Y0245115D01*
X0190820Y0245050D01*
X0190765Y0244987D01*
X0190708Y0244927D01*
X0190648Y0244870D01*
X0190585Y0244815D01*
X0190520Y0244764D01*
X0190452Y0244715D01*
X0190383Y0244670D01*
X0190311Y0244627D01*
X0190237Y0244589D01*
X0190162Y0244553D01*
X0190085Y0244522D01*
X0190007Y0244493D01*
X0189928Y0244469D01*
X0189847Y0244448D01*
X0189766Y0244431D01*
X0189684Y0244417D01*
X0189601Y0244408D01*
X0189518Y0244402D01*
X0189435Y0244400D01*
X0183435Y0244400D01*
X0183352Y0244402D01*
X0183269Y0244408D01*
X0183186Y0244417D01*
X0183104Y0244431D01*
X0183023Y0244448D01*
X0182942Y0244469D01*
X0182863Y0244493D01*
X0182785Y0244522D01*
X0182708Y0244553D01*
X0182633Y0244589D01*
X0182559Y0244627D01*
X0182487Y0244670D01*
X0182418Y0244715D01*
X0182350Y0244764D01*
X0182285Y0244815D01*
X0182222Y0244870D01*
X0182162Y0244927D01*
X0182105Y0244987D01*
X0182050Y0245050D01*
X0181999Y0245115D01*
X0181950Y0245183D01*
X0181905Y0245252D01*
X0181862Y0245324D01*
X0181824Y0245398D01*
X0181788Y0245473D01*
X0181757Y0245550D01*
X0181728Y0245628D01*
X0181704Y0245707D01*
X0181683Y0245788D01*
X0181666Y0245869D01*
X0181652Y0245951D01*
X0181643Y0246034D01*
X0181637Y0246117D01*
X0181635Y0246200D01*
X0181635Y0250600D01*
X0181637Y0250683D01*
X0181643Y0250766D01*
X0181652Y0250849D01*
X0181666Y0250931D01*
X0181683Y0251012D01*
X0181704Y0251093D01*
X0181728Y0251172D01*
X0181757Y0251250D01*
X0181788Y0251327D01*
X0181824Y0251402D01*
X0181862Y0251476D01*
X0181905Y0251548D01*
X0181950Y0251617D01*
X0181999Y0251685D01*
X0182050Y0251750D01*
X0182105Y0251813D01*
X0182162Y0251873D01*
X0182222Y0251930D01*
X0182285Y0251985D01*
X0182350Y0252036D01*
X0182418Y0252085D01*
X0182487Y0252130D01*
X0182559Y0252173D01*
X0182633Y0252211D01*
X0182708Y0252247D01*
X0182785Y0252278D01*
X0182863Y0252307D01*
X0182942Y0252331D01*
X0183023Y0252352D01*
X0183104Y0252369D01*
X0183186Y0252383D01*
X0183269Y0252392D01*
X0183352Y0252398D01*
X0183435Y0252400D01*
X0078645Y0253836D02*
X0072145Y0253836D01*
X0073548Y0284205D02*
X0073645Y0284207D01*
X0073743Y0284213D01*
X0073839Y0284222D01*
X0073936Y0284236D01*
X0074032Y0284253D01*
X0074127Y0284274D01*
X0074221Y0284298D01*
X0074314Y0284326D01*
X0074406Y0284358D01*
X0074497Y0284394D01*
X0074586Y0284433D01*
X0074674Y0284475D01*
X0074760Y0284521D01*
X0074844Y0284570D01*
X0074926Y0284623D01*
X0075006Y0284679D01*
X0075083Y0284737D01*
X0075159Y0284799D01*
X0075231Y0284864D01*
X0075302Y0284931D01*
X0075369Y0285002D01*
X0075434Y0285074D01*
X0075496Y0285150D01*
X0075554Y0285227D01*
X0075610Y0285307D01*
X0075663Y0285389D01*
X0075712Y0285473D01*
X0075758Y0285559D01*
X0075800Y0285647D01*
X0075839Y0285736D01*
X0075875Y0285827D01*
X0075907Y0285919D01*
X0075935Y0286012D01*
X0075959Y0286106D01*
X0075980Y0286201D01*
X0075997Y0286297D01*
X0076011Y0286394D01*
X0076020Y0286490D01*
X0076026Y0286588D01*
X0076028Y0286685D01*
X0076028Y0306528D02*
X0076026Y0306625D01*
X0076020Y0306723D01*
X0076011Y0306819D01*
X0075997Y0306916D01*
X0075980Y0307012D01*
X0075959Y0307107D01*
X0075935Y0307201D01*
X0075907Y0307294D01*
X0075875Y0307386D01*
X0075839Y0307477D01*
X0075800Y0307566D01*
X0075758Y0307654D01*
X0075712Y0307740D01*
X0075663Y0307824D01*
X0075610Y0307906D01*
X0075554Y0307986D01*
X0075496Y0308063D01*
X0075434Y0308139D01*
X0075369Y0308211D01*
X0075302Y0308282D01*
X0075231Y0308349D01*
X0075159Y0308414D01*
X0075083Y0308476D01*
X0075006Y0308534D01*
X0074926Y0308590D01*
X0074844Y0308643D01*
X0074760Y0308692D01*
X0074674Y0308738D01*
X0074586Y0308780D01*
X0074497Y0308819D01*
X0074406Y0308855D01*
X0074314Y0308887D01*
X0074221Y0308915D01*
X0074127Y0308939D01*
X0074032Y0308960D01*
X0073936Y0308977D01*
X0073839Y0308991D01*
X0073743Y0309000D01*
X0073645Y0309006D01*
X0073548Y0309008D01*
X0053706Y0309008D02*
X0053609Y0309006D01*
X0053511Y0309000D01*
X0053415Y0308991D01*
X0053318Y0308977D01*
X0053222Y0308960D01*
X0053127Y0308939D01*
X0053033Y0308915D01*
X0052940Y0308887D01*
X0052848Y0308855D01*
X0052757Y0308819D01*
X0052668Y0308780D01*
X0052580Y0308738D01*
X0052494Y0308692D01*
X0052410Y0308643D01*
X0052328Y0308590D01*
X0052248Y0308534D01*
X0052171Y0308476D01*
X0052095Y0308414D01*
X0052023Y0308349D01*
X0051952Y0308282D01*
X0051885Y0308211D01*
X0051820Y0308139D01*
X0051758Y0308063D01*
X0051700Y0307986D01*
X0051644Y0307906D01*
X0051591Y0307824D01*
X0051542Y0307740D01*
X0051496Y0307654D01*
X0051454Y0307566D01*
X0051415Y0307477D01*
X0051379Y0307386D01*
X0051347Y0307294D01*
X0051319Y0307201D01*
X0051295Y0307107D01*
X0051274Y0307012D01*
X0051257Y0306916D01*
X0051243Y0306819D01*
X0051234Y0306723D01*
X0051228Y0306625D01*
X0051226Y0306528D01*
X0051226Y0286685D02*
X0051228Y0286588D01*
X0051234Y0286490D01*
X0051243Y0286394D01*
X0051257Y0286297D01*
X0051274Y0286201D01*
X0051295Y0286106D01*
X0051319Y0286012D01*
X0051347Y0285919D01*
X0051379Y0285827D01*
X0051415Y0285736D01*
X0051454Y0285647D01*
X0051496Y0285559D01*
X0051542Y0285473D01*
X0051591Y0285389D01*
X0051644Y0285307D01*
X0051700Y0285227D01*
X0051758Y0285150D01*
X0051820Y0285074D01*
X0051885Y0285002D01*
X0051952Y0284931D01*
X0052023Y0284864D01*
X0052095Y0284799D01*
X0052171Y0284737D01*
X0052248Y0284679D01*
X0052328Y0284623D01*
X0052410Y0284570D01*
X0052494Y0284521D01*
X0052580Y0284475D01*
X0052668Y0284433D01*
X0052757Y0284394D01*
X0052848Y0284358D01*
X0052940Y0284326D01*
X0053033Y0284298D01*
X0053127Y0284274D01*
X0053222Y0284253D01*
X0053318Y0284236D01*
X0053415Y0284222D01*
X0053511Y0284213D01*
X0053609Y0284207D01*
X0053706Y0284205D01*
X0241835Y0044900D02*
X0247835Y0044900D01*
X0247918Y0044898D01*
X0248001Y0044892D01*
X0248084Y0044883D01*
X0248166Y0044869D01*
X0248247Y0044852D01*
X0248328Y0044831D01*
X0248407Y0044807D01*
X0248485Y0044778D01*
X0248562Y0044747D01*
X0248637Y0044711D01*
X0248711Y0044673D01*
X0248783Y0044630D01*
X0248852Y0044585D01*
X0248920Y0044536D01*
X0248985Y0044485D01*
X0249048Y0044430D01*
X0249108Y0044373D01*
X0249165Y0044313D01*
X0249220Y0044250D01*
X0249271Y0044185D01*
X0249320Y0044117D01*
X0249365Y0044048D01*
X0249408Y0043976D01*
X0249446Y0043902D01*
X0249482Y0043827D01*
X0249513Y0043750D01*
X0249542Y0043672D01*
X0249566Y0043593D01*
X0249587Y0043512D01*
X0249604Y0043431D01*
X0249618Y0043349D01*
X0249627Y0043266D01*
X0249633Y0043183D01*
X0249635Y0043100D01*
X0249635Y0038700D01*
X0249633Y0038617D01*
X0249627Y0038534D01*
X0249618Y0038451D01*
X0249604Y0038369D01*
X0249587Y0038288D01*
X0249566Y0038207D01*
X0249542Y0038128D01*
X0249513Y0038050D01*
X0249482Y0037973D01*
X0249446Y0037898D01*
X0249408Y0037824D01*
X0249365Y0037752D01*
X0249320Y0037683D01*
X0249271Y0037615D01*
X0249220Y0037550D01*
X0249165Y0037487D01*
X0249108Y0037427D01*
X0249048Y0037370D01*
X0248985Y0037315D01*
X0248920Y0037264D01*
X0248852Y0037215D01*
X0248783Y0037170D01*
X0248711Y0037127D01*
X0248637Y0037089D01*
X0248562Y0037053D01*
X0248485Y0037022D01*
X0248407Y0036993D01*
X0248328Y0036969D01*
X0248247Y0036948D01*
X0248166Y0036931D01*
X0248084Y0036917D01*
X0248001Y0036908D01*
X0247918Y0036902D01*
X0247835Y0036900D01*
X0241835Y0036900D01*
X0241752Y0036902D01*
X0241669Y0036908D01*
X0241586Y0036917D01*
X0241504Y0036931D01*
X0241423Y0036948D01*
X0241342Y0036969D01*
X0241263Y0036993D01*
X0241185Y0037022D01*
X0241108Y0037053D01*
X0241033Y0037089D01*
X0240959Y0037127D01*
X0240887Y0037170D01*
X0240818Y0037215D01*
X0240750Y0037264D01*
X0240685Y0037315D01*
X0240622Y0037370D01*
X0240562Y0037427D01*
X0240505Y0037487D01*
X0240450Y0037550D01*
X0240399Y0037615D01*
X0240350Y0037683D01*
X0240305Y0037752D01*
X0240262Y0037824D01*
X0240224Y0037898D01*
X0240188Y0037973D01*
X0240157Y0038050D01*
X0240128Y0038128D01*
X0240104Y0038207D01*
X0240083Y0038288D01*
X0240066Y0038369D01*
X0240052Y0038451D01*
X0240043Y0038534D01*
X0240037Y0038617D01*
X0240035Y0038700D01*
X0240035Y0043100D01*
X0240037Y0043183D01*
X0240043Y0043266D01*
X0240052Y0043349D01*
X0240066Y0043431D01*
X0240083Y0043512D01*
X0240104Y0043593D01*
X0240128Y0043672D01*
X0240157Y0043750D01*
X0240188Y0043827D01*
X0240224Y0043902D01*
X0240262Y0043976D01*
X0240305Y0044048D01*
X0240350Y0044117D01*
X0240399Y0044185D01*
X0240450Y0044250D01*
X0240505Y0044313D01*
X0240562Y0044373D01*
X0240622Y0044430D01*
X0240685Y0044485D01*
X0240750Y0044536D01*
X0240818Y0044585D01*
X0240887Y0044630D01*
X0240959Y0044673D01*
X0241033Y0044711D01*
X0241108Y0044747D01*
X0241185Y0044778D01*
X0241263Y0044807D01*
X0241342Y0044831D01*
X0241423Y0044852D01*
X0241504Y0044869D01*
X0241586Y0044883D01*
X0241669Y0044892D01*
X0241752Y0044898D01*
X0241835Y0044900D01*
D13*
X0242529Y0035952D02*
X0243480Y0035001D01*
X0242212Y0035001D01*
X0242529Y0034050D02*
X0242529Y0035952D01*
X0244422Y0035635D02*
X0244422Y0035001D01*
X0244739Y0034684D01*
X0245690Y0034684D01*
X0245690Y0034050D02*
X0245690Y0035952D01*
X0244739Y0035952D01*
X0244422Y0035635D01*
X0246632Y0035952D02*
X0247266Y0035952D01*
X0246949Y0035952D02*
X0246949Y0034367D01*
X0247266Y0034050D01*
X0247583Y0034050D01*
X0247900Y0034367D01*
X0296429Y0173650D02*
X0297063Y0173650D01*
X0297380Y0173967D01*
X0297380Y0174284D01*
X0297063Y0174601D01*
X0296429Y0174601D01*
X0296112Y0174284D01*
X0296112Y0173967D01*
X0296429Y0173650D01*
X0296429Y0174601D02*
X0296112Y0174918D01*
X0296112Y0175235D01*
X0296429Y0175552D01*
X0297063Y0175552D01*
X0297380Y0175235D01*
X0297380Y0174918D01*
X0297063Y0174601D01*
X0298322Y0174601D02*
X0298639Y0174284D01*
X0299590Y0174284D01*
X0299590Y0173650D02*
X0299590Y0175552D01*
X0298639Y0175552D01*
X0298322Y0175235D01*
X0298322Y0174601D01*
X0300532Y0175552D02*
X0301166Y0175552D01*
X0300849Y0175552D02*
X0300849Y0173967D01*
X0301166Y0173650D01*
X0301483Y0173650D01*
X0301800Y0173967D01*
X0335312Y0175435D02*
X0336580Y0174167D01*
X0336580Y0173850D01*
X0337522Y0174801D02*
X0337839Y0174484D01*
X0338790Y0174484D01*
X0338790Y0173850D02*
X0338790Y0175752D01*
X0337839Y0175752D01*
X0337522Y0175435D01*
X0337522Y0174801D01*
X0336580Y0175752D02*
X0335312Y0175752D01*
X0335312Y0175435D01*
X0339732Y0175752D02*
X0340366Y0175752D01*
X0340049Y0175752D02*
X0340049Y0174167D01*
X0340366Y0173850D01*
X0340683Y0173850D01*
X0341000Y0174167D01*
X0293300Y0206967D02*
X0292983Y0206650D01*
X0292666Y0206650D01*
X0292349Y0206967D01*
X0292349Y0208552D01*
X0292666Y0208552D02*
X0292032Y0208552D01*
X0291090Y0208552D02*
X0290139Y0208552D01*
X0289822Y0208235D01*
X0289822Y0207601D01*
X0290139Y0207284D01*
X0291090Y0207284D01*
X0291090Y0206650D02*
X0291090Y0208552D01*
X0288880Y0208235D02*
X0288563Y0208552D01*
X0287929Y0208552D01*
X0287612Y0208235D01*
X0287612Y0207918D01*
X0287929Y0207601D01*
X0287612Y0207284D01*
X0287612Y0206967D01*
X0287929Y0206650D01*
X0288563Y0206650D01*
X0288880Y0206967D01*
X0288246Y0207601D02*
X0287929Y0207601D01*
X0252000Y0241567D02*
X0251683Y0241250D01*
X0251366Y0241250D01*
X0251049Y0241567D01*
X0251049Y0243152D01*
X0251366Y0243152D02*
X0250732Y0243152D01*
X0249790Y0243152D02*
X0248839Y0243152D01*
X0248522Y0242835D01*
X0248522Y0242201D01*
X0248839Y0241884D01*
X0249790Y0241884D01*
X0249790Y0241250D02*
X0249790Y0243152D01*
X0247580Y0242835D02*
X0247580Y0242518D01*
X0247263Y0242201D01*
X0246312Y0242201D01*
X0246312Y0242835D02*
X0246629Y0243152D01*
X0247263Y0243152D01*
X0247580Y0242835D01*
X0246312Y0242835D02*
X0246312Y0241567D01*
X0246629Y0241250D01*
X0247263Y0241250D01*
X0247580Y0241567D01*
X0271445Y0254536D02*
X0069845Y0254536D01*
X0069845Y0276136D01*
X0271445Y0276136D01*
X0271445Y0254536D01*
X0342512Y0262567D02*
X0342829Y0262250D01*
X0343463Y0262250D01*
X0343780Y0262567D01*
X0343780Y0263201D02*
X0343146Y0263518D01*
X0342829Y0263518D01*
X0342512Y0263201D01*
X0342512Y0262567D01*
X0343780Y0263201D02*
X0343780Y0264152D01*
X0342512Y0264152D01*
X0344722Y0263835D02*
X0344722Y0263201D01*
X0345039Y0262884D01*
X0345990Y0262884D01*
X0345990Y0262250D02*
X0345990Y0264152D01*
X0345039Y0264152D01*
X0344722Y0263835D01*
X0346932Y0264152D02*
X0347566Y0264152D01*
X0347249Y0264152D02*
X0347249Y0262567D01*
X0347566Y0262250D01*
X0347883Y0262250D01*
X0348200Y0262567D01*
X0190605Y0242067D02*
X0190288Y0241750D01*
X0189971Y0241750D01*
X0189654Y0242067D01*
X0189654Y0243652D01*
X0189971Y0243652D02*
X0189337Y0243652D01*
X0188395Y0243652D02*
X0187444Y0243652D01*
X0187127Y0243335D01*
X0187127Y0242701D01*
X0187444Y0242384D01*
X0188395Y0242384D01*
X0188395Y0241750D02*
X0188395Y0243652D01*
X0186185Y0243018D02*
X0185551Y0243652D01*
X0185551Y0241750D01*
X0186185Y0241750D02*
X0184917Y0241750D01*
X0183975Y0242067D02*
X0182707Y0243335D01*
X0182707Y0242067D01*
X0183024Y0241750D01*
X0183658Y0241750D01*
X0183975Y0242067D01*
X0183975Y0243335D01*
X0183658Y0243652D01*
X0183024Y0243652D01*
X0182707Y0243335D01*
X0164966Y0214452D02*
X0164332Y0214452D01*
X0164649Y0214452D02*
X0164649Y0212867D01*
X0164966Y0212550D01*
X0165283Y0212550D01*
X0165600Y0212867D01*
X0163390Y0213184D02*
X0162439Y0213184D01*
X0162122Y0213501D01*
X0162122Y0214135D01*
X0162439Y0214452D01*
X0163390Y0214452D01*
X0163390Y0212550D01*
X0161180Y0212550D02*
X0159912Y0213818D01*
X0159912Y0214135D01*
X0160229Y0214452D01*
X0160863Y0214452D01*
X0161180Y0214135D01*
X0161180Y0212550D02*
X0159912Y0212550D01*
X0172046Y0174552D02*
X0172046Y0172650D01*
X0172680Y0172650D02*
X0171412Y0172650D01*
X0172680Y0173918D02*
X0172046Y0174552D01*
X0173622Y0174235D02*
X0173622Y0173601D01*
X0173939Y0173284D01*
X0174890Y0173284D01*
X0174890Y0172650D02*
X0174890Y0174552D01*
X0173939Y0174552D01*
X0173622Y0174235D01*
X0175832Y0174552D02*
X0176466Y0174552D01*
X0176149Y0174552D02*
X0176149Y0172967D01*
X0176466Y0172650D01*
X0176783Y0172650D01*
X0177100Y0172967D01*
D14*
X0067795Y0256153D02*
X0067328Y0255686D01*
X0066861Y0255686D01*
X0066394Y0256153D01*
X0066394Y0258489D01*
X0066861Y0258489D02*
X0065927Y0258489D01*
X0064848Y0257554D02*
X0063914Y0258489D01*
X0063914Y0255686D01*
X0064848Y0255686D02*
X0062980Y0255686D01*
M02*
