G75*
%MOIN*%
%OFA0B0*%
%FSLAX25Y25*%
%IPPOS*%
%LPD*%
%AMOC8*
5,1,8,0,0,1.08239X$1,22.5*
%
%ADD10C,0.00000*%
%ADD11C,0.00100*%
D10*
X0056708Y0022313D02*
X0056710Y0022461D01*
X0056716Y0022609D01*
X0056726Y0022757D01*
X0056740Y0022904D01*
X0056758Y0023051D01*
X0056779Y0023197D01*
X0056805Y0023343D01*
X0056835Y0023488D01*
X0056868Y0023632D01*
X0056906Y0023775D01*
X0056947Y0023917D01*
X0056992Y0024058D01*
X0057040Y0024198D01*
X0057093Y0024337D01*
X0057149Y0024474D01*
X0057209Y0024609D01*
X0057272Y0024743D01*
X0057339Y0024875D01*
X0057410Y0025005D01*
X0057484Y0025133D01*
X0057561Y0025259D01*
X0057642Y0025383D01*
X0057726Y0025505D01*
X0057813Y0025624D01*
X0057904Y0025741D01*
X0057998Y0025856D01*
X0058094Y0025968D01*
X0058194Y0026078D01*
X0058296Y0026184D01*
X0058402Y0026288D01*
X0058510Y0026389D01*
X0058621Y0026487D01*
X0058734Y0026583D01*
X0058850Y0026675D01*
X0058968Y0026764D01*
X0059089Y0026849D01*
X0059212Y0026932D01*
X0059337Y0027011D01*
X0059464Y0027087D01*
X0059593Y0027159D01*
X0059724Y0027228D01*
X0059857Y0027293D01*
X0059992Y0027354D01*
X0060128Y0027412D01*
X0060265Y0027467D01*
X0060404Y0027517D01*
X0060545Y0027564D01*
X0060686Y0027607D01*
X0060829Y0027647D01*
X0060973Y0027682D01*
X0061117Y0027714D01*
X0061263Y0027741D01*
X0061409Y0027765D01*
X0061556Y0027785D01*
X0061703Y0027801D01*
X0061850Y0027813D01*
X0061998Y0027821D01*
X0062146Y0027825D01*
X0062294Y0027825D01*
X0062442Y0027821D01*
X0062590Y0027813D01*
X0062737Y0027801D01*
X0062884Y0027785D01*
X0063031Y0027765D01*
X0063177Y0027741D01*
X0063323Y0027714D01*
X0063467Y0027682D01*
X0063611Y0027647D01*
X0063754Y0027607D01*
X0063895Y0027564D01*
X0064036Y0027517D01*
X0064175Y0027467D01*
X0064312Y0027412D01*
X0064448Y0027354D01*
X0064583Y0027293D01*
X0064716Y0027228D01*
X0064847Y0027159D01*
X0064976Y0027087D01*
X0065103Y0027011D01*
X0065228Y0026932D01*
X0065351Y0026849D01*
X0065472Y0026764D01*
X0065590Y0026675D01*
X0065706Y0026583D01*
X0065819Y0026487D01*
X0065930Y0026389D01*
X0066038Y0026288D01*
X0066144Y0026184D01*
X0066246Y0026078D01*
X0066346Y0025968D01*
X0066442Y0025856D01*
X0066536Y0025741D01*
X0066627Y0025624D01*
X0066714Y0025505D01*
X0066798Y0025383D01*
X0066879Y0025259D01*
X0066956Y0025133D01*
X0067030Y0025005D01*
X0067101Y0024875D01*
X0067168Y0024743D01*
X0067231Y0024609D01*
X0067291Y0024474D01*
X0067347Y0024337D01*
X0067400Y0024198D01*
X0067448Y0024058D01*
X0067493Y0023917D01*
X0067534Y0023775D01*
X0067572Y0023632D01*
X0067605Y0023488D01*
X0067635Y0023343D01*
X0067661Y0023197D01*
X0067682Y0023051D01*
X0067700Y0022904D01*
X0067714Y0022757D01*
X0067724Y0022609D01*
X0067730Y0022461D01*
X0067732Y0022313D01*
X0067730Y0022165D01*
X0067724Y0022017D01*
X0067714Y0021869D01*
X0067700Y0021722D01*
X0067682Y0021575D01*
X0067661Y0021429D01*
X0067635Y0021283D01*
X0067605Y0021138D01*
X0067572Y0020994D01*
X0067534Y0020851D01*
X0067493Y0020709D01*
X0067448Y0020568D01*
X0067400Y0020428D01*
X0067347Y0020289D01*
X0067291Y0020152D01*
X0067231Y0020017D01*
X0067168Y0019883D01*
X0067101Y0019751D01*
X0067030Y0019621D01*
X0066956Y0019493D01*
X0066879Y0019367D01*
X0066798Y0019243D01*
X0066714Y0019121D01*
X0066627Y0019002D01*
X0066536Y0018885D01*
X0066442Y0018770D01*
X0066346Y0018658D01*
X0066246Y0018548D01*
X0066144Y0018442D01*
X0066038Y0018338D01*
X0065930Y0018237D01*
X0065819Y0018139D01*
X0065706Y0018043D01*
X0065590Y0017951D01*
X0065472Y0017862D01*
X0065351Y0017777D01*
X0065228Y0017694D01*
X0065103Y0017615D01*
X0064976Y0017539D01*
X0064847Y0017467D01*
X0064716Y0017398D01*
X0064583Y0017333D01*
X0064448Y0017272D01*
X0064312Y0017214D01*
X0064175Y0017159D01*
X0064036Y0017109D01*
X0063895Y0017062D01*
X0063754Y0017019D01*
X0063611Y0016979D01*
X0063467Y0016944D01*
X0063323Y0016912D01*
X0063177Y0016885D01*
X0063031Y0016861D01*
X0062884Y0016841D01*
X0062737Y0016825D01*
X0062590Y0016813D01*
X0062442Y0016805D01*
X0062294Y0016801D01*
X0062146Y0016801D01*
X0061998Y0016805D01*
X0061850Y0016813D01*
X0061703Y0016825D01*
X0061556Y0016841D01*
X0061409Y0016861D01*
X0061263Y0016885D01*
X0061117Y0016912D01*
X0060973Y0016944D01*
X0060829Y0016979D01*
X0060686Y0017019D01*
X0060545Y0017062D01*
X0060404Y0017109D01*
X0060265Y0017159D01*
X0060128Y0017214D01*
X0059992Y0017272D01*
X0059857Y0017333D01*
X0059724Y0017398D01*
X0059593Y0017467D01*
X0059464Y0017539D01*
X0059337Y0017615D01*
X0059212Y0017694D01*
X0059089Y0017777D01*
X0058968Y0017862D01*
X0058850Y0017951D01*
X0058734Y0018043D01*
X0058621Y0018139D01*
X0058510Y0018237D01*
X0058402Y0018338D01*
X0058296Y0018442D01*
X0058194Y0018548D01*
X0058094Y0018658D01*
X0057998Y0018770D01*
X0057904Y0018885D01*
X0057813Y0019002D01*
X0057726Y0019121D01*
X0057642Y0019243D01*
X0057561Y0019367D01*
X0057484Y0019493D01*
X0057410Y0019621D01*
X0057339Y0019751D01*
X0057272Y0019883D01*
X0057209Y0020017D01*
X0057149Y0020152D01*
X0057093Y0020289D01*
X0057040Y0020428D01*
X0056992Y0020568D01*
X0056947Y0020709D01*
X0056906Y0020851D01*
X0056868Y0020994D01*
X0056835Y0021138D01*
X0056805Y0021283D01*
X0056779Y0021429D01*
X0056758Y0021575D01*
X0056740Y0021722D01*
X0056726Y0021869D01*
X0056716Y0022017D01*
X0056710Y0022165D01*
X0056708Y0022313D01*
X0050802Y0265336D02*
X0050804Y0265484D01*
X0050810Y0265632D01*
X0050820Y0265780D01*
X0050834Y0265927D01*
X0050852Y0266074D01*
X0050873Y0266220D01*
X0050899Y0266366D01*
X0050929Y0266511D01*
X0050962Y0266655D01*
X0051000Y0266798D01*
X0051041Y0266940D01*
X0051086Y0267081D01*
X0051134Y0267221D01*
X0051187Y0267360D01*
X0051243Y0267497D01*
X0051303Y0267632D01*
X0051366Y0267766D01*
X0051433Y0267898D01*
X0051504Y0268028D01*
X0051578Y0268156D01*
X0051655Y0268282D01*
X0051736Y0268406D01*
X0051820Y0268528D01*
X0051907Y0268647D01*
X0051998Y0268764D01*
X0052092Y0268879D01*
X0052188Y0268991D01*
X0052288Y0269101D01*
X0052390Y0269207D01*
X0052496Y0269311D01*
X0052604Y0269412D01*
X0052715Y0269510D01*
X0052828Y0269606D01*
X0052944Y0269698D01*
X0053062Y0269787D01*
X0053183Y0269872D01*
X0053306Y0269955D01*
X0053431Y0270034D01*
X0053558Y0270110D01*
X0053687Y0270182D01*
X0053818Y0270251D01*
X0053951Y0270316D01*
X0054086Y0270377D01*
X0054222Y0270435D01*
X0054359Y0270490D01*
X0054498Y0270540D01*
X0054639Y0270587D01*
X0054780Y0270630D01*
X0054923Y0270670D01*
X0055067Y0270705D01*
X0055211Y0270737D01*
X0055357Y0270764D01*
X0055503Y0270788D01*
X0055650Y0270808D01*
X0055797Y0270824D01*
X0055944Y0270836D01*
X0056092Y0270844D01*
X0056240Y0270848D01*
X0056388Y0270848D01*
X0056536Y0270844D01*
X0056684Y0270836D01*
X0056831Y0270824D01*
X0056978Y0270808D01*
X0057125Y0270788D01*
X0057271Y0270764D01*
X0057417Y0270737D01*
X0057561Y0270705D01*
X0057705Y0270670D01*
X0057848Y0270630D01*
X0057989Y0270587D01*
X0058130Y0270540D01*
X0058269Y0270490D01*
X0058406Y0270435D01*
X0058542Y0270377D01*
X0058677Y0270316D01*
X0058810Y0270251D01*
X0058941Y0270182D01*
X0059070Y0270110D01*
X0059197Y0270034D01*
X0059322Y0269955D01*
X0059445Y0269872D01*
X0059566Y0269787D01*
X0059684Y0269698D01*
X0059800Y0269606D01*
X0059913Y0269510D01*
X0060024Y0269412D01*
X0060132Y0269311D01*
X0060238Y0269207D01*
X0060340Y0269101D01*
X0060440Y0268991D01*
X0060536Y0268879D01*
X0060630Y0268764D01*
X0060721Y0268647D01*
X0060808Y0268528D01*
X0060892Y0268406D01*
X0060973Y0268282D01*
X0061050Y0268156D01*
X0061124Y0268028D01*
X0061195Y0267898D01*
X0061262Y0267766D01*
X0061325Y0267632D01*
X0061385Y0267497D01*
X0061441Y0267360D01*
X0061494Y0267221D01*
X0061542Y0267081D01*
X0061587Y0266940D01*
X0061628Y0266798D01*
X0061666Y0266655D01*
X0061699Y0266511D01*
X0061729Y0266366D01*
X0061755Y0266220D01*
X0061776Y0266074D01*
X0061794Y0265927D01*
X0061808Y0265780D01*
X0061818Y0265632D01*
X0061824Y0265484D01*
X0061826Y0265336D01*
X0061824Y0265188D01*
X0061818Y0265040D01*
X0061808Y0264892D01*
X0061794Y0264745D01*
X0061776Y0264598D01*
X0061755Y0264452D01*
X0061729Y0264306D01*
X0061699Y0264161D01*
X0061666Y0264017D01*
X0061628Y0263874D01*
X0061587Y0263732D01*
X0061542Y0263591D01*
X0061494Y0263451D01*
X0061441Y0263312D01*
X0061385Y0263175D01*
X0061325Y0263040D01*
X0061262Y0262906D01*
X0061195Y0262774D01*
X0061124Y0262644D01*
X0061050Y0262516D01*
X0060973Y0262390D01*
X0060892Y0262266D01*
X0060808Y0262144D01*
X0060721Y0262025D01*
X0060630Y0261908D01*
X0060536Y0261793D01*
X0060440Y0261681D01*
X0060340Y0261571D01*
X0060238Y0261465D01*
X0060132Y0261361D01*
X0060024Y0261260D01*
X0059913Y0261162D01*
X0059800Y0261066D01*
X0059684Y0260974D01*
X0059566Y0260885D01*
X0059445Y0260800D01*
X0059322Y0260717D01*
X0059197Y0260638D01*
X0059070Y0260562D01*
X0058941Y0260490D01*
X0058810Y0260421D01*
X0058677Y0260356D01*
X0058542Y0260295D01*
X0058406Y0260237D01*
X0058269Y0260182D01*
X0058130Y0260132D01*
X0057989Y0260085D01*
X0057848Y0260042D01*
X0057705Y0260002D01*
X0057561Y0259967D01*
X0057417Y0259935D01*
X0057271Y0259908D01*
X0057125Y0259884D01*
X0056978Y0259864D01*
X0056831Y0259848D01*
X0056684Y0259836D01*
X0056536Y0259828D01*
X0056388Y0259824D01*
X0056240Y0259824D01*
X0056092Y0259828D01*
X0055944Y0259836D01*
X0055797Y0259848D01*
X0055650Y0259864D01*
X0055503Y0259884D01*
X0055357Y0259908D01*
X0055211Y0259935D01*
X0055067Y0259967D01*
X0054923Y0260002D01*
X0054780Y0260042D01*
X0054639Y0260085D01*
X0054498Y0260132D01*
X0054359Y0260182D01*
X0054222Y0260237D01*
X0054086Y0260295D01*
X0053951Y0260356D01*
X0053818Y0260421D01*
X0053687Y0260490D01*
X0053558Y0260562D01*
X0053431Y0260638D01*
X0053306Y0260717D01*
X0053183Y0260800D01*
X0053062Y0260885D01*
X0052944Y0260974D01*
X0052828Y0261066D01*
X0052715Y0261162D01*
X0052604Y0261260D01*
X0052496Y0261361D01*
X0052390Y0261465D01*
X0052288Y0261571D01*
X0052188Y0261681D01*
X0052092Y0261793D01*
X0051998Y0261908D01*
X0051907Y0262025D01*
X0051820Y0262144D01*
X0051736Y0262266D01*
X0051655Y0262390D01*
X0051578Y0262516D01*
X0051504Y0262644D01*
X0051433Y0262774D01*
X0051366Y0262906D01*
X0051303Y0263040D01*
X0051243Y0263175D01*
X0051187Y0263312D01*
X0051134Y0263451D01*
X0051086Y0263591D01*
X0051041Y0263732D01*
X0051000Y0263874D01*
X0050962Y0264017D01*
X0050929Y0264161D01*
X0050899Y0264306D01*
X0050873Y0264452D01*
X0050852Y0264598D01*
X0050834Y0264745D01*
X0050820Y0264892D01*
X0050810Y0265040D01*
X0050804Y0265188D01*
X0050802Y0265336D01*
X0184777Y0297589D02*
X0184779Y0297660D01*
X0184785Y0297731D01*
X0184795Y0297802D01*
X0184809Y0297871D01*
X0184826Y0297940D01*
X0184848Y0298008D01*
X0184873Y0298075D01*
X0184902Y0298140D01*
X0184934Y0298203D01*
X0184970Y0298265D01*
X0185009Y0298324D01*
X0185052Y0298381D01*
X0185097Y0298436D01*
X0185146Y0298488D01*
X0185197Y0298537D01*
X0185251Y0298583D01*
X0185308Y0298627D01*
X0185366Y0298667D01*
X0185427Y0298703D01*
X0185490Y0298737D01*
X0185555Y0298766D01*
X0185621Y0298792D01*
X0185689Y0298815D01*
X0185757Y0298833D01*
X0185827Y0298848D01*
X0185897Y0298859D01*
X0185968Y0298866D01*
X0186039Y0298869D01*
X0186110Y0298868D01*
X0186181Y0298863D01*
X0186252Y0298854D01*
X0186322Y0298841D01*
X0186391Y0298825D01*
X0186459Y0298804D01*
X0186526Y0298780D01*
X0186592Y0298752D01*
X0186655Y0298720D01*
X0186717Y0298685D01*
X0186777Y0298647D01*
X0186835Y0298605D01*
X0186890Y0298561D01*
X0186943Y0298513D01*
X0186993Y0298462D01*
X0187040Y0298409D01*
X0187084Y0298353D01*
X0187125Y0298295D01*
X0187163Y0298234D01*
X0187197Y0298172D01*
X0187227Y0298107D01*
X0187254Y0298042D01*
X0187278Y0297974D01*
X0187297Y0297906D01*
X0187313Y0297837D01*
X0187325Y0297766D01*
X0187333Y0297696D01*
X0187337Y0297625D01*
X0187337Y0297553D01*
X0187333Y0297482D01*
X0187325Y0297412D01*
X0187313Y0297341D01*
X0187297Y0297272D01*
X0187278Y0297204D01*
X0187254Y0297136D01*
X0187227Y0297071D01*
X0187197Y0297006D01*
X0187163Y0296944D01*
X0187125Y0296883D01*
X0187084Y0296825D01*
X0187040Y0296769D01*
X0186993Y0296716D01*
X0186943Y0296665D01*
X0186890Y0296617D01*
X0186835Y0296573D01*
X0186777Y0296531D01*
X0186717Y0296493D01*
X0186655Y0296458D01*
X0186592Y0296426D01*
X0186526Y0296398D01*
X0186459Y0296374D01*
X0186391Y0296353D01*
X0186322Y0296337D01*
X0186252Y0296324D01*
X0186181Y0296315D01*
X0186110Y0296310D01*
X0186039Y0296309D01*
X0185968Y0296312D01*
X0185897Y0296319D01*
X0185827Y0296330D01*
X0185757Y0296345D01*
X0185689Y0296363D01*
X0185621Y0296386D01*
X0185555Y0296412D01*
X0185490Y0296441D01*
X0185427Y0296475D01*
X0185366Y0296511D01*
X0185308Y0296551D01*
X0185251Y0296595D01*
X0185197Y0296641D01*
X0185146Y0296690D01*
X0185097Y0296742D01*
X0185052Y0296797D01*
X0185009Y0296854D01*
X0184970Y0296913D01*
X0184934Y0296975D01*
X0184902Y0297038D01*
X0184873Y0297103D01*
X0184848Y0297170D01*
X0184826Y0297238D01*
X0184809Y0297307D01*
X0184795Y0297376D01*
X0184785Y0297447D01*
X0184779Y0297518D01*
X0184777Y0297589D01*
X0207533Y0297589D02*
X0207535Y0297660D01*
X0207541Y0297731D01*
X0207551Y0297802D01*
X0207565Y0297871D01*
X0207582Y0297940D01*
X0207604Y0298008D01*
X0207629Y0298075D01*
X0207658Y0298140D01*
X0207690Y0298203D01*
X0207726Y0298265D01*
X0207765Y0298324D01*
X0207808Y0298381D01*
X0207853Y0298436D01*
X0207902Y0298488D01*
X0207953Y0298537D01*
X0208007Y0298583D01*
X0208064Y0298627D01*
X0208122Y0298667D01*
X0208183Y0298703D01*
X0208246Y0298737D01*
X0208311Y0298766D01*
X0208377Y0298792D01*
X0208445Y0298815D01*
X0208513Y0298833D01*
X0208583Y0298848D01*
X0208653Y0298859D01*
X0208724Y0298866D01*
X0208795Y0298869D01*
X0208866Y0298868D01*
X0208937Y0298863D01*
X0209008Y0298854D01*
X0209078Y0298841D01*
X0209147Y0298825D01*
X0209215Y0298804D01*
X0209282Y0298780D01*
X0209348Y0298752D01*
X0209411Y0298720D01*
X0209473Y0298685D01*
X0209533Y0298647D01*
X0209591Y0298605D01*
X0209646Y0298561D01*
X0209699Y0298513D01*
X0209749Y0298462D01*
X0209796Y0298409D01*
X0209840Y0298353D01*
X0209881Y0298295D01*
X0209919Y0298234D01*
X0209953Y0298172D01*
X0209983Y0298107D01*
X0210010Y0298042D01*
X0210034Y0297974D01*
X0210053Y0297906D01*
X0210069Y0297837D01*
X0210081Y0297766D01*
X0210089Y0297696D01*
X0210093Y0297625D01*
X0210093Y0297553D01*
X0210089Y0297482D01*
X0210081Y0297412D01*
X0210069Y0297341D01*
X0210053Y0297272D01*
X0210034Y0297204D01*
X0210010Y0297136D01*
X0209983Y0297071D01*
X0209953Y0297006D01*
X0209919Y0296944D01*
X0209881Y0296883D01*
X0209840Y0296825D01*
X0209796Y0296769D01*
X0209749Y0296716D01*
X0209699Y0296665D01*
X0209646Y0296617D01*
X0209591Y0296573D01*
X0209533Y0296531D01*
X0209473Y0296493D01*
X0209411Y0296458D01*
X0209348Y0296426D01*
X0209282Y0296398D01*
X0209215Y0296374D01*
X0209147Y0296353D01*
X0209078Y0296337D01*
X0209008Y0296324D01*
X0208937Y0296315D01*
X0208866Y0296310D01*
X0208795Y0296309D01*
X0208724Y0296312D01*
X0208653Y0296319D01*
X0208583Y0296330D01*
X0208513Y0296345D01*
X0208445Y0296363D01*
X0208377Y0296386D01*
X0208311Y0296412D01*
X0208246Y0296441D01*
X0208183Y0296475D01*
X0208122Y0296511D01*
X0208064Y0296551D01*
X0208007Y0296595D01*
X0207953Y0296641D01*
X0207902Y0296690D01*
X0207853Y0296742D01*
X0207808Y0296797D01*
X0207765Y0296854D01*
X0207726Y0296913D01*
X0207690Y0296975D01*
X0207658Y0297038D01*
X0207629Y0297103D01*
X0207604Y0297170D01*
X0207582Y0297238D01*
X0207565Y0297307D01*
X0207551Y0297376D01*
X0207541Y0297447D01*
X0207535Y0297518D01*
X0207533Y0297589D01*
X0279149Y0265336D02*
X0279151Y0265484D01*
X0279157Y0265632D01*
X0279167Y0265780D01*
X0279181Y0265927D01*
X0279199Y0266074D01*
X0279220Y0266220D01*
X0279246Y0266366D01*
X0279276Y0266511D01*
X0279309Y0266655D01*
X0279347Y0266798D01*
X0279388Y0266940D01*
X0279433Y0267081D01*
X0279481Y0267221D01*
X0279534Y0267360D01*
X0279590Y0267497D01*
X0279650Y0267632D01*
X0279713Y0267766D01*
X0279780Y0267898D01*
X0279851Y0268028D01*
X0279925Y0268156D01*
X0280002Y0268282D01*
X0280083Y0268406D01*
X0280167Y0268528D01*
X0280254Y0268647D01*
X0280345Y0268764D01*
X0280439Y0268879D01*
X0280535Y0268991D01*
X0280635Y0269101D01*
X0280737Y0269207D01*
X0280843Y0269311D01*
X0280951Y0269412D01*
X0281062Y0269510D01*
X0281175Y0269606D01*
X0281291Y0269698D01*
X0281409Y0269787D01*
X0281530Y0269872D01*
X0281653Y0269955D01*
X0281778Y0270034D01*
X0281905Y0270110D01*
X0282034Y0270182D01*
X0282165Y0270251D01*
X0282298Y0270316D01*
X0282433Y0270377D01*
X0282569Y0270435D01*
X0282706Y0270490D01*
X0282845Y0270540D01*
X0282986Y0270587D01*
X0283127Y0270630D01*
X0283270Y0270670D01*
X0283414Y0270705D01*
X0283558Y0270737D01*
X0283704Y0270764D01*
X0283850Y0270788D01*
X0283997Y0270808D01*
X0284144Y0270824D01*
X0284291Y0270836D01*
X0284439Y0270844D01*
X0284587Y0270848D01*
X0284735Y0270848D01*
X0284883Y0270844D01*
X0285031Y0270836D01*
X0285178Y0270824D01*
X0285325Y0270808D01*
X0285472Y0270788D01*
X0285618Y0270764D01*
X0285764Y0270737D01*
X0285908Y0270705D01*
X0286052Y0270670D01*
X0286195Y0270630D01*
X0286336Y0270587D01*
X0286477Y0270540D01*
X0286616Y0270490D01*
X0286753Y0270435D01*
X0286889Y0270377D01*
X0287024Y0270316D01*
X0287157Y0270251D01*
X0287288Y0270182D01*
X0287417Y0270110D01*
X0287544Y0270034D01*
X0287669Y0269955D01*
X0287792Y0269872D01*
X0287913Y0269787D01*
X0288031Y0269698D01*
X0288147Y0269606D01*
X0288260Y0269510D01*
X0288371Y0269412D01*
X0288479Y0269311D01*
X0288585Y0269207D01*
X0288687Y0269101D01*
X0288787Y0268991D01*
X0288883Y0268879D01*
X0288977Y0268764D01*
X0289068Y0268647D01*
X0289155Y0268528D01*
X0289239Y0268406D01*
X0289320Y0268282D01*
X0289397Y0268156D01*
X0289471Y0268028D01*
X0289542Y0267898D01*
X0289609Y0267766D01*
X0289672Y0267632D01*
X0289732Y0267497D01*
X0289788Y0267360D01*
X0289841Y0267221D01*
X0289889Y0267081D01*
X0289934Y0266940D01*
X0289975Y0266798D01*
X0290013Y0266655D01*
X0290046Y0266511D01*
X0290076Y0266366D01*
X0290102Y0266220D01*
X0290123Y0266074D01*
X0290141Y0265927D01*
X0290155Y0265780D01*
X0290165Y0265632D01*
X0290171Y0265484D01*
X0290173Y0265336D01*
X0290171Y0265188D01*
X0290165Y0265040D01*
X0290155Y0264892D01*
X0290141Y0264745D01*
X0290123Y0264598D01*
X0290102Y0264452D01*
X0290076Y0264306D01*
X0290046Y0264161D01*
X0290013Y0264017D01*
X0289975Y0263874D01*
X0289934Y0263732D01*
X0289889Y0263591D01*
X0289841Y0263451D01*
X0289788Y0263312D01*
X0289732Y0263175D01*
X0289672Y0263040D01*
X0289609Y0262906D01*
X0289542Y0262774D01*
X0289471Y0262644D01*
X0289397Y0262516D01*
X0289320Y0262390D01*
X0289239Y0262266D01*
X0289155Y0262144D01*
X0289068Y0262025D01*
X0288977Y0261908D01*
X0288883Y0261793D01*
X0288787Y0261681D01*
X0288687Y0261571D01*
X0288585Y0261465D01*
X0288479Y0261361D01*
X0288371Y0261260D01*
X0288260Y0261162D01*
X0288147Y0261066D01*
X0288031Y0260974D01*
X0287913Y0260885D01*
X0287792Y0260800D01*
X0287669Y0260717D01*
X0287544Y0260638D01*
X0287417Y0260562D01*
X0287288Y0260490D01*
X0287157Y0260421D01*
X0287024Y0260356D01*
X0286889Y0260295D01*
X0286753Y0260237D01*
X0286616Y0260182D01*
X0286477Y0260132D01*
X0286336Y0260085D01*
X0286195Y0260042D01*
X0286052Y0260002D01*
X0285908Y0259967D01*
X0285764Y0259935D01*
X0285618Y0259908D01*
X0285472Y0259884D01*
X0285325Y0259864D01*
X0285178Y0259848D01*
X0285031Y0259836D01*
X0284883Y0259828D01*
X0284735Y0259824D01*
X0284587Y0259824D01*
X0284439Y0259828D01*
X0284291Y0259836D01*
X0284144Y0259848D01*
X0283997Y0259864D01*
X0283850Y0259884D01*
X0283704Y0259908D01*
X0283558Y0259935D01*
X0283414Y0259967D01*
X0283270Y0260002D01*
X0283127Y0260042D01*
X0282986Y0260085D01*
X0282845Y0260132D01*
X0282706Y0260182D01*
X0282569Y0260237D01*
X0282433Y0260295D01*
X0282298Y0260356D01*
X0282165Y0260421D01*
X0282034Y0260490D01*
X0281905Y0260562D01*
X0281778Y0260638D01*
X0281653Y0260717D01*
X0281530Y0260800D01*
X0281409Y0260885D01*
X0281291Y0260974D01*
X0281175Y0261066D01*
X0281062Y0261162D01*
X0280951Y0261260D01*
X0280843Y0261361D01*
X0280737Y0261465D01*
X0280635Y0261571D01*
X0280535Y0261681D01*
X0280439Y0261793D01*
X0280345Y0261908D01*
X0280254Y0262025D01*
X0280167Y0262144D01*
X0280083Y0262266D01*
X0280002Y0262390D01*
X0279925Y0262516D01*
X0279851Y0262644D01*
X0279780Y0262774D01*
X0279713Y0262906D01*
X0279650Y0263040D01*
X0279590Y0263175D01*
X0279534Y0263312D01*
X0279481Y0263451D01*
X0279433Y0263591D01*
X0279388Y0263732D01*
X0279347Y0263874D01*
X0279309Y0264017D01*
X0279276Y0264161D01*
X0279246Y0264306D01*
X0279220Y0264452D01*
X0279199Y0264598D01*
X0279181Y0264745D01*
X0279167Y0264892D01*
X0279157Y0265040D01*
X0279151Y0265188D01*
X0279149Y0265336D01*
X0336441Y0109547D02*
X0336443Y0109655D01*
X0336449Y0109764D01*
X0336459Y0109872D01*
X0336473Y0109979D01*
X0336491Y0110086D01*
X0336512Y0110193D01*
X0336538Y0110298D01*
X0336568Y0110403D01*
X0336601Y0110506D01*
X0336638Y0110608D01*
X0336679Y0110708D01*
X0336723Y0110807D01*
X0336772Y0110905D01*
X0336823Y0111000D01*
X0336878Y0111093D01*
X0336937Y0111185D01*
X0336999Y0111274D01*
X0337064Y0111361D01*
X0337132Y0111445D01*
X0337203Y0111527D01*
X0337277Y0111606D01*
X0337354Y0111682D01*
X0337434Y0111756D01*
X0337517Y0111826D01*
X0337602Y0111894D01*
X0337689Y0111958D01*
X0337779Y0112019D01*
X0337871Y0112077D01*
X0337965Y0112131D01*
X0338061Y0112182D01*
X0338158Y0112229D01*
X0338258Y0112273D01*
X0338359Y0112313D01*
X0338461Y0112349D01*
X0338564Y0112381D01*
X0338669Y0112410D01*
X0338775Y0112434D01*
X0338881Y0112455D01*
X0338988Y0112472D01*
X0339096Y0112485D01*
X0339204Y0112494D01*
X0339313Y0112499D01*
X0339421Y0112500D01*
X0339530Y0112497D01*
X0339638Y0112490D01*
X0339746Y0112479D01*
X0339853Y0112464D01*
X0339960Y0112445D01*
X0340066Y0112422D01*
X0340171Y0112396D01*
X0340276Y0112365D01*
X0340378Y0112331D01*
X0340480Y0112293D01*
X0340580Y0112251D01*
X0340679Y0112206D01*
X0340776Y0112157D01*
X0340870Y0112104D01*
X0340963Y0112048D01*
X0341054Y0111989D01*
X0341143Y0111926D01*
X0341229Y0111861D01*
X0341313Y0111792D01*
X0341394Y0111720D01*
X0341472Y0111645D01*
X0341548Y0111567D01*
X0341621Y0111486D01*
X0341691Y0111403D01*
X0341757Y0111318D01*
X0341821Y0111230D01*
X0341881Y0111139D01*
X0341938Y0111047D01*
X0341991Y0110952D01*
X0342041Y0110856D01*
X0342087Y0110758D01*
X0342130Y0110658D01*
X0342169Y0110557D01*
X0342204Y0110454D01*
X0342236Y0110351D01*
X0342263Y0110246D01*
X0342287Y0110140D01*
X0342307Y0110033D01*
X0342323Y0109926D01*
X0342335Y0109818D01*
X0342343Y0109710D01*
X0342347Y0109601D01*
X0342347Y0109493D01*
X0342343Y0109384D01*
X0342335Y0109276D01*
X0342323Y0109168D01*
X0342307Y0109061D01*
X0342287Y0108954D01*
X0342263Y0108848D01*
X0342236Y0108743D01*
X0342204Y0108640D01*
X0342169Y0108537D01*
X0342130Y0108436D01*
X0342087Y0108336D01*
X0342041Y0108238D01*
X0341991Y0108142D01*
X0341938Y0108047D01*
X0341881Y0107955D01*
X0341821Y0107864D01*
X0341757Y0107776D01*
X0341691Y0107691D01*
X0341621Y0107608D01*
X0341548Y0107527D01*
X0341472Y0107449D01*
X0341394Y0107374D01*
X0341313Y0107302D01*
X0341229Y0107233D01*
X0341143Y0107168D01*
X0341054Y0107105D01*
X0340963Y0107046D01*
X0340871Y0106990D01*
X0340776Y0106937D01*
X0340679Y0106888D01*
X0340580Y0106843D01*
X0340480Y0106801D01*
X0340378Y0106763D01*
X0340276Y0106729D01*
X0340171Y0106698D01*
X0340066Y0106672D01*
X0339960Y0106649D01*
X0339853Y0106630D01*
X0339746Y0106615D01*
X0339638Y0106604D01*
X0339530Y0106597D01*
X0339421Y0106594D01*
X0339313Y0106595D01*
X0339204Y0106600D01*
X0339096Y0106609D01*
X0338988Y0106622D01*
X0338881Y0106639D01*
X0338775Y0106660D01*
X0338669Y0106684D01*
X0338564Y0106713D01*
X0338461Y0106745D01*
X0338359Y0106781D01*
X0338258Y0106821D01*
X0338158Y0106865D01*
X0338061Y0106912D01*
X0337965Y0106963D01*
X0337871Y0107017D01*
X0337779Y0107075D01*
X0337689Y0107136D01*
X0337602Y0107200D01*
X0337517Y0107268D01*
X0337434Y0107338D01*
X0337354Y0107412D01*
X0337277Y0107488D01*
X0337203Y0107567D01*
X0337132Y0107649D01*
X0337064Y0107733D01*
X0336999Y0107820D01*
X0336937Y0107909D01*
X0336878Y0108001D01*
X0336823Y0108094D01*
X0336772Y0108189D01*
X0336723Y0108287D01*
X0336679Y0108386D01*
X0336638Y0108486D01*
X0336601Y0108588D01*
X0336568Y0108691D01*
X0336538Y0108796D01*
X0336512Y0108901D01*
X0336491Y0109008D01*
X0336473Y0109115D01*
X0336459Y0109222D01*
X0336449Y0109330D01*
X0336443Y0109439D01*
X0336441Y0109547D01*
X0347780Y0110728D02*
X0347782Y0110846D01*
X0347788Y0110965D01*
X0347798Y0111083D01*
X0347812Y0111200D01*
X0347829Y0111317D01*
X0347851Y0111434D01*
X0347877Y0111549D01*
X0347906Y0111664D01*
X0347939Y0111778D01*
X0347976Y0111890D01*
X0348017Y0112001D01*
X0348061Y0112111D01*
X0348109Y0112219D01*
X0348161Y0112326D01*
X0348216Y0112431D01*
X0348275Y0112534D01*
X0348337Y0112634D01*
X0348402Y0112733D01*
X0348471Y0112830D01*
X0348542Y0112924D01*
X0348617Y0113015D01*
X0348695Y0113105D01*
X0348776Y0113191D01*
X0348860Y0113275D01*
X0348946Y0113356D01*
X0349036Y0113434D01*
X0349127Y0113509D01*
X0349221Y0113580D01*
X0349318Y0113649D01*
X0349417Y0113714D01*
X0349517Y0113776D01*
X0349620Y0113835D01*
X0349725Y0113890D01*
X0349832Y0113942D01*
X0349940Y0113990D01*
X0350050Y0114034D01*
X0350161Y0114075D01*
X0350273Y0114112D01*
X0350387Y0114145D01*
X0350502Y0114174D01*
X0350617Y0114200D01*
X0350734Y0114222D01*
X0350851Y0114239D01*
X0350968Y0114253D01*
X0351086Y0114263D01*
X0351205Y0114269D01*
X0351323Y0114271D01*
X0351441Y0114269D01*
X0351560Y0114263D01*
X0351678Y0114253D01*
X0351795Y0114239D01*
X0351912Y0114222D01*
X0352029Y0114200D01*
X0352144Y0114174D01*
X0352259Y0114145D01*
X0352373Y0114112D01*
X0352485Y0114075D01*
X0352596Y0114034D01*
X0352706Y0113990D01*
X0352814Y0113942D01*
X0352921Y0113890D01*
X0353026Y0113835D01*
X0353129Y0113776D01*
X0353229Y0113714D01*
X0353328Y0113649D01*
X0353425Y0113580D01*
X0353519Y0113509D01*
X0353610Y0113434D01*
X0353700Y0113356D01*
X0353786Y0113275D01*
X0353870Y0113191D01*
X0353951Y0113105D01*
X0354029Y0113015D01*
X0354104Y0112924D01*
X0354175Y0112830D01*
X0354244Y0112733D01*
X0354309Y0112634D01*
X0354371Y0112534D01*
X0354430Y0112431D01*
X0354485Y0112326D01*
X0354537Y0112219D01*
X0354585Y0112111D01*
X0354629Y0112001D01*
X0354670Y0111890D01*
X0354707Y0111778D01*
X0354740Y0111664D01*
X0354769Y0111549D01*
X0354795Y0111434D01*
X0354817Y0111317D01*
X0354834Y0111200D01*
X0354848Y0111083D01*
X0354858Y0110965D01*
X0354864Y0110846D01*
X0354866Y0110728D01*
X0354864Y0110610D01*
X0354858Y0110491D01*
X0354848Y0110373D01*
X0354834Y0110256D01*
X0354817Y0110139D01*
X0354795Y0110022D01*
X0354769Y0109907D01*
X0354740Y0109792D01*
X0354707Y0109678D01*
X0354670Y0109566D01*
X0354629Y0109455D01*
X0354585Y0109345D01*
X0354537Y0109237D01*
X0354485Y0109130D01*
X0354430Y0109025D01*
X0354371Y0108922D01*
X0354309Y0108822D01*
X0354244Y0108723D01*
X0354175Y0108626D01*
X0354104Y0108532D01*
X0354029Y0108441D01*
X0353951Y0108351D01*
X0353870Y0108265D01*
X0353786Y0108181D01*
X0353700Y0108100D01*
X0353610Y0108022D01*
X0353519Y0107947D01*
X0353425Y0107876D01*
X0353328Y0107807D01*
X0353229Y0107742D01*
X0353129Y0107680D01*
X0353026Y0107621D01*
X0352921Y0107566D01*
X0352814Y0107514D01*
X0352706Y0107466D01*
X0352596Y0107422D01*
X0352485Y0107381D01*
X0352373Y0107344D01*
X0352259Y0107311D01*
X0352144Y0107282D01*
X0352029Y0107256D01*
X0351912Y0107234D01*
X0351795Y0107217D01*
X0351678Y0107203D01*
X0351560Y0107193D01*
X0351441Y0107187D01*
X0351323Y0107185D01*
X0351205Y0107187D01*
X0351086Y0107193D01*
X0350968Y0107203D01*
X0350851Y0107217D01*
X0350734Y0107234D01*
X0350617Y0107256D01*
X0350502Y0107282D01*
X0350387Y0107311D01*
X0350273Y0107344D01*
X0350161Y0107381D01*
X0350050Y0107422D01*
X0349940Y0107466D01*
X0349832Y0107514D01*
X0349725Y0107566D01*
X0349620Y0107621D01*
X0349517Y0107680D01*
X0349417Y0107742D01*
X0349318Y0107807D01*
X0349221Y0107876D01*
X0349127Y0107947D01*
X0349036Y0108022D01*
X0348946Y0108100D01*
X0348860Y0108181D01*
X0348776Y0108265D01*
X0348695Y0108351D01*
X0348617Y0108441D01*
X0348542Y0108532D01*
X0348471Y0108626D01*
X0348402Y0108723D01*
X0348337Y0108822D01*
X0348275Y0108922D01*
X0348216Y0109025D01*
X0348161Y0109130D01*
X0348109Y0109237D01*
X0348061Y0109345D01*
X0348017Y0109455D01*
X0347976Y0109566D01*
X0347939Y0109678D01*
X0347906Y0109792D01*
X0347877Y0109907D01*
X0347851Y0110022D01*
X0347829Y0110139D01*
X0347812Y0110256D01*
X0347798Y0110373D01*
X0347788Y0110491D01*
X0347782Y0110610D01*
X0347780Y0110728D01*
X0336441Y0090453D02*
X0336443Y0090561D01*
X0336449Y0090670D01*
X0336459Y0090778D01*
X0336473Y0090885D01*
X0336491Y0090992D01*
X0336512Y0091099D01*
X0336538Y0091204D01*
X0336568Y0091309D01*
X0336601Y0091412D01*
X0336638Y0091514D01*
X0336679Y0091614D01*
X0336723Y0091713D01*
X0336772Y0091811D01*
X0336823Y0091906D01*
X0336878Y0091999D01*
X0336937Y0092091D01*
X0336999Y0092180D01*
X0337064Y0092267D01*
X0337132Y0092351D01*
X0337203Y0092433D01*
X0337277Y0092512D01*
X0337354Y0092588D01*
X0337434Y0092662D01*
X0337517Y0092732D01*
X0337602Y0092800D01*
X0337689Y0092864D01*
X0337779Y0092925D01*
X0337871Y0092983D01*
X0337965Y0093037D01*
X0338061Y0093088D01*
X0338158Y0093135D01*
X0338258Y0093179D01*
X0338359Y0093219D01*
X0338461Y0093255D01*
X0338564Y0093287D01*
X0338669Y0093316D01*
X0338775Y0093340D01*
X0338881Y0093361D01*
X0338988Y0093378D01*
X0339096Y0093391D01*
X0339204Y0093400D01*
X0339313Y0093405D01*
X0339421Y0093406D01*
X0339530Y0093403D01*
X0339638Y0093396D01*
X0339746Y0093385D01*
X0339853Y0093370D01*
X0339960Y0093351D01*
X0340066Y0093328D01*
X0340171Y0093302D01*
X0340276Y0093271D01*
X0340378Y0093237D01*
X0340480Y0093199D01*
X0340580Y0093157D01*
X0340679Y0093112D01*
X0340776Y0093063D01*
X0340870Y0093010D01*
X0340963Y0092954D01*
X0341054Y0092895D01*
X0341143Y0092832D01*
X0341229Y0092767D01*
X0341313Y0092698D01*
X0341394Y0092626D01*
X0341472Y0092551D01*
X0341548Y0092473D01*
X0341621Y0092392D01*
X0341691Y0092309D01*
X0341757Y0092224D01*
X0341821Y0092136D01*
X0341881Y0092045D01*
X0341938Y0091953D01*
X0341991Y0091858D01*
X0342041Y0091762D01*
X0342087Y0091664D01*
X0342130Y0091564D01*
X0342169Y0091463D01*
X0342204Y0091360D01*
X0342236Y0091257D01*
X0342263Y0091152D01*
X0342287Y0091046D01*
X0342307Y0090939D01*
X0342323Y0090832D01*
X0342335Y0090724D01*
X0342343Y0090616D01*
X0342347Y0090507D01*
X0342347Y0090399D01*
X0342343Y0090290D01*
X0342335Y0090182D01*
X0342323Y0090074D01*
X0342307Y0089967D01*
X0342287Y0089860D01*
X0342263Y0089754D01*
X0342236Y0089649D01*
X0342204Y0089546D01*
X0342169Y0089443D01*
X0342130Y0089342D01*
X0342087Y0089242D01*
X0342041Y0089144D01*
X0341991Y0089048D01*
X0341938Y0088953D01*
X0341881Y0088861D01*
X0341821Y0088770D01*
X0341757Y0088682D01*
X0341691Y0088597D01*
X0341621Y0088514D01*
X0341548Y0088433D01*
X0341472Y0088355D01*
X0341394Y0088280D01*
X0341313Y0088208D01*
X0341229Y0088139D01*
X0341143Y0088074D01*
X0341054Y0088011D01*
X0340963Y0087952D01*
X0340871Y0087896D01*
X0340776Y0087843D01*
X0340679Y0087794D01*
X0340580Y0087749D01*
X0340480Y0087707D01*
X0340378Y0087669D01*
X0340276Y0087635D01*
X0340171Y0087604D01*
X0340066Y0087578D01*
X0339960Y0087555D01*
X0339853Y0087536D01*
X0339746Y0087521D01*
X0339638Y0087510D01*
X0339530Y0087503D01*
X0339421Y0087500D01*
X0339313Y0087501D01*
X0339204Y0087506D01*
X0339096Y0087515D01*
X0338988Y0087528D01*
X0338881Y0087545D01*
X0338775Y0087566D01*
X0338669Y0087590D01*
X0338564Y0087619D01*
X0338461Y0087651D01*
X0338359Y0087687D01*
X0338258Y0087727D01*
X0338158Y0087771D01*
X0338061Y0087818D01*
X0337965Y0087869D01*
X0337871Y0087923D01*
X0337779Y0087981D01*
X0337689Y0088042D01*
X0337602Y0088106D01*
X0337517Y0088174D01*
X0337434Y0088244D01*
X0337354Y0088318D01*
X0337277Y0088394D01*
X0337203Y0088473D01*
X0337132Y0088555D01*
X0337064Y0088639D01*
X0336999Y0088726D01*
X0336937Y0088815D01*
X0336878Y0088907D01*
X0336823Y0089000D01*
X0336772Y0089095D01*
X0336723Y0089193D01*
X0336679Y0089292D01*
X0336638Y0089392D01*
X0336601Y0089494D01*
X0336568Y0089597D01*
X0336538Y0089702D01*
X0336512Y0089807D01*
X0336491Y0089914D01*
X0336473Y0090021D01*
X0336459Y0090128D01*
X0336449Y0090236D01*
X0336443Y0090345D01*
X0336441Y0090453D01*
X0347780Y0089272D02*
X0347782Y0089390D01*
X0347788Y0089509D01*
X0347798Y0089627D01*
X0347812Y0089744D01*
X0347829Y0089861D01*
X0347851Y0089978D01*
X0347877Y0090093D01*
X0347906Y0090208D01*
X0347939Y0090322D01*
X0347976Y0090434D01*
X0348017Y0090545D01*
X0348061Y0090655D01*
X0348109Y0090763D01*
X0348161Y0090870D01*
X0348216Y0090975D01*
X0348275Y0091078D01*
X0348337Y0091178D01*
X0348402Y0091277D01*
X0348471Y0091374D01*
X0348542Y0091468D01*
X0348617Y0091559D01*
X0348695Y0091649D01*
X0348776Y0091735D01*
X0348860Y0091819D01*
X0348946Y0091900D01*
X0349036Y0091978D01*
X0349127Y0092053D01*
X0349221Y0092124D01*
X0349318Y0092193D01*
X0349417Y0092258D01*
X0349517Y0092320D01*
X0349620Y0092379D01*
X0349725Y0092434D01*
X0349832Y0092486D01*
X0349940Y0092534D01*
X0350050Y0092578D01*
X0350161Y0092619D01*
X0350273Y0092656D01*
X0350387Y0092689D01*
X0350502Y0092718D01*
X0350617Y0092744D01*
X0350734Y0092766D01*
X0350851Y0092783D01*
X0350968Y0092797D01*
X0351086Y0092807D01*
X0351205Y0092813D01*
X0351323Y0092815D01*
X0351441Y0092813D01*
X0351560Y0092807D01*
X0351678Y0092797D01*
X0351795Y0092783D01*
X0351912Y0092766D01*
X0352029Y0092744D01*
X0352144Y0092718D01*
X0352259Y0092689D01*
X0352373Y0092656D01*
X0352485Y0092619D01*
X0352596Y0092578D01*
X0352706Y0092534D01*
X0352814Y0092486D01*
X0352921Y0092434D01*
X0353026Y0092379D01*
X0353129Y0092320D01*
X0353229Y0092258D01*
X0353328Y0092193D01*
X0353425Y0092124D01*
X0353519Y0092053D01*
X0353610Y0091978D01*
X0353700Y0091900D01*
X0353786Y0091819D01*
X0353870Y0091735D01*
X0353951Y0091649D01*
X0354029Y0091559D01*
X0354104Y0091468D01*
X0354175Y0091374D01*
X0354244Y0091277D01*
X0354309Y0091178D01*
X0354371Y0091078D01*
X0354430Y0090975D01*
X0354485Y0090870D01*
X0354537Y0090763D01*
X0354585Y0090655D01*
X0354629Y0090545D01*
X0354670Y0090434D01*
X0354707Y0090322D01*
X0354740Y0090208D01*
X0354769Y0090093D01*
X0354795Y0089978D01*
X0354817Y0089861D01*
X0354834Y0089744D01*
X0354848Y0089627D01*
X0354858Y0089509D01*
X0354864Y0089390D01*
X0354866Y0089272D01*
X0354864Y0089154D01*
X0354858Y0089035D01*
X0354848Y0088917D01*
X0354834Y0088800D01*
X0354817Y0088683D01*
X0354795Y0088566D01*
X0354769Y0088451D01*
X0354740Y0088336D01*
X0354707Y0088222D01*
X0354670Y0088110D01*
X0354629Y0087999D01*
X0354585Y0087889D01*
X0354537Y0087781D01*
X0354485Y0087674D01*
X0354430Y0087569D01*
X0354371Y0087466D01*
X0354309Y0087366D01*
X0354244Y0087267D01*
X0354175Y0087170D01*
X0354104Y0087076D01*
X0354029Y0086985D01*
X0353951Y0086895D01*
X0353870Y0086809D01*
X0353786Y0086725D01*
X0353700Y0086644D01*
X0353610Y0086566D01*
X0353519Y0086491D01*
X0353425Y0086420D01*
X0353328Y0086351D01*
X0353229Y0086286D01*
X0353129Y0086224D01*
X0353026Y0086165D01*
X0352921Y0086110D01*
X0352814Y0086058D01*
X0352706Y0086010D01*
X0352596Y0085966D01*
X0352485Y0085925D01*
X0352373Y0085888D01*
X0352259Y0085855D01*
X0352144Y0085826D01*
X0352029Y0085800D01*
X0351912Y0085778D01*
X0351795Y0085761D01*
X0351678Y0085747D01*
X0351560Y0085737D01*
X0351441Y0085731D01*
X0351323Y0085729D01*
X0351205Y0085731D01*
X0351086Y0085737D01*
X0350968Y0085747D01*
X0350851Y0085761D01*
X0350734Y0085778D01*
X0350617Y0085800D01*
X0350502Y0085826D01*
X0350387Y0085855D01*
X0350273Y0085888D01*
X0350161Y0085925D01*
X0350050Y0085966D01*
X0349940Y0086010D01*
X0349832Y0086058D01*
X0349725Y0086110D01*
X0349620Y0086165D01*
X0349517Y0086224D01*
X0349417Y0086286D01*
X0349318Y0086351D01*
X0349221Y0086420D01*
X0349127Y0086491D01*
X0349036Y0086566D01*
X0348946Y0086644D01*
X0348860Y0086725D01*
X0348776Y0086809D01*
X0348695Y0086895D01*
X0348617Y0086985D01*
X0348542Y0087076D01*
X0348471Y0087170D01*
X0348402Y0087267D01*
X0348337Y0087366D01*
X0348275Y0087466D01*
X0348216Y0087569D01*
X0348161Y0087674D01*
X0348109Y0087781D01*
X0348061Y0087889D01*
X0348017Y0087999D01*
X0347976Y0088110D01*
X0347939Y0088222D01*
X0347906Y0088336D01*
X0347877Y0088451D01*
X0347851Y0088566D01*
X0347829Y0088683D01*
X0347812Y0088800D01*
X0347798Y0088917D01*
X0347788Y0089035D01*
X0347782Y0089154D01*
X0347780Y0089272D01*
X0333401Y0022313D02*
X0333403Y0022461D01*
X0333409Y0022609D01*
X0333419Y0022757D01*
X0333433Y0022904D01*
X0333451Y0023051D01*
X0333472Y0023197D01*
X0333498Y0023343D01*
X0333528Y0023488D01*
X0333561Y0023632D01*
X0333599Y0023775D01*
X0333640Y0023917D01*
X0333685Y0024058D01*
X0333733Y0024198D01*
X0333786Y0024337D01*
X0333842Y0024474D01*
X0333902Y0024609D01*
X0333965Y0024743D01*
X0334032Y0024875D01*
X0334103Y0025005D01*
X0334177Y0025133D01*
X0334254Y0025259D01*
X0334335Y0025383D01*
X0334419Y0025505D01*
X0334506Y0025624D01*
X0334597Y0025741D01*
X0334691Y0025856D01*
X0334787Y0025968D01*
X0334887Y0026078D01*
X0334989Y0026184D01*
X0335095Y0026288D01*
X0335203Y0026389D01*
X0335314Y0026487D01*
X0335427Y0026583D01*
X0335543Y0026675D01*
X0335661Y0026764D01*
X0335782Y0026849D01*
X0335905Y0026932D01*
X0336030Y0027011D01*
X0336157Y0027087D01*
X0336286Y0027159D01*
X0336417Y0027228D01*
X0336550Y0027293D01*
X0336685Y0027354D01*
X0336821Y0027412D01*
X0336958Y0027467D01*
X0337097Y0027517D01*
X0337238Y0027564D01*
X0337379Y0027607D01*
X0337522Y0027647D01*
X0337666Y0027682D01*
X0337810Y0027714D01*
X0337956Y0027741D01*
X0338102Y0027765D01*
X0338249Y0027785D01*
X0338396Y0027801D01*
X0338543Y0027813D01*
X0338691Y0027821D01*
X0338839Y0027825D01*
X0338987Y0027825D01*
X0339135Y0027821D01*
X0339283Y0027813D01*
X0339430Y0027801D01*
X0339577Y0027785D01*
X0339724Y0027765D01*
X0339870Y0027741D01*
X0340016Y0027714D01*
X0340160Y0027682D01*
X0340304Y0027647D01*
X0340447Y0027607D01*
X0340588Y0027564D01*
X0340729Y0027517D01*
X0340868Y0027467D01*
X0341005Y0027412D01*
X0341141Y0027354D01*
X0341276Y0027293D01*
X0341409Y0027228D01*
X0341540Y0027159D01*
X0341669Y0027087D01*
X0341796Y0027011D01*
X0341921Y0026932D01*
X0342044Y0026849D01*
X0342165Y0026764D01*
X0342283Y0026675D01*
X0342399Y0026583D01*
X0342512Y0026487D01*
X0342623Y0026389D01*
X0342731Y0026288D01*
X0342837Y0026184D01*
X0342939Y0026078D01*
X0343039Y0025968D01*
X0343135Y0025856D01*
X0343229Y0025741D01*
X0343320Y0025624D01*
X0343407Y0025505D01*
X0343491Y0025383D01*
X0343572Y0025259D01*
X0343649Y0025133D01*
X0343723Y0025005D01*
X0343794Y0024875D01*
X0343861Y0024743D01*
X0343924Y0024609D01*
X0343984Y0024474D01*
X0344040Y0024337D01*
X0344093Y0024198D01*
X0344141Y0024058D01*
X0344186Y0023917D01*
X0344227Y0023775D01*
X0344265Y0023632D01*
X0344298Y0023488D01*
X0344328Y0023343D01*
X0344354Y0023197D01*
X0344375Y0023051D01*
X0344393Y0022904D01*
X0344407Y0022757D01*
X0344417Y0022609D01*
X0344423Y0022461D01*
X0344425Y0022313D01*
X0344423Y0022165D01*
X0344417Y0022017D01*
X0344407Y0021869D01*
X0344393Y0021722D01*
X0344375Y0021575D01*
X0344354Y0021429D01*
X0344328Y0021283D01*
X0344298Y0021138D01*
X0344265Y0020994D01*
X0344227Y0020851D01*
X0344186Y0020709D01*
X0344141Y0020568D01*
X0344093Y0020428D01*
X0344040Y0020289D01*
X0343984Y0020152D01*
X0343924Y0020017D01*
X0343861Y0019883D01*
X0343794Y0019751D01*
X0343723Y0019621D01*
X0343649Y0019493D01*
X0343572Y0019367D01*
X0343491Y0019243D01*
X0343407Y0019121D01*
X0343320Y0019002D01*
X0343229Y0018885D01*
X0343135Y0018770D01*
X0343039Y0018658D01*
X0342939Y0018548D01*
X0342837Y0018442D01*
X0342731Y0018338D01*
X0342623Y0018237D01*
X0342512Y0018139D01*
X0342399Y0018043D01*
X0342283Y0017951D01*
X0342165Y0017862D01*
X0342044Y0017777D01*
X0341921Y0017694D01*
X0341796Y0017615D01*
X0341669Y0017539D01*
X0341540Y0017467D01*
X0341409Y0017398D01*
X0341276Y0017333D01*
X0341141Y0017272D01*
X0341005Y0017214D01*
X0340868Y0017159D01*
X0340729Y0017109D01*
X0340588Y0017062D01*
X0340447Y0017019D01*
X0340304Y0016979D01*
X0340160Y0016944D01*
X0340016Y0016912D01*
X0339870Y0016885D01*
X0339724Y0016861D01*
X0339577Y0016841D01*
X0339430Y0016825D01*
X0339283Y0016813D01*
X0339135Y0016805D01*
X0338987Y0016801D01*
X0338839Y0016801D01*
X0338691Y0016805D01*
X0338543Y0016813D01*
X0338396Y0016825D01*
X0338249Y0016841D01*
X0338102Y0016861D01*
X0337956Y0016885D01*
X0337810Y0016912D01*
X0337666Y0016944D01*
X0337522Y0016979D01*
X0337379Y0017019D01*
X0337238Y0017062D01*
X0337097Y0017109D01*
X0336958Y0017159D01*
X0336821Y0017214D01*
X0336685Y0017272D01*
X0336550Y0017333D01*
X0336417Y0017398D01*
X0336286Y0017467D01*
X0336157Y0017539D01*
X0336030Y0017615D01*
X0335905Y0017694D01*
X0335782Y0017777D01*
X0335661Y0017862D01*
X0335543Y0017951D01*
X0335427Y0018043D01*
X0335314Y0018139D01*
X0335203Y0018237D01*
X0335095Y0018338D01*
X0334989Y0018442D01*
X0334887Y0018548D01*
X0334787Y0018658D01*
X0334691Y0018770D01*
X0334597Y0018885D01*
X0334506Y0019002D01*
X0334419Y0019121D01*
X0334335Y0019243D01*
X0334254Y0019367D01*
X0334177Y0019493D01*
X0334103Y0019621D01*
X0334032Y0019751D01*
X0333965Y0019883D01*
X0333902Y0020017D01*
X0333842Y0020152D01*
X0333786Y0020289D01*
X0333733Y0020428D01*
X0333685Y0020568D01*
X0333640Y0020709D01*
X0333599Y0020851D01*
X0333561Y0020994D01*
X0333528Y0021138D01*
X0333498Y0021283D01*
X0333472Y0021429D01*
X0333451Y0021575D01*
X0333433Y0021722D01*
X0333419Y0021869D01*
X0333409Y0022017D01*
X0333403Y0022165D01*
X0333401Y0022313D01*
D11*
X0042535Y0022313D02*
X0042535Y0298801D01*
X0042541Y0299277D01*
X0042558Y0299752D01*
X0042587Y0300227D01*
X0042627Y0300701D01*
X0042679Y0301174D01*
X0042742Y0301645D01*
X0042816Y0302115D01*
X0042902Y0302583D01*
X0042999Y0303049D01*
X0043107Y0303512D01*
X0043226Y0303972D01*
X0043357Y0304430D01*
X0043498Y0304884D01*
X0043651Y0305335D01*
X0043814Y0305781D01*
X0043988Y0306224D01*
X0044173Y0306662D01*
X0044368Y0307096D01*
X0044574Y0307525D01*
X0044790Y0307949D01*
X0045016Y0308368D01*
X0045252Y0308781D01*
X0045498Y0309188D01*
X0045754Y0309589D01*
X0046020Y0309983D01*
X0046295Y0310372D01*
X0046579Y0310753D01*
X0046872Y0311127D01*
X0047174Y0311495D01*
X0047486Y0311855D01*
X0047805Y0312207D01*
X0048133Y0312551D01*
X0048470Y0312888D01*
X0048814Y0313216D01*
X0049166Y0313535D01*
X0049526Y0313847D01*
X0049894Y0314149D01*
X0050268Y0314442D01*
X0050649Y0314726D01*
X0051038Y0315001D01*
X0051432Y0315267D01*
X0051833Y0315523D01*
X0052240Y0315769D01*
X0052653Y0316005D01*
X0053072Y0316231D01*
X0053496Y0316447D01*
X0053925Y0316653D01*
X0054359Y0316848D01*
X0054797Y0317033D01*
X0055240Y0317207D01*
X0055686Y0317370D01*
X0056137Y0317523D01*
X0056591Y0317664D01*
X0057049Y0317795D01*
X0057509Y0317914D01*
X0057972Y0318022D01*
X0058438Y0318119D01*
X0058906Y0318205D01*
X0059376Y0318279D01*
X0059847Y0318342D01*
X0060320Y0318394D01*
X0060794Y0318434D01*
X0061269Y0318463D01*
X0061744Y0318480D01*
X0062220Y0318486D01*
X0338708Y0318486D01*
X0339184Y0318480D01*
X0339659Y0318463D01*
X0340134Y0318434D01*
X0340608Y0318394D01*
X0341081Y0318342D01*
X0341552Y0318279D01*
X0342022Y0318205D01*
X0342490Y0318119D01*
X0342956Y0318022D01*
X0343419Y0317914D01*
X0343879Y0317795D01*
X0344337Y0317664D01*
X0344791Y0317523D01*
X0345242Y0317370D01*
X0345688Y0317207D01*
X0346131Y0317033D01*
X0346569Y0316848D01*
X0347003Y0316653D01*
X0347432Y0316447D01*
X0347856Y0316231D01*
X0348275Y0316005D01*
X0348688Y0315769D01*
X0349095Y0315523D01*
X0349496Y0315267D01*
X0349890Y0315001D01*
X0350279Y0314726D01*
X0350660Y0314442D01*
X0351034Y0314149D01*
X0351402Y0313847D01*
X0351762Y0313535D01*
X0352114Y0313216D01*
X0352458Y0312888D01*
X0352795Y0312551D01*
X0353123Y0312207D01*
X0353442Y0311855D01*
X0353754Y0311495D01*
X0354056Y0311127D01*
X0354349Y0310753D01*
X0354633Y0310372D01*
X0354908Y0309983D01*
X0355174Y0309589D01*
X0355430Y0309188D01*
X0355676Y0308781D01*
X0355912Y0308368D01*
X0356138Y0307949D01*
X0356354Y0307525D01*
X0356560Y0307096D01*
X0356755Y0306662D01*
X0356940Y0306224D01*
X0357114Y0305781D01*
X0357277Y0305335D01*
X0357430Y0304884D01*
X0357571Y0304430D01*
X0357702Y0303972D01*
X0357821Y0303512D01*
X0357929Y0303049D01*
X0358026Y0302583D01*
X0358112Y0302115D01*
X0358186Y0301645D01*
X0358249Y0301174D01*
X0358301Y0300701D01*
X0358341Y0300227D01*
X0358370Y0299752D01*
X0358387Y0299277D01*
X0358393Y0298801D01*
X0358435Y0298701D02*
X0358435Y0022213D01*
X0358393Y0022313D02*
X0358371Y0021842D01*
X0358337Y0021372D01*
X0358292Y0020903D01*
X0358235Y0020436D01*
X0358167Y0019969D01*
X0358088Y0019505D01*
X0357997Y0019042D01*
X0357896Y0018582D01*
X0357783Y0018125D01*
X0357660Y0017670D01*
X0357525Y0017219D01*
X0357380Y0016770D01*
X0357223Y0016326D01*
X0357056Y0015885D01*
X0356879Y0015449D01*
X0356691Y0015017D01*
X0356493Y0014589D01*
X0356284Y0014167D01*
X0356065Y0013750D01*
X0355836Y0013338D01*
X0355597Y0012932D01*
X0355349Y0012531D01*
X0355091Y0012137D01*
X0354823Y0011749D01*
X0354547Y0011368D01*
X0354261Y0010993D01*
X0353966Y0010626D01*
X0353662Y0010266D01*
X0353350Y0009913D01*
X0353029Y0009568D01*
X0352700Y0009231D01*
X0352363Y0008901D01*
X0352018Y0008580D01*
X0351665Y0008268D01*
X0351305Y0007964D01*
X0350938Y0007669D01*
X0350564Y0007382D01*
X0350183Y0007105D01*
X0349795Y0006837D01*
X0349401Y0006579D01*
X0349001Y0006330D01*
X0348595Y0006091D01*
X0348183Y0005862D01*
X0347766Y0005643D01*
X0347343Y0005434D01*
X0346916Y0005235D01*
X0346484Y0005047D01*
X0346048Y0004869D01*
X0345608Y0004702D01*
X0345163Y0004546D01*
X0344715Y0004400D01*
X0344264Y0004265D01*
X0343809Y0004141D01*
X0343352Y0004028D01*
X0342891Y0003926D01*
X0342429Y0003836D01*
X0341965Y0003756D01*
X0341498Y0003688D01*
X0341031Y0003631D01*
X0340562Y0003585D01*
X0340092Y0003551D01*
X0339621Y0003528D01*
X0339150Y0003517D01*
X0338679Y0003516D01*
X0338208Y0003528D01*
X0062220Y0002628D01*
X0061744Y0002634D01*
X0061269Y0002651D01*
X0060794Y0002680D01*
X0060320Y0002720D01*
X0059847Y0002772D01*
X0059376Y0002835D01*
X0058906Y0002909D01*
X0058438Y0002995D01*
X0057972Y0003092D01*
X0057509Y0003200D01*
X0057049Y0003319D01*
X0056591Y0003450D01*
X0056137Y0003591D01*
X0055686Y0003744D01*
X0055240Y0003907D01*
X0054797Y0004081D01*
X0054359Y0004266D01*
X0053925Y0004461D01*
X0053496Y0004667D01*
X0053072Y0004883D01*
X0052653Y0005109D01*
X0052240Y0005345D01*
X0051833Y0005591D01*
X0051432Y0005847D01*
X0051038Y0006113D01*
X0050649Y0006388D01*
X0050268Y0006672D01*
X0049894Y0006965D01*
X0049526Y0007267D01*
X0049166Y0007579D01*
X0048814Y0007898D01*
X0048470Y0008226D01*
X0048133Y0008563D01*
X0047805Y0008907D01*
X0047486Y0009259D01*
X0047174Y0009619D01*
X0046872Y0009987D01*
X0046579Y0010361D01*
X0046295Y0010742D01*
X0046020Y0011131D01*
X0045754Y0011525D01*
X0045498Y0011926D01*
X0045252Y0012333D01*
X0045016Y0012746D01*
X0044790Y0013165D01*
X0044574Y0013589D01*
X0044368Y0014018D01*
X0044173Y0014452D01*
X0043988Y0014890D01*
X0043814Y0015333D01*
X0043651Y0015779D01*
X0043498Y0016230D01*
X0043357Y0016684D01*
X0043226Y0017142D01*
X0043107Y0017602D01*
X0042999Y0018065D01*
X0042902Y0018531D01*
X0042816Y0018999D01*
X0042742Y0019469D01*
X0042679Y0019940D01*
X0042627Y0020413D01*
X0042587Y0020887D01*
X0042558Y0021362D01*
X0042541Y0021837D01*
X0042535Y0022313D01*
M02*
