<?xml version="1.0" standalone="no"?>
 <!DOCTYPE svg PUBLIC "-//W3C//DTD SVG 1.1//EN" 
 "http://www.w3.org/Graphics/SVG/1.1/DTD/svg11.dtd"> 
<svg xmlns="http://www.w3.org/2000/svg" version="1.1" 
    width="35.56cm" height="21.59cm" viewBox="0 0 140000 85000 ">
<title>SVG Picture created as PiHatAx5043-F.Paste.svg date 2018/02/06 17:45:59 </title>
  <desc>Picture generated by PCBNEW </desc>
<g style="fill:#000000; fill-opacity:1;stroke:#000000; stroke-opacity:1;
stroke-linecap:round; stroke-linejoin:round; "
 transform="translate(0 0) scale(1 1)">
</g>
<g style="fill:#000000; fill-opacity:0.0; 
stroke:#000000; stroke-width:-0.000393701; stroke-opacity:1; 
stroke-linecap:round; stroke-linejoin:round;">
</g>
<g style="fill:#000000; fill-opacity:0.0; 
stroke:#000000; stroke-width:39.3701; stroke-opacity:1; 
stroke-linecap:round; stroke-linejoin:round;">
</g>
<g style="fill:#000000; fill-opacity:0.0; 
stroke:#000000; stroke-width:59.0551; stroke-opacity:1; 
stroke-linecap:round; stroke-linejoin:round;">
<rect x="92755.9" y="67677.2" width="42519.7" height="12598.4" rx="0" />
</g>
<g style="fill:#000000; fill-opacity:0.0; 
stroke:#000000; stroke-width:39.3701; stroke-opacity:1; 
stroke-linecap:round; stroke-linejoin:round;">
</g>
<g style="fill:#000000; fill-opacity:0.0; 
stroke:#000000; stroke-width:59.0551; stroke-opacity:1; 
stroke-linecap:round; stroke-linejoin:round;">
<rect x="3937.01" y="3937.01" width="132126" height="77126" rx="0" />
</g>
<g style="fill:#000000; fill-opacity:0.0; 
stroke:#000000; stroke-width:39.3701; stroke-opacity:1; 
stroke-linecap:round; stroke-linejoin:round;">
</g>
<g style="fill:#000000; fill-opacity:0.0; 
stroke:#000000; stroke-width:59.0551; stroke-opacity:1; 
stroke-linecap:round; stroke-linejoin:round;">
<rect x="4724.41" y="4724.41" width="130551" height="75551.2" rx="0" />
</g>
<g style="fill:#000000; fill-opacity:0.0; 
stroke:#000000; stroke-width:39.3701; stroke-opacity:1; 
stroke-linecap:round; stroke-linejoin:round;">
</g>
<g style="fill:#000000; fill-opacity:0.0; 
stroke:#000000; stroke-width:59.0551; stroke-opacity:1; 
stroke-linecap:round; stroke-linejoin:round;">
<path d="M23622 4724
L23622 3937
" />
</g>
<g style="fill:#000000; fill-opacity:0.0; 
stroke:#000000; stroke-width:39.3701; stroke-opacity:1; 
stroke-linecap:round; stroke-linejoin:round;">
</g>
<g style="fill:#000000; fill-opacity:0.0; 
stroke:#000000; stroke-width:59.0551; stroke-opacity:1; 
stroke-linecap:round; stroke-linejoin:round;">
<path d="M43307 4724
L43307 3937
" />
</g>
<g style="fill:#000000; fill-opacity:0.0; 
stroke:#000000; stroke-width:39.3701; stroke-opacity:1; 
stroke-linecap:round; stroke-linejoin:round;">
</g>
<g style="fill:#000000; fill-opacity:0.0; 
stroke:#000000; stroke-width:59.0551; stroke-opacity:1; 
stroke-linecap:round; stroke-linejoin:round;">
<path d="M62992 4724
L62992 3937
" />
</g>
<g style="fill:#000000; fill-opacity:0.0; 
stroke:#000000; stroke-width:39.3701; stroke-opacity:1; 
stroke-linecap:round; stroke-linejoin:round;">
</g>
<g style="fill:#000000; fill-opacity:0.0; 
stroke:#000000; stroke-width:59.0551; stroke-opacity:1; 
stroke-linecap:round; stroke-linejoin:round;">
<path d="M82677 4724
L82677 3937
" />
</g>
<g style="fill:#000000; fill-opacity:0.0; 
stroke:#000000; stroke-width:39.3701; stroke-opacity:1; 
stroke-linecap:round; stroke-linejoin:round;">
</g>
<g style="fill:#000000; fill-opacity:0.0; 
stroke:#000000; stroke-width:59.0551; stroke-opacity:1; 
stroke-linecap:round; stroke-linejoin:round;">
<path d="M102362 4724
L102362 3937
" />
</g>
<g style="fill:#000000; fill-opacity:0.0; 
stroke:#000000; stroke-width:39.3701; stroke-opacity:1; 
stroke-linecap:round; stroke-linejoin:round;">
</g>
<g style="fill:#000000; fill-opacity:0.0; 
stroke:#000000; stroke-width:59.0551; stroke-opacity:1; 
stroke-linecap:round; stroke-linejoin:round;">
<path d="M122047 4724
L122047 3937
" />
</g>
<g style="fill:#000000; fill-opacity:0.0; 
stroke:#000000; stroke-width:39.3701; stroke-opacity:1; 
stroke-linecap:round; stroke-linejoin:round;">
</g>
<g style="fill:#000000; fill-opacity:0.0; 
stroke:#000000; stroke-width:59.0551; stroke-opacity:1; 
stroke-linecap:round; stroke-linejoin:round;">
<path d="M14169 4562
L13877 4562
" />
<path d="M14023 4562
L14023 4050
L13974 4123
L13925 4172
L13877 4196
" />
</g>
<g style="fill:#000000; fill-opacity:0.0; 
stroke:#000000; stroke-width:39.3701; stroke-opacity:1; 
stroke-linecap:round; stroke-linejoin:round;">
</g>
<g style="fill:#000000; fill-opacity:0.0; 
stroke:#000000; stroke-width:59.0551; stroke-opacity:1; 
stroke-linecap:round; stroke-linejoin:round;">
<path d="M33562 4099
L33586 4074
L33635 4050
L33757 4050
L33805 4074
L33830 4099
L33854 4147
L33854 4196
L33830 4269
L33537 4562
L33854 4562
" />
</g>
<g style="fill:#000000; fill-opacity:0.0; 
stroke:#000000; stroke-width:39.3701; stroke-opacity:1; 
stroke-linecap:round; stroke-linejoin:round;">
</g>
<g style="fill:#000000; fill-opacity:0.0; 
stroke:#000000; stroke-width:59.0551; stroke-opacity:1; 
stroke-linecap:round; stroke-linejoin:round;">
<path d="M53222 4050
L53539 4050
L53368 4245
L53442 4245
L53490 4269
L53515 4294
L53539 4342
L53539 4464
L53515 4513
L53490 4537
L53442 4562
L53295 4562
L53247 4537
L53222 4513
" />
</g>
<g style="fill:#000000; fill-opacity:0.0; 
stroke:#000000; stroke-width:39.3701; stroke-opacity:1; 
stroke-linecap:round; stroke-linejoin:round;">
</g>
<g style="fill:#000000; fill-opacity:0.0; 
stroke:#000000; stroke-width:59.0551; stroke-opacity:1; 
stroke-linecap:round; stroke-linejoin:round;">
<path d="M73175 4221
L73175 4562
" />
<path d="M73053 4026
L72932 4391
L73248 4391
" />
</g>
<g style="fill:#000000; fill-opacity:0.0; 
stroke:#000000; stroke-width:39.3701; stroke-opacity:1; 
stroke-linecap:round; stroke-linejoin:round;">
</g>
<g style="fill:#000000; fill-opacity:0.0; 
stroke:#000000; stroke-width:59.0551; stroke-opacity:1; 
stroke-linecap:round; stroke-linejoin:round;">
<path d="M92885 4050
L92641 4050
L92617 4294
L92641 4269
L92690 4245
L92812 4245
L92860 4269
L92885 4294
L92909 4342
L92909 4464
L92885 4513
L92860 4537
L92812 4562
L92690 4562
L92641 4537
L92617 4513
" />
</g>
<g style="fill:#000000; fill-opacity:0.0; 
stroke:#000000; stroke-width:39.3701; stroke-opacity:1; 
stroke-linecap:round; stroke-linejoin:round;">
</g>
<g style="fill:#000000; fill-opacity:0.0; 
stroke:#000000; stroke-width:59.0551; stroke-opacity:1; 
stroke-linecap:round; stroke-linejoin:round;">
<path d="M112545 4050
L112448 4050
L112399 4074
L112375 4099
L112326 4172
L112302 4269
L112302 4464
L112326 4513
L112350 4537
L112399 4562
L112497 4562
L112545 4537
L112570 4513
L112594 4464
L112594 4342
L112570 4294
L112545 4269
L112497 4245
L112399 4245
L112350 4269
L112326 4294
L112302 4342
" />
</g>
<g style="fill:#000000; fill-opacity:0.0; 
stroke:#000000; stroke-width:39.3701; stroke-opacity:1; 
stroke-linecap:round; stroke-linejoin:round;">
</g>
<g style="fill:#000000; fill-opacity:0.0; 
stroke:#000000; stroke-width:59.0551; stroke-opacity:1; 
stroke-linecap:round; stroke-linejoin:round;">
<path d="M131962 4050
L132304 4050
L132084 4562
" />
</g>
<g style="fill:#000000; fill-opacity:0.0; 
stroke:#000000; stroke-width:39.3701; stroke-opacity:1; 
stroke-linecap:round; stroke-linejoin:round;">
</g>
<g style="fill:#000000; fill-opacity:0.0; 
stroke:#000000; stroke-width:59.0551; stroke-opacity:1; 
stroke-linecap:round; stroke-linejoin:round;">
<path d="M23622 80275
L23622 81062
" />
</g>
<g style="fill:#000000; fill-opacity:0.0; 
stroke:#000000; stroke-width:39.3701; stroke-opacity:1; 
stroke-linecap:round; stroke-linejoin:round;">
</g>
<g style="fill:#000000; fill-opacity:0.0; 
stroke:#000000; stroke-width:59.0551; stroke-opacity:1; 
stroke-linecap:round; stroke-linejoin:round;">
<path d="M43307 80275
L43307 81062
" />
</g>
<g style="fill:#000000; fill-opacity:0.0; 
stroke:#000000; stroke-width:39.3701; stroke-opacity:1; 
stroke-linecap:round; stroke-linejoin:round;">
</g>
<g style="fill:#000000; fill-opacity:0.0; 
stroke:#000000; stroke-width:59.0551; stroke-opacity:1; 
stroke-linecap:round; stroke-linejoin:round;">
<path d="M62992 80275
L62992 81062
" />
</g>
<g style="fill:#000000; fill-opacity:0.0; 
stroke:#000000; stroke-width:39.3701; stroke-opacity:1; 
stroke-linecap:round; stroke-linejoin:round;">
</g>
<g style="fill:#000000; fill-opacity:0.0; 
stroke:#000000; stroke-width:59.0551; stroke-opacity:1; 
stroke-linecap:round; stroke-linejoin:round;">
<path d="M82677 80275
L82677 81062
" />
</g>
<g style="fill:#000000; fill-opacity:0.0; 
stroke:#000000; stroke-width:39.3701; stroke-opacity:1; 
stroke-linecap:round; stroke-linejoin:round;">
</g>
<g style="fill:#000000; fill-opacity:0.0; 
stroke:#000000; stroke-width:59.0551; stroke-opacity:1; 
stroke-linecap:round; stroke-linejoin:round;">
<path d="M102362 80275
L102362 81062
" />
</g>
<g style="fill:#000000; fill-opacity:0.0; 
stroke:#000000; stroke-width:39.3701; stroke-opacity:1; 
stroke-linecap:round; stroke-linejoin:round;">
</g>
<g style="fill:#000000; fill-opacity:0.0; 
stroke:#000000; stroke-width:59.0551; stroke-opacity:1; 
stroke-linecap:round; stroke-linejoin:round;">
<path d="M122047 80275
L122047 81062
" />
</g>
<g style="fill:#000000; fill-opacity:0.0; 
stroke:#000000; stroke-width:39.3701; stroke-opacity:1; 
stroke-linecap:round; stroke-linejoin:round;">
</g>
<g style="fill:#000000; fill-opacity:0.0; 
stroke:#000000; stroke-width:59.0551; stroke-opacity:1; 
stroke-linecap:round; stroke-linejoin:round;">
<path d="M14169 80900
L13877 80900
" />
<path d="M14023 80900
L14023 80389
L13974 80462
L13925 80510
L13877 80535
" />
</g>
<g style="fill:#000000; fill-opacity:0.0; 
stroke:#000000; stroke-width:39.3701; stroke-opacity:1; 
stroke-linecap:round; stroke-linejoin:round;">
</g>
<g style="fill:#000000; fill-opacity:0.0; 
stroke:#000000; stroke-width:59.0551; stroke-opacity:1; 
stroke-linecap:round; stroke-linejoin:round;">
<path d="M33562 80437
L33586 80413
L33635 80389
L33757 80389
L33805 80413
L33830 80437
L33854 80486
L33854 80535
L33830 80608
L33537 80900
L33854 80900
" />
</g>
<g style="fill:#000000; fill-opacity:0.0; 
stroke:#000000; stroke-width:39.3701; stroke-opacity:1; 
stroke-linecap:round; stroke-linejoin:round;">
</g>
<g style="fill:#000000; fill-opacity:0.0; 
stroke:#000000; stroke-width:59.0551; stroke-opacity:1; 
stroke-linecap:round; stroke-linejoin:round;">
<path d="M53222 80389
L53539 80389
L53368 80583
L53442 80583
L53490 80608
L53515 80632
L53539 80681
L53539 80803
L53515 80852
L53490 80876
L53442 80900
L53295 80900
L53247 80876
L53222 80852
" />
</g>
<g style="fill:#000000; fill-opacity:0.0; 
stroke:#000000; stroke-width:39.3701; stroke-opacity:1; 
stroke-linecap:round; stroke-linejoin:round;">
</g>
<g style="fill:#000000; fill-opacity:0.0; 
stroke:#000000; stroke-width:59.0551; stroke-opacity:1; 
stroke-linecap:round; stroke-linejoin:round;">
<path d="M73175 80559
L73175 80900
" />
<path d="M73053 80364
L72932 80730
L73248 80730
" />
</g>
<g style="fill:#000000; fill-opacity:0.0; 
stroke:#000000; stroke-width:39.3701; stroke-opacity:1; 
stroke-linecap:round; stroke-linejoin:round;">
</g>
<g style="fill:#000000; fill-opacity:0.0; 
stroke:#000000; stroke-width:59.0551; stroke-opacity:1; 
stroke-linecap:round; stroke-linejoin:round;">
<path d="M92885 80389
L92641 80389
L92617 80632
L92641 80608
L92690 80583
L92812 80583
L92860 80608
L92885 80632
L92909 80681
L92909 80803
L92885 80852
L92860 80876
L92812 80900
L92690 80900
L92641 80876
L92617 80852
" />
</g>
<g style="fill:#000000; fill-opacity:0.0; 
stroke:#000000; stroke-width:39.3701; stroke-opacity:1; 
stroke-linecap:round; stroke-linejoin:round;">
</g>
<g style="fill:#000000; fill-opacity:0.0; 
stroke:#000000; stroke-width:59.0551; stroke-opacity:1; 
stroke-linecap:round; stroke-linejoin:round;">
<path d="M112545 80389
L112448 80389
L112399 80413
L112375 80437
L112326 80510
L112302 80608
L112302 80803
L112326 80852
L112350 80876
L112399 80900
L112497 80900
L112545 80876
L112570 80852
L112594 80803
L112594 80681
L112570 80632
L112545 80608
L112497 80583
L112399 80583
L112350 80608
L112326 80632
L112302 80681
" />
</g>
<g style="fill:#000000; fill-opacity:0.0; 
stroke:#000000; stroke-width:39.3701; stroke-opacity:1; 
stroke-linecap:round; stroke-linejoin:round;">
</g>
<g style="fill:#000000; fill-opacity:0.0; 
stroke:#000000; stroke-width:59.0551; stroke-opacity:1; 
stroke-linecap:round; stroke-linejoin:round;">
<path d="M131962 80389
L132304 80389
L132084 80900
" />
</g>
<g style="fill:#000000; fill-opacity:0.0; 
stroke:#000000; stroke-width:39.3701; stroke-opacity:1; 
stroke-linecap:round; stroke-linejoin:round;">
</g>
<g style="fill:#000000; fill-opacity:0.0; 
stroke:#000000; stroke-width:59.0551; stroke-opacity:1; 
stroke-linecap:round; stroke-linejoin:round;">
<path d="M3937 23622
L4724 23622
" />
</g>
<g style="fill:#000000; fill-opacity:0.0; 
stroke:#000000; stroke-width:39.3701; stroke-opacity:1; 
stroke-linecap:round; stroke-linejoin:round;">
</g>
<g style="fill:#000000; fill-opacity:0.0; 
stroke:#000000; stroke-width:59.0551; stroke-opacity:1; 
stroke-linecap:round; stroke-linejoin:round;">
<path d="M3937 43307
L4724 43307
" />
</g>
<g style="fill:#000000; fill-opacity:0.0; 
stroke:#000000; stroke-width:39.3701; stroke-opacity:1; 
stroke-linecap:round; stroke-linejoin:round;">
</g>
<g style="fill:#000000; fill-opacity:0.0; 
stroke:#000000; stroke-width:59.0551; stroke-opacity:1; 
stroke-linecap:round; stroke-linejoin:round;">
<path d="M3937 62992
L4724 62992
" />
</g>
<g style="fill:#000000; fill-opacity:0.0; 
stroke:#000000; stroke-width:39.3701; stroke-opacity:1; 
stroke-linecap:round; stroke-linejoin:round;">
</g>
<g style="fill:#000000; fill-opacity:0.0; 
stroke:#000000; stroke-width:59.0551; stroke-opacity:1; 
stroke-linecap:round; stroke-linejoin:round;">
<path d="M4208 13864
L4452 13864
" />
<path d="M4160 14011
L4330 13499
L4501 14011
" />
</g>
<g style="fill:#000000; fill-opacity:0.0; 
stroke:#000000; stroke-width:39.3701; stroke-opacity:1; 
stroke-linecap:round; stroke-linejoin:round;">
</g>
<g style="fill:#000000; fill-opacity:0.0; 
stroke:#000000; stroke-width:59.0551; stroke-opacity:1; 
stroke-linecap:round; stroke-linejoin:round;">
<path d="M4367 33428
L4440 33452
L4464 33476
L4489 33525
L4489 33598
L4464 33647
L4440 33671
L4391 33696
L4196 33696
L4196 33184
L4367 33184
L4416 33208
L4440 33233
L4464 33281
L4464 33330
L4440 33379
L4416 33403
L4367 33428
L4196 33428
" />
</g>
<g style="fill:#000000; fill-opacity:0.0; 
stroke:#000000; stroke-width:39.3701; stroke-opacity:1; 
stroke-linecap:round; stroke-linejoin:round;">
</g>
<g style="fill:#000000; fill-opacity:0.0; 
stroke:#000000; stroke-width:59.0551; stroke-opacity:1; 
stroke-linecap:round; stroke-linejoin:round;">
<path d="M4489 53332
L4464 53356
L4391 53381
L4342 53381
L4269 53356
L4221 53308
L4196 53259
L4172 53161
L4172 53088
L4196 52991
L4221 52942
L4269 52893
L4342 52869
L4391 52869
L4464 52893
L4489 52918
" />
</g>
<g style="fill:#000000; fill-opacity:0.0; 
stroke:#000000; stroke-width:39.3701; stroke-opacity:1; 
stroke-linecap:round; stroke-linejoin:round;">
</g>
<g style="fill:#000000; fill-opacity:0.0; 
stroke:#000000; stroke-width:59.0551; stroke-opacity:1; 
stroke-linecap:round; stroke-linejoin:round;">
<path d="M4196 73066
L4196 72554
L4318 72554
L4391 72578
L4440 72627
L4464 72676
L4489 72773
L4489 72846
L4464 72944
L4440 72993
L4391 73041
L4318 73066
L4196 73066
" />
</g>
<g style="fill:#000000; fill-opacity:0.0; 
stroke:#000000; stroke-width:39.3701; stroke-opacity:1; 
stroke-linecap:round; stroke-linejoin:round;">
</g>
<g style="fill:#000000; fill-opacity:0.0; 
stroke:#000000; stroke-width:59.0551; stroke-opacity:1; 
stroke-linecap:round; stroke-linejoin:round;">
<path d="M136062 23622
L135275 23622
" />
</g>
<g style="fill:#000000; fill-opacity:0.0; 
stroke:#000000; stroke-width:39.3701; stroke-opacity:1; 
stroke-linecap:round; stroke-linejoin:round;">
</g>
<g style="fill:#000000; fill-opacity:0.0; 
stroke:#000000; stroke-width:59.0551; stroke-opacity:1; 
stroke-linecap:round; stroke-linejoin:round;">
<path d="M136062 43307
L135275 43307
" />
</g>
<g style="fill:#000000; fill-opacity:0.0; 
stroke:#000000; stroke-width:39.3701; stroke-opacity:1; 
stroke-linecap:round; stroke-linejoin:round;">
</g>
<g style="fill:#000000; fill-opacity:0.0; 
stroke:#000000; stroke-width:59.0551; stroke-opacity:1; 
stroke-linecap:round; stroke-linejoin:round;">
<path d="M136062 62992
L135275 62992
" />
</g>
<g style="fill:#000000; fill-opacity:0.0; 
stroke:#000000; stroke-width:39.3701; stroke-opacity:1; 
stroke-linecap:round; stroke-linejoin:round;">
</g>
<g style="fill:#000000; fill-opacity:0.0; 
stroke:#000000; stroke-width:59.0551; stroke-opacity:1; 
stroke-linecap:round; stroke-linejoin:round;">
<path d="M135547 13864
L135791 13864
" />
<path d="M135498 14011
L135669 13499
L135839 14011
" />
</g>
<g style="fill:#000000; fill-opacity:0.0; 
stroke:#000000; stroke-width:39.3701; stroke-opacity:1; 
stroke-linecap:round; stroke-linejoin:round;">
</g>
<g style="fill:#000000; fill-opacity:0.0; 
stroke:#000000; stroke-width:59.0551; stroke-opacity:1; 
stroke-linecap:round; stroke-linejoin:round;">
<path d="M135705 33428
L135778 33452
L135803 33476
L135827 33525
L135827 33598
L135803 33647
L135778 33671
L135730 33696
L135535 33696
L135535 33184
L135705 33184
L135754 33208
L135778 33233
L135803 33281
L135803 33330
L135778 33379
L135754 33403
L135705 33428
L135535 33428
" />
</g>
<g style="fill:#000000; fill-opacity:0.0; 
stroke:#000000; stroke-width:39.3701; stroke-opacity:1; 
stroke-linecap:round; stroke-linejoin:round;">
</g>
<g style="fill:#000000; fill-opacity:0.0; 
stroke:#000000; stroke-width:59.0551; stroke-opacity:1; 
stroke-linecap:round; stroke-linejoin:round;">
<path d="M135827 53332
L135803 53356
L135730 53381
L135681 53381
L135608 53356
L135559 53308
L135535 53259
L135510 53161
L135510 53088
L135535 52991
L135559 52942
L135608 52893
L135681 52869
L135730 52869
L135803 52893
L135827 52918
" />
</g>
<g style="fill:#000000; fill-opacity:0.0; 
stroke:#000000; stroke-width:39.3701; stroke-opacity:1; 
stroke-linecap:round; stroke-linejoin:round;">
</g>
<g style="fill:#000000; fill-opacity:0.0; 
stroke:#000000; stroke-width:59.0551; stroke-opacity:1; 
stroke-linecap:round; stroke-linejoin:round;">
<path d="M135535 73066
L135535 72554
L135657 72554
L135730 72578
L135778 72627
L135803 72676
L135827 72773
L135827 72846
L135803 72944
L135778 72993
L135730 73041
L135657 73066
L135535 73066
" />
</g>
<g style="fill:#000000; fill-opacity:0.0; 
stroke:#000000; stroke-width:39.3701; stroke-opacity:1; 
stroke-linecap:round; stroke-linejoin:round;">
</g>
<g style="fill:#000000; fill-opacity:0.0; 
stroke:#000000; stroke-width:59.0551; stroke-opacity:1; 
stroke-linecap:round; stroke-linejoin:round;">
<path d="M101951 78613
L101951 78023
L102092 78023
L102176 78051
L102232 78107
L102260 78163
L102289 78276
L102289 78360
L102260 78473
L102232 78529
L102176 78585
L102092 78613
L101951 78613
" />
<path d="M102795 78613
L102795 78304
L102767 78248
L102710 78219
L102598 78219
L102542 78248
" />
<path d="M102795 78585
L102739 78613
L102598 78613
L102542 78585
L102514 78529
L102514 78473
L102542 78416
L102598 78388
L102739 78388
L102795 78360
" />
<path d="M102992 78219
L103217 78219
" />
<path d="M103076 78023
L103076 78529
L103104 78585
L103160 78613
L103217 78613
" />
<path d="M103638 78585
L103582 78613
L103470 78613
L103413 78585
L103385 78529
L103385 78304
L103413 78248
L103470 78219
L103582 78219
L103638 78248
L103667 78304
L103667 78360
L103385 78416
" />
<path d="M103920 78557
L103948 78585
L103920 78613
L103892 78585
L103920 78557
L103920 78613
" />
<path d="M103920 78248
L103948 78276
L103920 78304
L103892 78276
L103920 78248
L103920 78304
" />
<path d="M104623 78079
L104651 78051
L104707 78023
L104848 78023
L104904 78051
L104932 78079
L104960 78135
L104960 78191
L104932 78276
L104595 78613
L104960 78613
" />
<path d="M105326 78023
L105382 78023
L105438 78051
L105466 78079
L105494 78135
L105523 78248
L105523 78388
L105494 78501
L105466 78557
L105438 78585
L105382 78613
L105326 78613
L105269 78585
L105241 78557
L105213 78501
L105185 78388
L105185 78248
L105213 78135
L105241 78079
L105269 78051
L105326 78023
" />
<path d="M106085 78613
L105748 78613
" />
<path d="M105916 78613
L105916 78023
L105860 78107
L105804 78163
L105748 78191
" />
<path d="M106282 78023
L106676 78023
L106422 78613
" />
<path d="M106901 78388
L107350 78388
" />
<path d="M107941 78613
L107604 78613
" />
<path d="M107772 78613
L107772 78023
L107716 78107
L107660 78163
L107604 78191
" />
<path d="M108307 78023
L108363 78023
L108419 78051
L108447 78079
L108475 78135
L108503 78248
L108503 78388
L108475 78501
L108447 78557
L108419 78585
L108363 78613
L108307 78613
L108250 78585
L108222 78557
L108194 78501
L108166 78388
L108166 78248
L108194 78135
L108222 78079
L108250 78051
L108307 78023
" />
<path d="M108757 78388
L109206 78388
" />
<path d="M109460 78079
L109488 78051
L109544 78023
L109685 78023
L109741 78051
L109769 78079
L109797 78135
L109797 78191
L109769 78276
L109431 78613
L109797 78613
" />
<path d="M110078 78613
L110191 78613
L110247 78585
L110275 78557
L110331 78473
L110359 78360
L110359 78135
L110331 78079
L110303 78051
L110247 78023
L110134 78023
L110078 78051
L110050 78079
L110022 78135
L110022 78276
L110050 78332
L110078 78360
L110134 78388
L110247 78388
L110303 78360
L110331 78332
L110359 78276
" />
</g>
<g style="fill:#000000; fill-opacity:0.0; 
stroke:#000000; stroke-width:39.3701; stroke-opacity:1; 
stroke-linecap:round; stroke-linejoin:round;">
</g>
<g style="fill:#000000; fill-opacity:0.0; 
stroke:#000000; stroke-width:59.0551; stroke-opacity:1; 
stroke-linecap:round; stroke-linejoin:round;">
<path d="M92755 78897
L135275 78897
" />
</g>
<g style="fill:#000000; fill-opacity:0.0; 
stroke:#000000; stroke-width:39.3701; stroke-opacity:1; 
stroke-linecap:round; stroke-linejoin:round;">
</g>
<g style="fill:#000000; fill-opacity:0.0; 
stroke:#000000; stroke-width:59.0551; stroke-opacity:1; 
stroke-linecap:round; stroke-linejoin:round;">
<path d="M93290 79715
L93290 79125
" />
<path d="M93627 79715
L93374 79378
" />
<path d="M93627 79125
L93290 79462
" />
<path d="M93880 79715
L93880 79322
" />
<path d="M93880 79125
L93852 79153
L93880 79181
L93908 79153
L93880 79125
L93880 79181
" />
<path d="M94499 79659
L94471 79687
L94386 79715
L94330 79715
L94246 79687
L94190 79631
L94161 79575
L94133 79462
L94133 79378
L94161 79266
L94190 79209
L94246 79153
L94330 79125
L94386 79125
L94471 79153
L94499 79181
" />
<path d="M95005 79715
L95005 79406
L94977 79350
L94921 79322
L94808 79322
L94752 79350
" />
<path d="M95005 79687
L94949 79715
L94808 79715
L94752 79687
L94724 79631
L94724 79575
L94752 79519
L94808 79491
L94949 79491
L95005 79462
" />
<path d="M95539 79715
L95539 79125
" />
<path d="M95539 79687
L95483 79715
L95371 79715
L95314 79687
L95286 79659
L95258 79603
L95258 79434
L95286 79378
L95314 79350
L95371 79322
L95483 79322
L95539 79350
" />
<path d="M96271 79406
L96467 79406
" />
<path d="M96552 79715
L96271 79715
L96271 79125
L96552 79125
" />
<path d="M96805 79659
L96833 79687
L96805 79715
L96777 79687
L96805 79659
L96805 79715
" />
<path d="M97086 79715
L97086 79125
L97227 79125
L97311 79153
L97367 79209
L97395 79266
L97424 79378
L97424 79462
L97395 79575
L97367 79631
L97311 79687
L97227 79715
L97086 79715
" />
<path d="M97677 79659
L97705 79687
L97677 79715
L97649 79687
L97677 79659
L97677 79715
" />
<path d="M97930 79547
L98211 79547
" />
<path d="M97874 79715
L98070 79125
L98267 79715
" />
<path d="M98464 79659
L98492 79687
L98464 79715
L98436 79687
L98464 79659
L98464 79715
" />
<path d="M99645 79715
L99645 79125
" />
<path d="M99701 79491
L99870 79715
" />
<path d="M99870 79322
L99645 79547
" />
<path d="M100123 79715
L100123 79322
" />
<path d="M100123 79125
L100095 79153
L100123 79181
L100151 79153
L100123 79125
L100123 79181
" />
<path d="M100658 79687
L100601 79715
L100489 79715
L100433 79687
L100404 79659
L100376 79603
L100376 79434
L100404 79378
L100433 79350
L100489 79322
L100601 79322
L100658 79350
" />
<path d="M101164 79715
L101164 79406
L101136 79350
L101079 79322
L100967 79322
L100911 79350
" />
<path d="M101164 79687
L101107 79715
L100967 79715
L100911 79687
L100883 79631
L100883 79575
L100911 79519
L100967 79491
L101107 79491
L101164 79462
" />
<path d="M101698 79715
L101698 79125
" />
<path d="M101698 79687
L101642 79715
L101529 79715
L101473 79687
L101445 79659
L101417 79603
L101417 79434
L101445 79378
L101473 79350
L101529 79322
L101642 79322
L101698 79350
" />
<path d="M102682 79322
L102682 79715
" />
<path d="M102542 79097
L102401 79519
L102767 79519
" />
<path d="M102992 79659
L103020 79687
L102992 79715
L102964 79687
L102992 79659
L102992 79715
" />
<path d="M103385 79125
L103442 79125
L103498 79153
L103526 79181
L103554 79237
L103582 79350
L103582 79491
L103554 79603
L103526 79659
L103498 79687
L103442 79715
L103385 79715
L103329 79687
L103301 79659
L103273 79603
L103245 79491
L103245 79350
L103273 79237
L103301 79181
L103329 79153
L103385 79125
" />
<path d="M103835 79659
L103863 79687
L103835 79715
L103807 79687
L103835 79659
L103835 79715
" />
<path d="M104060 79125
L104454 79125
L104201 79715
" />
</g>
<g style="fill:#000000; fill-opacity:0.0; 
stroke:#000000; stroke-width:39.3701; stroke-opacity:1; 
stroke-linecap:round; stroke-linejoin:round;">
</g>
<g style="fill:#000000; fill-opacity:0.0; 
stroke:#000000; stroke-width:59.0551; stroke-opacity:1; 
stroke-linecap:round; stroke-linejoin:round;">
<path d="M92755 77716
L135275 77716
" />
</g>
<g style="fill:#000000; fill-opacity:0.0; 
stroke:#000000; stroke-width:39.3701; stroke-opacity:1; 
stroke-linecap:round; stroke-linejoin:round;">
</g>
<g style="fill:#000000; fill-opacity:0.0; 
stroke:#000000; stroke-width:118.11; stroke-opacity:1; 
stroke-linecap:round; stroke-linejoin:round;">
<path d="M127092 78613
L126895 78332
" />
<path d="M126754 78613
L126754 78023
L126979 78023
L127035 78051
L127064 78079
L127092 78135
L127092 78219
L127064 78276
L127035 78304
L126979 78332
L126754 78332
" />
<path d="M127570 78585
L127514 78613
L127401 78613
L127345 78585
L127317 78529
L127317 78304
L127345 78248
L127401 78219
L127514 78219
L127570 78248
L127598 78304
L127598 78360
L127317 78416
" />
<path d="M127795 78219
L127935 78613
L128076 78219
" />
<path d="M128301 78557
L128329 78585
L128301 78613
L128273 78585
L128301 78557
L128301 78613
" />
<path d="M128301 78248
L128329 78276
L128301 78304
L128273 78276
L128301 78248
L128301 78304
" />
<path d="M128948 78023
L129145 78613
L129341 78023
" />
<path d="M129848 78613
L129510 78613
" />
<path d="M129679 78613
L129679 78023
L129623 78107
L129566 78163
L129510 78191
" />
<path d="M130101 78557
L130129 78585
L130101 78613
L130073 78585
L130101 78557
L130101 78613
" />
<path d="M130354 78079
L130382 78051
L130438 78023
L130579 78023
L130635 78051
L130663 78079
L130691 78135
L130691 78191
L130663 78276
L130326 78613
L130691 78613
" />
</g>
<g style="fill:#000000; fill-opacity:0.0; 
stroke:#000000; stroke-width:39.3701; stroke-opacity:1; 
stroke-linecap:round; stroke-linejoin:round;">
</g>
<g style="fill:#000000; fill-opacity:0.0; 
stroke:#000000; stroke-width:59.0551; stroke-opacity:1; 
stroke-linecap:round; stroke-linejoin:round;">
<path d="M93262 78585
L93346 78613
L93487 78613
L93543 78585
L93571 78557
L93599 78501
L93599 78444
L93571 78388
L93543 78360
L93487 78332
L93374 78304
L93318 78276
L93290 78248
L93262 78191
L93262 78135
L93290 78079
L93318 78051
L93374 78023
L93515 78023
L93599 78051
" />
<path d="M93852 78613
L93852 78219
" />
<path d="M93852 78023
L93824 78051
L93852 78079
L93880 78051
L93852 78023
L93852 78079
" />
<path d="M94077 78219
L94386 78219
L94077 78613
L94386 78613
" />
<path d="M94836 78585
L94780 78613
L94668 78613
L94611 78585
L94583 78529
L94583 78304
L94611 78248
L94668 78219
L94780 78219
L94836 78248
L94865 78304
L94865 78360
L94583 78416
" />
<path d="M95118 78557
L95146 78585
L95118 78613
L95089 78585
L95118 78557
L95118 78613
" />
<path d="M95118 78248
L95146 78276
L95118 78304
L95089 78276
L95118 78248
L95118 78304
" />
<path d="M95849 78023
L95849 78501
L95877 78557
L95905 78585
L95961 78613
L96074 78613
L96130 78585
L96158 78557
L96186 78501
L96186 78023
" />
<path d="M96439 78585
L96524 78613
L96664 78613
L96721 78585
L96749 78557
L96777 78501
L96777 78444
L96749 78388
L96721 78360
L96664 78332
L96552 78304
L96496 78276
L96467 78248
L96439 78191
L96439 78135
L96467 78079
L96496 78051
L96552 78023
L96692 78023
L96777 78051
" />
<path d="M97311 78613
L97030 78613
L97030 78023
" />
<path d="M97733 78585
L97677 78613
L97564 78613
L97508 78585
L97480 78529
L97480 78304
L97508 78248
L97564 78219
L97677 78219
L97733 78248
L97761 78304
L97761 78360
L97480 78416
" />
<path d="M98267 78219
L98267 78697
L98239 78754
L98211 78782
L98155 78810
L98070 78810
L98014 78782
" />
<path d="M98267 78585
L98211 78613
L98098 78613
L98042 78585
L98014 78557
L97986 78501
L97986 78332
L98014 78276
L98042 78248
L98098 78219
L98211 78219
L98267 78248
" />
<path d="M98802 78613
L98802 78304
L98773 78248
L98717 78219
L98605 78219
L98548 78248
" />
<path d="M98802 78585
L98745 78613
L98605 78613
L98548 78585
L98520 78529
L98520 78473
L98548 78416
L98605 78388
L98745 78388
L98802 78360
" />
<path d="M99167 78613
L99111 78585
L99083 78529
L99083 78023
" />
</g>
<g style="fill:#000000; fill-opacity:0.0; 
stroke:#000000; stroke-width:39.3701; stroke-opacity:1; 
stroke-linecap:round; stroke-linejoin:round;">
</g>
<g style="fill:#000000; fill-opacity:0.0; 
stroke:#000000; stroke-width:59.0551; stroke-opacity:1; 
stroke-linecap:round; stroke-linejoin:round;">
<path d="M126754 79715
L126754 79125
" />
<path d="M127289 79715
L127289 79125
" />
<path d="M127289 79687
L127232 79715
L127120 79715
L127064 79687
L127035 79659
L127007 79603
L127007 79434
L127035 79378
L127064 79350
L127120 79322
L127232 79322
L127289 79350
" />
<path d="M127570 79659
L127598 79687
L127570 79715
L127542 79687
L127570 79659
L127570 79715
" />
<path d="M127570 79350
L127598 79378
L127570 79406
L127542 79378
L127570 79350
L127570 79406
" />
<path d="M128610 79715
L128273 79715
" />
<path d="M128442 79715
L128442 79125
L128385 79209
L128329 79266
L128273 79294
" />
<path d="M129285 79097
L128779 79856
" />
<path d="M129791 79715
L129454 79715
" />
<path d="M129623 79715
L129623 79125
L129566 79209
L129510 79266
L129454 79294
" />
</g>
<g style="fill:#000000; fill-opacity:0.0; 
stroke:#000000; stroke-width:39.3701; stroke-opacity:1; 
stroke-linecap:round; stroke-linejoin:round;">
</g>
<g style="fill:#000000; fill-opacity:0.0; 
stroke:#000000; stroke-width:59.0551; stroke-opacity:1; 
stroke-linecap:round; stroke-linejoin:round;">
<path d="M92755 76141
L135275 76141
" />
</g>
<g style="fill:#000000; fill-opacity:0.0; 
stroke:#000000; stroke-width:39.3701; stroke-opacity:1; 
stroke-linecap:round; stroke-linejoin:round;">
</g>
<g style="fill:#000000; fill-opacity:0.0; 
stroke:#000000; stroke-width:157.48; stroke-opacity:1; 
stroke-linecap:round; stroke-linejoin:round;">
<path d="M93327 76419
L93777 76419
" />
<path d="M93454 77206
L93552 76419
" />
<path d="M93941 77206
L94007 76681
" />
<path d="M94040 76419
L93997 76456
L94030 76494
L94072 76456
L94040 76419
L94030 76494
" />
<path d="M94269 76681
L94569 76681
" />
<path d="M94415 76419
L94330 77094
L94358 77169
L94429 77206
L94504 77206
" />
<path d="M94879 77206
L94808 77169
L94780 77094
L94865 76419
" />
<path d="M95483 77169
L95404 77206
L95254 77206
L95183 77169
L95155 77094
L95193 76794
L95239 76719
L95319 76681
L95469 76681
L95539 76719
L95568 76794
L95558 76869
L95174 76944
" />
<path d="M95863 77131
L95896 77169
L95853 77206
L95821 77169
L95863 77131
L95853 77206
" />
<path d="M95914 76719
L95947 76756
L95905 76794
L95872 76756
L95914 76719
L95905 76794
" />
<path d="M96819 76981
L97194 76981
" />
<path d="M96716 77206
L97077 76419
L97241 77206
" />
<path d="M97527 76419
L97953 77206
" />
<path d="M98052 76419
L97428 77206
" />
<path d="M98727 76419
L98352 76419
L98267 76794
L98309 76756
L98389 76719
L98577 76719
L98647 76756
L98680 76794
L98708 76869
L98684 77056
L98637 77131
L98595 77169
L98516 77206
L98328 77206
L98258 77169
L98225 77131
" />
<path d="M99251 76419
L99326 76419
L99397 76456
L99430 76494
L99458 76569
L99476 76719
L99453 76906
L99397 77056
L99350 77131
L99308 77169
L99228 77206
L99153 77206
L99083 77169
L99050 77131
L99022 77056
L99003 76906
L99026 76719
L99083 76569
L99130 76494
L99172 76456
L99251 76419
" />
<path d="M100156 76681
L100090 77206
" />
<path d="M100006 76381
L99748 76944
L100236 76944
" />
<path d="M100526 76419
L101014 76419
L100714 76719
L100826 76719
L100897 76756
L100929 76794
L100958 76869
L100934 77056
L100887 77131
L100845 77169
L100765 77206
L100540 77206
L100470 77169
L100437 77131
" />
<path d="M102303 77206
L102087 76831
" />
<path d="M101853 77206
L101951 76419
L102251 76419
L102321 76456
L102354 76494
L102382 76569
L102368 76681
L102321 76756
L102279 76794
L102200 76831
L101900 76831
" />
<path d="M102978 77206
L103029 76794
L103001 76719
L102931 76681
L102781 76681
L102701 76719
" />
<path d="M102982 77169
L102903 77206
L102715 77206
L102645 77169
L102617 77094
L102626 77019
L102673 76944
L102753 76906
L102940 76906
L103020 76869
" />
<path d="M103320 77169
L103390 77206
L103540 77206
L103620 77169
L103667 77094
L103671 77056
L103643 76981
L103573 76944
L103460 76944
L103390 76906
L103362 76831
L103367 76794
L103413 76719
L103493 76681
L103606 76681
L103676 76719
" />
<path d="M104056 76681
L103957 77469
" />
<path d="M104051 76719
L104131 76681
L104281 76681
L104351 76719
L104384 76756
L104412 76831
L104384 77056
L104337 77131
L104295 77169
L104215 77206
L104065 77206
L103995 77169
" />
<path d="M104702 77206
L104801 76419
" />
<path d="M104763 76719
L104843 76681
L104993 76681
L105063 76719
L105096 76756
L105124 76831
L105096 77056
L105049 77131
L105007 77169
L104927 77206
L104777 77206
L104707 77169
" />
<path d="M105719 77169
L105640 77206
L105490 77206
L105419 77169
L105391 77094
L105429 76794
L105476 76719
L105555 76681
L105705 76681
L105776 76719
L105804 76794
L105794 76869
L105410 76944
" />
<path d="M106090 77206
L106155 76681
" />
<path d="M106137 76831
L106183 76756
L106226 76719
L106305 76681
L106380 76681
" />
<path d="M106577 77206
L106643 76681
" />
<path d="M106624 76831
L106671 76756
L106713 76719
L106793 76681
L106868 76681
" />
<path d="M107055 76681
L107177 77206
" />
<path d="M107430 76681
L107177 77206
L107079 77394
L107036 77431
L106957 77469
" />
<path d="M108264 77206
L108363 76419
L108663 76419
L108733 76456
L108766 76494
L108794 76569
L108780 76681
L108733 76756
L108691 76794
L108611 76831
L108311 76831
" />
<path d="M109052 77206
L109117 76681
" />
<path d="M109150 76419
L109108 76456
L109141 76494
L109183 76456
L109150 76419
L109141 76494
" />
<path d="M110027 77206
L110125 76419
" />
<path d="M110078 76794
L110528 76794
" />
<path d="M110477 77206
L110575 76419
" />
<path d="M110842 76981
L111217 76981
" />
<path d="M110739 77206
L111100 76419
L111264 77206
" />
<path d="M111512 76419
L111962 76419
" />
<path d="M111639 77206
L111737 76419
" />
</g>
<g style="fill:#000000; fill-opacity:0.0; 
stroke:#000000; stroke-width:39.3701; stroke-opacity:1; 
stroke-linecap:round; stroke-linejoin:round;">
</g>
<g style="fill:#000000; fill-opacity:0.0; 
stroke:#000000; stroke-width:59.0551; stroke-opacity:1; 
stroke-linecap:round; stroke-linejoin:round;">
<path d="M93487 75390
L93290 75390
" />
<path d="M93290 75700
L93290 75109
L93571 75109
" />
<path d="M93796 75700
L93796 75306
" />
<path d="M93796 75109
L93768 75137
L93796 75165
L93824 75137
L93796 75109
L93796 75165
" />
<path d="M94161 75700
L94105 75672
L94077 75615
L94077 75109
" />
<path d="M94611 75672
L94555 75700
L94443 75700
L94386 75672
L94358 75615
L94358 75390
L94386 75334
L94443 75306
L94555 75306
L94611 75334
L94640 75390
L94640 75447
L94358 75503
" />
<path d="M94893 75643
L94921 75672
L94893 75700
L94865 75672
L94893 75643
L94893 75700
" />
<path d="M94893 75334
L94921 75362
L94893 75390
L94865 75362
L94893 75334
L94893 75390
" />
<path d="M95624 75700
L95624 75109
L95849 75109
L95905 75137
L95933 75165
L95961 75222
L95961 75306
L95933 75362
L95905 75390
L95849 75419
L95624 75419
" />
<path d="M96214 75700
L96214 75306
" />
<path d="M96214 75109
L96186 75137
L96214 75165
L96242 75137
L96214 75109
L96214 75165
" />
<path d="M96496 75700
L96496 75109
" />
<path d="M96496 75390
L96833 75390
" />
<path d="M96833 75700
L96833 75109
" />
<path d="M97367 75700
L97367 75390
L97339 75334
L97283 75306
L97170 75306
L97114 75334
" />
<path d="M97367 75672
L97311 75700
L97170 75700
L97114 75672
L97086 75615
L97086 75559
L97114 75503
L97170 75475
L97311 75475
L97367 75447
" />
<path d="M97564 75306
L97789 75306
" />
<path d="M97649 75109
L97649 75615
L97677 75672
L97733 75700
L97789 75700
" />
<path d="M97958 75531
L98239 75531
" />
<path d="M97902 75700
L98098 75109
L98295 75700
" />
<path d="M98436 75700
L98745 75306
" />
<path d="M98436 75306
L98745 75700
" />
<path d="M99251 75109
L98970 75109
L98942 75390
L98970 75362
L99026 75334
L99167 75334
L99223 75362
L99251 75390
L99280 75447
L99280 75587
L99251 75643
L99223 75672
L99167 75700
L99026 75700
L98970 75672
L98942 75643
" />
<path d="M99645 75109
L99701 75109
L99758 75137
L99786 75165
L99814 75222
L99842 75334
L99842 75475
L99814 75587
L99786 75643
L99758 75672
L99701 75700
L99645 75700
L99589 75672
L99561 75643
L99533 75587
L99505 75475
L99505 75334
L99533 75222
L99561 75165
L99589 75137
L99645 75109
" />
<path d="M100348 75306
L100348 75700
" />
<path d="M100208 75081
L100067 75503
L100433 75503
" />
<path d="M100601 75109
L100967 75109
L100770 75334
L100854 75334
L100911 75362
L100939 75390
L100967 75447
L100967 75587
L100939 75643
L100911 75672
L100854 75700
L100686 75700
L100629 75672
L100601 75643
" />
<path d="M101220 75643
L101248 75672
L101220 75700
L101192 75672
L101220 75643
L101220 75700
" />
<path d="M101501 75700
L101501 75109
" />
<path d="M101557 75475
L101726 75700
" />
<path d="M101726 75306
L101501 75531
" />
<path d="M101979 75700
L101979 75306
" />
<path d="M101979 75109
L101951 75137
L101979 75165
L102007 75137
L101979 75109
L101979 75165
" />
<path d="M102514 75672
L102457 75700
L102345 75700
L102289 75672
L102260 75643
L102232 75587
L102232 75419
L102260 75362
L102289 75334
L102345 75306
L102457 75306
L102514 75334
" />
<path d="M103020 75700
L103020 75390
L102992 75334
L102935 75306
L102823 75306
L102767 75334
" />
<path d="M103020 75672
L102964 75700
L102823 75700
L102767 75672
L102739 75615
L102739 75559
L102767 75503
L102823 75475
L102964 75475
L103020 75447
" />
<path d="M103554 75700
L103554 75109
" />
<path d="M103554 75672
L103498 75700
L103385 75700
L103329 75672
L103301 75643
L103273 75587
L103273 75419
L103301 75362
L103329 75334
L103385 75306
L103498 75306
L103554 75334
" />
<path d="M103695 75756
L104145 75756
" />
<path d="M104285 75306
L104285 75897
" />
<path d="M104285 75334
L104341 75306
L104454 75306
L104510 75334
L104538 75362
L104566 75419
L104566 75587
L104538 75643
L104510 75672
L104454 75700
L104341 75700
L104285 75672
" />
<path d="M105073 75672
L105016 75700
L104904 75700
L104848 75672
L104820 75643
L104791 75587
L104791 75419
L104820 75362
L104848 75334
L104904 75306
L105016 75306
L105073 75334
" />
<path d="M105326 75700
L105326 75109
" />
<path d="M105326 75334
L105382 75306
L105494 75306
L105551 75334
L105579 75362
L105607 75419
L105607 75587
L105579 75643
L105551 75672
L105494 75700
L105382 75700
L105326 75672
" />
</g>
<g style="fill:#000000; fill-opacity:0.0; 
stroke:#000000; stroke-width:39.3701; stroke-opacity:1; 
stroke-linecap:round; stroke-linejoin:round;">
</g>
<g style="fill:#000000; fill-opacity:0.0; 
stroke:#000000; stroke-width:59.0551; stroke-opacity:1; 
stroke-linecap:round; stroke-linejoin:round;">
<path d="M92755 73779
L135275 73779
" />
</g>
<g style="fill:#000000; fill-opacity:0.0; 
stroke:#000000; stroke-width:39.3701; stroke-opacity:1; 
stroke-linecap:round; stroke-linejoin:round;">
</g>
<g style="fill:#000000; fill-opacity:0.0; 
stroke:#000000; stroke-width:59.0551; stroke-opacity:1; 
stroke-linecap:round; stroke-linejoin:round;">
<path d="M93262 74609
L93346 74637
L93487 74637
L93543 74609
L93571 74580
L93599 74524
L93599 74468
L93571 74412
L93543 74384
L93487 74356
L93374 74327
L93318 74299
L93290 74271
L93262 74215
L93262 74159
L93290 74102
L93318 74074
L93374 74046
L93515 74046
L93599 74074
" />
<path d="M93852 74637
L93852 74046
" />
<path d="M94105 74637
L94105 74327
L94077 74271
L94021 74243
L93937 74243
L93880 74271
L93852 74299
" />
<path d="M94611 74609
L94555 74637
L94443 74637
L94386 74609
L94358 74552
L94358 74327
L94386 74271
L94443 74243
L94555 74243
L94611 74271
L94640 74327
L94640 74384
L94358 74440
" />
<path d="M95118 74609
L95061 74637
L94949 74637
L94893 74609
L94865 74552
L94865 74327
L94893 74271
L94949 74243
L95061 74243
L95118 74271
L95146 74327
L95146 74384
L94865 74440
" />
<path d="M95314 74243
L95539 74243
" />
<path d="M95399 74046
L95399 74552
L95427 74609
L95483 74637
L95539 74637
" />
<path d="M95736 74580
L95764 74609
L95736 74637
L95708 74609
L95736 74580
L95736 74637
" />
<path d="M95736 74271
L95764 74299
L95736 74327
L95708 74299
L95736 74271
L95736 74327
" />
</g>
<g style="fill:#000000; fill-opacity:0.0; 
stroke:#000000; stroke-width:39.3701; stroke-opacity:1; 
stroke-linecap:round; stroke-linejoin:round;">
</g>
<g style="fill:#000000; fill-opacity:0.0; 
stroke:#000000; stroke-width:118.11; stroke-opacity:1; 
stroke-linecap:round; stroke-linejoin:round;">
<path d="M93487 73146
L93571 73174
L93599 73203
L93627 73259
L93627 73343
L93599 73399
L93571 73428
L93515 73456
L93290 73456
L93290 72865
L93487 72865
L93543 72893
L93571 72921
L93599 72978
L93599 73034
L93571 73090
L93543 73118
L93487 73146
L93290 73146
" />
<path d="M93880 73456
L93880 73062
" />
<path d="M93880 73174
L93908 73118
L93937 73090
L93993 73062
L94049 73062
" />
<path d="M94499 73456
L94499 73146
L94471 73090
L94415 73062
L94302 73062
L94246 73090
" />
<path d="M94499 73428
L94443 73456
L94302 73456
L94246 73428
L94218 73371
L94218 73315
L94246 73259
L94302 73231
L94443 73231
L94499 73203
" />
<path d="M94780 73062
L94780 73456
" />
<path d="M94780 73118
L94808 73090
L94865 73062
L94949 73062
L95005 73090
L95033 73146
L95033 73456
" />
<path d="M95568 73456
L95568 72865
" />
<path d="M95568 73428
L95511 73456
L95399 73456
L95343 73428
L95314 73399
L95286 73343
L95286 73174
L95314 73118
L95343 73090
L95399 73062
L95511 73062
L95568 73090
" />
<path d="M96074 73428
L96017 73456
L95905 73456
L95849 73428
L95821 73371
L95821 73146
L95849 73090
L95905 73062
L96017 73062
L96074 73090
L96102 73146
L96102 73203
L95821 73259
" />
<path d="M96355 73062
L96355 73456
" />
<path d="M96355 73118
L96383 73090
L96439 73062
L96524 73062
L96580 73090
L96608 73146
L96608 73456
" />
<path d="M96889 73456
L96889 72865
" />
<path d="M96889 73090
L96946 73062
L97058 73062
L97114 73090
L97142 73118
L97170 73174
L97170 73343
L97142 73399
L97114 73428
L97058 73456
L96946 73456
L96889 73428
" />
<path d="M97677 73062
L97677 73456
" />
<path d="M97424 73062
L97424 73371
L97452 73428
L97508 73456
L97592 73456
L97649 73428
L97677 73399
" />
<path d="M97958 73456
L97958 73062
" />
<path d="M97958 73174
L97986 73118
L98014 73090
L98070 73062
L98127 73062
" />
<path d="M98577 73062
L98577 73540
L98548 73596
L98520 73624
L98464 73652
L98380 73652
L98323 73624
" />
<path d="M98577 73428
L98520 73456
L98408 73456
L98352 73428
L98323 73399
L98295 73343
L98295 73174
L98323 73118
L98352 73090
L98408 73062
L98520 73062
L98577 73090
" />
<path d="M99223 72865
L99561 72865
" />
<path d="M99392 73456
L99392 72865
" />
<path d="M99983 73428
L99926 73456
L99814 73456
L99758 73428
L99730 73371
L99730 73146
L99758 73090
L99814 73062
L99926 73062
L99983 73090
L100011 73146
L100011 73203
L99730 73259
" />
<path d="M100517 73428
L100461 73456
L100348 73456
L100292 73428
L100264 73399
L100236 73343
L100236 73174
L100264 73118
L100292 73090
L100348 73062
L100461 73062
L100517 73090
" />
<path d="M100770 73456
L100770 72865
" />
<path d="M101023 73456
L101023 73146
L100995 73090
L100939 73062
L100854 73062
L100798 73090
L100770 73118
" />
<path d="M101332 73428
L101332 73456
L101304 73512
L101276 73540
" />
<path d="M102317 73456
L102035 73456
L102035 72865
" />
<path d="M102795 73456
L102514 73456
L102514 72865
" />
<path d="M103329 73399
L103301 73428
L103217 73456
L103160 73456
L103076 73428
L103020 73371
L102992 73315
L102964 73203
L102964 73118
L102992 73006
L103020 72949
L103076 72893
L103160 72865
L103217 72865
L103301 72893
L103329 72921
" />
</g>
<g style="fill:#000000; fill-opacity:0.0; 
stroke:#000000; stroke-width:39.3701; stroke-opacity:1; 
stroke-linecap:round; stroke-linejoin:round;">
</g>
<g style="fill:#000000; fill-opacity:0.0; 
stroke:#000000; stroke-width:59.0551; stroke-opacity:1; 
stroke-linecap:round; stroke-linejoin:round;">
<path d="M100629 77716
L100629 78897
" />
</g>
<g style="fill:#000000; fill-opacity:0.0; 
stroke:#000000; stroke-width:39.3701; stroke-opacity:1; 
stroke-linecap:round; stroke-linejoin:round;">
</g>
<g style="fill:#000000; fill-opacity:0.0; 
stroke:#000000; stroke-width:59.0551; stroke-opacity:1; 
stroke-linecap:round; stroke-linejoin:round;">
<path d="M125826 77716
L125826 80275
" />
</g>
<g style="fill:#C2C200; fill-opacity:0.0; 
stroke:#C2C200; stroke-width:59.0551; stroke-opacity:1; 
stroke-linecap:round; stroke-linejoin:round;">
</g>
<g style="fill:#C2C200; fill-opacity:0.0; 
stroke:#C2C200; stroke-width:39.3701; stroke-opacity:1; 
stroke-linecap:round; stroke-linejoin:round;">
<path d="M42874 16378 A1181.1 1181.1 0.0 0 0 41692.9 15196.9 " />
<path d="M18464 15196
L41692 15196
" />
<path d="M18464.6 15196.9 A1181.1 1181.1 0.0 0 0 17283.5 16378 " />
<path d="M34606.3 35669.3 A393.701 393.701 0.0 0 0 35393.7 35669.3 " />
<path d="M35393.7 29763.8 A393.701 393.701 0.0 0 0 34606.3 29763.8 " />
<path d="M35393 29763
L35393 35669
" />
<path d="M34606 29763
L34606 35669
" />
<path d="M17677.2 29566.9 A393.701 393.701 0.0 0 0 17283.5 29960.6 " />
<path d="M18858.3 29566.9 A393.701 393.701 0.0 0 0 19252 29173.2 " />
<path d="M19252 23267.7 A393.701 393.701 0.0 0 0 18858.3 22874 " />
<path d="M17283.5 22480.3 A393.701 393.701 0.0 0 0 17677.2 22874 " />
<path d="M41692.9 37244.1 A1181.1 1181.1 0.0 0 0 42874 36063 " />
<path d="M17283.5 36063 A1181.1 1181.1 0.0 0 0 18464.6 37244.1 " />
<path d="M17283 29960
L17283 36062
" />
<path d="M17283 16181
L17283 22480
" />
<path d="M17677 29566
L18858 29566
" />
<path d="M17677 22874
L18858 22874
" />
<path d="M19251 23267
L19251 29173
" />
<path d="M18464 37244
L41692 37244
" />
<path d="M42874 16181
L42874 36062
" />
</g>
<g style="fill:#840000; fill-opacity:0.0; 
stroke:#840000; stroke-width:39.3701; stroke-opacity:1; 
stroke-linecap:round; stroke-linejoin:round;">
</g>
<g style="fill:#840000; fill-opacity:0.0; 
stroke:#840000; stroke-width:0; stroke-opacity:1; 
stroke-linecap:round; stroke-linejoin:round;">
</g>
<g style="fill:#840000; fill-opacity:1.0; 
stroke:#840000; stroke-width:0; stroke-opacity:1; 
stroke-linecap:round; stroke-linejoin:round;">
<polyline style="fill-rule:evenodd;"
points="30502,23752
30147,23752
30147,23397
30502,23397
30502,23752
" /> 
<polyline style="fill-rule:evenodd;"
points="30502,23327
30147,23327
30147,22972
30502,22972
30502,23327
" /> 
<polyline style="fill-rule:evenodd;"
points="30502,24177
30147,24177
30147,23822
30502,23822
30502,24177
" /> 
<polyline style="fill-rule:evenodd;"
points="30927,23327
30572,23327
30572,22972
30927,22972
30927,23327
" /> 
<polyline style="fill-rule:evenodd;"
points="30927,24177
30572,24177
30572,23822
30927,23822
30927,24177
" /> 
<polyline style="fill-rule:evenodd;"
points="30927,23752
30572,23752
30572,23397
30927,23397
30927,23752
" /> 
<polyline style="fill-rule:evenodd;"
points="30077,23327
29722,23327
29722,22972
30077,22972
30077,23327
" /> 
<polyline style="fill-rule:evenodd;"
points="30077,24177
29722,24177
29722,23822
30077,23822
30077,24177
" /> 
<polyline style="fill-rule:evenodd;"
points="29781,24342
29781,24657
29687,24657
29687,24342
29781,24342
" /> 
<polyline style="fill-rule:evenodd;"
points="29978,24342
29978,24657
29884,24657
29884,24342
29978,24342
" /> 
<polyline style="fill-rule:evenodd;"
points="30175,24342
30175,24657
30080,24657
30080,24342
30175,24342
" /> 
<polyline style="fill-rule:evenodd;"
points="30372,24342
30372,24657
30277,24657
30277,24342
30372,24342
" /> 
<polyline style="fill-rule:evenodd;"
points="30569,24342
30569,24657
30474,24657
30474,24342
30569,24342
" /> 
<polyline style="fill-rule:evenodd;"
points="30765,24342
30765,24657
30671,24657
30671,24342
30765,24342
" /> 
<polyline style="fill-rule:evenodd;"
points="30962,24342
30962,24657
30868,24657
30868,24342
30962,24342
" /> 
<polyline style="fill-rule:evenodd;"
points="31407,24212
31092,24212
31092,24118
31407,24118
31407,24212
" /> 
<polyline style="fill-rule:evenodd;"
points="31407,24015
31092,24015
31092,23921
31407,23921
31407,24015
" /> 
<polyline style="fill-rule:evenodd;"
points="31407,23819
31092,23819
31092,23724
31407,23724
31407,23819
" /> 
<polyline style="fill-rule:evenodd;"
points="31407,23622
31092,23622
31092,23527
31407,23527
31407,23622
" /> 
<polyline style="fill-rule:evenodd;"
points="31407,23425
31092,23425
31092,23330
31407,23330
31407,23425
" /> 
<polyline style="fill-rule:evenodd;"
points="31407,23228
31092,23228
31092,23134
31407,23134
31407,23228
" /> 
<polyline style="fill-rule:evenodd;"
points="31407,23031
31092,23031
31092,22937
31407,22937
31407,23031
" /> 
<polyline style="fill-rule:evenodd;"
points="30962,22492
30962,22807
30868,22807
30868,22492
30962,22492
" /> 
<polyline style="fill-rule:evenodd;"
points="30765,22492
30765,22807
30671,22807
30671,22492
30765,22492
" /> 
<polyline style="fill-rule:evenodd;"
points="30569,22492
30569,22807
30474,22807
30474,22492
30569,22492
" /> 
<polyline style="fill-rule:evenodd;"
points="30372,22492
30372,22807
30277,22807
30277,22492
30372,22492
" /> 
<polyline style="fill-rule:evenodd;"
points="30175,22492
30175,22807
30080,22807
30080,22492
30175,22492
" /> 
<polyline style="fill-rule:evenodd;"
points="29978,22492
29978,22807
29884,22807
29884,22492
29978,22492
" /> 
<polyline style="fill-rule:evenodd;"
points="29781,22492
29781,22807
29687,22807
29687,22492
29781,22492
" /> 
<polyline style="fill-rule:evenodd;"
points="29557,23031
29242,23031
29242,22937
29557,22937
29557,23031
" /> 
<polyline style="fill-rule:evenodd;"
points="29557,23228
29242,23228
29242,23134
29557,23134
29557,23228
" /> 
<polyline style="fill-rule:evenodd;"
points="29557,23425
29242,23425
29242,23330
29557,23330
29557,23425
" /> 
<polyline style="fill-rule:evenodd;"
points="29557,23622
29242,23622
29242,23527
29557,23527
29557,23622
" /> 
<polyline style="fill-rule:evenodd;"
points="29557,23819
29242,23819
29242,23724
29557,23724
29557,23819
" /> 
<polyline style="fill-rule:evenodd;"
points="29557,24015
29242,24015
29242,23921
29557,23921
29557,24015
" /> 
<polyline style="fill-rule:evenodd;"
points="29557,24212
29242,24212
29242,24118
29557,24118
29557,24212
" /> 
<polyline style="fill-rule:evenodd;"
points="30077,23752
29722,23752
29722,23397
30077,23397
30077,23752
" /> 
<polyline style="fill-rule:evenodd;"
points="22022,19292
22022,19607
21707,19607
21707,19292
22022,19292
" /> 
<polyline style="fill-rule:evenodd;"
points="21392,19292
21392,19607
21077,19607
21077,19292
21392,19292
" /> 
<polyline style="fill-rule:evenodd;"
points="27241,25116
26788,25116
26788,24564
27241,24564
27241,25116
" /> 
<polyline style="fill-rule:evenodd;"
points="27241,23935
26788,23935
26788,23383
27241,23383
27241,23935
" /> 
<polyline style="fill-rule:evenodd;"
points="26611,23935
26158,23935
26158,23383
26611,23383
26611,23935
" /> 
<polyline style="fill-rule:evenodd;"
points="26611,25116
26158,25116
26158,24564
26611,24564
26611,25116
" /> 
<polyline style="fill-rule:evenodd;"
points="37964,22311
38102,22311
38102,22567
37964,22567
37964,22311
" /> 
<polyline style="fill-rule:evenodd;"
points="37709,22311
37846,22311
37846,22567
37709,22567
37709,22311
" /> 
<polyline style="fill-rule:evenodd;"
points="37453,22311
37590,22311
37590,22567
37453,22567
37453,22311
" /> 
<polyline style="fill-rule:evenodd;"
points="37197,22311
37335,22311
37335,22567
37197,22567
37197,22311
" /> 
<polyline style="fill-rule:evenodd;"
points="37197,23532
37335,23532
37335,23788
37197,23788
37197,23532
" /> 
<polyline style="fill-rule:evenodd;"
points="37453,23532
37590,23532
37590,23788
37453,23788
37453,23532
" /> 
<polyline style="fill-rule:evenodd;"
points="37709,23532
37846,23532
37846,23788
37709,23788
37709,23532
" /> 
<polyline style="fill-rule:evenodd;"
points="37964,23532
38102,23532
38102,23788
37964,23788
37964,23532
" /> 
<polyline style="fill-rule:evenodd;"
points="37272,23111
37555,23111
37555,23294
37272,23294
37272,23111
" /> 
<polyline style="fill-rule:evenodd;"
points="37744,23111
38027,23111
38027,23294
37744,23294
37744,23111
" /> 
<polyline style="fill-rule:evenodd;"
points="37272,22805
37555,22805
37555,22988
37272,22988
37272,22805
" /> 
<polyline style="fill-rule:evenodd;"
points="37744,22805
38027,22805
38027,22988
37744,22988
37744,22805
" /> 
<polyline style="fill-rule:evenodd;"
points="29337,32777
29337,33072
29022,33072
29022,32777
29337,32777
" /> 
<polyline style="fill-rule:evenodd;"
points="29927,32777
29927,33072
29612,33072
29612,32777
29927,32777
" /> 
<polyline style="fill-rule:evenodd;"
points="30227,32262
30522,32262
30522,32577
30227,32577
30227,32262
" /> 
<polyline style="fill-rule:evenodd;"
points="30227,31672
30522,31672
30522,31987
30227,31987
30227,31672
" /> 
<polyline style="fill-rule:evenodd;"
points="29337,31177
29337,31472
29022,31472
29022,31177
29337,31177
" /> 
<polyline style="fill-rule:evenodd;"
points="29927,31177
29927,31472
29612,31472
29612,31177
29927,31177
" /> 
<polyline style="fill-rule:evenodd;"
points="30327,30662
30622,30662
30622,30977
30327,30977
30327,30662
" /> 
<polyline style="fill-rule:evenodd;"
points="30327,30072
30622,30072
30622,30387
30327,30387
30327,30072
" /> 
<polyline style="fill-rule:evenodd;"
points="29337,28877
29337,29172
29022,29172
29022,28877
29337,28877
" /> 
<polyline style="fill-rule:evenodd;"
points="29927,28877
29927,29172
29612,29172
29612,28877
29927,28877
" /> 
<polyline style="fill-rule:evenodd;"
points="30912,29172
30912,28877
31227,28877
31227,29172
30912,29172
" /> 
<polyline style="fill-rule:evenodd;"
points="30322,29172
30322,28877
30637,28877
30637,29172
30322,29172
" /> 
<polyline style="fill-rule:evenodd;"
points="29627,27262
29922,27262
29922,27577
29627,27577
29627,27262
" /> 
<polyline style="fill-rule:evenodd;"
points="29627,26672
29922,26672
29922,26987
29627,26987
29627,26672
" /> 
<polyline style="fill-rule:evenodd;"
points="30327,27262
30622,27262
30622,27577
30327,27577
30327,27262
" /> 
<polyline style="fill-rule:evenodd;"
points="30327,26672
30622,26672
30622,26987
30327,26987
30327,26672
" /> 
<polyline style="fill-rule:evenodd;"
points="28787,24977
28787,25272
28472,25272
28472,24977
28787,24977
" /> 
<polyline style="fill-rule:evenodd;"
points="29377,24977
29377,25272
29062,25272
29062,24977
29377,24977
" /> 
<polyline style="fill-rule:evenodd;"
points="31862,25272
31862,24977
32177,24977
32177,25272
31862,25272
" /> 
<polyline style="fill-rule:evenodd;"
points="31272,25272
31272,24977
31587,24977
31587,25272
31272,25272
" /> 
<polyline style="fill-rule:evenodd;"
points="28597,22362
28302,22362
28302,22047
28597,22047
28597,22362
" /> 
<polyline style="fill-rule:evenodd;"
points="28597,22952
28302,22952
28302,22637
28597,22637
28597,22952
" /> 
<polyline style="fill-rule:evenodd;"
points="37902,24887
38197,24887
38197,25202
37902,25202
37902,24887
" /> 
<polyline style="fill-rule:evenodd;"
points="37902,24297
38197,24297
38197,24612
37902,24612
37902,24297
" /> 
<polyline style="fill-rule:evenodd;"
points="29597,31731
29952,31731
29952,31928
29597,31928
29597,31731
" /> 
<polyline style="fill-rule:evenodd;"
points="29597,32321
29952,32321
29952,32518
29597,32518
29597,32321
" /> 
<polyline style="fill-rule:evenodd;"
points="29597,30131
29952,30131
29952,30328
29597,30328
29597,30131
" /> 
<polyline style="fill-rule:evenodd;"
points="29597,30721
29952,30721
29952,30918
29597,30918
29597,30721
" /> 
<polyline style="fill-rule:evenodd;"
points="31168,29447
31168,29802
30971,29802
30971,29447
31168,29447
" /> 
<polyline style="fill-rule:evenodd;"
points="30578,29447
30578,29802
30381,29802
30381,29447
30578,29447
" /> 
<polyline style="fill-rule:evenodd;"
points="29597,27831
29952,27831
29952,28028
29597,28028
29597,27831
" /> 
<polyline style="fill-rule:evenodd;"
points="29597,28421
29952,28421
29952,28618
29597,28618
29597,28421
" /> 
<polyline style="fill-rule:evenodd;"
points="30297,27831
30652,27831
30652,28028
30297,28028
30297,27831
" /> 
<polyline style="fill-rule:evenodd;"
points="30297,28421
30652,28421
30652,28618
30297,28618
30297,28421
" /> 
<polyline style="fill-rule:evenodd;"
points="31168,26047
31168,26402
30971,26402
30971,26047
31168,26047
" /> 
<polyline style="fill-rule:evenodd;"
points="30578,26047
30578,26402
30381,26402
30381,26047
30578,26047
" /> 
<polyline style="fill-rule:evenodd;"
points="29081,26402
29081,26047
29278,26047
29278,26402
29081,26402
" /> 
<polyline style="fill-rule:evenodd;"
points="29671,26402
29671,26047
29868,26047
29868,26402
29671,26402
" /> 
<polyline style="fill-rule:evenodd;"
points="31947,23881
32302,23881
32302,24078
31947,24078
31947,23881
" /> 
<polyline style="fill-rule:evenodd;"
points="31947,24471
32302,24471
32302,24668
31947,24668
31947,24471
" /> 
<polyline style="fill-rule:evenodd;"
points="23193,23922
23193,24277
22996,24277
22996,23922
23193,23922
" /> 
<polyline style="fill-rule:evenodd;"
points="22603,23922
22603,24277
22406,24277
22406,23922
22603,23922
" /> 
<polyline style="fill-rule:evenodd;"
points="23193,22922
23193,23277
22996,23277
22996,22922
23193,22922
" /> 
<polyline style="fill-rule:evenodd;"
points="22603,22922
22603,23277
22406,23277
22406,22922
22603,22922
" /> 
<polyline style="fill-rule:evenodd;"
points="38072,21006
38427,21006
38427,21203
38072,21203
38072,21006
" /> 
<polyline style="fill-rule:evenodd;"
points="38072,21596
38427,21596
38427,21793
38072,21793
38072,21596
" /> 
<polyline style="fill-rule:evenodd;"
points="37372,21006
37727,21006
37727,21203
37372,21203
37372,21006
" /> 
<polyline style="fill-rule:evenodd;"
points="37372,21596
37727,21596
37727,21793
37372,21793
37372,21596
" /> 
<polyline style="fill-rule:evenodd;"
points="21156,20527
21156,20172
21353,20172
21353,20527
21156,20527
" /> 
<polyline style="fill-rule:evenodd;"
points="21746,20527
21746,20172
21943,20172
21943,20527
21746,20527
" /> 
</g> 
</svg>
