%
M48
M72
T01C0.0130
T02C0.0157
T03C0.0160
T04C0.0256
T05C0.0276
T06C0.0315
T07C0.0320
T08C0.0340
T09C0.0354
T10C0.0394
T11C0.0400
T12C0.0472
T13C0.0590
T14C0.0591
T15C0.0600
T16C0.0709
T17C0.0866
T18C0.1102
%
T01
X6418Y3853
X11418Y8473
X12008Y8243
X12603Y8458
X12643Y9248
X12543Y9693
X12893Y10388
X13263Y10893
X13883Y11183
X14463Y11483
X14743Y10893
X14163Y10353
X14753Y12223
X14473Y13603
X15063Y13773
X16233Y12503
X17673Y12483
X19213Y13633
X19693Y14623
X19773Y15723
X20713Y14443
X21193Y14038
X22683Y14123
X23663Y14383
X24743Y13673
X25153Y13083
X26258Y13318
X27198Y13118
X27153Y14953
X28123Y15063
X29188Y15453
X30218Y15453
X30703Y15063
X31183Y14813
X32183Y14543
X34143Y15023
X34673Y14748
X35123Y14483
X33383Y12613
X32701Y11462
X32253Y11048
X31693Y9703
X30683Y11093
X30998Y12197
X29681Y12132
X29143Y13168
X27693Y11053
X27273Y11043
X26673Y10413
X26958Y10068
X28113Y10413
X28753Y9973
X31213Y7763
X31513Y5482
X33678Y3898
X33848Y5848
X33918Y7613
X34693Y10723
X35303Y10728
X32713Y17523
X32298Y19127
X32298Y20737
X32713Y20713
X32698Y22928
X33003Y23973
X32263Y24533
X30938Y25543
X30583Y26863
X29993Y27883
X32263Y28743
X30913Y30723
X30563Y31203
X28943Y32303
X28813Y31203
X28118Y31563
X27493Y31633
X27478Y32182
X26748Y33432
X26063Y31913
X25383Y31663
X24443Y32213
X24433Y32623
X22998Y34223
X22778Y33582
X22673Y32393
X22228Y31953
X21833Y30473
X20678Y31403
X20503Y32613
X19658Y32473
X19628Y33743
X16618Y31733
X16363Y32473
X14368Y31123
X14073Y30553
X14063Y29433
X14093Y29103
X14083Y27878
X14753Y27933
X15653Y27588
X16363Y26478
X16623Y26103
X16363Y25758
X15403Y25918
X14793Y25578
X14273Y25598
X15453Y24433
X16103Y23648
X16273Y22528
X16642Y21154
X16693Y20633
X17693Y21303
X18853Y20938
X18653Y20213
X17713Y19203
X17093Y19328
X16403Y19223
X15083Y19703
X14613Y19933
X14623Y19183
X13153Y20223
X12283Y19873
X11303Y20068
X10193Y19613
X9973Y18313
X9953Y17028
X10633Y17028
X11413Y17058
X11483Y16463
X12043Y16518
X12533Y16103
X13263Y15523
X13593Y15803
X14463Y15343
X13593Y14633
X14753Y16343
X14643Y17218
X13503Y17718
X12073Y17028
X9083Y15828
X7883Y15833
X7123Y15108
X7503Y14423
X6203Y15208
X5933Y14653
X5053Y15038
X6173Y16463
X5548Y16687
X5503Y17638
X5493Y18568
X5463Y19298
X5613Y20028
X5333Y20483
X5603Y20868
X5613Y21338
X5873Y21673
X5883Y22043
X5683Y22418
X5363Y22597
X6483Y22628
X7443Y20813
X8383Y20493
X8543Y20803
X10023Y21108
X11073Y22298
X9723Y23698
X8833Y24593
X9983Y25768
X10593Y26428
X10733Y26828
X10683Y27348
X11343Y27808
X12098Y27822
X13093Y27868
X11323Y26588
X11183Y25788
X12053Y25798
X12953Y25688
X12323Y23883
X10553Y23998
X9063Y22468
X6453Y24678
X5693Y24508
X5713Y25028
X5213Y24748
X5673Y26763
X5673Y27703
X6008Y28432
X7313Y27783
X8063Y28063
X9153Y27368
X9913Y27848
X11193Y29203
X11633Y30963
X11843Y31338
X11883Y31708
X12298Y31482
X12738Y31422
X12668Y31747
X13198Y31773
X13718Y31812
X10933Y31283
X9543Y31268
X8218Y31302
X8153Y31753
X8143Y32762
X6543Y33842
X6683Y30532
X6673Y29868
X7348Y30578
X5498Y30282
X4673Y29548
X4453Y26858
X6993Y26803
X13823Y21658
X14623Y22498
X13893Y23978
X18353Y25608
X19273Y24948
X20533Y24528
X21813Y24458
X22923Y25213
X21753Y27463
X20053Y28003
X23418Y30453
X25378Y30473
X26578Y30463
X27173Y29703
X27533Y29973
X28078Y30303
X28428Y34013
X33663Y30893
X34093Y24853
X34048Y23437
X30033Y20093
X29223Y20713
X28753Y20998
X28033Y19193
X28423Y19073
X27683Y18373
X27358Y18783
X26293Y18818
X25713Y18803
X25103Y19233
X24693Y19333
X24988Y20553
X25283Y22553
X27573Y25098
X28383Y24913
X29623Y24013
X30543Y17893
X29933Y17603
X26203Y15393
X24193Y17558
X22663Y17573
X21413Y17833
X21033Y18038
X21313Y18393
X21003Y19203
X20203Y18793
X19423Y18898
X18683Y18528
X18763Y18078
X18063Y17563
X16703Y14963
X15423Y15363
X13265Y13073
X10523Y11478
X9433Y12483
X8503Y11488
X7543Y10473
X7503Y9568
X10503Y9458
X15428Y3748
X19703Y6513
X17223Y10003
X18683Y10623
X20243Y11213
X20963Y11018
X21743Y11083
X22093Y10613
X22173Y12663
X20293Y12568
X24273Y10343
X25083Y10733
X25483Y10003
X25858Y7503
X24933Y6242
X27423Y6042
X35063Y17778
X22323Y19343
X22023Y19158
X21723Y20953
X20163Y20923
X20543Y22553
X18983Y23598
X8743Y17008
X7893Y17113
X7763Y17703
X7193Y17038
X6513Y17038
X6513Y17938
X6913Y18313
X7213Y18893
T02
X18043Y32223
X18043Y33869
X21443Y33869
X21443Y32223
T03
X7398Y32253
T04
X18606Y32432
X20881Y32432
T05
X26783Y25623
X26783Y24623
X26783Y22473
X27783Y22473
X32373Y7193
X33373Y7193
X23517Y4916
X22730Y4916
T06
X25719Y33823
X27688Y33823
T07
X29423Y33883
X29423Y32883
X29583Y28903
X30583Y28903
X23888Y32873
X23888Y33873
X14963Y33818
X14963Y32818
X5543Y25853
X4543Y25853
X4583Y23643
X5583Y23643
X11293Y21283
X12293Y21283
X21993Y7363
X22993Y7363
X23963Y7403
X23963Y6403
X30503Y7163
X31503Y7163
T08
X13543Y22493
X13543Y23493
X13543Y24493
X13543Y25493
X10543Y25493
X10543Y24493
X10543Y23493
X10543Y22493
X9583Y22053
X9583Y21053
X9583Y20053
X9583Y19053
X6583Y19053
X6583Y20053
X6583Y21053
X6583Y22053
X6573Y23173
X6573Y24173
X6573Y25173
X6573Y26173
X9573Y26173
X9573Y25173
X9573Y24173
X9573Y23173
T09
X11683Y27263
X12683Y27263
X13513Y27273
X14513Y27273
X16113Y27123
X17113Y27123
X19503Y27503
X20503Y27503
X22603Y27473
X23603Y27473
X25833Y26863
X26833Y26863
X27663Y26853
X28663Y26853
X27783Y23423
X26783Y23423
X27273Y21203
X27273Y20203
X29043Y18853
X30043Y18853
X34463Y18813
X35463Y18813
X29733Y7163
X28733Y7163
X29378Y30703
X29378Y31703
X23893Y31883
X23893Y30883
X14953Y30928
X14953Y31928
X4773Y28413
X4773Y27413
X4833Y22053
X4833Y21053
T10
X16183Y16173
X17183Y16173
X18183Y16173
X19183Y16173
X20183Y16173
X21183Y16173
X22183Y16173
X23183Y16173
X24183Y16173
X25183Y16173
X26183Y16173
X27183Y16173
X28183Y16173
X29183Y16173
X30183Y16173
X31183Y16173
X32183Y16173
X33183Y16173
X34183Y16173
X35183Y16173
X35183Y9173
X34183Y9173
X33183Y9173
X32183Y9173
X31183Y9173
X30183Y9173
X29183Y9173
X28183Y9173
X27183Y9173
X26183Y9173
X25183Y9173
X24183Y9173
X23183Y9173
X22183Y9173
X21183Y9173
X20183Y9173
X19183Y9173
X18183Y9173
X17183Y9173
X16183Y9173
T11
X16203Y7293
X17203Y7293
X18203Y7293
X19203Y7293
X20203Y7293
X21203Y7293
X25003Y3463
X26003Y3463
X27003Y3463
X28003Y3463
X15203Y7293
X14203Y7293
X11983Y8953
X11983Y9953
X10993Y9973
X10953Y8983
X9953Y8983
X9993Y9973
X8993Y9973
X8953Y8983
X7953Y8983
X7993Y9973
X6993Y9973
X6953Y8983
X5953Y8983
X5983Y9963
X4993Y9973
X4953Y8983
X4953Y7983
X4953Y6983
X5953Y6983
X5953Y7983
X6953Y7983
X6953Y6983
X7953Y6983
X7953Y7983
X8953Y7983
X8953Y6983
X9953Y6983
X9953Y7983
X10953Y7983
X10953Y6983
X10993Y10973
X11983Y10953
X11983Y11953
X10993Y11973
X10993Y12973
X11983Y12953
X11983Y13953
X10993Y13973
X10913Y14963
X11983Y14953
X9913Y14963
X9993Y13973
X8993Y13973
X8913Y14963
X7913Y14963
X7993Y13973
X6993Y13973
X5993Y13973
X4993Y13973
X4993Y12973
X5983Y12963
X5983Y11963
X4993Y11973
X4993Y10973
X5983Y10963
X6993Y10973
X6993Y11973
X6993Y12973
X7993Y12973
X7993Y11973
X8993Y11973
X8993Y12973
X9993Y12973
X9993Y11973
X9993Y10973
X8993Y10973
X7993Y10973
X7564Y28706
X8564Y28706
X8564Y29706
X7564Y29706
X9564Y29706
X9564Y28706
X10564Y28706
X11564Y28706
X11564Y29706
X10564Y29706
X12564Y29706
X12564Y28706
X13564Y28706
X14564Y28706
X14564Y29706
X13564Y29706
X15564Y29706
X15564Y28706
X16564Y28706
X17564Y28706
X17564Y29706
X16564Y29706
X17173Y31113
X18173Y31113
X19173Y31113
X20173Y31113
X21173Y31113
X22173Y31113
X22564Y29706
X23564Y29706
X23564Y28706
X22564Y28706
X21564Y28706
X20564Y28706
X19564Y28706
X18564Y28706
X18564Y29706
X19564Y29706
X20564Y29706
X21564Y29706
X24564Y29706
X24564Y28706
X25564Y28706
X26564Y28706
X26564Y29706
X25564Y29706
X28593Y25783
X35013Y25943
X35013Y26943
X35013Y27943
X35013Y24943
X35013Y23943
X35013Y22943
X35013Y21943
X35013Y20943
T12
X28081Y32839
X25326Y32839
T13
X31343Y32593
X33193Y33873
X34213Y31333
X35203Y30783
X31553Y29643
T14
X33939Y13627
X33939Y11718
T15
X7363Y31333
X5363Y31333
X5363Y33333
X7363Y33333
T16
X35132Y13746
X35132Y11600
T17
X6363Y32333
T18
X6222Y4904
X5631Y29206
X28466Y29206
X33891Y4904
M30
