G75*
%MOIN*%
%OFA0B0*%
%FSLAX25Y25*%
%IPPOS*%
%LPD*%
%AMOC8*
5,1,8,0,0,1.08239X$1,22.5*
%
%ADD10C,0.00000*%
%ADD11C,0.00100*%
D10*
X0056708Y0049040D02*
X0056710Y0049188D01*
X0056716Y0049336D01*
X0056726Y0049484D01*
X0056740Y0049631D01*
X0056758Y0049778D01*
X0056779Y0049924D01*
X0056805Y0050070D01*
X0056835Y0050215D01*
X0056868Y0050359D01*
X0056906Y0050502D01*
X0056947Y0050644D01*
X0056992Y0050785D01*
X0057040Y0050925D01*
X0057093Y0051064D01*
X0057149Y0051201D01*
X0057209Y0051336D01*
X0057272Y0051470D01*
X0057339Y0051602D01*
X0057410Y0051732D01*
X0057484Y0051860D01*
X0057561Y0051986D01*
X0057642Y0052110D01*
X0057726Y0052232D01*
X0057813Y0052351D01*
X0057904Y0052468D01*
X0057998Y0052583D01*
X0058094Y0052695D01*
X0058194Y0052805D01*
X0058296Y0052911D01*
X0058402Y0053015D01*
X0058510Y0053116D01*
X0058621Y0053214D01*
X0058734Y0053310D01*
X0058850Y0053402D01*
X0058968Y0053491D01*
X0059089Y0053576D01*
X0059212Y0053659D01*
X0059337Y0053738D01*
X0059464Y0053814D01*
X0059593Y0053886D01*
X0059724Y0053955D01*
X0059857Y0054020D01*
X0059992Y0054081D01*
X0060128Y0054139D01*
X0060265Y0054194D01*
X0060404Y0054244D01*
X0060545Y0054291D01*
X0060686Y0054334D01*
X0060829Y0054374D01*
X0060973Y0054409D01*
X0061117Y0054441D01*
X0061263Y0054468D01*
X0061409Y0054492D01*
X0061556Y0054512D01*
X0061703Y0054528D01*
X0061850Y0054540D01*
X0061998Y0054548D01*
X0062146Y0054552D01*
X0062294Y0054552D01*
X0062442Y0054548D01*
X0062590Y0054540D01*
X0062737Y0054528D01*
X0062884Y0054512D01*
X0063031Y0054492D01*
X0063177Y0054468D01*
X0063323Y0054441D01*
X0063467Y0054409D01*
X0063611Y0054374D01*
X0063754Y0054334D01*
X0063895Y0054291D01*
X0064036Y0054244D01*
X0064175Y0054194D01*
X0064312Y0054139D01*
X0064448Y0054081D01*
X0064583Y0054020D01*
X0064716Y0053955D01*
X0064847Y0053886D01*
X0064976Y0053814D01*
X0065103Y0053738D01*
X0065228Y0053659D01*
X0065351Y0053576D01*
X0065472Y0053491D01*
X0065590Y0053402D01*
X0065706Y0053310D01*
X0065819Y0053214D01*
X0065930Y0053116D01*
X0066038Y0053015D01*
X0066144Y0052911D01*
X0066246Y0052805D01*
X0066346Y0052695D01*
X0066442Y0052583D01*
X0066536Y0052468D01*
X0066627Y0052351D01*
X0066714Y0052232D01*
X0066798Y0052110D01*
X0066879Y0051986D01*
X0066956Y0051860D01*
X0067030Y0051732D01*
X0067101Y0051602D01*
X0067168Y0051470D01*
X0067231Y0051336D01*
X0067291Y0051201D01*
X0067347Y0051064D01*
X0067400Y0050925D01*
X0067448Y0050785D01*
X0067493Y0050644D01*
X0067534Y0050502D01*
X0067572Y0050359D01*
X0067605Y0050215D01*
X0067635Y0050070D01*
X0067661Y0049924D01*
X0067682Y0049778D01*
X0067700Y0049631D01*
X0067714Y0049484D01*
X0067724Y0049336D01*
X0067730Y0049188D01*
X0067732Y0049040D01*
X0067730Y0048892D01*
X0067724Y0048744D01*
X0067714Y0048596D01*
X0067700Y0048449D01*
X0067682Y0048302D01*
X0067661Y0048156D01*
X0067635Y0048010D01*
X0067605Y0047865D01*
X0067572Y0047721D01*
X0067534Y0047578D01*
X0067493Y0047436D01*
X0067448Y0047295D01*
X0067400Y0047155D01*
X0067347Y0047016D01*
X0067291Y0046879D01*
X0067231Y0046744D01*
X0067168Y0046610D01*
X0067101Y0046478D01*
X0067030Y0046348D01*
X0066956Y0046220D01*
X0066879Y0046094D01*
X0066798Y0045970D01*
X0066714Y0045848D01*
X0066627Y0045729D01*
X0066536Y0045612D01*
X0066442Y0045497D01*
X0066346Y0045385D01*
X0066246Y0045275D01*
X0066144Y0045169D01*
X0066038Y0045065D01*
X0065930Y0044964D01*
X0065819Y0044866D01*
X0065706Y0044770D01*
X0065590Y0044678D01*
X0065472Y0044589D01*
X0065351Y0044504D01*
X0065228Y0044421D01*
X0065103Y0044342D01*
X0064976Y0044266D01*
X0064847Y0044194D01*
X0064716Y0044125D01*
X0064583Y0044060D01*
X0064448Y0043999D01*
X0064312Y0043941D01*
X0064175Y0043886D01*
X0064036Y0043836D01*
X0063895Y0043789D01*
X0063754Y0043746D01*
X0063611Y0043706D01*
X0063467Y0043671D01*
X0063323Y0043639D01*
X0063177Y0043612D01*
X0063031Y0043588D01*
X0062884Y0043568D01*
X0062737Y0043552D01*
X0062590Y0043540D01*
X0062442Y0043532D01*
X0062294Y0043528D01*
X0062146Y0043528D01*
X0061998Y0043532D01*
X0061850Y0043540D01*
X0061703Y0043552D01*
X0061556Y0043568D01*
X0061409Y0043588D01*
X0061263Y0043612D01*
X0061117Y0043639D01*
X0060973Y0043671D01*
X0060829Y0043706D01*
X0060686Y0043746D01*
X0060545Y0043789D01*
X0060404Y0043836D01*
X0060265Y0043886D01*
X0060128Y0043941D01*
X0059992Y0043999D01*
X0059857Y0044060D01*
X0059724Y0044125D01*
X0059593Y0044194D01*
X0059464Y0044266D01*
X0059337Y0044342D01*
X0059212Y0044421D01*
X0059089Y0044504D01*
X0058968Y0044589D01*
X0058850Y0044678D01*
X0058734Y0044770D01*
X0058621Y0044866D01*
X0058510Y0044964D01*
X0058402Y0045065D01*
X0058296Y0045169D01*
X0058194Y0045275D01*
X0058094Y0045385D01*
X0057998Y0045497D01*
X0057904Y0045612D01*
X0057813Y0045729D01*
X0057726Y0045848D01*
X0057642Y0045970D01*
X0057561Y0046094D01*
X0057484Y0046220D01*
X0057410Y0046348D01*
X0057339Y0046478D01*
X0057272Y0046610D01*
X0057209Y0046744D01*
X0057149Y0046879D01*
X0057093Y0047016D01*
X0057040Y0047155D01*
X0056992Y0047295D01*
X0056947Y0047436D01*
X0056906Y0047578D01*
X0056868Y0047721D01*
X0056835Y0047865D01*
X0056805Y0048010D01*
X0056779Y0048156D01*
X0056758Y0048302D01*
X0056740Y0048449D01*
X0056726Y0048596D01*
X0056716Y0048744D01*
X0056710Y0048892D01*
X0056708Y0049040D01*
X0050802Y0292064D02*
X0050804Y0292212D01*
X0050810Y0292360D01*
X0050820Y0292508D01*
X0050834Y0292655D01*
X0050852Y0292802D01*
X0050873Y0292948D01*
X0050899Y0293094D01*
X0050929Y0293239D01*
X0050962Y0293383D01*
X0051000Y0293526D01*
X0051041Y0293668D01*
X0051086Y0293809D01*
X0051134Y0293949D01*
X0051187Y0294088D01*
X0051243Y0294225D01*
X0051303Y0294360D01*
X0051366Y0294494D01*
X0051433Y0294626D01*
X0051504Y0294756D01*
X0051578Y0294884D01*
X0051655Y0295010D01*
X0051736Y0295134D01*
X0051820Y0295256D01*
X0051907Y0295375D01*
X0051998Y0295492D01*
X0052092Y0295607D01*
X0052188Y0295719D01*
X0052288Y0295829D01*
X0052390Y0295935D01*
X0052496Y0296039D01*
X0052604Y0296140D01*
X0052715Y0296238D01*
X0052828Y0296334D01*
X0052944Y0296426D01*
X0053062Y0296515D01*
X0053183Y0296600D01*
X0053306Y0296683D01*
X0053431Y0296762D01*
X0053558Y0296838D01*
X0053687Y0296910D01*
X0053818Y0296979D01*
X0053951Y0297044D01*
X0054086Y0297105D01*
X0054222Y0297163D01*
X0054359Y0297218D01*
X0054498Y0297268D01*
X0054639Y0297315D01*
X0054780Y0297358D01*
X0054923Y0297398D01*
X0055067Y0297433D01*
X0055211Y0297465D01*
X0055357Y0297492D01*
X0055503Y0297516D01*
X0055650Y0297536D01*
X0055797Y0297552D01*
X0055944Y0297564D01*
X0056092Y0297572D01*
X0056240Y0297576D01*
X0056388Y0297576D01*
X0056536Y0297572D01*
X0056684Y0297564D01*
X0056831Y0297552D01*
X0056978Y0297536D01*
X0057125Y0297516D01*
X0057271Y0297492D01*
X0057417Y0297465D01*
X0057561Y0297433D01*
X0057705Y0297398D01*
X0057848Y0297358D01*
X0057989Y0297315D01*
X0058130Y0297268D01*
X0058269Y0297218D01*
X0058406Y0297163D01*
X0058542Y0297105D01*
X0058677Y0297044D01*
X0058810Y0296979D01*
X0058941Y0296910D01*
X0059070Y0296838D01*
X0059197Y0296762D01*
X0059322Y0296683D01*
X0059445Y0296600D01*
X0059566Y0296515D01*
X0059684Y0296426D01*
X0059800Y0296334D01*
X0059913Y0296238D01*
X0060024Y0296140D01*
X0060132Y0296039D01*
X0060238Y0295935D01*
X0060340Y0295829D01*
X0060440Y0295719D01*
X0060536Y0295607D01*
X0060630Y0295492D01*
X0060721Y0295375D01*
X0060808Y0295256D01*
X0060892Y0295134D01*
X0060973Y0295010D01*
X0061050Y0294884D01*
X0061124Y0294756D01*
X0061195Y0294626D01*
X0061262Y0294494D01*
X0061325Y0294360D01*
X0061385Y0294225D01*
X0061441Y0294088D01*
X0061494Y0293949D01*
X0061542Y0293809D01*
X0061587Y0293668D01*
X0061628Y0293526D01*
X0061666Y0293383D01*
X0061699Y0293239D01*
X0061729Y0293094D01*
X0061755Y0292948D01*
X0061776Y0292802D01*
X0061794Y0292655D01*
X0061808Y0292508D01*
X0061818Y0292360D01*
X0061824Y0292212D01*
X0061826Y0292064D01*
X0061824Y0291916D01*
X0061818Y0291768D01*
X0061808Y0291620D01*
X0061794Y0291473D01*
X0061776Y0291326D01*
X0061755Y0291180D01*
X0061729Y0291034D01*
X0061699Y0290889D01*
X0061666Y0290745D01*
X0061628Y0290602D01*
X0061587Y0290460D01*
X0061542Y0290319D01*
X0061494Y0290179D01*
X0061441Y0290040D01*
X0061385Y0289903D01*
X0061325Y0289768D01*
X0061262Y0289634D01*
X0061195Y0289502D01*
X0061124Y0289372D01*
X0061050Y0289244D01*
X0060973Y0289118D01*
X0060892Y0288994D01*
X0060808Y0288872D01*
X0060721Y0288753D01*
X0060630Y0288636D01*
X0060536Y0288521D01*
X0060440Y0288409D01*
X0060340Y0288299D01*
X0060238Y0288193D01*
X0060132Y0288089D01*
X0060024Y0287988D01*
X0059913Y0287890D01*
X0059800Y0287794D01*
X0059684Y0287702D01*
X0059566Y0287613D01*
X0059445Y0287528D01*
X0059322Y0287445D01*
X0059197Y0287366D01*
X0059070Y0287290D01*
X0058941Y0287218D01*
X0058810Y0287149D01*
X0058677Y0287084D01*
X0058542Y0287023D01*
X0058406Y0286965D01*
X0058269Y0286910D01*
X0058130Y0286860D01*
X0057989Y0286813D01*
X0057848Y0286770D01*
X0057705Y0286730D01*
X0057561Y0286695D01*
X0057417Y0286663D01*
X0057271Y0286636D01*
X0057125Y0286612D01*
X0056978Y0286592D01*
X0056831Y0286576D01*
X0056684Y0286564D01*
X0056536Y0286556D01*
X0056388Y0286552D01*
X0056240Y0286552D01*
X0056092Y0286556D01*
X0055944Y0286564D01*
X0055797Y0286576D01*
X0055650Y0286592D01*
X0055503Y0286612D01*
X0055357Y0286636D01*
X0055211Y0286663D01*
X0055067Y0286695D01*
X0054923Y0286730D01*
X0054780Y0286770D01*
X0054639Y0286813D01*
X0054498Y0286860D01*
X0054359Y0286910D01*
X0054222Y0286965D01*
X0054086Y0287023D01*
X0053951Y0287084D01*
X0053818Y0287149D01*
X0053687Y0287218D01*
X0053558Y0287290D01*
X0053431Y0287366D01*
X0053306Y0287445D01*
X0053183Y0287528D01*
X0053062Y0287613D01*
X0052944Y0287702D01*
X0052828Y0287794D01*
X0052715Y0287890D01*
X0052604Y0287988D01*
X0052496Y0288089D01*
X0052390Y0288193D01*
X0052288Y0288299D01*
X0052188Y0288409D01*
X0052092Y0288521D01*
X0051998Y0288636D01*
X0051907Y0288753D01*
X0051820Y0288872D01*
X0051736Y0288994D01*
X0051655Y0289118D01*
X0051578Y0289244D01*
X0051504Y0289372D01*
X0051433Y0289502D01*
X0051366Y0289634D01*
X0051303Y0289768D01*
X0051243Y0289903D01*
X0051187Y0290040D01*
X0051134Y0290179D01*
X0051086Y0290319D01*
X0051041Y0290460D01*
X0051000Y0290602D01*
X0050962Y0290745D01*
X0050929Y0290889D01*
X0050899Y0291034D01*
X0050873Y0291180D01*
X0050852Y0291326D01*
X0050834Y0291473D01*
X0050820Y0291620D01*
X0050810Y0291768D01*
X0050804Y0291916D01*
X0050802Y0292064D01*
X0184777Y0324317D02*
X0184779Y0324388D01*
X0184785Y0324459D01*
X0184795Y0324530D01*
X0184809Y0324599D01*
X0184826Y0324668D01*
X0184848Y0324736D01*
X0184873Y0324803D01*
X0184902Y0324868D01*
X0184934Y0324931D01*
X0184970Y0324993D01*
X0185009Y0325052D01*
X0185052Y0325109D01*
X0185097Y0325164D01*
X0185146Y0325216D01*
X0185197Y0325265D01*
X0185251Y0325311D01*
X0185308Y0325355D01*
X0185366Y0325395D01*
X0185427Y0325431D01*
X0185490Y0325465D01*
X0185555Y0325494D01*
X0185621Y0325520D01*
X0185689Y0325543D01*
X0185757Y0325561D01*
X0185827Y0325576D01*
X0185897Y0325587D01*
X0185968Y0325594D01*
X0186039Y0325597D01*
X0186110Y0325596D01*
X0186181Y0325591D01*
X0186252Y0325582D01*
X0186322Y0325569D01*
X0186391Y0325553D01*
X0186459Y0325532D01*
X0186526Y0325508D01*
X0186592Y0325480D01*
X0186655Y0325448D01*
X0186717Y0325413D01*
X0186777Y0325375D01*
X0186835Y0325333D01*
X0186890Y0325289D01*
X0186943Y0325241D01*
X0186993Y0325190D01*
X0187040Y0325137D01*
X0187084Y0325081D01*
X0187125Y0325023D01*
X0187163Y0324962D01*
X0187197Y0324900D01*
X0187227Y0324835D01*
X0187254Y0324770D01*
X0187278Y0324702D01*
X0187297Y0324634D01*
X0187313Y0324565D01*
X0187325Y0324494D01*
X0187333Y0324424D01*
X0187337Y0324353D01*
X0187337Y0324281D01*
X0187333Y0324210D01*
X0187325Y0324140D01*
X0187313Y0324069D01*
X0187297Y0324000D01*
X0187278Y0323932D01*
X0187254Y0323864D01*
X0187227Y0323799D01*
X0187197Y0323734D01*
X0187163Y0323672D01*
X0187125Y0323611D01*
X0187084Y0323553D01*
X0187040Y0323497D01*
X0186993Y0323444D01*
X0186943Y0323393D01*
X0186890Y0323345D01*
X0186835Y0323301D01*
X0186777Y0323259D01*
X0186717Y0323221D01*
X0186655Y0323186D01*
X0186592Y0323154D01*
X0186526Y0323126D01*
X0186459Y0323102D01*
X0186391Y0323081D01*
X0186322Y0323065D01*
X0186252Y0323052D01*
X0186181Y0323043D01*
X0186110Y0323038D01*
X0186039Y0323037D01*
X0185968Y0323040D01*
X0185897Y0323047D01*
X0185827Y0323058D01*
X0185757Y0323073D01*
X0185689Y0323091D01*
X0185621Y0323114D01*
X0185555Y0323140D01*
X0185490Y0323169D01*
X0185427Y0323203D01*
X0185366Y0323239D01*
X0185308Y0323279D01*
X0185251Y0323323D01*
X0185197Y0323369D01*
X0185146Y0323418D01*
X0185097Y0323470D01*
X0185052Y0323525D01*
X0185009Y0323582D01*
X0184970Y0323641D01*
X0184934Y0323703D01*
X0184902Y0323766D01*
X0184873Y0323831D01*
X0184848Y0323898D01*
X0184826Y0323966D01*
X0184809Y0324035D01*
X0184795Y0324104D01*
X0184785Y0324175D01*
X0184779Y0324246D01*
X0184777Y0324317D01*
X0207533Y0324317D02*
X0207535Y0324388D01*
X0207541Y0324459D01*
X0207551Y0324530D01*
X0207565Y0324599D01*
X0207582Y0324668D01*
X0207604Y0324736D01*
X0207629Y0324803D01*
X0207658Y0324868D01*
X0207690Y0324931D01*
X0207726Y0324993D01*
X0207765Y0325052D01*
X0207808Y0325109D01*
X0207853Y0325164D01*
X0207902Y0325216D01*
X0207953Y0325265D01*
X0208007Y0325311D01*
X0208064Y0325355D01*
X0208122Y0325395D01*
X0208183Y0325431D01*
X0208246Y0325465D01*
X0208311Y0325494D01*
X0208377Y0325520D01*
X0208445Y0325543D01*
X0208513Y0325561D01*
X0208583Y0325576D01*
X0208653Y0325587D01*
X0208724Y0325594D01*
X0208795Y0325597D01*
X0208866Y0325596D01*
X0208937Y0325591D01*
X0209008Y0325582D01*
X0209078Y0325569D01*
X0209147Y0325553D01*
X0209215Y0325532D01*
X0209282Y0325508D01*
X0209348Y0325480D01*
X0209411Y0325448D01*
X0209473Y0325413D01*
X0209533Y0325375D01*
X0209591Y0325333D01*
X0209646Y0325289D01*
X0209699Y0325241D01*
X0209749Y0325190D01*
X0209796Y0325137D01*
X0209840Y0325081D01*
X0209881Y0325023D01*
X0209919Y0324962D01*
X0209953Y0324900D01*
X0209983Y0324835D01*
X0210010Y0324770D01*
X0210034Y0324702D01*
X0210053Y0324634D01*
X0210069Y0324565D01*
X0210081Y0324494D01*
X0210089Y0324424D01*
X0210093Y0324353D01*
X0210093Y0324281D01*
X0210089Y0324210D01*
X0210081Y0324140D01*
X0210069Y0324069D01*
X0210053Y0324000D01*
X0210034Y0323932D01*
X0210010Y0323864D01*
X0209983Y0323799D01*
X0209953Y0323734D01*
X0209919Y0323672D01*
X0209881Y0323611D01*
X0209840Y0323553D01*
X0209796Y0323497D01*
X0209749Y0323444D01*
X0209699Y0323393D01*
X0209646Y0323345D01*
X0209591Y0323301D01*
X0209533Y0323259D01*
X0209473Y0323221D01*
X0209411Y0323186D01*
X0209348Y0323154D01*
X0209282Y0323126D01*
X0209215Y0323102D01*
X0209147Y0323081D01*
X0209078Y0323065D01*
X0209008Y0323052D01*
X0208937Y0323043D01*
X0208866Y0323038D01*
X0208795Y0323037D01*
X0208724Y0323040D01*
X0208653Y0323047D01*
X0208583Y0323058D01*
X0208513Y0323073D01*
X0208445Y0323091D01*
X0208377Y0323114D01*
X0208311Y0323140D01*
X0208246Y0323169D01*
X0208183Y0323203D01*
X0208122Y0323239D01*
X0208064Y0323279D01*
X0208007Y0323323D01*
X0207953Y0323369D01*
X0207902Y0323418D01*
X0207853Y0323470D01*
X0207808Y0323525D01*
X0207765Y0323582D01*
X0207726Y0323641D01*
X0207690Y0323703D01*
X0207658Y0323766D01*
X0207629Y0323831D01*
X0207604Y0323898D01*
X0207582Y0323966D01*
X0207565Y0324035D01*
X0207551Y0324104D01*
X0207541Y0324175D01*
X0207535Y0324246D01*
X0207533Y0324317D01*
X0279149Y0292064D02*
X0279151Y0292212D01*
X0279157Y0292360D01*
X0279167Y0292508D01*
X0279181Y0292655D01*
X0279199Y0292802D01*
X0279220Y0292948D01*
X0279246Y0293094D01*
X0279276Y0293239D01*
X0279309Y0293383D01*
X0279347Y0293526D01*
X0279388Y0293668D01*
X0279433Y0293809D01*
X0279481Y0293949D01*
X0279534Y0294088D01*
X0279590Y0294225D01*
X0279650Y0294360D01*
X0279713Y0294494D01*
X0279780Y0294626D01*
X0279851Y0294756D01*
X0279925Y0294884D01*
X0280002Y0295010D01*
X0280083Y0295134D01*
X0280167Y0295256D01*
X0280254Y0295375D01*
X0280345Y0295492D01*
X0280439Y0295607D01*
X0280535Y0295719D01*
X0280635Y0295829D01*
X0280737Y0295935D01*
X0280843Y0296039D01*
X0280951Y0296140D01*
X0281062Y0296238D01*
X0281175Y0296334D01*
X0281291Y0296426D01*
X0281409Y0296515D01*
X0281530Y0296600D01*
X0281653Y0296683D01*
X0281778Y0296762D01*
X0281905Y0296838D01*
X0282034Y0296910D01*
X0282165Y0296979D01*
X0282298Y0297044D01*
X0282433Y0297105D01*
X0282569Y0297163D01*
X0282706Y0297218D01*
X0282845Y0297268D01*
X0282986Y0297315D01*
X0283127Y0297358D01*
X0283270Y0297398D01*
X0283414Y0297433D01*
X0283558Y0297465D01*
X0283704Y0297492D01*
X0283850Y0297516D01*
X0283997Y0297536D01*
X0284144Y0297552D01*
X0284291Y0297564D01*
X0284439Y0297572D01*
X0284587Y0297576D01*
X0284735Y0297576D01*
X0284883Y0297572D01*
X0285031Y0297564D01*
X0285178Y0297552D01*
X0285325Y0297536D01*
X0285472Y0297516D01*
X0285618Y0297492D01*
X0285764Y0297465D01*
X0285908Y0297433D01*
X0286052Y0297398D01*
X0286195Y0297358D01*
X0286336Y0297315D01*
X0286477Y0297268D01*
X0286616Y0297218D01*
X0286753Y0297163D01*
X0286889Y0297105D01*
X0287024Y0297044D01*
X0287157Y0296979D01*
X0287288Y0296910D01*
X0287417Y0296838D01*
X0287544Y0296762D01*
X0287669Y0296683D01*
X0287792Y0296600D01*
X0287913Y0296515D01*
X0288031Y0296426D01*
X0288147Y0296334D01*
X0288260Y0296238D01*
X0288371Y0296140D01*
X0288479Y0296039D01*
X0288585Y0295935D01*
X0288687Y0295829D01*
X0288787Y0295719D01*
X0288883Y0295607D01*
X0288977Y0295492D01*
X0289068Y0295375D01*
X0289155Y0295256D01*
X0289239Y0295134D01*
X0289320Y0295010D01*
X0289397Y0294884D01*
X0289471Y0294756D01*
X0289542Y0294626D01*
X0289609Y0294494D01*
X0289672Y0294360D01*
X0289732Y0294225D01*
X0289788Y0294088D01*
X0289841Y0293949D01*
X0289889Y0293809D01*
X0289934Y0293668D01*
X0289975Y0293526D01*
X0290013Y0293383D01*
X0290046Y0293239D01*
X0290076Y0293094D01*
X0290102Y0292948D01*
X0290123Y0292802D01*
X0290141Y0292655D01*
X0290155Y0292508D01*
X0290165Y0292360D01*
X0290171Y0292212D01*
X0290173Y0292064D01*
X0290171Y0291916D01*
X0290165Y0291768D01*
X0290155Y0291620D01*
X0290141Y0291473D01*
X0290123Y0291326D01*
X0290102Y0291180D01*
X0290076Y0291034D01*
X0290046Y0290889D01*
X0290013Y0290745D01*
X0289975Y0290602D01*
X0289934Y0290460D01*
X0289889Y0290319D01*
X0289841Y0290179D01*
X0289788Y0290040D01*
X0289732Y0289903D01*
X0289672Y0289768D01*
X0289609Y0289634D01*
X0289542Y0289502D01*
X0289471Y0289372D01*
X0289397Y0289244D01*
X0289320Y0289118D01*
X0289239Y0288994D01*
X0289155Y0288872D01*
X0289068Y0288753D01*
X0288977Y0288636D01*
X0288883Y0288521D01*
X0288787Y0288409D01*
X0288687Y0288299D01*
X0288585Y0288193D01*
X0288479Y0288089D01*
X0288371Y0287988D01*
X0288260Y0287890D01*
X0288147Y0287794D01*
X0288031Y0287702D01*
X0287913Y0287613D01*
X0287792Y0287528D01*
X0287669Y0287445D01*
X0287544Y0287366D01*
X0287417Y0287290D01*
X0287288Y0287218D01*
X0287157Y0287149D01*
X0287024Y0287084D01*
X0286889Y0287023D01*
X0286753Y0286965D01*
X0286616Y0286910D01*
X0286477Y0286860D01*
X0286336Y0286813D01*
X0286195Y0286770D01*
X0286052Y0286730D01*
X0285908Y0286695D01*
X0285764Y0286663D01*
X0285618Y0286636D01*
X0285472Y0286612D01*
X0285325Y0286592D01*
X0285178Y0286576D01*
X0285031Y0286564D01*
X0284883Y0286556D01*
X0284735Y0286552D01*
X0284587Y0286552D01*
X0284439Y0286556D01*
X0284291Y0286564D01*
X0284144Y0286576D01*
X0283997Y0286592D01*
X0283850Y0286612D01*
X0283704Y0286636D01*
X0283558Y0286663D01*
X0283414Y0286695D01*
X0283270Y0286730D01*
X0283127Y0286770D01*
X0282986Y0286813D01*
X0282845Y0286860D01*
X0282706Y0286910D01*
X0282569Y0286965D01*
X0282433Y0287023D01*
X0282298Y0287084D01*
X0282165Y0287149D01*
X0282034Y0287218D01*
X0281905Y0287290D01*
X0281778Y0287366D01*
X0281653Y0287445D01*
X0281530Y0287528D01*
X0281409Y0287613D01*
X0281291Y0287702D01*
X0281175Y0287794D01*
X0281062Y0287890D01*
X0280951Y0287988D01*
X0280843Y0288089D01*
X0280737Y0288193D01*
X0280635Y0288299D01*
X0280535Y0288409D01*
X0280439Y0288521D01*
X0280345Y0288636D01*
X0280254Y0288753D01*
X0280167Y0288872D01*
X0280083Y0288994D01*
X0280002Y0289118D01*
X0279925Y0289244D01*
X0279851Y0289372D01*
X0279780Y0289502D01*
X0279713Y0289634D01*
X0279650Y0289768D01*
X0279590Y0289903D01*
X0279534Y0290040D01*
X0279481Y0290179D01*
X0279433Y0290319D01*
X0279388Y0290460D01*
X0279347Y0290602D01*
X0279309Y0290745D01*
X0279276Y0290889D01*
X0279246Y0291034D01*
X0279220Y0291180D01*
X0279199Y0291326D01*
X0279181Y0291473D01*
X0279167Y0291620D01*
X0279157Y0291768D01*
X0279151Y0291916D01*
X0279149Y0292064D01*
X0336441Y0136275D02*
X0336443Y0136383D01*
X0336449Y0136492D01*
X0336459Y0136600D01*
X0336473Y0136707D01*
X0336491Y0136814D01*
X0336512Y0136921D01*
X0336538Y0137026D01*
X0336568Y0137131D01*
X0336601Y0137234D01*
X0336638Y0137336D01*
X0336679Y0137436D01*
X0336723Y0137535D01*
X0336772Y0137633D01*
X0336823Y0137728D01*
X0336878Y0137821D01*
X0336937Y0137913D01*
X0336999Y0138002D01*
X0337064Y0138089D01*
X0337132Y0138173D01*
X0337203Y0138255D01*
X0337277Y0138334D01*
X0337354Y0138410D01*
X0337434Y0138484D01*
X0337517Y0138554D01*
X0337602Y0138622D01*
X0337689Y0138686D01*
X0337779Y0138747D01*
X0337871Y0138805D01*
X0337965Y0138859D01*
X0338061Y0138910D01*
X0338158Y0138957D01*
X0338258Y0139001D01*
X0338359Y0139041D01*
X0338461Y0139077D01*
X0338564Y0139109D01*
X0338669Y0139138D01*
X0338775Y0139162D01*
X0338881Y0139183D01*
X0338988Y0139200D01*
X0339096Y0139213D01*
X0339204Y0139222D01*
X0339313Y0139227D01*
X0339421Y0139228D01*
X0339530Y0139225D01*
X0339638Y0139218D01*
X0339746Y0139207D01*
X0339853Y0139192D01*
X0339960Y0139173D01*
X0340066Y0139150D01*
X0340171Y0139124D01*
X0340276Y0139093D01*
X0340378Y0139059D01*
X0340480Y0139021D01*
X0340580Y0138979D01*
X0340679Y0138934D01*
X0340776Y0138885D01*
X0340870Y0138832D01*
X0340963Y0138776D01*
X0341054Y0138717D01*
X0341143Y0138654D01*
X0341229Y0138589D01*
X0341313Y0138520D01*
X0341394Y0138448D01*
X0341472Y0138373D01*
X0341548Y0138295D01*
X0341621Y0138214D01*
X0341691Y0138131D01*
X0341757Y0138046D01*
X0341821Y0137958D01*
X0341881Y0137867D01*
X0341938Y0137775D01*
X0341991Y0137680D01*
X0342041Y0137584D01*
X0342087Y0137486D01*
X0342130Y0137386D01*
X0342169Y0137285D01*
X0342204Y0137182D01*
X0342236Y0137079D01*
X0342263Y0136974D01*
X0342287Y0136868D01*
X0342307Y0136761D01*
X0342323Y0136654D01*
X0342335Y0136546D01*
X0342343Y0136438D01*
X0342347Y0136329D01*
X0342347Y0136221D01*
X0342343Y0136112D01*
X0342335Y0136004D01*
X0342323Y0135896D01*
X0342307Y0135789D01*
X0342287Y0135682D01*
X0342263Y0135576D01*
X0342236Y0135471D01*
X0342204Y0135368D01*
X0342169Y0135265D01*
X0342130Y0135164D01*
X0342087Y0135064D01*
X0342041Y0134966D01*
X0341991Y0134870D01*
X0341938Y0134775D01*
X0341881Y0134683D01*
X0341821Y0134592D01*
X0341757Y0134504D01*
X0341691Y0134419D01*
X0341621Y0134336D01*
X0341548Y0134255D01*
X0341472Y0134177D01*
X0341394Y0134102D01*
X0341313Y0134030D01*
X0341229Y0133961D01*
X0341143Y0133896D01*
X0341054Y0133833D01*
X0340963Y0133774D01*
X0340871Y0133718D01*
X0340776Y0133665D01*
X0340679Y0133616D01*
X0340580Y0133571D01*
X0340480Y0133529D01*
X0340378Y0133491D01*
X0340276Y0133457D01*
X0340171Y0133426D01*
X0340066Y0133400D01*
X0339960Y0133377D01*
X0339853Y0133358D01*
X0339746Y0133343D01*
X0339638Y0133332D01*
X0339530Y0133325D01*
X0339421Y0133322D01*
X0339313Y0133323D01*
X0339204Y0133328D01*
X0339096Y0133337D01*
X0338988Y0133350D01*
X0338881Y0133367D01*
X0338775Y0133388D01*
X0338669Y0133412D01*
X0338564Y0133441D01*
X0338461Y0133473D01*
X0338359Y0133509D01*
X0338258Y0133549D01*
X0338158Y0133593D01*
X0338061Y0133640D01*
X0337965Y0133691D01*
X0337871Y0133745D01*
X0337779Y0133803D01*
X0337689Y0133864D01*
X0337602Y0133928D01*
X0337517Y0133996D01*
X0337434Y0134066D01*
X0337354Y0134140D01*
X0337277Y0134216D01*
X0337203Y0134295D01*
X0337132Y0134377D01*
X0337064Y0134461D01*
X0336999Y0134548D01*
X0336937Y0134637D01*
X0336878Y0134729D01*
X0336823Y0134822D01*
X0336772Y0134917D01*
X0336723Y0135015D01*
X0336679Y0135114D01*
X0336638Y0135214D01*
X0336601Y0135316D01*
X0336568Y0135419D01*
X0336538Y0135524D01*
X0336512Y0135629D01*
X0336491Y0135736D01*
X0336473Y0135843D01*
X0336459Y0135950D01*
X0336449Y0136058D01*
X0336443Y0136167D01*
X0336441Y0136275D01*
X0347780Y0137456D02*
X0347782Y0137574D01*
X0347788Y0137693D01*
X0347798Y0137811D01*
X0347812Y0137928D01*
X0347829Y0138045D01*
X0347851Y0138162D01*
X0347877Y0138277D01*
X0347906Y0138392D01*
X0347939Y0138506D01*
X0347976Y0138618D01*
X0348017Y0138729D01*
X0348061Y0138839D01*
X0348109Y0138947D01*
X0348161Y0139054D01*
X0348216Y0139159D01*
X0348275Y0139262D01*
X0348337Y0139362D01*
X0348402Y0139461D01*
X0348471Y0139558D01*
X0348542Y0139652D01*
X0348617Y0139743D01*
X0348695Y0139833D01*
X0348776Y0139919D01*
X0348860Y0140003D01*
X0348946Y0140084D01*
X0349036Y0140162D01*
X0349127Y0140237D01*
X0349221Y0140308D01*
X0349318Y0140377D01*
X0349417Y0140442D01*
X0349517Y0140504D01*
X0349620Y0140563D01*
X0349725Y0140618D01*
X0349832Y0140670D01*
X0349940Y0140718D01*
X0350050Y0140762D01*
X0350161Y0140803D01*
X0350273Y0140840D01*
X0350387Y0140873D01*
X0350502Y0140902D01*
X0350617Y0140928D01*
X0350734Y0140950D01*
X0350851Y0140967D01*
X0350968Y0140981D01*
X0351086Y0140991D01*
X0351205Y0140997D01*
X0351323Y0140999D01*
X0351441Y0140997D01*
X0351560Y0140991D01*
X0351678Y0140981D01*
X0351795Y0140967D01*
X0351912Y0140950D01*
X0352029Y0140928D01*
X0352144Y0140902D01*
X0352259Y0140873D01*
X0352373Y0140840D01*
X0352485Y0140803D01*
X0352596Y0140762D01*
X0352706Y0140718D01*
X0352814Y0140670D01*
X0352921Y0140618D01*
X0353026Y0140563D01*
X0353129Y0140504D01*
X0353229Y0140442D01*
X0353328Y0140377D01*
X0353425Y0140308D01*
X0353519Y0140237D01*
X0353610Y0140162D01*
X0353700Y0140084D01*
X0353786Y0140003D01*
X0353870Y0139919D01*
X0353951Y0139833D01*
X0354029Y0139743D01*
X0354104Y0139652D01*
X0354175Y0139558D01*
X0354244Y0139461D01*
X0354309Y0139362D01*
X0354371Y0139262D01*
X0354430Y0139159D01*
X0354485Y0139054D01*
X0354537Y0138947D01*
X0354585Y0138839D01*
X0354629Y0138729D01*
X0354670Y0138618D01*
X0354707Y0138506D01*
X0354740Y0138392D01*
X0354769Y0138277D01*
X0354795Y0138162D01*
X0354817Y0138045D01*
X0354834Y0137928D01*
X0354848Y0137811D01*
X0354858Y0137693D01*
X0354864Y0137574D01*
X0354866Y0137456D01*
X0354864Y0137338D01*
X0354858Y0137219D01*
X0354848Y0137101D01*
X0354834Y0136984D01*
X0354817Y0136867D01*
X0354795Y0136750D01*
X0354769Y0136635D01*
X0354740Y0136520D01*
X0354707Y0136406D01*
X0354670Y0136294D01*
X0354629Y0136183D01*
X0354585Y0136073D01*
X0354537Y0135965D01*
X0354485Y0135858D01*
X0354430Y0135753D01*
X0354371Y0135650D01*
X0354309Y0135550D01*
X0354244Y0135451D01*
X0354175Y0135354D01*
X0354104Y0135260D01*
X0354029Y0135169D01*
X0353951Y0135079D01*
X0353870Y0134993D01*
X0353786Y0134909D01*
X0353700Y0134828D01*
X0353610Y0134750D01*
X0353519Y0134675D01*
X0353425Y0134604D01*
X0353328Y0134535D01*
X0353229Y0134470D01*
X0353129Y0134408D01*
X0353026Y0134349D01*
X0352921Y0134294D01*
X0352814Y0134242D01*
X0352706Y0134194D01*
X0352596Y0134150D01*
X0352485Y0134109D01*
X0352373Y0134072D01*
X0352259Y0134039D01*
X0352144Y0134010D01*
X0352029Y0133984D01*
X0351912Y0133962D01*
X0351795Y0133945D01*
X0351678Y0133931D01*
X0351560Y0133921D01*
X0351441Y0133915D01*
X0351323Y0133913D01*
X0351205Y0133915D01*
X0351086Y0133921D01*
X0350968Y0133931D01*
X0350851Y0133945D01*
X0350734Y0133962D01*
X0350617Y0133984D01*
X0350502Y0134010D01*
X0350387Y0134039D01*
X0350273Y0134072D01*
X0350161Y0134109D01*
X0350050Y0134150D01*
X0349940Y0134194D01*
X0349832Y0134242D01*
X0349725Y0134294D01*
X0349620Y0134349D01*
X0349517Y0134408D01*
X0349417Y0134470D01*
X0349318Y0134535D01*
X0349221Y0134604D01*
X0349127Y0134675D01*
X0349036Y0134750D01*
X0348946Y0134828D01*
X0348860Y0134909D01*
X0348776Y0134993D01*
X0348695Y0135079D01*
X0348617Y0135169D01*
X0348542Y0135260D01*
X0348471Y0135354D01*
X0348402Y0135451D01*
X0348337Y0135550D01*
X0348275Y0135650D01*
X0348216Y0135753D01*
X0348161Y0135858D01*
X0348109Y0135965D01*
X0348061Y0136073D01*
X0348017Y0136183D01*
X0347976Y0136294D01*
X0347939Y0136406D01*
X0347906Y0136520D01*
X0347877Y0136635D01*
X0347851Y0136750D01*
X0347829Y0136867D01*
X0347812Y0136984D01*
X0347798Y0137101D01*
X0347788Y0137219D01*
X0347782Y0137338D01*
X0347780Y0137456D01*
X0347780Y0115999D02*
X0347782Y0116117D01*
X0347788Y0116236D01*
X0347798Y0116354D01*
X0347812Y0116471D01*
X0347829Y0116588D01*
X0347851Y0116705D01*
X0347877Y0116820D01*
X0347906Y0116935D01*
X0347939Y0117049D01*
X0347976Y0117161D01*
X0348017Y0117272D01*
X0348061Y0117382D01*
X0348109Y0117490D01*
X0348161Y0117597D01*
X0348216Y0117702D01*
X0348275Y0117805D01*
X0348337Y0117905D01*
X0348402Y0118004D01*
X0348471Y0118101D01*
X0348542Y0118195D01*
X0348617Y0118286D01*
X0348695Y0118376D01*
X0348776Y0118462D01*
X0348860Y0118546D01*
X0348946Y0118627D01*
X0349036Y0118705D01*
X0349127Y0118780D01*
X0349221Y0118851D01*
X0349318Y0118920D01*
X0349417Y0118985D01*
X0349517Y0119047D01*
X0349620Y0119106D01*
X0349725Y0119161D01*
X0349832Y0119213D01*
X0349940Y0119261D01*
X0350050Y0119305D01*
X0350161Y0119346D01*
X0350273Y0119383D01*
X0350387Y0119416D01*
X0350502Y0119445D01*
X0350617Y0119471D01*
X0350734Y0119493D01*
X0350851Y0119510D01*
X0350968Y0119524D01*
X0351086Y0119534D01*
X0351205Y0119540D01*
X0351323Y0119542D01*
X0351441Y0119540D01*
X0351560Y0119534D01*
X0351678Y0119524D01*
X0351795Y0119510D01*
X0351912Y0119493D01*
X0352029Y0119471D01*
X0352144Y0119445D01*
X0352259Y0119416D01*
X0352373Y0119383D01*
X0352485Y0119346D01*
X0352596Y0119305D01*
X0352706Y0119261D01*
X0352814Y0119213D01*
X0352921Y0119161D01*
X0353026Y0119106D01*
X0353129Y0119047D01*
X0353229Y0118985D01*
X0353328Y0118920D01*
X0353425Y0118851D01*
X0353519Y0118780D01*
X0353610Y0118705D01*
X0353700Y0118627D01*
X0353786Y0118546D01*
X0353870Y0118462D01*
X0353951Y0118376D01*
X0354029Y0118286D01*
X0354104Y0118195D01*
X0354175Y0118101D01*
X0354244Y0118004D01*
X0354309Y0117905D01*
X0354371Y0117805D01*
X0354430Y0117702D01*
X0354485Y0117597D01*
X0354537Y0117490D01*
X0354585Y0117382D01*
X0354629Y0117272D01*
X0354670Y0117161D01*
X0354707Y0117049D01*
X0354740Y0116935D01*
X0354769Y0116820D01*
X0354795Y0116705D01*
X0354817Y0116588D01*
X0354834Y0116471D01*
X0354848Y0116354D01*
X0354858Y0116236D01*
X0354864Y0116117D01*
X0354866Y0115999D01*
X0354864Y0115881D01*
X0354858Y0115762D01*
X0354848Y0115644D01*
X0354834Y0115527D01*
X0354817Y0115410D01*
X0354795Y0115293D01*
X0354769Y0115178D01*
X0354740Y0115063D01*
X0354707Y0114949D01*
X0354670Y0114837D01*
X0354629Y0114726D01*
X0354585Y0114616D01*
X0354537Y0114508D01*
X0354485Y0114401D01*
X0354430Y0114296D01*
X0354371Y0114193D01*
X0354309Y0114093D01*
X0354244Y0113994D01*
X0354175Y0113897D01*
X0354104Y0113803D01*
X0354029Y0113712D01*
X0353951Y0113622D01*
X0353870Y0113536D01*
X0353786Y0113452D01*
X0353700Y0113371D01*
X0353610Y0113293D01*
X0353519Y0113218D01*
X0353425Y0113147D01*
X0353328Y0113078D01*
X0353229Y0113013D01*
X0353129Y0112951D01*
X0353026Y0112892D01*
X0352921Y0112837D01*
X0352814Y0112785D01*
X0352706Y0112737D01*
X0352596Y0112693D01*
X0352485Y0112652D01*
X0352373Y0112615D01*
X0352259Y0112582D01*
X0352144Y0112553D01*
X0352029Y0112527D01*
X0351912Y0112505D01*
X0351795Y0112488D01*
X0351678Y0112474D01*
X0351560Y0112464D01*
X0351441Y0112458D01*
X0351323Y0112456D01*
X0351205Y0112458D01*
X0351086Y0112464D01*
X0350968Y0112474D01*
X0350851Y0112488D01*
X0350734Y0112505D01*
X0350617Y0112527D01*
X0350502Y0112553D01*
X0350387Y0112582D01*
X0350273Y0112615D01*
X0350161Y0112652D01*
X0350050Y0112693D01*
X0349940Y0112737D01*
X0349832Y0112785D01*
X0349725Y0112837D01*
X0349620Y0112892D01*
X0349517Y0112951D01*
X0349417Y0113013D01*
X0349318Y0113078D01*
X0349221Y0113147D01*
X0349127Y0113218D01*
X0349036Y0113293D01*
X0348946Y0113371D01*
X0348860Y0113452D01*
X0348776Y0113536D01*
X0348695Y0113622D01*
X0348617Y0113712D01*
X0348542Y0113803D01*
X0348471Y0113897D01*
X0348402Y0113994D01*
X0348337Y0114093D01*
X0348275Y0114193D01*
X0348216Y0114296D01*
X0348161Y0114401D01*
X0348109Y0114508D01*
X0348061Y0114616D01*
X0348017Y0114726D01*
X0347976Y0114837D01*
X0347939Y0114949D01*
X0347906Y0115063D01*
X0347877Y0115178D01*
X0347851Y0115293D01*
X0347829Y0115410D01*
X0347812Y0115527D01*
X0347798Y0115644D01*
X0347788Y0115762D01*
X0347782Y0115881D01*
X0347780Y0115999D01*
X0336441Y0117180D02*
X0336443Y0117288D01*
X0336449Y0117397D01*
X0336459Y0117505D01*
X0336473Y0117612D01*
X0336491Y0117719D01*
X0336512Y0117826D01*
X0336538Y0117931D01*
X0336568Y0118036D01*
X0336601Y0118139D01*
X0336638Y0118241D01*
X0336679Y0118341D01*
X0336723Y0118440D01*
X0336772Y0118538D01*
X0336823Y0118633D01*
X0336878Y0118726D01*
X0336937Y0118818D01*
X0336999Y0118907D01*
X0337064Y0118994D01*
X0337132Y0119078D01*
X0337203Y0119160D01*
X0337277Y0119239D01*
X0337354Y0119315D01*
X0337434Y0119389D01*
X0337517Y0119459D01*
X0337602Y0119527D01*
X0337689Y0119591D01*
X0337779Y0119652D01*
X0337871Y0119710D01*
X0337965Y0119764D01*
X0338061Y0119815D01*
X0338158Y0119862D01*
X0338258Y0119906D01*
X0338359Y0119946D01*
X0338461Y0119982D01*
X0338564Y0120014D01*
X0338669Y0120043D01*
X0338775Y0120067D01*
X0338881Y0120088D01*
X0338988Y0120105D01*
X0339096Y0120118D01*
X0339204Y0120127D01*
X0339313Y0120132D01*
X0339421Y0120133D01*
X0339530Y0120130D01*
X0339638Y0120123D01*
X0339746Y0120112D01*
X0339853Y0120097D01*
X0339960Y0120078D01*
X0340066Y0120055D01*
X0340171Y0120029D01*
X0340276Y0119998D01*
X0340378Y0119964D01*
X0340480Y0119926D01*
X0340580Y0119884D01*
X0340679Y0119839D01*
X0340776Y0119790D01*
X0340870Y0119737D01*
X0340963Y0119681D01*
X0341054Y0119622D01*
X0341143Y0119559D01*
X0341229Y0119494D01*
X0341313Y0119425D01*
X0341394Y0119353D01*
X0341472Y0119278D01*
X0341548Y0119200D01*
X0341621Y0119119D01*
X0341691Y0119036D01*
X0341757Y0118951D01*
X0341821Y0118863D01*
X0341881Y0118772D01*
X0341938Y0118680D01*
X0341991Y0118585D01*
X0342041Y0118489D01*
X0342087Y0118391D01*
X0342130Y0118291D01*
X0342169Y0118190D01*
X0342204Y0118087D01*
X0342236Y0117984D01*
X0342263Y0117879D01*
X0342287Y0117773D01*
X0342307Y0117666D01*
X0342323Y0117559D01*
X0342335Y0117451D01*
X0342343Y0117343D01*
X0342347Y0117234D01*
X0342347Y0117126D01*
X0342343Y0117017D01*
X0342335Y0116909D01*
X0342323Y0116801D01*
X0342307Y0116694D01*
X0342287Y0116587D01*
X0342263Y0116481D01*
X0342236Y0116376D01*
X0342204Y0116273D01*
X0342169Y0116170D01*
X0342130Y0116069D01*
X0342087Y0115969D01*
X0342041Y0115871D01*
X0341991Y0115775D01*
X0341938Y0115680D01*
X0341881Y0115588D01*
X0341821Y0115497D01*
X0341757Y0115409D01*
X0341691Y0115324D01*
X0341621Y0115241D01*
X0341548Y0115160D01*
X0341472Y0115082D01*
X0341394Y0115007D01*
X0341313Y0114935D01*
X0341229Y0114866D01*
X0341143Y0114801D01*
X0341054Y0114738D01*
X0340963Y0114679D01*
X0340871Y0114623D01*
X0340776Y0114570D01*
X0340679Y0114521D01*
X0340580Y0114476D01*
X0340480Y0114434D01*
X0340378Y0114396D01*
X0340276Y0114362D01*
X0340171Y0114331D01*
X0340066Y0114305D01*
X0339960Y0114282D01*
X0339853Y0114263D01*
X0339746Y0114248D01*
X0339638Y0114237D01*
X0339530Y0114230D01*
X0339421Y0114227D01*
X0339313Y0114228D01*
X0339204Y0114233D01*
X0339096Y0114242D01*
X0338988Y0114255D01*
X0338881Y0114272D01*
X0338775Y0114293D01*
X0338669Y0114317D01*
X0338564Y0114346D01*
X0338461Y0114378D01*
X0338359Y0114414D01*
X0338258Y0114454D01*
X0338158Y0114498D01*
X0338061Y0114545D01*
X0337965Y0114596D01*
X0337871Y0114650D01*
X0337779Y0114708D01*
X0337689Y0114769D01*
X0337602Y0114833D01*
X0337517Y0114901D01*
X0337434Y0114971D01*
X0337354Y0115045D01*
X0337277Y0115121D01*
X0337203Y0115200D01*
X0337132Y0115282D01*
X0337064Y0115366D01*
X0336999Y0115453D01*
X0336937Y0115542D01*
X0336878Y0115634D01*
X0336823Y0115727D01*
X0336772Y0115822D01*
X0336723Y0115920D01*
X0336679Y0116019D01*
X0336638Y0116119D01*
X0336601Y0116221D01*
X0336568Y0116324D01*
X0336538Y0116429D01*
X0336512Y0116534D01*
X0336491Y0116641D01*
X0336473Y0116748D01*
X0336459Y0116855D01*
X0336449Y0116963D01*
X0336443Y0117072D01*
X0336441Y0117180D01*
X0333401Y0049040D02*
X0333403Y0049188D01*
X0333409Y0049336D01*
X0333419Y0049484D01*
X0333433Y0049631D01*
X0333451Y0049778D01*
X0333472Y0049924D01*
X0333498Y0050070D01*
X0333528Y0050215D01*
X0333561Y0050359D01*
X0333599Y0050502D01*
X0333640Y0050644D01*
X0333685Y0050785D01*
X0333733Y0050925D01*
X0333786Y0051064D01*
X0333842Y0051201D01*
X0333902Y0051336D01*
X0333965Y0051470D01*
X0334032Y0051602D01*
X0334103Y0051732D01*
X0334177Y0051860D01*
X0334254Y0051986D01*
X0334335Y0052110D01*
X0334419Y0052232D01*
X0334506Y0052351D01*
X0334597Y0052468D01*
X0334691Y0052583D01*
X0334787Y0052695D01*
X0334887Y0052805D01*
X0334989Y0052911D01*
X0335095Y0053015D01*
X0335203Y0053116D01*
X0335314Y0053214D01*
X0335427Y0053310D01*
X0335543Y0053402D01*
X0335661Y0053491D01*
X0335782Y0053576D01*
X0335905Y0053659D01*
X0336030Y0053738D01*
X0336157Y0053814D01*
X0336286Y0053886D01*
X0336417Y0053955D01*
X0336550Y0054020D01*
X0336685Y0054081D01*
X0336821Y0054139D01*
X0336958Y0054194D01*
X0337097Y0054244D01*
X0337238Y0054291D01*
X0337379Y0054334D01*
X0337522Y0054374D01*
X0337666Y0054409D01*
X0337810Y0054441D01*
X0337956Y0054468D01*
X0338102Y0054492D01*
X0338249Y0054512D01*
X0338396Y0054528D01*
X0338543Y0054540D01*
X0338691Y0054548D01*
X0338839Y0054552D01*
X0338987Y0054552D01*
X0339135Y0054548D01*
X0339283Y0054540D01*
X0339430Y0054528D01*
X0339577Y0054512D01*
X0339724Y0054492D01*
X0339870Y0054468D01*
X0340016Y0054441D01*
X0340160Y0054409D01*
X0340304Y0054374D01*
X0340447Y0054334D01*
X0340588Y0054291D01*
X0340729Y0054244D01*
X0340868Y0054194D01*
X0341005Y0054139D01*
X0341141Y0054081D01*
X0341276Y0054020D01*
X0341409Y0053955D01*
X0341540Y0053886D01*
X0341669Y0053814D01*
X0341796Y0053738D01*
X0341921Y0053659D01*
X0342044Y0053576D01*
X0342165Y0053491D01*
X0342283Y0053402D01*
X0342399Y0053310D01*
X0342512Y0053214D01*
X0342623Y0053116D01*
X0342731Y0053015D01*
X0342837Y0052911D01*
X0342939Y0052805D01*
X0343039Y0052695D01*
X0343135Y0052583D01*
X0343229Y0052468D01*
X0343320Y0052351D01*
X0343407Y0052232D01*
X0343491Y0052110D01*
X0343572Y0051986D01*
X0343649Y0051860D01*
X0343723Y0051732D01*
X0343794Y0051602D01*
X0343861Y0051470D01*
X0343924Y0051336D01*
X0343984Y0051201D01*
X0344040Y0051064D01*
X0344093Y0050925D01*
X0344141Y0050785D01*
X0344186Y0050644D01*
X0344227Y0050502D01*
X0344265Y0050359D01*
X0344298Y0050215D01*
X0344328Y0050070D01*
X0344354Y0049924D01*
X0344375Y0049778D01*
X0344393Y0049631D01*
X0344407Y0049484D01*
X0344417Y0049336D01*
X0344423Y0049188D01*
X0344425Y0049040D01*
X0344423Y0048892D01*
X0344417Y0048744D01*
X0344407Y0048596D01*
X0344393Y0048449D01*
X0344375Y0048302D01*
X0344354Y0048156D01*
X0344328Y0048010D01*
X0344298Y0047865D01*
X0344265Y0047721D01*
X0344227Y0047578D01*
X0344186Y0047436D01*
X0344141Y0047295D01*
X0344093Y0047155D01*
X0344040Y0047016D01*
X0343984Y0046879D01*
X0343924Y0046744D01*
X0343861Y0046610D01*
X0343794Y0046478D01*
X0343723Y0046348D01*
X0343649Y0046220D01*
X0343572Y0046094D01*
X0343491Y0045970D01*
X0343407Y0045848D01*
X0343320Y0045729D01*
X0343229Y0045612D01*
X0343135Y0045497D01*
X0343039Y0045385D01*
X0342939Y0045275D01*
X0342837Y0045169D01*
X0342731Y0045065D01*
X0342623Y0044964D01*
X0342512Y0044866D01*
X0342399Y0044770D01*
X0342283Y0044678D01*
X0342165Y0044589D01*
X0342044Y0044504D01*
X0341921Y0044421D01*
X0341796Y0044342D01*
X0341669Y0044266D01*
X0341540Y0044194D01*
X0341409Y0044125D01*
X0341276Y0044060D01*
X0341141Y0043999D01*
X0341005Y0043941D01*
X0340868Y0043886D01*
X0340729Y0043836D01*
X0340588Y0043789D01*
X0340447Y0043746D01*
X0340304Y0043706D01*
X0340160Y0043671D01*
X0340016Y0043639D01*
X0339870Y0043612D01*
X0339724Y0043588D01*
X0339577Y0043568D01*
X0339430Y0043552D01*
X0339283Y0043540D01*
X0339135Y0043532D01*
X0338987Y0043528D01*
X0338839Y0043528D01*
X0338691Y0043532D01*
X0338543Y0043540D01*
X0338396Y0043552D01*
X0338249Y0043568D01*
X0338102Y0043588D01*
X0337956Y0043612D01*
X0337810Y0043639D01*
X0337666Y0043671D01*
X0337522Y0043706D01*
X0337379Y0043746D01*
X0337238Y0043789D01*
X0337097Y0043836D01*
X0336958Y0043886D01*
X0336821Y0043941D01*
X0336685Y0043999D01*
X0336550Y0044060D01*
X0336417Y0044125D01*
X0336286Y0044194D01*
X0336157Y0044266D01*
X0336030Y0044342D01*
X0335905Y0044421D01*
X0335782Y0044504D01*
X0335661Y0044589D01*
X0335543Y0044678D01*
X0335427Y0044770D01*
X0335314Y0044866D01*
X0335203Y0044964D01*
X0335095Y0045065D01*
X0334989Y0045169D01*
X0334887Y0045275D01*
X0334787Y0045385D01*
X0334691Y0045497D01*
X0334597Y0045612D01*
X0334506Y0045729D01*
X0334419Y0045848D01*
X0334335Y0045970D01*
X0334254Y0046094D01*
X0334177Y0046220D01*
X0334103Y0046348D01*
X0334032Y0046478D01*
X0333965Y0046610D01*
X0333902Y0046744D01*
X0333842Y0046879D01*
X0333786Y0047016D01*
X0333733Y0047155D01*
X0333685Y0047295D01*
X0333640Y0047436D01*
X0333599Y0047578D01*
X0333561Y0047721D01*
X0333528Y0047865D01*
X0333498Y0048010D01*
X0333472Y0048156D01*
X0333451Y0048302D01*
X0333433Y0048449D01*
X0333419Y0048596D01*
X0333409Y0048744D01*
X0333403Y0048892D01*
X0333401Y0049040D01*
D11*
X0042535Y0049040D02*
X0042535Y0325528D01*
X0042541Y0326004D01*
X0042558Y0326479D01*
X0042587Y0326954D01*
X0042627Y0327428D01*
X0042679Y0327901D01*
X0042742Y0328372D01*
X0042816Y0328842D01*
X0042902Y0329310D01*
X0042999Y0329776D01*
X0043107Y0330239D01*
X0043226Y0330699D01*
X0043357Y0331157D01*
X0043498Y0331611D01*
X0043651Y0332062D01*
X0043814Y0332508D01*
X0043988Y0332951D01*
X0044173Y0333389D01*
X0044368Y0333823D01*
X0044574Y0334252D01*
X0044790Y0334676D01*
X0045016Y0335095D01*
X0045252Y0335508D01*
X0045498Y0335915D01*
X0045754Y0336316D01*
X0046020Y0336710D01*
X0046295Y0337099D01*
X0046579Y0337480D01*
X0046872Y0337854D01*
X0047174Y0338222D01*
X0047486Y0338582D01*
X0047805Y0338934D01*
X0048133Y0339278D01*
X0048470Y0339615D01*
X0048814Y0339943D01*
X0049166Y0340262D01*
X0049526Y0340574D01*
X0049894Y0340876D01*
X0050268Y0341169D01*
X0050649Y0341453D01*
X0051038Y0341728D01*
X0051432Y0341994D01*
X0051833Y0342250D01*
X0052240Y0342496D01*
X0052653Y0342732D01*
X0053072Y0342958D01*
X0053496Y0343174D01*
X0053925Y0343380D01*
X0054359Y0343575D01*
X0054797Y0343760D01*
X0055240Y0343934D01*
X0055686Y0344097D01*
X0056137Y0344250D01*
X0056591Y0344391D01*
X0057049Y0344522D01*
X0057509Y0344641D01*
X0057972Y0344749D01*
X0058438Y0344846D01*
X0058906Y0344932D01*
X0059376Y0345006D01*
X0059847Y0345069D01*
X0060320Y0345121D01*
X0060794Y0345161D01*
X0061269Y0345190D01*
X0061744Y0345207D01*
X0062220Y0345213D01*
X0338708Y0345213D01*
X0339184Y0345207D01*
X0339659Y0345190D01*
X0340134Y0345161D01*
X0340608Y0345121D01*
X0341081Y0345069D01*
X0341552Y0345006D01*
X0342022Y0344932D01*
X0342490Y0344846D01*
X0342956Y0344749D01*
X0343419Y0344641D01*
X0343879Y0344522D01*
X0344337Y0344391D01*
X0344791Y0344250D01*
X0345242Y0344097D01*
X0345688Y0343934D01*
X0346131Y0343760D01*
X0346569Y0343575D01*
X0347003Y0343380D01*
X0347432Y0343174D01*
X0347856Y0342958D01*
X0348275Y0342732D01*
X0348688Y0342496D01*
X0349095Y0342250D01*
X0349496Y0341994D01*
X0349890Y0341728D01*
X0350279Y0341453D01*
X0350660Y0341169D01*
X0351034Y0340876D01*
X0351402Y0340574D01*
X0351762Y0340262D01*
X0352114Y0339943D01*
X0352458Y0339615D01*
X0352795Y0339278D01*
X0353123Y0338934D01*
X0353442Y0338582D01*
X0353754Y0338222D01*
X0354056Y0337854D01*
X0354349Y0337480D01*
X0354633Y0337099D01*
X0354908Y0336710D01*
X0355174Y0336316D01*
X0355430Y0335915D01*
X0355676Y0335508D01*
X0355912Y0335095D01*
X0356138Y0334676D01*
X0356354Y0334252D01*
X0356560Y0333823D01*
X0356755Y0333389D01*
X0356940Y0332951D01*
X0357114Y0332508D01*
X0357277Y0332062D01*
X0357430Y0331611D01*
X0357571Y0331157D01*
X0357702Y0330699D01*
X0357821Y0330239D01*
X0357929Y0329776D01*
X0358026Y0329310D01*
X0358112Y0328842D01*
X0358186Y0328372D01*
X0358249Y0327901D01*
X0358301Y0327428D01*
X0358341Y0326954D01*
X0358370Y0326479D01*
X0358387Y0326004D01*
X0358393Y0325528D01*
X0358435Y0325428D02*
X0358435Y0048940D01*
X0358393Y0049040D02*
X0358371Y0048569D01*
X0358337Y0048099D01*
X0358292Y0047630D01*
X0358235Y0047163D01*
X0358167Y0046696D01*
X0358088Y0046232D01*
X0357997Y0045769D01*
X0357896Y0045309D01*
X0357783Y0044852D01*
X0357660Y0044397D01*
X0357525Y0043946D01*
X0357380Y0043497D01*
X0357223Y0043053D01*
X0357056Y0042612D01*
X0356879Y0042176D01*
X0356691Y0041744D01*
X0356493Y0041316D01*
X0356284Y0040894D01*
X0356065Y0040477D01*
X0355836Y0040065D01*
X0355597Y0039659D01*
X0355349Y0039258D01*
X0355091Y0038864D01*
X0354823Y0038476D01*
X0354547Y0038095D01*
X0354261Y0037720D01*
X0353966Y0037353D01*
X0353662Y0036993D01*
X0353350Y0036640D01*
X0353029Y0036295D01*
X0352700Y0035958D01*
X0352363Y0035628D01*
X0352018Y0035307D01*
X0351665Y0034995D01*
X0351305Y0034691D01*
X0350938Y0034396D01*
X0350564Y0034109D01*
X0350183Y0033832D01*
X0349795Y0033564D01*
X0349401Y0033306D01*
X0349001Y0033057D01*
X0348595Y0032818D01*
X0348183Y0032589D01*
X0347766Y0032370D01*
X0347343Y0032161D01*
X0346916Y0031962D01*
X0346484Y0031774D01*
X0346048Y0031596D01*
X0345608Y0031429D01*
X0345163Y0031273D01*
X0344715Y0031127D01*
X0344264Y0030992D01*
X0343809Y0030868D01*
X0343352Y0030755D01*
X0342891Y0030653D01*
X0342429Y0030563D01*
X0341965Y0030483D01*
X0341498Y0030415D01*
X0341031Y0030358D01*
X0340562Y0030312D01*
X0340092Y0030278D01*
X0339621Y0030255D01*
X0339150Y0030244D01*
X0338679Y0030243D01*
X0338208Y0030255D01*
X0062220Y0029355D01*
X0061744Y0029361D01*
X0061269Y0029378D01*
X0060794Y0029407D01*
X0060320Y0029447D01*
X0059847Y0029499D01*
X0059376Y0029562D01*
X0058906Y0029636D01*
X0058438Y0029722D01*
X0057972Y0029819D01*
X0057509Y0029927D01*
X0057049Y0030046D01*
X0056591Y0030177D01*
X0056137Y0030318D01*
X0055686Y0030471D01*
X0055240Y0030634D01*
X0054797Y0030808D01*
X0054359Y0030993D01*
X0053925Y0031188D01*
X0053496Y0031394D01*
X0053072Y0031610D01*
X0052653Y0031836D01*
X0052240Y0032072D01*
X0051833Y0032318D01*
X0051432Y0032574D01*
X0051038Y0032840D01*
X0050649Y0033115D01*
X0050268Y0033399D01*
X0049894Y0033692D01*
X0049526Y0033994D01*
X0049166Y0034306D01*
X0048814Y0034625D01*
X0048470Y0034953D01*
X0048133Y0035290D01*
X0047805Y0035634D01*
X0047486Y0035986D01*
X0047174Y0036346D01*
X0046872Y0036714D01*
X0046579Y0037088D01*
X0046295Y0037469D01*
X0046020Y0037858D01*
X0045754Y0038252D01*
X0045498Y0038653D01*
X0045252Y0039060D01*
X0045016Y0039473D01*
X0044790Y0039892D01*
X0044574Y0040316D01*
X0044368Y0040745D01*
X0044173Y0041179D01*
X0043988Y0041617D01*
X0043814Y0042060D01*
X0043651Y0042506D01*
X0043498Y0042957D01*
X0043357Y0043411D01*
X0043226Y0043869D01*
X0043107Y0044329D01*
X0042999Y0044792D01*
X0042902Y0045258D01*
X0042816Y0045726D01*
X0042742Y0046196D01*
X0042679Y0046667D01*
X0042627Y0047140D01*
X0042587Y0047614D01*
X0042558Y0048089D01*
X0042541Y0048564D01*
X0042535Y0049040D01*
M02*
