G75*
%MOIN*%
%OFA0B0*%
%FSLAX25Y25*%
%IPPOS*%
%LPD*%
%AMOC8*
5,1,8,0,0,1.08239X$1,22.5*
%
%ADD10R,0.03937X0.04331*%
%ADD11R,0.06693X0.13780*%
%ADD12R,0.03543X0.04921*%
%ADD13R,0.05000X0.12000*%
%ADD14R,0.12000X0.05000*%
%ADD15R,0.05500X0.12000*%
%ADD16R,0.05600X0.12000*%
%ADD17C,0.00875*%
%ADD18R,0.01181X0.03937*%
%ADD19R,0.02362X0.03937*%
%ADD20C,0.00039*%
%ADD21R,0.02200X0.07800*%
%ADD22R,0.03937X0.03150*%
%ADD23C,0.01181*%
%ADD24R,0.02700X0.07700*%
%ADD25R,0.02700X0.04600*%
%ADD26R,0.03937X0.12992*%
%ADD27R,0.03189X0.06693*%
%ADD28R,0.03189X0.04134*%
%ADD29R,0.06000X0.01300*%
%ADD30R,0.04134X0.05118*%
D10*
X0049035Y0196881D03*
X0049035Y0203574D03*
X0052835Y0275581D03*
X0052835Y0282274D03*
X0156135Y0310881D03*
X0156135Y0317574D03*
X0169488Y0328928D03*
X0176181Y0328928D03*
X0218788Y0329128D03*
X0225481Y0329128D03*
X0247635Y0318174D03*
X0247635Y0311481D03*
X0260088Y0274828D03*
X0266781Y0274828D03*
X0278288Y0274828D03*
X0284981Y0274828D03*
X0300135Y0308781D03*
X0300135Y0315474D03*
X0296181Y0063628D03*
X0289488Y0063628D03*
D11*
X0161835Y0087358D03*
X0171835Y0087358D03*
X0181835Y0087358D03*
X0191835Y0087358D03*
X0201835Y0087358D03*
X0211835Y0087358D03*
X0221835Y0087358D03*
X0231835Y0087358D03*
X0241835Y0087358D03*
X0251835Y0087358D03*
X0261835Y0087358D03*
X0271835Y0087358D03*
X0281835Y0087358D03*
X0291835Y0087358D03*
X0301835Y0087358D03*
X0311835Y0087358D03*
X0321835Y0087358D03*
X0331835Y0087358D03*
X0341835Y0087358D03*
X0351835Y0087358D03*
X0351835Y0166098D03*
X0341835Y0166098D03*
X0331835Y0166098D03*
X0321835Y0166098D03*
X0311835Y0166098D03*
X0301835Y0166098D03*
X0291835Y0166098D03*
X0281835Y0166098D03*
X0271835Y0166098D03*
X0261835Y0166098D03*
X0251835Y0166098D03*
X0241835Y0166098D03*
X0231835Y0166098D03*
X0221835Y0166098D03*
X0211835Y0166098D03*
X0201835Y0166098D03*
X0191835Y0166098D03*
X0181835Y0166098D03*
X0171835Y0166098D03*
X0161835Y0166098D03*
D12*
X0264482Y0326155D03*
X0269797Y0326155D03*
X0269797Y0342494D03*
X0264443Y0342494D03*
X0346243Y0075594D03*
X0351597Y0075594D03*
X0351597Y0059255D03*
X0346282Y0059255D03*
D13*
X0206009Y0201432D03*
X0193189Y0201432D03*
X0158669Y0201932D03*
X0158788Y0260736D03*
X0193504Y0261169D03*
X0206004Y0261279D03*
D14*
X0247287Y0249432D03*
X0247268Y0211932D03*
X0146748Y0211736D03*
X0146768Y0250236D03*
D15*
X0217504Y0261389D03*
X0217528Y0201432D03*
X0229048Y0201432D03*
D16*
X0229004Y0261499D03*
D17*
X0259422Y0255441D02*
X0259422Y0252815D01*
X0259422Y0255441D02*
X0262048Y0255441D01*
X0262048Y0252815D01*
X0259422Y0252815D01*
X0259422Y0253689D02*
X0262048Y0253689D01*
X0262048Y0254563D02*
X0259422Y0254563D01*
X0259422Y0255437D02*
X0262048Y0255437D01*
X0259422Y0249441D02*
X0259422Y0246815D01*
X0259422Y0249441D02*
X0262048Y0249441D01*
X0262048Y0246815D01*
X0259422Y0246815D01*
X0259422Y0247689D02*
X0262048Y0247689D01*
X0262048Y0248563D02*
X0259422Y0248563D01*
X0259422Y0249437D02*
X0262048Y0249437D01*
X0262748Y0239115D02*
X0260122Y0239115D01*
X0260122Y0241741D01*
X0262748Y0241741D01*
X0262748Y0239115D01*
X0262748Y0239989D02*
X0260122Y0239989D01*
X0260122Y0240863D02*
X0262748Y0240863D01*
X0262748Y0241737D02*
X0260122Y0241737D01*
X0266122Y0239115D02*
X0268748Y0239115D01*
X0266122Y0239115D02*
X0266122Y0241741D01*
X0268748Y0241741D01*
X0268748Y0239115D01*
X0268748Y0239989D02*
X0266122Y0239989D01*
X0266122Y0240863D02*
X0268748Y0240863D01*
X0268748Y0241737D02*
X0266122Y0241737D01*
X0265622Y0218941D02*
X0268248Y0218941D01*
X0268248Y0216315D01*
X0265622Y0216315D01*
X0265622Y0218941D01*
X0265622Y0217189D02*
X0268248Y0217189D01*
X0268248Y0218063D02*
X0265622Y0218063D01*
X0265622Y0218937D02*
X0268248Y0218937D01*
X0262248Y0218941D02*
X0259622Y0218941D01*
X0262248Y0218941D02*
X0262248Y0216315D01*
X0259622Y0216315D01*
X0259622Y0218941D01*
X0259622Y0217189D02*
X0262248Y0217189D01*
X0262248Y0218063D02*
X0259622Y0218063D01*
X0259622Y0218937D02*
X0262248Y0218937D01*
X0259422Y0211541D02*
X0259422Y0208915D01*
X0259422Y0211541D02*
X0262048Y0211541D01*
X0262048Y0208915D01*
X0259422Y0208915D01*
X0259422Y0209789D02*
X0262048Y0209789D01*
X0262048Y0210663D02*
X0259422Y0210663D01*
X0259422Y0211537D02*
X0262048Y0211537D01*
X0259422Y0205541D02*
X0259422Y0202915D01*
X0259422Y0205541D02*
X0262048Y0205541D01*
X0262048Y0202915D01*
X0259422Y0202915D01*
X0259422Y0203789D02*
X0262048Y0203789D01*
X0262048Y0204663D02*
X0259422Y0204663D01*
X0259422Y0205537D02*
X0262048Y0205537D01*
X0291122Y0193515D02*
X0293748Y0193515D01*
X0291122Y0193515D02*
X0291122Y0196141D01*
X0293748Y0196141D01*
X0293748Y0193515D01*
X0293748Y0194389D02*
X0291122Y0194389D01*
X0291122Y0195263D02*
X0293748Y0195263D01*
X0293748Y0196137D02*
X0291122Y0196137D01*
X0297122Y0193515D02*
X0299748Y0193515D01*
X0297122Y0193515D02*
X0297122Y0196141D01*
X0299748Y0196141D01*
X0299748Y0193515D01*
X0299748Y0194389D02*
X0297122Y0194389D01*
X0297122Y0195263D02*
X0299748Y0195263D01*
X0299748Y0196137D02*
X0297122Y0196137D01*
X0345122Y0193115D02*
X0347748Y0193115D01*
X0345122Y0193115D02*
X0345122Y0195741D01*
X0347748Y0195741D01*
X0347748Y0193115D01*
X0347748Y0193989D02*
X0345122Y0193989D01*
X0345122Y0194863D02*
X0347748Y0194863D01*
X0347748Y0195737D02*
X0345122Y0195737D01*
X0351122Y0193115D02*
X0353748Y0193115D01*
X0351122Y0193115D02*
X0351122Y0195741D01*
X0353748Y0195741D01*
X0353748Y0193115D01*
X0353748Y0193989D02*
X0351122Y0193989D01*
X0351122Y0194863D02*
X0353748Y0194863D01*
X0353748Y0195737D02*
X0351122Y0195737D01*
X0151022Y0266715D02*
X0151022Y0269341D01*
X0153648Y0269341D01*
X0153648Y0266715D01*
X0151022Y0266715D01*
X0151022Y0267589D02*
X0153648Y0267589D01*
X0153648Y0268463D02*
X0151022Y0268463D01*
X0151022Y0269337D02*
X0153648Y0269337D01*
X0151022Y0272715D02*
X0151022Y0275341D01*
X0153648Y0275341D01*
X0153648Y0272715D01*
X0151022Y0272715D01*
X0151022Y0273589D02*
X0153648Y0273589D01*
X0153648Y0274463D02*
X0151022Y0274463D01*
X0151022Y0275337D02*
X0153648Y0275337D01*
X0144448Y0266841D02*
X0141822Y0266841D01*
X0144448Y0266841D02*
X0144448Y0264215D01*
X0141822Y0264215D01*
X0141822Y0266841D01*
X0141822Y0265089D02*
X0144448Y0265089D01*
X0144448Y0265963D02*
X0141822Y0265963D01*
X0141822Y0266837D02*
X0144448Y0266837D01*
X0138448Y0266841D02*
X0135822Y0266841D01*
X0138448Y0266841D02*
X0138448Y0264215D01*
X0135822Y0264215D01*
X0135822Y0266841D01*
X0135822Y0265089D02*
X0138448Y0265089D01*
X0138448Y0265963D02*
X0135822Y0265963D01*
X0135822Y0266837D02*
X0138448Y0266837D01*
X0131348Y0263915D02*
X0128722Y0263915D01*
X0128722Y0266541D01*
X0131348Y0266541D01*
X0131348Y0263915D01*
X0131348Y0264789D02*
X0128722Y0264789D01*
X0128722Y0265663D02*
X0131348Y0265663D01*
X0131348Y0266537D02*
X0128722Y0266537D01*
X0125348Y0263915D02*
X0122722Y0263915D01*
X0122722Y0266541D01*
X0125348Y0266541D01*
X0125348Y0263915D01*
X0125348Y0264789D02*
X0122722Y0264789D01*
X0122722Y0265663D02*
X0125348Y0265663D01*
X0125348Y0266537D02*
X0122722Y0266537D01*
X0065622Y0283315D02*
X0065622Y0285941D01*
X0068248Y0285941D01*
X0068248Y0283315D01*
X0065622Y0283315D01*
X0065622Y0284189D02*
X0068248Y0284189D01*
X0068248Y0285063D02*
X0065622Y0285063D01*
X0065622Y0285937D02*
X0068248Y0285937D01*
X0065622Y0289315D02*
X0065622Y0291941D01*
X0068248Y0291941D01*
X0068248Y0289315D01*
X0065622Y0289315D01*
X0065622Y0290189D02*
X0068248Y0290189D01*
X0068248Y0291063D02*
X0065622Y0291063D01*
X0065622Y0291937D02*
X0068248Y0291937D01*
X0087022Y0322115D02*
X0087022Y0324741D01*
X0089648Y0324741D01*
X0089648Y0322115D01*
X0087022Y0322115D01*
X0087022Y0322989D02*
X0089648Y0322989D01*
X0089648Y0323863D02*
X0087022Y0323863D01*
X0087022Y0324737D02*
X0089648Y0324737D01*
X0087022Y0328115D02*
X0087022Y0330741D01*
X0089648Y0330741D01*
X0089648Y0328115D01*
X0087022Y0328115D01*
X0087022Y0328989D02*
X0089648Y0328989D01*
X0089648Y0329863D02*
X0087022Y0329863D01*
X0087022Y0330737D02*
X0089648Y0330737D01*
D18*
X0190545Y0319966D03*
X0192513Y0319966D03*
X0194482Y0319966D03*
X0196450Y0319966D03*
X0198419Y0319966D03*
X0200387Y0319966D03*
X0202356Y0319966D03*
X0204325Y0319966D03*
D19*
X0207080Y0319966D03*
X0210132Y0319966D03*
X0187789Y0319966D03*
X0184738Y0319966D03*
D20*
X0182395Y0320084D02*
X0182395Y0324809D01*
X0182309Y0325181D01*
X0182142Y0325524D01*
X0181903Y0325821D01*
X0181604Y0326058D01*
X0181260Y0326223D01*
X0180887Y0326306D01*
X0180506Y0326305D01*
X0180085Y0326297D01*
X0179677Y0326196D01*
X0179301Y0326007D01*
X0178977Y0325739D01*
X0178720Y0325406D01*
X0178545Y0325024D01*
X0178458Y0324612D01*
X0178458Y0319887D01*
X0178529Y0319456D01*
X0178694Y0319052D01*
X0182137Y0319052D01*
X0182115Y0319014D02*
X0178720Y0319014D01*
X0178694Y0319052D02*
X0178945Y0318694D01*
X0179269Y0318401D01*
X0179650Y0318187D01*
X0180069Y0318064D01*
X0180506Y0318037D01*
X0180942Y0318104D01*
X0181352Y0318266D01*
X0181716Y0318516D01*
X0182015Y0318840D01*
X0182235Y0319222D01*
X0182364Y0319644D01*
X0182395Y0320084D01*
X0182395Y0320075D02*
X0178458Y0320075D01*
X0178458Y0320113D02*
X0182395Y0320113D01*
X0182395Y0320151D02*
X0178458Y0320151D01*
X0178458Y0320189D02*
X0182395Y0320189D01*
X0182395Y0320226D02*
X0178458Y0320226D01*
X0178458Y0320264D02*
X0182395Y0320264D01*
X0182395Y0320302D02*
X0178458Y0320302D01*
X0178458Y0320340D02*
X0182395Y0320340D01*
X0182395Y0320378D02*
X0178458Y0320378D01*
X0178458Y0320416D02*
X0182395Y0320416D01*
X0182395Y0320454D02*
X0178458Y0320454D01*
X0178458Y0320492D02*
X0182395Y0320492D01*
X0182395Y0320529D02*
X0178458Y0320529D01*
X0178458Y0320567D02*
X0182395Y0320567D01*
X0182395Y0320605D02*
X0178458Y0320605D01*
X0178458Y0320643D02*
X0182395Y0320643D01*
X0182395Y0320681D02*
X0178458Y0320681D01*
X0178458Y0320719D02*
X0182395Y0320719D01*
X0182395Y0320757D02*
X0178458Y0320757D01*
X0178458Y0320795D02*
X0182395Y0320795D01*
X0182395Y0320833D02*
X0178458Y0320833D01*
X0178458Y0320870D02*
X0182395Y0320870D01*
X0182395Y0320908D02*
X0178458Y0320908D01*
X0178458Y0320946D02*
X0182395Y0320946D01*
X0182395Y0320984D02*
X0178458Y0320984D01*
X0178458Y0321022D02*
X0182395Y0321022D01*
X0182395Y0321060D02*
X0178458Y0321060D01*
X0178458Y0321098D02*
X0182395Y0321098D01*
X0182395Y0321136D02*
X0178458Y0321136D01*
X0178458Y0321173D02*
X0182395Y0321173D01*
X0182395Y0321211D02*
X0178458Y0321211D01*
X0178458Y0321249D02*
X0182395Y0321249D01*
X0182395Y0321287D02*
X0178458Y0321287D01*
X0178458Y0321325D02*
X0182395Y0321325D01*
X0182395Y0321363D02*
X0178458Y0321363D01*
X0178458Y0321401D02*
X0182395Y0321401D01*
X0182395Y0321439D02*
X0178458Y0321439D01*
X0178458Y0321477D02*
X0182395Y0321477D01*
X0182395Y0321514D02*
X0178458Y0321514D01*
X0178458Y0321552D02*
X0182395Y0321552D01*
X0182395Y0321590D02*
X0178458Y0321590D01*
X0178458Y0321628D02*
X0182395Y0321628D01*
X0182395Y0321666D02*
X0178458Y0321666D01*
X0178458Y0321704D02*
X0182395Y0321704D01*
X0182395Y0321742D02*
X0178458Y0321742D01*
X0178458Y0321780D02*
X0182395Y0321780D01*
X0182395Y0321817D02*
X0178458Y0321817D01*
X0178458Y0321855D02*
X0182395Y0321855D01*
X0182395Y0321893D02*
X0178458Y0321893D01*
X0178458Y0321931D02*
X0182395Y0321931D01*
X0182395Y0321969D02*
X0178458Y0321969D01*
X0178458Y0322007D02*
X0182395Y0322007D01*
X0182395Y0322045D02*
X0178458Y0322045D01*
X0178458Y0322083D02*
X0182395Y0322083D01*
X0182395Y0322121D02*
X0178458Y0322121D01*
X0178458Y0322158D02*
X0182395Y0322158D01*
X0182395Y0322196D02*
X0178458Y0322196D01*
X0178458Y0322234D02*
X0182395Y0322234D01*
X0182395Y0322272D02*
X0178458Y0322272D01*
X0178458Y0322310D02*
X0182395Y0322310D01*
X0182395Y0322348D02*
X0178458Y0322348D01*
X0178458Y0322386D02*
X0182395Y0322386D01*
X0182395Y0322424D02*
X0178458Y0322424D01*
X0178458Y0322461D02*
X0182395Y0322461D01*
X0182395Y0322499D02*
X0178458Y0322499D01*
X0178458Y0322537D02*
X0182395Y0322537D01*
X0182395Y0322575D02*
X0178458Y0322575D01*
X0178458Y0322613D02*
X0182395Y0322613D01*
X0182395Y0322651D02*
X0178458Y0322651D01*
X0178458Y0322689D02*
X0182395Y0322689D01*
X0182395Y0322727D02*
X0178458Y0322727D01*
X0178458Y0322764D02*
X0182395Y0322764D01*
X0182395Y0322802D02*
X0178458Y0322802D01*
X0178458Y0322840D02*
X0182395Y0322840D01*
X0182395Y0322878D02*
X0178458Y0322878D01*
X0178458Y0322916D02*
X0182395Y0322916D01*
X0182395Y0322954D02*
X0178458Y0322954D01*
X0178458Y0322992D02*
X0182395Y0322992D01*
X0182395Y0323030D02*
X0178458Y0323030D01*
X0178458Y0323068D02*
X0182395Y0323068D01*
X0182395Y0323105D02*
X0178458Y0323105D01*
X0178458Y0323143D02*
X0182395Y0323143D01*
X0182395Y0323181D02*
X0178458Y0323181D01*
X0178458Y0323219D02*
X0182395Y0323219D01*
X0182395Y0323257D02*
X0178458Y0323257D01*
X0178458Y0323295D02*
X0182395Y0323295D01*
X0182395Y0323333D02*
X0178458Y0323333D01*
X0178458Y0323371D02*
X0182395Y0323371D01*
X0182395Y0323408D02*
X0178458Y0323408D01*
X0178458Y0323446D02*
X0182395Y0323446D01*
X0182395Y0323484D02*
X0178458Y0323484D01*
X0178458Y0323522D02*
X0182395Y0323522D01*
X0182395Y0323560D02*
X0178458Y0323560D01*
X0178458Y0323598D02*
X0182395Y0323598D01*
X0182395Y0323636D02*
X0178458Y0323636D01*
X0178458Y0323674D02*
X0182395Y0323674D01*
X0182395Y0323712D02*
X0178458Y0323712D01*
X0178458Y0323749D02*
X0182395Y0323749D01*
X0182395Y0323787D02*
X0178458Y0323787D01*
X0178458Y0323825D02*
X0182395Y0323825D01*
X0182395Y0323863D02*
X0178458Y0323863D01*
X0178458Y0323901D02*
X0182395Y0323901D01*
X0182395Y0323939D02*
X0178458Y0323939D01*
X0178458Y0323977D02*
X0182395Y0323977D01*
X0182395Y0324015D02*
X0178458Y0324015D01*
X0178458Y0324052D02*
X0182395Y0324052D01*
X0182395Y0324090D02*
X0178458Y0324090D01*
X0178458Y0324128D02*
X0182395Y0324128D01*
X0182395Y0324166D02*
X0178458Y0324166D01*
X0178458Y0324204D02*
X0182395Y0324204D01*
X0182395Y0324242D02*
X0178458Y0324242D01*
X0178458Y0324280D02*
X0182395Y0324280D01*
X0182395Y0324318D02*
X0178458Y0324318D01*
X0178458Y0324356D02*
X0182395Y0324356D01*
X0182395Y0324393D02*
X0178458Y0324393D01*
X0178458Y0324431D02*
X0182395Y0324431D01*
X0182395Y0324469D02*
X0178458Y0324469D01*
X0178458Y0324507D02*
X0182395Y0324507D01*
X0182395Y0324545D02*
X0178458Y0324545D01*
X0178458Y0324583D02*
X0182395Y0324583D01*
X0182395Y0324621D02*
X0178460Y0324621D01*
X0178468Y0324659D02*
X0182395Y0324659D01*
X0182395Y0324696D02*
X0178476Y0324696D01*
X0178484Y0324734D02*
X0182395Y0324734D01*
X0182395Y0324772D02*
X0178492Y0324772D01*
X0178500Y0324810D02*
X0182395Y0324810D01*
X0182386Y0324848D02*
X0178508Y0324848D01*
X0178516Y0324886D02*
X0182377Y0324886D01*
X0182369Y0324924D02*
X0178524Y0324924D01*
X0178532Y0324962D02*
X0182360Y0324962D01*
X0182351Y0324999D02*
X0178540Y0324999D01*
X0178551Y0325037D02*
X0182342Y0325037D01*
X0182334Y0325075D02*
X0178568Y0325075D01*
X0178586Y0325113D02*
X0182325Y0325113D01*
X0182316Y0325151D02*
X0178603Y0325151D01*
X0178621Y0325189D02*
X0182305Y0325189D01*
X0182287Y0325227D02*
X0178638Y0325227D01*
X0178656Y0325265D02*
X0182268Y0325265D01*
X0182250Y0325303D02*
X0178673Y0325303D01*
X0178690Y0325340D02*
X0182231Y0325340D01*
X0182213Y0325378D02*
X0178708Y0325378D01*
X0178728Y0325416D02*
X0182195Y0325416D01*
X0182176Y0325454D02*
X0178758Y0325454D01*
X0178787Y0325492D02*
X0182158Y0325492D01*
X0182137Y0325530D02*
X0178816Y0325530D01*
X0178845Y0325568D02*
X0182107Y0325568D01*
X0182077Y0325606D02*
X0178874Y0325606D01*
X0178903Y0325643D02*
X0182046Y0325643D01*
X0182016Y0325681D02*
X0178932Y0325681D01*
X0178961Y0325719D02*
X0181985Y0325719D01*
X0181955Y0325757D02*
X0178998Y0325757D01*
X0179044Y0325795D02*
X0181924Y0325795D01*
X0181889Y0325833D02*
X0179090Y0325833D01*
X0179136Y0325871D02*
X0181841Y0325871D01*
X0181793Y0325909D02*
X0179182Y0325909D01*
X0179228Y0325947D02*
X0181745Y0325947D01*
X0181697Y0325984D02*
X0179273Y0325984D01*
X0179331Y0326022D02*
X0181649Y0326022D01*
X0181600Y0326060D02*
X0179406Y0326060D01*
X0179481Y0326098D02*
X0181521Y0326098D01*
X0181441Y0326136D02*
X0179556Y0326136D01*
X0179632Y0326174D02*
X0181362Y0326174D01*
X0181282Y0326212D02*
X0179738Y0326212D01*
X0179892Y0326250D02*
X0181139Y0326250D01*
X0180971Y0326287D02*
X0180045Y0326287D01*
X0178458Y0320037D02*
X0182392Y0320037D01*
X0182389Y0319999D02*
X0178458Y0319999D01*
X0178458Y0319961D02*
X0182386Y0319961D01*
X0182384Y0319923D02*
X0178458Y0319923D01*
X0178459Y0319886D02*
X0182381Y0319886D01*
X0182378Y0319848D02*
X0178465Y0319848D01*
X0178471Y0319810D02*
X0182376Y0319810D01*
X0182373Y0319772D02*
X0178477Y0319772D01*
X0178484Y0319734D02*
X0182370Y0319734D01*
X0182367Y0319696D02*
X0178490Y0319696D01*
X0178496Y0319658D02*
X0182365Y0319658D01*
X0182356Y0319620D02*
X0178502Y0319620D01*
X0178508Y0319582D02*
X0182345Y0319582D01*
X0182333Y0319545D02*
X0178515Y0319545D01*
X0178521Y0319507D02*
X0182321Y0319507D01*
X0182310Y0319469D02*
X0178527Y0319469D01*
X0178539Y0319431D02*
X0182298Y0319431D01*
X0182287Y0319393D02*
X0178555Y0319393D01*
X0178570Y0319355D02*
X0182275Y0319355D01*
X0182264Y0319317D02*
X0178586Y0319317D01*
X0178601Y0319279D02*
X0182252Y0319279D01*
X0182240Y0319242D02*
X0178617Y0319242D01*
X0178632Y0319204D02*
X0182224Y0319204D01*
X0182202Y0319166D02*
X0178648Y0319166D01*
X0178663Y0319128D02*
X0182180Y0319128D01*
X0182159Y0319090D02*
X0178678Y0319090D01*
X0178747Y0318976D02*
X0182093Y0318976D01*
X0182072Y0318938D02*
X0178773Y0318938D01*
X0178800Y0318901D02*
X0182050Y0318901D01*
X0182028Y0318863D02*
X0178827Y0318863D01*
X0178853Y0318825D02*
X0182001Y0318825D01*
X0181966Y0318787D02*
X0178880Y0318787D01*
X0178906Y0318749D02*
X0181931Y0318749D01*
X0181896Y0318711D02*
X0178933Y0318711D01*
X0178968Y0318673D02*
X0181861Y0318673D01*
X0181826Y0318635D02*
X0179010Y0318635D01*
X0179052Y0318598D02*
X0181791Y0318598D01*
X0181756Y0318560D02*
X0179093Y0318560D01*
X0179135Y0318522D02*
X0181721Y0318522D01*
X0181669Y0318484D02*
X0179177Y0318484D01*
X0179219Y0318446D02*
X0181614Y0318446D01*
X0181559Y0318408D02*
X0179261Y0318408D01*
X0179324Y0318370D02*
X0181504Y0318370D01*
X0181448Y0318332D02*
X0179391Y0318332D01*
X0179459Y0318294D02*
X0181393Y0318294D01*
X0181328Y0318257D02*
X0179527Y0318257D01*
X0179594Y0318219D02*
X0181232Y0318219D01*
X0181136Y0318181D02*
X0179673Y0318181D01*
X0179801Y0318143D02*
X0181040Y0318143D01*
X0180944Y0318105D02*
X0179930Y0318105D01*
X0180059Y0318067D02*
X0180702Y0318067D01*
X0180506Y0335557D02*
X0180058Y0335598D01*
X0179631Y0335739D01*
X0179245Y0335970D01*
X0178921Y0336282D01*
X0178674Y0336658D01*
X0178517Y0337079D01*
X0178458Y0337525D01*
X0178458Y0339887D01*
X0182395Y0339887D01*
X0182395Y0339925D02*
X0178461Y0339925D01*
X0178458Y0339887D02*
X0178493Y0340314D01*
X0178622Y0340722D01*
X0178838Y0341091D01*
X0179131Y0341403D01*
X0179486Y0341641D01*
X0179885Y0341795D01*
X0180309Y0341856D01*
X0180742Y0341843D01*
X0181161Y0341733D01*
X0181546Y0341533D01*
X0181876Y0341253D01*
X0182136Y0340906D01*
X0182312Y0340510D01*
X0182395Y0340084D01*
X0182395Y0337722D01*
X0182375Y0337268D01*
X0182254Y0336829D01*
X0182039Y0336428D01*
X0181740Y0336085D01*
X0181372Y0335817D01*
X0180953Y0335638D01*
X0180506Y0335557D01*
X0180569Y0335568D02*
X0180380Y0335568D01*
X0180034Y0335606D02*
X0180778Y0335606D01*
X0180967Y0335644D02*
X0179918Y0335644D01*
X0179803Y0335682D02*
X0181056Y0335682D01*
X0181144Y0335720D02*
X0179687Y0335720D01*
X0179598Y0335758D02*
X0181233Y0335758D01*
X0181321Y0335796D02*
X0179535Y0335796D01*
X0179472Y0335834D02*
X0181394Y0335834D01*
X0181446Y0335871D02*
X0179409Y0335871D01*
X0179346Y0335909D02*
X0181498Y0335909D01*
X0181550Y0335947D02*
X0179284Y0335947D01*
X0179230Y0335985D02*
X0181602Y0335985D01*
X0181654Y0336023D02*
X0179190Y0336023D01*
X0179151Y0336061D02*
X0181706Y0336061D01*
X0181752Y0336099D02*
X0179112Y0336099D01*
X0179072Y0336137D02*
X0181785Y0336137D01*
X0181818Y0336175D02*
X0179033Y0336175D01*
X0178993Y0336212D02*
X0181851Y0336212D01*
X0181884Y0336250D02*
X0178954Y0336250D01*
X0178917Y0336288D02*
X0181917Y0336288D01*
X0181950Y0336326D02*
X0178892Y0336326D01*
X0178867Y0336364D02*
X0181983Y0336364D01*
X0182016Y0336402D02*
X0178842Y0336402D01*
X0178818Y0336440D02*
X0182045Y0336440D01*
X0182066Y0336478D02*
X0178793Y0336478D01*
X0178768Y0336515D02*
X0182086Y0336515D01*
X0182106Y0336553D02*
X0178743Y0336553D01*
X0178718Y0336591D02*
X0182127Y0336591D01*
X0182147Y0336629D02*
X0178693Y0336629D01*
X0178671Y0336667D02*
X0182167Y0336667D01*
X0182188Y0336705D02*
X0178657Y0336705D01*
X0178643Y0336743D02*
X0182208Y0336743D01*
X0182228Y0336781D02*
X0178629Y0336781D01*
X0178615Y0336818D02*
X0182249Y0336818D01*
X0182262Y0336856D02*
X0178600Y0336856D01*
X0178586Y0336894D02*
X0182272Y0336894D01*
X0182283Y0336932D02*
X0178572Y0336932D01*
X0178558Y0336970D02*
X0182293Y0336970D01*
X0182304Y0337008D02*
X0178544Y0337008D01*
X0178530Y0337046D02*
X0182314Y0337046D01*
X0182325Y0337084D02*
X0178517Y0337084D01*
X0178512Y0337122D02*
X0182335Y0337122D01*
X0182345Y0337159D02*
X0178507Y0337159D01*
X0178502Y0337197D02*
X0182356Y0337197D01*
X0182366Y0337235D02*
X0178497Y0337235D01*
X0178492Y0337273D02*
X0182375Y0337273D01*
X0182377Y0337311D02*
X0178487Y0337311D01*
X0178482Y0337349D02*
X0182379Y0337349D01*
X0182380Y0337387D02*
X0178477Y0337387D01*
X0178472Y0337425D02*
X0182382Y0337425D01*
X0182384Y0337462D02*
X0178467Y0337462D01*
X0178462Y0337500D02*
X0182386Y0337500D01*
X0182387Y0337538D02*
X0178458Y0337538D01*
X0178458Y0337576D02*
X0182389Y0337576D01*
X0182391Y0337614D02*
X0178458Y0337614D01*
X0178458Y0337652D02*
X0182392Y0337652D01*
X0182394Y0337690D02*
X0178458Y0337690D01*
X0178458Y0337728D02*
X0182395Y0337728D01*
X0182395Y0337766D02*
X0178458Y0337766D01*
X0178458Y0337803D02*
X0182395Y0337803D01*
X0182395Y0337841D02*
X0178458Y0337841D01*
X0178458Y0337879D02*
X0182395Y0337879D01*
X0182395Y0337917D02*
X0178458Y0337917D01*
X0178458Y0337955D02*
X0182395Y0337955D01*
X0182395Y0337993D02*
X0178458Y0337993D01*
X0178458Y0338031D02*
X0182395Y0338031D01*
X0182395Y0338069D02*
X0178458Y0338069D01*
X0178458Y0338106D02*
X0182395Y0338106D01*
X0182395Y0338144D02*
X0178458Y0338144D01*
X0178458Y0338182D02*
X0182395Y0338182D01*
X0182395Y0338220D02*
X0178458Y0338220D01*
X0178458Y0338258D02*
X0182395Y0338258D01*
X0182395Y0338296D02*
X0178458Y0338296D01*
X0178458Y0338334D02*
X0182395Y0338334D01*
X0182395Y0338372D02*
X0178458Y0338372D01*
X0178458Y0338410D02*
X0182395Y0338410D01*
X0182395Y0338447D02*
X0178458Y0338447D01*
X0178458Y0338485D02*
X0182395Y0338485D01*
X0182395Y0338523D02*
X0178458Y0338523D01*
X0178458Y0338561D02*
X0182395Y0338561D01*
X0182395Y0338599D02*
X0178458Y0338599D01*
X0178458Y0338637D02*
X0182395Y0338637D01*
X0182395Y0338675D02*
X0178458Y0338675D01*
X0178458Y0338713D02*
X0182395Y0338713D01*
X0182395Y0338750D02*
X0178458Y0338750D01*
X0178458Y0338788D02*
X0182395Y0338788D01*
X0182395Y0338826D02*
X0178458Y0338826D01*
X0178458Y0338864D02*
X0182395Y0338864D01*
X0182395Y0338902D02*
X0178458Y0338902D01*
X0178458Y0338940D02*
X0182395Y0338940D01*
X0182395Y0338978D02*
X0178458Y0338978D01*
X0178458Y0339016D02*
X0182395Y0339016D01*
X0182395Y0339053D02*
X0178458Y0339053D01*
X0178458Y0339091D02*
X0182395Y0339091D01*
X0182395Y0339129D02*
X0178458Y0339129D01*
X0178458Y0339167D02*
X0182395Y0339167D01*
X0182395Y0339205D02*
X0178458Y0339205D01*
X0178458Y0339243D02*
X0182395Y0339243D01*
X0182395Y0339281D02*
X0178458Y0339281D01*
X0178458Y0339319D02*
X0182395Y0339319D01*
X0182395Y0339357D02*
X0178458Y0339357D01*
X0178458Y0339394D02*
X0182395Y0339394D01*
X0182395Y0339432D02*
X0178458Y0339432D01*
X0178458Y0339470D02*
X0182395Y0339470D01*
X0182395Y0339508D02*
X0178458Y0339508D01*
X0178458Y0339546D02*
X0182395Y0339546D01*
X0182395Y0339584D02*
X0178458Y0339584D01*
X0178458Y0339622D02*
X0182395Y0339622D01*
X0182395Y0339660D02*
X0178458Y0339660D01*
X0178458Y0339697D02*
X0182395Y0339697D01*
X0182395Y0339735D02*
X0178458Y0339735D01*
X0178458Y0339773D02*
X0182395Y0339773D01*
X0182395Y0339811D02*
X0178458Y0339811D01*
X0178458Y0339849D02*
X0182395Y0339849D01*
X0182395Y0339963D02*
X0178464Y0339963D01*
X0178468Y0340001D02*
X0182395Y0340001D01*
X0182395Y0340038D02*
X0178471Y0340038D01*
X0178474Y0340076D02*
X0182395Y0340076D01*
X0182390Y0340114D02*
X0178477Y0340114D01*
X0178480Y0340152D02*
X0182382Y0340152D01*
X0182375Y0340190D02*
X0178483Y0340190D01*
X0178486Y0340228D02*
X0182367Y0340228D01*
X0182360Y0340266D02*
X0178489Y0340266D01*
X0178492Y0340304D02*
X0182352Y0340304D01*
X0182345Y0340341D02*
X0178502Y0340341D01*
X0178514Y0340379D02*
X0182338Y0340379D01*
X0182330Y0340417D02*
X0178526Y0340417D01*
X0178538Y0340455D02*
X0182323Y0340455D01*
X0182315Y0340493D02*
X0178550Y0340493D01*
X0178562Y0340531D02*
X0182303Y0340531D01*
X0182286Y0340569D02*
X0178574Y0340569D01*
X0178585Y0340607D02*
X0182269Y0340607D01*
X0182252Y0340645D02*
X0178597Y0340645D01*
X0178609Y0340682D02*
X0182235Y0340682D01*
X0182218Y0340720D02*
X0178621Y0340720D01*
X0178643Y0340758D02*
X0182202Y0340758D01*
X0182185Y0340796D02*
X0178665Y0340796D01*
X0178688Y0340834D02*
X0182168Y0340834D01*
X0182151Y0340872D02*
X0178710Y0340872D01*
X0178732Y0340910D02*
X0182133Y0340910D01*
X0182105Y0340948D02*
X0178754Y0340948D01*
X0178776Y0340985D02*
X0182076Y0340985D01*
X0182048Y0341023D02*
X0178799Y0341023D01*
X0178821Y0341061D02*
X0182020Y0341061D01*
X0181991Y0341099D02*
X0178846Y0341099D01*
X0178881Y0341137D02*
X0181963Y0341137D01*
X0181935Y0341175D02*
X0178917Y0341175D01*
X0178953Y0341213D02*
X0181906Y0341213D01*
X0181878Y0341251D02*
X0178988Y0341251D01*
X0179024Y0341288D02*
X0181834Y0341288D01*
X0181790Y0341326D02*
X0179059Y0341326D01*
X0179095Y0341364D02*
X0181745Y0341364D01*
X0181700Y0341402D02*
X0179131Y0341402D01*
X0179187Y0341440D02*
X0181656Y0341440D01*
X0181611Y0341478D02*
X0179243Y0341478D01*
X0179299Y0341516D02*
X0181567Y0341516D01*
X0181507Y0341554D02*
X0179356Y0341554D01*
X0179412Y0341592D02*
X0181434Y0341592D01*
X0181361Y0341629D02*
X0179469Y0341629D01*
X0179554Y0341667D02*
X0181288Y0341667D01*
X0181215Y0341705D02*
X0179652Y0341705D01*
X0179751Y0341743D02*
X0181124Y0341743D01*
X0180979Y0341781D02*
X0179849Y0341781D01*
X0180051Y0341819D02*
X0180833Y0341819D01*
X0212474Y0339887D02*
X0212474Y0337525D01*
X0212514Y0337095D01*
X0212648Y0336684D01*
X0212870Y0336314D01*
X0213170Y0336002D01*
X0213531Y0335765D01*
X0213936Y0335614D01*
X0214364Y0335557D01*
X0214812Y0335598D01*
X0215239Y0335739D01*
X0215624Y0335970D01*
X0215949Y0336282D01*
X0216195Y0336658D01*
X0216352Y0337079D01*
X0216411Y0337525D01*
X0216411Y0339887D01*
X0212474Y0339887D01*
X0212514Y0340318D01*
X0212648Y0340728D01*
X0212870Y0341099D01*
X0213170Y0341411D01*
X0213531Y0341648D01*
X0213936Y0341799D01*
X0214364Y0341856D01*
X0214812Y0341814D01*
X0215239Y0341674D01*
X0215624Y0341442D01*
X0215949Y0341131D01*
X0216195Y0340755D01*
X0216352Y0340333D01*
X0216411Y0339887D01*
X0216411Y0339849D02*
X0212474Y0339849D01*
X0212474Y0339811D02*
X0216411Y0339811D01*
X0216411Y0339773D02*
X0212474Y0339773D01*
X0212474Y0339735D02*
X0216411Y0339735D01*
X0216411Y0339697D02*
X0212474Y0339697D01*
X0212474Y0339660D02*
X0216411Y0339660D01*
X0216411Y0339622D02*
X0212474Y0339622D01*
X0212474Y0339584D02*
X0216411Y0339584D01*
X0216411Y0339546D02*
X0212474Y0339546D01*
X0212474Y0339508D02*
X0216411Y0339508D01*
X0216411Y0339470D02*
X0212474Y0339470D01*
X0212474Y0339432D02*
X0216411Y0339432D01*
X0216411Y0339394D02*
X0212474Y0339394D01*
X0212474Y0339357D02*
X0216411Y0339357D01*
X0216411Y0339319D02*
X0212474Y0339319D01*
X0212474Y0339281D02*
X0216411Y0339281D01*
X0216411Y0339243D02*
X0212474Y0339243D01*
X0212474Y0339205D02*
X0216411Y0339205D01*
X0216411Y0339167D02*
X0212474Y0339167D01*
X0212474Y0339129D02*
X0216411Y0339129D01*
X0216411Y0339091D02*
X0212474Y0339091D01*
X0212474Y0339053D02*
X0216411Y0339053D01*
X0216411Y0339016D02*
X0212474Y0339016D01*
X0212474Y0338978D02*
X0216411Y0338978D01*
X0216411Y0338940D02*
X0212474Y0338940D01*
X0212474Y0338902D02*
X0216411Y0338902D01*
X0216411Y0338864D02*
X0212474Y0338864D01*
X0212474Y0338826D02*
X0216411Y0338826D01*
X0216411Y0338788D02*
X0212474Y0338788D01*
X0212474Y0338750D02*
X0216411Y0338750D01*
X0216411Y0338713D02*
X0212474Y0338713D01*
X0212474Y0338675D02*
X0216411Y0338675D01*
X0216411Y0338637D02*
X0212474Y0338637D01*
X0212474Y0338599D02*
X0216411Y0338599D01*
X0216411Y0338561D02*
X0212474Y0338561D01*
X0212474Y0338523D02*
X0216411Y0338523D01*
X0216411Y0338485D02*
X0212474Y0338485D01*
X0212474Y0338447D02*
X0216411Y0338447D01*
X0216411Y0338410D02*
X0212474Y0338410D01*
X0212474Y0338372D02*
X0216411Y0338372D01*
X0216411Y0338334D02*
X0212474Y0338334D01*
X0212474Y0338296D02*
X0216411Y0338296D01*
X0216411Y0338258D02*
X0212474Y0338258D01*
X0212474Y0338220D02*
X0216411Y0338220D01*
X0216411Y0338182D02*
X0212474Y0338182D01*
X0212474Y0338144D02*
X0216411Y0338144D01*
X0216411Y0338106D02*
X0212474Y0338106D01*
X0212474Y0338069D02*
X0216411Y0338069D01*
X0216411Y0338031D02*
X0212474Y0338031D01*
X0212474Y0337993D02*
X0216411Y0337993D01*
X0216411Y0337955D02*
X0212474Y0337955D01*
X0212474Y0337917D02*
X0216411Y0337917D01*
X0216411Y0337879D02*
X0212474Y0337879D01*
X0212474Y0337841D02*
X0216411Y0337841D01*
X0216411Y0337803D02*
X0212474Y0337803D01*
X0212474Y0337766D02*
X0216411Y0337766D01*
X0216411Y0337728D02*
X0212474Y0337728D01*
X0212474Y0337690D02*
X0216411Y0337690D01*
X0216411Y0337652D02*
X0212474Y0337652D01*
X0212474Y0337614D02*
X0216411Y0337614D01*
X0216411Y0337576D02*
X0212474Y0337576D01*
X0212474Y0337538D02*
X0216411Y0337538D01*
X0216408Y0337500D02*
X0212476Y0337500D01*
X0212480Y0337462D02*
X0216403Y0337462D01*
X0216398Y0337425D02*
X0212483Y0337425D01*
X0212487Y0337387D02*
X0216393Y0337387D01*
X0216388Y0337349D02*
X0212490Y0337349D01*
X0212494Y0337311D02*
X0216383Y0337311D01*
X0216378Y0337273D02*
X0212497Y0337273D01*
X0212501Y0337235D02*
X0216373Y0337235D01*
X0216368Y0337197D02*
X0212504Y0337197D01*
X0212508Y0337159D02*
X0216363Y0337159D01*
X0216358Y0337122D02*
X0212511Y0337122D01*
X0212517Y0337084D02*
X0216353Y0337084D01*
X0216339Y0337046D02*
X0212530Y0337046D01*
X0212542Y0337008D02*
X0216325Y0337008D01*
X0216311Y0336970D02*
X0212555Y0336970D01*
X0212567Y0336932D02*
X0216297Y0336932D01*
X0216283Y0336894D02*
X0212579Y0336894D01*
X0212592Y0336856D02*
X0216269Y0336856D01*
X0216255Y0336818D02*
X0212604Y0336818D01*
X0212617Y0336781D02*
X0216241Y0336781D01*
X0216227Y0336743D02*
X0212629Y0336743D01*
X0212641Y0336705D02*
X0216213Y0336705D01*
X0216199Y0336667D02*
X0212659Y0336667D01*
X0212681Y0336629D02*
X0216176Y0336629D01*
X0216151Y0336591D02*
X0212704Y0336591D01*
X0212727Y0336553D02*
X0216127Y0336553D01*
X0216102Y0336515D02*
X0212749Y0336515D01*
X0212772Y0336478D02*
X0216077Y0336478D01*
X0216052Y0336440D02*
X0212795Y0336440D01*
X0212818Y0336402D02*
X0216027Y0336402D01*
X0216002Y0336364D02*
X0212840Y0336364D01*
X0212863Y0336326D02*
X0215977Y0336326D01*
X0215953Y0336288D02*
X0212895Y0336288D01*
X0212932Y0336250D02*
X0215916Y0336250D01*
X0215876Y0336212D02*
X0212968Y0336212D01*
X0213004Y0336175D02*
X0215837Y0336175D01*
X0215797Y0336137D02*
X0213041Y0336137D01*
X0213077Y0336099D02*
X0215758Y0336099D01*
X0215719Y0336061D02*
X0213113Y0336061D01*
X0213150Y0336023D02*
X0215679Y0336023D01*
X0215640Y0335985D02*
X0213196Y0335985D01*
X0213253Y0335947D02*
X0215586Y0335947D01*
X0215523Y0335909D02*
X0213311Y0335909D01*
X0213369Y0335871D02*
X0215460Y0335871D01*
X0215397Y0335834D02*
X0213426Y0335834D01*
X0213484Y0335796D02*
X0215334Y0335796D01*
X0215271Y0335758D02*
X0213550Y0335758D01*
X0213651Y0335720D02*
X0215182Y0335720D01*
X0215067Y0335682D02*
X0213753Y0335682D01*
X0213854Y0335644D02*
X0214951Y0335644D01*
X0214836Y0335606D02*
X0213993Y0335606D01*
X0214277Y0335568D02*
X0214489Y0335568D01*
X0216406Y0339925D02*
X0212478Y0339925D01*
X0212481Y0339963D02*
X0216401Y0339963D01*
X0216396Y0340001D02*
X0212485Y0340001D01*
X0212488Y0340038D02*
X0216391Y0340038D01*
X0216386Y0340076D02*
X0212491Y0340076D01*
X0212495Y0340114D02*
X0216381Y0340114D01*
X0216376Y0340152D02*
X0212498Y0340152D01*
X0212502Y0340190D02*
X0216371Y0340190D01*
X0216366Y0340228D02*
X0212505Y0340228D01*
X0212509Y0340266D02*
X0216361Y0340266D01*
X0216356Y0340304D02*
X0212512Y0340304D01*
X0212521Y0340341D02*
X0216349Y0340341D01*
X0216335Y0340379D02*
X0212534Y0340379D01*
X0212546Y0340417D02*
X0216321Y0340417D01*
X0216307Y0340455D02*
X0212559Y0340455D01*
X0212571Y0340493D02*
X0216293Y0340493D01*
X0216279Y0340531D02*
X0212583Y0340531D01*
X0212596Y0340569D02*
X0216264Y0340569D01*
X0216250Y0340607D02*
X0212608Y0340607D01*
X0212621Y0340645D02*
X0216236Y0340645D01*
X0216222Y0340682D02*
X0212633Y0340682D01*
X0212645Y0340720D02*
X0216208Y0340720D01*
X0216193Y0340758D02*
X0212666Y0340758D01*
X0212689Y0340796D02*
X0216168Y0340796D01*
X0216143Y0340834D02*
X0212711Y0340834D01*
X0212734Y0340872D02*
X0216118Y0340872D01*
X0216094Y0340910D02*
X0212757Y0340910D01*
X0212780Y0340948D02*
X0216069Y0340948D01*
X0216044Y0340985D02*
X0212802Y0340985D01*
X0212825Y0341023D02*
X0216019Y0341023D01*
X0215994Y0341061D02*
X0212848Y0341061D01*
X0212871Y0341099D02*
X0215969Y0341099D01*
X0215942Y0341137D02*
X0212907Y0341137D01*
X0212943Y0341175D02*
X0215903Y0341175D01*
X0215863Y0341213D02*
X0212980Y0341213D01*
X0213016Y0341251D02*
X0215824Y0341251D01*
X0215784Y0341288D02*
X0213052Y0341288D01*
X0213089Y0341326D02*
X0215745Y0341326D01*
X0215706Y0341364D02*
X0213125Y0341364D01*
X0213162Y0341402D02*
X0215666Y0341402D01*
X0215627Y0341440D02*
X0213214Y0341440D01*
X0213272Y0341478D02*
X0215565Y0341478D01*
X0215502Y0341516D02*
X0213330Y0341516D01*
X0213387Y0341554D02*
X0215439Y0341554D01*
X0215376Y0341592D02*
X0213445Y0341592D01*
X0213503Y0341629D02*
X0215313Y0341629D01*
X0215250Y0341667D02*
X0213583Y0341667D01*
X0213684Y0341705D02*
X0215145Y0341705D01*
X0215029Y0341743D02*
X0213786Y0341743D01*
X0213888Y0341781D02*
X0214914Y0341781D01*
X0214764Y0341819D02*
X0214085Y0341819D01*
X0214135Y0326301D02*
X0213721Y0326203D01*
X0213340Y0326015D01*
X0213009Y0325747D01*
X0212747Y0325412D01*
X0212565Y0325027D01*
X0212474Y0324612D01*
X0212474Y0319887D01*
X0212550Y0319452D01*
X0212720Y0319045D01*
X0212977Y0318686D01*
X0213308Y0318393D01*
X0213695Y0318181D01*
X0215251Y0318181D01*
X0215359Y0318219D02*
X0213626Y0318219D01*
X0213695Y0318181D02*
X0214120Y0318060D01*
X0214561Y0318037D01*
X0214972Y0318083D01*
X0215364Y0318220D01*
X0215714Y0318441D01*
X0216007Y0318734D01*
X0216228Y0319085D01*
X0216365Y0319476D01*
X0216411Y0319887D01*
X0216411Y0324612D01*
X0216349Y0325004D01*
X0216202Y0325373D01*
X0215976Y0325699D01*
X0215683Y0325967D01*
X0215337Y0326164D01*
X0214957Y0326278D01*
X0214561Y0326305D01*
X0214135Y0326301D01*
X0214077Y0326287D02*
X0214816Y0326287D01*
X0215051Y0326250D02*
X0213917Y0326250D01*
X0213758Y0326212D02*
X0215177Y0326212D01*
X0215303Y0326174D02*
X0213662Y0326174D01*
X0213585Y0326136D02*
X0215386Y0326136D01*
X0215452Y0326098D02*
X0213508Y0326098D01*
X0213431Y0326060D02*
X0215519Y0326060D01*
X0215586Y0326022D02*
X0213354Y0326022D01*
X0213302Y0325984D02*
X0215653Y0325984D01*
X0215705Y0325947D02*
X0213255Y0325947D01*
X0213208Y0325909D02*
X0215747Y0325909D01*
X0215788Y0325871D02*
X0213161Y0325871D01*
X0213115Y0325833D02*
X0215830Y0325833D01*
X0215871Y0325795D02*
X0213068Y0325795D01*
X0213021Y0325757D02*
X0215912Y0325757D01*
X0215954Y0325719D02*
X0212987Y0325719D01*
X0212958Y0325681D02*
X0215988Y0325681D01*
X0216014Y0325643D02*
X0212928Y0325643D01*
X0212898Y0325606D02*
X0216040Y0325606D01*
X0216067Y0325568D02*
X0212868Y0325568D01*
X0212839Y0325530D02*
X0216093Y0325530D01*
X0216119Y0325492D02*
X0212809Y0325492D01*
X0212779Y0325454D02*
X0216145Y0325454D01*
X0216171Y0325416D02*
X0212750Y0325416D01*
X0212731Y0325378D02*
X0216198Y0325378D01*
X0216214Y0325340D02*
X0212713Y0325340D01*
X0212695Y0325303D02*
X0216230Y0325303D01*
X0216245Y0325265D02*
X0212677Y0325265D01*
X0212659Y0325227D02*
X0216260Y0325227D01*
X0216275Y0325189D02*
X0212641Y0325189D01*
X0212624Y0325151D02*
X0216290Y0325151D01*
X0216306Y0325113D02*
X0212606Y0325113D01*
X0212588Y0325075D02*
X0216321Y0325075D01*
X0216336Y0325037D02*
X0212570Y0325037D01*
X0212559Y0324999D02*
X0216350Y0324999D01*
X0216356Y0324962D02*
X0212551Y0324962D01*
X0212543Y0324924D02*
X0216362Y0324924D01*
X0216368Y0324886D02*
X0212534Y0324886D01*
X0212526Y0324848D02*
X0216374Y0324848D01*
X0216380Y0324810D02*
X0212518Y0324810D01*
X0212509Y0324772D02*
X0216386Y0324772D01*
X0216392Y0324734D02*
X0212501Y0324734D01*
X0212493Y0324696D02*
X0216398Y0324696D01*
X0216404Y0324659D02*
X0212484Y0324659D01*
X0212476Y0324621D02*
X0216410Y0324621D01*
X0216411Y0324583D02*
X0212474Y0324583D01*
X0212474Y0324545D02*
X0216411Y0324545D01*
X0216411Y0324507D02*
X0212474Y0324507D01*
X0212474Y0324469D02*
X0216411Y0324469D01*
X0216411Y0324431D02*
X0212474Y0324431D01*
X0212474Y0324393D02*
X0216411Y0324393D01*
X0216411Y0324356D02*
X0212474Y0324356D01*
X0212474Y0324318D02*
X0216411Y0324318D01*
X0216411Y0324280D02*
X0212474Y0324280D01*
X0212474Y0324242D02*
X0216411Y0324242D01*
X0216411Y0324204D02*
X0212474Y0324204D01*
X0212474Y0324166D02*
X0216411Y0324166D01*
X0216411Y0324128D02*
X0212474Y0324128D01*
X0212474Y0324090D02*
X0216411Y0324090D01*
X0216411Y0324052D02*
X0212474Y0324052D01*
X0212474Y0324015D02*
X0216411Y0324015D01*
X0216411Y0323977D02*
X0212474Y0323977D01*
X0212474Y0323939D02*
X0216411Y0323939D01*
X0216411Y0323901D02*
X0212474Y0323901D01*
X0212474Y0323863D02*
X0216411Y0323863D01*
X0216411Y0323825D02*
X0212474Y0323825D01*
X0212474Y0323787D02*
X0216411Y0323787D01*
X0216411Y0323749D02*
X0212474Y0323749D01*
X0212474Y0323712D02*
X0216411Y0323712D01*
X0216411Y0323674D02*
X0212474Y0323674D01*
X0212474Y0323636D02*
X0216411Y0323636D01*
X0216411Y0323598D02*
X0212474Y0323598D01*
X0212474Y0323560D02*
X0216411Y0323560D01*
X0216411Y0323522D02*
X0212474Y0323522D01*
X0212474Y0323484D02*
X0216411Y0323484D01*
X0216411Y0323446D02*
X0212474Y0323446D01*
X0212474Y0323408D02*
X0216411Y0323408D01*
X0216411Y0323371D02*
X0212474Y0323371D01*
X0212474Y0323333D02*
X0216411Y0323333D01*
X0216411Y0323295D02*
X0212474Y0323295D01*
X0212474Y0323257D02*
X0216411Y0323257D01*
X0216411Y0323219D02*
X0212474Y0323219D01*
X0212474Y0323181D02*
X0216411Y0323181D01*
X0216411Y0323143D02*
X0212474Y0323143D01*
X0212474Y0323105D02*
X0216411Y0323105D01*
X0216411Y0323068D02*
X0212474Y0323068D01*
X0212474Y0323030D02*
X0216411Y0323030D01*
X0216411Y0322992D02*
X0212474Y0322992D01*
X0212474Y0322954D02*
X0216411Y0322954D01*
X0216411Y0322916D02*
X0212474Y0322916D01*
X0212474Y0322878D02*
X0216411Y0322878D01*
X0216411Y0322840D02*
X0212474Y0322840D01*
X0212474Y0322802D02*
X0216411Y0322802D01*
X0216411Y0322764D02*
X0212474Y0322764D01*
X0212474Y0322727D02*
X0216411Y0322727D01*
X0216411Y0322689D02*
X0212474Y0322689D01*
X0212474Y0322651D02*
X0216411Y0322651D01*
X0216411Y0322613D02*
X0212474Y0322613D01*
X0212474Y0322575D02*
X0216411Y0322575D01*
X0216411Y0322537D02*
X0212474Y0322537D01*
X0212474Y0322499D02*
X0216411Y0322499D01*
X0216411Y0322461D02*
X0212474Y0322461D01*
X0212474Y0322424D02*
X0216411Y0322424D01*
X0216411Y0322386D02*
X0212474Y0322386D01*
X0212474Y0322348D02*
X0216411Y0322348D01*
X0216411Y0322310D02*
X0212474Y0322310D01*
X0212474Y0322272D02*
X0216411Y0322272D01*
X0216411Y0322234D02*
X0212474Y0322234D01*
X0212474Y0322196D02*
X0216411Y0322196D01*
X0216411Y0322158D02*
X0212474Y0322158D01*
X0212474Y0322121D02*
X0216411Y0322121D01*
X0216411Y0322083D02*
X0212474Y0322083D01*
X0212474Y0322045D02*
X0216411Y0322045D01*
X0216411Y0322007D02*
X0212474Y0322007D01*
X0212474Y0321969D02*
X0216411Y0321969D01*
X0216411Y0321931D02*
X0212474Y0321931D01*
X0212474Y0321893D02*
X0216411Y0321893D01*
X0216411Y0321855D02*
X0212474Y0321855D01*
X0212474Y0321817D02*
X0216411Y0321817D01*
X0216411Y0321780D02*
X0212474Y0321780D01*
X0212474Y0321742D02*
X0216411Y0321742D01*
X0216411Y0321704D02*
X0212474Y0321704D01*
X0212474Y0321666D02*
X0216411Y0321666D01*
X0216411Y0321628D02*
X0212474Y0321628D01*
X0212474Y0321590D02*
X0216411Y0321590D01*
X0216411Y0321552D02*
X0212474Y0321552D01*
X0212474Y0321514D02*
X0216411Y0321514D01*
X0216411Y0321477D02*
X0212474Y0321477D01*
X0212474Y0321439D02*
X0216411Y0321439D01*
X0216411Y0321401D02*
X0212474Y0321401D01*
X0212474Y0321363D02*
X0216411Y0321363D01*
X0216411Y0321325D02*
X0212474Y0321325D01*
X0212474Y0321287D02*
X0216411Y0321287D01*
X0216411Y0321249D02*
X0212474Y0321249D01*
X0212474Y0321211D02*
X0216411Y0321211D01*
X0216411Y0321173D02*
X0212474Y0321173D01*
X0212474Y0321136D02*
X0216411Y0321136D01*
X0216411Y0321098D02*
X0212474Y0321098D01*
X0212474Y0321060D02*
X0216411Y0321060D01*
X0216411Y0321022D02*
X0212474Y0321022D01*
X0212474Y0320984D02*
X0216411Y0320984D01*
X0216411Y0320946D02*
X0212474Y0320946D01*
X0212474Y0320908D02*
X0216411Y0320908D01*
X0216411Y0320870D02*
X0212474Y0320870D01*
X0212474Y0320833D02*
X0216411Y0320833D01*
X0216411Y0320795D02*
X0212474Y0320795D01*
X0212474Y0320757D02*
X0216411Y0320757D01*
X0216411Y0320719D02*
X0212474Y0320719D01*
X0212474Y0320681D02*
X0216411Y0320681D01*
X0216411Y0320643D02*
X0212474Y0320643D01*
X0212474Y0320605D02*
X0216411Y0320605D01*
X0216411Y0320567D02*
X0212474Y0320567D01*
X0212474Y0320529D02*
X0216411Y0320529D01*
X0216411Y0320492D02*
X0212474Y0320492D01*
X0212474Y0320454D02*
X0216411Y0320454D01*
X0216411Y0320416D02*
X0212474Y0320416D01*
X0212474Y0320378D02*
X0216411Y0320378D01*
X0216411Y0320340D02*
X0212474Y0320340D01*
X0212474Y0320302D02*
X0216411Y0320302D01*
X0216411Y0320264D02*
X0212474Y0320264D01*
X0212474Y0320226D02*
X0216411Y0320226D01*
X0216411Y0320189D02*
X0212474Y0320189D01*
X0212474Y0320151D02*
X0216411Y0320151D01*
X0216411Y0320113D02*
X0212474Y0320113D01*
X0212474Y0320075D02*
X0216411Y0320075D01*
X0216411Y0320037D02*
X0212474Y0320037D01*
X0212474Y0319999D02*
X0216411Y0319999D01*
X0216411Y0319961D02*
X0212474Y0319961D01*
X0212474Y0319923D02*
X0216411Y0319923D01*
X0216411Y0319886D02*
X0212474Y0319886D01*
X0212481Y0319848D02*
X0216407Y0319848D01*
X0216402Y0319810D02*
X0212488Y0319810D01*
X0212494Y0319772D02*
X0216398Y0319772D01*
X0216394Y0319734D02*
X0212501Y0319734D01*
X0212507Y0319696D02*
X0216390Y0319696D01*
X0216385Y0319658D02*
X0212514Y0319658D01*
X0212521Y0319620D02*
X0216381Y0319620D01*
X0216377Y0319582D02*
X0212527Y0319582D01*
X0212534Y0319545D02*
X0216372Y0319545D01*
X0216368Y0319507D02*
X0212540Y0319507D01*
X0212547Y0319469D02*
X0216362Y0319469D01*
X0216349Y0319431D02*
X0212559Y0319431D01*
X0212575Y0319393D02*
X0216336Y0319393D01*
X0216323Y0319355D02*
X0212590Y0319355D01*
X0212606Y0319317D02*
X0216309Y0319317D01*
X0216296Y0319279D02*
X0212622Y0319279D01*
X0212638Y0319242D02*
X0216283Y0319242D01*
X0216270Y0319204D02*
X0212654Y0319204D01*
X0212670Y0319166D02*
X0216256Y0319166D01*
X0216243Y0319128D02*
X0212686Y0319128D01*
X0212702Y0319090D02*
X0216230Y0319090D01*
X0216207Y0319052D02*
X0212717Y0319052D01*
X0212742Y0319014D02*
X0216184Y0319014D01*
X0216160Y0318976D02*
X0212769Y0318976D01*
X0212797Y0318938D02*
X0216136Y0318938D01*
X0216112Y0318901D02*
X0212824Y0318901D01*
X0212851Y0318863D02*
X0216088Y0318863D01*
X0216065Y0318825D02*
X0212878Y0318825D01*
X0212905Y0318787D02*
X0216041Y0318787D01*
X0216017Y0318749D02*
X0212932Y0318749D01*
X0212959Y0318711D02*
X0215985Y0318711D01*
X0215947Y0318673D02*
X0212991Y0318673D01*
X0213034Y0318635D02*
X0215909Y0318635D01*
X0215871Y0318598D02*
X0213077Y0318598D01*
X0213120Y0318560D02*
X0215833Y0318560D01*
X0215795Y0318522D02*
X0213162Y0318522D01*
X0213205Y0318484D02*
X0215758Y0318484D01*
X0215720Y0318446D02*
X0213248Y0318446D01*
X0213290Y0318408D02*
X0215662Y0318408D01*
X0215602Y0318370D02*
X0213349Y0318370D01*
X0213418Y0318332D02*
X0215542Y0318332D01*
X0215482Y0318294D02*
X0213487Y0318294D01*
X0213557Y0318257D02*
X0215421Y0318257D01*
X0215142Y0318143D02*
X0213828Y0318143D01*
X0213962Y0318105D02*
X0215034Y0318105D01*
X0214828Y0318067D02*
X0214095Y0318067D01*
D21*
X0128335Y0248528D03*
X0123335Y0248528D03*
X0118335Y0248528D03*
X0113335Y0248528D03*
X0113335Y0229128D03*
X0118335Y0229128D03*
X0123335Y0229128D03*
X0128335Y0229128D03*
X0088435Y0237328D03*
X0083435Y0237328D03*
X0078435Y0237328D03*
X0073435Y0237328D03*
X0073435Y0256728D03*
X0078435Y0256728D03*
X0083435Y0256728D03*
X0088435Y0256728D03*
X0088535Y0215328D03*
X0083535Y0215328D03*
X0078535Y0215328D03*
X0073535Y0215328D03*
X0073535Y0195928D03*
X0078535Y0195928D03*
X0083535Y0195928D03*
X0088535Y0195928D03*
D22*
X0221098Y0063828D03*
X0228972Y0063828D03*
X0306398Y0063228D03*
X0314272Y0063228D03*
X0304272Y0298528D03*
X0296398Y0298528D03*
D23*
X0298757Y0332397D02*
X0301513Y0332397D01*
X0298757Y0332397D02*
X0298757Y0335153D01*
X0301513Y0335153D01*
X0301513Y0332397D01*
X0301513Y0333577D02*
X0298757Y0333577D01*
X0298757Y0334757D02*
X0301513Y0334757D01*
X0301513Y0339302D02*
X0298757Y0339302D01*
X0298757Y0342058D01*
X0301513Y0342058D01*
X0301513Y0339302D01*
X0301513Y0340482D02*
X0298757Y0340482D01*
X0298757Y0341662D02*
X0301513Y0341662D01*
X0248513Y0339202D02*
X0245757Y0339202D01*
X0245757Y0341958D01*
X0248513Y0341958D01*
X0248513Y0339202D01*
X0248513Y0340382D02*
X0245757Y0340382D01*
X0245757Y0341562D02*
X0248513Y0341562D01*
X0248513Y0332297D02*
X0245757Y0332297D01*
X0245757Y0335053D01*
X0248513Y0335053D01*
X0248513Y0332297D01*
X0248513Y0333477D02*
X0245757Y0333477D01*
X0245757Y0334657D02*
X0248513Y0334657D01*
X0157213Y0332697D02*
X0154457Y0332697D01*
X0154457Y0335453D01*
X0157213Y0335453D01*
X0157213Y0332697D01*
X0157213Y0333877D02*
X0154457Y0333877D01*
X0154457Y0335057D02*
X0157213Y0335057D01*
X0157213Y0339602D02*
X0154457Y0339602D01*
X0154457Y0342358D01*
X0157213Y0342358D01*
X0157213Y0339602D01*
X0157213Y0340782D02*
X0154457Y0340782D01*
X0154457Y0341962D02*
X0157213Y0341962D01*
X0055565Y0266406D02*
X0055565Y0263650D01*
X0052809Y0263650D01*
X0052809Y0266406D01*
X0055565Y0266406D01*
X0055565Y0264830D02*
X0052809Y0264830D01*
X0052809Y0266010D02*
X0055565Y0266010D01*
X0048660Y0266406D02*
X0048660Y0263650D01*
X0045904Y0263650D01*
X0045904Y0266406D01*
X0048660Y0266406D01*
X0048660Y0264830D02*
X0045904Y0264830D01*
X0045904Y0266010D02*
X0048660Y0266010D01*
X0048160Y0231006D02*
X0048160Y0228250D01*
X0045404Y0228250D01*
X0045404Y0231006D01*
X0048160Y0231006D01*
X0048160Y0229430D02*
X0045404Y0229430D01*
X0045404Y0230610D02*
X0048160Y0230610D01*
X0055065Y0231006D02*
X0055065Y0228250D01*
X0052309Y0228250D01*
X0052309Y0231006D01*
X0055065Y0231006D01*
X0055065Y0229430D02*
X0052309Y0229430D01*
X0052309Y0230610D02*
X0055065Y0230610D01*
D24*
X0086510Y0309578D03*
D25*
X0091235Y0308028D03*
X0095959Y0308028D03*
X0095959Y0318028D03*
X0091235Y0318028D03*
X0086510Y0318028D03*
D26*
X0094002Y0331628D03*
X0094002Y0334628D03*
X0094002Y0337628D03*
X0137502Y0337628D03*
X0137494Y0334628D03*
X0137494Y0331628D03*
D27*
X0102750Y0309975D03*
D28*
X0107435Y0308695D03*
X0112120Y0308695D03*
X0112120Y0317160D03*
X0107435Y0317160D03*
X0102750Y0317160D03*
D29*
X0078485Y0278365D03*
X0078485Y0276396D03*
X0078485Y0274428D03*
X0078485Y0272459D03*
X0078485Y0270491D03*
X0062385Y0270491D03*
X0062385Y0272459D03*
X0062385Y0274428D03*
X0062385Y0276396D03*
X0062385Y0278365D03*
D30*
X0088090Y0278255D03*
X0094980Y0278255D03*
X0094980Y0269200D03*
X0088090Y0269200D03*
M02*
