G04 #@! TF.GenerationSoftware,KiCad,Pcbnew,(5.0.1)-4*
G04 #@! TF.CreationDate,2019-03-02T10:25:11-05:00*
G04 #@! TF.ProjectId,cubesatsim_solar,6375626573617473696D5F736F6C6172,B2.0*
G04 #@! TF.SameCoordinates,Original*
G04 #@! TF.FileFunction,Copper,L2,Bot,Signal*
G04 #@! TF.FilePolarity,Positive*
%FSLAX46Y46*%
G04 Gerber Fmt 4.6, Leading zero omitted, Abs format (unit mm)*
G04 Created by KiCad (PCBNEW (5.0.1)-4) date 3/2/2019 10:25:11 AM*
%MOMM*%
%LPD*%
G01*
G04 APERTURE LIST*
G04 #@! TA.AperFunction,ComponentPad*
%ADD10R,2.200000X2.200000*%
G04 #@! TD*
G04 #@! TA.AperFunction,ComponentPad*
%ADD11O,2.200000X2.200000*%
G04 #@! TD*
G04 #@! TA.AperFunction,ComponentPad*
%ADD12C,1.600000*%
G04 #@! TD*
G04 #@! TA.AperFunction,ComponentPad*
%ADD13O,1.600000X1.600000*%
G04 #@! TD*
G04 #@! TA.AperFunction,ComponentPad*
%ADD14R,1.700000X1.700000*%
G04 #@! TD*
G04 #@! TA.AperFunction,ComponentPad*
%ADD15O,1.700000X1.700000*%
G04 #@! TD*
G04 #@! TA.AperFunction,ComponentPad*
%ADD16O,2.500000X5.000000*%
G04 #@! TD*
G04 #@! TA.AperFunction,ComponentPad*
%ADD17O,2.250000X4.500000*%
G04 #@! TD*
G04 #@! TA.AperFunction,ComponentPad*
%ADD18O,1.258000X2.516000*%
G04 #@! TD*
G04 #@! TA.AperFunction,ComponentPad*
%ADD19O,2.516000X1.258000*%
G04 #@! TD*
G04 #@! TA.AperFunction,ViaPad*
%ADD20C,0.889000*%
G04 #@! TD*
G04 #@! TA.AperFunction,Conductor*
%ADD21C,0.400000*%
G04 #@! TD*
G04 #@! TA.AperFunction,Conductor*
%ADD22C,0.200000*%
G04 #@! TD*
G04 #@! TA.AperFunction,Conductor*
%ADD23C,0.300000*%
G04 #@! TD*
G04 APERTURE END LIST*
D10*
G04 #@! TO.P,D7,1*
G04 #@! TO.N,Net-(D7-Pad1)*
X171476000Y-126084000D03*
D11*
G04 #@! TO.P,D7,2*
G04 #@! TO.N,Net-(D7-Pad2)*
X171476000Y-122274000D03*
G04 #@! TD*
D12*
G04 #@! TO.P,R3,1*
G04 #@! TO.N,+3V3*
X171476000Y-118464000D03*
D13*
G04 #@! TO.P,R3,2*
G04 #@! TO.N,Net-(D7-Pad2)*
X171476000Y-113384000D03*
G04 #@! TD*
D14*
G04 #@! TO.P,J13,1*
G04 #@! TO.N,-Z_In*
X121692000Y-113130000D03*
D15*
G04 #@! TO.P,J13,2*
G04 #@! TO.N,-Z_Out*
X119152000Y-113130000D03*
G04 #@! TO.P,J13,3*
G04 #@! TO.N,SDA_3*
X116612000Y-113130000D03*
G04 #@! TO.P,J13,4*
G04 #@! TO.N,SCL_3*
X114072000Y-113130000D03*
G04 #@! TO.P,J13,5*
G04 #@! TO.N,GND*
X111532000Y-113130000D03*
G04 #@! TO.P,J13,6*
G04 #@! TO.N,+3V3*
X108992000Y-113130000D03*
G04 #@! TD*
D14*
G04 #@! TO.P,J17,1*
G04 #@! TO.N,Net-(J17-Pad1)*
X120930000Y-83920000D03*
G04 #@! TD*
G04 #@! TO.P,J2,1*
G04 #@! TO.N,+X_In*
X175286000Y-127608000D03*
D15*
G04 #@! TO.P,J2,2*
G04 #@! TO.N,GND*
X175286000Y-125068000D03*
G04 #@! TO.P,J2,3*
G04 #@! TO.N,+Y_In*
X175286000Y-122528000D03*
G04 #@! TO.P,J2,4*
G04 #@! TO.N,GND*
X175286000Y-119988000D03*
G04 #@! TO.P,J2,5*
G04 #@! TO.N,+Z_In*
X175286000Y-117448000D03*
G04 #@! TO.P,J2,6*
G04 #@! TO.N,GND*
X175286000Y-114908000D03*
G04 #@! TO.P,J2,7*
G04 #@! TO.N,VbattIn*
X175286000Y-112368000D03*
G04 #@! TO.P,J2,8*
G04 #@! TO.N,VbattOut*
X175286000Y-109828000D03*
G04 #@! TO.P,J2,9*
G04 #@! TO.N,-X_In*
X175286000Y-107288000D03*
G04 #@! TO.P,J2,10*
G04 #@! TO.N,GND*
X175286000Y-104748000D03*
G04 #@! TO.P,J2,11*
G04 #@! TO.N,-Y_In*
X175286000Y-102208000D03*
G04 #@! TO.P,J2,12*
G04 #@! TO.N,GND*
X175286000Y-99668000D03*
G04 #@! TO.P,J2,13*
G04 #@! TO.N,-Z_In*
X175286000Y-97128000D03*
G04 #@! TO.P,J2,14*
G04 #@! TO.N,GND*
X175286000Y-94588000D03*
G04 #@! TD*
D16*
G04 #@! TO.P,J1,1*
G04 #@! TO.N,Net-(J1-Pad1)*
X169190000Y-133958000D03*
D17*
G04 #@! TO.P,J1,2*
G04 #@! TO.N,GND*
X175190000Y-133958000D03*
G04 #@! TD*
D18*
G04 #@! TO.P,J3,1*
G04 #@! TO.N,Net-(J1-Pad1)*
X180794000Y-83416000D03*
D19*
G04 #@! TO.P,J3,2*
G04 #@! TO.N,Net-(J17-Pad1)*
X172994000Y-88616000D03*
G04 #@! TO.P,J3,3*
G04 #@! TO.N,Net-(D1-Pad1)*
X174394000Y-85916000D03*
D18*
G04 #@! TO.P,J3,4*
G04 #@! TO.N,Net-(J15-Pad1)*
X169794000Y-79416000D03*
D19*
G04 #@! TO.P,J3,5*
G04 #@! TO.N,Net-(J3-Pad5)*
X177394000Y-78916000D03*
G04 #@! TD*
D10*
G04 #@! TO.P,D6,1*
G04 #@! TO.N,Net-(D1-Pad1)*
X167158000Y-106780000D03*
D11*
G04 #@! TO.P,D6,2*
G04 #@! TO.N,-Z_Out*
X170968000Y-106780000D03*
G04 #@! TD*
D14*
G04 #@! TO.P,P3,1*
G04 #@! TO.N,+3V3*
X113310000Y-76046000D03*
D15*
G04 #@! TO.P,P3,2*
G04 #@! TO.N,+5V*
X113310000Y-73506000D03*
G04 #@! TO.P,P3,3*
G04 #@! TO.N,SDA_1*
X115850000Y-76046000D03*
G04 #@! TO.P,P3,4*
G04 #@! TO.N,+5V*
X115850000Y-73506000D03*
G04 #@! TO.P,P3,5*
G04 #@! TO.N,SCL_1*
X118390000Y-76046000D03*
G04 #@! TO.P,P3,6*
G04 #@! TO.N,GND*
X118390000Y-73506000D03*
G04 #@! TO.P,P3,7*
G04 #@! TO.N,Net-(P3-Pad7)*
X120930000Y-76046000D03*
G04 #@! TO.P,P3,8*
G04 #@! TO.N,Net-(P3-Pad8)*
X120930000Y-73506000D03*
G04 #@! TO.P,P3,9*
G04 #@! TO.N,GND*
X123470000Y-76046000D03*
G04 #@! TO.P,P3,10*
G04 #@! TO.N,Net-(P3-Pad10)*
X123470000Y-73506000D03*
G04 #@! TO.P,P3,11*
G04 #@! TO.N,Net-(D7-Pad1)*
X126010000Y-76046000D03*
G04 #@! TO.P,P3,12*
G04 #@! TO.N,Net-(P3-Pad12)*
X126010000Y-73506000D03*
G04 #@! TO.P,P3,13*
G04 #@! TO.N,Net-(P3-Pad13)*
X128550000Y-76046000D03*
G04 #@! TO.P,P3,14*
G04 #@! TO.N,GND*
X128550000Y-73506000D03*
G04 #@! TO.P,P3,15*
G04 #@! TO.N,Net-(P3-Pad15)*
X131090000Y-76046000D03*
G04 #@! TO.P,P3,16*
G04 #@! TO.N,Net-(P3-Pad16)*
X131090000Y-73506000D03*
G04 #@! TO.P,P3,17*
G04 #@! TO.N,Net-(P3-Pad17)*
X133630000Y-76046000D03*
G04 #@! TO.P,P3,18*
G04 #@! TO.N,Net-(P3-Pad18)*
X133630000Y-73506000D03*
G04 #@! TO.P,P3,19*
G04 #@! TO.N,Net-(P3-Pad19)*
X136170000Y-76046000D03*
G04 #@! TO.P,P3,20*
G04 #@! TO.N,GND*
X136170000Y-73506000D03*
G04 #@! TO.P,P3,21*
G04 #@! TO.N,Net-(P3-Pad21)*
X138710000Y-76046000D03*
G04 #@! TO.P,P3,22*
G04 #@! TO.N,Net-(P3-Pad22)*
X138710000Y-73506000D03*
G04 #@! TO.P,P3,23*
G04 #@! TO.N,Net-(P3-Pad23)*
X141250000Y-76046000D03*
G04 #@! TO.P,P3,24*
G04 #@! TO.N,Net-(P3-Pad24)*
X141250000Y-73506000D03*
G04 #@! TO.P,P3,25*
G04 #@! TO.N,GND*
X143790000Y-76046000D03*
G04 #@! TO.P,P3,26*
G04 #@! TO.N,Net-(P3-Pad26)*
X143790000Y-73506000D03*
G04 #@! TO.P,P3,27*
G04 #@! TO.N,SDA_3*
X146330000Y-76046000D03*
G04 #@! TO.P,P3,28*
G04 #@! TO.N,SCL_3*
X146330000Y-73506000D03*
G04 #@! TO.P,P3,29*
G04 #@! TO.N,Net-(P3-Pad29)*
X148870000Y-76046000D03*
G04 #@! TO.P,P3,30*
G04 #@! TO.N,GND*
X148870000Y-73506000D03*
G04 #@! TO.P,P3,31*
G04 #@! TO.N,Net-(P3-Pad31)*
X151410000Y-76046000D03*
G04 #@! TO.P,P3,32*
G04 #@! TO.N,Net-(P3-Pad32)*
X151410000Y-73506000D03*
G04 #@! TO.P,P3,33*
G04 #@! TO.N,Net-(P3-Pad33)*
X153950000Y-76046000D03*
G04 #@! TO.P,P3,34*
G04 #@! TO.N,GND*
X153950000Y-73506000D03*
G04 #@! TO.P,P3,35*
G04 #@! TO.N,Net-(P3-Pad35)*
X156490000Y-76046000D03*
G04 #@! TO.P,P3,36*
G04 #@! TO.N,Net-(P3-Pad36)*
X156490000Y-73506000D03*
G04 #@! TO.P,P3,37*
G04 #@! TO.N,Net-(P3-Pad37)*
X159030000Y-76046000D03*
G04 #@! TO.P,P3,38*
G04 #@! TO.N,N/C*
X159030000Y-73506000D03*
G04 #@! TO.P,P3,39*
G04 #@! TO.N,GND*
X161570000Y-76046000D03*
G04 #@! TO.P,P3,40*
G04 #@! TO.N,Net-(P3-Pad40)*
X161570000Y-73506000D03*
G04 #@! TD*
D14*
G04 #@! TO.P,J14,1*
G04 #@! TO.N,GND*
X120930000Y-101700000D03*
G04 #@! TD*
G04 #@! TO.P,J15,1*
G04 #@! TO.N,Net-(J15-Pad1)*
X161570000Y-83920000D03*
G04 #@! TD*
G04 #@! TO.P,J16,1*
G04 #@! TO.N,GND*
X161570000Y-101700000D03*
G04 #@! TD*
G04 #@! TO.P,J4,1*
G04 #@! TO.N,Net-(J3-Pad5)*
X175286000Y-91540000D03*
D15*
G04 #@! TO.P,J4,2*
G04 #@! TO.N,GND*
X172746000Y-91540000D03*
G04 #@! TD*
D14*
G04 #@! TO.P,J11,1*
G04 #@! TO.N,-X_In*
X126518000Y-121512000D03*
D15*
G04 #@! TO.P,J11,2*
G04 #@! TO.N,-X_Out*
X126518000Y-124052000D03*
G04 #@! TO.P,J11,3*
G04 #@! TO.N,SDA_3*
X126518000Y-126592000D03*
G04 #@! TO.P,J11,4*
G04 #@! TO.N,SCL_3*
X126518000Y-129132000D03*
G04 #@! TO.P,J11,5*
G04 #@! TO.N,GND*
X126518000Y-131672000D03*
G04 #@! TO.P,J11,6*
G04 #@! TO.N,+3V3*
X126518000Y-134212000D03*
G04 #@! TD*
D14*
G04 #@! TO.P,J6,1*
G04 #@! TO.N,+5V*
X108230000Y-138530000D03*
D15*
G04 #@! TO.P,J6,2*
G04 #@! TO.N,+3V3*
X108230000Y-135990000D03*
G04 #@! TO.P,J6,3*
G04 #@! TO.N,GND*
X108230000Y-133450000D03*
G04 #@! TO.P,J6,4*
G04 #@! TO.N,SDA_3*
X108230000Y-130910000D03*
G04 #@! TO.P,J6,5*
G04 #@! TO.N,SCL_3*
X108230000Y-128370000D03*
G04 #@! TD*
D13*
G04 #@! TO.P,R1,2*
G04 #@! TO.N,SCL_3*
X155220000Y-80110000D03*
D12*
G04 #@! TO.P,R1,1*
G04 #@! TO.N,+3V3*
X150140000Y-80110000D03*
G04 #@! TD*
G04 #@! TO.P,R2,1*
G04 #@! TO.N,+3V3*
X141250000Y-80046500D03*
D13*
G04 #@! TO.P,R2,2*
G04 #@! TO.N,SDA_3*
X146330000Y-80046500D03*
G04 #@! TD*
D14*
G04 #@! TO.P,J10,1*
G04 #@! TO.N,VbattIn*
X135662000Y-121258000D03*
D15*
G04 #@! TO.P,J10,2*
G04 #@! TO.N,VbattOut*
X135662000Y-123798000D03*
G04 #@! TO.P,J10,3*
G04 #@! TO.N,SDA_1*
X135662000Y-126338000D03*
G04 #@! TO.P,J10,4*
G04 #@! TO.N,SCL_1*
X135662000Y-128878000D03*
G04 #@! TO.P,J10,5*
G04 #@! TO.N,GND*
X135662000Y-131418000D03*
G04 #@! TO.P,J10,6*
G04 #@! TO.N,+3V3*
X135662000Y-133958000D03*
G04 #@! TD*
G04 #@! TO.P,J12,6*
G04 #@! TO.N,+3V3*
X117374000Y-133958000D03*
G04 #@! TO.P,J12,5*
G04 #@! TO.N,GND*
X117374000Y-131418000D03*
G04 #@! TO.P,J12,4*
G04 #@! TO.N,SCL_3*
X117374000Y-128878000D03*
G04 #@! TO.P,J12,3*
G04 #@! TO.N,SDA_3*
X117374000Y-126338000D03*
G04 #@! TO.P,J12,2*
G04 #@! TO.N,-Y_Out*
X117374000Y-123798000D03*
D14*
G04 #@! TO.P,J12,1*
G04 #@! TO.N,-Y_In*
X117374000Y-121258000D03*
G04 #@! TD*
G04 #@! TO.P,J8,1*
G04 #@! TO.N,+Y_In*
X153759500Y-121512000D03*
D15*
G04 #@! TO.P,J8,2*
G04 #@! TO.N,+Y_Out*
X153759500Y-124052000D03*
G04 #@! TO.P,J8,3*
G04 #@! TO.N,SDA_1*
X153759500Y-126592000D03*
G04 #@! TO.P,J8,4*
G04 #@! TO.N,SCL_1*
X153759500Y-129132000D03*
G04 #@! TO.P,J8,5*
G04 #@! TO.N,GND*
X153759500Y-131672000D03*
G04 #@! TO.P,J8,6*
G04 #@! TO.N,+3V3*
X153759500Y-134212000D03*
G04 #@! TD*
G04 #@! TO.P,J7,6*
G04 #@! TO.N,+3V3*
X162586000Y-134212000D03*
G04 #@! TO.P,J7,5*
G04 #@! TO.N,GND*
X162586000Y-131672000D03*
G04 #@! TO.P,J7,4*
G04 #@! TO.N,SCL_1*
X162586000Y-129132000D03*
G04 #@! TO.P,J7,3*
G04 #@! TO.N,SDA_1*
X162586000Y-126592000D03*
G04 #@! TO.P,J7,2*
G04 #@! TO.N,+X_Out*
X162586000Y-124052000D03*
D14*
G04 #@! TO.P,J7,1*
G04 #@! TO.N,+X_In*
X162586000Y-121512000D03*
G04 #@! TD*
G04 #@! TO.P,J9,1*
G04 #@! TO.N,+Z_In*
X144806000Y-121512000D03*
D15*
G04 #@! TO.P,J9,2*
G04 #@! TO.N,+Z_Out*
X144806000Y-124052000D03*
G04 #@! TO.P,J9,3*
G04 #@! TO.N,SDA_1*
X144806000Y-126592000D03*
G04 #@! TO.P,J9,4*
G04 #@! TO.N,SCL_1*
X144806000Y-129132000D03*
G04 #@! TO.P,J9,5*
G04 #@! TO.N,GND*
X144806000Y-131672000D03*
G04 #@! TO.P,J9,6*
G04 #@! TO.N,+3V3*
X144806000Y-134212000D03*
G04 #@! TD*
D11*
G04 #@! TO.P,D4,2*
G04 #@! TO.N,-X_Out*
X155728000Y-106907000D03*
D10*
G04 #@! TO.P,D4,1*
G04 #@! TO.N,Net-(D1-Pad1)*
X151918000Y-106907000D03*
G04 #@! TD*
G04 #@! TO.P,D3,1*
G04 #@! TO.N,Net-(D1-Pad1)*
X144044000Y-106780000D03*
D11*
G04 #@! TO.P,D3,2*
G04 #@! TO.N,+Z_Out*
X147854000Y-106780000D03*
G04 #@! TD*
G04 #@! TO.P,D5,2*
G04 #@! TO.N,-Y_Out*
X163348000Y-106780000D03*
D10*
G04 #@! TO.P,D5,1*
G04 #@! TO.N,Net-(D1-Pad1)*
X159538000Y-106780000D03*
G04 #@! TD*
G04 #@! TO.P,D2,1*
G04 #@! TO.N,Net-(D1-Pad1)*
X136678000Y-106780000D03*
D11*
G04 #@! TO.P,D2,2*
G04 #@! TO.N,+Y_Out*
X140488000Y-106780000D03*
G04 #@! TD*
D10*
G04 #@! TO.P,D1,1*
G04 #@! TO.N,Net-(D1-Pad1)*
X129058000Y-106780000D03*
D11*
G04 #@! TO.P,D1,2*
G04 #@! TO.N,+X_Out*
X132868000Y-106780000D03*
G04 #@! TD*
D20*
G04 #@! TO.N,GND*
X117120000Y-77062000D03*
G04 #@! TO.N,SDA_1*
X112871999Y-124998001D03*
X115830000Y-105145002D03*
X112871999Y-108103003D03*
G04 #@! TO.N,SCL_1*
X118898000Y-127608000D03*
G04 #@! TO.N,Net-(D1-Pad1)*
X166904000Y-86968000D03*
G04 #@! TO.N,VbattIn*
X134392000Y-116178000D03*
G04 #@! TO.N,VbattOut*
X136678000Y-118464000D03*
X169069383Y-118464000D03*
X171984000Y-110336000D03*
G04 #@! TO.N,+3V3*
X112040000Y-133704000D03*
X173207990Y-129178010D03*
X111278000Y-78078000D03*
G04 #@! TO.N,SDA_3*
X114159999Y-129806001D03*
X114072000Y-126338000D03*
X126010000Y-110844000D03*
G04 #@! TO.N,SCL_3*
X131344000Y-103986000D03*
X116358000Y-116940000D03*
G04 #@! TO.N,Net-(J17-Pad1)*
X169698000Y-98609990D03*
X169698000Y-98609990D03*
G04 #@! TO.N,+Y_Out*
X146330000Y-109320000D03*
X146330000Y-120369000D03*
G04 #@! TO.N,-Z_Out*
X119406000Y-109574000D03*
G04 #@! TO.N,-X_Out*
X126130501Y-113250501D03*
X126130501Y-113250501D03*
X153829499Y-113250501D03*
G04 #@! TO.N,+X_Out*
X159030000Y-110590000D03*
X159030000Y-122714081D03*
X133122000Y-110590000D03*
G04 #@! TO.N,+Z_Out*
X142335999Y-122597999D03*
X142335999Y-108361001D03*
G04 #@! TO.N,-Y_Out*
X156490000Y-125322000D03*
X156490000Y-109320000D03*
X156490000Y-109320000D03*
G04 #@! TO.N,-X_In*
X128296000Y-119480000D03*
X176486001Y-118533999D03*
G04 #@! TO.N,-Y_In*
X167920000Y-115162000D03*
X173254000Y-102462000D03*
G04 #@! TO.N,+Z_In*
X144806000Y-117448000D03*
G04 #@! TO.N,+X_In*
X169540010Y-126978012D03*
X169540010Y-122129020D03*
G04 #@! TO.N,-Z_In*
X123539999Y-102900001D03*
G04 #@! TO.N,Net-(J1-Pad1)*
X176302000Y-84428000D03*
G04 #@! TO.N,Net-(D7-Pad1)*
X158014000Y-84682000D03*
X126264000Y-81888000D03*
G04 #@! TD*
D21*
G04 #@! TO.N,GND*
X127700001Y-74355999D02*
X128550000Y-73506000D01*
X127349999Y-74706001D02*
X127700001Y-74355999D01*
X124809999Y-74706001D02*
X127349999Y-74706001D01*
X123470000Y-76046000D02*
X124809999Y-74706001D01*
X135320001Y-74355999D02*
X136170000Y-73506000D01*
X134969999Y-74706001D02*
X135320001Y-74355999D01*
X129750001Y-74706001D02*
X134969999Y-74706001D01*
X128550000Y-73506000D02*
X129750001Y-74706001D01*
X142940001Y-75196001D02*
X143790000Y-76046000D01*
X142589999Y-74845999D02*
X142940001Y-75196001D01*
X137509999Y-74845999D02*
X142589999Y-74845999D01*
X136170000Y-73506000D02*
X137509999Y-74845999D01*
X148020001Y-74355999D02*
X148870000Y-73506000D01*
X147669999Y-74706001D02*
X148020001Y-74355999D01*
X145129999Y-74706001D02*
X147669999Y-74706001D01*
X143790000Y-76046000D02*
X145129999Y-74706001D01*
X153100001Y-74355999D02*
X153950000Y-73506000D01*
X152749999Y-74706001D02*
X153100001Y-74355999D01*
X150070001Y-74706001D02*
X152749999Y-74706001D01*
X148870000Y-73506000D02*
X150070001Y-74706001D01*
X160720001Y-75196001D02*
X161570000Y-76046000D01*
X160369999Y-74845999D02*
X160720001Y-75196001D01*
X155289999Y-74845999D02*
X160369999Y-74845999D01*
X153950000Y-73506000D02*
X155289999Y-74845999D01*
X171543919Y-91540000D02*
X172746000Y-91540000D01*
X166109499Y-87349361D02*
X170300138Y-91540000D01*
X172492000Y-80100471D02*
X166109499Y-86482972D01*
X163602000Y-78078000D02*
X168174000Y-78078000D01*
X161570000Y-76046000D02*
X163602000Y-78078000D01*
X170300138Y-91540000D02*
X171543919Y-91540000D01*
X168174000Y-78078000D02*
X169444000Y-76808000D01*
X169444000Y-76808000D02*
X171476000Y-76808000D01*
X171476000Y-76808000D02*
X172492000Y-77824000D01*
X166109499Y-86482972D02*
X166109499Y-87349361D01*
X172492000Y-77824000D02*
X172492000Y-80100471D01*
X175286000Y-94080000D02*
X175286000Y-94588000D01*
X172746000Y-91540000D02*
X175286000Y-94080000D01*
X176135999Y-125917999D02*
X175286000Y-125068000D01*
X176486001Y-126268001D02*
X176135999Y-125917999D01*
X176486001Y-131536999D02*
X176486001Y-126268001D01*
X175190000Y-132833000D02*
X176486001Y-131536999D01*
X175190000Y-133958000D02*
X175190000Y-132833000D01*
X176135999Y-120837999D02*
X175286000Y-119988000D01*
X176486001Y-121188001D02*
X176135999Y-120837999D01*
X176486001Y-123867999D02*
X176486001Y-121188001D01*
X175286000Y-125068000D02*
X176486001Y-123867999D01*
X176135999Y-115757999D02*
X175286000Y-114908000D01*
X177280502Y-116902502D02*
X176135999Y-115757999D01*
X177280502Y-119195579D02*
X177280502Y-116902502D01*
X176488081Y-119988000D02*
X177280502Y-119195579D01*
X175286000Y-119988000D02*
X176488081Y-119988000D01*
X176135999Y-98818001D02*
X175286000Y-99668000D01*
X176486001Y-98467999D02*
X176135999Y-98818001D01*
X176486001Y-95788001D02*
X176486001Y-98467999D01*
X175286000Y-94588000D02*
X176486001Y-95788001D01*
D22*
X116950001Y-74945999D02*
X117120000Y-77062000D01*
X118390000Y-73506000D02*
X116950001Y-74945999D01*
X117120000Y-77062000D02*
X116950001Y-76892001D01*
X117120000Y-77062000D02*
X116950001Y-76892001D01*
D21*
G04 #@! TO.N,SDA_1*
X161383919Y-126592000D02*
X153759500Y-126592000D01*
X162586000Y-126592000D02*
X161383919Y-126592000D01*
X153759500Y-126592000D02*
X144806000Y-126592000D01*
X135916000Y-126592000D02*
X135662000Y-126338000D01*
X144806000Y-126592000D02*
X135916000Y-126592000D01*
X117950001Y-125137999D02*
X112871999Y-124998001D01*
X118204001Y-125391999D02*
X117950001Y-125137999D01*
X135662000Y-126338000D02*
X134715999Y-125391999D01*
X134715999Y-125391999D02*
X118204001Y-125391999D01*
X112871999Y-108103003D02*
X115830000Y-105145002D01*
D23*
G04 #@! TO.N,SCL_1*
X161383919Y-129132000D02*
X153759500Y-129132000D01*
X162586000Y-129132000D02*
X161383919Y-129132000D01*
X152557419Y-129132000D02*
X144806000Y-129132000D01*
X153759500Y-129132000D02*
X152557419Y-129132000D01*
X135916000Y-129132000D02*
X135662000Y-128878000D01*
X144806000Y-129132000D02*
X135916000Y-129132000D01*
X134765999Y-127981999D02*
X118898000Y-127608000D01*
X135662000Y-128878000D02*
X134765999Y-127981999D01*
D21*
G04 #@! TO.N,Net-(D1-Pad1)*
X174394000Y-86945000D02*
X174394000Y-85916000D01*
X174371000Y-86968000D02*
X174394000Y-86945000D01*
X166904000Y-86968000D02*
X174371000Y-86968000D01*
G04 #@! TO.N,VbattIn*
X171476000Y-116178000D02*
X169698000Y-116178000D01*
X175286000Y-112368000D02*
X171476000Y-116178000D01*
X134392000Y-116178000D02*
X169698000Y-116178000D01*
X169698000Y-116178000D02*
X169952000Y-116178000D01*
G04 #@! TO.N,VbattOut*
X169069383Y-118464000D02*
X169069383Y-118464000D01*
X136678000Y-118464000D02*
X136678000Y-118464000D01*
X169069383Y-118464000D02*
X136678000Y-118464000D01*
X174778000Y-110336000D02*
X175286000Y-109828000D01*
X171984000Y-110336000D02*
X174778000Y-110336000D01*
G04 #@! TO.N,+3V3*
X142456500Y-78840000D02*
X141250000Y-80046500D01*
X150140000Y-80110000D02*
X148870000Y-78840000D01*
X148870000Y-78840000D02*
X142456500Y-78840000D01*
X114960500Y-78078000D02*
X139281500Y-78078000D01*
X139281500Y-78078000D02*
X141250000Y-80046500D01*
X114960500Y-78078000D02*
X111278000Y-78078000D01*
X111786000Y-78078000D02*
X111786000Y-78078000D01*
X110516000Y-133704000D02*
X112040000Y-133704000D01*
X108230000Y-135990000D02*
X110516000Y-133704000D01*
X111786000Y-78078000D02*
X111786000Y-78078000D01*
D23*
X117120000Y-133704000D02*
X117374000Y-133958000D01*
X112040000Y-133704000D02*
X117120000Y-133704000D01*
X126264000Y-133958000D02*
X126518000Y-134212000D01*
X117374000Y-133958000D02*
X126264000Y-133958000D01*
X135408000Y-134212000D02*
X135662000Y-133958000D01*
X126518000Y-134212000D02*
X135408000Y-134212000D01*
X144552000Y-133958000D02*
X144806000Y-134212000D01*
X135662000Y-133958000D02*
X144552000Y-133958000D01*
X146008081Y-134212000D02*
X153759500Y-134212000D01*
X144806000Y-134212000D02*
X146008081Y-134212000D01*
X153759500Y-134212000D02*
X162586000Y-134212000D01*
X167619990Y-129178010D02*
X173207990Y-129178010D01*
X162586000Y-134212000D02*
X167619990Y-129178010D01*
X173207990Y-129178010D02*
X173207990Y-129178010D01*
D21*
X111786000Y-78078000D02*
X111278000Y-78078000D01*
X111278000Y-78078000D02*
X111786000Y-78078000D01*
G04 #@! TO.N,Net-(J15-Pad1)*
X161570000Y-83920000D02*
X164745000Y-80745000D01*
X168765000Y-79416000D02*
X167309000Y-80872000D01*
X169794000Y-79416000D02*
X168765000Y-79416000D01*
X164872000Y-80872000D02*
X164745000Y-80745000D01*
X167309000Y-80872000D02*
X164872000Y-80872000D01*
G04 #@! TO.N,SDA_3*
X114159999Y-129806001D02*
X114159999Y-129806001D01*
X113056000Y-130910000D02*
X114159999Y-129806001D01*
X108230000Y-130910000D02*
X113056000Y-130910000D01*
X117628000Y-126592000D02*
X117374000Y-126338000D01*
X126518000Y-126592000D02*
X117628000Y-126592000D01*
X117374000Y-126338000D02*
X114072000Y-126338000D01*
X114072000Y-126338000D02*
X114072000Y-126338000D01*
X116612000Y-111927919D02*
X117695919Y-110844000D01*
X116612000Y-113130000D02*
X116612000Y-111927919D01*
X117695919Y-110844000D02*
X126010000Y-110844000D01*
X126010000Y-110844000D02*
X126010000Y-110844000D01*
D23*
G04 #@! TO.N,SCL_3*
X116866000Y-128370000D02*
X117374000Y-128878000D01*
X108230000Y-128370000D02*
X116866000Y-128370000D01*
X126264000Y-128878000D02*
X126518000Y-129132000D01*
X117374000Y-128878000D02*
X126264000Y-128878000D01*
D21*
X114072000Y-114332081D02*
X115596000Y-115856081D01*
X114072000Y-113130000D02*
X114072000Y-114332081D01*
X115596000Y-115856081D02*
X115596000Y-115856081D01*
X115596000Y-115856081D02*
X115596000Y-115856081D01*
X114921999Y-112280001D02*
X114072000Y-113130000D01*
X123078502Y-104123498D02*
X114921999Y-112280001D01*
X131206502Y-104123498D02*
X123078502Y-104123498D01*
X131651001Y-103678999D02*
X131206502Y-104123498D01*
X115596000Y-116178000D02*
X116358000Y-116940000D01*
X115596000Y-115856081D02*
X115596000Y-116178000D01*
G04 #@! TO.N,Net-(J17-Pad1)*
X122180000Y-83920000D02*
X120930000Y-83920000D01*
X136912000Y-98652000D02*
X122180000Y-83920000D01*
X136954010Y-98609990D02*
X136912000Y-98652000D01*
X165930010Y-98609990D02*
X165634000Y-98609990D01*
X165634000Y-98609990D02*
X136954010Y-98609990D01*
X165930010Y-98609990D02*
X169698000Y-98609990D01*
X169698000Y-98609990D02*
X169909990Y-98609990D01*
X169698000Y-98609990D02*
X169698000Y-98609990D01*
G04 #@! TO.N,+Y_Out*
X150076500Y-120369000D02*
X153759500Y-124052000D01*
X146330000Y-120369000D02*
X150076500Y-120369000D01*
X140488000Y-108335634D02*
X140488000Y-106780000D01*
X141472366Y-109320000D02*
X140488000Y-108335634D01*
X146330000Y-109320000D02*
X141472366Y-109320000D01*
G04 #@! TO.N,-Z_Out*
X169517999Y-105329999D02*
X123650001Y-105329999D01*
X170968000Y-106780000D02*
X169517999Y-105329999D01*
X123650001Y-105329999D02*
X119406000Y-109574000D01*
X119406000Y-109574000D02*
X119406000Y-109574000D01*
G04 #@! TO.N,-X_Out*
X126130501Y-113250501D02*
X153829499Y-113250501D01*
X153829499Y-113250501D02*
X153829499Y-113250501D01*
G04 #@! TO.N,+X_Out*
X161383919Y-124052000D02*
X160113919Y-122782000D01*
X162586000Y-124052000D02*
X161383919Y-124052000D01*
X160113919Y-122782000D02*
X159030000Y-122782000D01*
X159030000Y-110590000D02*
X133122000Y-110590000D01*
X133122000Y-110590000D02*
X133122000Y-110590000D01*
G04 #@! TO.N,+Z_Out*
X143351999Y-122597999D02*
X144806000Y-124052000D01*
X142335999Y-122597999D02*
X143351999Y-122597999D01*
X146272999Y-108361001D02*
X147854000Y-106780000D01*
X142335999Y-108361001D02*
X146272999Y-108361001D01*
G04 #@! TO.N,-Y_Out*
X141160137Y-122597999D02*
X143884138Y-125322000D01*
X135085999Y-122597999D02*
X141160137Y-122597999D01*
X134831999Y-122851999D02*
X135085999Y-122597999D01*
X117374000Y-123798000D02*
X118320001Y-122851999D01*
X118320001Y-122851999D02*
X134831999Y-122851999D01*
X143884138Y-125322000D02*
X156490000Y-125322000D01*
X156490000Y-125322000D02*
X156490000Y-125322000D01*
X162248001Y-107879999D02*
X163348000Y-106780000D01*
X161897999Y-108230001D02*
X162248001Y-107879999D01*
X157579999Y-108230001D02*
X161897999Y-108230001D01*
X156490000Y-109320000D02*
X157579999Y-108230001D01*
G04 #@! TO.N,-X_In*
X169190000Y-119480000D02*
X128296000Y-119480000D01*
X128296000Y-119480000D02*
X128276000Y-119480000D01*
X172854003Y-118787999D02*
X171908002Y-119734000D01*
X175603384Y-118787999D02*
X172854003Y-118787999D01*
X176486001Y-118533999D02*
X175857384Y-118533999D01*
X175857384Y-118533999D02*
X175603384Y-118787999D01*
X169444000Y-119734000D02*
X169190000Y-119480000D01*
X171908002Y-119734000D02*
X169444000Y-119734000D01*
G04 #@! TO.N,-Y_In*
X118624000Y-121258000D02*
X124720000Y-115162000D01*
X117374000Y-121258000D02*
X118624000Y-121258000D01*
X124720000Y-115162000D02*
X167920000Y-115162000D01*
X167920000Y-115162000D02*
X167920000Y-115162000D01*
X175032000Y-102462000D02*
X175286000Y-102208000D01*
X173254000Y-102462000D02*
X175032000Y-102462000D01*
G04 #@! TO.N,+Z_In*
X174083919Y-117448000D02*
X175286000Y-117448000D01*
X173363929Y-116728010D02*
X174083919Y-117448000D01*
X145525990Y-116728010D02*
X173363929Y-116728010D01*
X144806000Y-117448000D02*
X145525990Y-116728010D01*
G04 #@! TO.N,+Y_In*
X163022003Y-125252001D02*
X158749501Y-125252001D01*
X167683980Y-127069010D02*
X164839012Y-127069010D01*
X164839012Y-127069010D02*
X163022003Y-125252001D01*
X171028989Y-123724001D02*
X167683980Y-127069010D01*
X158749501Y-125252001D02*
X155009500Y-121512000D01*
X174089999Y-123724001D02*
X171028989Y-123724001D01*
X155009500Y-121512000D02*
X153759500Y-121512000D01*
X175286000Y-122528000D02*
X174089999Y-123724001D01*
G04 #@! TO.N,+X_In*
X163836000Y-121512000D02*
X162586000Y-121512000D01*
X167810980Y-120399990D02*
X164948010Y-120399990D01*
X169540010Y-122129020D02*
X169540010Y-122129020D01*
X170169998Y-127608000D02*
X169540010Y-126978012D01*
X164948010Y-120399990D02*
X163836000Y-121512000D01*
X175286000Y-127608000D02*
X170169998Y-127608000D01*
X169540010Y-126978012D02*
X169540010Y-126978012D01*
X169540010Y-122129020D02*
X167810980Y-120399990D01*
G04 #@! TO.N,-Z_In*
X169513999Y-102900001D02*
X123539999Y-102900001D01*
X175286000Y-97128000D02*
X169513999Y-102900001D01*
X123539999Y-102900001D02*
X123539999Y-102900001D01*
G04 #@! TO.N,Net-(J1-Pad1)*
X177314000Y-83416000D02*
X180794000Y-83416000D01*
X176302000Y-84428000D02*
X177314000Y-83416000D01*
G04 #@! TO.N,Net-(D7-Pad1)*
X156051999Y-82719999D02*
X127095999Y-82719999D01*
X158014000Y-84682000D02*
X156051999Y-82719999D01*
X127095999Y-82719999D02*
X126264000Y-81888000D01*
X126264000Y-81888000D02*
X126264000Y-81888000D01*
G04 #@! TD*
M02*
