G04 #@! TF.GenerationSoftware,KiCad,Pcbnew,(5.0.1)-4*
G04 #@! TF.CreationDate,2019-01-24T22:07:47-05:00*
G04 #@! TF.ProjectId,cubesatsim_solar,6375626573617473696D5F736F6C6172,B1.1*
G04 #@! TF.SameCoordinates,Original*
G04 #@! TF.FileFunction,Legend,Top*
G04 #@! TF.FilePolarity,Positive*
%FSLAX46Y46*%
G04 Gerber Fmt 4.6, Leading zero omitted, Abs format (unit mm)*
G04 Created by KiCad (PCBNEW (5.0.1)-4) date 1/24/2019 10:07:47 PM*
%MOMM*%
%LPD*%
G01*
G04 APERTURE LIST*
%ADD10C,0.300000*%
%ADD11C,0.200000*%
%ADD12C,0.120000*%
%ADD13C,0.127000*%
%ADD14C,0.150000*%
%ADD15C,0.050000*%
G04 APERTURE END LIST*
D10*
X92446272Y-116306621D02*
X92449540Y-115306626D01*
X93947431Y-115954382D01*
X92450940Y-114878057D02*
X92454208Y-113878062D01*
X93952100Y-114525818D01*
X93813211Y-113311072D02*
X93884873Y-113239877D01*
X93956068Y-113311539D01*
X93884406Y-113382734D01*
X93813211Y-113311072D01*
X93956068Y-113311539D01*
X92457943Y-112735211D02*
X92461211Y-111735217D01*
X93959102Y-112382972D01*
X92605701Y-111235686D02*
X92534507Y-111164025D01*
X92463545Y-111020935D01*
X92464712Y-110663794D01*
X92536608Y-110521171D01*
X92608269Y-110449976D01*
X92751359Y-110379015D01*
X92894215Y-110379482D01*
X93108266Y-110451610D01*
X93962604Y-111311549D01*
X93965638Y-110382983D01*
X92969845Y-109094008D02*
X93969840Y-109097276D01*
X92397253Y-109449281D02*
X93467508Y-109809923D01*
X93470543Y-108881357D01*
X93976142Y-107168714D02*
X92976148Y-107165446D01*
X93119004Y-107165913D02*
X93047809Y-107094252D01*
X92976848Y-106951162D01*
X92977548Y-106736877D01*
X93049443Y-106594254D01*
X93192533Y-106523293D01*
X93978243Y-106525861D01*
X93192533Y-106523293D02*
X93049910Y-106451398D01*
X92978949Y-106308308D01*
X92979649Y-106094024D01*
X93051544Y-105951401D01*
X93194634Y-105880439D01*
X93980344Y-105883007D01*
X93982678Y-105168725D02*
X92982684Y-105165457D01*
X93125540Y-105165924D02*
X93054345Y-105094262D01*
X92983384Y-104951173D01*
X92984084Y-104736888D01*
X93055979Y-104594265D01*
X93199069Y-104523304D01*
X93984779Y-104525871D01*
X93199069Y-104523304D02*
X93056446Y-104451409D01*
X92985485Y-104308319D01*
X92986185Y-104094034D01*
X93058080Y-103951411D01*
X93201170Y-103880450D01*
X93986880Y-103883018D01*
X95515227Y-71168488D02*
X95261227Y-148892488D01*
X111278000Y-71220000D02*
X94928810Y-71166571D01*
X111024000Y-148944000D02*
X94674810Y-148890571D01*
X95261227Y-148892488D02*
X94678491Y-147764074D01*
X95261227Y-148892488D02*
X95851326Y-147767907D01*
X95515227Y-71168488D02*
X94925128Y-72293069D01*
X95515227Y-71168488D02*
X96097963Y-72296902D01*
X137478228Y-54669963D02*
X138478180Y-54679766D01*
X137820649Y-56173392D01*
X138906731Y-54683968D02*
X139906683Y-54693771D01*
X139249151Y-56187397D01*
X140464779Y-56056451D02*
X140535504Y-56128576D01*
X140463379Y-56199301D01*
X140392654Y-56127176D01*
X140464779Y-56056451D01*
X140463379Y-56199301D01*
X141049485Y-54704975D02*
X142049437Y-54714778D01*
X141391906Y-56208404D01*
X142548012Y-54862530D02*
X142620138Y-54791806D01*
X142763688Y-54721781D01*
X143120814Y-54725282D01*
X143262964Y-54798108D01*
X143333689Y-54870233D01*
X143403714Y-55013784D01*
X143402313Y-55156634D01*
X143328787Y-55370209D01*
X142463283Y-56218908D01*
X143391809Y-56228011D01*
X144257314Y-55379312D02*
X144115164Y-55306487D01*
X144044439Y-55234361D01*
X143974415Y-55090811D01*
X143975115Y-55019386D01*
X144047940Y-54877236D01*
X144120066Y-54806511D01*
X144263616Y-54736486D01*
X144549317Y-54739287D01*
X144691467Y-54812113D01*
X144762192Y-54884238D01*
X144832216Y-55027789D01*
X144831516Y-55099214D01*
X144758691Y-55241364D01*
X144686565Y-55312089D01*
X144543015Y-55382113D01*
X144257314Y-55379312D01*
X144113764Y-55449337D01*
X144041638Y-55520062D01*
X143968813Y-55662212D01*
X143966012Y-55947913D01*
X144036036Y-56091463D01*
X144106761Y-56163588D01*
X144248911Y-56236414D01*
X144534612Y-56239215D01*
X144678162Y-56169190D01*
X144750288Y-56098465D01*
X144823113Y-55956315D01*
X144825914Y-55670615D01*
X144755890Y-55527064D01*
X144685165Y-55454939D01*
X144543015Y-55382113D01*
X146605941Y-56259522D02*
X146615744Y-55259570D01*
X146614344Y-55402421D02*
X146686469Y-55331696D01*
X146830020Y-55261671D01*
X147044295Y-55263772D01*
X147186445Y-55336597D01*
X147256470Y-55480148D01*
X147248767Y-56265824D01*
X147256470Y-55480148D02*
X147329295Y-55337998D01*
X147472846Y-55267973D01*
X147687121Y-55270074D01*
X147829271Y-55342900D01*
X147899296Y-55486450D01*
X147891593Y-56272127D01*
X148605845Y-56279129D02*
X148615648Y-55279177D01*
X148614248Y-55422027D02*
X148686373Y-55351303D01*
X148829923Y-55281278D01*
X149044199Y-55283379D01*
X149186349Y-55356204D01*
X149256374Y-55499755D01*
X149248671Y-56285431D01*
X149256374Y-55499755D02*
X149329199Y-55357605D01*
X149472750Y-55287580D01*
X149687025Y-55289681D01*
X149829175Y-55362506D01*
X149899200Y-55506057D01*
X149891497Y-56291734D01*
X104873001Y-57271873D02*
X182597001Y-58033873D01*
X104674000Y-77570000D02*
X104878750Y-56685481D01*
X182398000Y-78332000D02*
X182602750Y-57447481D01*
X182597001Y-58033873D02*
X181464802Y-58609222D01*
X182597001Y-58033873D02*
X181476300Y-57436437D01*
X104873001Y-57271873D02*
X105993702Y-57869309D01*
X104873001Y-57271873D02*
X106005200Y-56696524D01*
D11*
X113875428Y-139238000D02*
X114446857Y-139238000D01*
X113761142Y-139580857D02*
X114161142Y-138380857D01*
X114561142Y-139580857D01*
X114961142Y-139580857D02*
X114961142Y-138380857D01*
X115361142Y-139238000D01*
X115761142Y-138380857D01*
X115761142Y-139580857D01*
X116275428Y-139523714D02*
X116446857Y-139580857D01*
X116732571Y-139580857D01*
X116846857Y-139523714D01*
X116904000Y-139466571D01*
X116961142Y-139352285D01*
X116961142Y-139238000D01*
X116904000Y-139123714D01*
X116846857Y-139066571D01*
X116732571Y-139009428D01*
X116504000Y-138952285D01*
X116389714Y-138895142D01*
X116332571Y-138838000D01*
X116275428Y-138723714D01*
X116275428Y-138609428D01*
X116332571Y-138495142D01*
X116389714Y-138438000D01*
X116504000Y-138380857D01*
X116789714Y-138380857D01*
X116961142Y-138438000D01*
X117418285Y-139238000D02*
X117989714Y-139238000D01*
X117304000Y-139580857D02*
X117704000Y-138380857D01*
X118104000Y-139580857D01*
X118332571Y-138380857D02*
X119018285Y-138380857D01*
X118675428Y-139580857D02*
X118675428Y-138380857D01*
X120446857Y-139409428D02*
X120161142Y-139066571D01*
X119932571Y-139409428D02*
X119932571Y-138609428D01*
X120275428Y-138609428D01*
X120389714Y-138666571D01*
X120446857Y-138780857D01*
X120446857Y-138895142D01*
X120389714Y-139009428D01*
X120275428Y-139066571D01*
X119932571Y-139066571D01*
X120161142Y-138209428D02*
X119875428Y-138266571D01*
X119589714Y-138438000D01*
X119418285Y-138723714D01*
X119361142Y-139009428D01*
X119418285Y-139295142D01*
X119589714Y-139580857D01*
X119875428Y-139752285D01*
X120161142Y-139809428D01*
X120446857Y-139752285D01*
X120732571Y-139580857D01*
X120904000Y-139295142D01*
X120961142Y-139009428D01*
X120904000Y-138723714D01*
X120732571Y-138438000D01*
X120446857Y-138266571D01*
X120161142Y-138209428D01*
X123075428Y-139466571D02*
X123018285Y-139523714D01*
X122846857Y-139580857D01*
X122732571Y-139580857D01*
X122561142Y-139523714D01*
X122446857Y-139409428D01*
X122389714Y-139295142D01*
X122332571Y-139066571D01*
X122332571Y-138895142D01*
X122389714Y-138666571D01*
X122446857Y-138552285D01*
X122561142Y-138438000D01*
X122732571Y-138380857D01*
X122846857Y-138380857D01*
X123018285Y-138438000D01*
X123075428Y-138495142D01*
X124104000Y-138780857D02*
X124104000Y-139580857D01*
X123589714Y-138780857D02*
X123589714Y-139409428D01*
X123646857Y-139523714D01*
X123761142Y-139580857D01*
X123932571Y-139580857D01*
X124046857Y-139523714D01*
X124104000Y-139466571D01*
X124675428Y-139580857D02*
X124675428Y-138380857D01*
X124675428Y-138838000D02*
X124789714Y-138780857D01*
X125018285Y-138780857D01*
X125132571Y-138838000D01*
X125189714Y-138895142D01*
X125246857Y-139009428D01*
X125246857Y-139352285D01*
X125189714Y-139466571D01*
X125132571Y-139523714D01*
X125018285Y-139580857D01*
X124789714Y-139580857D01*
X124675428Y-139523714D01*
X126218285Y-139523714D02*
X126104000Y-139580857D01*
X125875428Y-139580857D01*
X125761142Y-139523714D01*
X125704000Y-139409428D01*
X125704000Y-138952285D01*
X125761142Y-138838000D01*
X125875428Y-138780857D01*
X126104000Y-138780857D01*
X126218285Y-138838000D01*
X126275428Y-138952285D01*
X126275428Y-139066571D01*
X125704000Y-139180857D01*
X126732571Y-139523714D02*
X126904000Y-139580857D01*
X127189714Y-139580857D01*
X127304000Y-139523714D01*
X127361142Y-139466571D01*
X127418285Y-139352285D01*
X127418285Y-139238000D01*
X127361142Y-139123714D01*
X127304000Y-139066571D01*
X127189714Y-139009428D01*
X126961142Y-138952285D01*
X126846857Y-138895142D01*
X126789714Y-138838000D01*
X126732571Y-138723714D01*
X126732571Y-138609428D01*
X126789714Y-138495142D01*
X126846857Y-138438000D01*
X126961142Y-138380857D01*
X127246857Y-138380857D01*
X127418285Y-138438000D01*
X128446857Y-139580857D02*
X128446857Y-138952285D01*
X128389714Y-138838000D01*
X128275428Y-138780857D01*
X128046857Y-138780857D01*
X127932571Y-138838000D01*
X128446857Y-139523714D02*
X128332571Y-139580857D01*
X128046857Y-139580857D01*
X127932571Y-139523714D01*
X127875428Y-139409428D01*
X127875428Y-139295142D01*
X127932571Y-139180857D01*
X128046857Y-139123714D01*
X128332571Y-139123714D01*
X128446857Y-139066571D01*
X128846857Y-138780857D02*
X129304000Y-138780857D01*
X129018285Y-138380857D02*
X129018285Y-139409428D01*
X129075428Y-139523714D01*
X129189714Y-139580857D01*
X129304000Y-139580857D01*
X130561142Y-139523714D02*
X130732571Y-139580857D01*
X131018285Y-139580857D01*
X131132571Y-139523714D01*
X131189714Y-139466571D01*
X131246857Y-139352285D01*
X131246857Y-139238000D01*
X131189714Y-139123714D01*
X131132571Y-139066571D01*
X131018285Y-139009428D01*
X130789714Y-138952285D01*
X130675428Y-138895142D01*
X130618285Y-138838000D01*
X130561142Y-138723714D01*
X130561142Y-138609428D01*
X130618285Y-138495142D01*
X130675428Y-138438000D01*
X130789714Y-138380857D01*
X131075428Y-138380857D01*
X131246857Y-138438000D01*
X131761142Y-139580857D02*
X131761142Y-138780857D01*
X131761142Y-138380857D02*
X131704000Y-138438000D01*
X131761142Y-138495142D01*
X131818285Y-138438000D01*
X131761142Y-138380857D01*
X131761142Y-138495142D01*
X132332571Y-139580857D02*
X132332571Y-138780857D01*
X132332571Y-138895142D02*
X132389714Y-138838000D01*
X132504000Y-138780857D01*
X132675428Y-138780857D01*
X132789714Y-138838000D01*
X132846857Y-138952285D01*
X132846857Y-139580857D01*
X132846857Y-138952285D02*
X132904000Y-138838000D01*
X133018285Y-138780857D01*
X133189714Y-138780857D01*
X133304000Y-138838000D01*
X133361142Y-138952285D01*
X133361142Y-139580857D01*
X134446857Y-138780857D02*
X134446857Y-139580857D01*
X133932571Y-138780857D02*
X133932571Y-139409428D01*
X133989714Y-139523714D01*
X134104000Y-139580857D01*
X134275428Y-139580857D01*
X134389714Y-139523714D01*
X134446857Y-139466571D01*
X135189714Y-139580857D02*
X135075428Y-139523714D01*
X135018285Y-139409428D01*
X135018285Y-138380857D01*
X136161142Y-139580857D02*
X136161142Y-138952285D01*
X136104000Y-138838000D01*
X135989714Y-138780857D01*
X135761142Y-138780857D01*
X135646857Y-138838000D01*
X136161142Y-139523714D02*
X136046857Y-139580857D01*
X135761142Y-139580857D01*
X135646857Y-139523714D01*
X135589714Y-139409428D01*
X135589714Y-139295142D01*
X135646857Y-139180857D01*
X135761142Y-139123714D01*
X136046857Y-139123714D01*
X136161142Y-139066571D01*
X136561142Y-138780857D02*
X137018285Y-138780857D01*
X136732571Y-138380857D02*
X136732571Y-139409428D01*
X136789714Y-139523714D01*
X136904000Y-139580857D01*
X137018285Y-139580857D01*
X137589714Y-139580857D02*
X137475428Y-139523714D01*
X137418285Y-139466571D01*
X137361142Y-139352285D01*
X137361142Y-139009428D01*
X137418285Y-138895142D01*
X137475428Y-138838000D01*
X137589714Y-138780857D01*
X137761142Y-138780857D01*
X137875428Y-138838000D01*
X137932571Y-138895142D01*
X137989714Y-139009428D01*
X137989714Y-139352285D01*
X137932571Y-139466571D01*
X137875428Y-139523714D01*
X137761142Y-139580857D01*
X137589714Y-139580857D01*
X138504000Y-139580857D02*
X138504000Y-138780857D01*
X138504000Y-139009428D02*
X138561142Y-138895142D01*
X138618285Y-138838000D01*
X138732571Y-138780857D01*
X138846857Y-138780857D01*
X140104000Y-139523714D02*
X140275428Y-139580857D01*
X140561142Y-139580857D01*
X140675428Y-139523714D01*
X140732571Y-139466571D01*
X140789714Y-139352285D01*
X140789714Y-139238000D01*
X140732571Y-139123714D01*
X140675428Y-139066571D01*
X140561142Y-139009428D01*
X140332571Y-138952285D01*
X140218285Y-138895142D01*
X140161142Y-138838000D01*
X140104000Y-138723714D01*
X140104000Y-138609428D01*
X140161142Y-138495142D01*
X140218285Y-138438000D01*
X140332571Y-138380857D01*
X140618285Y-138380857D01*
X140789714Y-138438000D01*
X141475428Y-139580857D02*
X141361142Y-139523714D01*
X141304000Y-139466571D01*
X141246857Y-139352285D01*
X141246857Y-139009428D01*
X141304000Y-138895142D01*
X141361142Y-138838000D01*
X141475428Y-138780857D01*
X141646857Y-138780857D01*
X141761142Y-138838000D01*
X141818285Y-138895142D01*
X141875428Y-139009428D01*
X141875428Y-139352285D01*
X141818285Y-139466571D01*
X141761142Y-139523714D01*
X141646857Y-139580857D01*
X141475428Y-139580857D01*
X142561142Y-139580857D02*
X142446857Y-139523714D01*
X142389714Y-139409428D01*
X142389714Y-138380857D01*
X143532571Y-139580857D02*
X143532571Y-138952285D01*
X143475428Y-138838000D01*
X143361142Y-138780857D01*
X143132571Y-138780857D01*
X143018285Y-138838000D01*
X143532571Y-139523714D02*
X143418285Y-139580857D01*
X143132571Y-139580857D01*
X143018285Y-139523714D01*
X142961142Y-139409428D01*
X142961142Y-139295142D01*
X143018285Y-139180857D01*
X143132571Y-139123714D01*
X143418285Y-139123714D01*
X143532571Y-139066571D01*
X144104000Y-139580857D02*
X144104000Y-138780857D01*
X144104000Y-139009428D02*
X144161142Y-138895142D01*
X144218285Y-138838000D01*
X144332571Y-138780857D01*
X144446857Y-138780857D01*
X145761142Y-139580857D02*
X145761142Y-138380857D01*
X146218285Y-138380857D01*
X146332571Y-138438000D01*
X146389714Y-138495142D01*
X146446857Y-138609428D01*
X146446857Y-138780857D01*
X146389714Y-138895142D01*
X146332571Y-138952285D01*
X146218285Y-139009428D01*
X145761142Y-139009428D01*
X147132571Y-139580857D02*
X147018285Y-139523714D01*
X146961142Y-139466571D01*
X146904000Y-139352285D01*
X146904000Y-139009428D01*
X146961142Y-138895142D01*
X147018285Y-138838000D01*
X147132571Y-138780857D01*
X147304000Y-138780857D01*
X147418285Y-138838000D01*
X147475428Y-138895142D01*
X147532571Y-139009428D01*
X147532571Y-139352285D01*
X147475428Y-139466571D01*
X147418285Y-139523714D01*
X147304000Y-139580857D01*
X147132571Y-139580857D01*
X147932571Y-138780857D02*
X148161142Y-139580857D01*
X148389714Y-139009428D01*
X148618285Y-139580857D01*
X148846857Y-138780857D01*
X149761142Y-139523714D02*
X149646857Y-139580857D01*
X149418285Y-139580857D01*
X149304000Y-139523714D01*
X149246857Y-139409428D01*
X149246857Y-138952285D01*
X149304000Y-138838000D01*
X149418285Y-138780857D01*
X149646857Y-138780857D01*
X149761142Y-138838000D01*
X149818285Y-138952285D01*
X149818285Y-139066571D01*
X149246857Y-139180857D01*
X150332571Y-139580857D02*
X150332571Y-138780857D01*
X150332571Y-139009428D02*
X150389714Y-138895142D01*
X150446857Y-138838000D01*
X150561142Y-138780857D01*
X150675428Y-138780857D01*
X152389714Y-138952285D02*
X152561142Y-139009428D01*
X152618285Y-139066571D01*
X152675428Y-139180857D01*
X152675428Y-139352285D01*
X152618285Y-139466571D01*
X152561142Y-139523714D01*
X152446857Y-139580857D01*
X151989714Y-139580857D01*
X151989714Y-138380857D01*
X152389714Y-138380857D01*
X152504000Y-138438000D01*
X152561142Y-138495142D01*
X152618285Y-138609428D01*
X152618285Y-138723714D01*
X152561142Y-138838000D01*
X152504000Y-138895142D01*
X152389714Y-138952285D01*
X151989714Y-138952285D01*
X153361142Y-139580857D02*
X153246857Y-139523714D01*
X153189714Y-139466571D01*
X153132571Y-139352285D01*
X153132571Y-139009428D01*
X153189714Y-138895142D01*
X153246857Y-138838000D01*
X153361142Y-138780857D01*
X153532571Y-138780857D01*
X153646857Y-138838000D01*
X153704000Y-138895142D01*
X153761142Y-139009428D01*
X153761142Y-139352285D01*
X153704000Y-139466571D01*
X153646857Y-139523714D01*
X153532571Y-139580857D01*
X153361142Y-139580857D01*
X154789714Y-139580857D02*
X154789714Y-138952285D01*
X154732571Y-138838000D01*
X154618285Y-138780857D01*
X154389714Y-138780857D01*
X154275428Y-138838000D01*
X154789714Y-139523714D02*
X154675428Y-139580857D01*
X154389714Y-139580857D01*
X154275428Y-139523714D01*
X154218285Y-139409428D01*
X154218285Y-139295142D01*
X154275428Y-139180857D01*
X154389714Y-139123714D01*
X154675428Y-139123714D01*
X154789714Y-139066571D01*
X155361142Y-139580857D02*
X155361142Y-138780857D01*
X155361142Y-139009428D02*
X155418285Y-138895142D01*
X155475428Y-138838000D01*
X155589714Y-138780857D01*
X155704000Y-138780857D01*
X156618285Y-139580857D02*
X156618285Y-138380857D01*
X156618285Y-139523714D02*
X156504000Y-139580857D01*
X156275428Y-139580857D01*
X156161142Y-139523714D01*
X156104000Y-139466571D01*
X156046857Y-139352285D01*
X156046857Y-139009428D01*
X156104000Y-138895142D01*
X156161142Y-138838000D01*
X156275428Y-138780857D01*
X156504000Y-138780857D01*
X156618285Y-138838000D01*
X157989714Y-138780857D02*
X158275428Y-139580857D01*
X158561142Y-138780857D01*
X159418285Y-138952285D02*
X159589714Y-139009428D01*
X159646857Y-139066571D01*
X159704000Y-139180857D01*
X159704000Y-139352285D01*
X159646857Y-139466571D01*
X159589714Y-139523714D01*
X159475428Y-139580857D01*
X159018285Y-139580857D01*
X159018285Y-138380857D01*
X159418285Y-138380857D01*
X159532571Y-138438000D01*
X159589714Y-138495142D01*
X159646857Y-138609428D01*
X159646857Y-138723714D01*
X159589714Y-138838000D01*
X159532571Y-138895142D01*
X159418285Y-138952285D01*
X159018285Y-138952285D01*
X160161142Y-138495142D02*
X160218285Y-138438000D01*
X160332571Y-138380857D01*
X160618285Y-138380857D01*
X160732571Y-138438000D01*
X160789714Y-138495142D01*
X160846857Y-138609428D01*
X160846857Y-138723714D01*
X160789714Y-138895142D01*
X160104000Y-139580857D01*
X160846857Y-139580857D01*
X165018285Y-139580857D02*
X165018285Y-138380857D01*
X165704000Y-139580857D02*
X165189714Y-138895142D01*
X165704000Y-138380857D02*
X165018285Y-139066571D01*
X166218285Y-138380857D02*
X166218285Y-139352285D01*
X166275428Y-139466571D01*
X166332571Y-139523714D01*
X166446857Y-139580857D01*
X166675428Y-139580857D01*
X166789714Y-139523714D01*
X166846857Y-139466571D01*
X166904000Y-139352285D01*
X166904000Y-138380857D01*
X167418285Y-138495142D02*
X167475428Y-138438000D01*
X167589714Y-138380857D01*
X167875428Y-138380857D01*
X167989714Y-138438000D01*
X168046857Y-138495142D01*
X168104000Y-138609428D01*
X168104000Y-138723714D01*
X168046857Y-138895142D01*
X167361142Y-139580857D01*
X168104000Y-139580857D01*
X168846857Y-139009428D02*
X168846857Y-139580857D01*
X168446857Y-138380857D02*
X168846857Y-139009428D01*
X169246857Y-138380857D01*
X130828000Y-90882857D02*
X130828000Y-91854285D01*
X130885142Y-91968571D01*
X130942285Y-92025714D01*
X131056571Y-92082857D01*
X131285142Y-92082857D01*
X131399428Y-92025714D01*
X131456571Y-91968571D01*
X131513714Y-91854285D01*
X131513714Y-90882857D01*
X132713714Y-92082857D02*
X132028000Y-92082857D01*
X132370857Y-92082857D02*
X132370857Y-90882857D01*
X132256571Y-91054285D01*
X132142285Y-91168571D01*
X132028000Y-91225714D01*
X134542285Y-91454285D02*
X134713714Y-91511428D01*
X134770857Y-91568571D01*
X134828000Y-91682857D01*
X134828000Y-91854285D01*
X134770857Y-91968571D01*
X134713714Y-92025714D01*
X134599428Y-92082857D01*
X134142285Y-92082857D01*
X134142285Y-90882857D01*
X134542285Y-90882857D01*
X134656571Y-90940000D01*
X134713714Y-90997142D01*
X134770857Y-91111428D01*
X134770857Y-91225714D01*
X134713714Y-91340000D01*
X134656571Y-91397142D01*
X134542285Y-91454285D01*
X134142285Y-91454285D01*
X135513714Y-92082857D02*
X135399428Y-92025714D01*
X135342285Y-91968571D01*
X135285142Y-91854285D01*
X135285142Y-91511428D01*
X135342285Y-91397142D01*
X135399428Y-91340000D01*
X135513714Y-91282857D01*
X135685142Y-91282857D01*
X135799428Y-91340000D01*
X135856571Y-91397142D01*
X135913714Y-91511428D01*
X135913714Y-91854285D01*
X135856571Y-91968571D01*
X135799428Y-92025714D01*
X135685142Y-92082857D01*
X135513714Y-92082857D01*
X136599428Y-92082857D02*
X136485142Y-92025714D01*
X136428000Y-91968571D01*
X136370857Y-91854285D01*
X136370857Y-91511428D01*
X136428000Y-91397142D01*
X136485142Y-91340000D01*
X136599428Y-91282857D01*
X136770857Y-91282857D01*
X136885142Y-91340000D01*
X136942285Y-91397142D01*
X136999428Y-91511428D01*
X136999428Y-91854285D01*
X136942285Y-91968571D01*
X136885142Y-92025714D01*
X136770857Y-92082857D01*
X136599428Y-92082857D01*
X137456571Y-92025714D02*
X137570857Y-92082857D01*
X137799428Y-92082857D01*
X137913714Y-92025714D01*
X137970857Y-91911428D01*
X137970857Y-91854285D01*
X137913714Y-91740000D01*
X137799428Y-91682857D01*
X137628000Y-91682857D01*
X137513714Y-91625714D01*
X137456571Y-91511428D01*
X137456571Y-91454285D01*
X137513714Y-91340000D01*
X137628000Y-91282857D01*
X137799428Y-91282857D01*
X137913714Y-91340000D01*
X138313714Y-91282857D02*
X138770857Y-91282857D01*
X138485142Y-90882857D02*
X138485142Y-91911428D01*
X138542285Y-92025714D01*
X138656571Y-92082857D01*
X138770857Y-92082857D01*
X140770857Y-91968571D02*
X140713714Y-92025714D01*
X140542285Y-92082857D01*
X140428000Y-92082857D01*
X140256571Y-92025714D01*
X140142285Y-91911428D01*
X140085142Y-91797142D01*
X140028000Y-91568571D01*
X140028000Y-91397142D01*
X140085142Y-91168571D01*
X140142285Y-91054285D01*
X140256571Y-90940000D01*
X140428000Y-90882857D01*
X140542285Y-90882857D01*
X140713714Y-90940000D01*
X140770857Y-90997142D01*
X141456571Y-92082857D02*
X141342285Y-92025714D01*
X141285142Y-91968571D01*
X141228000Y-91854285D01*
X141228000Y-91511428D01*
X141285142Y-91397142D01*
X141342285Y-91340000D01*
X141456571Y-91282857D01*
X141628000Y-91282857D01*
X141742285Y-91340000D01*
X141799428Y-91397142D01*
X141856571Y-91511428D01*
X141856571Y-91854285D01*
X141799428Y-91968571D01*
X141742285Y-92025714D01*
X141628000Y-92082857D01*
X141456571Y-92082857D01*
X142370857Y-91282857D02*
X142370857Y-92082857D01*
X142370857Y-91397142D02*
X142428000Y-91340000D01*
X142542285Y-91282857D01*
X142713714Y-91282857D01*
X142828000Y-91340000D01*
X142885142Y-91454285D01*
X142885142Y-92082857D01*
X143342285Y-91282857D02*
X143628000Y-92082857D01*
X143913714Y-91282857D01*
X144828000Y-92025714D02*
X144713714Y-92082857D01*
X144485142Y-92082857D01*
X144370857Y-92025714D01*
X144313714Y-91911428D01*
X144313714Y-91454285D01*
X144370857Y-91340000D01*
X144485142Y-91282857D01*
X144713714Y-91282857D01*
X144828000Y-91340000D01*
X144885142Y-91454285D01*
X144885142Y-91568571D01*
X144313714Y-91682857D01*
X145399428Y-92082857D02*
X145399428Y-91282857D01*
X145399428Y-91511428D02*
X145456571Y-91397142D01*
X145513714Y-91340000D01*
X145628000Y-91282857D01*
X145742285Y-91282857D01*
X145970857Y-91282857D02*
X146428000Y-91282857D01*
X146142285Y-90882857D02*
X146142285Y-91911428D01*
X146199428Y-92025714D01*
X146313714Y-92082857D01*
X146428000Y-92082857D01*
X147285142Y-92025714D02*
X147170857Y-92082857D01*
X146942285Y-92082857D01*
X146828000Y-92025714D01*
X146770857Y-91911428D01*
X146770857Y-91454285D01*
X146828000Y-91340000D01*
X146942285Y-91282857D01*
X147170857Y-91282857D01*
X147285142Y-91340000D01*
X147342285Y-91454285D01*
X147342285Y-91568571D01*
X146770857Y-91682857D01*
X147856571Y-92082857D02*
X147856571Y-91282857D01*
X147856571Y-91511428D02*
X147913714Y-91397142D01*
X147970857Y-91340000D01*
X148085142Y-91282857D01*
X148199428Y-91282857D01*
X149513714Y-92082857D02*
X149513714Y-90882857D01*
X149913714Y-91740000D01*
X150313714Y-90882857D01*
X150313714Y-92082857D01*
X151056571Y-92082857D02*
X150942285Y-92025714D01*
X150885142Y-91968571D01*
X150828000Y-91854285D01*
X150828000Y-91511428D01*
X150885142Y-91397142D01*
X150942285Y-91340000D01*
X151056571Y-91282857D01*
X151228000Y-91282857D01*
X151342285Y-91340000D01*
X151399428Y-91397142D01*
X151456571Y-91511428D01*
X151456571Y-91854285D01*
X151399428Y-91968571D01*
X151342285Y-92025714D01*
X151228000Y-92082857D01*
X151056571Y-92082857D01*
X152485142Y-92082857D02*
X152485142Y-90882857D01*
X152485142Y-92025714D02*
X152370857Y-92082857D01*
X152142285Y-92082857D01*
X152028000Y-92025714D01*
X151970857Y-91968571D01*
X151913714Y-91854285D01*
X151913714Y-91511428D01*
X151970857Y-91397142D01*
X152028000Y-91340000D01*
X152142285Y-91282857D01*
X152370857Y-91282857D01*
X152485142Y-91340000D01*
X153570857Y-91282857D02*
X153570857Y-92082857D01*
X153056571Y-91282857D02*
X153056571Y-91911428D01*
X153113714Y-92025714D01*
X153228000Y-92082857D01*
X153399428Y-92082857D01*
X153513714Y-92025714D01*
X153570857Y-91968571D01*
X154313714Y-92082857D02*
X154199428Y-92025714D01*
X154142285Y-91911428D01*
X154142285Y-90882857D01*
X155228000Y-92025714D02*
X155113714Y-92082857D01*
X154885142Y-92082857D01*
X154770857Y-92025714D01*
X154713714Y-91911428D01*
X154713714Y-91454285D01*
X154770857Y-91340000D01*
X154885142Y-91282857D01*
X155113714Y-91282857D01*
X155228000Y-91340000D01*
X155285142Y-91454285D01*
X155285142Y-91568571D01*
X154713714Y-91682857D01*
X118644000Y-104240000D02*
X118644000Y-81888000D01*
X163602000Y-104240000D02*
X118644000Y-104240000D01*
X163602000Y-81888000D02*
X163602000Y-104240000D01*
X118898000Y-81888000D02*
X163602000Y-81888000D01*
D12*
G04 #@! TO.C,GPIO*
X162880000Y-77420000D02*
X162880000Y-72220000D01*
X114560000Y-77420000D02*
X162880000Y-77420000D01*
X111960000Y-72220000D02*
X162880000Y-72220000D01*
X114560000Y-77420000D02*
X114560000Y-74820000D01*
X114560000Y-74820000D02*
X111960000Y-74820000D01*
X111960000Y-74820000D02*
X111960000Y-72220000D01*
X113290000Y-77420000D02*
X111960000Y-77420000D01*
X111960000Y-77420000D02*
X111960000Y-76090000D01*
D13*
G04 #@! TO.C,J17*
X182794000Y-89416000D02*
X168794000Y-89416000D01*
X168794000Y-89416000D02*
X168794000Y-77916000D01*
X168794000Y-77916000D02*
X182794000Y-77916000D01*
X182794000Y-77916000D02*
X182794000Y-80416000D01*
X182794000Y-80416000D02*
X182794000Y-86416000D01*
X182794000Y-86416000D02*
X182794000Y-89416000D01*
D11*
X180994000Y-77416000D02*
G75*
G03X180994000Y-77416000I-100000J0D01*
G01*
D13*
X182794000Y-86416000D02*
X186294000Y-86416000D01*
X186294000Y-86416000D02*
X186294000Y-80416000D01*
X186294000Y-80416000D02*
X182794000Y-80416000D01*
D12*
G04 #@! TO.C,IN+*
X120930000Y-82590000D02*
X122260000Y-82590000D01*
X122260000Y-82590000D02*
X122260000Y-83920000D01*
X122260000Y-85130000D02*
X122260000Y-85250000D01*
X119600000Y-85130000D02*
X119600000Y-85250000D01*
X119600000Y-85250000D02*
X122260000Y-85250000D01*
G04 #@! TO.C,IN-*
X119600000Y-103030000D02*
X122260000Y-103030000D01*
X119600000Y-102910000D02*
X119600000Y-103030000D01*
X122260000Y-102910000D02*
X122260000Y-103030000D01*
X122260000Y-100370000D02*
X122260000Y-101700000D01*
X120930000Y-100370000D02*
X122260000Y-100370000D01*
G04 #@! TO.C,OUT+*
X161570000Y-82590000D02*
X162900000Y-82590000D01*
X162900000Y-82590000D02*
X162900000Y-83920000D01*
X162900000Y-85130000D02*
X162900000Y-85250000D01*
X160240000Y-85130000D02*
X160240000Y-85250000D01*
X160240000Y-85250000D02*
X162900000Y-85250000D01*
G04 #@! TO.C,OUT-*
X160240000Y-103030000D02*
X162900000Y-103030000D01*
X160240000Y-102910000D02*
X160240000Y-103030000D01*
X162900000Y-102910000D02*
X162900000Y-103030000D01*
X162900000Y-100370000D02*
X162900000Y-101700000D01*
X161570000Y-100370000D02*
X162900000Y-100370000D01*
G04 #@! TO.C,J11*
X123918000Y-135288000D02*
X126578000Y-135288000D01*
X123918000Y-122528000D02*
X123918000Y-135288000D01*
X126578000Y-122528000D02*
X126578000Y-135288000D01*
X123918000Y-122528000D02*
X126578000Y-122528000D01*
X123918000Y-121258000D02*
X123918000Y-119928000D01*
X123918000Y-119928000D02*
X125248000Y-119928000D01*
G04 #@! TO.C,J6*
X109560000Y-137260000D02*
X106900000Y-137260000D01*
X109560000Y-137260000D02*
X109560000Y-127040000D01*
X109560000Y-127040000D02*
X106900000Y-127040000D01*
X106900000Y-137260000D02*
X106900000Y-127040000D01*
X106900000Y-139860000D02*
X106900000Y-138530000D01*
X108230000Y-139860000D02*
X106900000Y-139860000D01*
G04 #@! TO.C,R1*
X151510000Y-80110000D02*
X154120000Y-80110000D01*
X151510000Y-80110000D02*
G75*
G03X151510000Y-80110000I-1370000J0D01*
G01*
G04 #@! TO.C,R2*
X142620000Y-80046500D02*
G75*
G03X142620000Y-80046500I-1370000J0D01*
G01*
X142620000Y-80046500D02*
X145230000Y-80046500D01*
G04 #@! TO.C,J2*
X174330000Y-109260000D02*
X171670000Y-109260000D01*
X174330000Y-111860000D02*
X174330000Y-109260000D01*
X171670000Y-111860000D02*
X171670000Y-109260000D01*
X174330000Y-111860000D02*
X171670000Y-111860000D01*
X174330000Y-113130000D02*
X174330000Y-114460000D01*
X174330000Y-114460000D02*
X173000000Y-114460000D01*
G04 #@! TO.C,J10*
X133062000Y-135034000D02*
X135722000Y-135034000D01*
X133062000Y-122274000D02*
X133062000Y-135034000D01*
X135722000Y-122274000D02*
X135722000Y-135034000D01*
X133062000Y-122274000D02*
X135722000Y-122274000D01*
X133062000Y-121004000D02*
X133062000Y-119674000D01*
X133062000Y-119674000D02*
X134392000Y-119674000D01*
G04 #@! TO.C,J12*
X114774000Y-119674000D02*
X116104000Y-119674000D01*
X114774000Y-121004000D02*
X114774000Y-119674000D01*
X114774000Y-122274000D02*
X117434000Y-122274000D01*
X117434000Y-122274000D02*
X117434000Y-135034000D01*
X114774000Y-122274000D02*
X114774000Y-135034000D01*
X114774000Y-135034000D02*
X117434000Y-135034000D01*
G04 #@! TO.C,J8*
X151159500Y-135288000D02*
X153819500Y-135288000D01*
X151159500Y-122528000D02*
X151159500Y-135288000D01*
X153819500Y-122528000D02*
X153819500Y-135288000D01*
X151159500Y-122528000D02*
X153819500Y-122528000D01*
X151159500Y-121258000D02*
X151159500Y-119928000D01*
X151159500Y-119928000D02*
X152489500Y-119928000D01*
G04 #@! TO.C,J7*
X159986000Y-119928000D02*
X161316000Y-119928000D01*
X159986000Y-121258000D02*
X159986000Y-119928000D01*
X159986000Y-122528000D02*
X162646000Y-122528000D01*
X162646000Y-122528000D02*
X162646000Y-135288000D01*
X159986000Y-122528000D02*
X159986000Y-135288000D01*
X159986000Y-135288000D02*
X162646000Y-135288000D01*
G04 #@! TO.C,J9*
X142206000Y-135288000D02*
X144866000Y-135288000D01*
X142206000Y-122528000D02*
X142206000Y-135288000D01*
X144866000Y-122528000D02*
X144866000Y-135288000D01*
X142206000Y-122528000D02*
X144866000Y-122528000D01*
X142206000Y-121258000D02*
X142206000Y-119928000D01*
X142206000Y-119928000D02*
X143536000Y-119928000D01*
G04 #@! TO.C,J1*
X174330000Y-114340000D02*
X171670000Y-114340000D01*
X174330000Y-137260000D02*
X174330000Y-114340000D01*
X171670000Y-137260000D02*
X171670000Y-114340000D01*
X174330000Y-137260000D02*
X171670000Y-137260000D01*
X174330000Y-138530000D02*
X174330000Y-139860000D01*
X174330000Y-139860000D02*
X173000000Y-139860000D01*
G04 #@! TO.C,D4*
X151890635Y-106907000D02*
X152550000Y-106907000D01*
X151890635Y-106907000D02*
G75*
G03X151890635Y-106907000I-1750635J0D01*
G01*
G04 #@! TO.C,D3*
X141794135Y-106843500D02*
G75*
G03X141794135Y-106843500I-1750635J0D01*
G01*
X141794135Y-106843500D02*
X142453500Y-106843500D01*
G04 #@! TO.C,D5*
X161352135Y-106589500D02*
X162011500Y-106589500D01*
X161352135Y-106589500D02*
G75*
G03X161352135Y-106589500I-1750635J0D01*
G01*
G04 #@! TO.C,D2*
X131951635Y-106843500D02*
G75*
G03X131951635Y-106843500I-1750635J0D01*
G01*
X131951635Y-106843500D02*
X132611000Y-106843500D01*
G04 #@! TO.C,J5*
X181188000Y-93632000D02*
X181188000Y-90972000D01*
X170968000Y-93632000D02*
X181188000Y-93632000D01*
X170968000Y-90972000D02*
X181188000Y-90972000D01*
X170968000Y-93632000D02*
X170968000Y-90972000D01*
X169698000Y-93632000D02*
X168368000Y-93632000D01*
X168368000Y-93632000D02*
X168368000Y-92302000D01*
G04 #@! TO.C,D1*
X122045635Y-106780000D02*
G75*
G03X122045635Y-106780000I-1750635J0D01*
G01*
X122045635Y-106780000D02*
X122705000Y-106780000D01*
G04 #@! TO.C,J4*
D14*
X175460666Y-97088380D02*
X175460666Y-97802666D01*
X175413047Y-97945523D01*
X175317809Y-98040761D01*
X175174952Y-98088380D01*
X175079714Y-98088380D01*
X176365428Y-97421714D02*
X176365428Y-98088380D01*
X176127333Y-97040761D02*
X175889238Y-97755047D01*
X176508285Y-97755047D01*
G04 #@! TO.C,J3*
X175714666Y-104962380D02*
X175714666Y-105676666D01*
X175667047Y-105819523D01*
X175571809Y-105914761D01*
X175428952Y-105962380D01*
X175333714Y-105962380D01*
X176095619Y-104962380D02*
X176714666Y-104962380D01*
X176381333Y-105343333D01*
X176524190Y-105343333D01*
X176619428Y-105390952D01*
X176667047Y-105438571D01*
X176714666Y-105533809D01*
X176714666Y-105771904D01*
X176667047Y-105867142D01*
X176619428Y-105914761D01*
X176524190Y-105962380D01*
X176238476Y-105962380D01*
X176143238Y-105914761D01*
X176095619Y-105867142D01*
G04 #@! TO.C,GPIO*
X125772000Y-79102000D02*
X125676761Y-79054380D01*
X125533904Y-79054380D01*
X125391047Y-79102000D01*
X125295809Y-79197238D01*
X125248190Y-79292476D01*
X125200571Y-79482952D01*
X125200571Y-79625809D01*
X125248190Y-79816285D01*
X125295809Y-79911523D01*
X125391047Y-80006761D01*
X125533904Y-80054380D01*
X125629142Y-80054380D01*
X125772000Y-80006761D01*
X125819619Y-79959142D01*
X125819619Y-79625809D01*
X125629142Y-79625809D01*
X126248190Y-80054380D02*
X126248190Y-79054380D01*
X126629142Y-79054380D01*
X126724380Y-79102000D01*
X126772000Y-79149619D01*
X126819619Y-79244857D01*
X126819619Y-79387714D01*
X126772000Y-79482952D01*
X126724380Y-79530571D01*
X126629142Y-79578190D01*
X126248190Y-79578190D01*
X127248190Y-80054380D02*
X127248190Y-79054380D01*
X127914857Y-79054380D02*
X128105333Y-79054380D01*
X128200571Y-79102000D01*
X128295809Y-79197238D01*
X128343428Y-79387714D01*
X128343428Y-79721047D01*
X128295809Y-79911523D01*
X128200571Y-80006761D01*
X128105333Y-80054380D01*
X127914857Y-80054380D01*
X127819619Y-80006761D01*
X127724380Y-79911523D01*
X127676761Y-79721047D01*
X127676761Y-79387714D01*
X127724380Y-79197238D01*
X127819619Y-79102000D01*
X127914857Y-79054380D01*
G04 #@! TO.C,J17*
D15*
X166639658Y-84497904D02*
X166639658Y-85069333D01*
X166609168Y-85183619D01*
X166548186Y-85259809D01*
X166456714Y-85297904D01*
X166395733Y-85297904D01*
X167279962Y-85297904D02*
X166914074Y-85297904D01*
X167097018Y-85297904D02*
X167097018Y-84497904D01*
X167036037Y-84612190D01*
X166975056Y-84688380D01*
X166914074Y-84726476D01*
X167493397Y-84497904D02*
X167920266Y-84497904D01*
X167645850Y-85297904D01*
G04 #@! TO.C,IN+*
D14*
X119787142Y-81602380D02*
X119787142Y-80602380D01*
X120263333Y-81602380D02*
X120263333Y-80602380D01*
X120834761Y-81602380D01*
X120834761Y-80602380D01*
X121310952Y-81221428D02*
X122072857Y-81221428D01*
X121691904Y-81602380D02*
X121691904Y-80840476D01*
G04 #@! TO.C,IN-*
X120041142Y-104946380D02*
X120041142Y-103946380D01*
X120517333Y-104946380D02*
X120517333Y-103946380D01*
X121088761Y-104946380D01*
X121088761Y-103946380D01*
X121564952Y-104565428D02*
X122326857Y-104565428D01*
G04 #@! TO.C,OUT+*
X159950952Y-80602380D02*
X160141428Y-80602380D01*
X160236666Y-80650000D01*
X160331904Y-80745238D01*
X160379523Y-80935714D01*
X160379523Y-81269047D01*
X160331904Y-81459523D01*
X160236666Y-81554761D01*
X160141428Y-81602380D01*
X159950952Y-81602380D01*
X159855714Y-81554761D01*
X159760476Y-81459523D01*
X159712857Y-81269047D01*
X159712857Y-80935714D01*
X159760476Y-80745238D01*
X159855714Y-80650000D01*
X159950952Y-80602380D01*
X160808095Y-80602380D02*
X160808095Y-81411904D01*
X160855714Y-81507142D01*
X160903333Y-81554761D01*
X160998571Y-81602380D01*
X161189047Y-81602380D01*
X161284285Y-81554761D01*
X161331904Y-81507142D01*
X161379523Y-81411904D01*
X161379523Y-80602380D01*
X161712857Y-80602380D02*
X162284285Y-80602380D01*
X161998571Y-81602380D02*
X161998571Y-80602380D01*
X162617619Y-81221428D02*
X163379523Y-81221428D01*
X162998571Y-81602380D02*
X162998571Y-80840476D01*
G04 #@! TO.C,OUT-*
X161220952Y-103946380D02*
X161411428Y-103946380D01*
X161506666Y-103994000D01*
X161601904Y-104089238D01*
X161649523Y-104279714D01*
X161649523Y-104613047D01*
X161601904Y-104803523D01*
X161506666Y-104898761D01*
X161411428Y-104946380D01*
X161220952Y-104946380D01*
X161125714Y-104898761D01*
X161030476Y-104803523D01*
X160982857Y-104613047D01*
X160982857Y-104279714D01*
X161030476Y-104089238D01*
X161125714Y-103994000D01*
X161220952Y-103946380D01*
X162078095Y-103946380D02*
X162078095Y-104755904D01*
X162125714Y-104851142D01*
X162173333Y-104898761D01*
X162268571Y-104946380D01*
X162459047Y-104946380D01*
X162554285Y-104898761D01*
X162601904Y-104851142D01*
X162649523Y-104755904D01*
X162649523Y-103946380D01*
X162982857Y-103946380D02*
X163554285Y-103946380D01*
X163268571Y-104946380D02*
X163268571Y-103946380D01*
X163887619Y-104565428D02*
X164649523Y-104565428D01*
G04 #@! TO.C,J11*
X124438476Y-135950380D02*
X124438476Y-136664666D01*
X124390857Y-136807523D01*
X124295619Y-136902761D01*
X124152761Y-136950380D01*
X124057523Y-136950380D01*
X125438476Y-136950380D02*
X124867047Y-136950380D01*
X125152761Y-136950380D02*
X125152761Y-135950380D01*
X125057523Y-136093238D01*
X124962285Y-136188476D01*
X124867047Y-136236095D01*
X126390857Y-136950380D02*
X125819428Y-136950380D01*
X126105142Y-136950380D02*
X126105142Y-135950380D01*
X126009904Y-136093238D01*
X125914666Y-136188476D01*
X125819428Y-136236095D01*
G04 #@! TO.C,J6*
X105610666Y-137220380D02*
X105610666Y-137934666D01*
X105563047Y-138077523D01*
X105467809Y-138172761D01*
X105324952Y-138220380D01*
X105229714Y-138220380D01*
X106515428Y-137220380D02*
X106324952Y-137220380D01*
X106229714Y-137268000D01*
X106182095Y-137315619D01*
X106086857Y-137458476D01*
X106039238Y-137648952D01*
X106039238Y-138029904D01*
X106086857Y-138125142D01*
X106134476Y-138172761D01*
X106229714Y-138220380D01*
X106420190Y-138220380D01*
X106515428Y-138172761D01*
X106563047Y-138125142D01*
X106610666Y-138029904D01*
X106610666Y-137791809D01*
X106563047Y-137696571D01*
X106515428Y-137648952D01*
X106420190Y-137601333D01*
X106229714Y-137601333D01*
X106134476Y-137648952D01*
X106086857Y-137696571D01*
X106039238Y-137791809D01*
G04 #@! TO.C,R1*
X152259333Y-79292380D02*
X151926000Y-78816190D01*
X151687904Y-79292380D02*
X151687904Y-78292380D01*
X152068857Y-78292380D01*
X152164095Y-78340000D01*
X152211714Y-78387619D01*
X152259333Y-78482857D01*
X152259333Y-78625714D01*
X152211714Y-78720952D01*
X152164095Y-78768571D01*
X152068857Y-78816190D01*
X151687904Y-78816190D01*
X153211714Y-79292380D02*
X152640285Y-79292380D01*
X152926000Y-79292380D02*
X152926000Y-78292380D01*
X152830761Y-78435238D01*
X152735523Y-78530476D01*
X152640285Y-78578095D01*
G04 #@! TO.C,R2*
X143623333Y-79038380D02*
X143290000Y-78562190D01*
X143051904Y-79038380D02*
X143051904Y-78038380D01*
X143432857Y-78038380D01*
X143528095Y-78086000D01*
X143575714Y-78133619D01*
X143623333Y-78228857D01*
X143623333Y-78371714D01*
X143575714Y-78466952D01*
X143528095Y-78514571D01*
X143432857Y-78562190D01*
X143051904Y-78562190D01*
X144004285Y-78133619D02*
X144051904Y-78086000D01*
X144147142Y-78038380D01*
X144385238Y-78038380D01*
X144480476Y-78086000D01*
X144528095Y-78133619D01*
X144575714Y-78228857D01*
X144575714Y-78324095D01*
X144528095Y-78466952D01*
X143956666Y-79038380D01*
X144575714Y-79038380D01*
G04 #@! TO.C,J2*
X175460666Y-112582380D02*
X175460666Y-113296666D01*
X175413047Y-113439523D01*
X175317809Y-113534761D01*
X175174952Y-113582380D01*
X175079714Y-113582380D01*
X175889238Y-112677619D02*
X175936857Y-112630000D01*
X176032095Y-112582380D01*
X176270190Y-112582380D01*
X176365428Y-112630000D01*
X176413047Y-112677619D01*
X176460666Y-112772857D01*
X176460666Y-112868095D01*
X176413047Y-113010952D01*
X175841619Y-113582380D01*
X176460666Y-113582380D01*
G04 #@! TO.C,J10*
X133582476Y-135696380D02*
X133582476Y-136410666D01*
X133534857Y-136553523D01*
X133439619Y-136648761D01*
X133296761Y-136696380D01*
X133201523Y-136696380D01*
X134582476Y-136696380D02*
X134011047Y-136696380D01*
X134296761Y-136696380D02*
X134296761Y-135696380D01*
X134201523Y-135839238D01*
X134106285Y-135934476D01*
X134011047Y-135982095D01*
X135201523Y-135696380D02*
X135296761Y-135696380D01*
X135392000Y-135744000D01*
X135439619Y-135791619D01*
X135487238Y-135886857D01*
X135534857Y-136077333D01*
X135534857Y-136315428D01*
X135487238Y-136505904D01*
X135439619Y-136601142D01*
X135392000Y-136648761D01*
X135296761Y-136696380D01*
X135201523Y-136696380D01*
X135106285Y-136648761D01*
X135058666Y-136601142D01*
X135011047Y-136505904D01*
X134963428Y-136315428D01*
X134963428Y-136077333D01*
X135011047Y-135886857D01*
X135058666Y-135791619D01*
X135106285Y-135744000D01*
X135201523Y-135696380D01*
G04 #@! TO.C,J12*
X115294476Y-135696380D02*
X115294476Y-136410666D01*
X115246857Y-136553523D01*
X115151619Y-136648761D01*
X115008761Y-136696380D01*
X114913523Y-136696380D01*
X116294476Y-136696380D02*
X115723047Y-136696380D01*
X116008761Y-136696380D02*
X116008761Y-135696380D01*
X115913523Y-135839238D01*
X115818285Y-135934476D01*
X115723047Y-135982095D01*
X116675428Y-135791619D02*
X116723047Y-135744000D01*
X116818285Y-135696380D01*
X117056380Y-135696380D01*
X117151619Y-135744000D01*
X117199238Y-135791619D01*
X117246857Y-135886857D01*
X117246857Y-135982095D01*
X117199238Y-136124952D01*
X116627809Y-136696380D01*
X117246857Y-136696380D01*
G04 #@! TO.C,J8*
X151838666Y-135950380D02*
X151838666Y-136664666D01*
X151791047Y-136807523D01*
X151695809Y-136902761D01*
X151552952Y-136950380D01*
X151457714Y-136950380D01*
X152457714Y-136378952D02*
X152362476Y-136331333D01*
X152314857Y-136283714D01*
X152267238Y-136188476D01*
X152267238Y-136140857D01*
X152314857Y-136045619D01*
X152362476Y-135998000D01*
X152457714Y-135950380D01*
X152648190Y-135950380D01*
X152743428Y-135998000D01*
X152791047Y-136045619D01*
X152838666Y-136140857D01*
X152838666Y-136188476D01*
X152791047Y-136283714D01*
X152743428Y-136331333D01*
X152648190Y-136378952D01*
X152457714Y-136378952D01*
X152362476Y-136426571D01*
X152314857Y-136474190D01*
X152267238Y-136569428D01*
X152267238Y-136759904D01*
X152314857Y-136855142D01*
X152362476Y-136902761D01*
X152457714Y-136950380D01*
X152648190Y-136950380D01*
X152743428Y-136902761D01*
X152791047Y-136855142D01*
X152838666Y-136759904D01*
X152838666Y-136569428D01*
X152791047Y-136474190D01*
X152743428Y-136426571D01*
X152648190Y-136378952D01*
G04 #@! TO.C,J7*
X161236666Y-135696380D02*
X161236666Y-136410666D01*
X161189047Y-136553523D01*
X161093809Y-136648761D01*
X160950952Y-136696380D01*
X160855714Y-136696380D01*
X161617619Y-135696380D02*
X162284285Y-135696380D01*
X161855714Y-136696380D01*
G04 #@! TO.C,J9*
X143202666Y-135950380D02*
X143202666Y-136664666D01*
X143155047Y-136807523D01*
X143059809Y-136902761D01*
X142916952Y-136950380D01*
X142821714Y-136950380D01*
X143726476Y-136950380D02*
X143916952Y-136950380D01*
X144012190Y-136902761D01*
X144059809Y-136855142D01*
X144155047Y-136712285D01*
X144202666Y-136521809D01*
X144202666Y-136140857D01*
X144155047Y-136045619D01*
X144107428Y-135998000D01*
X144012190Y-135950380D01*
X143821714Y-135950380D01*
X143726476Y-135998000D01*
X143678857Y-136045619D01*
X143631238Y-136140857D01*
X143631238Y-136378952D01*
X143678857Y-136474190D01*
X143726476Y-136521809D01*
X143821714Y-136569428D01*
X144012190Y-136569428D01*
X144107428Y-136521809D01*
X144155047Y-136474190D01*
X144202666Y-136378952D01*
G04 #@! TO.C,J1*
X175460666Y-137728380D02*
X175460666Y-138442666D01*
X175413047Y-138585523D01*
X175317809Y-138680761D01*
X175174952Y-138728380D01*
X175079714Y-138728380D01*
X176460666Y-138728380D02*
X175889238Y-138728380D01*
X176174952Y-138728380D02*
X176174952Y-137728380D01*
X176079714Y-137871238D01*
X175984476Y-137966476D01*
X175889238Y-138014095D01*
G04 #@! TO.C,D4*
X151433904Y-110534380D02*
X151433904Y-109534380D01*
X151672000Y-109534380D01*
X151814857Y-109582000D01*
X151910095Y-109677238D01*
X151957714Y-109772476D01*
X152005333Y-109962952D01*
X152005333Y-110105809D01*
X151957714Y-110296285D01*
X151910095Y-110391523D01*
X151814857Y-110486761D01*
X151672000Y-110534380D01*
X151433904Y-110534380D01*
X152862476Y-109867714D02*
X152862476Y-110534380D01*
X152624380Y-109486761D02*
X152386285Y-110201047D01*
X153005333Y-110201047D01*
X153711904Y-109232666D02*
X154188095Y-109232666D01*
X153616666Y-109518380D02*
X153950000Y-108518380D01*
X154283333Y-109518380D01*
G04 #@! TO.C,D3*
X141210404Y-110534380D02*
X141210404Y-109534380D01*
X141448500Y-109534380D01*
X141591357Y-109582000D01*
X141686595Y-109677238D01*
X141734214Y-109772476D01*
X141781833Y-109962952D01*
X141781833Y-110105809D01*
X141734214Y-110296285D01*
X141686595Y-110391523D01*
X141591357Y-110486761D01*
X141448500Y-110534380D01*
X141210404Y-110534380D01*
X142115166Y-109534380D02*
X142734214Y-109534380D01*
X142400880Y-109915333D01*
X142543738Y-109915333D01*
X142638976Y-109962952D01*
X142686595Y-110010571D01*
X142734214Y-110105809D01*
X142734214Y-110343904D01*
X142686595Y-110439142D01*
X142638976Y-110486761D01*
X142543738Y-110534380D01*
X142258023Y-110534380D01*
X142162785Y-110486761D01*
X142115166Y-110439142D01*
X143551904Y-108978666D02*
X144028095Y-108978666D01*
X143456666Y-109264380D02*
X143790000Y-108264380D01*
X144123333Y-109264380D01*
G04 #@! TO.C,D5*
X160831904Y-110280380D02*
X160831904Y-109280380D01*
X161070000Y-109280380D01*
X161212857Y-109328000D01*
X161308095Y-109423238D01*
X161355714Y-109518476D01*
X161403333Y-109708952D01*
X161403333Y-109851809D01*
X161355714Y-110042285D01*
X161308095Y-110137523D01*
X161212857Y-110232761D01*
X161070000Y-110280380D01*
X160831904Y-110280380D01*
X162308095Y-109280380D02*
X161831904Y-109280380D01*
X161784285Y-109756571D01*
X161831904Y-109708952D01*
X161927142Y-109661333D01*
X162165238Y-109661333D01*
X162260476Y-109708952D01*
X162308095Y-109756571D01*
X162355714Y-109851809D01*
X162355714Y-110089904D01*
X162308095Y-110185142D01*
X162260476Y-110232761D01*
X162165238Y-110280380D01*
X161927142Y-110280380D01*
X161831904Y-110232761D01*
X161784285Y-110185142D01*
X163109904Y-108978666D02*
X163586095Y-108978666D01*
X163014666Y-109264380D02*
X163348000Y-108264380D01*
X163681333Y-109264380D01*
G04 #@! TO.C,D2*
X131367904Y-110534380D02*
X131367904Y-109534380D01*
X131606000Y-109534380D01*
X131748857Y-109582000D01*
X131844095Y-109677238D01*
X131891714Y-109772476D01*
X131939333Y-109962952D01*
X131939333Y-110105809D01*
X131891714Y-110296285D01*
X131844095Y-110391523D01*
X131748857Y-110486761D01*
X131606000Y-110534380D01*
X131367904Y-110534380D01*
X132320285Y-109629619D02*
X132367904Y-109582000D01*
X132463142Y-109534380D01*
X132701238Y-109534380D01*
X132796476Y-109582000D01*
X132844095Y-109629619D01*
X132891714Y-109724857D01*
X132891714Y-109820095D01*
X132844095Y-109962952D01*
X132272666Y-110534380D01*
X132891714Y-110534380D01*
X133899904Y-108978666D02*
X134376095Y-108978666D01*
X133804666Y-109264380D02*
X134138000Y-108264380D01*
X134471333Y-109264380D01*
G04 #@! TO.C,J5*
X166316666Y-91246380D02*
X166316666Y-91960666D01*
X166269047Y-92103523D01*
X166173809Y-92198761D01*
X166030952Y-92246380D01*
X165935714Y-92246380D01*
X167269047Y-91246380D02*
X166792857Y-91246380D01*
X166745238Y-91722571D01*
X166792857Y-91674952D01*
X166888095Y-91627333D01*
X167126190Y-91627333D01*
X167221428Y-91674952D01*
X167269047Y-91722571D01*
X167316666Y-91817809D01*
X167316666Y-92055904D01*
X167269047Y-92151142D01*
X167221428Y-92198761D01*
X167126190Y-92246380D01*
X166888095Y-92246380D01*
X166792857Y-92198761D01*
X166745238Y-92151142D01*
G04 #@! TO.C,D1*
X121461904Y-110534380D02*
X121461904Y-109534380D01*
X121700000Y-109534380D01*
X121842857Y-109582000D01*
X121938095Y-109677238D01*
X121985714Y-109772476D01*
X122033333Y-109962952D01*
X122033333Y-110105809D01*
X121985714Y-110296285D01*
X121938095Y-110391523D01*
X121842857Y-110486761D01*
X121700000Y-110534380D01*
X121461904Y-110534380D01*
X122985714Y-110534380D02*
X122414285Y-110534380D01*
X122700000Y-110534380D02*
X122700000Y-109534380D01*
X122604761Y-109677238D01*
X122509523Y-109772476D01*
X122414285Y-109820095D01*
X123739904Y-108978666D02*
X124216095Y-108978666D01*
X123644666Y-109264380D02*
X123978000Y-108264380D01*
X124311333Y-109264380D01*
G04 #@! TD*
M02*
