G04 #@! TF.GenerationSoftware,KiCad,Pcbnew,(5.0.1)-4*
G04 #@! TF.CreationDate,2019-01-24T22:07:47-05:00*
G04 #@! TF.ProjectId,cubesatsim_solar,6375626573617473696D5F736F6C6172,B1.1*
G04 #@! TF.SameCoordinates,Original*
G04 #@! TF.FileFunction,Copper,L1,Top,Signal*
G04 #@! TF.FilePolarity,Positive*
%FSLAX46Y46*%
G04 Gerber Fmt 4.6, Leading zero omitted, Abs format (unit mm)*
G04 Created by KiCad (PCBNEW (5.0.1)-4) date 1/24/2019 10:07:47 PM*
%MOMM*%
%LPD*%
G01*
G04 APERTURE LIST*
G04 #@! TA.AperFunction,ComponentPad*
%ADD10C,2.999740*%
G04 #@! TD*
G04 #@! TA.AperFunction,ComponentPad*
%ADD11R,2.999740X2.999740*%
G04 #@! TD*
G04 #@! TA.AperFunction,ComponentPad*
%ADD12R,1.700000X1.700000*%
G04 #@! TD*
G04 #@! TA.AperFunction,ComponentPad*
%ADD13O,1.700000X1.700000*%
G04 #@! TD*
G04 #@! TA.AperFunction,ComponentPad*
%ADD14O,1.258000X2.516000*%
G04 #@! TD*
G04 #@! TA.AperFunction,ComponentPad*
%ADD15O,2.516000X1.258000*%
G04 #@! TD*
G04 #@! TA.AperFunction,ComponentPad*
%ADD16O,1.600000X1.600000*%
G04 #@! TD*
G04 #@! TA.AperFunction,ComponentPad*
%ADD17C,1.600000*%
G04 #@! TD*
G04 #@! TA.AperFunction,ComponentPad*
%ADD18O,2.200000X2.200000*%
G04 #@! TD*
G04 #@! TA.AperFunction,ComponentPad*
%ADD19R,2.200000X2.200000*%
G04 #@! TD*
G04 #@! TA.AperFunction,ViaPad*
%ADD20C,0.889000*%
G04 #@! TD*
G04 #@! TA.AperFunction,Conductor*
%ADD21C,0.400000*%
G04 #@! TD*
G04 #@! TA.AperFunction,Conductor*
%ADD22C,0.254000*%
G04 #@! TD*
G04 APERTURE END LIST*
D10*
G04 #@! TO.P,J4,2*
G04 #@! TO.N,GND*
X173000000Y-99668000D03*
D11*
G04 #@! TO.P,J4,1*
G04 #@! TO.N,Net-(J17-Pad5)*
X173000000Y-95858000D03*
G04 #@! TD*
G04 #@! TO.P,J3,1*
G04 #@! TO.N,Net-(J17-Pad1)*
X173000000Y-103478000D03*
D10*
G04 #@! TO.P,J3,2*
G04 #@! TO.N,GND*
X173000000Y-107288000D03*
G04 #@! TD*
D12*
G04 #@! TO.P,GPIO,1*
G04 #@! TO.N,+3V3*
X113290000Y-76090000D03*
D13*
G04 #@! TO.P,GPIO,2*
G04 #@! TO.N,+5V*
X113290000Y-73550000D03*
G04 #@! TO.P,GPIO,3*
G04 #@! TO.N,SDA_1*
X115830000Y-76090000D03*
G04 #@! TO.P,GPIO,4*
G04 #@! TO.N,+5V*
X115830000Y-73550000D03*
G04 #@! TO.P,GPIO,5*
G04 #@! TO.N,SCL_1*
X118370000Y-76090000D03*
G04 #@! TO.P,GPIO,6*
G04 #@! TO.N,GND*
X118370000Y-73550000D03*
G04 #@! TO.P,GPIO,7*
G04 #@! TO.N,Net-(P3-Pad7)*
X120910000Y-76090000D03*
G04 #@! TO.P,GPIO,8*
G04 #@! TO.N,Net-(P3-Pad8)*
X120910000Y-73550000D03*
G04 #@! TO.P,GPIO,9*
G04 #@! TO.N,GND*
X123450000Y-76090000D03*
G04 #@! TO.P,GPIO,10*
G04 #@! TO.N,Net-(P3-Pad10)*
X123450000Y-73550000D03*
G04 #@! TO.P,GPIO,11*
G04 #@! TO.N,Net-(P3-Pad11)*
X125990000Y-76090000D03*
G04 #@! TO.P,GPIO,12*
G04 #@! TO.N,Net-(P3-Pad12)*
X125990000Y-73550000D03*
G04 #@! TO.P,GPIO,13*
G04 #@! TO.N,Net-(P3-Pad13)*
X128530000Y-76090000D03*
G04 #@! TO.P,GPIO,14*
G04 #@! TO.N,GND*
X128530000Y-73550000D03*
G04 #@! TO.P,GPIO,15*
G04 #@! TO.N,Net-(P3-Pad15)*
X131070000Y-76090000D03*
G04 #@! TO.P,GPIO,16*
G04 #@! TO.N,Net-(P3-Pad16)*
X131070000Y-73550000D03*
G04 #@! TO.P,GPIO,17*
G04 #@! TO.N,Net-(P3-Pad17)*
X133610000Y-76090000D03*
G04 #@! TO.P,GPIO,18*
G04 #@! TO.N,Net-(P3-Pad18)*
X133610000Y-73550000D03*
G04 #@! TO.P,GPIO,19*
G04 #@! TO.N,Net-(P3-Pad19)*
X136150000Y-76090000D03*
G04 #@! TO.P,GPIO,20*
G04 #@! TO.N,GND*
X136150000Y-73550000D03*
G04 #@! TO.P,GPIO,21*
G04 #@! TO.N,Net-(P3-Pad21)*
X138690000Y-76090000D03*
G04 #@! TO.P,GPIO,22*
G04 #@! TO.N,Net-(P3-Pad22)*
X138690000Y-73550000D03*
G04 #@! TO.P,GPIO,23*
G04 #@! TO.N,Net-(P3-Pad23)*
X141230000Y-76090000D03*
G04 #@! TO.P,GPIO,24*
G04 #@! TO.N,Net-(P3-Pad24)*
X141230000Y-73550000D03*
G04 #@! TO.P,GPIO,25*
G04 #@! TO.N,GND*
X143770000Y-76090000D03*
G04 #@! TO.P,GPIO,26*
G04 #@! TO.N,Net-(P3-Pad26)*
X143770000Y-73550000D03*
G04 #@! TO.P,GPIO,27*
G04 #@! TO.N,SDA_3*
X146310000Y-76090000D03*
G04 #@! TO.P,GPIO,28*
G04 #@! TO.N,SCL_3*
X146310000Y-73550000D03*
G04 #@! TO.P,GPIO,29*
G04 #@! TO.N,Net-(P3-Pad29)*
X148850000Y-76090000D03*
G04 #@! TO.P,GPIO,30*
G04 #@! TO.N,GND*
X148850000Y-73550000D03*
G04 #@! TO.P,GPIO,31*
G04 #@! TO.N,Net-(P3-Pad31)*
X151390000Y-76090000D03*
G04 #@! TO.P,GPIO,32*
G04 #@! TO.N,Net-(P3-Pad32)*
X151390000Y-73550000D03*
G04 #@! TO.P,GPIO,33*
G04 #@! TO.N,Net-(P3-Pad33)*
X153930000Y-76090000D03*
G04 #@! TO.P,GPIO,34*
G04 #@! TO.N,GND*
X153930000Y-73550000D03*
G04 #@! TO.P,GPIO,35*
G04 #@! TO.N,Net-(P3-Pad35)*
X156470000Y-76090000D03*
G04 #@! TO.P,GPIO,36*
G04 #@! TO.N,Net-(P3-Pad36)*
X156470000Y-73550000D03*
G04 #@! TO.P,GPIO,37*
G04 #@! TO.N,Net-(P3-Pad37)*
X159010000Y-76090000D03*
G04 #@! TO.P,GPIO,38*
G04 #@! TO.N,N/C*
X159010000Y-73550000D03*
G04 #@! TO.P,GPIO,39*
G04 #@! TO.N,GND*
X161550000Y-76090000D03*
G04 #@! TO.P,GPIO,40*
G04 #@! TO.N,Net-(P3-Pad40)*
X161550000Y-73550000D03*
G04 #@! TD*
D14*
G04 #@! TO.P,J17,1*
G04 #@! TO.N,Net-(J17-Pad1)*
X180794000Y-83416000D03*
D15*
G04 #@! TO.P,J17,2*
G04 #@! TO.N,Net-(J13-Pad1)*
X172994000Y-88616000D03*
G04 #@! TO.P,J17,3*
G04 #@! TO.N,Net-(D1-Pad1)*
X174394000Y-85916000D03*
D14*
G04 #@! TO.P,J17,4*
G04 #@! TO.N,Net-(J15-Pad1)*
X169794000Y-79416000D03*
D15*
G04 #@! TO.P,J17,5*
G04 #@! TO.N,Net-(J17-Pad5)*
X177394000Y-78916000D03*
G04 #@! TD*
D12*
G04 #@! TO.P,IN+,1*
G04 #@! TO.N,Net-(J13-Pad1)*
X120930000Y-83920000D03*
G04 #@! TD*
G04 #@! TO.P,IN-,1*
G04 #@! TO.N,GND*
X120930000Y-101700000D03*
G04 #@! TD*
G04 #@! TO.P,OUT+,1*
G04 #@! TO.N,Net-(J15-Pad1)*
X161570000Y-83920000D03*
G04 #@! TD*
G04 #@! TO.P,OUT-,1*
G04 #@! TO.N,GND*
X161570000Y-101700000D03*
G04 #@! TD*
G04 #@! TO.P,J11,1*
G04 #@! TO.N,X-In*
X125248000Y-121258000D03*
D13*
G04 #@! TO.P,J11,2*
G04 #@! TO.N,X-Out*
X125248000Y-123798000D03*
G04 #@! TO.P,J11,3*
G04 #@! TO.N,SDA_3*
X125248000Y-126338000D03*
G04 #@! TO.P,J11,4*
G04 #@! TO.N,SCL_3*
X125248000Y-128878000D03*
G04 #@! TO.P,J11,5*
G04 #@! TO.N,GND*
X125248000Y-131418000D03*
G04 #@! TO.P,J11,6*
G04 #@! TO.N,+3V3*
X125248000Y-133958000D03*
G04 #@! TD*
D12*
G04 #@! TO.P,J6,1*
G04 #@! TO.N,+5V*
X108230000Y-138530000D03*
D13*
G04 #@! TO.P,J6,2*
G04 #@! TO.N,+3V3*
X108230000Y-135990000D03*
G04 #@! TO.P,J6,3*
G04 #@! TO.N,GND*
X108230000Y-133450000D03*
G04 #@! TO.P,J6,4*
G04 #@! TO.N,SDA_3*
X108230000Y-130910000D03*
G04 #@! TO.P,J6,5*
G04 #@! TO.N,SCL_3*
X108230000Y-128370000D03*
G04 #@! TD*
D16*
G04 #@! TO.P,R1,2*
G04 #@! TO.N,SCL_3*
X155220000Y-80110000D03*
D17*
G04 #@! TO.P,R1,1*
G04 #@! TO.N,+3V3*
X150140000Y-80110000D03*
G04 #@! TD*
G04 #@! TO.P,R2,1*
G04 #@! TO.N,+3V3*
X141250000Y-80046500D03*
D16*
G04 #@! TO.P,R2,2*
G04 #@! TO.N,SDA_3*
X146330000Y-80046500D03*
G04 #@! TD*
D12*
G04 #@! TO.P,J2,1*
G04 #@! TO.N,VbattIn*
X173000000Y-113130000D03*
D13*
G04 #@! TO.P,J2,2*
G04 #@! TO.N,VbattOut*
X173000000Y-110590000D03*
G04 #@! TD*
D12*
G04 #@! TO.P,J10,1*
G04 #@! TO.N,VbattIn*
X134392000Y-121004000D03*
D13*
G04 #@! TO.P,J10,2*
G04 #@! TO.N,VbattOut*
X134392000Y-123544000D03*
G04 #@! TO.P,J10,3*
G04 #@! TO.N,SDA_1*
X134392000Y-126084000D03*
G04 #@! TO.P,J10,4*
G04 #@! TO.N,SCL_1*
X134392000Y-128624000D03*
G04 #@! TO.P,J10,5*
G04 #@! TO.N,GND*
X134392000Y-131164000D03*
G04 #@! TO.P,J10,6*
G04 #@! TO.N,+3V3*
X134392000Y-133704000D03*
G04 #@! TD*
G04 #@! TO.P,J12,6*
G04 #@! TO.N,+3V3*
X116104000Y-133704000D03*
G04 #@! TO.P,J12,5*
G04 #@! TO.N,GND*
X116104000Y-131164000D03*
G04 #@! TO.P,J12,4*
G04 #@! TO.N,SCL_3*
X116104000Y-128624000D03*
G04 #@! TO.P,J12,3*
G04 #@! TO.N,SDA_3*
X116104000Y-126084000D03*
G04 #@! TO.P,J12,2*
G04 #@! TO.N,Y-Out*
X116104000Y-123544000D03*
D12*
G04 #@! TO.P,J12,1*
G04 #@! TO.N,Y-In*
X116104000Y-121004000D03*
G04 #@! TD*
G04 #@! TO.P,J8,1*
G04 #@! TO.N,Y+In*
X152489500Y-121258000D03*
D13*
G04 #@! TO.P,J8,2*
G04 #@! TO.N,Y+Out*
X152489500Y-123798000D03*
G04 #@! TO.P,J8,3*
G04 #@! TO.N,SDA_1*
X152489500Y-126338000D03*
G04 #@! TO.P,J8,4*
G04 #@! TO.N,SCL_1*
X152489500Y-128878000D03*
G04 #@! TO.P,J8,5*
G04 #@! TO.N,GND*
X152489500Y-131418000D03*
G04 #@! TO.P,J8,6*
G04 #@! TO.N,+3V3*
X152489500Y-133958000D03*
G04 #@! TD*
G04 #@! TO.P,J7,6*
G04 #@! TO.N,+3V3*
X161316000Y-133958000D03*
G04 #@! TO.P,J7,5*
G04 #@! TO.N,GND*
X161316000Y-131418000D03*
G04 #@! TO.P,J7,4*
G04 #@! TO.N,SCL_1*
X161316000Y-128878000D03*
G04 #@! TO.P,J7,3*
G04 #@! TO.N,SDA_1*
X161316000Y-126338000D03*
G04 #@! TO.P,J7,2*
G04 #@! TO.N,X+Out*
X161316000Y-123798000D03*
D12*
G04 #@! TO.P,J7,1*
G04 #@! TO.N,X+In*
X161316000Y-121258000D03*
G04 #@! TD*
G04 #@! TO.P,J9,1*
G04 #@! TO.N,Z+In*
X143536000Y-121258000D03*
D13*
G04 #@! TO.P,J9,2*
G04 #@! TO.N,Z+Out*
X143536000Y-123798000D03*
G04 #@! TO.P,J9,3*
G04 #@! TO.N,SDA_1*
X143536000Y-126338000D03*
G04 #@! TO.P,J9,4*
G04 #@! TO.N,SCL_1*
X143536000Y-128878000D03*
G04 #@! TO.P,J9,5*
G04 #@! TO.N,GND*
X143536000Y-131418000D03*
G04 #@! TO.P,J9,6*
G04 #@! TO.N,+3V3*
X143536000Y-133958000D03*
G04 #@! TD*
D12*
G04 #@! TO.P,J1,1*
G04 #@! TO.N,X+In*
X173000000Y-138530000D03*
D13*
G04 #@! TO.P,J1,2*
G04 #@! TO.N,GND*
X173000000Y-135990000D03*
G04 #@! TO.P,J1,3*
G04 #@! TO.N,Y+In*
X173000000Y-133450000D03*
G04 #@! TO.P,J1,4*
G04 #@! TO.N,GND*
X173000000Y-130910000D03*
G04 #@! TO.P,J1,5*
G04 #@! TO.N,Z+In*
X173000000Y-128370000D03*
G04 #@! TO.P,J1,6*
G04 #@! TO.N,GND*
X173000000Y-125830000D03*
G04 #@! TO.P,J1,7*
G04 #@! TO.N,X-In*
X173000000Y-123290000D03*
G04 #@! TO.P,J1,8*
G04 #@! TO.N,GND*
X173000000Y-120750000D03*
G04 #@! TO.P,J1,9*
G04 #@! TO.N,Y-In*
X173000000Y-118210000D03*
G04 #@! TO.P,J1,10*
G04 #@! TO.N,GND*
X173000000Y-115670000D03*
G04 #@! TD*
D18*
G04 #@! TO.P,D4,2*
G04 #@! TO.N,X-Out*
X153950000Y-106907000D03*
D19*
G04 #@! TO.P,D4,1*
G04 #@! TO.N,Net-(D1-Pad1)*
X150140000Y-106907000D03*
G04 #@! TD*
G04 #@! TO.P,D3,1*
G04 #@! TO.N,Net-(D1-Pad1)*
X140043500Y-106843500D03*
D18*
G04 #@! TO.P,D3,2*
G04 #@! TO.N,Z+Out*
X143853500Y-106843500D03*
G04 #@! TD*
G04 #@! TO.P,D5,2*
G04 #@! TO.N,Y-Out*
X163411500Y-106589500D03*
D19*
G04 #@! TO.P,D5,1*
G04 #@! TO.N,Net-(D1-Pad1)*
X159601500Y-106589500D03*
G04 #@! TD*
G04 #@! TO.P,D2,1*
G04 #@! TO.N,Net-(D1-Pad1)*
X130201000Y-106843500D03*
D18*
G04 #@! TO.P,D2,2*
G04 #@! TO.N,Y+Out*
X134011000Y-106843500D03*
G04 #@! TD*
D12*
G04 #@! TO.P,J5,1*
G04 #@! TO.N,Net-(D1-Pad1)*
X169698000Y-92302000D03*
D13*
G04 #@! TO.P,J5,2*
G04 #@! TO.N,Net-(J13-Pad1)*
X172238000Y-92302000D03*
G04 #@! TO.P,J5,3*
G04 #@! TO.N,Net-(J15-Pad1)*
X174778000Y-92302000D03*
G04 #@! TO.P,J5,4*
G04 #@! TO.N,Net-(J17-Pad5)*
X177318000Y-92302000D03*
G04 #@! TO.P,J5,5*
G04 #@! TO.N,Net-(J17-Pad1)*
X179858000Y-92302000D03*
G04 #@! TD*
D19*
G04 #@! TO.P,D1,1*
G04 #@! TO.N,Net-(D1-Pad1)*
X120295000Y-106780000D03*
D18*
G04 #@! TO.P,D1,2*
G04 #@! TO.N,X+Out*
X124105000Y-106780000D03*
G04 #@! TD*
D20*
G04 #@! TO.N,SDA_1*
X120676000Y-125068000D03*
G04 #@! TO.N,SCL_1*
X122454000Y-127608000D03*
G04 #@! TO.N,Net-(D1-Pad1)*
X166650000Y-104240000D03*
G04 #@! TO.N,X+Out*
X159030000Y-110590000D03*
G04 #@! TO.N,Y+In*
X156928001Y-132618001D03*
G04 #@! TO.N,Z+In*
X147784001Y-127538001D03*
G04 #@! TO.N,VbattIn*
X134392000Y-116178000D03*
G04 #@! TO.N,VbattOut*
X169751928Y-118410072D03*
X136678000Y-118464000D03*
G04 #@! TO.N,+3V3*
X112040000Y-133704000D03*
X111786000Y-78078000D03*
G04 #@! TO.N,Y+Out*
X146330000Y-109320000D03*
G04 #@! TO.N,Y-Out*
X118390000Y-114400000D03*
X118390000Y-114400000D03*
X162840000Y-113130000D03*
G04 #@! TO.N,X-Out*
X126130501Y-113250501D03*
X126130501Y-113250501D03*
X153829499Y-113250501D03*
G04 #@! TO.N,SDA_3*
X114159999Y-129806001D03*
G04 #@! TD*
D21*
G04 #@! TO.N,GND*
X123450000Y-76090000D02*
X123450000Y-76320000D01*
X120930000Y-97910000D02*
X120930000Y-99160000D01*
X119729999Y-96709999D02*
X120930000Y-97910000D01*
X119729999Y-80040001D02*
X119729999Y-96709999D01*
X123450000Y-76320000D02*
X119729999Y-80040001D01*
X173849999Y-114820001D02*
X173000000Y-115670000D01*
X174270000Y-114400000D02*
X173849999Y-114820001D01*
X120930000Y-99160000D02*
X120930000Y-101700000D01*
G04 #@! TO.N,+5V*
X113290000Y-73550000D02*
X115830000Y-73550000D01*
X108230000Y-138530000D02*
X111532000Y-138530000D01*
X111532000Y-138530000D02*
X113056000Y-137006000D01*
X113056000Y-137006000D02*
X113056000Y-78964412D01*
X113056000Y-78964412D02*
X114490001Y-77530411D01*
X114490001Y-77530411D02*
X114490001Y-74750001D01*
X114139999Y-74399999D02*
X113290000Y-73550000D01*
X114490001Y-74750001D02*
X114139999Y-74399999D01*
G04 #@! TO.N,SDA_1*
X115830000Y-105145002D02*
X115830000Y-76090000D01*
X120676000Y-109991002D02*
X120676000Y-125068000D01*
X115830000Y-105145002D02*
X120676000Y-109991002D01*
G04 #@! TO.N,SCL_1*
X118370000Y-102024998D02*
X118370000Y-76090000D01*
X121745001Y-105399999D02*
X118370000Y-102024998D01*
X121745001Y-126899001D02*
X121745001Y-105399999D01*
X122454000Y-127608000D02*
X121745001Y-126899001D01*
G04 #@! TO.N,Net-(D1-Pad1)*
X169698000Y-91052000D02*
X169698000Y-92302000D01*
X169698000Y-88954000D02*
X169698000Y-91052000D01*
X172736000Y-85916000D02*
X169698000Y-88954000D01*
X174394000Y-85916000D02*
X172736000Y-85916000D01*
X168448000Y-92302000D02*
X169698000Y-92302000D01*
X166650000Y-94100000D02*
X168448000Y-92302000D01*
X166650000Y-104240000D02*
X166650000Y-94100000D01*
G04 #@! TO.N,X+Out*
X159030000Y-110590000D02*
X159030000Y-110590000D01*
X159030000Y-111218617D02*
X159030000Y-110590000D01*
X159030000Y-122714081D02*
X159030000Y-111218617D01*
X160113919Y-123798000D02*
X159030000Y-122714081D01*
X161316000Y-123798000D02*
X160113919Y-123798000D01*
G04 #@! TO.N,X+In*
X162516001Y-122458001D02*
X161316000Y-121258000D01*
X162516001Y-129296001D02*
X162516001Y-122458001D01*
X171750000Y-138530000D02*
X162516001Y-129296001D01*
X173000000Y-138530000D02*
X171750000Y-138530000D01*
G04 #@! TO.N,Y+In*
X153739500Y-121258000D02*
X152489500Y-121258000D01*
X156928001Y-124446501D02*
X153739500Y-121258000D01*
X156928001Y-132618001D02*
X156928001Y-124446501D01*
G04 #@! TO.N,Z+In*
X144786000Y-121258000D02*
X143536000Y-121258000D01*
X147784001Y-124256001D02*
X144786000Y-121258000D01*
X147784001Y-127538001D02*
X147784001Y-124256001D01*
G04 #@! TO.N,VbattIn*
X134392000Y-121004000D02*
X134392000Y-116178000D01*
X134392000Y-115924000D02*
X134646000Y-116178000D01*
X134392000Y-116178000D02*
X134392000Y-115924000D01*
G04 #@! TO.N,VbattOut*
X170460000Y-110590000D02*
X173000000Y-110590000D01*
X169751928Y-111298072D02*
X170460000Y-110590000D01*
X169751928Y-111298072D02*
X169751928Y-118410072D01*
X169751928Y-118210000D02*
X169751928Y-118410072D01*
X169751928Y-118410072D02*
X169751928Y-118210000D01*
X136678000Y-121258000D02*
X134392000Y-123544000D01*
X136678000Y-118464000D02*
X136678000Y-121258000D01*
G04 #@! TO.N,+3V3*
X113290000Y-76090000D02*
X113290000Y-76574000D01*
X112040000Y-133704000D02*
X112040000Y-133704000D01*
X112040000Y-127608000D02*
X112040000Y-133704000D01*
X112040000Y-127100000D02*
X112040000Y-127608000D01*
X111737952Y-126797952D02*
X112040000Y-127100000D01*
X111786000Y-78078000D02*
X111737952Y-126797952D01*
X113290000Y-76090000D02*
X113290000Y-76828000D01*
X113290000Y-76828000D02*
X111786000Y-78078000D01*
G04 #@! TO.N,Y+Out*
X146330000Y-109320000D02*
X146330000Y-109320000D01*
X146330000Y-120369000D02*
X146330000Y-119480000D01*
X146330000Y-120369000D02*
X146330000Y-118210000D01*
X146330000Y-119099000D02*
X146330000Y-118210000D01*
X146330000Y-118210000D02*
X146330000Y-109320000D01*
X149060500Y-120369000D02*
X152489500Y-123798000D01*
X146330000Y-120369000D02*
X149060500Y-120369000D01*
G04 #@! TO.N,Y-Out*
X118390000Y-114400000D02*
X118390000Y-114400000D01*
X118390000Y-114400000D02*
X118390000Y-114400000D01*
X162840000Y-107161000D02*
X163411500Y-106589500D01*
X162840000Y-113130000D02*
X162840000Y-107161000D01*
X118390000Y-121258000D02*
X118390000Y-114400000D01*
X116104000Y-123544000D02*
X118390000Y-121258000D01*
G04 #@! TO.N,Z+Out*
X142753501Y-107943499D02*
X143853500Y-106843500D01*
X142335999Y-108361001D02*
X142753501Y-107943499D01*
X142335999Y-122597999D02*
X142335999Y-108361001D01*
X143536000Y-123798000D02*
X142335999Y-122597999D01*
G04 #@! TO.N,X-Out*
X126130501Y-113250501D02*
X126010000Y-113130000D01*
X126130501Y-113250501D02*
X126130501Y-113250501D01*
X126130501Y-113250501D02*
X126130501Y-113250501D01*
X153829499Y-107027501D02*
X153950000Y-106907000D01*
X153829499Y-113250501D02*
X153829499Y-107027501D01*
X126097999Y-122948001D02*
X125248000Y-123798000D01*
X126448001Y-122597999D02*
X126097999Y-122948001D01*
X126448001Y-120127999D02*
X126448001Y-122597999D01*
X126130501Y-119810499D02*
X126448001Y-120127999D01*
X126130501Y-113250501D02*
X126130501Y-119810499D01*
G04 #@! TO.N,Net-(J13-Pad1)*
X172994000Y-91546000D02*
X172238000Y-92302000D01*
X172994000Y-88616000D02*
X172994000Y-91546000D01*
G04 #@! TO.N,Net-(J15-Pad1)*
X175627999Y-91452001D02*
X174778000Y-92302000D01*
X176002010Y-91077990D02*
X175627999Y-91452001D01*
X176002010Y-84595010D02*
X176002010Y-91077990D01*
X170823000Y-79416000D02*
X176002010Y-84595010D01*
X169794000Y-79416000D02*
X170823000Y-79416000D01*
G04 #@! TO.N,SDA_3*
X145530001Y-80846499D02*
X146330000Y-80046500D01*
X128750999Y-97625501D02*
X145530001Y-80846499D01*
X128750999Y-125756001D02*
X128750999Y-97625501D01*
X145197990Y-77202010D02*
X146310000Y-76090000D01*
X145197990Y-78914490D02*
X145197990Y-77202010D01*
X146330000Y-80046500D02*
X145197990Y-78914490D01*
X114159999Y-128028001D02*
X116104000Y-126084000D01*
X114159999Y-129806001D02*
X114159999Y-128028001D01*
X127032080Y-125756001D02*
X128750999Y-125756001D01*
X126450081Y-126338000D02*
X127032080Y-125756001D01*
X125248000Y-126338000D02*
X126450081Y-126338000D01*
G04 #@! TO.N,SCL_3*
X154420001Y-80909999D02*
X155220000Y-80110000D01*
X131651001Y-103678999D02*
X154420001Y-80909999D01*
X131651001Y-125395999D02*
X131651001Y-103678999D01*
X129018999Y-128028001D02*
X131651001Y-125395999D01*
X126097999Y-128028001D02*
X129018999Y-128028001D01*
X125248000Y-128878000D02*
X126097999Y-128028001D01*
X147159999Y-74399999D02*
X146310000Y-73550000D01*
X147510001Y-74750001D02*
X147159999Y-74399999D01*
X147510001Y-76526003D02*
X147510001Y-74750001D01*
X148672418Y-77688420D02*
X147510001Y-76526003D01*
X152798420Y-77688420D02*
X148672418Y-77688420D01*
X155220000Y-80110000D02*
X152798420Y-77688420D01*
G04 #@! TO.N,Net-(J17-Pad1)*
X180794000Y-91366000D02*
X179858000Y-92302000D01*
X180794000Y-83416000D02*
X180794000Y-91366000D01*
X179858000Y-98519870D02*
X179858000Y-95604000D01*
X174899870Y-103478000D02*
X179858000Y-98519870D01*
X173000000Y-103478000D02*
X174899870Y-103478000D01*
X179858000Y-92302000D02*
X179858000Y-95604000D01*
X179858000Y-95604000D02*
X179858000Y-95858000D01*
G04 #@! TO.N,Net-(J17-Pad5)*
X177394000Y-92226000D02*
X177318000Y-92302000D01*
X177394000Y-78916000D02*
X177394000Y-92226000D01*
X177318000Y-93439870D02*
X177318000Y-92302000D01*
X174899870Y-95858000D02*
X177318000Y-93439870D01*
X173000000Y-95858000D02*
X174899870Y-95858000D01*
G04 #@! TD*
D22*
G04 #@! TO.N,GND*
G36*
X178881222Y-71627083D02*
X178884752Y-71626389D01*
X178889868Y-71626884D01*
X178894128Y-71626759D01*
X179523951Y-71605092D01*
X180092561Y-71724189D01*
X180616347Y-71975479D01*
X181065074Y-72344457D01*
X181412831Y-72809817D01*
X181639548Y-73344700D01*
X181735426Y-73938623D01*
X181737000Y-74018027D01*
X181737000Y-82473716D01*
X181722791Y-82402282D01*
X181504866Y-82076134D01*
X181178718Y-81858209D01*
X180794000Y-81781684D01*
X180409283Y-81858209D01*
X180083135Y-82076134D01*
X179865210Y-82402282D01*
X179808001Y-82689892D01*
X179808000Y-84142107D01*
X179865209Y-84429717D01*
X180083134Y-84755866D01*
X180237000Y-84858676D01*
X180237001Y-91135282D01*
X180227443Y-91144840D01*
X179976877Y-91095000D01*
X179739123Y-91095000D01*
X179387052Y-91165031D01*
X178987802Y-91431802D01*
X178721031Y-91831052D01*
X178627354Y-92302000D01*
X178721031Y-92772948D01*
X178987802Y-93172198D01*
X179301000Y-93381471D01*
X179301001Y-95549138D01*
X179301000Y-95549143D01*
X179301000Y-95912858D01*
X179301001Y-95912862D01*
X179301000Y-98289153D01*
X174863864Y-102726290D01*
X174863864Y-101978130D01*
X174836157Y-101838836D01*
X174757253Y-101720747D01*
X174639164Y-101641843D01*
X174499870Y-101614136D01*
X173900482Y-101614136D01*
X174174505Y-101500632D01*
X174334272Y-101181877D01*
X173000000Y-99847605D01*
X171665728Y-101181877D01*
X171825495Y-101500632D01*
X172115046Y-101614136D01*
X171500130Y-101614136D01*
X171360836Y-101641843D01*
X171242747Y-101720747D01*
X171163843Y-101838836D01*
X171136136Y-101978130D01*
X171136136Y-104977870D01*
X171163843Y-105117164D01*
X171242747Y-105235253D01*
X171360836Y-105314157D01*
X171500130Y-105341864D01*
X172099518Y-105341864D01*
X171825495Y-105455368D01*
X171665728Y-105774123D01*
X173000000Y-107108395D01*
X174334272Y-105774123D01*
X174174505Y-105455368D01*
X173884954Y-105341864D01*
X174499870Y-105341864D01*
X174639164Y-105314157D01*
X174757253Y-105235253D01*
X174836157Y-105117164D01*
X174863864Y-104977870D01*
X174863864Y-104038749D01*
X174899870Y-104045911D01*
X174954724Y-104035000D01*
X174954728Y-104035000D01*
X175117201Y-104002682D01*
X175301444Y-103879574D01*
X175332520Y-103833067D01*
X180213070Y-98952517D01*
X180259574Y-98921444D01*
X180382682Y-98737201D01*
X180415000Y-98574728D01*
X180415000Y-98574724D01*
X180425911Y-98519870D01*
X180415000Y-98465016D01*
X180415000Y-93381471D01*
X180728198Y-93172198D01*
X180994969Y-92772948D01*
X181088646Y-92302000D01*
X181015160Y-91932557D01*
X181149069Y-91798648D01*
X181195574Y-91767574D01*
X181239857Y-91701301D01*
X181294239Y-91619912D01*
X181318682Y-91583331D01*
X181351000Y-91420858D01*
X181351000Y-91420854D01*
X181361911Y-91366000D01*
X181351000Y-91311146D01*
X181351000Y-84858676D01*
X181504866Y-84755866D01*
X181722791Y-84429718D01*
X181737000Y-84358283D01*
X181737001Y-137808083D01*
X181742197Y-137834204D01*
X181739738Y-137847868D01*
X181664770Y-138490886D01*
X181460078Y-139054803D01*
X181131144Y-139556511D01*
X180695614Y-139969091D01*
X180176858Y-140270408D01*
X179602693Y-140444306D01*
X179067948Y-140477481D01*
X179000426Y-140432460D01*
X178881683Y-140408961D01*
X114127283Y-140472500D01*
X109884086Y-140472500D01*
X109889106Y-139087000D01*
X111477146Y-139087000D01*
X111532000Y-139097911D01*
X111586854Y-139087000D01*
X111586858Y-139087000D01*
X111749331Y-139054682D01*
X111933574Y-138931574D01*
X111964649Y-138885067D01*
X113411070Y-137438647D01*
X113457574Y-137407574D01*
X113580682Y-137223331D01*
X113613000Y-137060858D01*
X113613000Y-137060855D01*
X113623911Y-137006001D01*
X113613000Y-136951147D01*
X113613000Y-131520890D01*
X114662524Y-131520890D01*
X114832355Y-131930924D01*
X115222642Y-132359183D01*
X115655652Y-132562536D01*
X115633052Y-132567031D01*
X115233802Y-132833802D01*
X114967031Y-133233052D01*
X114873354Y-133704000D01*
X114967031Y-134174948D01*
X115233802Y-134574198D01*
X115633052Y-134840969D01*
X115985123Y-134911000D01*
X116222877Y-134911000D01*
X116574948Y-134840969D01*
X116974198Y-134574198D01*
X117240969Y-134174948D01*
X117334646Y-133704000D01*
X117240969Y-133233052D01*
X116974198Y-132833802D01*
X116574948Y-132567031D01*
X116552348Y-132562536D01*
X116985358Y-132359183D01*
X117375645Y-131930924D01*
X117440272Y-131774890D01*
X123806524Y-131774890D01*
X123976355Y-132184924D01*
X124366642Y-132613183D01*
X124799652Y-132816536D01*
X124777052Y-132821031D01*
X124377802Y-133087802D01*
X124111031Y-133487052D01*
X124017354Y-133958000D01*
X124111031Y-134428948D01*
X124377802Y-134828198D01*
X124777052Y-135094969D01*
X125129123Y-135165000D01*
X125366877Y-135165000D01*
X125718948Y-135094969D01*
X126118198Y-134828198D01*
X126384969Y-134428948D01*
X126478646Y-133958000D01*
X126384969Y-133487052D01*
X126118198Y-133087802D01*
X125718948Y-132821031D01*
X125696348Y-132816536D01*
X126129358Y-132613183D01*
X126519645Y-132184924D01*
X126689476Y-131774890D01*
X126568155Y-131545000D01*
X125375000Y-131545000D01*
X125375000Y-131565000D01*
X125121000Y-131565000D01*
X125121000Y-131545000D01*
X123927845Y-131545000D01*
X123806524Y-131774890D01*
X117440272Y-131774890D01*
X117545476Y-131520890D01*
X132950524Y-131520890D01*
X133120355Y-131930924D01*
X133510642Y-132359183D01*
X133943652Y-132562536D01*
X133921052Y-132567031D01*
X133521802Y-132833802D01*
X133255031Y-133233052D01*
X133161354Y-133704000D01*
X133255031Y-134174948D01*
X133521802Y-134574198D01*
X133921052Y-134840969D01*
X134273123Y-134911000D01*
X134510877Y-134911000D01*
X134862948Y-134840969D01*
X135262198Y-134574198D01*
X135528969Y-134174948D01*
X135622646Y-133704000D01*
X135528969Y-133233052D01*
X135262198Y-132833802D01*
X134862948Y-132567031D01*
X134840348Y-132562536D01*
X135273358Y-132359183D01*
X135663645Y-131930924D01*
X135728272Y-131774890D01*
X142094524Y-131774890D01*
X142264355Y-132184924D01*
X142654642Y-132613183D01*
X143087652Y-132816536D01*
X143065052Y-132821031D01*
X142665802Y-133087802D01*
X142399031Y-133487052D01*
X142305354Y-133958000D01*
X142399031Y-134428948D01*
X142665802Y-134828198D01*
X143065052Y-135094969D01*
X143417123Y-135165000D01*
X143654877Y-135165000D01*
X144006948Y-135094969D01*
X144406198Y-134828198D01*
X144672969Y-134428948D01*
X144766646Y-133958000D01*
X144672969Y-133487052D01*
X144406198Y-133087802D01*
X144006948Y-132821031D01*
X143984348Y-132816536D01*
X144417358Y-132613183D01*
X144807645Y-132184924D01*
X144977476Y-131774890D01*
X151048024Y-131774890D01*
X151217855Y-132184924D01*
X151608142Y-132613183D01*
X152041152Y-132816536D01*
X152018552Y-132821031D01*
X151619302Y-133087802D01*
X151352531Y-133487052D01*
X151258854Y-133958000D01*
X151352531Y-134428948D01*
X151619302Y-134828198D01*
X152018552Y-135094969D01*
X152370623Y-135165000D01*
X152608377Y-135165000D01*
X152960448Y-135094969D01*
X153359698Y-134828198D01*
X153626469Y-134428948D01*
X153720146Y-133958000D01*
X153626469Y-133487052D01*
X153359698Y-133087802D01*
X152960448Y-132821031D01*
X152937848Y-132816536D01*
X153370858Y-132613183D01*
X153761145Y-132184924D01*
X153930976Y-131774890D01*
X153809655Y-131545000D01*
X152616500Y-131545000D01*
X152616500Y-131565000D01*
X152362500Y-131565000D01*
X152362500Y-131545000D01*
X151169345Y-131545000D01*
X151048024Y-131774890D01*
X144977476Y-131774890D01*
X144856155Y-131545000D01*
X143663000Y-131545000D01*
X143663000Y-131565000D01*
X143409000Y-131565000D01*
X143409000Y-131545000D01*
X142215845Y-131545000D01*
X142094524Y-131774890D01*
X135728272Y-131774890D01*
X135833476Y-131520890D01*
X135712155Y-131291000D01*
X134519000Y-131291000D01*
X134519000Y-131311000D01*
X134265000Y-131311000D01*
X134265000Y-131291000D01*
X133071845Y-131291000D01*
X132950524Y-131520890D01*
X117545476Y-131520890D01*
X117424155Y-131291000D01*
X116231000Y-131291000D01*
X116231000Y-131311000D01*
X115977000Y-131311000D01*
X115977000Y-131291000D01*
X114783845Y-131291000D01*
X114662524Y-131520890D01*
X113613000Y-131520890D01*
X113613000Y-131061110D01*
X123806524Y-131061110D01*
X123927845Y-131291000D01*
X125121000Y-131291000D01*
X125121000Y-131271000D01*
X125375000Y-131271000D01*
X125375000Y-131291000D01*
X126568155Y-131291000D01*
X126689476Y-131061110D01*
X142094524Y-131061110D01*
X142215845Y-131291000D01*
X143409000Y-131291000D01*
X143409000Y-131271000D01*
X143663000Y-131271000D01*
X143663000Y-131291000D01*
X144856155Y-131291000D01*
X144977476Y-131061110D01*
X151048024Y-131061110D01*
X151169345Y-131291000D01*
X152362500Y-131291000D01*
X152362500Y-131271000D01*
X152616500Y-131271000D01*
X152616500Y-131291000D01*
X153809655Y-131291000D01*
X153930976Y-131061110D01*
X153761145Y-130651076D01*
X153370858Y-130222817D01*
X152937848Y-130019464D01*
X152960448Y-130014969D01*
X153359698Y-129748198D01*
X153626469Y-129348948D01*
X153720146Y-128878000D01*
X153626469Y-128407052D01*
X153359698Y-128007802D01*
X152960448Y-127741031D01*
X152608377Y-127671000D01*
X152370623Y-127671000D01*
X152018552Y-127741031D01*
X151619302Y-128007802D01*
X151352531Y-128407052D01*
X151258854Y-128878000D01*
X151352531Y-129348948D01*
X151619302Y-129748198D01*
X152018552Y-130014969D01*
X152041152Y-130019464D01*
X151608142Y-130222817D01*
X151217855Y-130651076D01*
X151048024Y-131061110D01*
X144977476Y-131061110D01*
X144807645Y-130651076D01*
X144417358Y-130222817D01*
X143984348Y-130019464D01*
X144006948Y-130014969D01*
X144406198Y-129748198D01*
X144672969Y-129348948D01*
X144766646Y-128878000D01*
X144672969Y-128407052D01*
X144406198Y-128007802D01*
X144006948Y-127741031D01*
X143654877Y-127671000D01*
X143417123Y-127671000D01*
X143065052Y-127741031D01*
X142665802Y-128007802D01*
X142399031Y-128407052D01*
X142305354Y-128878000D01*
X142399031Y-129348948D01*
X142665802Y-129748198D01*
X143065052Y-130014969D01*
X143087652Y-130019464D01*
X142654642Y-130222817D01*
X142264355Y-130651076D01*
X142094524Y-131061110D01*
X126689476Y-131061110D01*
X126584273Y-130807110D01*
X132950524Y-130807110D01*
X133071845Y-131037000D01*
X134265000Y-131037000D01*
X134265000Y-131017000D01*
X134519000Y-131017000D01*
X134519000Y-131037000D01*
X135712155Y-131037000D01*
X135833476Y-130807110D01*
X135663645Y-130397076D01*
X135273358Y-129968817D01*
X134840348Y-129765464D01*
X134862948Y-129760969D01*
X135262198Y-129494198D01*
X135528969Y-129094948D01*
X135622646Y-128624000D01*
X135528969Y-128153052D01*
X135262198Y-127753802D01*
X134862948Y-127487031D01*
X134510877Y-127417000D01*
X134273123Y-127417000D01*
X133921052Y-127487031D01*
X133521802Y-127753802D01*
X133255031Y-128153052D01*
X133161354Y-128624000D01*
X133255031Y-129094948D01*
X133521802Y-129494198D01*
X133921052Y-129760969D01*
X133943652Y-129765464D01*
X133510642Y-129968817D01*
X133120355Y-130397076D01*
X132950524Y-130807110D01*
X126584273Y-130807110D01*
X126519645Y-130651076D01*
X126129358Y-130222817D01*
X125696348Y-130019464D01*
X125718948Y-130014969D01*
X126118198Y-129748198D01*
X126384969Y-129348948D01*
X126478646Y-128878000D01*
X126420365Y-128585001D01*
X128964145Y-128585001D01*
X129018999Y-128595912D01*
X129073853Y-128585001D01*
X129073857Y-128585001D01*
X129236330Y-128552683D01*
X129420573Y-128429575D01*
X129451649Y-128383067D01*
X131750716Y-126084000D01*
X133161354Y-126084000D01*
X133255031Y-126554948D01*
X133521802Y-126954198D01*
X133921052Y-127220969D01*
X134273123Y-127291000D01*
X134510877Y-127291000D01*
X134862948Y-127220969D01*
X135262198Y-126954198D01*
X135528969Y-126554948D01*
X135572122Y-126338000D01*
X142305354Y-126338000D01*
X142399031Y-126808948D01*
X142665802Y-127208198D01*
X143065052Y-127474969D01*
X143417123Y-127545000D01*
X143654877Y-127545000D01*
X144006948Y-127474969D01*
X144406198Y-127208198D01*
X144672969Y-126808948D01*
X144766646Y-126338000D01*
X144672969Y-125867052D01*
X144406198Y-125467802D01*
X144006948Y-125201031D01*
X143654877Y-125131000D01*
X143417123Y-125131000D01*
X143065052Y-125201031D01*
X142665802Y-125467802D01*
X142399031Y-125867052D01*
X142305354Y-126338000D01*
X135572122Y-126338000D01*
X135622646Y-126084000D01*
X135528969Y-125613052D01*
X135262198Y-125213802D01*
X134862948Y-124947031D01*
X134510877Y-124877000D01*
X134273123Y-124877000D01*
X133921052Y-124947031D01*
X133521802Y-125213802D01*
X133255031Y-125613052D01*
X133161354Y-126084000D01*
X131750716Y-126084000D01*
X132006068Y-125828648D01*
X132052575Y-125797573D01*
X132175683Y-125613330D01*
X132208001Y-125450857D01*
X132208001Y-125450853D01*
X132218912Y-125395999D01*
X132208001Y-125341145D01*
X132208001Y-123544000D01*
X133161354Y-123544000D01*
X133255031Y-124014948D01*
X133521802Y-124414198D01*
X133921052Y-124680969D01*
X134273123Y-124751000D01*
X134510877Y-124751000D01*
X134862948Y-124680969D01*
X135262198Y-124414198D01*
X135528969Y-124014948D01*
X135622646Y-123544000D01*
X135549159Y-123174557D01*
X137033069Y-121690648D01*
X137079574Y-121659574D01*
X137202682Y-121475331D01*
X137235000Y-121312858D01*
X137235000Y-121312855D01*
X137245911Y-121258001D01*
X137235000Y-121203147D01*
X137235000Y-119040492D01*
X137357479Y-118918013D01*
X137479500Y-118623428D01*
X137479500Y-118304572D01*
X137357479Y-118009987D01*
X137132013Y-117784521D01*
X136837428Y-117662500D01*
X136518572Y-117662500D01*
X136223987Y-117784521D01*
X135998521Y-118009987D01*
X135876500Y-118304572D01*
X135876500Y-118623428D01*
X135998521Y-118918013D01*
X136121000Y-119040492D01*
X136121001Y-121027282D01*
X135605994Y-121542289D01*
X135605994Y-120154000D01*
X135578287Y-120014706D01*
X135499383Y-119896617D01*
X135381294Y-119817713D01*
X135242000Y-119790006D01*
X134949000Y-119790006D01*
X134949000Y-116754492D01*
X135071479Y-116632013D01*
X135167616Y-116399918D01*
X135170682Y-116395329D01*
X135171759Y-116389916D01*
X135193500Y-116337428D01*
X135193500Y-116280614D01*
X135213911Y-116177999D01*
X135193500Y-116075384D01*
X135193500Y-116018572D01*
X135171759Y-115966085D01*
X135170682Y-115960669D01*
X135167614Y-115956077D01*
X135071479Y-115723987D01*
X134846013Y-115498521D01*
X134613923Y-115402386D01*
X134609331Y-115399318D01*
X134603914Y-115398241D01*
X134551428Y-115376500D01*
X134494618Y-115376500D01*
X134392000Y-115356088D01*
X134289383Y-115376500D01*
X134232572Y-115376500D01*
X134180085Y-115398241D01*
X134174670Y-115399318D01*
X134170080Y-115402385D01*
X133937987Y-115498521D01*
X133712521Y-115723987D01*
X133590500Y-116018572D01*
X133590500Y-116337428D01*
X133712521Y-116632013D01*
X133835001Y-116754493D01*
X133835000Y-119790006D01*
X133542000Y-119790006D01*
X133402706Y-119817713D01*
X133284617Y-119896617D01*
X133205713Y-120014706D01*
X133178006Y-120154000D01*
X133178006Y-121854000D01*
X133205713Y-121993294D01*
X133284617Y-122111383D01*
X133402706Y-122190287D01*
X133542000Y-122217994D01*
X134930290Y-122217994D01*
X134761443Y-122386841D01*
X134510877Y-122337000D01*
X134273123Y-122337000D01*
X133921052Y-122407031D01*
X133521802Y-122673802D01*
X133255031Y-123073052D01*
X133161354Y-123544000D01*
X132208001Y-123544000D01*
X132208001Y-108361001D01*
X141768088Y-108361001D01*
X141779000Y-108415860D01*
X141778999Y-122543145D01*
X141768088Y-122597999D01*
X141778999Y-122652853D01*
X141778999Y-122652856D01*
X141811317Y-122815329D01*
X141934425Y-122999573D01*
X141980932Y-123030648D01*
X142378841Y-123428557D01*
X142305354Y-123798000D01*
X142399031Y-124268948D01*
X142665802Y-124668198D01*
X143065052Y-124934969D01*
X143417123Y-125005000D01*
X143654877Y-125005000D01*
X144006948Y-124934969D01*
X144406198Y-124668198D01*
X144672969Y-124268948D01*
X144766646Y-123798000D01*
X144672969Y-123327052D01*
X144406198Y-122927802D01*
X144006948Y-122661031D01*
X143654877Y-122591000D01*
X143417123Y-122591000D01*
X143166557Y-122640841D01*
X142997710Y-122471994D01*
X144386000Y-122471994D01*
X144525294Y-122444287D01*
X144643383Y-122365383D01*
X144722287Y-122247294D01*
X144749994Y-122108000D01*
X144749994Y-122009710D01*
X147227002Y-124486719D01*
X147227001Y-126961509D01*
X147104522Y-127083988D01*
X146982501Y-127378573D01*
X146982501Y-127697429D01*
X147104522Y-127992014D01*
X147329988Y-128217480D01*
X147624573Y-128339501D01*
X147943429Y-128339501D01*
X148238014Y-128217480D01*
X148463480Y-127992014D01*
X148585501Y-127697429D01*
X148585501Y-127378573D01*
X148463480Y-127083988D01*
X148341001Y-126961509D01*
X148341001Y-126338000D01*
X151258854Y-126338000D01*
X151352531Y-126808948D01*
X151619302Y-127208198D01*
X152018552Y-127474969D01*
X152370623Y-127545000D01*
X152608377Y-127545000D01*
X152960448Y-127474969D01*
X153359698Y-127208198D01*
X153626469Y-126808948D01*
X153720146Y-126338000D01*
X153626469Y-125867052D01*
X153359698Y-125467802D01*
X152960448Y-125201031D01*
X152608377Y-125131000D01*
X152370623Y-125131000D01*
X152018552Y-125201031D01*
X151619302Y-125467802D01*
X151352531Y-125867052D01*
X151258854Y-126338000D01*
X148341001Y-126338000D01*
X148341001Y-124310855D01*
X148351912Y-124256001D01*
X148341001Y-124201147D01*
X148341001Y-124201143D01*
X148308683Y-124038670D01*
X148185575Y-123854427D01*
X148139070Y-123823353D01*
X145218649Y-120902933D01*
X145187574Y-120856426D01*
X145003331Y-120733318D01*
X144840858Y-120701000D01*
X144840854Y-120701000D01*
X144786000Y-120690089D01*
X144749994Y-120697251D01*
X144749994Y-120408000D01*
X144722287Y-120268706D01*
X144643383Y-120150617D01*
X144525294Y-120071713D01*
X144386000Y-120044006D01*
X142892999Y-120044006D01*
X142892999Y-109160572D01*
X145528500Y-109160572D01*
X145528500Y-109479428D01*
X145650521Y-109774013D01*
X145773001Y-109896493D01*
X145773000Y-118155142D01*
X145773000Y-119153857D01*
X145773001Y-119153860D01*
X145773000Y-119425140D01*
X145773000Y-120314142D01*
X145762088Y-120369000D01*
X145805318Y-120586331D01*
X145903532Y-120733318D01*
X145928426Y-120770574D01*
X146112669Y-120893682D01*
X146330000Y-120936912D01*
X146384858Y-120926000D01*
X148829784Y-120926000D01*
X151332340Y-123428557D01*
X151258854Y-123798000D01*
X151352531Y-124268948D01*
X151619302Y-124668198D01*
X152018552Y-124934969D01*
X152370623Y-125005000D01*
X152608377Y-125005000D01*
X152960448Y-124934969D01*
X153359698Y-124668198D01*
X153626469Y-124268948D01*
X153720146Y-123798000D01*
X153626469Y-123327052D01*
X153359698Y-122927802D01*
X152960448Y-122661031D01*
X152608377Y-122591000D01*
X152370623Y-122591000D01*
X152120057Y-122640840D01*
X151951211Y-122471994D01*
X153339500Y-122471994D01*
X153478794Y-122444287D01*
X153596883Y-122365383D01*
X153675787Y-122247294D01*
X153703494Y-122108000D01*
X153703494Y-122009710D01*
X156371002Y-124677219D01*
X156371001Y-132041509D01*
X156248522Y-132163988D01*
X156126501Y-132458573D01*
X156126501Y-132777429D01*
X156248522Y-133072014D01*
X156473988Y-133297480D01*
X156768573Y-133419501D01*
X157087429Y-133419501D01*
X157382014Y-133297480D01*
X157607480Y-133072014D01*
X157729501Y-132777429D01*
X157729501Y-132458573D01*
X157607480Y-132163988D01*
X157485001Y-132041509D01*
X157485001Y-131774890D01*
X159874524Y-131774890D01*
X160044355Y-132184924D01*
X160434642Y-132613183D01*
X160867652Y-132816536D01*
X160845052Y-132821031D01*
X160445802Y-133087802D01*
X160179031Y-133487052D01*
X160085354Y-133958000D01*
X160179031Y-134428948D01*
X160445802Y-134828198D01*
X160845052Y-135094969D01*
X161197123Y-135165000D01*
X161434877Y-135165000D01*
X161786948Y-135094969D01*
X162186198Y-134828198D01*
X162452969Y-134428948D01*
X162546646Y-133958000D01*
X162452969Y-133487052D01*
X162186198Y-133087802D01*
X161786948Y-132821031D01*
X161764348Y-132816536D01*
X162197358Y-132613183D01*
X162587645Y-132184924D01*
X162757476Y-131774890D01*
X162636155Y-131545000D01*
X161443000Y-131545000D01*
X161443000Y-131565000D01*
X161189000Y-131565000D01*
X161189000Y-131545000D01*
X159995845Y-131545000D01*
X159874524Y-131774890D01*
X157485001Y-131774890D01*
X157485001Y-124501354D01*
X157495912Y-124446500D01*
X157485001Y-124391646D01*
X157485001Y-124391643D01*
X157452683Y-124229170D01*
X157329575Y-124044927D01*
X157283070Y-124013853D01*
X154172149Y-120902933D01*
X154141074Y-120856426D01*
X153956831Y-120733318D01*
X153794358Y-120701000D01*
X153794354Y-120701000D01*
X153739500Y-120690089D01*
X153703494Y-120697251D01*
X153703494Y-120408000D01*
X153675787Y-120268706D01*
X153596883Y-120150617D01*
X153478794Y-120071713D01*
X153339500Y-120044006D01*
X151639500Y-120044006D01*
X151500206Y-120071713D01*
X151382117Y-120150617D01*
X151303213Y-120268706D01*
X151275506Y-120408000D01*
X151275506Y-121796289D01*
X149493149Y-120013933D01*
X149462074Y-119967426D01*
X149277831Y-119844318D01*
X149115358Y-119812000D01*
X149115354Y-119812000D01*
X149060500Y-119801089D01*
X149005646Y-119812000D01*
X146887000Y-119812000D01*
X146887000Y-109896492D01*
X147009479Y-109774013D01*
X147131500Y-109479428D01*
X147131500Y-109160572D01*
X147009479Y-108865987D01*
X146784013Y-108640521D01*
X146489428Y-108518500D01*
X146170572Y-108518500D01*
X145875987Y-108640521D01*
X145650521Y-108865987D01*
X145528500Y-109160572D01*
X142892999Y-109160572D01*
X142892999Y-108591717D01*
X143186149Y-108298568D01*
X143186151Y-108298565D01*
X143275263Y-108209453D01*
X143285007Y-108215964D01*
X143709999Y-108300500D01*
X143997001Y-108300500D01*
X144421993Y-108215964D01*
X144903938Y-107893938D01*
X145225964Y-107411993D01*
X145339044Y-106843500D01*
X145225964Y-106275007D01*
X144913252Y-105807000D01*
X148676006Y-105807000D01*
X148676006Y-108007000D01*
X148703713Y-108146294D01*
X148782617Y-108264383D01*
X148900706Y-108343287D01*
X149040000Y-108370994D01*
X151240000Y-108370994D01*
X151379294Y-108343287D01*
X151497383Y-108264383D01*
X151576287Y-108146294D01*
X151603994Y-108007000D01*
X151603994Y-106907000D01*
X152464456Y-106907000D01*
X152577536Y-107475493D01*
X152899562Y-107957438D01*
X153272500Y-108206628D01*
X153272499Y-112674009D01*
X153150020Y-112796488D01*
X153027999Y-113091073D01*
X153027999Y-113409929D01*
X153150020Y-113704514D01*
X153375486Y-113929980D01*
X153670071Y-114052001D01*
X153988927Y-114052001D01*
X154283512Y-113929980D01*
X154508978Y-113704514D01*
X154630999Y-113409929D01*
X154630999Y-113091073D01*
X154508978Y-112796488D01*
X154386499Y-112674009D01*
X154386499Y-110430572D01*
X158228500Y-110430572D01*
X158228500Y-110749428D01*
X158350521Y-111044013D01*
X158473000Y-111166492D01*
X158473000Y-111273474D01*
X158473001Y-111273479D01*
X158473000Y-122659227D01*
X158462089Y-122714081D01*
X158473000Y-122768935D01*
X158473000Y-122768938D01*
X158505318Y-122931411D01*
X158628426Y-123115655D01*
X158674934Y-123146731D01*
X159681269Y-124153066D01*
X159712345Y-124199574D01*
X159896588Y-124322682D01*
X160059061Y-124355000D01*
X160059065Y-124355000D01*
X160113919Y-124365911D01*
X160168773Y-124355000D01*
X160236529Y-124355000D01*
X160445802Y-124668198D01*
X160845052Y-124934969D01*
X161197123Y-125005000D01*
X161434877Y-125005000D01*
X161786948Y-124934969D01*
X161959002Y-124820006D01*
X161959002Y-125315994D01*
X161786948Y-125201031D01*
X161434877Y-125131000D01*
X161197123Y-125131000D01*
X160845052Y-125201031D01*
X160445802Y-125467802D01*
X160179031Y-125867052D01*
X160085354Y-126338000D01*
X160179031Y-126808948D01*
X160445802Y-127208198D01*
X160845052Y-127474969D01*
X161197123Y-127545000D01*
X161434877Y-127545000D01*
X161786948Y-127474969D01*
X161959001Y-127360006D01*
X161959001Y-127855994D01*
X161786948Y-127741031D01*
X161434877Y-127671000D01*
X161197123Y-127671000D01*
X160845052Y-127741031D01*
X160445802Y-128007802D01*
X160179031Y-128407052D01*
X160085354Y-128878000D01*
X160179031Y-129348948D01*
X160445802Y-129748198D01*
X160845052Y-130014969D01*
X160867652Y-130019464D01*
X160434642Y-130222817D01*
X160044355Y-130651076D01*
X159874524Y-131061110D01*
X159995845Y-131291000D01*
X161189000Y-131291000D01*
X161189000Y-131271000D01*
X161443000Y-131271000D01*
X161443000Y-131291000D01*
X162636155Y-131291000D01*
X162757476Y-131061110D01*
X162587645Y-130651076D01*
X162197358Y-130222817D01*
X161764348Y-130019464D01*
X161786948Y-130014969D01*
X162182772Y-129750488D01*
X171317352Y-138885069D01*
X171348426Y-138931574D01*
X171394931Y-138962648D01*
X171394932Y-138962649D01*
X171412932Y-138974676D01*
X171532669Y-139054682D01*
X171695142Y-139087000D01*
X171695146Y-139087000D01*
X171750000Y-139097911D01*
X171786006Y-139090749D01*
X171786006Y-139380000D01*
X171813713Y-139519294D01*
X171892617Y-139637383D01*
X172010706Y-139716287D01*
X172150000Y-139743994D01*
X173850000Y-139743994D01*
X173989294Y-139716287D01*
X174107383Y-139637383D01*
X174186287Y-139519294D01*
X174213994Y-139380000D01*
X174213994Y-137680000D01*
X174186287Y-137540706D01*
X174107383Y-137422617D01*
X173989294Y-137343713D01*
X173850000Y-137316006D01*
X173602790Y-137316006D01*
X173881358Y-137185183D01*
X174271645Y-136756924D01*
X174441476Y-136346890D01*
X174320155Y-136117000D01*
X173127000Y-136117000D01*
X173127000Y-136137000D01*
X172873000Y-136137000D01*
X172873000Y-136117000D01*
X171679845Y-136117000D01*
X171558524Y-136346890D01*
X171728355Y-136756924D01*
X172118642Y-137185183D01*
X172397210Y-137316006D01*
X172150000Y-137316006D01*
X172010706Y-137343713D01*
X171892617Y-137422617D01*
X171813713Y-137540706D01*
X171786006Y-137680000D01*
X171786006Y-137778289D01*
X165274607Y-131266890D01*
X171558524Y-131266890D01*
X171728355Y-131676924D01*
X172118642Y-132105183D01*
X172551652Y-132308536D01*
X172529052Y-132313031D01*
X172129802Y-132579802D01*
X171863031Y-132979052D01*
X171769354Y-133450000D01*
X171863031Y-133920948D01*
X172129802Y-134320198D01*
X172529052Y-134586969D01*
X172551652Y-134591464D01*
X172118642Y-134794817D01*
X171728355Y-135223076D01*
X171558524Y-135633110D01*
X171679845Y-135863000D01*
X172873000Y-135863000D01*
X172873000Y-135843000D01*
X173127000Y-135843000D01*
X173127000Y-135863000D01*
X174320155Y-135863000D01*
X174441476Y-135633110D01*
X174271645Y-135223076D01*
X173881358Y-134794817D01*
X173448348Y-134591464D01*
X173470948Y-134586969D01*
X173870198Y-134320198D01*
X174136969Y-133920948D01*
X174230646Y-133450000D01*
X174136969Y-132979052D01*
X173870198Y-132579802D01*
X173470948Y-132313031D01*
X173448348Y-132308536D01*
X173881358Y-132105183D01*
X174271645Y-131676924D01*
X174441476Y-131266890D01*
X174320155Y-131037000D01*
X173127000Y-131037000D01*
X173127000Y-131057000D01*
X172873000Y-131057000D01*
X172873000Y-131037000D01*
X171679845Y-131037000D01*
X171558524Y-131266890D01*
X165274607Y-131266890D01*
X163073001Y-129065285D01*
X163073001Y-126186890D01*
X171558524Y-126186890D01*
X171728355Y-126596924D01*
X172118642Y-127025183D01*
X172551652Y-127228536D01*
X172529052Y-127233031D01*
X172129802Y-127499802D01*
X171863031Y-127899052D01*
X171769354Y-128370000D01*
X171863031Y-128840948D01*
X172129802Y-129240198D01*
X172529052Y-129506969D01*
X172551652Y-129511464D01*
X172118642Y-129714817D01*
X171728355Y-130143076D01*
X171558524Y-130553110D01*
X171679845Y-130783000D01*
X172873000Y-130783000D01*
X172873000Y-130763000D01*
X173127000Y-130763000D01*
X173127000Y-130783000D01*
X174320155Y-130783000D01*
X174441476Y-130553110D01*
X174271645Y-130143076D01*
X173881358Y-129714817D01*
X173448348Y-129511464D01*
X173470948Y-129506969D01*
X173870198Y-129240198D01*
X174136969Y-128840948D01*
X174230646Y-128370000D01*
X174136969Y-127899052D01*
X173870198Y-127499802D01*
X173470948Y-127233031D01*
X173448348Y-127228536D01*
X173881358Y-127025183D01*
X174271645Y-126596924D01*
X174441476Y-126186890D01*
X174320155Y-125957000D01*
X173127000Y-125957000D01*
X173127000Y-125977000D01*
X172873000Y-125977000D01*
X172873000Y-125957000D01*
X171679845Y-125957000D01*
X171558524Y-126186890D01*
X163073001Y-126186890D01*
X163073001Y-123450646D01*
X164563130Y-123450646D01*
X164563130Y-124189354D01*
X164845822Y-124871832D01*
X165368168Y-125394178D01*
X166050646Y-125676870D01*
X166789354Y-125676870D01*
X167471832Y-125394178D01*
X167994178Y-124871832D01*
X168276870Y-124189354D01*
X168276870Y-123450646D01*
X167994178Y-122768168D01*
X167471832Y-122245822D01*
X166789354Y-121963130D01*
X166050646Y-121963130D01*
X165368168Y-122245822D01*
X164845822Y-122768168D01*
X164563130Y-123450646D01*
X163073001Y-123450646D01*
X163073001Y-122512855D01*
X163083912Y-122458001D01*
X163073001Y-122403147D01*
X163073001Y-122403143D01*
X163040683Y-122240670D01*
X162954296Y-122111383D01*
X162948650Y-122102933D01*
X162948649Y-122102932D01*
X162917575Y-122056427D01*
X162871070Y-122025353D01*
X162529994Y-121684277D01*
X162529994Y-121106890D01*
X171558524Y-121106890D01*
X171728355Y-121516924D01*
X172118642Y-121945183D01*
X172551652Y-122148536D01*
X172529052Y-122153031D01*
X172129802Y-122419802D01*
X171863031Y-122819052D01*
X171769354Y-123290000D01*
X171863031Y-123760948D01*
X172129802Y-124160198D01*
X172529052Y-124426969D01*
X172551652Y-124431464D01*
X172118642Y-124634817D01*
X171728355Y-125063076D01*
X171558524Y-125473110D01*
X171679845Y-125703000D01*
X172873000Y-125703000D01*
X172873000Y-125683000D01*
X173127000Y-125683000D01*
X173127000Y-125703000D01*
X174320155Y-125703000D01*
X174441476Y-125473110D01*
X174271645Y-125063076D01*
X173881358Y-124634817D01*
X173448348Y-124431464D01*
X173470948Y-124426969D01*
X173870198Y-124160198D01*
X174136969Y-123760948D01*
X174230646Y-123290000D01*
X174136969Y-122819052D01*
X173870198Y-122419802D01*
X173470948Y-122153031D01*
X173448348Y-122148536D01*
X173881358Y-121945183D01*
X174271645Y-121516924D01*
X174441476Y-121106890D01*
X174320155Y-120877000D01*
X173127000Y-120877000D01*
X173127000Y-120897000D01*
X172873000Y-120897000D01*
X172873000Y-120877000D01*
X171679845Y-120877000D01*
X171558524Y-121106890D01*
X162529994Y-121106890D01*
X162529994Y-120408000D01*
X162502287Y-120268706D01*
X162423383Y-120150617D01*
X162305294Y-120071713D01*
X162166000Y-120044006D01*
X160466000Y-120044006D01*
X160326706Y-120071713D01*
X160208617Y-120150617D01*
X160129713Y-120268706D01*
X160102006Y-120408000D01*
X160102006Y-122108000D01*
X160129713Y-122247294D01*
X160208617Y-122365383D01*
X160326706Y-122444287D01*
X160466000Y-122471994D01*
X161742277Y-122471994D01*
X161959002Y-122688719D01*
X161959002Y-122775994D01*
X161786948Y-122661031D01*
X161434877Y-122591000D01*
X161197123Y-122591000D01*
X160845052Y-122661031D01*
X160445802Y-122927802D01*
X160279830Y-123176195D01*
X159587000Y-122483365D01*
X159587000Y-118250644D01*
X168950428Y-118250644D01*
X168950428Y-118569500D01*
X169072449Y-118864085D01*
X169297915Y-119089551D01*
X169592500Y-119211572D01*
X169911356Y-119211572D01*
X170205941Y-119089551D01*
X170431407Y-118864085D01*
X170553428Y-118569500D01*
X170553428Y-118250644D01*
X170431407Y-117956059D01*
X170308928Y-117833580D01*
X170308928Y-116026890D01*
X171558524Y-116026890D01*
X171728355Y-116436924D01*
X172118642Y-116865183D01*
X172551652Y-117068536D01*
X172529052Y-117073031D01*
X172129802Y-117339802D01*
X171863031Y-117739052D01*
X171769354Y-118210000D01*
X171863031Y-118680948D01*
X172129802Y-119080198D01*
X172529052Y-119346969D01*
X172551652Y-119351464D01*
X172118642Y-119554817D01*
X171728355Y-119983076D01*
X171558524Y-120393110D01*
X171679845Y-120623000D01*
X172873000Y-120623000D01*
X172873000Y-120603000D01*
X173127000Y-120603000D01*
X173127000Y-120623000D01*
X174320155Y-120623000D01*
X174441476Y-120393110D01*
X174271645Y-119983076D01*
X173881358Y-119554817D01*
X173448348Y-119351464D01*
X173470948Y-119346969D01*
X173870198Y-119080198D01*
X174136969Y-118680948D01*
X174230646Y-118210000D01*
X174136969Y-117739052D01*
X173870198Y-117339802D01*
X173470948Y-117073031D01*
X173448348Y-117068536D01*
X173881358Y-116865183D01*
X174271645Y-116436924D01*
X174441476Y-116026890D01*
X174320155Y-115797000D01*
X173127000Y-115797000D01*
X173127000Y-115817000D01*
X172873000Y-115817000D01*
X172873000Y-115797000D01*
X171679845Y-115797000D01*
X171558524Y-116026890D01*
X170308928Y-116026890D01*
X170308928Y-115313110D01*
X171558524Y-115313110D01*
X171679845Y-115543000D01*
X172873000Y-115543000D01*
X172873000Y-115523000D01*
X173127000Y-115523000D01*
X173127000Y-115543000D01*
X174320155Y-115543000D01*
X174441476Y-115313110D01*
X174271645Y-114903076D01*
X173881358Y-114474817D01*
X173602790Y-114343994D01*
X173850000Y-114343994D01*
X173989294Y-114316287D01*
X174107383Y-114237383D01*
X174186287Y-114119294D01*
X174213994Y-113980000D01*
X174213994Y-112280000D01*
X174186287Y-112140706D01*
X174107383Y-112022617D01*
X173989294Y-111943713D01*
X173850000Y-111916006D01*
X172150000Y-111916006D01*
X172010706Y-111943713D01*
X171892617Y-112022617D01*
X171813713Y-112140706D01*
X171786006Y-112280000D01*
X171786006Y-113980000D01*
X171813713Y-114119294D01*
X171892617Y-114237383D01*
X172010706Y-114316287D01*
X172150000Y-114343994D01*
X172397210Y-114343994D01*
X172118642Y-114474817D01*
X171728355Y-114903076D01*
X171558524Y-115313110D01*
X170308928Y-115313110D01*
X170308928Y-111528788D01*
X170690717Y-111147000D01*
X171920529Y-111147000D01*
X172129802Y-111460198D01*
X172529052Y-111726969D01*
X172881123Y-111797000D01*
X173118877Y-111797000D01*
X173470948Y-111726969D01*
X173870198Y-111460198D01*
X174136969Y-111060948D01*
X174230646Y-110590000D01*
X174136969Y-110119052D01*
X173870198Y-109719802D01*
X173470948Y-109453031D01*
X173293119Y-109417659D01*
X173465366Y-109414367D01*
X174174505Y-109120632D01*
X174334272Y-108801877D01*
X173000000Y-107467605D01*
X171665728Y-108801877D01*
X171825495Y-109120632D01*
X172616217Y-109430595D01*
X172644570Y-109430053D01*
X172529052Y-109453031D01*
X172129802Y-109719802D01*
X171920529Y-110033000D01*
X170514853Y-110033000D01*
X170459999Y-110022089D01*
X170405145Y-110033000D01*
X170405142Y-110033000D01*
X170242669Y-110065318D01*
X170058426Y-110188426D01*
X170027352Y-110234931D01*
X169396861Y-110865423D01*
X169350354Y-110896498D01*
X169227246Y-111080742D01*
X169194928Y-111243215D01*
X169194928Y-111243218D01*
X169184017Y-111298072D01*
X169194928Y-111352926D01*
X169194929Y-117833579D01*
X169072449Y-117956059D01*
X168950428Y-118250644D01*
X159587000Y-118250644D01*
X159587000Y-111166492D01*
X159709479Y-111044013D01*
X159831500Y-110749428D01*
X159831500Y-110430572D01*
X159709479Y-110135987D01*
X159484013Y-109910521D01*
X159189428Y-109788500D01*
X158870572Y-109788500D01*
X158575987Y-109910521D01*
X158350521Y-110135987D01*
X158228500Y-110430572D01*
X154386499Y-110430572D01*
X154386499Y-108305719D01*
X154518493Y-108279464D01*
X155000438Y-107957438D01*
X155322464Y-107475493D01*
X155435544Y-106907000D01*
X155322464Y-106338507D01*
X155000438Y-105856562D01*
X154518493Y-105534536D01*
X154292082Y-105489500D01*
X158137506Y-105489500D01*
X158137506Y-107689500D01*
X158165213Y-107828794D01*
X158244117Y-107946883D01*
X158362206Y-108025787D01*
X158501500Y-108053494D01*
X160701500Y-108053494D01*
X160840794Y-108025787D01*
X160958883Y-107946883D01*
X161037787Y-107828794D01*
X161065494Y-107689500D01*
X161065494Y-106589500D01*
X161925956Y-106589500D01*
X162039036Y-107157993D01*
X162283001Y-107523112D01*
X162283000Y-112553508D01*
X162160521Y-112675987D01*
X162038500Y-112970572D01*
X162038500Y-113289428D01*
X162160521Y-113584013D01*
X162385987Y-113809479D01*
X162680572Y-113931500D01*
X162999428Y-113931500D01*
X163294013Y-113809479D01*
X163519479Y-113584013D01*
X163641500Y-113289428D01*
X163641500Y-112970572D01*
X163519479Y-112675987D01*
X163397000Y-112553508D01*
X163397000Y-108046500D01*
X163555001Y-108046500D01*
X163979993Y-107961964D01*
X164461938Y-107639938D01*
X164783964Y-107157993D01*
X164834443Y-106904217D01*
X170857405Y-106904217D01*
X170873633Y-107753366D01*
X171167368Y-108462505D01*
X171486123Y-108622272D01*
X172820395Y-107288000D01*
X173179605Y-107288000D01*
X174513877Y-108622272D01*
X174832632Y-108462505D01*
X175142595Y-107671783D01*
X175126367Y-106822634D01*
X174832632Y-106113495D01*
X174513877Y-105953728D01*
X173179605Y-107288000D01*
X172820395Y-107288000D01*
X171486123Y-105953728D01*
X171167368Y-106113495D01*
X170857405Y-106904217D01*
X164834443Y-106904217D01*
X164897044Y-106589500D01*
X164783964Y-106021007D01*
X164461938Y-105539062D01*
X163979993Y-105217036D01*
X163555001Y-105132500D01*
X163267999Y-105132500D01*
X162843007Y-105217036D01*
X162361062Y-105539062D01*
X162039036Y-106021007D01*
X161925956Y-106589500D01*
X161065494Y-106589500D01*
X161065494Y-105489500D01*
X161037787Y-105350206D01*
X160958883Y-105232117D01*
X160840794Y-105153213D01*
X160701500Y-105125506D01*
X158501500Y-105125506D01*
X158362206Y-105153213D01*
X158244117Y-105232117D01*
X158165213Y-105350206D01*
X158137506Y-105489500D01*
X154292082Y-105489500D01*
X154093501Y-105450000D01*
X153806499Y-105450000D01*
X153381507Y-105534536D01*
X152899562Y-105856562D01*
X152577536Y-106338507D01*
X152464456Y-106907000D01*
X151603994Y-106907000D01*
X151603994Y-105807000D01*
X151576287Y-105667706D01*
X151497383Y-105549617D01*
X151379294Y-105470713D01*
X151240000Y-105443006D01*
X149040000Y-105443006D01*
X148900706Y-105470713D01*
X148782617Y-105549617D01*
X148703713Y-105667706D01*
X148676006Y-105807000D01*
X144913252Y-105807000D01*
X144903938Y-105793062D01*
X144421993Y-105471036D01*
X143997001Y-105386500D01*
X143709999Y-105386500D01*
X143285007Y-105471036D01*
X142803062Y-105793062D01*
X142481036Y-106275007D01*
X142367956Y-106843500D01*
X142481036Y-107411993D01*
X142487547Y-107421737D01*
X142398435Y-107510849D01*
X142398432Y-107510851D01*
X141980930Y-107928354D01*
X141934426Y-107959427D01*
X141903352Y-108005932D01*
X141903351Y-108005933D01*
X141890955Y-108024485D01*
X141815925Y-108136776D01*
X141811317Y-108143672D01*
X141768088Y-108361001D01*
X132208001Y-108361001D01*
X132208001Y-106843500D01*
X132525456Y-106843500D01*
X132638536Y-107411993D01*
X132960562Y-107893938D01*
X133442507Y-108215964D01*
X133867499Y-108300500D01*
X134154501Y-108300500D01*
X134579493Y-108215964D01*
X135061438Y-107893938D01*
X135383464Y-107411993D01*
X135496544Y-106843500D01*
X135383464Y-106275007D01*
X135061438Y-105793062D01*
X134987264Y-105743500D01*
X138579506Y-105743500D01*
X138579506Y-107943500D01*
X138607213Y-108082794D01*
X138686117Y-108200883D01*
X138804206Y-108279787D01*
X138943500Y-108307494D01*
X141143500Y-108307494D01*
X141282794Y-108279787D01*
X141400883Y-108200883D01*
X141479787Y-108082794D01*
X141507494Y-107943500D01*
X141507494Y-105743500D01*
X141479787Y-105604206D01*
X141400883Y-105486117D01*
X141282794Y-105407213D01*
X141143500Y-105379506D01*
X138943500Y-105379506D01*
X138804206Y-105407213D01*
X138686117Y-105486117D01*
X138607213Y-105604206D01*
X138579506Y-105743500D01*
X134987264Y-105743500D01*
X134579493Y-105471036D01*
X134154501Y-105386500D01*
X133867499Y-105386500D01*
X133442507Y-105471036D01*
X132960562Y-105793062D01*
X132638536Y-106275007D01*
X132525456Y-106843500D01*
X132208001Y-106843500D01*
X132208001Y-104080572D01*
X165848500Y-104080572D01*
X165848500Y-104399428D01*
X165970521Y-104694013D01*
X166195987Y-104919479D01*
X166490572Y-105041500D01*
X166809428Y-105041500D01*
X167104013Y-104919479D01*
X167329479Y-104694013D01*
X167451500Y-104399428D01*
X167451500Y-104080572D01*
X167329479Y-103785987D01*
X167207000Y-103663508D01*
X167207000Y-99284217D01*
X170857405Y-99284217D01*
X170873633Y-100133366D01*
X171167368Y-100842505D01*
X171486123Y-101002272D01*
X172820395Y-99668000D01*
X173179605Y-99668000D01*
X174513877Y-101002272D01*
X174832632Y-100842505D01*
X175142595Y-100051783D01*
X175126367Y-99202634D01*
X174832632Y-98493495D01*
X174513877Y-98333728D01*
X173179605Y-99668000D01*
X172820395Y-99668000D01*
X171486123Y-98333728D01*
X171167368Y-98493495D01*
X170857405Y-99284217D01*
X167207000Y-99284217D01*
X167207000Y-94358130D01*
X171136136Y-94358130D01*
X171136136Y-97357870D01*
X171163843Y-97497164D01*
X171242747Y-97615253D01*
X171360836Y-97694157D01*
X171500130Y-97721864D01*
X172099518Y-97721864D01*
X171825495Y-97835368D01*
X171665728Y-98154123D01*
X173000000Y-99488395D01*
X174334272Y-98154123D01*
X174174505Y-97835368D01*
X173884954Y-97721864D01*
X174499870Y-97721864D01*
X174639164Y-97694157D01*
X174757253Y-97615253D01*
X174836157Y-97497164D01*
X174863864Y-97357870D01*
X174863864Y-96418749D01*
X174899870Y-96425911D01*
X174954724Y-96415000D01*
X174954728Y-96415000D01*
X175117201Y-96382682D01*
X175301444Y-96259574D01*
X175332519Y-96213067D01*
X177673070Y-93872517D01*
X177719574Y-93841444D01*
X177842682Y-93657201D01*
X177875000Y-93494728D01*
X177875000Y-93494725D01*
X177885911Y-93439871D01*
X177875000Y-93385017D01*
X177875000Y-93381471D01*
X178188198Y-93172198D01*
X178454969Y-92772948D01*
X178548646Y-92302000D01*
X178454969Y-91831052D01*
X178188198Y-91431802D01*
X177951000Y-91273311D01*
X177951000Y-79902000D01*
X178120108Y-79902000D01*
X178407718Y-79844791D01*
X178733866Y-79626866D01*
X178951791Y-79300718D01*
X179028316Y-78916000D01*
X178951791Y-78531282D01*
X178733866Y-78205134D01*
X178407718Y-77987209D01*
X178120108Y-77930000D01*
X176667892Y-77930000D01*
X176380282Y-77987209D01*
X176054134Y-78205134D01*
X175836209Y-78531282D01*
X175759684Y-78916000D01*
X175836209Y-79300718D01*
X176054134Y-79626866D01*
X176380282Y-79844791D01*
X176667892Y-79902000D01*
X176837000Y-79902000D01*
X176837001Y-91171747D01*
X176447802Y-91431802D01*
X176181031Y-91831052D01*
X176087354Y-92302000D01*
X176181031Y-92772948D01*
X176447802Y-93172198D01*
X176657703Y-93312450D01*
X174863864Y-95106290D01*
X174863864Y-94358130D01*
X174836157Y-94218836D01*
X174757253Y-94100747D01*
X174639164Y-94021843D01*
X174499870Y-93994136D01*
X171500130Y-93994136D01*
X171360836Y-94021843D01*
X171242747Y-94100747D01*
X171163843Y-94218836D01*
X171136136Y-94358130D01*
X167207000Y-94358130D01*
X167207000Y-94330716D01*
X168484006Y-93053711D01*
X168484006Y-93152000D01*
X168511713Y-93291294D01*
X168590617Y-93409383D01*
X168708706Y-93488287D01*
X168848000Y-93515994D01*
X170548000Y-93515994D01*
X170687294Y-93488287D01*
X170805383Y-93409383D01*
X170884287Y-93291294D01*
X170911994Y-93152000D01*
X170911994Y-92302000D01*
X171007354Y-92302000D01*
X171101031Y-92772948D01*
X171367802Y-93172198D01*
X171767052Y-93438969D01*
X172119123Y-93509000D01*
X172356877Y-93509000D01*
X172708948Y-93438969D01*
X173108198Y-93172198D01*
X173374969Y-92772948D01*
X173468646Y-92302000D01*
X173397556Y-91944607D01*
X173427078Y-91900426D01*
X173518682Y-91763331D01*
X173531017Y-91701318D01*
X173551000Y-91600858D01*
X173551000Y-91600855D01*
X173561911Y-91546001D01*
X173551000Y-91491147D01*
X173551000Y-89602000D01*
X173720108Y-89602000D01*
X174007718Y-89544791D01*
X174333866Y-89326866D01*
X174551791Y-89000718D01*
X174628316Y-88616000D01*
X174551791Y-88231282D01*
X174333866Y-87905134D01*
X174007718Y-87687209D01*
X173720108Y-87630000D01*
X172267892Y-87630000D01*
X171980282Y-87687209D01*
X171654134Y-87905134D01*
X171436209Y-88231282D01*
X171359684Y-88616000D01*
X171436209Y-89000718D01*
X171654134Y-89326866D01*
X171980282Y-89544791D01*
X172267892Y-89602000D01*
X172437000Y-89602000D01*
X172437001Y-91110938D01*
X172356877Y-91095000D01*
X172119123Y-91095000D01*
X171767052Y-91165031D01*
X171367802Y-91431802D01*
X171101031Y-91831052D01*
X171007354Y-92302000D01*
X170911994Y-92302000D01*
X170911994Y-91452000D01*
X170884287Y-91312706D01*
X170805383Y-91194617D01*
X170687294Y-91115713D01*
X170548000Y-91088006D01*
X170255000Y-91088006D01*
X170255000Y-89184716D01*
X172957490Y-86482227D01*
X173054134Y-86626866D01*
X173380282Y-86844791D01*
X173667892Y-86902000D01*
X175120108Y-86902000D01*
X175407718Y-86844791D01*
X175445010Y-86819873D01*
X175445011Y-90847272D01*
X175147443Y-91144840D01*
X174896877Y-91095000D01*
X174659123Y-91095000D01*
X174307052Y-91165031D01*
X173907802Y-91431802D01*
X173641031Y-91831052D01*
X173547354Y-92302000D01*
X173641031Y-92772948D01*
X173907802Y-93172198D01*
X174307052Y-93438969D01*
X174659123Y-93509000D01*
X174896877Y-93509000D01*
X175248948Y-93438969D01*
X175648198Y-93172198D01*
X175914969Y-92772948D01*
X176008646Y-92302000D01*
X175935160Y-91932557D01*
X176357079Y-91510638D01*
X176403584Y-91479564D01*
X176461385Y-91393060D01*
X176526692Y-91295321D01*
X176546723Y-91194617D01*
X176559010Y-91132848D01*
X176559010Y-91132845D01*
X176569921Y-91077991D01*
X176559010Y-91023137D01*
X176559010Y-84649863D01*
X176569921Y-84595009D01*
X176559010Y-84540153D01*
X176559010Y-84540152D01*
X176526692Y-84377679D01*
X176403584Y-84193436D01*
X176357080Y-84162363D01*
X171255650Y-79060933D01*
X171224574Y-79014426D01*
X171040331Y-78891318D01*
X170877858Y-78859000D01*
X170877854Y-78859000D01*
X170823000Y-78848089D01*
X170780000Y-78856642D01*
X170780000Y-78689892D01*
X170722791Y-78402282D01*
X170504866Y-78076134D01*
X170178717Y-77858209D01*
X169794000Y-77781684D01*
X169409282Y-77858209D01*
X169083134Y-78076134D01*
X168865209Y-78402283D01*
X168808000Y-78689893D01*
X168808001Y-80142108D01*
X168865210Y-80429718D01*
X169083135Y-80755866D01*
X169409283Y-80973791D01*
X169794000Y-81050316D01*
X170178718Y-80973791D01*
X170504866Y-80755866D01*
X170722791Y-80429718D01*
X170776913Y-80157629D01*
X175445010Y-84825727D01*
X175445010Y-85012127D01*
X175407718Y-84987209D01*
X175120108Y-84930000D01*
X173667892Y-84930000D01*
X173380282Y-84987209D01*
X173054134Y-85205134D01*
X172951324Y-85359000D01*
X172790854Y-85359000D01*
X172736000Y-85348089D01*
X172681146Y-85359000D01*
X172681142Y-85359000D01*
X172518669Y-85391318D01*
X172439317Y-85444340D01*
X172380932Y-85483351D01*
X172380931Y-85483352D01*
X172334426Y-85514426D01*
X172303352Y-85560931D01*
X169342933Y-88521351D01*
X169296426Y-88552426D01*
X169173318Y-88736670D01*
X169141000Y-88899143D01*
X169141000Y-88899146D01*
X169130089Y-88954000D01*
X169141000Y-89008854D01*
X169141001Y-90997138D01*
X169141000Y-90997143D01*
X169141000Y-91088006D01*
X168848000Y-91088006D01*
X168708706Y-91115713D01*
X168590617Y-91194617D01*
X168511713Y-91312706D01*
X168484006Y-91452000D01*
X168484006Y-91741251D01*
X168448000Y-91734089D01*
X168393146Y-91745000D01*
X168393142Y-91745000D01*
X168230669Y-91777318D01*
X168046426Y-91900426D01*
X168015352Y-91946931D01*
X166294931Y-93667353D01*
X166248427Y-93698426D01*
X166217353Y-93744931D01*
X166217352Y-93744932D01*
X166125318Y-93882671D01*
X166082089Y-94100000D01*
X166093001Y-94154859D01*
X166093000Y-103663508D01*
X165970521Y-103785987D01*
X165848500Y-104080572D01*
X132208001Y-104080572D01*
X132208001Y-103909715D01*
X134131966Y-101985750D01*
X160085000Y-101985750D01*
X160085000Y-102676310D01*
X160181673Y-102909699D01*
X160360302Y-103088327D01*
X160593691Y-103185000D01*
X161284250Y-103185000D01*
X161443000Y-103026250D01*
X161443000Y-101827000D01*
X161697000Y-101827000D01*
X161697000Y-103026250D01*
X161855750Y-103185000D01*
X162546309Y-103185000D01*
X162779698Y-103088327D01*
X162958327Y-102909699D01*
X163055000Y-102676310D01*
X163055000Y-101985750D01*
X162896250Y-101827000D01*
X161697000Y-101827000D01*
X161443000Y-101827000D01*
X160243750Y-101827000D01*
X160085000Y-101985750D01*
X134131966Y-101985750D01*
X135394026Y-100723690D01*
X160085000Y-100723690D01*
X160085000Y-101414250D01*
X160243750Y-101573000D01*
X161443000Y-101573000D01*
X161443000Y-100373750D01*
X161697000Y-100373750D01*
X161697000Y-101573000D01*
X162896250Y-101573000D01*
X163055000Y-101414250D01*
X163055000Y-100723690D01*
X162958327Y-100490301D01*
X162779698Y-100311673D01*
X162546309Y-100215000D01*
X161855750Y-100215000D01*
X161697000Y-100373750D01*
X161443000Y-100373750D01*
X161284250Y-100215000D01*
X160593691Y-100215000D01*
X160360302Y-100311673D01*
X160181673Y-100490301D01*
X160085000Y-100723690D01*
X135394026Y-100723690D01*
X153047716Y-83070000D01*
X160356006Y-83070000D01*
X160356006Y-84770000D01*
X160383713Y-84909294D01*
X160462617Y-85027383D01*
X160580706Y-85106287D01*
X160720000Y-85133994D01*
X162420000Y-85133994D01*
X162559294Y-85106287D01*
X162677383Y-85027383D01*
X162756287Y-84909294D01*
X162783994Y-84770000D01*
X162783994Y-83070000D01*
X162756287Y-82930706D01*
X162677383Y-82812617D01*
X162559294Y-82733713D01*
X162420000Y-82706006D01*
X160720000Y-82706006D01*
X160580706Y-82733713D01*
X160462617Y-82812617D01*
X160383713Y-82930706D01*
X160356006Y-83070000D01*
X153047716Y-83070000D01*
X154852650Y-81265067D01*
X154852652Y-81265064D01*
X154893079Y-81224637D01*
X155106051Y-81267000D01*
X155333949Y-81267000D01*
X155671439Y-81199869D01*
X156054150Y-80944150D01*
X156309869Y-80561439D01*
X156399666Y-80110000D01*
X156309869Y-79658561D01*
X156054150Y-79275850D01*
X155671439Y-79020131D01*
X155333949Y-78953000D01*
X155106051Y-78953000D01*
X154893079Y-78995363D01*
X153231069Y-77333353D01*
X153199994Y-77286846D01*
X153015751Y-77163738D01*
X152853278Y-77131420D01*
X152853274Y-77131420D01*
X152798420Y-77120509D01*
X152743566Y-77131420D01*
X152003947Y-77131420D01*
X152260198Y-76960198D01*
X152526969Y-76560948D01*
X152620646Y-76090000D01*
X152526969Y-75619052D01*
X152260198Y-75219802D01*
X151860948Y-74953031D01*
X151508877Y-74883000D01*
X151271123Y-74883000D01*
X150919052Y-74953031D01*
X150519802Y-75219802D01*
X150253031Y-75619052D01*
X150159354Y-76090000D01*
X150253031Y-76560948D01*
X150519802Y-76960198D01*
X150776053Y-77131420D01*
X149463947Y-77131420D01*
X149720198Y-76960198D01*
X149986969Y-76560948D01*
X150080646Y-76090000D01*
X149986969Y-75619052D01*
X149720198Y-75219802D01*
X149320948Y-74953031D01*
X149306601Y-74950177D01*
X149616924Y-74821645D01*
X150045183Y-74431358D01*
X150248536Y-73998348D01*
X150253031Y-74020948D01*
X150519802Y-74420198D01*
X150919052Y-74686969D01*
X151271123Y-74757000D01*
X151508877Y-74757000D01*
X151860948Y-74686969D01*
X152260198Y-74420198D01*
X152526969Y-74020948D01*
X152531464Y-73998348D01*
X152734817Y-74431358D01*
X153163076Y-74821645D01*
X153473399Y-74950177D01*
X153459052Y-74953031D01*
X153059802Y-75219802D01*
X152793031Y-75619052D01*
X152699354Y-76090000D01*
X152793031Y-76560948D01*
X153059802Y-76960198D01*
X153459052Y-77226969D01*
X153811123Y-77297000D01*
X154048877Y-77297000D01*
X154400948Y-77226969D01*
X154800198Y-76960198D01*
X155066969Y-76560948D01*
X155160646Y-76090000D01*
X155239354Y-76090000D01*
X155333031Y-76560948D01*
X155599802Y-76960198D01*
X155999052Y-77226969D01*
X156351123Y-77297000D01*
X156588877Y-77297000D01*
X156940948Y-77226969D01*
X157340198Y-76960198D01*
X157606969Y-76560948D01*
X157700646Y-76090000D01*
X157779354Y-76090000D01*
X157873031Y-76560948D01*
X158139802Y-76960198D01*
X158539052Y-77226969D01*
X158891123Y-77297000D01*
X159128877Y-77297000D01*
X159480948Y-77226969D01*
X159880198Y-76960198D01*
X160146969Y-76560948D01*
X160151464Y-76538348D01*
X160354817Y-76971358D01*
X160783076Y-77361645D01*
X161193110Y-77531476D01*
X161423000Y-77410155D01*
X161423000Y-76217000D01*
X161677000Y-76217000D01*
X161677000Y-77410155D01*
X161906890Y-77531476D01*
X162316924Y-77361645D01*
X162745183Y-76971358D01*
X162991486Y-76446892D01*
X162870819Y-76217000D01*
X161677000Y-76217000D01*
X161423000Y-76217000D01*
X161403000Y-76217000D01*
X161403000Y-75963000D01*
X161423000Y-75963000D01*
X161423000Y-75943000D01*
X161677000Y-75943000D01*
X161677000Y-75963000D01*
X162870819Y-75963000D01*
X162991486Y-75733108D01*
X162745183Y-75208642D01*
X162316924Y-74818355D01*
X162006601Y-74689823D01*
X162020948Y-74686969D01*
X162374629Y-74450646D01*
X164563130Y-74450646D01*
X164563130Y-75189354D01*
X164845822Y-75871832D01*
X165368168Y-76394178D01*
X166050646Y-76676870D01*
X166789354Y-76676870D01*
X167471832Y-76394178D01*
X167994178Y-75871832D01*
X168276870Y-75189354D01*
X168276870Y-74450646D01*
X167994178Y-73768168D01*
X167471832Y-73245822D01*
X166789354Y-72963130D01*
X166050646Y-72963130D01*
X165368168Y-73245822D01*
X164845822Y-73768168D01*
X164563130Y-74450646D01*
X162374629Y-74450646D01*
X162420198Y-74420198D01*
X162686969Y-74020948D01*
X162780646Y-73550000D01*
X162686969Y-73079052D01*
X162420198Y-72679802D01*
X162020948Y-72413031D01*
X161668877Y-72343000D01*
X161431123Y-72343000D01*
X161079052Y-72413031D01*
X160679802Y-72679802D01*
X160413031Y-73079052D01*
X160319354Y-73550000D01*
X160413031Y-74020948D01*
X160679802Y-74420198D01*
X161079052Y-74686969D01*
X161093399Y-74689823D01*
X160783076Y-74818355D01*
X160354817Y-75208642D01*
X160151464Y-75641652D01*
X160146969Y-75619052D01*
X159880198Y-75219802D01*
X159480948Y-74953031D01*
X159128877Y-74883000D01*
X158891123Y-74883000D01*
X158539052Y-74953031D01*
X158139802Y-75219802D01*
X157873031Y-75619052D01*
X157779354Y-76090000D01*
X157700646Y-76090000D01*
X157606969Y-75619052D01*
X157340198Y-75219802D01*
X156940948Y-74953031D01*
X156588877Y-74883000D01*
X156351123Y-74883000D01*
X155999052Y-74953031D01*
X155599802Y-75219802D01*
X155333031Y-75619052D01*
X155239354Y-76090000D01*
X155160646Y-76090000D01*
X155066969Y-75619052D01*
X154800198Y-75219802D01*
X154400948Y-74953031D01*
X154386601Y-74950177D01*
X154696924Y-74821645D01*
X155125183Y-74431358D01*
X155328536Y-73998348D01*
X155333031Y-74020948D01*
X155599802Y-74420198D01*
X155999052Y-74686969D01*
X156351123Y-74757000D01*
X156588877Y-74757000D01*
X156940948Y-74686969D01*
X157340198Y-74420198D01*
X157606969Y-74020948D01*
X157700646Y-73550000D01*
X157779354Y-73550000D01*
X157873031Y-74020948D01*
X158139802Y-74420198D01*
X158539052Y-74686969D01*
X158891123Y-74757000D01*
X159128877Y-74757000D01*
X159480948Y-74686969D01*
X159880198Y-74420198D01*
X160146969Y-74020948D01*
X160240646Y-73550000D01*
X160146969Y-73079052D01*
X159880198Y-72679802D01*
X159480948Y-72413031D01*
X159128877Y-72343000D01*
X158891123Y-72343000D01*
X158539052Y-72413031D01*
X158139802Y-72679802D01*
X157873031Y-73079052D01*
X157779354Y-73550000D01*
X157700646Y-73550000D01*
X157606969Y-73079052D01*
X157340198Y-72679802D01*
X156940948Y-72413031D01*
X156588877Y-72343000D01*
X156351123Y-72343000D01*
X155999052Y-72413031D01*
X155599802Y-72679802D01*
X155333031Y-73079052D01*
X155328536Y-73101652D01*
X155125183Y-72668642D01*
X154696924Y-72278355D01*
X154286890Y-72108524D01*
X154057000Y-72229845D01*
X154057000Y-73423000D01*
X154077000Y-73423000D01*
X154077000Y-73677000D01*
X154057000Y-73677000D01*
X154057000Y-73697000D01*
X153803000Y-73697000D01*
X153803000Y-73677000D01*
X153783000Y-73677000D01*
X153783000Y-73423000D01*
X153803000Y-73423000D01*
X153803000Y-72229845D01*
X153573110Y-72108524D01*
X153163076Y-72278355D01*
X152734817Y-72668642D01*
X152531464Y-73101652D01*
X152526969Y-73079052D01*
X152260198Y-72679802D01*
X151860948Y-72413031D01*
X151508877Y-72343000D01*
X151271123Y-72343000D01*
X150919052Y-72413031D01*
X150519802Y-72679802D01*
X150253031Y-73079052D01*
X150248536Y-73101652D01*
X150045183Y-72668642D01*
X149616924Y-72278355D01*
X149206890Y-72108524D01*
X148977000Y-72229845D01*
X148977000Y-73423000D01*
X148997000Y-73423000D01*
X148997000Y-73677000D01*
X148977000Y-73677000D01*
X148977000Y-73697000D01*
X148723000Y-73697000D01*
X148723000Y-73677000D01*
X148703000Y-73677000D01*
X148703000Y-73423000D01*
X148723000Y-73423000D01*
X148723000Y-72229845D01*
X148493110Y-72108524D01*
X148083076Y-72278355D01*
X147654817Y-72668642D01*
X147451464Y-73101652D01*
X147446969Y-73079052D01*
X147180198Y-72679802D01*
X146780948Y-72413031D01*
X146428877Y-72343000D01*
X146191123Y-72343000D01*
X145839052Y-72413031D01*
X145439802Y-72679802D01*
X145173031Y-73079052D01*
X145079354Y-73550000D01*
X145173031Y-74020948D01*
X145439802Y-74420198D01*
X145839052Y-74686969D01*
X146191123Y-74757000D01*
X146428877Y-74757000D01*
X146679443Y-74707160D01*
X146804930Y-74832647D01*
X146804933Y-74832649D01*
X146953002Y-74980718D01*
X146953002Y-75067994D01*
X146780948Y-74953031D01*
X146428877Y-74883000D01*
X146191123Y-74883000D01*
X145839052Y-74953031D01*
X145439802Y-75219802D01*
X145173031Y-75619052D01*
X145168536Y-75641652D01*
X144965183Y-75208642D01*
X144536924Y-74818355D01*
X144226601Y-74689823D01*
X144240948Y-74686969D01*
X144640198Y-74420198D01*
X144906969Y-74020948D01*
X145000646Y-73550000D01*
X144906969Y-73079052D01*
X144640198Y-72679802D01*
X144240948Y-72413031D01*
X143888877Y-72343000D01*
X143651123Y-72343000D01*
X143299052Y-72413031D01*
X142899802Y-72679802D01*
X142633031Y-73079052D01*
X142539354Y-73550000D01*
X142633031Y-74020948D01*
X142899802Y-74420198D01*
X143299052Y-74686969D01*
X143313399Y-74689823D01*
X143003076Y-74818355D01*
X142574817Y-75208642D01*
X142371464Y-75641652D01*
X142366969Y-75619052D01*
X142100198Y-75219802D01*
X141700948Y-74953031D01*
X141348877Y-74883000D01*
X141111123Y-74883000D01*
X140759052Y-74953031D01*
X140359802Y-75219802D01*
X140093031Y-75619052D01*
X139999354Y-76090000D01*
X140093031Y-76560948D01*
X140359802Y-76960198D01*
X140759052Y-77226969D01*
X141111123Y-77297000D01*
X141348877Y-77297000D01*
X141700948Y-77226969D01*
X142100198Y-76960198D01*
X142366969Y-76560948D01*
X142371464Y-76538348D01*
X142574817Y-76971358D01*
X143003076Y-77361645D01*
X143413110Y-77531476D01*
X143643000Y-77410155D01*
X143643000Y-76217000D01*
X143623000Y-76217000D01*
X143623000Y-75963000D01*
X143643000Y-75963000D01*
X143643000Y-75943000D01*
X143897000Y-75943000D01*
X143897000Y-75963000D01*
X143917000Y-75963000D01*
X143917000Y-76217000D01*
X143897000Y-76217000D01*
X143897000Y-77410155D01*
X144126890Y-77531476D01*
X144536924Y-77361645D01*
X144640991Y-77266805D01*
X144640990Y-78859636D01*
X144630079Y-78914490D01*
X144640990Y-78969344D01*
X144640990Y-78969347D01*
X144673308Y-79131820D01*
X144796416Y-79316064D01*
X144842923Y-79347139D01*
X145215363Y-79719579D01*
X145150334Y-80046500D01*
X145215363Y-80373421D01*
X145174935Y-80413849D01*
X145174932Y-80413851D01*
X128395931Y-97192853D01*
X128349426Y-97223927D01*
X128318352Y-97270432D01*
X128318351Y-97270433D01*
X128226317Y-97408172D01*
X128183088Y-97625501D01*
X128194000Y-97680360D01*
X128193999Y-125199001D01*
X127086934Y-125199001D01*
X127032080Y-125188090D01*
X126977226Y-125199001D01*
X126977222Y-125199001D01*
X126814749Y-125231319D01*
X126735397Y-125284341D01*
X126677012Y-125323352D01*
X126677011Y-125323353D01*
X126630506Y-125354427D01*
X126599432Y-125400932D01*
X126284169Y-125716195D01*
X126118198Y-125467802D01*
X125718948Y-125201031D01*
X125366877Y-125131000D01*
X125129123Y-125131000D01*
X124777052Y-125201031D01*
X124377802Y-125467802D01*
X124111031Y-125867052D01*
X124017354Y-126338000D01*
X124111031Y-126808948D01*
X124377802Y-127208198D01*
X124777052Y-127474969D01*
X125129123Y-127545000D01*
X125366877Y-127545000D01*
X125718948Y-127474969D01*
X126118198Y-127208198D01*
X126327471Y-126895000D01*
X126395227Y-126895000D01*
X126450081Y-126905911D01*
X126504935Y-126895000D01*
X126504939Y-126895000D01*
X126667412Y-126862682D01*
X126851655Y-126739574D01*
X126882730Y-126693067D01*
X127262797Y-126313001D01*
X128696141Y-126313001D01*
X128750999Y-126323913D01*
X128805857Y-126313001D01*
X128968330Y-126280683D01*
X129152573Y-126157575D01*
X129275681Y-125973332D01*
X129318911Y-125756001D01*
X129307999Y-125701143D01*
X129307999Y-108307494D01*
X131094002Y-108307494D01*
X131094001Y-125165283D01*
X128788283Y-127471001D01*
X126152852Y-127471001D01*
X126097998Y-127460090D01*
X126043144Y-127471001D01*
X126043141Y-127471001D01*
X125898349Y-127499802D01*
X125880668Y-127503319D01*
X125806102Y-127553143D01*
X125696425Y-127626427D01*
X125665351Y-127672932D01*
X125617443Y-127720840D01*
X125366877Y-127671000D01*
X125129123Y-127671000D01*
X124777052Y-127741031D01*
X124377802Y-128007802D01*
X124111031Y-128407052D01*
X124017354Y-128878000D01*
X124111031Y-129348948D01*
X124377802Y-129748198D01*
X124777052Y-130014969D01*
X124799652Y-130019464D01*
X124366642Y-130222817D01*
X123976355Y-130651076D01*
X123806524Y-131061110D01*
X113613000Y-131061110D01*
X113613000Y-130807110D01*
X114662524Y-130807110D01*
X114783845Y-131037000D01*
X115977000Y-131037000D01*
X115977000Y-131017000D01*
X116231000Y-131017000D01*
X116231000Y-131037000D01*
X117424155Y-131037000D01*
X117545476Y-130807110D01*
X117375645Y-130397076D01*
X116985358Y-129968817D01*
X116552348Y-129765464D01*
X116574948Y-129760969D01*
X116974198Y-129494198D01*
X117240969Y-129094948D01*
X117334646Y-128624000D01*
X117240969Y-128153052D01*
X116974198Y-127753802D01*
X116574948Y-127487031D01*
X116222877Y-127417000D01*
X115985123Y-127417000D01*
X115633052Y-127487031D01*
X115233802Y-127753802D01*
X114967031Y-128153052D01*
X114873354Y-128624000D01*
X114967031Y-129094948D01*
X115233802Y-129494198D01*
X115633052Y-129760969D01*
X115655652Y-129765464D01*
X115222642Y-129968817D01*
X114832355Y-130397076D01*
X114662524Y-130807110D01*
X113613000Y-130807110D01*
X113613000Y-130392494D01*
X113705986Y-130485480D01*
X114000571Y-130607501D01*
X114319427Y-130607501D01*
X114614012Y-130485480D01*
X114839478Y-130260014D01*
X114961499Y-129965429D01*
X114961499Y-129646573D01*
X114839478Y-129351988D01*
X114716999Y-129229509D01*
X114716999Y-128258717D01*
X115734557Y-127241160D01*
X115985123Y-127291000D01*
X116222877Y-127291000D01*
X116574948Y-127220969D01*
X116974198Y-126954198D01*
X117240969Y-126554948D01*
X117334646Y-126084000D01*
X117240969Y-125613052D01*
X116974198Y-125213802D01*
X116574948Y-124947031D01*
X116222877Y-124877000D01*
X115985123Y-124877000D01*
X115633052Y-124947031D01*
X115233802Y-125213802D01*
X114967031Y-125613052D01*
X114873354Y-126084000D01*
X114946840Y-126453443D01*
X113804931Y-127595353D01*
X113758426Y-127626427D01*
X113727352Y-127672932D01*
X113727351Y-127672933D01*
X113635317Y-127810672D01*
X113613000Y-127922868D01*
X113613000Y-123544000D01*
X114873354Y-123544000D01*
X114967031Y-124014948D01*
X115233802Y-124414198D01*
X115633052Y-124680969D01*
X115985123Y-124751000D01*
X116222877Y-124751000D01*
X116574948Y-124680969D01*
X116974198Y-124414198D01*
X117240969Y-124014948D01*
X117334646Y-123544000D01*
X117261159Y-123174557D01*
X118745070Y-121690647D01*
X118791574Y-121659574D01*
X118914682Y-121475331D01*
X118947000Y-121312858D01*
X118947000Y-121312855D01*
X118957911Y-121258001D01*
X118947000Y-121203147D01*
X118947000Y-114976492D01*
X119069479Y-114854013D01*
X119191500Y-114559428D01*
X119191500Y-114240572D01*
X119069479Y-113945987D01*
X118844013Y-113720521D01*
X118549428Y-113598500D01*
X118230572Y-113598500D01*
X117935987Y-113720521D01*
X117710521Y-113945987D01*
X117588500Y-114240572D01*
X117588500Y-114559428D01*
X117710521Y-114854013D01*
X117833001Y-114976493D01*
X117833000Y-121027283D01*
X117317994Y-121542289D01*
X117317994Y-120154000D01*
X117290287Y-120014706D01*
X117211383Y-119896617D01*
X117093294Y-119817713D01*
X116954000Y-119790006D01*
X115254000Y-119790006D01*
X115114706Y-119817713D01*
X114996617Y-119896617D01*
X114917713Y-120014706D01*
X114890006Y-120154000D01*
X114890006Y-121854000D01*
X114917713Y-121993294D01*
X114996617Y-122111383D01*
X115114706Y-122190287D01*
X115254000Y-122217994D01*
X116642290Y-122217994D01*
X116473443Y-122386841D01*
X116222877Y-122337000D01*
X115985123Y-122337000D01*
X115633052Y-122407031D01*
X115233802Y-122673802D01*
X114967031Y-123073052D01*
X114873354Y-123544000D01*
X113613000Y-123544000D01*
X113613000Y-79195128D01*
X114845071Y-77963058D01*
X114891575Y-77931985D01*
X115014683Y-77747742D01*
X115047001Y-77585269D01*
X115047001Y-77585265D01*
X115057912Y-77530411D01*
X115047001Y-77475557D01*
X115047001Y-77018463D01*
X115273001Y-77169471D01*
X115273000Y-105090148D01*
X115262089Y-105145002D01*
X115273000Y-105199856D01*
X115273000Y-105199859D01*
X115305318Y-105362332D01*
X115428426Y-105546576D01*
X115474934Y-105577652D01*
X120119000Y-110221718D01*
X120119001Y-124491507D01*
X119996521Y-124613987D01*
X119874500Y-124908572D01*
X119874500Y-125227428D01*
X119996521Y-125522013D01*
X120221987Y-125747479D01*
X120516572Y-125869500D01*
X120835428Y-125869500D01*
X121130013Y-125747479D01*
X121188001Y-125689491D01*
X121188001Y-126844147D01*
X121177090Y-126899001D01*
X121188001Y-126953855D01*
X121188001Y-126953858D01*
X121220319Y-127116331D01*
X121343427Y-127300575D01*
X121389934Y-127331650D01*
X121652500Y-127594216D01*
X121652500Y-127767428D01*
X121774521Y-128062013D01*
X121999987Y-128287479D01*
X122294572Y-128409500D01*
X122613428Y-128409500D01*
X122908013Y-128287479D01*
X123133479Y-128062013D01*
X123255500Y-127767428D01*
X123255500Y-127448572D01*
X123133479Y-127153987D01*
X122908013Y-126928521D01*
X122613428Y-126806500D01*
X122440216Y-126806500D01*
X122302001Y-126668285D01*
X122302001Y-123798000D01*
X124017354Y-123798000D01*
X124111031Y-124268948D01*
X124377802Y-124668198D01*
X124777052Y-124934969D01*
X125129123Y-125005000D01*
X125366877Y-125005000D01*
X125718948Y-124934969D01*
X126118198Y-124668198D01*
X126384969Y-124268948D01*
X126478646Y-123798000D01*
X126405160Y-123428557D01*
X126530647Y-123303070D01*
X126530649Y-123303067D01*
X126803067Y-123030649D01*
X126849575Y-122999573D01*
X126972683Y-122815330D01*
X127005001Y-122652857D01*
X127005001Y-122652853D01*
X127015912Y-122597999D01*
X127005001Y-122543145D01*
X127005001Y-120182853D01*
X127015912Y-120127999D01*
X127005001Y-120073145D01*
X127005001Y-120073141D01*
X126972683Y-119910668D01*
X126849575Y-119726425D01*
X126803068Y-119695350D01*
X126687501Y-119579783D01*
X126687501Y-113826993D01*
X126809980Y-113704514D01*
X126932001Y-113409929D01*
X126932001Y-113091073D01*
X126809980Y-112796488D01*
X126584514Y-112571022D01*
X126289929Y-112449001D01*
X125971073Y-112449001D01*
X125676488Y-112571022D01*
X125451022Y-112796488D01*
X125329001Y-113091073D01*
X125329001Y-113409929D01*
X125451022Y-113704514D01*
X125573501Y-113826993D01*
X125573502Y-119755640D01*
X125562590Y-119810499D01*
X125605819Y-120027828D01*
X125616629Y-120044006D01*
X124398000Y-120044006D01*
X124258706Y-120071713D01*
X124140617Y-120150617D01*
X124061713Y-120268706D01*
X124034006Y-120408000D01*
X124034006Y-122108000D01*
X124061713Y-122247294D01*
X124140617Y-122365383D01*
X124258706Y-122444287D01*
X124398000Y-122471994D01*
X125786290Y-122471994D01*
X125742933Y-122515351D01*
X125742930Y-122515353D01*
X125617443Y-122640840D01*
X125366877Y-122591000D01*
X125129123Y-122591000D01*
X124777052Y-122661031D01*
X124377802Y-122927802D01*
X124111031Y-123327052D01*
X124017354Y-123798000D01*
X122302001Y-123798000D01*
X122302001Y-106780000D01*
X122619456Y-106780000D01*
X122732536Y-107348493D01*
X123054562Y-107830438D01*
X123536507Y-108152464D01*
X123961499Y-108237000D01*
X124248501Y-108237000D01*
X124673493Y-108152464D01*
X125155438Y-107830438D01*
X125477464Y-107348493D01*
X125590544Y-106780000D01*
X125477464Y-106211507D01*
X125155438Y-105729562D01*
X124673493Y-105407536D01*
X124248501Y-105323000D01*
X123961499Y-105323000D01*
X123536507Y-105407536D01*
X123054562Y-105729562D01*
X122732536Y-106211507D01*
X122619456Y-106780000D01*
X122302001Y-106780000D01*
X122302001Y-105454852D01*
X122312912Y-105399998D01*
X122302001Y-105345144D01*
X122302001Y-105345141D01*
X122269683Y-105182668D01*
X122146575Y-104998425D01*
X122100070Y-104967351D01*
X120317718Y-103185000D01*
X120644250Y-103185000D01*
X120803000Y-103026250D01*
X120803000Y-101827000D01*
X121057000Y-101827000D01*
X121057000Y-103026250D01*
X121215750Y-103185000D01*
X121906309Y-103185000D01*
X122139698Y-103088327D01*
X122318327Y-102909699D01*
X122415000Y-102676310D01*
X122415000Y-101985750D01*
X122256250Y-101827000D01*
X121057000Y-101827000D01*
X120803000Y-101827000D01*
X119603750Y-101827000D01*
X119445000Y-101985750D01*
X119445000Y-102312282D01*
X118927000Y-101794282D01*
X118927000Y-100723690D01*
X119445000Y-100723690D01*
X119445000Y-101414250D01*
X119603750Y-101573000D01*
X120803000Y-101573000D01*
X120803000Y-100373750D01*
X121057000Y-100373750D01*
X121057000Y-101573000D01*
X122256250Y-101573000D01*
X122415000Y-101414250D01*
X122415000Y-100723690D01*
X122318327Y-100490301D01*
X122139698Y-100311673D01*
X121906309Y-100215000D01*
X121215750Y-100215000D01*
X121057000Y-100373750D01*
X120803000Y-100373750D01*
X120644250Y-100215000D01*
X119953691Y-100215000D01*
X119720302Y-100311673D01*
X119541673Y-100490301D01*
X119445000Y-100723690D01*
X118927000Y-100723690D01*
X118927000Y-83070000D01*
X119716006Y-83070000D01*
X119716006Y-84770000D01*
X119743713Y-84909294D01*
X119822617Y-85027383D01*
X119940706Y-85106287D01*
X120080000Y-85133994D01*
X121780000Y-85133994D01*
X121919294Y-85106287D01*
X122037383Y-85027383D01*
X122116287Y-84909294D01*
X122143994Y-84770000D01*
X122143994Y-83070000D01*
X122116287Y-82930706D01*
X122037383Y-82812617D01*
X121919294Y-82733713D01*
X121780000Y-82706006D01*
X120080000Y-82706006D01*
X119940706Y-82733713D01*
X119822617Y-82812617D01*
X119743713Y-82930706D01*
X119716006Y-83070000D01*
X118927000Y-83070000D01*
X118927000Y-79816358D01*
X140093000Y-79816358D01*
X140093000Y-80276642D01*
X140269143Y-80701888D01*
X140594612Y-81027357D01*
X141019858Y-81203500D01*
X141480142Y-81203500D01*
X141905388Y-81027357D01*
X142230857Y-80701888D01*
X142407000Y-80276642D01*
X142407000Y-79816358D01*
X142230857Y-79391112D01*
X141905388Y-79065643D01*
X141480142Y-78889500D01*
X141019858Y-78889500D01*
X140594612Y-79065643D01*
X140269143Y-79391112D01*
X140093000Y-79816358D01*
X118927000Y-79816358D01*
X118927000Y-77169471D01*
X119240198Y-76960198D01*
X119506969Y-76560948D01*
X119600646Y-76090000D01*
X119679354Y-76090000D01*
X119773031Y-76560948D01*
X120039802Y-76960198D01*
X120439052Y-77226969D01*
X120791123Y-77297000D01*
X121028877Y-77297000D01*
X121380948Y-77226969D01*
X121780198Y-76960198D01*
X122046969Y-76560948D01*
X122051464Y-76538348D01*
X122254817Y-76971358D01*
X122683076Y-77361645D01*
X123093110Y-77531476D01*
X123323000Y-77410155D01*
X123323000Y-76217000D01*
X123303000Y-76217000D01*
X123303000Y-75963000D01*
X123323000Y-75963000D01*
X123323000Y-75943000D01*
X123577000Y-75943000D01*
X123577000Y-75963000D01*
X123597000Y-75963000D01*
X123597000Y-76217000D01*
X123577000Y-76217000D01*
X123577000Y-77410155D01*
X123806890Y-77531476D01*
X124216924Y-77361645D01*
X124645183Y-76971358D01*
X124848536Y-76538348D01*
X124853031Y-76560948D01*
X125119802Y-76960198D01*
X125519052Y-77226969D01*
X125871123Y-77297000D01*
X126108877Y-77297000D01*
X126460948Y-77226969D01*
X126860198Y-76960198D01*
X127126969Y-76560948D01*
X127220646Y-76090000D01*
X127126969Y-75619052D01*
X126860198Y-75219802D01*
X126460948Y-74953031D01*
X126108877Y-74883000D01*
X125871123Y-74883000D01*
X125519052Y-74953031D01*
X125119802Y-75219802D01*
X124853031Y-75619052D01*
X124848536Y-75641652D01*
X124645183Y-75208642D01*
X124216924Y-74818355D01*
X123906601Y-74689823D01*
X123920948Y-74686969D01*
X124320198Y-74420198D01*
X124586969Y-74020948D01*
X124680646Y-73550000D01*
X124759354Y-73550000D01*
X124853031Y-74020948D01*
X125119802Y-74420198D01*
X125519052Y-74686969D01*
X125871123Y-74757000D01*
X126108877Y-74757000D01*
X126460948Y-74686969D01*
X126860198Y-74420198D01*
X127126969Y-74020948D01*
X127131464Y-73998348D01*
X127334817Y-74431358D01*
X127763076Y-74821645D01*
X128073399Y-74950177D01*
X128059052Y-74953031D01*
X127659802Y-75219802D01*
X127393031Y-75619052D01*
X127299354Y-76090000D01*
X127393031Y-76560948D01*
X127659802Y-76960198D01*
X128059052Y-77226969D01*
X128411123Y-77297000D01*
X128648877Y-77297000D01*
X129000948Y-77226969D01*
X129400198Y-76960198D01*
X129666969Y-76560948D01*
X129760646Y-76090000D01*
X129839354Y-76090000D01*
X129933031Y-76560948D01*
X130199802Y-76960198D01*
X130599052Y-77226969D01*
X130951123Y-77297000D01*
X131188877Y-77297000D01*
X131540948Y-77226969D01*
X131940198Y-76960198D01*
X132206969Y-76560948D01*
X132300646Y-76090000D01*
X132379354Y-76090000D01*
X132473031Y-76560948D01*
X132739802Y-76960198D01*
X133139052Y-77226969D01*
X133491123Y-77297000D01*
X133728877Y-77297000D01*
X134080948Y-77226969D01*
X134480198Y-76960198D01*
X134746969Y-76560948D01*
X134840646Y-76090000D01*
X134746969Y-75619052D01*
X134480198Y-75219802D01*
X134080948Y-74953031D01*
X133728877Y-74883000D01*
X133491123Y-74883000D01*
X133139052Y-74953031D01*
X132739802Y-75219802D01*
X132473031Y-75619052D01*
X132379354Y-76090000D01*
X132300646Y-76090000D01*
X132206969Y-75619052D01*
X131940198Y-75219802D01*
X131540948Y-74953031D01*
X131188877Y-74883000D01*
X130951123Y-74883000D01*
X130599052Y-74953031D01*
X130199802Y-75219802D01*
X129933031Y-75619052D01*
X129839354Y-76090000D01*
X129760646Y-76090000D01*
X129666969Y-75619052D01*
X129400198Y-75219802D01*
X129000948Y-74953031D01*
X128986601Y-74950177D01*
X129296924Y-74821645D01*
X129725183Y-74431358D01*
X129928536Y-73998348D01*
X129933031Y-74020948D01*
X130199802Y-74420198D01*
X130599052Y-74686969D01*
X130951123Y-74757000D01*
X131188877Y-74757000D01*
X131540948Y-74686969D01*
X131940198Y-74420198D01*
X132206969Y-74020948D01*
X132300646Y-73550000D01*
X132379354Y-73550000D01*
X132473031Y-74020948D01*
X132739802Y-74420198D01*
X133139052Y-74686969D01*
X133491123Y-74757000D01*
X133728877Y-74757000D01*
X134080948Y-74686969D01*
X134480198Y-74420198D01*
X134746969Y-74020948D01*
X134751464Y-73998348D01*
X134954817Y-74431358D01*
X135383076Y-74821645D01*
X135693399Y-74950177D01*
X135679052Y-74953031D01*
X135279802Y-75219802D01*
X135013031Y-75619052D01*
X134919354Y-76090000D01*
X135013031Y-76560948D01*
X135279802Y-76960198D01*
X135679052Y-77226969D01*
X136031123Y-77297000D01*
X136268877Y-77297000D01*
X136620948Y-77226969D01*
X137020198Y-76960198D01*
X137286969Y-76560948D01*
X137380646Y-76090000D01*
X137459354Y-76090000D01*
X137553031Y-76560948D01*
X137819802Y-76960198D01*
X138219052Y-77226969D01*
X138571123Y-77297000D01*
X138808877Y-77297000D01*
X139160948Y-77226969D01*
X139560198Y-76960198D01*
X139826969Y-76560948D01*
X139920646Y-76090000D01*
X139826969Y-75619052D01*
X139560198Y-75219802D01*
X139160948Y-74953031D01*
X138808877Y-74883000D01*
X138571123Y-74883000D01*
X138219052Y-74953031D01*
X137819802Y-75219802D01*
X137553031Y-75619052D01*
X137459354Y-76090000D01*
X137380646Y-76090000D01*
X137286969Y-75619052D01*
X137020198Y-75219802D01*
X136620948Y-74953031D01*
X136606601Y-74950177D01*
X136916924Y-74821645D01*
X137345183Y-74431358D01*
X137548536Y-73998348D01*
X137553031Y-74020948D01*
X137819802Y-74420198D01*
X138219052Y-74686969D01*
X138571123Y-74757000D01*
X138808877Y-74757000D01*
X139160948Y-74686969D01*
X139560198Y-74420198D01*
X139826969Y-74020948D01*
X139920646Y-73550000D01*
X139999354Y-73550000D01*
X140093031Y-74020948D01*
X140359802Y-74420198D01*
X140759052Y-74686969D01*
X141111123Y-74757000D01*
X141348877Y-74757000D01*
X141700948Y-74686969D01*
X142100198Y-74420198D01*
X142366969Y-74020948D01*
X142460646Y-73550000D01*
X142366969Y-73079052D01*
X142100198Y-72679802D01*
X141700948Y-72413031D01*
X141348877Y-72343000D01*
X141111123Y-72343000D01*
X140759052Y-72413031D01*
X140359802Y-72679802D01*
X140093031Y-73079052D01*
X139999354Y-73550000D01*
X139920646Y-73550000D01*
X139826969Y-73079052D01*
X139560198Y-72679802D01*
X139160948Y-72413031D01*
X138808877Y-72343000D01*
X138571123Y-72343000D01*
X138219052Y-72413031D01*
X137819802Y-72679802D01*
X137553031Y-73079052D01*
X137548536Y-73101652D01*
X137345183Y-72668642D01*
X136916924Y-72278355D01*
X136506890Y-72108524D01*
X136277000Y-72229845D01*
X136277000Y-73423000D01*
X136297000Y-73423000D01*
X136297000Y-73677000D01*
X136277000Y-73677000D01*
X136277000Y-73697000D01*
X136023000Y-73697000D01*
X136023000Y-73677000D01*
X136003000Y-73677000D01*
X136003000Y-73423000D01*
X136023000Y-73423000D01*
X136023000Y-72229845D01*
X135793110Y-72108524D01*
X135383076Y-72278355D01*
X134954817Y-72668642D01*
X134751464Y-73101652D01*
X134746969Y-73079052D01*
X134480198Y-72679802D01*
X134080948Y-72413031D01*
X133728877Y-72343000D01*
X133491123Y-72343000D01*
X133139052Y-72413031D01*
X132739802Y-72679802D01*
X132473031Y-73079052D01*
X132379354Y-73550000D01*
X132300646Y-73550000D01*
X132206969Y-73079052D01*
X131940198Y-72679802D01*
X131540948Y-72413031D01*
X131188877Y-72343000D01*
X130951123Y-72343000D01*
X130599052Y-72413031D01*
X130199802Y-72679802D01*
X129933031Y-73079052D01*
X129928536Y-73101652D01*
X129725183Y-72668642D01*
X129296924Y-72278355D01*
X128886890Y-72108524D01*
X128657000Y-72229845D01*
X128657000Y-73423000D01*
X128677000Y-73423000D01*
X128677000Y-73677000D01*
X128657000Y-73677000D01*
X128657000Y-73697000D01*
X128403000Y-73697000D01*
X128403000Y-73677000D01*
X128383000Y-73677000D01*
X128383000Y-73423000D01*
X128403000Y-73423000D01*
X128403000Y-72229845D01*
X128173110Y-72108524D01*
X127763076Y-72278355D01*
X127334817Y-72668642D01*
X127131464Y-73101652D01*
X127126969Y-73079052D01*
X126860198Y-72679802D01*
X126460948Y-72413031D01*
X126108877Y-72343000D01*
X125871123Y-72343000D01*
X125519052Y-72413031D01*
X125119802Y-72679802D01*
X124853031Y-73079052D01*
X124759354Y-73550000D01*
X124680646Y-73550000D01*
X124586969Y-73079052D01*
X124320198Y-72679802D01*
X123920948Y-72413031D01*
X123568877Y-72343000D01*
X123331123Y-72343000D01*
X122979052Y-72413031D01*
X122579802Y-72679802D01*
X122313031Y-73079052D01*
X122219354Y-73550000D01*
X122313031Y-74020948D01*
X122579802Y-74420198D01*
X122979052Y-74686969D01*
X122993399Y-74689823D01*
X122683076Y-74818355D01*
X122254817Y-75208642D01*
X122051464Y-75641652D01*
X122046969Y-75619052D01*
X121780198Y-75219802D01*
X121380948Y-74953031D01*
X121028877Y-74883000D01*
X120791123Y-74883000D01*
X120439052Y-74953031D01*
X120039802Y-75219802D01*
X119773031Y-75619052D01*
X119679354Y-76090000D01*
X119600646Y-76090000D01*
X119506969Y-75619052D01*
X119240198Y-75219802D01*
X118840948Y-74953031D01*
X118826601Y-74950177D01*
X119136924Y-74821645D01*
X119565183Y-74431358D01*
X119768536Y-73998348D01*
X119773031Y-74020948D01*
X120039802Y-74420198D01*
X120439052Y-74686969D01*
X120791123Y-74757000D01*
X121028877Y-74757000D01*
X121380948Y-74686969D01*
X121780198Y-74420198D01*
X122046969Y-74020948D01*
X122140646Y-73550000D01*
X122046969Y-73079052D01*
X121780198Y-72679802D01*
X121380948Y-72413031D01*
X121028877Y-72343000D01*
X120791123Y-72343000D01*
X120439052Y-72413031D01*
X120039802Y-72679802D01*
X119773031Y-73079052D01*
X119768536Y-73101652D01*
X119565183Y-72668642D01*
X119136924Y-72278355D01*
X118726890Y-72108524D01*
X118497000Y-72229845D01*
X118497000Y-73423000D01*
X118517000Y-73423000D01*
X118517000Y-73677000D01*
X118497000Y-73677000D01*
X118497000Y-73697000D01*
X118243000Y-73697000D01*
X118243000Y-73677000D01*
X118223000Y-73677000D01*
X118223000Y-73423000D01*
X118243000Y-73423000D01*
X118243000Y-72229845D01*
X118013110Y-72108524D01*
X117603076Y-72278355D01*
X117174817Y-72668642D01*
X116971464Y-73101652D01*
X116966969Y-73079052D01*
X116700198Y-72679802D01*
X116300948Y-72413031D01*
X115948877Y-72343000D01*
X115711123Y-72343000D01*
X115359052Y-72413031D01*
X114959802Y-72679802D01*
X114750529Y-72993000D01*
X114369471Y-72993000D01*
X114160198Y-72679802D01*
X113760948Y-72413031D01*
X113408877Y-72343000D01*
X113171123Y-72343000D01*
X112819052Y-72413031D01*
X112419802Y-72679802D01*
X112153031Y-73079052D01*
X112059354Y-73550000D01*
X112153031Y-74020948D01*
X112419802Y-74420198D01*
X112819052Y-74686969D01*
X113171123Y-74757000D01*
X113408877Y-74757000D01*
X113659443Y-74707160D01*
X113784930Y-74832647D01*
X113784933Y-74832649D01*
X113828290Y-74876006D01*
X112440000Y-74876006D01*
X112300706Y-74903713D01*
X112182617Y-74982617D01*
X112103713Y-75100706D01*
X112076006Y-75240000D01*
X112076006Y-76940000D01*
X112103713Y-77079294D01*
X112108176Y-77085973D01*
X111878934Y-77276500D01*
X111626572Y-77276500D01*
X111331987Y-77398521D01*
X111106521Y-77623987D01*
X110984500Y-77918572D01*
X110984500Y-78237428D01*
X111106521Y-78532013D01*
X111228432Y-78653924D01*
X111181007Y-126742822D01*
X111170041Y-126797952D01*
X111191604Y-126906359D01*
X111213056Y-127014765D01*
X111213215Y-127015003D01*
X111213270Y-127015281D01*
X111274712Y-127107236D01*
X111335983Y-127199129D01*
X111382686Y-127230402D01*
X111483000Y-127330716D01*
X111483000Y-127553143D01*
X111483001Y-133127507D01*
X111360521Y-133249987D01*
X111238500Y-133544572D01*
X111238500Y-133863428D01*
X111360521Y-134158013D01*
X111585987Y-134383479D01*
X111880572Y-134505500D01*
X112199428Y-134505500D01*
X112494013Y-134383479D01*
X112499000Y-134378492D01*
X112499000Y-136775283D01*
X111301284Y-137973000D01*
X109893142Y-137973000D01*
X109940415Y-124925595D01*
X109994178Y-124871832D01*
X110276870Y-124189354D01*
X110276870Y-123450646D01*
X109994178Y-122768168D01*
X109948398Y-122722388D01*
X110001926Y-107948731D01*
X110182288Y-107678800D01*
X110198385Y-107639938D01*
X110243060Y-107532084D01*
X110319180Y-107149402D01*
X110319180Y-107149397D01*
X110327000Y-107110083D01*
X110327000Y-92029917D01*
X110319180Y-91990603D01*
X110319180Y-91990598D01*
X110243060Y-91607916D01*
X110182288Y-91461200D01*
X110062314Y-91281646D01*
X110119241Y-75569905D01*
X110276870Y-75189354D01*
X110276870Y-74450646D01*
X110124628Y-74083101D01*
X110134053Y-71481683D01*
X178881222Y-71627083D01*
X178881222Y-71627083D01*
G37*
X178881222Y-71627083D02*
X178884752Y-71626389D01*
X178889868Y-71626884D01*
X178894128Y-71626759D01*
X179523951Y-71605092D01*
X180092561Y-71724189D01*
X180616347Y-71975479D01*
X181065074Y-72344457D01*
X181412831Y-72809817D01*
X181639548Y-73344700D01*
X181735426Y-73938623D01*
X181737000Y-74018027D01*
X181737000Y-82473716D01*
X181722791Y-82402282D01*
X181504866Y-82076134D01*
X181178718Y-81858209D01*
X180794000Y-81781684D01*
X180409283Y-81858209D01*
X180083135Y-82076134D01*
X179865210Y-82402282D01*
X179808001Y-82689892D01*
X179808000Y-84142107D01*
X179865209Y-84429717D01*
X180083134Y-84755866D01*
X180237000Y-84858676D01*
X180237001Y-91135282D01*
X180227443Y-91144840D01*
X179976877Y-91095000D01*
X179739123Y-91095000D01*
X179387052Y-91165031D01*
X178987802Y-91431802D01*
X178721031Y-91831052D01*
X178627354Y-92302000D01*
X178721031Y-92772948D01*
X178987802Y-93172198D01*
X179301000Y-93381471D01*
X179301001Y-95549138D01*
X179301000Y-95549143D01*
X179301000Y-95912858D01*
X179301001Y-95912862D01*
X179301000Y-98289153D01*
X174863864Y-102726290D01*
X174863864Y-101978130D01*
X174836157Y-101838836D01*
X174757253Y-101720747D01*
X174639164Y-101641843D01*
X174499870Y-101614136D01*
X173900482Y-101614136D01*
X174174505Y-101500632D01*
X174334272Y-101181877D01*
X173000000Y-99847605D01*
X171665728Y-101181877D01*
X171825495Y-101500632D01*
X172115046Y-101614136D01*
X171500130Y-101614136D01*
X171360836Y-101641843D01*
X171242747Y-101720747D01*
X171163843Y-101838836D01*
X171136136Y-101978130D01*
X171136136Y-104977870D01*
X171163843Y-105117164D01*
X171242747Y-105235253D01*
X171360836Y-105314157D01*
X171500130Y-105341864D01*
X172099518Y-105341864D01*
X171825495Y-105455368D01*
X171665728Y-105774123D01*
X173000000Y-107108395D01*
X174334272Y-105774123D01*
X174174505Y-105455368D01*
X173884954Y-105341864D01*
X174499870Y-105341864D01*
X174639164Y-105314157D01*
X174757253Y-105235253D01*
X174836157Y-105117164D01*
X174863864Y-104977870D01*
X174863864Y-104038749D01*
X174899870Y-104045911D01*
X174954724Y-104035000D01*
X174954728Y-104035000D01*
X175117201Y-104002682D01*
X175301444Y-103879574D01*
X175332520Y-103833067D01*
X180213070Y-98952517D01*
X180259574Y-98921444D01*
X180382682Y-98737201D01*
X180415000Y-98574728D01*
X180415000Y-98574724D01*
X180425911Y-98519870D01*
X180415000Y-98465016D01*
X180415000Y-93381471D01*
X180728198Y-93172198D01*
X180994969Y-92772948D01*
X181088646Y-92302000D01*
X181015160Y-91932557D01*
X181149069Y-91798648D01*
X181195574Y-91767574D01*
X181239857Y-91701301D01*
X181294239Y-91619912D01*
X181318682Y-91583331D01*
X181351000Y-91420858D01*
X181351000Y-91420854D01*
X181361911Y-91366000D01*
X181351000Y-91311146D01*
X181351000Y-84858676D01*
X181504866Y-84755866D01*
X181722791Y-84429718D01*
X181737000Y-84358283D01*
X181737001Y-137808083D01*
X181742197Y-137834204D01*
X181739738Y-137847868D01*
X181664770Y-138490886D01*
X181460078Y-139054803D01*
X181131144Y-139556511D01*
X180695614Y-139969091D01*
X180176858Y-140270408D01*
X179602693Y-140444306D01*
X179067948Y-140477481D01*
X179000426Y-140432460D01*
X178881683Y-140408961D01*
X114127283Y-140472500D01*
X109884086Y-140472500D01*
X109889106Y-139087000D01*
X111477146Y-139087000D01*
X111532000Y-139097911D01*
X111586854Y-139087000D01*
X111586858Y-139087000D01*
X111749331Y-139054682D01*
X111933574Y-138931574D01*
X111964649Y-138885067D01*
X113411070Y-137438647D01*
X113457574Y-137407574D01*
X113580682Y-137223331D01*
X113613000Y-137060858D01*
X113613000Y-137060855D01*
X113623911Y-137006001D01*
X113613000Y-136951147D01*
X113613000Y-131520890D01*
X114662524Y-131520890D01*
X114832355Y-131930924D01*
X115222642Y-132359183D01*
X115655652Y-132562536D01*
X115633052Y-132567031D01*
X115233802Y-132833802D01*
X114967031Y-133233052D01*
X114873354Y-133704000D01*
X114967031Y-134174948D01*
X115233802Y-134574198D01*
X115633052Y-134840969D01*
X115985123Y-134911000D01*
X116222877Y-134911000D01*
X116574948Y-134840969D01*
X116974198Y-134574198D01*
X117240969Y-134174948D01*
X117334646Y-133704000D01*
X117240969Y-133233052D01*
X116974198Y-132833802D01*
X116574948Y-132567031D01*
X116552348Y-132562536D01*
X116985358Y-132359183D01*
X117375645Y-131930924D01*
X117440272Y-131774890D01*
X123806524Y-131774890D01*
X123976355Y-132184924D01*
X124366642Y-132613183D01*
X124799652Y-132816536D01*
X124777052Y-132821031D01*
X124377802Y-133087802D01*
X124111031Y-133487052D01*
X124017354Y-133958000D01*
X124111031Y-134428948D01*
X124377802Y-134828198D01*
X124777052Y-135094969D01*
X125129123Y-135165000D01*
X125366877Y-135165000D01*
X125718948Y-135094969D01*
X126118198Y-134828198D01*
X126384969Y-134428948D01*
X126478646Y-133958000D01*
X126384969Y-133487052D01*
X126118198Y-133087802D01*
X125718948Y-132821031D01*
X125696348Y-132816536D01*
X126129358Y-132613183D01*
X126519645Y-132184924D01*
X126689476Y-131774890D01*
X126568155Y-131545000D01*
X125375000Y-131545000D01*
X125375000Y-131565000D01*
X125121000Y-131565000D01*
X125121000Y-131545000D01*
X123927845Y-131545000D01*
X123806524Y-131774890D01*
X117440272Y-131774890D01*
X117545476Y-131520890D01*
X132950524Y-131520890D01*
X133120355Y-131930924D01*
X133510642Y-132359183D01*
X133943652Y-132562536D01*
X133921052Y-132567031D01*
X133521802Y-132833802D01*
X133255031Y-133233052D01*
X133161354Y-133704000D01*
X133255031Y-134174948D01*
X133521802Y-134574198D01*
X133921052Y-134840969D01*
X134273123Y-134911000D01*
X134510877Y-134911000D01*
X134862948Y-134840969D01*
X135262198Y-134574198D01*
X135528969Y-134174948D01*
X135622646Y-133704000D01*
X135528969Y-133233052D01*
X135262198Y-132833802D01*
X134862948Y-132567031D01*
X134840348Y-132562536D01*
X135273358Y-132359183D01*
X135663645Y-131930924D01*
X135728272Y-131774890D01*
X142094524Y-131774890D01*
X142264355Y-132184924D01*
X142654642Y-132613183D01*
X143087652Y-132816536D01*
X143065052Y-132821031D01*
X142665802Y-133087802D01*
X142399031Y-133487052D01*
X142305354Y-133958000D01*
X142399031Y-134428948D01*
X142665802Y-134828198D01*
X143065052Y-135094969D01*
X143417123Y-135165000D01*
X143654877Y-135165000D01*
X144006948Y-135094969D01*
X144406198Y-134828198D01*
X144672969Y-134428948D01*
X144766646Y-133958000D01*
X144672969Y-133487052D01*
X144406198Y-133087802D01*
X144006948Y-132821031D01*
X143984348Y-132816536D01*
X144417358Y-132613183D01*
X144807645Y-132184924D01*
X144977476Y-131774890D01*
X151048024Y-131774890D01*
X151217855Y-132184924D01*
X151608142Y-132613183D01*
X152041152Y-132816536D01*
X152018552Y-132821031D01*
X151619302Y-133087802D01*
X151352531Y-133487052D01*
X151258854Y-133958000D01*
X151352531Y-134428948D01*
X151619302Y-134828198D01*
X152018552Y-135094969D01*
X152370623Y-135165000D01*
X152608377Y-135165000D01*
X152960448Y-135094969D01*
X153359698Y-134828198D01*
X153626469Y-134428948D01*
X153720146Y-133958000D01*
X153626469Y-133487052D01*
X153359698Y-133087802D01*
X152960448Y-132821031D01*
X152937848Y-132816536D01*
X153370858Y-132613183D01*
X153761145Y-132184924D01*
X153930976Y-131774890D01*
X153809655Y-131545000D01*
X152616500Y-131545000D01*
X152616500Y-131565000D01*
X152362500Y-131565000D01*
X152362500Y-131545000D01*
X151169345Y-131545000D01*
X151048024Y-131774890D01*
X144977476Y-131774890D01*
X144856155Y-131545000D01*
X143663000Y-131545000D01*
X143663000Y-131565000D01*
X143409000Y-131565000D01*
X143409000Y-131545000D01*
X142215845Y-131545000D01*
X142094524Y-131774890D01*
X135728272Y-131774890D01*
X135833476Y-131520890D01*
X135712155Y-131291000D01*
X134519000Y-131291000D01*
X134519000Y-131311000D01*
X134265000Y-131311000D01*
X134265000Y-131291000D01*
X133071845Y-131291000D01*
X132950524Y-131520890D01*
X117545476Y-131520890D01*
X117424155Y-131291000D01*
X116231000Y-131291000D01*
X116231000Y-131311000D01*
X115977000Y-131311000D01*
X115977000Y-131291000D01*
X114783845Y-131291000D01*
X114662524Y-131520890D01*
X113613000Y-131520890D01*
X113613000Y-131061110D01*
X123806524Y-131061110D01*
X123927845Y-131291000D01*
X125121000Y-131291000D01*
X125121000Y-131271000D01*
X125375000Y-131271000D01*
X125375000Y-131291000D01*
X126568155Y-131291000D01*
X126689476Y-131061110D01*
X142094524Y-131061110D01*
X142215845Y-131291000D01*
X143409000Y-131291000D01*
X143409000Y-131271000D01*
X143663000Y-131271000D01*
X143663000Y-131291000D01*
X144856155Y-131291000D01*
X144977476Y-131061110D01*
X151048024Y-131061110D01*
X151169345Y-131291000D01*
X152362500Y-131291000D01*
X152362500Y-131271000D01*
X152616500Y-131271000D01*
X152616500Y-131291000D01*
X153809655Y-131291000D01*
X153930976Y-131061110D01*
X153761145Y-130651076D01*
X153370858Y-130222817D01*
X152937848Y-130019464D01*
X152960448Y-130014969D01*
X153359698Y-129748198D01*
X153626469Y-129348948D01*
X153720146Y-128878000D01*
X153626469Y-128407052D01*
X153359698Y-128007802D01*
X152960448Y-127741031D01*
X152608377Y-127671000D01*
X152370623Y-127671000D01*
X152018552Y-127741031D01*
X151619302Y-128007802D01*
X151352531Y-128407052D01*
X151258854Y-128878000D01*
X151352531Y-129348948D01*
X151619302Y-129748198D01*
X152018552Y-130014969D01*
X152041152Y-130019464D01*
X151608142Y-130222817D01*
X151217855Y-130651076D01*
X151048024Y-131061110D01*
X144977476Y-131061110D01*
X144807645Y-130651076D01*
X144417358Y-130222817D01*
X143984348Y-130019464D01*
X144006948Y-130014969D01*
X144406198Y-129748198D01*
X144672969Y-129348948D01*
X144766646Y-128878000D01*
X144672969Y-128407052D01*
X144406198Y-128007802D01*
X144006948Y-127741031D01*
X143654877Y-127671000D01*
X143417123Y-127671000D01*
X143065052Y-127741031D01*
X142665802Y-128007802D01*
X142399031Y-128407052D01*
X142305354Y-128878000D01*
X142399031Y-129348948D01*
X142665802Y-129748198D01*
X143065052Y-130014969D01*
X143087652Y-130019464D01*
X142654642Y-130222817D01*
X142264355Y-130651076D01*
X142094524Y-131061110D01*
X126689476Y-131061110D01*
X126584273Y-130807110D01*
X132950524Y-130807110D01*
X133071845Y-131037000D01*
X134265000Y-131037000D01*
X134265000Y-131017000D01*
X134519000Y-131017000D01*
X134519000Y-131037000D01*
X135712155Y-131037000D01*
X135833476Y-130807110D01*
X135663645Y-130397076D01*
X135273358Y-129968817D01*
X134840348Y-129765464D01*
X134862948Y-129760969D01*
X135262198Y-129494198D01*
X135528969Y-129094948D01*
X135622646Y-128624000D01*
X135528969Y-128153052D01*
X135262198Y-127753802D01*
X134862948Y-127487031D01*
X134510877Y-127417000D01*
X134273123Y-127417000D01*
X133921052Y-127487031D01*
X133521802Y-127753802D01*
X133255031Y-128153052D01*
X133161354Y-128624000D01*
X133255031Y-129094948D01*
X133521802Y-129494198D01*
X133921052Y-129760969D01*
X133943652Y-129765464D01*
X133510642Y-129968817D01*
X133120355Y-130397076D01*
X132950524Y-130807110D01*
X126584273Y-130807110D01*
X126519645Y-130651076D01*
X126129358Y-130222817D01*
X125696348Y-130019464D01*
X125718948Y-130014969D01*
X126118198Y-129748198D01*
X126384969Y-129348948D01*
X126478646Y-128878000D01*
X126420365Y-128585001D01*
X128964145Y-128585001D01*
X129018999Y-128595912D01*
X129073853Y-128585001D01*
X129073857Y-128585001D01*
X129236330Y-128552683D01*
X129420573Y-128429575D01*
X129451649Y-128383067D01*
X131750716Y-126084000D01*
X133161354Y-126084000D01*
X133255031Y-126554948D01*
X133521802Y-126954198D01*
X133921052Y-127220969D01*
X134273123Y-127291000D01*
X134510877Y-127291000D01*
X134862948Y-127220969D01*
X135262198Y-126954198D01*
X135528969Y-126554948D01*
X135572122Y-126338000D01*
X142305354Y-126338000D01*
X142399031Y-126808948D01*
X142665802Y-127208198D01*
X143065052Y-127474969D01*
X143417123Y-127545000D01*
X143654877Y-127545000D01*
X144006948Y-127474969D01*
X144406198Y-127208198D01*
X144672969Y-126808948D01*
X144766646Y-126338000D01*
X144672969Y-125867052D01*
X144406198Y-125467802D01*
X144006948Y-125201031D01*
X143654877Y-125131000D01*
X143417123Y-125131000D01*
X143065052Y-125201031D01*
X142665802Y-125467802D01*
X142399031Y-125867052D01*
X142305354Y-126338000D01*
X135572122Y-126338000D01*
X135622646Y-126084000D01*
X135528969Y-125613052D01*
X135262198Y-125213802D01*
X134862948Y-124947031D01*
X134510877Y-124877000D01*
X134273123Y-124877000D01*
X133921052Y-124947031D01*
X133521802Y-125213802D01*
X133255031Y-125613052D01*
X133161354Y-126084000D01*
X131750716Y-126084000D01*
X132006068Y-125828648D01*
X132052575Y-125797573D01*
X132175683Y-125613330D01*
X132208001Y-125450857D01*
X132208001Y-125450853D01*
X132218912Y-125395999D01*
X132208001Y-125341145D01*
X132208001Y-123544000D01*
X133161354Y-123544000D01*
X133255031Y-124014948D01*
X133521802Y-124414198D01*
X133921052Y-124680969D01*
X134273123Y-124751000D01*
X134510877Y-124751000D01*
X134862948Y-124680969D01*
X135262198Y-124414198D01*
X135528969Y-124014948D01*
X135622646Y-123544000D01*
X135549159Y-123174557D01*
X137033069Y-121690648D01*
X137079574Y-121659574D01*
X137202682Y-121475331D01*
X137235000Y-121312858D01*
X137235000Y-121312855D01*
X137245911Y-121258001D01*
X137235000Y-121203147D01*
X137235000Y-119040492D01*
X137357479Y-118918013D01*
X137479500Y-118623428D01*
X137479500Y-118304572D01*
X137357479Y-118009987D01*
X137132013Y-117784521D01*
X136837428Y-117662500D01*
X136518572Y-117662500D01*
X136223987Y-117784521D01*
X135998521Y-118009987D01*
X135876500Y-118304572D01*
X135876500Y-118623428D01*
X135998521Y-118918013D01*
X136121000Y-119040492D01*
X136121001Y-121027282D01*
X135605994Y-121542289D01*
X135605994Y-120154000D01*
X135578287Y-120014706D01*
X135499383Y-119896617D01*
X135381294Y-119817713D01*
X135242000Y-119790006D01*
X134949000Y-119790006D01*
X134949000Y-116754492D01*
X135071479Y-116632013D01*
X135167616Y-116399918D01*
X135170682Y-116395329D01*
X135171759Y-116389916D01*
X135193500Y-116337428D01*
X135193500Y-116280614D01*
X135213911Y-116177999D01*
X135193500Y-116075384D01*
X135193500Y-116018572D01*
X135171759Y-115966085D01*
X135170682Y-115960669D01*
X135167614Y-115956077D01*
X135071479Y-115723987D01*
X134846013Y-115498521D01*
X134613923Y-115402386D01*
X134609331Y-115399318D01*
X134603914Y-115398241D01*
X134551428Y-115376500D01*
X134494618Y-115376500D01*
X134392000Y-115356088D01*
X134289383Y-115376500D01*
X134232572Y-115376500D01*
X134180085Y-115398241D01*
X134174670Y-115399318D01*
X134170080Y-115402385D01*
X133937987Y-115498521D01*
X133712521Y-115723987D01*
X133590500Y-116018572D01*
X133590500Y-116337428D01*
X133712521Y-116632013D01*
X133835001Y-116754493D01*
X133835000Y-119790006D01*
X133542000Y-119790006D01*
X133402706Y-119817713D01*
X133284617Y-119896617D01*
X133205713Y-120014706D01*
X133178006Y-120154000D01*
X133178006Y-121854000D01*
X133205713Y-121993294D01*
X133284617Y-122111383D01*
X133402706Y-122190287D01*
X133542000Y-122217994D01*
X134930290Y-122217994D01*
X134761443Y-122386841D01*
X134510877Y-122337000D01*
X134273123Y-122337000D01*
X133921052Y-122407031D01*
X133521802Y-122673802D01*
X133255031Y-123073052D01*
X133161354Y-123544000D01*
X132208001Y-123544000D01*
X132208001Y-108361001D01*
X141768088Y-108361001D01*
X141779000Y-108415860D01*
X141778999Y-122543145D01*
X141768088Y-122597999D01*
X141778999Y-122652853D01*
X141778999Y-122652856D01*
X141811317Y-122815329D01*
X141934425Y-122999573D01*
X141980932Y-123030648D01*
X142378841Y-123428557D01*
X142305354Y-123798000D01*
X142399031Y-124268948D01*
X142665802Y-124668198D01*
X143065052Y-124934969D01*
X143417123Y-125005000D01*
X143654877Y-125005000D01*
X144006948Y-124934969D01*
X144406198Y-124668198D01*
X144672969Y-124268948D01*
X144766646Y-123798000D01*
X144672969Y-123327052D01*
X144406198Y-122927802D01*
X144006948Y-122661031D01*
X143654877Y-122591000D01*
X143417123Y-122591000D01*
X143166557Y-122640841D01*
X142997710Y-122471994D01*
X144386000Y-122471994D01*
X144525294Y-122444287D01*
X144643383Y-122365383D01*
X144722287Y-122247294D01*
X144749994Y-122108000D01*
X144749994Y-122009710D01*
X147227002Y-124486719D01*
X147227001Y-126961509D01*
X147104522Y-127083988D01*
X146982501Y-127378573D01*
X146982501Y-127697429D01*
X147104522Y-127992014D01*
X147329988Y-128217480D01*
X147624573Y-128339501D01*
X147943429Y-128339501D01*
X148238014Y-128217480D01*
X148463480Y-127992014D01*
X148585501Y-127697429D01*
X148585501Y-127378573D01*
X148463480Y-127083988D01*
X148341001Y-126961509D01*
X148341001Y-126338000D01*
X151258854Y-126338000D01*
X151352531Y-126808948D01*
X151619302Y-127208198D01*
X152018552Y-127474969D01*
X152370623Y-127545000D01*
X152608377Y-127545000D01*
X152960448Y-127474969D01*
X153359698Y-127208198D01*
X153626469Y-126808948D01*
X153720146Y-126338000D01*
X153626469Y-125867052D01*
X153359698Y-125467802D01*
X152960448Y-125201031D01*
X152608377Y-125131000D01*
X152370623Y-125131000D01*
X152018552Y-125201031D01*
X151619302Y-125467802D01*
X151352531Y-125867052D01*
X151258854Y-126338000D01*
X148341001Y-126338000D01*
X148341001Y-124310855D01*
X148351912Y-124256001D01*
X148341001Y-124201147D01*
X148341001Y-124201143D01*
X148308683Y-124038670D01*
X148185575Y-123854427D01*
X148139070Y-123823353D01*
X145218649Y-120902933D01*
X145187574Y-120856426D01*
X145003331Y-120733318D01*
X144840858Y-120701000D01*
X144840854Y-120701000D01*
X144786000Y-120690089D01*
X144749994Y-120697251D01*
X144749994Y-120408000D01*
X144722287Y-120268706D01*
X144643383Y-120150617D01*
X144525294Y-120071713D01*
X144386000Y-120044006D01*
X142892999Y-120044006D01*
X142892999Y-109160572D01*
X145528500Y-109160572D01*
X145528500Y-109479428D01*
X145650521Y-109774013D01*
X145773001Y-109896493D01*
X145773000Y-118155142D01*
X145773000Y-119153857D01*
X145773001Y-119153860D01*
X145773000Y-119425140D01*
X145773000Y-120314142D01*
X145762088Y-120369000D01*
X145805318Y-120586331D01*
X145903532Y-120733318D01*
X145928426Y-120770574D01*
X146112669Y-120893682D01*
X146330000Y-120936912D01*
X146384858Y-120926000D01*
X148829784Y-120926000D01*
X151332340Y-123428557D01*
X151258854Y-123798000D01*
X151352531Y-124268948D01*
X151619302Y-124668198D01*
X152018552Y-124934969D01*
X152370623Y-125005000D01*
X152608377Y-125005000D01*
X152960448Y-124934969D01*
X153359698Y-124668198D01*
X153626469Y-124268948D01*
X153720146Y-123798000D01*
X153626469Y-123327052D01*
X153359698Y-122927802D01*
X152960448Y-122661031D01*
X152608377Y-122591000D01*
X152370623Y-122591000D01*
X152120057Y-122640840D01*
X151951211Y-122471994D01*
X153339500Y-122471994D01*
X153478794Y-122444287D01*
X153596883Y-122365383D01*
X153675787Y-122247294D01*
X153703494Y-122108000D01*
X153703494Y-122009710D01*
X156371002Y-124677219D01*
X156371001Y-132041509D01*
X156248522Y-132163988D01*
X156126501Y-132458573D01*
X156126501Y-132777429D01*
X156248522Y-133072014D01*
X156473988Y-133297480D01*
X156768573Y-133419501D01*
X157087429Y-133419501D01*
X157382014Y-133297480D01*
X157607480Y-133072014D01*
X157729501Y-132777429D01*
X157729501Y-132458573D01*
X157607480Y-132163988D01*
X157485001Y-132041509D01*
X157485001Y-131774890D01*
X159874524Y-131774890D01*
X160044355Y-132184924D01*
X160434642Y-132613183D01*
X160867652Y-132816536D01*
X160845052Y-132821031D01*
X160445802Y-133087802D01*
X160179031Y-133487052D01*
X160085354Y-133958000D01*
X160179031Y-134428948D01*
X160445802Y-134828198D01*
X160845052Y-135094969D01*
X161197123Y-135165000D01*
X161434877Y-135165000D01*
X161786948Y-135094969D01*
X162186198Y-134828198D01*
X162452969Y-134428948D01*
X162546646Y-133958000D01*
X162452969Y-133487052D01*
X162186198Y-133087802D01*
X161786948Y-132821031D01*
X161764348Y-132816536D01*
X162197358Y-132613183D01*
X162587645Y-132184924D01*
X162757476Y-131774890D01*
X162636155Y-131545000D01*
X161443000Y-131545000D01*
X161443000Y-131565000D01*
X161189000Y-131565000D01*
X161189000Y-131545000D01*
X159995845Y-131545000D01*
X159874524Y-131774890D01*
X157485001Y-131774890D01*
X157485001Y-124501354D01*
X157495912Y-124446500D01*
X157485001Y-124391646D01*
X157485001Y-124391643D01*
X157452683Y-124229170D01*
X157329575Y-124044927D01*
X157283070Y-124013853D01*
X154172149Y-120902933D01*
X154141074Y-120856426D01*
X153956831Y-120733318D01*
X153794358Y-120701000D01*
X153794354Y-120701000D01*
X153739500Y-120690089D01*
X153703494Y-120697251D01*
X153703494Y-120408000D01*
X153675787Y-120268706D01*
X153596883Y-120150617D01*
X153478794Y-120071713D01*
X153339500Y-120044006D01*
X151639500Y-120044006D01*
X151500206Y-120071713D01*
X151382117Y-120150617D01*
X151303213Y-120268706D01*
X151275506Y-120408000D01*
X151275506Y-121796289D01*
X149493149Y-120013933D01*
X149462074Y-119967426D01*
X149277831Y-119844318D01*
X149115358Y-119812000D01*
X149115354Y-119812000D01*
X149060500Y-119801089D01*
X149005646Y-119812000D01*
X146887000Y-119812000D01*
X146887000Y-109896492D01*
X147009479Y-109774013D01*
X147131500Y-109479428D01*
X147131500Y-109160572D01*
X147009479Y-108865987D01*
X146784013Y-108640521D01*
X146489428Y-108518500D01*
X146170572Y-108518500D01*
X145875987Y-108640521D01*
X145650521Y-108865987D01*
X145528500Y-109160572D01*
X142892999Y-109160572D01*
X142892999Y-108591717D01*
X143186149Y-108298568D01*
X143186151Y-108298565D01*
X143275263Y-108209453D01*
X143285007Y-108215964D01*
X143709999Y-108300500D01*
X143997001Y-108300500D01*
X144421993Y-108215964D01*
X144903938Y-107893938D01*
X145225964Y-107411993D01*
X145339044Y-106843500D01*
X145225964Y-106275007D01*
X144913252Y-105807000D01*
X148676006Y-105807000D01*
X148676006Y-108007000D01*
X148703713Y-108146294D01*
X148782617Y-108264383D01*
X148900706Y-108343287D01*
X149040000Y-108370994D01*
X151240000Y-108370994D01*
X151379294Y-108343287D01*
X151497383Y-108264383D01*
X151576287Y-108146294D01*
X151603994Y-108007000D01*
X151603994Y-106907000D01*
X152464456Y-106907000D01*
X152577536Y-107475493D01*
X152899562Y-107957438D01*
X153272500Y-108206628D01*
X153272499Y-112674009D01*
X153150020Y-112796488D01*
X153027999Y-113091073D01*
X153027999Y-113409929D01*
X153150020Y-113704514D01*
X153375486Y-113929980D01*
X153670071Y-114052001D01*
X153988927Y-114052001D01*
X154283512Y-113929980D01*
X154508978Y-113704514D01*
X154630999Y-113409929D01*
X154630999Y-113091073D01*
X154508978Y-112796488D01*
X154386499Y-112674009D01*
X154386499Y-110430572D01*
X158228500Y-110430572D01*
X158228500Y-110749428D01*
X158350521Y-111044013D01*
X158473000Y-111166492D01*
X158473000Y-111273474D01*
X158473001Y-111273479D01*
X158473000Y-122659227D01*
X158462089Y-122714081D01*
X158473000Y-122768935D01*
X158473000Y-122768938D01*
X158505318Y-122931411D01*
X158628426Y-123115655D01*
X158674934Y-123146731D01*
X159681269Y-124153066D01*
X159712345Y-124199574D01*
X159896588Y-124322682D01*
X160059061Y-124355000D01*
X160059065Y-124355000D01*
X160113919Y-124365911D01*
X160168773Y-124355000D01*
X160236529Y-124355000D01*
X160445802Y-124668198D01*
X160845052Y-124934969D01*
X161197123Y-125005000D01*
X161434877Y-125005000D01*
X161786948Y-124934969D01*
X161959002Y-124820006D01*
X161959002Y-125315994D01*
X161786948Y-125201031D01*
X161434877Y-125131000D01*
X161197123Y-125131000D01*
X160845052Y-125201031D01*
X160445802Y-125467802D01*
X160179031Y-125867052D01*
X160085354Y-126338000D01*
X160179031Y-126808948D01*
X160445802Y-127208198D01*
X160845052Y-127474969D01*
X161197123Y-127545000D01*
X161434877Y-127545000D01*
X161786948Y-127474969D01*
X161959001Y-127360006D01*
X161959001Y-127855994D01*
X161786948Y-127741031D01*
X161434877Y-127671000D01*
X161197123Y-127671000D01*
X160845052Y-127741031D01*
X160445802Y-128007802D01*
X160179031Y-128407052D01*
X160085354Y-128878000D01*
X160179031Y-129348948D01*
X160445802Y-129748198D01*
X160845052Y-130014969D01*
X160867652Y-130019464D01*
X160434642Y-130222817D01*
X160044355Y-130651076D01*
X159874524Y-131061110D01*
X159995845Y-131291000D01*
X161189000Y-131291000D01*
X161189000Y-131271000D01*
X161443000Y-131271000D01*
X161443000Y-131291000D01*
X162636155Y-131291000D01*
X162757476Y-131061110D01*
X162587645Y-130651076D01*
X162197358Y-130222817D01*
X161764348Y-130019464D01*
X161786948Y-130014969D01*
X162182772Y-129750488D01*
X171317352Y-138885069D01*
X171348426Y-138931574D01*
X171394931Y-138962648D01*
X171394932Y-138962649D01*
X171412932Y-138974676D01*
X171532669Y-139054682D01*
X171695142Y-139087000D01*
X171695146Y-139087000D01*
X171750000Y-139097911D01*
X171786006Y-139090749D01*
X171786006Y-139380000D01*
X171813713Y-139519294D01*
X171892617Y-139637383D01*
X172010706Y-139716287D01*
X172150000Y-139743994D01*
X173850000Y-139743994D01*
X173989294Y-139716287D01*
X174107383Y-139637383D01*
X174186287Y-139519294D01*
X174213994Y-139380000D01*
X174213994Y-137680000D01*
X174186287Y-137540706D01*
X174107383Y-137422617D01*
X173989294Y-137343713D01*
X173850000Y-137316006D01*
X173602790Y-137316006D01*
X173881358Y-137185183D01*
X174271645Y-136756924D01*
X174441476Y-136346890D01*
X174320155Y-136117000D01*
X173127000Y-136117000D01*
X173127000Y-136137000D01*
X172873000Y-136137000D01*
X172873000Y-136117000D01*
X171679845Y-136117000D01*
X171558524Y-136346890D01*
X171728355Y-136756924D01*
X172118642Y-137185183D01*
X172397210Y-137316006D01*
X172150000Y-137316006D01*
X172010706Y-137343713D01*
X171892617Y-137422617D01*
X171813713Y-137540706D01*
X171786006Y-137680000D01*
X171786006Y-137778289D01*
X165274607Y-131266890D01*
X171558524Y-131266890D01*
X171728355Y-131676924D01*
X172118642Y-132105183D01*
X172551652Y-132308536D01*
X172529052Y-132313031D01*
X172129802Y-132579802D01*
X171863031Y-132979052D01*
X171769354Y-133450000D01*
X171863031Y-133920948D01*
X172129802Y-134320198D01*
X172529052Y-134586969D01*
X172551652Y-134591464D01*
X172118642Y-134794817D01*
X171728355Y-135223076D01*
X171558524Y-135633110D01*
X171679845Y-135863000D01*
X172873000Y-135863000D01*
X172873000Y-135843000D01*
X173127000Y-135843000D01*
X173127000Y-135863000D01*
X174320155Y-135863000D01*
X174441476Y-135633110D01*
X174271645Y-135223076D01*
X173881358Y-134794817D01*
X173448348Y-134591464D01*
X173470948Y-134586969D01*
X173870198Y-134320198D01*
X174136969Y-133920948D01*
X174230646Y-133450000D01*
X174136969Y-132979052D01*
X173870198Y-132579802D01*
X173470948Y-132313031D01*
X173448348Y-132308536D01*
X173881358Y-132105183D01*
X174271645Y-131676924D01*
X174441476Y-131266890D01*
X174320155Y-131037000D01*
X173127000Y-131037000D01*
X173127000Y-131057000D01*
X172873000Y-131057000D01*
X172873000Y-131037000D01*
X171679845Y-131037000D01*
X171558524Y-131266890D01*
X165274607Y-131266890D01*
X163073001Y-129065285D01*
X163073001Y-126186890D01*
X171558524Y-126186890D01*
X171728355Y-126596924D01*
X172118642Y-127025183D01*
X172551652Y-127228536D01*
X172529052Y-127233031D01*
X172129802Y-127499802D01*
X171863031Y-127899052D01*
X171769354Y-128370000D01*
X171863031Y-128840948D01*
X172129802Y-129240198D01*
X172529052Y-129506969D01*
X172551652Y-129511464D01*
X172118642Y-129714817D01*
X171728355Y-130143076D01*
X171558524Y-130553110D01*
X171679845Y-130783000D01*
X172873000Y-130783000D01*
X172873000Y-130763000D01*
X173127000Y-130763000D01*
X173127000Y-130783000D01*
X174320155Y-130783000D01*
X174441476Y-130553110D01*
X174271645Y-130143076D01*
X173881358Y-129714817D01*
X173448348Y-129511464D01*
X173470948Y-129506969D01*
X173870198Y-129240198D01*
X174136969Y-128840948D01*
X174230646Y-128370000D01*
X174136969Y-127899052D01*
X173870198Y-127499802D01*
X173470948Y-127233031D01*
X173448348Y-127228536D01*
X173881358Y-127025183D01*
X174271645Y-126596924D01*
X174441476Y-126186890D01*
X174320155Y-125957000D01*
X173127000Y-125957000D01*
X173127000Y-125977000D01*
X172873000Y-125977000D01*
X172873000Y-125957000D01*
X171679845Y-125957000D01*
X171558524Y-126186890D01*
X163073001Y-126186890D01*
X163073001Y-123450646D01*
X164563130Y-123450646D01*
X164563130Y-124189354D01*
X164845822Y-124871832D01*
X165368168Y-125394178D01*
X166050646Y-125676870D01*
X166789354Y-125676870D01*
X167471832Y-125394178D01*
X167994178Y-124871832D01*
X168276870Y-124189354D01*
X168276870Y-123450646D01*
X167994178Y-122768168D01*
X167471832Y-122245822D01*
X166789354Y-121963130D01*
X166050646Y-121963130D01*
X165368168Y-122245822D01*
X164845822Y-122768168D01*
X164563130Y-123450646D01*
X163073001Y-123450646D01*
X163073001Y-122512855D01*
X163083912Y-122458001D01*
X163073001Y-122403147D01*
X163073001Y-122403143D01*
X163040683Y-122240670D01*
X162954296Y-122111383D01*
X162948650Y-122102933D01*
X162948649Y-122102932D01*
X162917575Y-122056427D01*
X162871070Y-122025353D01*
X162529994Y-121684277D01*
X162529994Y-121106890D01*
X171558524Y-121106890D01*
X171728355Y-121516924D01*
X172118642Y-121945183D01*
X172551652Y-122148536D01*
X172529052Y-122153031D01*
X172129802Y-122419802D01*
X171863031Y-122819052D01*
X171769354Y-123290000D01*
X171863031Y-123760948D01*
X172129802Y-124160198D01*
X172529052Y-124426969D01*
X172551652Y-124431464D01*
X172118642Y-124634817D01*
X171728355Y-125063076D01*
X171558524Y-125473110D01*
X171679845Y-125703000D01*
X172873000Y-125703000D01*
X172873000Y-125683000D01*
X173127000Y-125683000D01*
X173127000Y-125703000D01*
X174320155Y-125703000D01*
X174441476Y-125473110D01*
X174271645Y-125063076D01*
X173881358Y-124634817D01*
X173448348Y-124431464D01*
X173470948Y-124426969D01*
X173870198Y-124160198D01*
X174136969Y-123760948D01*
X174230646Y-123290000D01*
X174136969Y-122819052D01*
X173870198Y-122419802D01*
X173470948Y-122153031D01*
X173448348Y-122148536D01*
X173881358Y-121945183D01*
X174271645Y-121516924D01*
X174441476Y-121106890D01*
X174320155Y-120877000D01*
X173127000Y-120877000D01*
X173127000Y-120897000D01*
X172873000Y-120897000D01*
X172873000Y-120877000D01*
X171679845Y-120877000D01*
X171558524Y-121106890D01*
X162529994Y-121106890D01*
X162529994Y-120408000D01*
X162502287Y-120268706D01*
X162423383Y-120150617D01*
X162305294Y-120071713D01*
X162166000Y-120044006D01*
X160466000Y-120044006D01*
X160326706Y-120071713D01*
X160208617Y-120150617D01*
X160129713Y-120268706D01*
X160102006Y-120408000D01*
X160102006Y-122108000D01*
X160129713Y-122247294D01*
X160208617Y-122365383D01*
X160326706Y-122444287D01*
X160466000Y-122471994D01*
X161742277Y-122471994D01*
X161959002Y-122688719D01*
X161959002Y-122775994D01*
X161786948Y-122661031D01*
X161434877Y-122591000D01*
X161197123Y-122591000D01*
X160845052Y-122661031D01*
X160445802Y-122927802D01*
X160279830Y-123176195D01*
X159587000Y-122483365D01*
X159587000Y-118250644D01*
X168950428Y-118250644D01*
X168950428Y-118569500D01*
X169072449Y-118864085D01*
X169297915Y-119089551D01*
X169592500Y-119211572D01*
X169911356Y-119211572D01*
X170205941Y-119089551D01*
X170431407Y-118864085D01*
X170553428Y-118569500D01*
X170553428Y-118250644D01*
X170431407Y-117956059D01*
X170308928Y-117833580D01*
X170308928Y-116026890D01*
X171558524Y-116026890D01*
X171728355Y-116436924D01*
X172118642Y-116865183D01*
X172551652Y-117068536D01*
X172529052Y-117073031D01*
X172129802Y-117339802D01*
X171863031Y-117739052D01*
X171769354Y-118210000D01*
X171863031Y-118680948D01*
X172129802Y-119080198D01*
X172529052Y-119346969D01*
X172551652Y-119351464D01*
X172118642Y-119554817D01*
X171728355Y-119983076D01*
X171558524Y-120393110D01*
X171679845Y-120623000D01*
X172873000Y-120623000D01*
X172873000Y-120603000D01*
X173127000Y-120603000D01*
X173127000Y-120623000D01*
X174320155Y-120623000D01*
X174441476Y-120393110D01*
X174271645Y-119983076D01*
X173881358Y-119554817D01*
X173448348Y-119351464D01*
X173470948Y-119346969D01*
X173870198Y-119080198D01*
X174136969Y-118680948D01*
X174230646Y-118210000D01*
X174136969Y-117739052D01*
X173870198Y-117339802D01*
X173470948Y-117073031D01*
X173448348Y-117068536D01*
X173881358Y-116865183D01*
X174271645Y-116436924D01*
X174441476Y-116026890D01*
X174320155Y-115797000D01*
X173127000Y-115797000D01*
X173127000Y-115817000D01*
X172873000Y-115817000D01*
X172873000Y-115797000D01*
X171679845Y-115797000D01*
X171558524Y-116026890D01*
X170308928Y-116026890D01*
X170308928Y-115313110D01*
X171558524Y-115313110D01*
X171679845Y-115543000D01*
X172873000Y-115543000D01*
X172873000Y-115523000D01*
X173127000Y-115523000D01*
X173127000Y-115543000D01*
X174320155Y-115543000D01*
X174441476Y-115313110D01*
X174271645Y-114903076D01*
X173881358Y-114474817D01*
X173602790Y-114343994D01*
X173850000Y-114343994D01*
X173989294Y-114316287D01*
X174107383Y-114237383D01*
X174186287Y-114119294D01*
X174213994Y-113980000D01*
X174213994Y-112280000D01*
X174186287Y-112140706D01*
X174107383Y-112022617D01*
X173989294Y-111943713D01*
X173850000Y-111916006D01*
X172150000Y-111916006D01*
X172010706Y-111943713D01*
X171892617Y-112022617D01*
X171813713Y-112140706D01*
X171786006Y-112280000D01*
X171786006Y-113980000D01*
X171813713Y-114119294D01*
X171892617Y-114237383D01*
X172010706Y-114316287D01*
X172150000Y-114343994D01*
X172397210Y-114343994D01*
X172118642Y-114474817D01*
X171728355Y-114903076D01*
X171558524Y-115313110D01*
X170308928Y-115313110D01*
X170308928Y-111528788D01*
X170690717Y-111147000D01*
X171920529Y-111147000D01*
X172129802Y-111460198D01*
X172529052Y-111726969D01*
X172881123Y-111797000D01*
X173118877Y-111797000D01*
X173470948Y-111726969D01*
X173870198Y-111460198D01*
X174136969Y-111060948D01*
X174230646Y-110590000D01*
X174136969Y-110119052D01*
X173870198Y-109719802D01*
X173470948Y-109453031D01*
X173293119Y-109417659D01*
X173465366Y-109414367D01*
X174174505Y-109120632D01*
X174334272Y-108801877D01*
X173000000Y-107467605D01*
X171665728Y-108801877D01*
X171825495Y-109120632D01*
X172616217Y-109430595D01*
X172644570Y-109430053D01*
X172529052Y-109453031D01*
X172129802Y-109719802D01*
X171920529Y-110033000D01*
X170514853Y-110033000D01*
X170459999Y-110022089D01*
X170405145Y-110033000D01*
X170405142Y-110033000D01*
X170242669Y-110065318D01*
X170058426Y-110188426D01*
X170027352Y-110234931D01*
X169396861Y-110865423D01*
X169350354Y-110896498D01*
X169227246Y-111080742D01*
X169194928Y-111243215D01*
X169194928Y-111243218D01*
X169184017Y-111298072D01*
X169194928Y-111352926D01*
X169194929Y-117833579D01*
X169072449Y-117956059D01*
X168950428Y-118250644D01*
X159587000Y-118250644D01*
X159587000Y-111166492D01*
X159709479Y-111044013D01*
X159831500Y-110749428D01*
X159831500Y-110430572D01*
X159709479Y-110135987D01*
X159484013Y-109910521D01*
X159189428Y-109788500D01*
X158870572Y-109788500D01*
X158575987Y-109910521D01*
X158350521Y-110135987D01*
X158228500Y-110430572D01*
X154386499Y-110430572D01*
X154386499Y-108305719D01*
X154518493Y-108279464D01*
X155000438Y-107957438D01*
X155322464Y-107475493D01*
X155435544Y-106907000D01*
X155322464Y-106338507D01*
X155000438Y-105856562D01*
X154518493Y-105534536D01*
X154292082Y-105489500D01*
X158137506Y-105489500D01*
X158137506Y-107689500D01*
X158165213Y-107828794D01*
X158244117Y-107946883D01*
X158362206Y-108025787D01*
X158501500Y-108053494D01*
X160701500Y-108053494D01*
X160840794Y-108025787D01*
X160958883Y-107946883D01*
X161037787Y-107828794D01*
X161065494Y-107689500D01*
X161065494Y-106589500D01*
X161925956Y-106589500D01*
X162039036Y-107157993D01*
X162283001Y-107523112D01*
X162283000Y-112553508D01*
X162160521Y-112675987D01*
X162038500Y-112970572D01*
X162038500Y-113289428D01*
X162160521Y-113584013D01*
X162385987Y-113809479D01*
X162680572Y-113931500D01*
X162999428Y-113931500D01*
X163294013Y-113809479D01*
X163519479Y-113584013D01*
X163641500Y-113289428D01*
X163641500Y-112970572D01*
X163519479Y-112675987D01*
X163397000Y-112553508D01*
X163397000Y-108046500D01*
X163555001Y-108046500D01*
X163979993Y-107961964D01*
X164461938Y-107639938D01*
X164783964Y-107157993D01*
X164834443Y-106904217D01*
X170857405Y-106904217D01*
X170873633Y-107753366D01*
X171167368Y-108462505D01*
X171486123Y-108622272D01*
X172820395Y-107288000D01*
X173179605Y-107288000D01*
X174513877Y-108622272D01*
X174832632Y-108462505D01*
X175142595Y-107671783D01*
X175126367Y-106822634D01*
X174832632Y-106113495D01*
X174513877Y-105953728D01*
X173179605Y-107288000D01*
X172820395Y-107288000D01*
X171486123Y-105953728D01*
X171167368Y-106113495D01*
X170857405Y-106904217D01*
X164834443Y-106904217D01*
X164897044Y-106589500D01*
X164783964Y-106021007D01*
X164461938Y-105539062D01*
X163979993Y-105217036D01*
X163555001Y-105132500D01*
X163267999Y-105132500D01*
X162843007Y-105217036D01*
X162361062Y-105539062D01*
X162039036Y-106021007D01*
X161925956Y-106589500D01*
X161065494Y-106589500D01*
X161065494Y-105489500D01*
X161037787Y-105350206D01*
X160958883Y-105232117D01*
X160840794Y-105153213D01*
X160701500Y-105125506D01*
X158501500Y-105125506D01*
X158362206Y-105153213D01*
X158244117Y-105232117D01*
X158165213Y-105350206D01*
X158137506Y-105489500D01*
X154292082Y-105489500D01*
X154093501Y-105450000D01*
X153806499Y-105450000D01*
X153381507Y-105534536D01*
X152899562Y-105856562D01*
X152577536Y-106338507D01*
X152464456Y-106907000D01*
X151603994Y-106907000D01*
X151603994Y-105807000D01*
X151576287Y-105667706D01*
X151497383Y-105549617D01*
X151379294Y-105470713D01*
X151240000Y-105443006D01*
X149040000Y-105443006D01*
X148900706Y-105470713D01*
X148782617Y-105549617D01*
X148703713Y-105667706D01*
X148676006Y-105807000D01*
X144913252Y-105807000D01*
X144903938Y-105793062D01*
X144421993Y-105471036D01*
X143997001Y-105386500D01*
X143709999Y-105386500D01*
X143285007Y-105471036D01*
X142803062Y-105793062D01*
X142481036Y-106275007D01*
X142367956Y-106843500D01*
X142481036Y-107411993D01*
X142487547Y-107421737D01*
X142398435Y-107510849D01*
X142398432Y-107510851D01*
X141980930Y-107928354D01*
X141934426Y-107959427D01*
X141903352Y-108005932D01*
X141903351Y-108005933D01*
X141890955Y-108024485D01*
X141815925Y-108136776D01*
X141811317Y-108143672D01*
X141768088Y-108361001D01*
X132208001Y-108361001D01*
X132208001Y-106843500D01*
X132525456Y-106843500D01*
X132638536Y-107411993D01*
X132960562Y-107893938D01*
X133442507Y-108215964D01*
X133867499Y-108300500D01*
X134154501Y-108300500D01*
X134579493Y-108215964D01*
X135061438Y-107893938D01*
X135383464Y-107411993D01*
X135496544Y-106843500D01*
X135383464Y-106275007D01*
X135061438Y-105793062D01*
X134987264Y-105743500D01*
X138579506Y-105743500D01*
X138579506Y-107943500D01*
X138607213Y-108082794D01*
X138686117Y-108200883D01*
X138804206Y-108279787D01*
X138943500Y-108307494D01*
X141143500Y-108307494D01*
X141282794Y-108279787D01*
X141400883Y-108200883D01*
X141479787Y-108082794D01*
X141507494Y-107943500D01*
X141507494Y-105743500D01*
X141479787Y-105604206D01*
X141400883Y-105486117D01*
X141282794Y-105407213D01*
X141143500Y-105379506D01*
X138943500Y-105379506D01*
X138804206Y-105407213D01*
X138686117Y-105486117D01*
X138607213Y-105604206D01*
X138579506Y-105743500D01*
X134987264Y-105743500D01*
X134579493Y-105471036D01*
X134154501Y-105386500D01*
X133867499Y-105386500D01*
X133442507Y-105471036D01*
X132960562Y-105793062D01*
X132638536Y-106275007D01*
X132525456Y-106843500D01*
X132208001Y-106843500D01*
X132208001Y-104080572D01*
X165848500Y-104080572D01*
X165848500Y-104399428D01*
X165970521Y-104694013D01*
X166195987Y-104919479D01*
X166490572Y-105041500D01*
X166809428Y-105041500D01*
X167104013Y-104919479D01*
X167329479Y-104694013D01*
X167451500Y-104399428D01*
X167451500Y-104080572D01*
X167329479Y-103785987D01*
X167207000Y-103663508D01*
X167207000Y-99284217D01*
X170857405Y-99284217D01*
X170873633Y-100133366D01*
X171167368Y-100842505D01*
X171486123Y-101002272D01*
X172820395Y-99668000D01*
X173179605Y-99668000D01*
X174513877Y-101002272D01*
X174832632Y-100842505D01*
X175142595Y-100051783D01*
X175126367Y-99202634D01*
X174832632Y-98493495D01*
X174513877Y-98333728D01*
X173179605Y-99668000D01*
X172820395Y-99668000D01*
X171486123Y-98333728D01*
X171167368Y-98493495D01*
X170857405Y-99284217D01*
X167207000Y-99284217D01*
X167207000Y-94358130D01*
X171136136Y-94358130D01*
X171136136Y-97357870D01*
X171163843Y-97497164D01*
X171242747Y-97615253D01*
X171360836Y-97694157D01*
X171500130Y-97721864D01*
X172099518Y-97721864D01*
X171825495Y-97835368D01*
X171665728Y-98154123D01*
X173000000Y-99488395D01*
X174334272Y-98154123D01*
X174174505Y-97835368D01*
X173884954Y-97721864D01*
X174499870Y-97721864D01*
X174639164Y-97694157D01*
X174757253Y-97615253D01*
X174836157Y-97497164D01*
X174863864Y-97357870D01*
X174863864Y-96418749D01*
X174899870Y-96425911D01*
X174954724Y-96415000D01*
X174954728Y-96415000D01*
X175117201Y-96382682D01*
X175301444Y-96259574D01*
X175332519Y-96213067D01*
X177673070Y-93872517D01*
X177719574Y-93841444D01*
X177842682Y-93657201D01*
X177875000Y-93494728D01*
X177875000Y-93494725D01*
X177885911Y-93439871D01*
X177875000Y-93385017D01*
X177875000Y-93381471D01*
X178188198Y-93172198D01*
X178454969Y-92772948D01*
X178548646Y-92302000D01*
X178454969Y-91831052D01*
X178188198Y-91431802D01*
X177951000Y-91273311D01*
X177951000Y-79902000D01*
X178120108Y-79902000D01*
X178407718Y-79844791D01*
X178733866Y-79626866D01*
X178951791Y-79300718D01*
X179028316Y-78916000D01*
X178951791Y-78531282D01*
X178733866Y-78205134D01*
X178407718Y-77987209D01*
X178120108Y-77930000D01*
X176667892Y-77930000D01*
X176380282Y-77987209D01*
X176054134Y-78205134D01*
X175836209Y-78531282D01*
X175759684Y-78916000D01*
X175836209Y-79300718D01*
X176054134Y-79626866D01*
X176380282Y-79844791D01*
X176667892Y-79902000D01*
X176837000Y-79902000D01*
X176837001Y-91171747D01*
X176447802Y-91431802D01*
X176181031Y-91831052D01*
X176087354Y-92302000D01*
X176181031Y-92772948D01*
X176447802Y-93172198D01*
X176657703Y-93312450D01*
X174863864Y-95106290D01*
X174863864Y-94358130D01*
X174836157Y-94218836D01*
X174757253Y-94100747D01*
X174639164Y-94021843D01*
X174499870Y-93994136D01*
X171500130Y-93994136D01*
X171360836Y-94021843D01*
X171242747Y-94100747D01*
X171163843Y-94218836D01*
X171136136Y-94358130D01*
X167207000Y-94358130D01*
X167207000Y-94330716D01*
X168484006Y-93053711D01*
X168484006Y-93152000D01*
X168511713Y-93291294D01*
X168590617Y-93409383D01*
X168708706Y-93488287D01*
X168848000Y-93515994D01*
X170548000Y-93515994D01*
X170687294Y-93488287D01*
X170805383Y-93409383D01*
X170884287Y-93291294D01*
X170911994Y-93152000D01*
X170911994Y-92302000D01*
X171007354Y-92302000D01*
X171101031Y-92772948D01*
X171367802Y-93172198D01*
X171767052Y-93438969D01*
X172119123Y-93509000D01*
X172356877Y-93509000D01*
X172708948Y-93438969D01*
X173108198Y-93172198D01*
X173374969Y-92772948D01*
X173468646Y-92302000D01*
X173397556Y-91944607D01*
X173427078Y-91900426D01*
X173518682Y-91763331D01*
X173531017Y-91701318D01*
X173551000Y-91600858D01*
X173551000Y-91600855D01*
X173561911Y-91546001D01*
X173551000Y-91491147D01*
X173551000Y-89602000D01*
X173720108Y-89602000D01*
X174007718Y-89544791D01*
X174333866Y-89326866D01*
X174551791Y-89000718D01*
X174628316Y-88616000D01*
X174551791Y-88231282D01*
X174333866Y-87905134D01*
X174007718Y-87687209D01*
X173720108Y-87630000D01*
X172267892Y-87630000D01*
X171980282Y-87687209D01*
X171654134Y-87905134D01*
X171436209Y-88231282D01*
X171359684Y-88616000D01*
X171436209Y-89000718D01*
X171654134Y-89326866D01*
X171980282Y-89544791D01*
X172267892Y-89602000D01*
X172437000Y-89602000D01*
X172437001Y-91110938D01*
X172356877Y-91095000D01*
X172119123Y-91095000D01*
X171767052Y-91165031D01*
X171367802Y-91431802D01*
X171101031Y-91831052D01*
X171007354Y-92302000D01*
X170911994Y-92302000D01*
X170911994Y-91452000D01*
X170884287Y-91312706D01*
X170805383Y-91194617D01*
X170687294Y-91115713D01*
X170548000Y-91088006D01*
X170255000Y-91088006D01*
X170255000Y-89184716D01*
X172957490Y-86482227D01*
X173054134Y-86626866D01*
X173380282Y-86844791D01*
X173667892Y-86902000D01*
X175120108Y-86902000D01*
X175407718Y-86844791D01*
X175445010Y-86819873D01*
X175445011Y-90847272D01*
X175147443Y-91144840D01*
X174896877Y-91095000D01*
X174659123Y-91095000D01*
X174307052Y-91165031D01*
X173907802Y-91431802D01*
X173641031Y-91831052D01*
X173547354Y-92302000D01*
X173641031Y-92772948D01*
X173907802Y-93172198D01*
X174307052Y-93438969D01*
X174659123Y-93509000D01*
X174896877Y-93509000D01*
X175248948Y-93438969D01*
X175648198Y-93172198D01*
X175914969Y-92772948D01*
X176008646Y-92302000D01*
X175935160Y-91932557D01*
X176357079Y-91510638D01*
X176403584Y-91479564D01*
X176461385Y-91393060D01*
X176526692Y-91295321D01*
X176546723Y-91194617D01*
X176559010Y-91132848D01*
X176559010Y-91132845D01*
X176569921Y-91077991D01*
X176559010Y-91023137D01*
X176559010Y-84649863D01*
X176569921Y-84595009D01*
X176559010Y-84540153D01*
X176559010Y-84540152D01*
X176526692Y-84377679D01*
X176403584Y-84193436D01*
X176357080Y-84162363D01*
X171255650Y-79060933D01*
X171224574Y-79014426D01*
X171040331Y-78891318D01*
X170877858Y-78859000D01*
X170877854Y-78859000D01*
X170823000Y-78848089D01*
X170780000Y-78856642D01*
X170780000Y-78689892D01*
X170722791Y-78402282D01*
X170504866Y-78076134D01*
X170178717Y-77858209D01*
X169794000Y-77781684D01*
X169409282Y-77858209D01*
X169083134Y-78076134D01*
X168865209Y-78402283D01*
X168808000Y-78689893D01*
X168808001Y-80142108D01*
X168865210Y-80429718D01*
X169083135Y-80755866D01*
X169409283Y-80973791D01*
X169794000Y-81050316D01*
X170178718Y-80973791D01*
X170504866Y-80755866D01*
X170722791Y-80429718D01*
X170776913Y-80157629D01*
X175445010Y-84825727D01*
X175445010Y-85012127D01*
X175407718Y-84987209D01*
X175120108Y-84930000D01*
X173667892Y-84930000D01*
X173380282Y-84987209D01*
X173054134Y-85205134D01*
X172951324Y-85359000D01*
X172790854Y-85359000D01*
X172736000Y-85348089D01*
X172681146Y-85359000D01*
X172681142Y-85359000D01*
X172518669Y-85391318D01*
X172439317Y-85444340D01*
X172380932Y-85483351D01*
X172380931Y-85483352D01*
X172334426Y-85514426D01*
X172303352Y-85560931D01*
X169342933Y-88521351D01*
X169296426Y-88552426D01*
X169173318Y-88736670D01*
X169141000Y-88899143D01*
X169141000Y-88899146D01*
X169130089Y-88954000D01*
X169141000Y-89008854D01*
X169141001Y-90997138D01*
X169141000Y-90997143D01*
X169141000Y-91088006D01*
X168848000Y-91088006D01*
X168708706Y-91115713D01*
X168590617Y-91194617D01*
X168511713Y-91312706D01*
X168484006Y-91452000D01*
X168484006Y-91741251D01*
X168448000Y-91734089D01*
X168393146Y-91745000D01*
X168393142Y-91745000D01*
X168230669Y-91777318D01*
X168046426Y-91900426D01*
X168015352Y-91946931D01*
X166294931Y-93667353D01*
X166248427Y-93698426D01*
X166217353Y-93744931D01*
X166217352Y-93744932D01*
X166125318Y-93882671D01*
X166082089Y-94100000D01*
X166093001Y-94154859D01*
X166093000Y-103663508D01*
X165970521Y-103785987D01*
X165848500Y-104080572D01*
X132208001Y-104080572D01*
X132208001Y-103909715D01*
X134131966Y-101985750D01*
X160085000Y-101985750D01*
X160085000Y-102676310D01*
X160181673Y-102909699D01*
X160360302Y-103088327D01*
X160593691Y-103185000D01*
X161284250Y-103185000D01*
X161443000Y-103026250D01*
X161443000Y-101827000D01*
X161697000Y-101827000D01*
X161697000Y-103026250D01*
X161855750Y-103185000D01*
X162546309Y-103185000D01*
X162779698Y-103088327D01*
X162958327Y-102909699D01*
X163055000Y-102676310D01*
X163055000Y-101985750D01*
X162896250Y-101827000D01*
X161697000Y-101827000D01*
X161443000Y-101827000D01*
X160243750Y-101827000D01*
X160085000Y-101985750D01*
X134131966Y-101985750D01*
X135394026Y-100723690D01*
X160085000Y-100723690D01*
X160085000Y-101414250D01*
X160243750Y-101573000D01*
X161443000Y-101573000D01*
X161443000Y-100373750D01*
X161697000Y-100373750D01*
X161697000Y-101573000D01*
X162896250Y-101573000D01*
X163055000Y-101414250D01*
X163055000Y-100723690D01*
X162958327Y-100490301D01*
X162779698Y-100311673D01*
X162546309Y-100215000D01*
X161855750Y-100215000D01*
X161697000Y-100373750D01*
X161443000Y-100373750D01*
X161284250Y-100215000D01*
X160593691Y-100215000D01*
X160360302Y-100311673D01*
X160181673Y-100490301D01*
X160085000Y-100723690D01*
X135394026Y-100723690D01*
X153047716Y-83070000D01*
X160356006Y-83070000D01*
X160356006Y-84770000D01*
X160383713Y-84909294D01*
X160462617Y-85027383D01*
X160580706Y-85106287D01*
X160720000Y-85133994D01*
X162420000Y-85133994D01*
X162559294Y-85106287D01*
X162677383Y-85027383D01*
X162756287Y-84909294D01*
X162783994Y-84770000D01*
X162783994Y-83070000D01*
X162756287Y-82930706D01*
X162677383Y-82812617D01*
X162559294Y-82733713D01*
X162420000Y-82706006D01*
X160720000Y-82706006D01*
X160580706Y-82733713D01*
X160462617Y-82812617D01*
X160383713Y-82930706D01*
X160356006Y-83070000D01*
X153047716Y-83070000D01*
X154852650Y-81265067D01*
X154852652Y-81265064D01*
X154893079Y-81224637D01*
X155106051Y-81267000D01*
X155333949Y-81267000D01*
X155671439Y-81199869D01*
X156054150Y-80944150D01*
X156309869Y-80561439D01*
X156399666Y-80110000D01*
X156309869Y-79658561D01*
X156054150Y-79275850D01*
X155671439Y-79020131D01*
X155333949Y-78953000D01*
X155106051Y-78953000D01*
X154893079Y-78995363D01*
X153231069Y-77333353D01*
X153199994Y-77286846D01*
X153015751Y-77163738D01*
X152853278Y-77131420D01*
X152853274Y-77131420D01*
X152798420Y-77120509D01*
X152743566Y-77131420D01*
X152003947Y-77131420D01*
X152260198Y-76960198D01*
X152526969Y-76560948D01*
X152620646Y-76090000D01*
X152526969Y-75619052D01*
X152260198Y-75219802D01*
X151860948Y-74953031D01*
X151508877Y-74883000D01*
X151271123Y-74883000D01*
X150919052Y-74953031D01*
X150519802Y-75219802D01*
X150253031Y-75619052D01*
X150159354Y-76090000D01*
X150253031Y-76560948D01*
X150519802Y-76960198D01*
X150776053Y-77131420D01*
X149463947Y-77131420D01*
X149720198Y-76960198D01*
X149986969Y-76560948D01*
X150080646Y-76090000D01*
X149986969Y-75619052D01*
X149720198Y-75219802D01*
X149320948Y-74953031D01*
X149306601Y-74950177D01*
X149616924Y-74821645D01*
X150045183Y-74431358D01*
X150248536Y-73998348D01*
X150253031Y-74020948D01*
X150519802Y-74420198D01*
X150919052Y-74686969D01*
X151271123Y-74757000D01*
X151508877Y-74757000D01*
X151860948Y-74686969D01*
X152260198Y-74420198D01*
X152526969Y-74020948D01*
X152531464Y-73998348D01*
X152734817Y-74431358D01*
X153163076Y-74821645D01*
X153473399Y-74950177D01*
X153459052Y-74953031D01*
X153059802Y-75219802D01*
X152793031Y-75619052D01*
X152699354Y-76090000D01*
X152793031Y-76560948D01*
X153059802Y-76960198D01*
X153459052Y-77226969D01*
X153811123Y-77297000D01*
X154048877Y-77297000D01*
X154400948Y-77226969D01*
X154800198Y-76960198D01*
X155066969Y-76560948D01*
X155160646Y-76090000D01*
X155239354Y-76090000D01*
X155333031Y-76560948D01*
X155599802Y-76960198D01*
X155999052Y-77226969D01*
X156351123Y-77297000D01*
X156588877Y-77297000D01*
X156940948Y-77226969D01*
X157340198Y-76960198D01*
X157606969Y-76560948D01*
X157700646Y-76090000D01*
X157779354Y-76090000D01*
X157873031Y-76560948D01*
X158139802Y-76960198D01*
X158539052Y-77226969D01*
X158891123Y-77297000D01*
X159128877Y-77297000D01*
X159480948Y-77226969D01*
X159880198Y-76960198D01*
X160146969Y-76560948D01*
X160151464Y-76538348D01*
X160354817Y-76971358D01*
X160783076Y-77361645D01*
X161193110Y-77531476D01*
X161423000Y-77410155D01*
X161423000Y-76217000D01*
X161677000Y-76217000D01*
X161677000Y-77410155D01*
X161906890Y-77531476D01*
X162316924Y-77361645D01*
X162745183Y-76971358D01*
X162991486Y-76446892D01*
X162870819Y-76217000D01*
X161677000Y-76217000D01*
X161423000Y-76217000D01*
X161403000Y-76217000D01*
X161403000Y-75963000D01*
X161423000Y-75963000D01*
X161423000Y-75943000D01*
X161677000Y-75943000D01*
X161677000Y-75963000D01*
X162870819Y-75963000D01*
X162991486Y-75733108D01*
X162745183Y-75208642D01*
X162316924Y-74818355D01*
X162006601Y-74689823D01*
X162020948Y-74686969D01*
X162374629Y-74450646D01*
X164563130Y-74450646D01*
X164563130Y-75189354D01*
X164845822Y-75871832D01*
X165368168Y-76394178D01*
X166050646Y-76676870D01*
X166789354Y-76676870D01*
X167471832Y-76394178D01*
X167994178Y-75871832D01*
X168276870Y-75189354D01*
X168276870Y-74450646D01*
X167994178Y-73768168D01*
X167471832Y-73245822D01*
X166789354Y-72963130D01*
X166050646Y-72963130D01*
X165368168Y-73245822D01*
X164845822Y-73768168D01*
X164563130Y-74450646D01*
X162374629Y-74450646D01*
X162420198Y-74420198D01*
X162686969Y-74020948D01*
X162780646Y-73550000D01*
X162686969Y-73079052D01*
X162420198Y-72679802D01*
X162020948Y-72413031D01*
X161668877Y-72343000D01*
X161431123Y-72343000D01*
X161079052Y-72413031D01*
X160679802Y-72679802D01*
X160413031Y-73079052D01*
X160319354Y-73550000D01*
X160413031Y-74020948D01*
X160679802Y-74420198D01*
X161079052Y-74686969D01*
X161093399Y-74689823D01*
X160783076Y-74818355D01*
X160354817Y-75208642D01*
X160151464Y-75641652D01*
X160146969Y-75619052D01*
X159880198Y-75219802D01*
X159480948Y-74953031D01*
X159128877Y-74883000D01*
X158891123Y-74883000D01*
X158539052Y-74953031D01*
X158139802Y-75219802D01*
X157873031Y-75619052D01*
X157779354Y-76090000D01*
X157700646Y-76090000D01*
X157606969Y-75619052D01*
X157340198Y-75219802D01*
X156940948Y-74953031D01*
X156588877Y-74883000D01*
X156351123Y-74883000D01*
X155999052Y-74953031D01*
X155599802Y-75219802D01*
X155333031Y-75619052D01*
X155239354Y-76090000D01*
X155160646Y-76090000D01*
X155066969Y-75619052D01*
X154800198Y-75219802D01*
X154400948Y-74953031D01*
X154386601Y-74950177D01*
X154696924Y-74821645D01*
X155125183Y-74431358D01*
X155328536Y-73998348D01*
X155333031Y-74020948D01*
X155599802Y-74420198D01*
X155999052Y-74686969D01*
X156351123Y-74757000D01*
X156588877Y-74757000D01*
X156940948Y-74686969D01*
X157340198Y-74420198D01*
X157606969Y-74020948D01*
X157700646Y-73550000D01*
X157779354Y-73550000D01*
X157873031Y-74020948D01*
X158139802Y-74420198D01*
X158539052Y-74686969D01*
X158891123Y-74757000D01*
X159128877Y-74757000D01*
X159480948Y-74686969D01*
X159880198Y-74420198D01*
X160146969Y-74020948D01*
X160240646Y-73550000D01*
X160146969Y-73079052D01*
X159880198Y-72679802D01*
X159480948Y-72413031D01*
X159128877Y-72343000D01*
X158891123Y-72343000D01*
X158539052Y-72413031D01*
X158139802Y-72679802D01*
X157873031Y-73079052D01*
X157779354Y-73550000D01*
X157700646Y-73550000D01*
X157606969Y-73079052D01*
X157340198Y-72679802D01*
X156940948Y-72413031D01*
X156588877Y-72343000D01*
X156351123Y-72343000D01*
X155999052Y-72413031D01*
X155599802Y-72679802D01*
X155333031Y-73079052D01*
X155328536Y-73101652D01*
X155125183Y-72668642D01*
X154696924Y-72278355D01*
X154286890Y-72108524D01*
X154057000Y-72229845D01*
X154057000Y-73423000D01*
X154077000Y-73423000D01*
X154077000Y-73677000D01*
X154057000Y-73677000D01*
X154057000Y-73697000D01*
X153803000Y-73697000D01*
X153803000Y-73677000D01*
X153783000Y-73677000D01*
X153783000Y-73423000D01*
X153803000Y-73423000D01*
X153803000Y-72229845D01*
X153573110Y-72108524D01*
X153163076Y-72278355D01*
X152734817Y-72668642D01*
X152531464Y-73101652D01*
X152526969Y-73079052D01*
X152260198Y-72679802D01*
X151860948Y-72413031D01*
X151508877Y-72343000D01*
X151271123Y-72343000D01*
X150919052Y-72413031D01*
X150519802Y-72679802D01*
X150253031Y-73079052D01*
X150248536Y-73101652D01*
X150045183Y-72668642D01*
X149616924Y-72278355D01*
X149206890Y-72108524D01*
X148977000Y-72229845D01*
X148977000Y-73423000D01*
X148997000Y-73423000D01*
X148997000Y-73677000D01*
X148977000Y-73677000D01*
X148977000Y-73697000D01*
X148723000Y-73697000D01*
X148723000Y-73677000D01*
X148703000Y-73677000D01*
X148703000Y-73423000D01*
X148723000Y-73423000D01*
X148723000Y-72229845D01*
X148493110Y-72108524D01*
X148083076Y-72278355D01*
X147654817Y-72668642D01*
X147451464Y-73101652D01*
X147446969Y-73079052D01*
X147180198Y-72679802D01*
X146780948Y-72413031D01*
X146428877Y-72343000D01*
X146191123Y-72343000D01*
X145839052Y-72413031D01*
X145439802Y-72679802D01*
X145173031Y-73079052D01*
X145079354Y-73550000D01*
X145173031Y-74020948D01*
X145439802Y-74420198D01*
X145839052Y-74686969D01*
X146191123Y-74757000D01*
X146428877Y-74757000D01*
X146679443Y-74707160D01*
X146804930Y-74832647D01*
X146804933Y-74832649D01*
X146953002Y-74980718D01*
X146953002Y-75067994D01*
X146780948Y-74953031D01*
X146428877Y-74883000D01*
X146191123Y-74883000D01*
X145839052Y-74953031D01*
X145439802Y-75219802D01*
X145173031Y-75619052D01*
X145168536Y-75641652D01*
X144965183Y-75208642D01*
X144536924Y-74818355D01*
X144226601Y-74689823D01*
X144240948Y-74686969D01*
X144640198Y-74420198D01*
X144906969Y-74020948D01*
X145000646Y-73550000D01*
X144906969Y-73079052D01*
X144640198Y-72679802D01*
X144240948Y-72413031D01*
X143888877Y-72343000D01*
X143651123Y-72343000D01*
X143299052Y-72413031D01*
X142899802Y-72679802D01*
X142633031Y-73079052D01*
X142539354Y-73550000D01*
X142633031Y-74020948D01*
X142899802Y-74420198D01*
X143299052Y-74686969D01*
X143313399Y-74689823D01*
X143003076Y-74818355D01*
X142574817Y-75208642D01*
X142371464Y-75641652D01*
X142366969Y-75619052D01*
X142100198Y-75219802D01*
X141700948Y-74953031D01*
X141348877Y-74883000D01*
X141111123Y-74883000D01*
X140759052Y-74953031D01*
X140359802Y-75219802D01*
X140093031Y-75619052D01*
X139999354Y-76090000D01*
X140093031Y-76560948D01*
X140359802Y-76960198D01*
X140759052Y-77226969D01*
X141111123Y-77297000D01*
X141348877Y-77297000D01*
X141700948Y-77226969D01*
X142100198Y-76960198D01*
X142366969Y-76560948D01*
X142371464Y-76538348D01*
X142574817Y-76971358D01*
X143003076Y-77361645D01*
X143413110Y-77531476D01*
X143643000Y-77410155D01*
X143643000Y-76217000D01*
X143623000Y-76217000D01*
X143623000Y-75963000D01*
X143643000Y-75963000D01*
X143643000Y-75943000D01*
X143897000Y-75943000D01*
X143897000Y-75963000D01*
X143917000Y-75963000D01*
X143917000Y-76217000D01*
X143897000Y-76217000D01*
X143897000Y-77410155D01*
X144126890Y-77531476D01*
X144536924Y-77361645D01*
X144640991Y-77266805D01*
X144640990Y-78859636D01*
X144630079Y-78914490D01*
X144640990Y-78969344D01*
X144640990Y-78969347D01*
X144673308Y-79131820D01*
X144796416Y-79316064D01*
X144842923Y-79347139D01*
X145215363Y-79719579D01*
X145150334Y-80046500D01*
X145215363Y-80373421D01*
X145174935Y-80413849D01*
X145174932Y-80413851D01*
X128395931Y-97192853D01*
X128349426Y-97223927D01*
X128318352Y-97270432D01*
X128318351Y-97270433D01*
X128226317Y-97408172D01*
X128183088Y-97625501D01*
X128194000Y-97680360D01*
X128193999Y-125199001D01*
X127086934Y-125199001D01*
X127032080Y-125188090D01*
X126977226Y-125199001D01*
X126977222Y-125199001D01*
X126814749Y-125231319D01*
X126735397Y-125284341D01*
X126677012Y-125323352D01*
X126677011Y-125323353D01*
X126630506Y-125354427D01*
X126599432Y-125400932D01*
X126284169Y-125716195D01*
X126118198Y-125467802D01*
X125718948Y-125201031D01*
X125366877Y-125131000D01*
X125129123Y-125131000D01*
X124777052Y-125201031D01*
X124377802Y-125467802D01*
X124111031Y-125867052D01*
X124017354Y-126338000D01*
X124111031Y-126808948D01*
X124377802Y-127208198D01*
X124777052Y-127474969D01*
X125129123Y-127545000D01*
X125366877Y-127545000D01*
X125718948Y-127474969D01*
X126118198Y-127208198D01*
X126327471Y-126895000D01*
X126395227Y-126895000D01*
X126450081Y-126905911D01*
X126504935Y-126895000D01*
X126504939Y-126895000D01*
X126667412Y-126862682D01*
X126851655Y-126739574D01*
X126882730Y-126693067D01*
X127262797Y-126313001D01*
X128696141Y-126313001D01*
X128750999Y-126323913D01*
X128805857Y-126313001D01*
X128968330Y-126280683D01*
X129152573Y-126157575D01*
X129275681Y-125973332D01*
X129318911Y-125756001D01*
X129307999Y-125701143D01*
X129307999Y-108307494D01*
X131094002Y-108307494D01*
X131094001Y-125165283D01*
X128788283Y-127471001D01*
X126152852Y-127471001D01*
X126097998Y-127460090D01*
X126043144Y-127471001D01*
X126043141Y-127471001D01*
X125898349Y-127499802D01*
X125880668Y-127503319D01*
X125806102Y-127553143D01*
X125696425Y-127626427D01*
X125665351Y-127672932D01*
X125617443Y-127720840D01*
X125366877Y-127671000D01*
X125129123Y-127671000D01*
X124777052Y-127741031D01*
X124377802Y-128007802D01*
X124111031Y-128407052D01*
X124017354Y-128878000D01*
X124111031Y-129348948D01*
X124377802Y-129748198D01*
X124777052Y-130014969D01*
X124799652Y-130019464D01*
X124366642Y-130222817D01*
X123976355Y-130651076D01*
X123806524Y-131061110D01*
X113613000Y-131061110D01*
X113613000Y-130807110D01*
X114662524Y-130807110D01*
X114783845Y-131037000D01*
X115977000Y-131037000D01*
X115977000Y-131017000D01*
X116231000Y-131017000D01*
X116231000Y-131037000D01*
X117424155Y-131037000D01*
X117545476Y-130807110D01*
X117375645Y-130397076D01*
X116985358Y-129968817D01*
X116552348Y-129765464D01*
X116574948Y-129760969D01*
X116974198Y-129494198D01*
X117240969Y-129094948D01*
X117334646Y-128624000D01*
X117240969Y-128153052D01*
X116974198Y-127753802D01*
X116574948Y-127487031D01*
X116222877Y-127417000D01*
X115985123Y-127417000D01*
X115633052Y-127487031D01*
X115233802Y-127753802D01*
X114967031Y-128153052D01*
X114873354Y-128624000D01*
X114967031Y-129094948D01*
X115233802Y-129494198D01*
X115633052Y-129760969D01*
X115655652Y-129765464D01*
X115222642Y-129968817D01*
X114832355Y-130397076D01*
X114662524Y-130807110D01*
X113613000Y-130807110D01*
X113613000Y-130392494D01*
X113705986Y-130485480D01*
X114000571Y-130607501D01*
X114319427Y-130607501D01*
X114614012Y-130485480D01*
X114839478Y-130260014D01*
X114961499Y-129965429D01*
X114961499Y-129646573D01*
X114839478Y-129351988D01*
X114716999Y-129229509D01*
X114716999Y-128258717D01*
X115734557Y-127241160D01*
X115985123Y-127291000D01*
X116222877Y-127291000D01*
X116574948Y-127220969D01*
X116974198Y-126954198D01*
X117240969Y-126554948D01*
X117334646Y-126084000D01*
X117240969Y-125613052D01*
X116974198Y-125213802D01*
X116574948Y-124947031D01*
X116222877Y-124877000D01*
X115985123Y-124877000D01*
X115633052Y-124947031D01*
X115233802Y-125213802D01*
X114967031Y-125613052D01*
X114873354Y-126084000D01*
X114946840Y-126453443D01*
X113804931Y-127595353D01*
X113758426Y-127626427D01*
X113727352Y-127672932D01*
X113727351Y-127672933D01*
X113635317Y-127810672D01*
X113613000Y-127922868D01*
X113613000Y-123544000D01*
X114873354Y-123544000D01*
X114967031Y-124014948D01*
X115233802Y-124414198D01*
X115633052Y-124680969D01*
X115985123Y-124751000D01*
X116222877Y-124751000D01*
X116574948Y-124680969D01*
X116974198Y-124414198D01*
X117240969Y-124014948D01*
X117334646Y-123544000D01*
X117261159Y-123174557D01*
X118745070Y-121690647D01*
X118791574Y-121659574D01*
X118914682Y-121475331D01*
X118947000Y-121312858D01*
X118947000Y-121312855D01*
X118957911Y-121258001D01*
X118947000Y-121203147D01*
X118947000Y-114976492D01*
X119069479Y-114854013D01*
X119191500Y-114559428D01*
X119191500Y-114240572D01*
X119069479Y-113945987D01*
X118844013Y-113720521D01*
X118549428Y-113598500D01*
X118230572Y-113598500D01*
X117935987Y-113720521D01*
X117710521Y-113945987D01*
X117588500Y-114240572D01*
X117588500Y-114559428D01*
X117710521Y-114854013D01*
X117833001Y-114976493D01*
X117833000Y-121027283D01*
X117317994Y-121542289D01*
X117317994Y-120154000D01*
X117290287Y-120014706D01*
X117211383Y-119896617D01*
X117093294Y-119817713D01*
X116954000Y-119790006D01*
X115254000Y-119790006D01*
X115114706Y-119817713D01*
X114996617Y-119896617D01*
X114917713Y-120014706D01*
X114890006Y-120154000D01*
X114890006Y-121854000D01*
X114917713Y-121993294D01*
X114996617Y-122111383D01*
X115114706Y-122190287D01*
X115254000Y-122217994D01*
X116642290Y-122217994D01*
X116473443Y-122386841D01*
X116222877Y-122337000D01*
X115985123Y-122337000D01*
X115633052Y-122407031D01*
X115233802Y-122673802D01*
X114967031Y-123073052D01*
X114873354Y-123544000D01*
X113613000Y-123544000D01*
X113613000Y-79195128D01*
X114845071Y-77963058D01*
X114891575Y-77931985D01*
X115014683Y-77747742D01*
X115047001Y-77585269D01*
X115047001Y-77585265D01*
X115057912Y-77530411D01*
X115047001Y-77475557D01*
X115047001Y-77018463D01*
X115273001Y-77169471D01*
X115273000Y-105090148D01*
X115262089Y-105145002D01*
X115273000Y-105199856D01*
X115273000Y-105199859D01*
X115305318Y-105362332D01*
X115428426Y-105546576D01*
X115474934Y-105577652D01*
X120119000Y-110221718D01*
X120119001Y-124491507D01*
X119996521Y-124613987D01*
X119874500Y-124908572D01*
X119874500Y-125227428D01*
X119996521Y-125522013D01*
X120221987Y-125747479D01*
X120516572Y-125869500D01*
X120835428Y-125869500D01*
X121130013Y-125747479D01*
X121188001Y-125689491D01*
X121188001Y-126844147D01*
X121177090Y-126899001D01*
X121188001Y-126953855D01*
X121188001Y-126953858D01*
X121220319Y-127116331D01*
X121343427Y-127300575D01*
X121389934Y-127331650D01*
X121652500Y-127594216D01*
X121652500Y-127767428D01*
X121774521Y-128062013D01*
X121999987Y-128287479D01*
X122294572Y-128409500D01*
X122613428Y-128409500D01*
X122908013Y-128287479D01*
X123133479Y-128062013D01*
X123255500Y-127767428D01*
X123255500Y-127448572D01*
X123133479Y-127153987D01*
X122908013Y-126928521D01*
X122613428Y-126806500D01*
X122440216Y-126806500D01*
X122302001Y-126668285D01*
X122302001Y-123798000D01*
X124017354Y-123798000D01*
X124111031Y-124268948D01*
X124377802Y-124668198D01*
X124777052Y-124934969D01*
X125129123Y-125005000D01*
X125366877Y-125005000D01*
X125718948Y-124934969D01*
X126118198Y-124668198D01*
X126384969Y-124268948D01*
X126478646Y-123798000D01*
X126405160Y-123428557D01*
X126530647Y-123303070D01*
X126530649Y-123303067D01*
X126803067Y-123030649D01*
X126849575Y-122999573D01*
X126972683Y-122815330D01*
X127005001Y-122652857D01*
X127005001Y-122652853D01*
X127015912Y-122597999D01*
X127005001Y-122543145D01*
X127005001Y-120182853D01*
X127015912Y-120127999D01*
X127005001Y-120073145D01*
X127005001Y-120073141D01*
X126972683Y-119910668D01*
X126849575Y-119726425D01*
X126803068Y-119695350D01*
X126687501Y-119579783D01*
X126687501Y-113826993D01*
X126809980Y-113704514D01*
X126932001Y-113409929D01*
X126932001Y-113091073D01*
X126809980Y-112796488D01*
X126584514Y-112571022D01*
X126289929Y-112449001D01*
X125971073Y-112449001D01*
X125676488Y-112571022D01*
X125451022Y-112796488D01*
X125329001Y-113091073D01*
X125329001Y-113409929D01*
X125451022Y-113704514D01*
X125573501Y-113826993D01*
X125573502Y-119755640D01*
X125562590Y-119810499D01*
X125605819Y-120027828D01*
X125616629Y-120044006D01*
X124398000Y-120044006D01*
X124258706Y-120071713D01*
X124140617Y-120150617D01*
X124061713Y-120268706D01*
X124034006Y-120408000D01*
X124034006Y-122108000D01*
X124061713Y-122247294D01*
X124140617Y-122365383D01*
X124258706Y-122444287D01*
X124398000Y-122471994D01*
X125786290Y-122471994D01*
X125742933Y-122515351D01*
X125742930Y-122515353D01*
X125617443Y-122640840D01*
X125366877Y-122591000D01*
X125129123Y-122591000D01*
X124777052Y-122661031D01*
X124377802Y-122927802D01*
X124111031Y-123327052D01*
X124017354Y-123798000D01*
X122302001Y-123798000D01*
X122302001Y-106780000D01*
X122619456Y-106780000D01*
X122732536Y-107348493D01*
X123054562Y-107830438D01*
X123536507Y-108152464D01*
X123961499Y-108237000D01*
X124248501Y-108237000D01*
X124673493Y-108152464D01*
X125155438Y-107830438D01*
X125477464Y-107348493D01*
X125590544Y-106780000D01*
X125477464Y-106211507D01*
X125155438Y-105729562D01*
X124673493Y-105407536D01*
X124248501Y-105323000D01*
X123961499Y-105323000D01*
X123536507Y-105407536D01*
X123054562Y-105729562D01*
X122732536Y-106211507D01*
X122619456Y-106780000D01*
X122302001Y-106780000D01*
X122302001Y-105454852D01*
X122312912Y-105399998D01*
X122302001Y-105345144D01*
X122302001Y-105345141D01*
X122269683Y-105182668D01*
X122146575Y-104998425D01*
X122100070Y-104967351D01*
X120317718Y-103185000D01*
X120644250Y-103185000D01*
X120803000Y-103026250D01*
X120803000Y-101827000D01*
X121057000Y-101827000D01*
X121057000Y-103026250D01*
X121215750Y-103185000D01*
X121906309Y-103185000D01*
X122139698Y-103088327D01*
X122318327Y-102909699D01*
X122415000Y-102676310D01*
X122415000Y-101985750D01*
X122256250Y-101827000D01*
X121057000Y-101827000D01*
X120803000Y-101827000D01*
X119603750Y-101827000D01*
X119445000Y-101985750D01*
X119445000Y-102312282D01*
X118927000Y-101794282D01*
X118927000Y-100723690D01*
X119445000Y-100723690D01*
X119445000Y-101414250D01*
X119603750Y-101573000D01*
X120803000Y-101573000D01*
X120803000Y-100373750D01*
X121057000Y-100373750D01*
X121057000Y-101573000D01*
X122256250Y-101573000D01*
X122415000Y-101414250D01*
X122415000Y-100723690D01*
X122318327Y-100490301D01*
X122139698Y-100311673D01*
X121906309Y-100215000D01*
X121215750Y-100215000D01*
X121057000Y-100373750D01*
X120803000Y-100373750D01*
X120644250Y-100215000D01*
X119953691Y-100215000D01*
X119720302Y-100311673D01*
X119541673Y-100490301D01*
X119445000Y-100723690D01*
X118927000Y-100723690D01*
X118927000Y-83070000D01*
X119716006Y-83070000D01*
X119716006Y-84770000D01*
X119743713Y-84909294D01*
X119822617Y-85027383D01*
X119940706Y-85106287D01*
X120080000Y-85133994D01*
X121780000Y-85133994D01*
X121919294Y-85106287D01*
X122037383Y-85027383D01*
X122116287Y-84909294D01*
X122143994Y-84770000D01*
X122143994Y-83070000D01*
X122116287Y-82930706D01*
X122037383Y-82812617D01*
X121919294Y-82733713D01*
X121780000Y-82706006D01*
X120080000Y-82706006D01*
X119940706Y-82733713D01*
X119822617Y-82812617D01*
X119743713Y-82930706D01*
X119716006Y-83070000D01*
X118927000Y-83070000D01*
X118927000Y-79816358D01*
X140093000Y-79816358D01*
X140093000Y-80276642D01*
X140269143Y-80701888D01*
X140594612Y-81027357D01*
X141019858Y-81203500D01*
X141480142Y-81203500D01*
X141905388Y-81027357D01*
X142230857Y-80701888D01*
X142407000Y-80276642D01*
X142407000Y-79816358D01*
X142230857Y-79391112D01*
X141905388Y-79065643D01*
X141480142Y-78889500D01*
X141019858Y-78889500D01*
X140594612Y-79065643D01*
X140269143Y-79391112D01*
X140093000Y-79816358D01*
X118927000Y-79816358D01*
X118927000Y-77169471D01*
X119240198Y-76960198D01*
X119506969Y-76560948D01*
X119600646Y-76090000D01*
X119679354Y-76090000D01*
X119773031Y-76560948D01*
X120039802Y-76960198D01*
X120439052Y-77226969D01*
X120791123Y-77297000D01*
X121028877Y-77297000D01*
X121380948Y-77226969D01*
X121780198Y-76960198D01*
X122046969Y-76560948D01*
X122051464Y-76538348D01*
X122254817Y-76971358D01*
X122683076Y-77361645D01*
X123093110Y-77531476D01*
X123323000Y-77410155D01*
X123323000Y-76217000D01*
X123303000Y-76217000D01*
X123303000Y-75963000D01*
X123323000Y-75963000D01*
X123323000Y-75943000D01*
X123577000Y-75943000D01*
X123577000Y-75963000D01*
X123597000Y-75963000D01*
X123597000Y-76217000D01*
X123577000Y-76217000D01*
X123577000Y-77410155D01*
X123806890Y-77531476D01*
X124216924Y-77361645D01*
X124645183Y-76971358D01*
X124848536Y-76538348D01*
X124853031Y-76560948D01*
X125119802Y-76960198D01*
X125519052Y-77226969D01*
X125871123Y-77297000D01*
X126108877Y-77297000D01*
X126460948Y-77226969D01*
X126860198Y-76960198D01*
X127126969Y-76560948D01*
X127220646Y-76090000D01*
X127126969Y-75619052D01*
X126860198Y-75219802D01*
X126460948Y-74953031D01*
X126108877Y-74883000D01*
X125871123Y-74883000D01*
X125519052Y-74953031D01*
X125119802Y-75219802D01*
X124853031Y-75619052D01*
X124848536Y-75641652D01*
X124645183Y-75208642D01*
X124216924Y-74818355D01*
X123906601Y-74689823D01*
X123920948Y-74686969D01*
X124320198Y-74420198D01*
X124586969Y-74020948D01*
X124680646Y-73550000D01*
X124759354Y-73550000D01*
X124853031Y-74020948D01*
X125119802Y-74420198D01*
X125519052Y-74686969D01*
X125871123Y-74757000D01*
X126108877Y-74757000D01*
X126460948Y-74686969D01*
X126860198Y-74420198D01*
X127126969Y-74020948D01*
X127131464Y-73998348D01*
X127334817Y-74431358D01*
X127763076Y-74821645D01*
X128073399Y-74950177D01*
X128059052Y-74953031D01*
X127659802Y-75219802D01*
X127393031Y-75619052D01*
X127299354Y-76090000D01*
X127393031Y-76560948D01*
X127659802Y-76960198D01*
X128059052Y-77226969D01*
X128411123Y-77297000D01*
X128648877Y-77297000D01*
X129000948Y-77226969D01*
X129400198Y-76960198D01*
X129666969Y-76560948D01*
X129760646Y-76090000D01*
X129839354Y-76090000D01*
X129933031Y-76560948D01*
X130199802Y-76960198D01*
X130599052Y-77226969D01*
X130951123Y-77297000D01*
X131188877Y-77297000D01*
X131540948Y-77226969D01*
X131940198Y-76960198D01*
X132206969Y-76560948D01*
X132300646Y-76090000D01*
X132379354Y-76090000D01*
X132473031Y-76560948D01*
X132739802Y-76960198D01*
X133139052Y-77226969D01*
X133491123Y-77297000D01*
X133728877Y-77297000D01*
X134080948Y-77226969D01*
X134480198Y-76960198D01*
X134746969Y-76560948D01*
X134840646Y-76090000D01*
X134746969Y-75619052D01*
X134480198Y-75219802D01*
X134080948Y-74953031D01*
X133728877Y-74883000D01*
X133491123Y-74883000D01*
X133139052Y-74953031D01*
X132739802Y-75219802D01*
X132473031Y-75619052D01*
X132379354Y-76090000D01*
X132300646Y-76090000D01*
X132206969Y-75619052D01*
X131940198Y-75219802D01*
X131540948Y-74953031D01*
X131188877Y-74883000D01*
X130951123Y-74883000D01*
X130599052Y-74953031D01*
X130199802Y-75219802D01*
X129933031Y-75619052D01*
X129839354Y-76090000D01*
X129760646Y-76090000D01*
X129666969Y-75619052D01*
X129400198Y-75219802D01*
X129000948Y-74953031D01*
X128986601Y-74950177D01*
X129296924Y-74821645D01*
X129725183Y-74431358D01*
X129928536Y-73998348D01*
X129933031Y-74020948D01*
X130199802Y-74420198D01*
X130599052Y-74686969D01*
X130951123Y-74757000D01*
X131188877Y-74757000D01*
X131540948Y-74686969D01*
X131940198Y-74420198D01*
X132206969Y-74020948D01*
X132300646Y-73550000D01*
X132379354Y-73550000D01*
X132473031Y-74020948D01*
X132739802Y-74420198D01*
X133139052Y-74686969D01*
X133491123Y-74757000D01*
X133728877Y-74757000D01*
X134080948Y-74686969D01*
X134480198Y-74420198D01*
X134746969Y-74020948D01*
X134751464Y-73998348D01*
X134954817Y-74431358D01*
X135383076Y-74821645D01*
X135693399Y-74950177D01*
X135679052Y-74953031D01*
X135279802Y-75219802D01*
X135013031Y-75619052D01*
X134919354Y-76090000D01*
X135013031Y-76560948D01*
X135279802Y-76960198D01*
X135679052Y-77226969D01*
X136031123Y-77297000D01*
X136268877Y-77297000D01*
X136620948Y-77226969D01*
X137020198Y-76960198D01*
X137286969Y-76560948D01*
X137380646Y-76090000D01*
X137459354Y-76090000D01*
X137553031Y-76560948D01*
X137819802Y-76960198D01*
X138219052Y-77226969D01*
X138571123Y-77297000D01*
X138808877Y-77297000D01*
X139160948Y-77226969D01*
X139560198Y-76960198D01*
X139826969Y-76560948D01*
X139920646Y-76090000D01*
X139826969Y-75619052D01*
X139560198Y-75219802D01*
X139160948Y-74953031D01*
X138808877Y-74883000D01*
X138571123Y-74883000D01*
X138219052Y-74953031D01*
X137819802Y-75219802D01*
X137553031Y-75619052D01*
X137459354Y-76090000D01*
X137380646Y-76090000D01*
X137286969Y-75619052D01*
X137020198Y-75219802D01*
X136620948Y-74953031D01*
X136606601Y-74950177D01*
X136916924Y-74821645D01*
X137345183Y-74431358D01*
X137548536Y-73998348D01*
X137553031Y-74020948D01*
X137819802Y-74420198D01*
X138219052Y-74686969D01*
X138571123Y-74757000D01*
X138808877Y-74757000D01*
X139160948Y-74686969D01*
X139560198Y-74420198D01*
X139826969Y-74020948D01*
X139920646Y-73550000D01*
X139999354Y-73550000D01*
X140093031Y-74020948D01*
X140359802Y-74420198D01*
X140759052Y-74686969D01*
X141111123Y-74757000D01*
X141348877Y-74757000D01*
X141700948Y-74686969D01*
X142100198Y-74420198D01*
X142366969Y-74020948D01*
X142460646Y-73550000D01*
X142366969Y-73079052D01*
X142100198Y-72679802D01*
X141700948Y-72413031D01*
X141348877Y-72343000D01*
X141111123Y-72343000D01*
X140759052Y-72413031D01*
X140359802Y-72679802D01*
X140093031Y-73079052D01*
X139999354Y-73550000D01*
X139920646Y-73550000D01*
X139826969Y-73079052D01*
X139560198Y-72679802D01*
X139160948Y-72413031D01*
X138808877Y-72343000D01*
X138571123Y-72343000D01*
X138219052Y-72413031D01*
X137819802Y-72679802D01*
X137553031Y-73079052D01*
X137548536Y-73101652D01*
X137345183Y-72668642D01*
X136916924Y-72278355D01*
X136506890Y-72108524D01*
X136277000Y-72229845D01*
X136277000Y-73423000D01*
X136297000Y-73423000D01*
X136297000Y-73677000D01*
X136277000Y-73677000D01*
X136277000Y-73697000D01*
X136023000Y-73697000D01*
X136023000Y-73677000D01*
X136003000Y-73677000D01*
X136003000Y-73423000D01*
X136023000Y-73423000D01*
X136023000Y-72229845D01*
X135793110Y-72108524D01*
X135383076Y-72278355D01*
X134954817Y-72668642D01*
X134751464Y-73101652D01*
X134746969Y-73079052D01*
X134480198Y-72679802D01*
X134080948Y-72413031D01*
X133728877Y-72343000D01*
X133491123Y-72343000D01*
X133139052Y-72413031D01*
X132739802Y-72679802D01*
X132473031Y-73079052D01*
X132379354Y-73550000D01*
X132300646Y-73550000D01*
X132206969Y-73079052D01*
X131940198Y-72679802D01*
X131540948Y-72413031D01*
X131188877Y-72343000D01*
X130951123Y-72343000D01*
X130599052Y-72413031D01*
X130199802Y-72679802D01*
X129933031Y-73079052D01*
X129928536Y-73101652D01*
X129725183Y-72668642D01*
X129296924Y-72278355D01*
X128886890Y-72108524D01*
X128657000Y-72229845D01*
X128657000Y-73423000D01*
X128677000Y-73423000D01*
X128677000Y-73677000D01*
X128657000Y-73677000D01*
X128657000Y-73697000D01*
X128403000Y-73697000D01*
X128403000Y-73677000D01*
X128383000Y-73677000D01*
X128383000Y-73423000D01*
X128403000Y-73423000D01*
X128403000Y-72229845D01*
X128173110Y-72108524D01*
X127763076Y-72278355D01*
X127334817Y-72668642D01*
X127131464Y-73101652D01*
X127126969Y-73079052D01*
X126860198Y-72679802D01*
X126460948Y-72413031D01*
X126108877Y-72343000D01*
X125871123Y-72343000D01*
X125519052Y-72413031D01*
X125119802Y-72679802D01*
X124853031Y-73079052D01*
X124759354Y-73550000D01*
X124680646Y-73550000D01*
X124586969Y-73079052D01*
X124320198Y-72679802D01*
X123920948Y-72413031D01*
X123568877Y-72343000D01*
X123331123Y-72343000D01*
X122979052Y-72413031D01*
X122579802Y-72679802D01*
X122313031Y-73079052D01*
X122219354Y-73550000D01*
X122313031Y-74020948D01*
X122579802Y-74420198D01*
X122979052Y-74686969D01*
X122993399Y-74689823D01*
X122683076Y-74818355D01*
X122254817Y-75208642D01*
X122051464Y-75641652D01*
X122046969Y-75619052D01*
X121780198Y-75219802D01*
X121380948Y-74953031D01*
X121028877Y-74883000D01*
X120791123Y-74883000D01*
X120439052Y-74953031D01*
X120039802Y-75219802D01*
X119773031Y-75619052D01*
X119679354Y-76090000D01*
X119600646Y-76090000D01*
X119506969Y-75619052D01*
X119240198Y-75219802D01*
X118840948Y-74953031D01*
X118826601Y-74950177D01*
X119136924Y-74821645D01*
X119565183Y-74431358D01*
X119768536Y-73998348D01*
X119773031Y-74020948D01*
X120039802Y-74420198D01*
X120439052Y-74686969D01*
X120791123Y-74757000D01*
X121028877Y-74757000D01*
X121380948Y-74686969D01*
X121780198Y-74420198D01*
X122046969Y-74020948D01*
X122140646Y-73550000D01*
X122046969Y-73079052D01*
X121780198Y-72679802D01*
X121380948Y-72413031D01*
X121028877Y-72343000D01*
X120791123Y-72343000D01*
X120439052Y-72413031D01*
X120039802Y-72679802D01*
X119773031Y-73079052D01*
X119768536Y-73101652D01*
X119565183Y-72668642D01*
X119136924Y-72278355D01*
X118726890Y-72108524D01*
X118497000Y-72229845D01*
X118497000Y-73423000D01*
X118517000Y-73423000D01*
X118517000Y-73677000D01*
X118497000Y-73677000D01*
X118497000Y-73697000D01*
X118243000Y-73697000D01*
X118243000Y-73677000D01*
X118223000Y-73677000D01*
X118223000Y-73423000D01*
X118243000Y-73423000D01*
X118243000Y-72229845D01*
X118013110Y-72108524D01*
X117603076Y-72278355D01*
X117174817Y-72668642D01*
X116971464Y-73101652D01*
X116966969Y-73079052D01*
X116700198Y-72679802D01*
X116300948Y-72413031D01*
X115948877Y-72343000D01*
X115711123Y-72343000D01*
X115359052Y-72413031D01*
X114959802Y-72679802D01*
X114750529Y-72993000D01*
X114369471Y-72993000D01*
X114160198Y-72679802D01*
X113760948Y-72413031D01*
X113408877Y-72343000D01*
X113171123Y-72343000D01*
X112819052Y-72413031D01*
X112419802Y-72679802D01*
X112153031Y-73079052D01*
X112059354Y-73550000D01*
X112153031Y-74020948D01*
X112419802Y-74420198D01*
X112819052Y-74686969D01*
X113171123Y-74757000D01*
X113408877Y-74757000D01*
X113659443Y-74707160D01*
X113784930Y-74832647D01*
X113784933Y-74832649D01*
X113828290Y-74876006D01*
X112440000Y-74876006D01*
X112300706Y-74903713D01*
X112182617Y-74982617D01*
X112103713Y-75100706D01*
X112076006Y-75240000D01*
X112076006Y-76940000D01*
X112103713Y-77079294D01*
X112108176Y-77085973D01*
X111878934Y-77276500D01*
X111626572Y-77276500D01*
X111331987Y-77398521D01*
X111106521Y-77623987D01*
X110984500Y-77918572D01*
X110984500Y-78237428D01*
X111106521Y-78532013D01*
X111228432Y-78653924D01*
X111181007Y-126742822D01*
X111170041Y-126797952D01*
X111191604Y-126906359D01*
X111213056Y-127014765D01*
X111213215Y-127015003D01*
X111213270Y-127015281D01*
X111274712Y-127107236D01*
X111335983Y-127199129D01*
X111382686Y-127230402D01*
X111483000Y-127330716D01*
X111483000Y-127553143D01*
X111483001Y-133127507D01*
X111360521Y-133249987D01*
X111238500Y-133544572D01*
X111238500Y-133863428D01*
X111360521Y-134158013D01*
X111585987Y-134383479D01*
X111880572Y-134505500D01*
X112199428Y-134505500D01*
X112494013Y-134383479D01*
X112499000Y-134378492D01*
X112499000Y-136775283D01*
X111301284Y-137973000D01*
X109893142Y-137973000D01*
X109940415Y-124925595D01*
X109994178Y-124871832D01*
X110276870Y-124189354D01*
X110276870Y-123450646D01*
X109994178Y-122768168D01*
X109948398Y-122722388D01*
X110001926Y-107948731D01*
X110182288Y-107678800D01*
X110198385Y-107639938D01*
X110243060Y-107532084D01*
X110319180Y-107149402D01*
X110319180Y-107149397D01*
X110327000Y-107110083D01*
X110327000Y-92029917D01*
X110319180Y-91990603D01*
X110319180Y-91990598D01*
X110243060Y-91607916D01*
X110182288Y-91461200D01*
X110062314Y-91281646D01*
X110119241Y-75569905D01*
X110276870Y-75189354D01*
X110276870Y-74450646D01*
X110124628Y-74083101D01*
X110134053Y-71481683D01*
X178881222Y-71627083D01*
G04 #@! TD*
M02*
