M48
INCH,TZ
T1C0.0250
T2C0.0295
T3C0.0315
T4C0.0394
T5C0.0433
T6C0.0472
T7C0.1181
%
G90
G05
T1
X44010Y-30739
X44110Y-52639
X44945Y-51105
X46610Y-45039
X46610Y-45039
X47510Y-49239
X48210Y-50239
X49658Y-44587
X49658Y-44587
X52910Y-45739
X53810Y-46639
X57610Y-43039
X58183Y-50212
X60563Y-44587
X61783Y-52212
X62610Y-43539
X64110Y-44539
X65610Y-41039
X66831Y-46618
T2
X66848Y-31266
X68108Y-34888
X68659Y-33825
X69840Y-31069
X71179Y-32841
T3
X55610Y-31514
X57610Y-31514
X59110Y-31539
X61110Y-31539
T4
X47610Y-33039
X52910Y-47639
X52910Y-48639
X52910Y-49639
X52910Y-50639
X52910Y-51639
X52910Y-52639
X68110Y-45539
X68110Y-46539
X68110Y-47539
X68110Y-48539
X68110Y-49539
X68110Y-50539
X68110Y-51539
X68110Y-52539
X68110Y-53539
X68110Y-54539
X68110Y-43539
X68110Y-44539
X44602Y-28957
X44602Y-29957
X45602Y-28957
X45602Y-29957
X46602Y-28957
X46602Y-29957
X47602Y-28957
X47602Y-29957
X48602Y-28957
X48602Y-29957
X49602Y-28957
X49602Y-29957
X50602Y-28957
X50602Y-29957
X51602Y-28957
X51602Y-29957
X52602Y-28957
X52602Y-29957
X53602Y-28957
X53602Y-29957
X54602Y-28957
X54602Y-29957
X55602Y-28957
X55602Y-29957
X56602Y-28957
X56602Y-29957
X57602Y-28957
X57602Y-29957
X58602Y-28957
X58602Y-29957
X59602Y-28957
X59602Y-29957
X60602Y-28957
X60602Y-29957
X61602Y-28957
X61602Y-29957
X62602Y-28957
X62602Y-29957
X63602Y-28957
X63602Y-29957
X56510Y-47739
X56510Y-48739
X56510Y-49739
X56510Y-50739
X56510Y-51739
X56510Y-52739
X49310Y-47739
X49310Y-48739
X49310Y-49739
X49310Y-50739
X49310Y-51739
X49310Y-52739
X63610Y-33039
X60035Y-47739
X60035Y-48739
X60035Y-49739
X60035Y-50739
X60035Y-51739
X60035Y-52739
X66810Y-36339
X67810Y-36339
X68810Y-36339
X69810Y-36339
X70810Y-36339
X63610Y-40039
X63510Y-47739
X63510Y-48739
X63510Y-49739
X63510Y-50739
X63510Y-51739
X63510Y-52739
X47610Y-40039
X42610Y-50539
X42610Y-51539
X42610Y-52539
X42610Y-53539
X42610Y-54539
X45710Y-47639
X45710Y-48639
X45710Y-49639
X45710Y-50639
X45710Y-51639
X45710Y-52639
T5
X59110Y-42089
X60610Y-42089
X55135Y-42064
X56635Y-42064
X47360Y-42039
X48860Y-42039
X51260Y-42064
X52760Y-42064
X62835Y-41964
X64335Y-41964
T6
X68110Y-37739
X68110Y-39239
X68110Y-40739
X68110Y-42239
T7
X65520Y-29457
X42685Y-48748
X65520Y-48748
X42685Y-29457
T0
M30
