G04 #@! TF.GenerationSoftware,KiCad,Pcbnew,(5.0.1)-4*
G04 #@! TF.CreationDate,2019-03-02T10:25:12-05:00*
G04 #@! TF.ProjectId,cubesatsim_solar,6375626573617473696D5F736F6C6172,B2.0*
G04 #@! TF.SameCoordinates,Original*
G04 #@! TF.FileFunction,Soldermask,Bot*
G04 #@! TF.FilePolarity,Negative*
%FSLAX46Y46*%
G04 Gerber Fmt 4.6, Leading zero omitted, Abs format (unit mm)*
G04 Created by KiCad (PCBNEW (5.0.1)-4) date 3/2/2019 10:25:12 AM*
%MOMM*%
%LPD*%
G01*
G04 APERTURE LIST*
%ADD10C,0.100000*%
G04 APERTURE END LIST*
D10*
G36*
X109080000Y-139380000D02*
X107380000Y-139380000D01*
X107380000Y-137680000D01*
X109080000Y-137680000D01*
X109080000Y-139380000D01*
X109080000Y-139380000D01*
G37*
G36*
X108396630Y-135152299D02*
X108556855Y-135200903D01*
X108704520Y-135279831D01*
X108833949Y-135386051D01*
X108940169Y-135515480D01*
X109019097Y-135663145D01*
X109067701Y-135823370D01*
X109084112Y-135990000D01*
X109067701Y-136156630D01*
X109019097Y-136316855D01*
X108940169Y-136464520D01*
X108833949Y-136593949D01*
X108704520Y-136700169D01*
X108556855Y-136779097D01*
X108396630Y-136827701D01*
X108271752Y-136840000D01*
X108188248Y-136840000D01*
X108063370Y-136827701D01*
X107903145Y-136779097D01*
X107755480Y-136700169D01*
X107626051Y-136593949D01*
X107519831Y-136464520D01*
X107440903Y-136316855D01*
X107392299Y-136156630D01*
X107375888Y-135990000D01*
X107392299Y-135823370D01*
X107440903Y-135663145D01*
X107519831Y-135515480D01*
X107626051Y-135386051D01*
X107755480Y-135279831D01*
X107903145Y-135200903D01*
X108063370Y-135152299D01*
X108188248Y-135140000D01*
X108271752Y-135140000D01*
X108396630Y-135152299D01*
X108396630Y-135152299D01*
G37*
G36*
X169435038Y-131476086D02*
X169435041Y-131476087D01*
X169435042Y-131476087D01*
X169670668Y-131547563D01*
X169887822Y-131663634D01*
X170078160Y-131819840D01*
X170234366Y-132010177D01*
X170350437Y-132227331D01*
X170402936Y-132400398D01*
X170421914Y-132462961D01*
X170440000Y-132646591D01*
X170440000Y-135269409D01*
X170421914Y-135453039D01*
X170421913Y-135453042D01*
X170421913Y-135453043D01*
X170350437Y-135688669D01*
X170234366Y-135905823D01*
X170078160Y-136096160D01*
X169887823Y-136252366D01*
X169670669Y-136368437D01*
X169435043Y-136439913D01*
X169435042Y-136439913D01*
X169435039Y-136439914D01*
X169190000Y-136464048D01*
X168944962Y-136439914D01*
X168944959Y-136439913D01*
X168944958Y-136439913D01*
X168709332Y-136368437D01*
X168492178Y-136252366D01*
X168301841Y-136096160D01*
X168145635Y-135905823D01*
X168029564Y-135688669D01*
X167958088Y-135453043D01*
X167958088Y-135453042D01*
X167958087Y-135453039D01*
X167940001Y-135269409D01*
X167940000Y-132646592D01*
X167958086Y-132462962D01*
X167958087Y-132462958D01*
X168029563Y-132227332D01*
X168145634Y-132010178D01*
X168301840Y-131819840D01*
X168492177Y-131663634D01*
X168709331Y-131547563D01*
X168944957Y-131476087D01*
X168944958Y-131476087D01*
X168944961Y-131476086D01*
X169190000Y-131451952D01*
X169435038Y-131476086D01*
X169435038Y-131476086D01*
G37*
G36*
X175410537Y-131724278D02*
X175478370Y-131744855D01*
X175622602Y-131788607D01*
X175818042Y-131893072D01*
X175989344Y-132033656D01*
X176129928Y-132204958D01*
X176234393Y-132400397D01*
X176253371Y-132462961D01*
X176298673Y-132612299D01*
X176298722Y-132612463D01*
X176315000Y-132777735D01*
X176315000Y-135138265D01*
X176298722Y-135303537D01*
X176234393Y-135515603D01*
X176129928Y-135711042D01*
X175989344Y-135882344D01*
X175818042Y-136022928D01*
X175622603Y-136127393D01*
X175526224Y-136156629D01*
X175410538Y-136191722D01*
X175190000Y-136213443D01*
X174969463Y-136191722D01*
X174853777Y-136156629D01*
X174757398Y-136127393D01*
X174561959Y-136022928D01*
X174390657Y-135882344D01*
X174250073Y-135711042D01*
X174145608Y-135515603D01*
X174081279Y-135303537D01*
X174065001Y-135138265D01*
X174065000Y-132777736D01*
X174081278Y-132612464D01*
X174081279Y-132612462D01*
X174145607Y-132400399D01*
X174145607Y-132400398D01*
X174250072Y-132204958D01*
X174390656Y-132033656D01*
X174561958Y-131893072D01*
X174757397Y-131788607D01*
X174901629Y-131744855D01*
X174969462Y-131724278D01*
X175190000Y-131702557D01*
X175410537Y-131724278D01*
X175410537Y-131724278D01*
G37*
G36*
X162752630Y-133374299D02*
X162912855Y-133422903D01*
X163060520Y-133501831D01*
X163189949Y-133608051D01*
X163296169Y-133737480D01*
X163375097Y-133885145D01*
X163423701Y-134045370D01*
X163440112Y-134212000D01*
X163423701Y-134378630D01*
X163375097Y-134538855D01*
X163296169Y-134686520D01*
X163189949Y-134815949D01*
X163060520Y-134922169D01*
X162912855Y-135001097D01*
X162752630Y-135049701D01*
X162627752Y-135062000D01*
X162544248Y-135062000D01*
X162419370Y-135049701D01*
X162259145Y-135001097D01*
X162111480Y-134922169D01*
X161982051Y-134815949D01*
X161875831Y-134686520D01*
X161796903Y-134538855D01*
X161748299Y-134378630D01*
X161731888Y-134212000D01*
X161748299Y-134045370D01*
X161796903Y-133885145D01*
X161875831Y-133737480D01*
X161982051Y-133608051D01*
X162111480Y-133501831D01*
X162259145Y-133422903D01*
X162419370Y-133374299D01*
X162544248Y-133362000D01*
X162627752Y-133362000D01*
X162752630Y-133374299D01*
X162752630Y-133374299D01*
G37*
G36*
X126684630Y-133374299D02*
X126844855Y-133422903D01*
X126992520Y-133501831D01*
X127121949Y-133608051D01*
X127228169Y-133737480D01*
X127307097Y-133885145D01*
X127355701Y-134045370D01*
X127372112Y-134212000D01*
X127355701Y-134378630D01*
X127307097Y-134538855D01*
X127228169Y-134686520D01*
X127121949Y-134815949D01*
X126992520Y-134922169D01*
X126844855Y-135001097D01*
X126684630Y-135049701D01*
X126559752Y-135062000D01*
X126476248Y-135062000D01*
X126351370Y-135049701D01*
X126191145Y-135001097D01*
X126043480Y-134922169D01*
X125914051Y-134815949D01*
X125807831Y-134686520D01*
X125728903Y-134538855D01*
X125680299Y-134378630D01*
X125663888Y-134212000D01*
X125680299Y-134045370D01*
X125728903Y-133885145D01*
X125807831Y-133737480D01*
X125914051Y-133608051D01*
X126043480Y-133501831D01*
X126191145Y-133422903D01*
X126351370Y-133374299D01*
X126476248Y-133362000D01*
X126559752Y-133362000D01*
X126684630Y-133374299D01*
X126684630Y-133374299D01*
G37*
G36*
X144972630Y-133374299D02*
X145132855Y-133422903D01*
X145280520Y-133501831D01*
X145409949Y-133608051D01*
X145516169Y-133737480D01*
X145595097Y-133885145D01*
X145643701Y-134045370D01*
X145660112Y-134212000D01*
X145643701Y-134378630D01*
X145595097Y-134538855D01*
X145516169Y-134686520D01*
X145409949Y-134815949D01*
X145280520Y-134922169D01*
X145132855Y-135001097D01*
X144972630Y-135049701D01*
X144847752Y-135062000D01*
X144764248Y-135062000D01*
X144639370Y-135049701D01*
X144479145Y-135001097D01*
X144331480Y-134922169D01*
X144202051Y-134815949D01*
X144095831Y-134686520D01*
X144016903Y-134538855D01*
X143968299Y-134378630D01*
X143951888Y-134212000D01*
X143968299Y-134045370D01*
X144016903Y-133885145D01*
X144095831Y-133737480D01*
X144202051Y-133608051D01*
X144331480Y-133501831D01*
X144479145Y-133422903D01*
X144639370Y-133374299D01*
X144764248Y-133362000D01*
X144847752Y-133362000D01*
X144972630Y-133374299D01*
X144972630Y-133374299D01*
G37*
G36*
X153926130Y-133374299D02*
X154086355Y-133422903D01*
X154234020Y-133501831D01*
X154363449Y-133608051D01*
X154469669Y-133737480D01*
X154548597Y-133885145D01*
X154597201Y-134045370D01*
X154613612Y-134212000D01*
X154597201Y-134378630D01*
X154548597Y-134538855D01*
X154469669Y-134686520D01*
X154363449Y-134815949D01*
X154234020Y-134922169D01*
X154086355Y-135001097D01*
X153926130Y-135049701D01*
X153801252Y-135062000D01*
X153717748Y-135062000D01*
X153592870Y-135049701D01*
X153432645Y-135001097D01*
X153284980Y-134922169D01*
X153155551Y-134815949D01*
X153049331Y-134686520D01*
X152970403Y-134538855D01*
X152921799Y-134378630D01*
X152905388Y-134212000D01*
X152921799Y-134045370D01*
X152970403Y-133885145D01*
X153049331Y-133737480D01*
X153155551Y-133608051D01*
X153284980Y-133501831D01*
X153432645Y-133422903D01*
X153592870Y-133374299D01*
X153717748Y-133362000D01*
X153801252Y-133362000D01*
X153926130Y-133374299D01*
X153926130Y-133374299D01*
G37*
G36*
X117540630Y-133120299D02*
X117700855Y-133168903D01*
X117848520Y-133247831D01*
X117977949Y-133354051D01*
X118084169Y-133483480D01*
X118163097Y-133631145D01*
X118211701Y-133791370D01*
X118228112Y-133958000D01*
X118211701Y-134124630D01*
X118163097Y-134284855D01*
X118084169Y-134432520D01*
X117977949Y-134561949D01*
X117848520Y-134668169D01*
X117700855Y-134747097D01*
X117540630Y-134795701D01*
X117415752Y-134808000D01*
X117332248Y-134808000D01*
X117207370Y-134795701D01*
X117047145Y-134747097D01*
X116899480Y-134668169D01*
X116770051Y-134561949D01*
X116663831Y-134432520D01*
X116584903Y-134284855D01*
X116536299Y-134124630D01*
X116519888Y-133958000D01*
X116536299Y-133791370D01*
X116584903Y-133631145D01*
X116663831Y-133483480D01*
X116770051Y-133354051D01*
X116899480Y-133247831D01*
X117047145Y-133168903D01*
X117207370Y-133120299D01*
X117332248Y-133108000D01*
X117415752Y-133108000D01*
X117540630Y-133120299D01*
X117540630Y-133120299D01*
G37*
G36*
X135828630Y-133120299D02*
X135988855Y-133168903D01*
X136136520Y-133247831D01*
X136265949Y-133354051D01*
X136372169Y-133483480D01*
X136451097Y-133631145D01*
X136499701Y-133791370D01*
X136516112Y-133958000D01*
X136499701Y-134124630D01*
X136451097Y-134284855D01*
X136372169Y-134432520D01*
X136265949Y-134561949D01*
X136136520Y-134668169D01*
X135988855Y-134747097D01*
X135828630Y-134795701D01*
X135703752Y-134808000D01*
X135620248Y-134808000D01*
X135495370Y-134795701D01*
X135335145Y-134747097D01*
X135187480Y-134668169D01*
X135058051Y-134561949D01*
X134951831Y-134432520D01*
X134872903Y-134284855D01*
X134824299Y-134124630D01*
X134807888Y-133958000D01*
X134824299Y-133791370D01*
X134872903Y-133631145D01*
X134951831Y-133483480D01*
X135058051Y-133354051D01*
X135187480Y-133247831D01*
X135335145Y-133168903D01*
X135495370Y-133120299D01*
X135620248Y-133108000D01*
X135703752Y-133108000D01*
X135828630Y-133120299D01*
X135828630Y-133120299D01*
G37*
G36*
X108396630Y-132612299D02*
X108556855Y-132660903D01*
X108704520Y-132739831D01*
X108833949Y-132846051D01*
X108940169Y-132975480D01*
X109019097Y-133123145D01*
X109067701Y-133283370D01*
X109084112Y-133450000D01*
X109067701Y-133616630D01*
X109019097Y-133776855D01*
X108940169Y-133924520D01*
X108833949Y-134053949D01*
X108704520Y-134160169D01*
X108556855Y-134239097D01*
X108396630Y-134287701D01*
X108271752Y-134300000D01*
X108188248Y-134300000D01*
X108063370Y-134287701D01*
X107903145Y-134239097D01*
X107755480Y-134160169D01*
X107626051Y-134053949D01*
X107519831Y-133924520D01*
X107440903Y-133776855D01*
X107392299Y-133616630D01*
X107375888Y-133450000D01*
X107392299Y-133283370D01*
X107440903Y-133123145D01*
X107519831Y-132975480D01*
X107626051Y-132846051D01*
X107755480Y-132739831D01*
X107903145Y-132660903D01*
X108063370Y-132612299D01*
X108188248Y-132600000D01*
X108271752Y-132600000D01*
X108396630Y-132612299D01*
X108396630Y-132612299D01*
G37*
G36*
X153926130Y-130834299D02*
X154086355Y-130882903D01*
X154234020Y-130961831D01*
X154363449Y-131068051D01*
X154469669Y-131197480D01*
X154548597Y-131345145D01*
X154597201Y-131505370D01*
X154613612Y-131672000D01*
X154597201Y-131838630D01*
X154548597Y-131998855D01*
X154469669Y-132146520D01*
X154363449Y-132275949D01*
X154234020Y-132382169D01*
X154086355Y-132461097D01*
X153926130Y-132509701D01*
X153801252Y-132522000D01*
X153717748Y-132522000D01*
X153592870Y-132509701D01*
X153432645Y-132461097D01*
X153284980Y-132382169D01*
X153155551Y-132275949D01*
X153049331Y-132146520D01*
X152970403Y-131998855D01*
X152921799Y-131838630D01*
X152905388Y-131672000D01*
X152921799Y-131505370D01*
X152970403Y-131345145D01*
X153049331Y-131197480D01*
X153155551Y-131068051D01*
X153284980Y-130961831D01*
X153432645Y-130882903D01*
X153592870Y-130834299D01*
X153717748Y-130822000D01*
X153801252Y-130822000D01*
X153926130Y-130834299D01*
X153926130Y-130834299D01*
G37*
G36*
X162752630Y-130834299D02*
X162912855Y-130882903D01*
X163060520Y-130961831D01*
X163189949Y-131068051D01*
X163296169Y-131197480D01*
X163375097Y-131345145D01*
X163423701Y-131505370D01*
X163440112Y-131672000D01*
X163423701Y-131838630D01*
X163375097Y-131998855D01*
X163296169Y-132146520D01*
X163189949Y-132275949D01*
X163060520Y-132382169D01*
X162912855Y-132461097D01*
X162752630Y-132509701D01*
X162627752Y-132522000D01*
X162544248Y-132522000D01*
X162419370Y-132509701D01*
X162259145Y-132461097D01*
X162111480Y-132382169D01*
X161982051Y-132275949D01*
X161875831Y-132146520D01*
X161796903Y-131998855D01*
X161748299Y-131838630D01*
X161731888Y-131672000D01*
X161748299Y-131505370D01*
X161796903Y-131345145D01*
X161875831Y-131197480D01*
X161982051Y-131068051D01*
X162111480Y-130961831D01*
X162259145Y-130882903D01*
X162419370Y-130834299D01*
X162544248Y-130822000D01*
X162627752Y-130822000D01*
X162752630Y-130834299D01*
X162752630Y-130834299D01*
G37*
G36*
X144972630Y-130834299D02*
X145132855Y-130882903D01*
X145280520Y-130961831D01*
X145409949Y-131068051D01*
X145516169Y-131197480D01*
X145595097Y-131345145D01*
X145643701Y-131505370D01*
X145660112Y-131672000D01*
X145643701Y-131838630D01*
X145595097Y-131998855D01*
X145516169Y-132146520D01*
X145409949Y-132275949D01*
X145280520Y-132382169D01*
X145132855Y-132461097D01*
X144972630Y-132509701D01*
X144847752Y-132522000D01*
X144764248Y-132522000D01*
X144639370Y-132509701D01*
X144479145Y-132461097D01*
X144331480Y-132382169D01*
X144202051Y-132275949D01*
X144095831Y-132146520D01*
X144016903Y-131998855D01*
X143968299Y-131838630D01*
X143951888Y-131672000D01*
X143968299Y-131505370D01*
X144016903Y-131345145D01*
X144095831Y-131197480D01*
X144202051Y-131068051D01*
X144331480Y-130961831D01*
X144479145Y-130882903D01*
X144639370Y-130834299D01*
X144764248Y-130822000D01*
X144847752Y-130822000D01*
X144972630Y-130834299D01*
X144972630Y-130834299D01*
G37*
G36*
X126684630Y-130834299D02*
X126844855Y-130882903D01*
X126992520Y-130961831D01*
X127121949Y-131068051D01*
X127228169Y-131197480D01*
X127307097Y-131345145D01*
X127355701Y-131505370D01*
X127372112Y-131672000D01*
X127355701Y-131838630D01*
X127307097Y-131998855D01*
X127228169Y-132146520D01*
X127121949Y-132275949D01*
X126992520Y-132382169D01*
X126844855Y-132461097D01*
X126684630Y-132509701D01*
X126559752Y-132522000D01*
X126476248Y-132522000D01*
X126351370Y-132509701D01*
X126191145Y-132461097D01*
X126043480Y-132382169D01*
X125914051Y-132275949D01*
X125807831Y-132146520D01*
X125728903Y-131998855D01*
X125680299Y-131838630D01*
X125663888Y-131672000D01*
X125680299Y-131505370D01*
X125728903Y-131345145D01*
X125807831Y-131197480D01*
X125914051Y-131068051D01*
X126043480Y-130961831D01*
X126191145Y-130882903D01*
X126351370Y-130834299D01*
X126476248Y-130822000D01*
X126559752Y-130822000D01*
X126684630Y-130834299D01*
X126684630Y-130834299D01*
G37*
G36*
X135828630Y-130580299D02*
X135988855Y-130628903D01*
X136136520Y-130707831D01*
X136265949Y-130814051D01*
X136372169Y-130943480D01*
X136451097Y-131091145D01*
X136499701Y-131251370D01*
X136516112Y-131418000D01*
X136499701Y-131584630D01*
X136451097Y-131744855D01*
X136372169Y-131892520D01*
X136265949Y-132021949D01*
X136136520Y-132128169D01*
X135988855Y-132207097D01*
X135828630Y-132255701D01*
X135703752Y-132268000D01*
X135620248Y-132268000D01*
X135495370Y-132255701D01*
X135335145Y-132207097D01*
X135187480Y-132128169D01*
X135058051Y-132021949D01*
X134951831Y-131892520D01*
X134872903Y-131744855D01*
X134824299Y-131584630D01*
X134807888Y-131418000D01*
X134824299Y-131251370D01*
X134872903Y-131091145D01*
X134951831Y-130943480D01*
X135058051Y-130814051D01*
X135187480Y-130707831D01*
X135335145Y-130628903D01*
X135495370Y-130580299D01*
X135620248Y-130568000D01*
X135703752Y-130568000D01*
X135828630Y-130580299D01*
X135828630Y-130580299D01*
G37*
G36*
X117540630Y-130580299D02*
X117700855Y-130628903D01*
X117848520Y-130707831D01*
X117977949Y-130814051D01*
X118084169Y-130943480D01*
X118163097Y-131091145D01*
X118211701Y-131251370D01*
X118228112Y-131418000D01*
X118211701Y-131584630D01*
X118163097Y-131744855D01*
X118084169Y-131892520D01*
X117977949Y-132021949D01*
X117848520Y-132128169D01*
X117700855Y-132207097D01*
X117540630Y-132255701D01*
X117415752Y-132268000D01*
X117332248Y-132268000D01*
X117207370Y-132255701D01*
X117047145Y-132207097D01*
X116899480Y-132128169D01*
X116770051Y-132021949D01*
X116663831Y-131892520D01*
X116584903Y-131744855D01*
X116536299Y-131584630D01*
X116519888Y-131418000D01*
X116536299Y-131251370D01*
X116584903Y-131091145D01*
X116663831Y-130943480D01*
X116770051Y-130814051D01*
X116899480Y-130707831D01*
X117047145Y-130628903D01*
X117207370Y-130580299D01*
X117332248Y-130568000D01*
X117415752Y-130568000D01*
X117540630Y-130580299D01*
X117540630Y-130580299D01*
G37*
G36*
X108396630Y-130072299D02*
X108556855Y-130120903D01*
X108704520Y-130199831D01*
X108833949Y-130306051D01*
X108940169Y-130435480D01*
X109019097Y-130583145D01*
X109067701Y-130743370D01*
X109084112Y-130910000D01*
X109067701Y-131076630D01*
X109019097Y-131236855D01*
X108940169Y-131384520D01*
X108833949Y-131513949D01*
X108704520Y-131620169D01*
X108556855Y-131699097D01*
X108396630Y-131747701D01*
X108271752Y-131760000D01*
X108188248Y-131760000D01*
X108063370Y-131747701D01*
X107903145Y-131699097D01*
X107755480Y-131620169D01*
X107626051Y-131513949D01*
X107519831Y-131384520D01*
X107440903Y-131236855D01*
X107392299Y-131076630D01*
X107375888Y-130910000D01*
X107392299Y-130743370D01*
X107440903Y-130583145D01*
X107519831Y-130435480D01*
X107626051Y-130306051D01*
X107755480Y-130199831D01*
X107903145Y-130120903D01*
X108063370Y-130072299D01*
X108188248Y-130060000D01*
X108271752Y-130060000D01*
X108396630Y-130072299D01*
X108396630Y-130072299D01*
G37*
G36*
X126684630Y-128294299D02*
X126844855Y-128342903D01*
X126992520Y-128421831D01*
X127121949Y-128528051D01*
X127228169Y-128657480D01*
X127307097Y-128805145D01*
X127355701Y-128965370D01*
X127372112Y-129132000D01*
X127355701Y-129298630D01*
X127307097Y-129458855D01*
X127228169Y-129606520D01*
X127121949Y-129735949D01*
X126992520Y-129842169D01*
X126844855Y-129921097D01*
X126684630Y-129969701D01*
X126559752Y-129982000D01*
X126476248Y-129982000D01*
X126351370Y-129969701D01*
X126191145Y-129921097D01*
X126043480Y-129842169D01*
X125914051Y-129735949D01*
X125807831Y-129606520D01*
X125728903Y-129458855D01*
X125680299Y-129298630D01*
X125663888Y-129132000D01*
X125680299Y-128965370D01*
X125728903Y-128805145D01*
X125807831Y-128657480D01*
X125914051Y-128528051D01*
X126043480Y-128421831D01*
X126191145Y-128342903D01*
X126351370Y-128294299D01*
X126476248Y-128282000D01*
X126559752Y-128282000D01*
X126684630Y-128294299D01*
X126684630Y-128294299D01*
G37*
G36*
X162752630Y-128294299D02*
X162912855Y-128342903D01*
X163060520Y-128421831D01*
X163189949Y-128528051D01*
X163296169Y-128657480D01*
X163375097Y-128805145D01*
X163423701Y-128965370D01*
X163440112Y-129132000D01*
X163423701Y-129298630D01*
X163375097Y-129458855D01*
X163296169Y-129606520D01*
X163189949Y-129735949D01*
X163060520Y-129842169D01*
X162912855Y-129921097D01*
X162752630Y-129969701D01*
X162627752Y-129982000D01*
X162544248Y-129982000D01*
X162419370Y-129969701D01*
X162259145Y-129921097D01*
X162111480Y-129842169D01*
X161982051Y-129735949D01*
X161875831Y-129606520D01*
X161796903Y-129458855D01*
X161748299Y-129298630D01*
X161731888Y-129132000D01*
X161748299Y-128965370D01*
X161796903Y-128805145D01*
X161875831Y-128657480D01*
X161982051Y-128528051D01*
X162111480Y-128421831D01*
X162259145Y-128342903D01*
X162419370Y-128294299D01*
X162544248Y-128282000D01*
X162627752Y-128282000D01*
X162752630Y-128294299D01*
X162752630Y-128294299D01*
G37*
G36*
X144972630Y-128294299D02*
X145132855Y-128342903D01*
X145280520Y-128421831D01*
X145409949Y-128528051D01*
X145516169Y-128657480D01*
X145595097Y-128805145D01*
X145643701Y-128965370D01*
X145660112Y-129132000D01*
X145643701Y-129298630D01*
X145595097Y-129458855D01*
X145516169Y-129606520D01*
X145409949Y-129735949D01*
X145280520Y-129842169D01*
X145132855Y-129921097D01*
X144972630Y-129969701D01*
X144847752Y-129982000D01*
X144764248Y-129982000D01*
X144639370Y-129969701D01*
X144479145Y-129921097D01*
X144331480Y-129842169D01*
X144202051Y-129735949D01*
X144095831Y-129606520D01*
X144016903Y-129458855D01*
X143968299Y-129298630D01*
X143951888Y-129132000D01*
X143968299Y-128965370D01*
X144016903Y-128805145D01*
X144095831Y-128657480D01*
X144202051Y-128528051D01*
X144331480Y-128421831D01*
X144479145Y-128342903D01*
X144639370Y-128294299D01*
X144764248Y-128282000D01*
X144847752Y-128282000D01*
X144972630Y-128294299D01*
X144972630Y-128294299D01*
G37*
G36*
X153926130Y-128294299D02*
X154086355Y-128342903D01*
X154234020Y-128421831D01*
X154363449Y-128528051D01*
X154469669Y-128657480D01*
X154548597Y-128805145D01*
X154597201Y-128965370D01*
X154613612Y-129132000D01*
X154597201Y-129298630D01*
X154548597Y-129458855D01*
X154469669Y-129606520D01*
X154363449Y-129735949D01*
X154234020Y-129842169D01*
X154086355Y-129921097D01*
X153926130Y-129969701D01*
X153801252Y-129982000D01*
X153717748Y-129982000D01*
X153592870Y-129969701D01*
X153432645Y-129921097D01*
X153284980Y-129842169D01*
X153155551Y-129735949D01*
X153049331Y-129606520D01*
X152970403Y-129458855D01*
X152921799Y-129298630D01*
X152905388Y-129132000D01*
X152921799Y-128965370D01*
X152970403Y-128805145D01*
X153049331Y-128657480D01*
X153155551Y-128528051D01*
X153284980Y-128421831D01*
X153432645Y-128342903D01*
X153592870Y-128294299D01*
X153717748Y-128282000D01*
X153801252Y-128282000D01*
X153926130Y-128294299D01*
X153926130Y-128294299D01*
G37*
G36*
X117540630Y-128040299D02*
X117700855Y-128088903D01*
X117848520Y-128167831D01*
X117977949Y-128274051D01*
X118084169Y-128403480D01*
X118163097Y-128551145D01*
X118211701Y-128711370D01*
X118228112Y-128878000D01*
X118211701Y-129044630D01*
X118163097Y-129204855D01*
X118084169Y-129352520D01*
X117977949Y-129481949D01*
X117848520Y-129588169D01*
X117700855Y-129667097D01*
X117540630Y-129715701D01*
X117415752Y-129728000D01*
X117332248Y-129728000D01*
X117207370Y-129715701D01*
X117047145Y-129667097D01*
X116899480Y-129588169D01*
X116770051Y-129481949D01*
X116663831Y-129352520D01*
X116584903Y-129204855D01*
X116536299Y-129044630D01*
X116519888Y-128878000D01*
X116536299Y-128711370D01*
X116584903Y-128551145D01*
X116663831Y-128403480D01*
X116770051Y-128274051D01*
X116899480Y-128167831D01*
X117047145Y-128088903D01*
X117207370Y-128040299D01*
X117332248Y-128028000D01*
X117415752Y-128028000D01*
X117540630Y-128040299D01*
X117540630Y-128040299D01*
G37*
G36*
X135828630Y-128040299D02*
X135988855Y-128088903D01*
X136136520Y-128167831D01*
X136265949Y-128274051D01*
X136372169Y-128403480D01*
X136451097Y-128551145D01*
X136499701Y-128711370D01*
X136516112Y-128878000D01*
X136499701Y-129044630D01*
X136451097Y-129204855D01*
X136372169Y-129352520D01*
X136265949Y-129481949D01*
X136136520Y-129588169D01*
X135988855Y-129667097D01*
X135828630Y-129715701D01*
X135703752Y-129728000D01*
X135620248Y-129728000D01*
X135495370Y-129715701D01*
X135335145Y-129667097D01*
X135187480Y-129588169D01*
X135058051Y-129481949D01*
X134951831Y-129352520D01*
X134872903Y-129204855D01*
X134824299Y-129044630D01*
X134807888Y-128878000D01*
X134824299Y-128711370D01*
X134872903Y-128551145D01*
X134951831Y-128403480D01*
X135058051Y-128274051D01*
X135187480Y-128167831D01*
X135335145Y-128088903D01*
X135495370Y-128040299D01*
X135620248Y-128028000D01*
X135703752Y-128028000D01*
X135828630Y-128040299D01*
X135828630Y-128040299D01*
G37*
G36*
X108396630Y-127532299D02*
X108556855Y-127580903D01*
X108704520Y-127659831D01*
X108833949Y-127766051D01*
X108940169Y-127895480D01*
X109019097Y-128043145D01*
X109067701Y-128203370D01*
X109084112Y-128370000D01*
X109067701Y-128536630D01*
X109019097Y-128696855D01*
X108940169Y-128844520D01*
X108833949Y-128973949D01*
X108704520Y-129080169D01*
X108556855Y-129159097D01*
X108396630Y-129207701D01*
X108271752Y-129220000D01*
X108188248Y-129220000D01*
X108063370Y-129207701D01*
X107903145Y-129159097D01*
X107755480Y-129080169D01*
X107626051Y-128973949D01*
X107519831Y-128844520D01*
X107440903Y-128696855D01*
X107392299Y-128536630D01*
X107375888Y-128370000D01*
X107392299Y-128203370D01*
X107440903Y-128043145D01*
X107519831Y-127895480D01*
X107626051Y-127766051D01*
X107755480Y-127659831D01*
X107903145Y-127580903D01*
X108063370Y-127532299D01*
X108188248Y-127520000D01*
X108271752Y-127520000D01*
X108396630Y-127532299D01*
X108396630Y-127532299D01*
G37*
G36*
X176136000Y-128458000D02*
X174436000Y-128458000D01*
X174436000Y-126758000D01*
X176136000Y-126758000D01*
X176136000Y-128458000D01*
X176136000Y-128458000D01*
G37*
G36*
X162752630Y-125754299D02*
X162912855Y-125802903D01*
X163060520Y-125881831D01*
X163189949Y-125988051D01*
X163296169Y-126117480D01*
X163375097Y-126265145D01*
X163423701Y-126425370D01*
X163440112Y-126592000D01*
X163423701Y-126758630D01*
X163375097Y-126918855D01*
X163296169Y-127066520D01*
X163189949Y-127195949D01*
X163060520Y-127302169D01*
X162912855Y-127381097D01*
X162752630Y-127429701D01*
X162627752Y-127442000D01*
X162544248Y-127442000D01*
X162419370Y-127429701D01*
X162259145Y-127381097D01*
X162111480Y-127302169D01*
X161982051Y-127195949D01*
X161875831Y-127066520D01*
X161796903Y-126918855D01*
X161748299Y-126758630D01*
X161731888Y-126592000D01*
X161748299Y-126425370D01*
X161796903Y-126265145D01*
X161875831Y-126117480D01*
X161982051Y-125988051D01*
X162111480Y-125881831D01*
X162259145Y-125802903D01*
X162419370Y-125754299D01*
X162544248Y-125742000D01*
X162627752Y-125742000D01*
X162752630Y-125754299D01*
X162752630Y-125754299D01*
G37*
G36*
X126684630Y-125754299D02*
X126844855Y-125802903D01*
X126992520Y-125881831D01*
X127121949Y-125988051D01*
X127228169Y-126117480D01*
X127307097Y-126265145D01*
X127355701Y-126425370D01*
X127372112Y-126592000D01*
X127355701Y-126758630D01*
X127307097Y-126918855D01*
X127228169Y-127066520D01*
X127121949Y-127195949D01*
X126992520Y-127302169D01*
X126844855Y-127381097D01*
X126684630Y-127429701D01*
X126559752Y-127442000D01*
X126476248Y-127442000D01*
X126351370Y-127429701D01*
X126191145Y-127381097D01*
X126043480Y-127302169D01*
X125914051Y-127195949D01*
X125807831Y-127066520D01*
X125728903Y-126918855D01*
X125680299Y-126758630D01*
X125663888Y-126592000D01*
X125680299Y-126425370D01*
X125728903Y-126265145D01*
X125807831Y-126117480D01*
X125914051Y-125988051D01*
X126043480Y-125881831D01*
X126191145Y-125802903D01*
X126351370Y-125754299D01*
X126476248Y-125742000D01*
X126559752Y-125742000D01*
X126684630Y-125754299D01*
X126684630Y-125754299D01*
G37*
G36*
X153926130Y-125754299D02*
X154086355Y-125802903D01*
X154234020Y-125881831D01*
X154363449Y-125988051D01*
X154469669Y-126117480D01*
X154548597Y-126265145D01*
X154597201Y-126425370D01*
X154613612Y-126592000D01*
X154597201Y-126758630D01*
X154548597Y-126918855D01*
X154469669Y-127066520D01*
X154363449Y-127195949D01*
X154234020Y-127302169D01*
X154086355Y-127381097D01*
X153926130Y-127429701D01*
X153801252Y-127442000D01*
X153717748Y-127442000D01*
X153592870Y-127429701D01*
X153432645Y-127381097D01*
X153284980Y-127302169D01*
X153155551Y-127195949D01*
X153049331Y-127066520D01*
X152970403Y-126918855D01*
X152921799Y-126758630D01*
X152905388Y-126592000D01*
X152921799Y-126425370D01*
X152970403Y-126265145D01*
X153049331Y-126117480D01*
X153155551Y-125988051D01*
X153284980Y-125881831D01*
X153432645Y-125802903D01*
X153592870Y-125754299D01*
X153717748Y-125742000D01*
X153801252Y-125742000D01*
X153926130Y-125754299D01*
X153926130Y-125754299D01*
G37*
G36*
X144972630Y-125754299D02*
X145132855Y-125802903D01*
X145280520Y-125881831D01*
X145409949Y-125988051D01*
X145516169Y-126117480D01*
X145595097Y-126265145D01*
X145643701Y-126425370D01*
X145660112Y-126592000D01*
X145643701Y-126758630D01*
X145595097Y-126918855D01*
X145516169Y-127066520D01*
X145409949Y-127195949D01*
X145280520Y-127302169D01*
X145132855Y-127381097D01*
X144972630Y-127429701D01*
X144847752Y-127442000D01*
X144764248Y-127442000D01*
X144639370Y-127429701D01*
X144479145Y-127381097D01*
X144331480Y-127302169D01*
X144202051Y-127195949D01*
X144095831Y-127066520D01*
X144016903Y-126918855D01*
X143968299Y-126758630D01*
X143951888Y-126592000D01*
X143968299Y-126425370D01*
X144016903Y-126265145D01*
X144095831Y-126117480D01*
X144202051Y-125988051D01*
X144331480Y-125881831D01*
X144479145Y-125802903D01*
X144639370Y-125754299D01*
X144764248Y-125742000D01*
X144847752Y-125742000D01*
X144972630Y-125754299D01*
X144972630Y-125754299D01*
G37*
G36*
X135828630Y-125500299D02*
X135988855Y-125548903D01*
X136136520Y-125627831D01*
X136265949Y-125734051D01*
X136372169Y-125863480D01*
X136451097Y-126011145D01*
X136499701Y-126171370D01*
X136516112Y-126338000D01*
X136499701Y-126504630D01*
X136451097Y-126664855D01*
X136372169Y-126812520D01*
X136265949Y-126941949D01*
X136136520Y-127048169D01*
X135988855Y-127127097D01*
X135828630Y-127175701D01*
X135703752Y-127188000D01*
X135620248Y-127188000D01*
X135495370Y-127175701D01*
X135335145Y-127127097D01*
X135187480Y-127048169D01*
X135058051Y-126941949D01*
X134951831Y-126812520D01*
X134872903Y-126664855D01*
X134824299Y-126504630D01*
X134807888Y-126338000D01*
X134824299Y-126171370D01*
X134872903Y-126011145D01*
X134951831Y-125863480D01*
X135058051Y-125734051D01*
X135187480Y-125627831D01*
X135335145Y-125548903D01*
X135495370Y-125500299D01*
X135620248Y-125488000D01*
X135703752Y-125488000D01*
X135828630Y-125500299D01*
X135828630Y-125500299D01*
G37*
G36*
X117540630Y-125500299D02*
X117700855Y-125548903D01*
X117848520Y-125627831D01*
X117977949Y-125734051D01*
X118084169Y-125863480D01*
X118163097Y-126011145D01*
X118211701Y-126171370D01*
X118228112Y-126338000D01*
X118211701Y-126504630D01*
X118163097Y-126664855D01*
X118084169Y-126812520D01*
X117977949Y-126941949D01*
X117848520Y-127048169D01*
X117700855Y-127127097D01*
X117540630Y-127175701D01*
X117415752Y-127188000D01*
X117332248Y-127188000D01*
X117207370Y-127175701D01*
X117047145Y-127127097D01*
X116899480Y-127048169D01*
X116770051Y-126941949D01*
X116663831Y-126812520D01*
X116584903Y-126664855D01*
X116536299Y-126504630D01*
X116519888Y-126338000D01*
X116536299Y-126171370D01*
X116584903Y-126011145D01*
X116663831Y-125863480D01*
X116770051Y-125734051D01*
X116899480Y-125627831D01*
X117047145Y-125548903D01*
X117207370Y-125500299D01*
X117332248Y-125488000D01*
X117415752Y-125488000D01*
X117540630Y-125500299D01*
X117540630Y-125500299D01*
G37*
G36*
X172576000Y-127184000D02*
X170376000Y-127184000D01*
X170376000Y-124984000D01*
X172576000Y-124984000D01*
X172576000Y-127184000D01*
X172576000Y-127184000D01*
G37*
G36*
X175452630Y-124230299D02*
X175612855Y-124278903D01*
X175760520Y-124357831D01*
X175889949Y-124464051D01*
X175996169Y-124593480D01*
X176075097Y-124741145D01*
X176123701Y-124901370D01*
X176140112Y-125068000D01*
X176123701Y-125234630D01*
X176075097Y-125394855D01*
X175996169Y-125542520D01*
X175889949Y-125671949D01*
X175760520Y-125778169D01*
X175612855Y-125857097D01*
X175452630Y-125905701D01*
X175327752Y-125918000D01*
X175244248Y-125918000D01*
X175119370Y-125905701D01*
X174959145Y-125857097D01*
X174811480Y-125778169D01*
X174682051Y-125671949D01*
X174575831Y-125542520D01*
X174496903Y-125394855D01*
X174448299Y-125234630D01*
X174431888Y-125068000D01*
X174448299Y-124901370D01*
X174496903Y-124741145D01*
X174575831Y-124593480D01*
X174682051Y-124464051D01*
X174811480Y-124357831D01*
X174959145Y-124278903D01*
X175119370Y-124230299D01*
X175244248Y-124218000D01*
X175327752Y-124218000D01*
X175452630Y-124230299D01*
X175452630Y-124230299D01*
G37*
G36*
X126684630Y-123214299D02*
X126844855Y-123262903D01*
X126992520Y-123341831D01*
X127121949Y-123448051D01*
X127228169Y-123577480D01*
X127307097Y-123725145D01*
X127355701Y-123885370D01*
X127372112Y-124052000D01*
X127355701Y-124218630D01*
X127307097Y-124378855D01*
X127228169Y-124526520D01*
X127121949Y-124655949D01*
X126992520Y-124762169D01*
X126844855Y-124841097D01*
X126684630Y-124889701D01*
X126559752Y-124902000D01*
X126476248Y-124902000D01*
X126351370Y-124889701D01*
X126191145Y-124841097D01*
X126043480Y-124762169D01*
X125914051Y-124655949D01*
X125807831Y-124526520D01*
X125728903Y-124378855D01*
X125680299Y-124218630D01*
X125663888Y-124052000D01*
X125680299Y-123885370D01*
X125728903Y-123725145D01*
X125807831Y-123577480D01*
X125914051Y-123448051D01*
X126043480Y-123341831D01*
X126191145Y-123262903D01*
X126351370Y-123214299D01*
X126476248Y-123202000D01*
X126559752Y-123202000D01*
X126684630Y-123214299D01*
X126684630Y-123214299D01*
G37*
G36*
X162752630Y-123214299D02*
X162912855Y-123262903D01*
X163060520Y-123341831D01*
X163189949Y-123448051D01*
X163296169Y-123577480D01*
X163375097Y-123725145D01*
X163423701Y-123885370D01*
X163440112Y-124052000D01*
X163423701Y-124218630D01*
X163375097Y-124378855D01*
X163296169Y-124526520D01*
X163189949Y-124655949D01*
X163060520Y-124762169D01*
X162912855Y-124841097D01*
X162752630Y-124889701D01*
X162627752Y-124902000D01*
X162544248Y-124902000D01*
X162419370Y-124889701D01*
X162259145Y-124841097D01*
X162111480Y-124762169D01*
X161982051Y-124655949D01*
X161875831Y-124526520D01*
X161796903Y-124378855D01*
X161748299Y-124218630D01*
X161731888Y-124052000D01*
X161748299Y-123885370D01*
X161796903Y-123725145D01*
X161875831Y-123577480D01*
X161982051Y-123448051D01*
X162111480Y-123341831D01*
X162259145Y-123262903D01*
X162419370Y-123214299D01*
X162544248Y-123202000D01*
X162627752Y-123202000D01*
X162752630Y-123214299D01*
X162752630Y-123214299D01*
G37*
G36*
X153926130Y-123214299D02*
X154086355Y-123262903D01*
X154234020Y-123341831D01*
X154363449Y-123448051D01*
X154469669Y-123577480D01*
X154548597Y-123725145D01*
X154597201Y-123885370D01*
X154613612Y-124052000D01*
X154597201Y-124218630D01*
X154548597Y-124378855D01*
X154469669Y-124526520D01*
X154363449Y-124655949D01*
X154234020Y-124762169D01*
X154086355Y-124841097D01*
X153926130Y-124889701D01*
X153801252Y-124902000D01*
X153717748Y-124902000D01*
X153592870Y-124889701D01*
X153432645Y-124841097D01*
X153284980Y-124762169D01*
X153155551Y-124655949D01*
X153049331Y-124526520D01*
X152970403Y-124378855D01*
X152921799Y-124218630D01*
X152905388Y-124052000D01*
X152921799Y-123885370D01*
X152970403Y-123725145D01*
X153049331Y-123577480D01*
X153155551Y-123448051D01*
X153284980Y-123341831D01*
X153432645Y-123262903D01*
X153592870Y-123214299D01*
X153717748Y-123202000D01*
X153801252Y-123202000D01*
X153926130Y-123214299D01*
X153926130Y-123214299D01*
G37*
G36*
X144972630Y-123214299D02*
X145132855Y-123262903D01*
X145280520Y-123341831D01*
X145409949Y-123448051D01*
X145516169Y-123577480D01*
X145595097Y-123725145D01*
X145643701Y-123885370D01*
X145660112Y-124052000D01*
X145643701Y-124218630D01*
X145595097Y-124378855D01*
X145516169Y-124526520D01*
X145409949Y-124655949D01*
X145280520Y-124762169D01*
X145132855Y-124841097D01*
X144972630Y-124889701D01*
X144847752Y-124902000D01*
X144764248Y-124902000D01*
X144639370Y-124889701D01*
X144479145Y-124841097D01*
X144331480Y-124762169D01*
X144202051Y-124655949D01*
X144095831Y-124526520D01*
X144016903Y-124378855D01*
X143968299Y-124218630D01*
X143951888Y-124052000D01*
X143968299Y-123885370D01*
X144016903Y-123725145D01*
X144095831Y-123577480D01*
X144202051Y-123448051D01*
X144331480Y-123341831D01*
X144479145Y-123262903D01*
X144639370Y-123214299D01*
X144764248Y-123202000D01*
X144847752Y-123202000D01*
X144972630Y-123214299D01*
X144972630Y-123214299D01*
G37*
G36*
X135828630Y-122960299D02*
X135988855Y-123008903D01*
X136136520Y-123087831D01*
X136265949Y-123194051D01*
X136372169Y-123323480D01*
X136451097Y-123471145D01*
X136499701Y-123631370D01*
X136516112Y-123798000D01*
X136499701Y-123964630D01*
X136451097Y-124124855D01*
X136372169Y-124272520D01*
X136265949Y-124401949D01*
X136136520Y-124508169D01*
X135988855Y-124587097D01*
X135828630Y-124635701D01*
X135703752Y-124648000D01*
X135620248Y-124648000D01*
X135495370Y-124635701D01*
X135335145Y-124587097D01*
X135187480Y-124508169D01*
X135058051Y-124401949D01*
X134951831Y-124272520D01*
X134872903Y-124124855D01*
X134824299Y-123964630D01*
X134807888Y-123798000D01*
X134824299Y-123631370D01*
X134872903Y-123471145D01*
X134951831Y-123323480D01*
X135058051Y-123194051D01*
X135187480Y-123087831D01*
X135335145Y-123008903D01*
X135495370Y-122960299D01*
X135620248Y-122948000D01*
X135703752Y-122948000D01*
X135828630Y-122960299D01*
X135828630Y-122960299D01*
G37*
G36*
X117540630Y-122960299D02*
X117700855Y-123008903D01*
X117848520Y-123087831D01*
X117977949Y-123194051D01*
X118084169Y-123323480D01*
X118163097Y-123471145D01*
X118211701Y-123631370D01*
X118228112Y-123798000D01*
X118211701Y-123964630D01*
X118163097Y-124124855D01*
X118084169Y-124272520D01*
X117977949Y-124401949D01*
X117848520Y-124508169D01*
X117700855Y-124587097D01*
X117540630Y-124635701D01*
X117415752Y-124648000D01*
X117332248Y-124648000D01*
X117207370Y-124635701D01*
X117047145Y-124587097D01*
X116899480Y-124508169D01*
X116770051Y-124401949D01*
X116663831Y-124272520D01*
X116584903Y-124124855D01*
X116536299Y-123964630D01*
X116519888Y-123798000D01*
X116536299Y-123631370D01*
X116584903Y-123471145D01*
X116663831Y-123323480D01*
X116770051Y-123194051D01*
X116899480Y-123087831D01*
X117047145Y-123008903D01*
X117207370Y-122960299D01*
X117332248Y-122948000D01*
X117415752Y-122948000D01*
X117540630Y-122960299D01*
X117540630Y-122960299D01*
G37*
G36*
X175452630Y-121690299D02*
X175612855Y-121738903D01*
X175760520Y-121817831D01*
X175889949Y-121924051D01*
X175996169Y-122053480D01*
X176075097Y-122201145D01*
X176123701Y-122361370D01*
X176140112Y-122528000D01*
X176123701Y-122694630D01*
X176075097Y-122854855D01*
X175996169Y-123002520D01*
X175889949Y-123131949D01*
X175760520Y-123238169D01*
X175612855Y-123317097D01*
X175452630Y-123365701D01*
X175327752Y-123378000D01*
X175244248Y-123378000D01*
X175119370Y-123365701D01*
X174959145Y-123317097D01*
X174811480Y-123238169D01*
X174682051Y-123131949D01*
X174575831Y-123002520D01*
X174496903Y-122854855D01*
X174448299Y-122694630D01*
X174431888Y-122528000D01*
X174448299Y-122361370D01*
X174496903Y-122201145D01*
X174575831Y-122053480D01*
X174682051Y-121924051D01*
X174811480Y-121817831D01*
X174959145Y-121738903D01*
X175119370Y-121690299D01*
X175244248Y-121678000D01*
X175327752Y-121678000D01*
X175452630Y-121690299D01*
X175452630Y-121690299D01*
G37*
G36*
X171691639Y-121189916D02*
X171898986Y-121252815D01*
X171898988Y-121252816D01*
X172090084Y-121354958D01*
X172257581Y-121492419D01*
X172395042Y-121659916D01*
X172479449Y-121817832D01*
X172497185Y-121851014D01*
X172560084Y-122058361D01*
X172581322Y-122274000D01*
X172560084Y-122489639D01*
X172497900Y-122694630D01*
X172497184Y-122696988D01*
X172395042Y-122888084D01*
X172257581Y-123055581D01*
X172090084Y-123193042D01*
X171898988Y-123295184D01*
X171898986Y-123295185D01*
X171691639Y-123358084D01*
X171530038Y-123374000D01*
X171421962Y-123374000D01*
X171260361Y-123358084D01*
X171053014Y-123295185D01*
X171053012Y-123295184D01*
X170861916Y-123193042D01*
X170694419Y-123055581D01*
X170556958Y-122888084D01*
X170454816Y-122696988D01*
X170454101Y-122694630D01*
X170391916Y-122489639D01*
X170370678Y-122274000D01*
X170391916Y-122058361D01*
X170454815Y-121851014D01*
X170472551Y-121817832D01*
X170556958Y-121659916D01*
X170694419Y-121492419D01*
X170861916Y-121354958D01*
X171053012Y-121252816D01*
X171053014Y-121252815D01*
X171260361Y-121189916D01*
X171421962Y-121174000D01*
X171530038Y-121174000D01*
X171691639Y-121189916D01*
X171691639Y-121189916D01*
G37*
G36*
X163436000Y-122362000D02*
X161736000Y-122362000D01*
X161736000Y-120662000D01*
X163436000Y-120662000D01*
X163436000Y-122362000D01*
X163436000Y-122362000D01*
G37*
G36*
X127368000Y-122362000D02*
X125668000Y-122362000D01*
X125668000Y-120662000D01*
X127368000Y-120662000D01*
X127368000Y-122362000D01*
X127368000Y-122362000D01*
G37*
G36*
X145656000Y-122362000D02*
X143956000Y-122362000D01*
X143956000Y-120662000D01*
X145656000Y-120662000D01*
X145656000Y-122362000D01*
X145656000Y-122362000D01*
G37*
G36*
X154609500Y-122362000D02*
X152909500Y-122362000D01*
X152909500Y-120662000D01*
X154609500Y-120662000D01*
X154609500Y-122362000D01*
X154609500Y-122362000D01*
G37*
G36*
X118224000Y-122108000D02*
X116524000Y-122108000D01*
X116524000Y-120408000D01*
X118224000Y-120408000D01*
X118224000Y-122108000D01*
X118224000Y-122108000D01*
G37*
G36*
X136512000Y-122108000D02*
X134812000Y-122108000D01*
X134812000Y-120408000D01*
X136512000Y-120408000D01*
X136512000Y-122108000D01*
X136512000Y-122108000D01*
G37*
G36*
X175452630Y-119150299D02*
X175612855Y-119198903D01*
X175760520Y-119277831D01*
X175889949Y-119384051D01*
X175996169Y-119513480D01*
X176075097Y-119661145D01*
X176123701Y-119821370D01*
X176140112Y-119988000D01*
X176123701Y-120154630D01*
X176075097Y-120314855D01*
X175996169Y-120462520D01*
X175889949Y-120591949D01*
X175760520Y-120698169D01*
X175612855Y-120777097D01*
X175452630Y-120825701D01*
X175327752Y-120838000D01*
X175244248Y-120838000D01*
X175119370Y-120825701D01*
X174959145Y-120777097D01*
X174811480Y-120698169D01*
X174682051Y-120591949D01*
X174575831Y-120462520D01*
X174496903Y-120314855D01*
X174448299Y-120154630D01*
X174431888Y-119988000D01*
X174448299Y-119821370D01*
X174496903Y-119661145D01*
X174575831Y-119513480D01*
X174682051Y-119384051D01*
X174811480Y-119277831D01*
X174959145Y-119198903D01*
X175119370Y-119150299D01*
X175244248Y-119138000D01*
X175327752Y-119138000D01*
X175452630Y-119150299D01*
X175452630Y-119150299D01*
G37*
G36*
X171709352Y-117694743D02*
X171854941Y-117755048D01*
X171985973Y-117842601D01*
X172097399Y-117954027D01*
X172184952Y-118085059D01*
X172245257Y-118230648D01*
X172276000Y-118385205D01*
X172276000Y-118542795D01*
X172245257Y-118697352D01*
X172184952Y-118842941D01*
X172097399Y-118973973D01*
X171985973Y-119085399D01*
X171854941Y-119172952D01*
X171709352Y-119233257D01*
X171554795Y-119264000D01*
X171397205Y-119264000D01*
X171242648Y-119233257D01*
X171097059Y-119172952D01*
X170966027Y-119085399D01*
X170854601Y-118973973D01*
X170767048Y-118842941D01*
X170706743Y-118697352D01*
X170676000Y-118542795D01*
X170676000Y-118385205D01*
X170706743Y-118230648D01*
X170767048Y-118085059D01*
X170854601Y-117954027D01*
X170966027Y-117842601D01*
X171097059Y-117755048D01*
X171242648Y-117694743D01*
X171397205Y-117664000D01*
X171554795Y-117664000D01*
X171709352Y-117694743D01*
X171709352Y-117694743D01*
G37*
G36*
X175452630Y-116610299D02*
X175612855Y-116658903D01*
X175760520Y-116737831D01*
X175889949Y-116844051D01*
X175996169Y-116973480D01*
X176075097Y-117121145D01*
X176123701Y-117281370D01*
X176140112Y-117448000D01*
X176123701Y-117614630D01*
X176075097Y-117774855D01*
X175996169Y-117922520D01*
X175889949Y-118051949D01*
X175760520Y-118158169D01*
X175612855Y-118237097D01*
X175452630Y-118285701D01*
X175327752Y-118298000D01*
X175244248Y-118298000D01*
X175119370Y-118285701D01*
X174959145Y-118237097D01*
X174811480Y-118158169D01*
X174682051Y-118051949D01*
X174575831Y-117922520D01*
X174496903Y-117774855D01*
X174448299Y-117614630D01*
X174431888Y-117448000D01*
X174448299Y-117281370D01*
X174496903Y-117121145D01*
X174575831Y-116973480D01*
X174682051Y-116844051D01*
X174811480Y-116737831D01*
X174959145Y-116658903D01*
X175119370Y-116610299D01*
X175244248Y-116598000D01*
X175327752Y-116598000D01*
X175452630Y-116610299D01*
X175452630Y-116610299D01*
G37*
G36*
X175452630Y-114070299D02*
X175612855Y-114118903D01*
X175760520Y-114197831D01*
X175889949Y-114304051D01*
X175996169Y-114433480D01*
X176075097Y-114581145D01*
X176123701Y-114741370D01*
X176140112Y-114908000D01*
X176123701Y-115074630D01*
X176075097Y-115234855D01*
X175996169Y-115382520D01*
X175889949Y-115511949D01*
X175760520Y-115618169D01*
X175612855Y-115697097D01*
X175452630Y-115745701D01*
X175327752Y-115758000D01*
X175244248Y-115758000D01*
X175119370Y-115745701D01*
X174959145Y-115697097D01*
X174811480Y-115618169D01*
X174682051Y-115511949D01*
X174575831Y-115382520D01*
X174496903Y-115234855D01*
X174448299Y-115074630D01*
X174431888Y-114908000D01*
X174448299Y-114741370D01*
X174496903Y-114581145D01*
X174575831Y-114433480D01*
X174682051Y-114304051D01*
X174811480Y-114197831D01*
X174959145Y-114118903D01*
X175119370Y-114070299D01*
X175244248Y-114058000D01*
X175327752Y-114058000D01*
X175452630Y-114070299D01*
X175452630Y-114070299D01*
G37*
G36*
X171593649Y-112591717D02*
X171632827Y-112595576D01*
X171708228Y-112618449D01*
X171783629Y-112641321D01*
X171922608Y-112715608D01*
X172044422Y-112815578D01*
X172144392Y-112937392D01*
X172218679Y-113076371D01*
X172218679Y-113076372D01*
X172257911Y-113205701D01*
X172264424Y-113227174D01*
X172279870Y-113384000D01*
X172264424Y-113540826D01*
X172218679Y-113691629D01*
X172144392Y-113830608D01*
X172044422Y-113952422D01*
X171922608Y-114052392D01*
X171783629Y-114126679D01*
X171708228Y-114149551D01*
X171632827Y-114172424D01*
X171593649Y-114176283D01*
X171515295Y-114184000D01*
X171436705Y-114184000D01*
X171358351Y-114176283D01*
X171319173Y-114172424D01*
X171243773Y-114149552D01*
X171168371Y-114126679D01*
X171029392Y-114052392D01*
X170907578Y-113952422D01*
X170807608Y-113830608D01*
X170733321Y-113691629D01*
X170687576Y-113540826D01*
X170672130Y-113384000D01*
X170687576Y-113227174D01*
X170694090Y-113205701D01*
X170733321Y-113076372D01*
X170733321Y-113076371D01*
X170807608Y-112937392D01*
X170907578Y-112815578D01*
X171029392Y-112715608D01*
X171168371Y-112641321D01*
X171243772Y-112618449D01*
X171319173Y-112595576D01*
X171358351Y-112591717D01*
X171436705Y-112584000D01*
X171515295Y-112584000D01*
X171593649Y-112591717D01*
X171593649Y-112591717D01*
G37*
G36*
X109158630Y-112292299D02*
X109318855Y-112340903D01*
X109466520Y-112419831D01*
X109595949Y-112526051D01*
X109702169Y-112655480D01*
X109781097Y-112803145D01*
X109829701Y-112963370D01*
X109846112Y-113130000D01*
X109829701Y-113296630D01*
X109781097Y-113456855D01*
X109702169Y-113604520D01*
X109595949Y-113733949D01*
X109466520Y-113840169D01*
X109318855Y-113919097D01*
X109158630Y-113967701D01*
X109033752Y-113980000D01*
X108950248Y-113980000D01*
X108825370Y-113967701D01*
X108665145Y-113919097D01*
X108517480Y-113840169D01*
X108388051Y-113733949D01*
X108281831Y-113604520D01*
X108202903Y-113456855D01*
X108154299Y-113296630D01*
X108137888Y-113130000D01*
X108154299Y-112963370D01*
X108202903Y-112803145D01*
X108281831Y-112655480D01*
X108388051Y-112526051D01*
X108517480Y-112419831D01*
X108665145Y-112340903D01*
X108825370Y-112292299D01*
X108950248Y-112280000D01*
X109033752Y-112280000D01*
X109158630Y-112292299D01*
X109158630Y-112292299D01*
G37*
G36*
X111698630Y-112292299D02*
X111858855Y-112340903D01*
X112006520Y-112419831D01*
X112135949Y-112526051D01*
X112242169Y-112655480D01*
X112321097Y-112803145D01*
X112369701Y-112963370D01*
X112386112Y-113130000D01*
X112369701Y-113296630D01*
X112321097Y-113456855D01*
X112242169Y-113604520D01*
X112135949Y-113733949D01*
X112006520Y-113840169D01*
X111858855Y-113919097D01*
X111698630Y-113967701D01*
X111573752Y-113980000D01*
X111490248Y-113980000D01*
X111365370Y-113967701D01*
X111205145Y-113919097D01*
X111057480Y-113840169D01*
X110928051Y-113733949D01*
X110821831Y-113604520D01*
X110742903Y-113456855D01*
X110694299Y-113296630D01*
X110677888Y-113130000D01*
X110694299Y-112963370D01*
X110742903Y-112803145D01*
X110821831Y-112655480D01*
X110928051Y-112526051D01*
X111057480Y-112419831D01*
X111205145Y-112340903D01*
X111365370Y-112292299D01*
X111490248Y-112280000D01*
X111573752Y-112280000D01*
X111698630Y-112292299D01*
X111698630Y-112292299D01*
G37*
G36*
X114238630Y-112292299D02*
X114398855Y-112340903D01*
X114546520Y-112419831D01*
X114675949Y-112526051D01*
X114782169Y-112655480D01*
X114861097Y-112803145D01*
X114909701Y-112963370D01*
X114926112Y-113130000D01*
X114909701Y-113296630D01*
X114861097Y-113456855D01*
X114782169Y-113604520D01*
X114675949Y-113733949D01*
X114546520Y-113840169D01*
X114398855Y-113919097D01*
X114238630Y-113967701D01*
X114113752Y-113980000D01*
X114030248Y-113980000D01*
X113905370Y-113967701D01*
X113745145Y-113919097D01*
X113597480Y-113840169D01*
X113468051Y-113733949D01*
X113361831Y-113604520D01*
X113282903Y-113456855D01*
X113234299Y-113296630D01*
X113217888Y-113130000D01*
X113234299Y-112963370D01*
X113282903Y-112803145D01*
X113361831Y-112655480D01*
X113468051Y-112526051D01*
X113597480Y-112419831D01*
X113745145Y-112340903D01*
X113905370Y-112292299D01*
X114030248Y-112280000D01*
X114113752Y-112280000D01*
X114238630Y-112292299D01*
X114238630Y-112292299D01*
G37*
G36*
X116778630Y-112292299D02*
X116938855Y-112340903D01*
X117086520Y-112419831D01*
X117215949Y-112526051D01*
X117322169Y-112655480D01*
X117401097Y-112803145D01*
X117449701Y-112963370D01*
X117466112Y-113130000D01*
X117449701Y-113296630D01*
X117401097Y-113456855D01*
X117322169Y-113604520D01*
X117215949Y-113733949D01*
X117086520Y-113840169D01*
X116938855Y-113919097D01*
X116778630Y-113967701D01*
X116653752Y-113980000D01*
X116570248Y-113980000D01*
X116445370Y-113967701D01*
X116285145Y-113919097D01*
X116137480Y-113840169D01*
X116008051Y-113733949D01*
X115901831Y-113604520D01*
X115822903Y-113456855D01*
X115774299Y-113296630D01*
X115757888Y-113130000D01*
X115774299Y-112963370D01*
X115822903Y-112803145D01*
X115901831Y-112655480D01*
X116008051Y-112526051D01*
X116137480Y-112419831D01*
X116285145Y-112340903D01*
X116445370Y-112292299D01*
X116570248Y-112280000D01*
X116653752Y-112280000D01*
X116778630Y-112292299D01*
X116778630Y-112292299D01*
G37*
G36*
X119318630Y-112292299D02*
X119478855Y-112340903D01*
X119626520Y-112419831D01*
X119755949Y-112526051D01*
X119862169Y-112655480D01*
X119941097Y-112803145D01*
X119989701Y-112963370D01*
X120006112Y-113130000D01*
X119989701Y-113296630D01*
X119941097Y-113456855D01*
X119862169Y-113604520D01*
X119755949Y-113733949D01*
X119626520Y-113840169D01*
X119478855Y-113919097D01*
X119318630Y-113967701D01*
X119193752Y-113980000D01*
X119110248Y-113980000D01*
X118985370Y-113967701D01*
X118825145Y-113919097D01*
X118677480Y-113840169D01*
X118548051Y-113733949D01*
X118441831Y-113604520D01*
X118362903Y-113456855D01*
X118314299Y-113296630D01*
X118297888Y-113130000D01*
X118314299Y-112963370D01*
X118362903Y-112803145D01*
X118441831Y-112655480D01*
X118548051Y-112526051D01*
X118677480Y-112419831D01*
X118825145Y-112340903D01*
X118985370Y-112292299D01*
X119110248Y-112280000D01*
X119193752Y-112280000D01*
X119318630Y-112292299D01*
X119318630Y-112292299D01*
G37*
G36*
X122542000Y-113980000D02*
X120842000Y-113980000D01*
X120842000Y-112280000D01*
X122542000Y-112280000D01*
X122542000Y-113980000D01*
X122542000Y-113980000D01*
G37*
G36*
X175452630Y-111530299D02*
X175612855Y-111578903D01*
X175760520Y-111657831D01*
X175889949Y-111764051D01*
X175996169Y-111893480D01*
X176075097Y-112041145D01*
X176123701Y-112201370D01*
X176140112Y-112368000D01*
X176123701Y-112534630D01*
X176075097Y-112694855D01*
X175996169Y-112842520D01*
X175889949Y-112971949D01*
X175760520Y-113078169D01*
X175612855Y-113157097D01*
X175452630Y-113205701D01*
X175327752Y-113218000D01*
X175244248Y-113218000D01*
X175119370Y-113205701D01*
X174959145Y-113157097D01*
X174811480Y-113078169D01*
X174682051Y-112971949D01*
X174575831Y-112842520D01*
X174496903Y-112694855D01*
X174448299Y-112534630D01*
X174431888Y-112368000D01*
X174448299Y-112201370D01*
X174496903Y-112041145D01*
X174575831Y-111893480D01*
X174682051Y-111764051D01*
X174811480Y-111657831D01*
X174959145Y-111578903D01*
X175119370Y-111530299D01*
X175244248Y-111518000D01*
X175327752Y-111518000D01*
X175452630Y-111530299D01*
X175452630Y-111530299D01*
G37*
G36*
X175452630Y-108990299D02*
X175612855Y-109038903D01*
X175760520Y-109117831D01*
X175889949Y-109224051D01*
X175996169Y-109353480D01*
X176075097Y-109501145D01*
X176123701Y-109661370D01*
X176140112Y-109828000D01*
X176123701Y-109994630D01*
X176075097Y-110154855D01*
X175996169Y-110302520D01*
X175889949Y-110431949D01*
X175760520Y-110538169D01*
X175612855Y-110617097D01*
X175452630Y-110665701D01*
X175327752Y-110678000D01*
X175244248Y-110678000D01*
X175119370Y-110665701D01*
X174959145Y-110617097D01*
X174811480Y-110538169D01*
X174682051Y-110431949D01*
X174575831Y-110302520D01*
X174496903Y-110154855D01*
X174448299Y-109994630D01*
X174431888Y-109828000D01*
X174448299Y-109661370D01*
X174496903Y-109501145D01*
X174575831Y-109353480D01*
X174682051Y-109224051D01*
X174811480Y-109117831D01*
X174959145Y-109038903D01*
X175119370Y-108990299D01*
X175244248Y-108978000D01*
X175327752Y-108978000D01*
X175452630Y-108990299D01*
X175452630Y-108990299D01*
G37*
G36*
X175452630Y-106450299D02*
X175612855Y-106498903D01*
X175760520Y-106577831D01*
X175889949Y-106684051D01*
X175996169Y-106813480D01*
X176075097Y-106961145D01*
X176123701Y-107121370D01*
X176140112Y-107288000D01*
X176123701Y-107454630D01*
X176075097Y-107614855D01*
X175996169Y-107762520D01*
X175889949Y-107891949D01*
X175760520Y-107998169D01*
X175612855Y-108077097D01*
X175452630Y-108125701D01*
X175327752Y-108138000D01*
X175244248Y-108138000D01*
X175119370Y-108125701D01*
X174959145Y-108077097D01*
X174811480Y-107998169D01*
X174682051Y-107891949D01*
X174575831Y-107762520D01*
X174496903Y-107614855D01*
X174448299Y-107454630D01*
X174431888Y-107288000D01*
X174448299Y-107121370D01*
X174496903Y-106961145D01*
X174575831Y-106813480D01*
X174682051Y-106684051D01*
X174811480Y-106577831D01*
X174959145Y-106498903D01*
X175119370Y-106450299D01*
X175244248Y-106438000D01*
X175327752Y-106438000D01*
X175452630Y-106450299D01*
X175452630Y-106450299D01*
G37*
G36*
X153018000Y-108007000D02*
X150818000Y-108007000D01*
X150818000Y-105807000D01*
X153018000Y-105807000D01*
X153018000Y-108007000D01*
X153018000Y-108007000D01*
G37*
G36*
X155943639Y-105822916D02*
X156150986Y-105885815D01*
X156150988Y-105885816D01*
X156342084Y-105987958D01*
X156509581Y-106125419D01*
X156647042Y-106292916D01*
X156749184Y-106484012D01*
X156749185Y-106484014D01*
X156812084Y-106691361D01*
X156833322Y-106907000D01*
X156812084Y-107122639D01*
X156761922Y-107288000D01*
X156749184Y-107329988D01*
X156647042Y-107521084D01*
X156509581Y-107688581D01*
X156342084Y-107826042D01*
X156150988Y-107928184D01*
X156150986Y-107928185D01*
X155943639Y-107991084D01*
X155782038Y-108007000D01*
X155673962Y-108007000D01*
X155512361Y-107991084D01*
X155305014Y-107928185D01*
X155305012Y-107928184D01*
X155113916Y-107826042D01*
X154946419Y-107688581D01*
X154808958Y-107521084D01*
X154706816Y-107329988D01*
X154694079Y-107288000D01*
X154643916Y-107122639D01*
X154622678Y-106907000D01*
X154643916Y-106691361D01*
X154706815Y-106484014D01*
X154706816Y-106484012D01*
X154808958Y-106292916D01*
X154946419Y-106125419D01*
X155113916Y-105987958D01*
X155305012Y-105885816D01*
X155305014Y-105885815D01*
X155512361Y-105822916D01*
X155673962Y-105807000D01*
X155782038Y-105807000D01*
X155943639Y-105822916D01*
X155943639Y-105822916D01*
G37*
G36*
X133083639Y-105695916D02*
X133290986Y-105758815D01*
X133290988Y-105758816D01*
X133482084Y-105860958D01*
X133649581Y-105998419D01*
X133787042Y-106165916D01*
X133854924Y-106292916D01*
X133889185Y-106357014D01*
X133952084Y-106564361D01*
X133973322Y-106780000D01*
X133952084Y-106995639D01*
X133913559Y-107122638D01*
X133889184Y-107202988D01*
X133787042Y-107394084D01*
X133649581Y-107561581D01*
X133482084Y-107699042D01*
X133290988Y-107801184D01*
X133290986Y-107801185D01*
X133083639Y-107864084D01*
X132922038Y-107880000D01*
X132813962Y-107880000D01*
X132652361Y-107864084D01*
X132445014Y-107801185D01*
X132445012Y-107801184D01*
X132253916Y-107699042D01*
X132086419Y-107561581D01*
X131948958Y-107394084D01*
X131846816Y-107202988D01*
X131822442Y-107122638D01*
X131783916Y-106995639D01*
X131762678Y-106780000D01*
X131783916Y-106564361D01*
X131846815Y-106357014D01*
X131881076Y-106292916D01*
X131948958Y-106165916D01*
X132086419Y-105998419D01*
X132253916Y-105860958D01*
X132445012Y-105758816D01*
X132445014Y-105758815D01*
X132652361Y-105695916D01*
X132813962Y-105680000D01*
X132922038Y-105680000D01*
X133083639Y-105695916D01*
X133083639Y-105695916D01*
G37*
G36*
X130158000Y-107880000D02*
X127958000Y-107880000D01*
X127958000Y-105680000D01*
X130158000Y-105680000D01*
X130158000Y-107880000D01*
X130158000Y-107880000D01*
G37*
G36*
X140703639Y-105695916D02*
X140910986Y-105758815D01*
X140910988Y-105758816D01*
X141102084Y-105860958D01*
X141269581Y-105998419D01*
X141407042Y-106165916D01*
X141474924Y-106292916D01*
X141509185Y-106357014D01*
X141572084Y-106564361D01*
X141593322Y-106780000D01*
X141572084Y-106995639D01*
X141533559Y-107122638D01*
X141509184Y-107202988D01*
X141407042Y-107394084D01*
X141269581Y-107561581D01*
X141102084Y-107699042D01*
X140910988Y-107801184D01*
X140910986Y-107801185D01*
X140703639Y-107864084D01*
X140542038Y-107880000D01*
X140433962Y-107880000D01*
X140272361Y-107864084D01*
X140065014Y-107801185D01*
X140065012Y-107801184D01*
X139873916Y-107699042D01*
X139706419Y-107561581D01*
X139568958Y-107394084D01*
X139466816Y-107202988D01*
X139442442Y-107122638D01*
X139403916Y-106995639D01*
X139382678Y-106780000D01*
X139403916Y-106564361D01*
X139466815Y-106357014D01*
X139501076Y-106292916D01*
X139568958Y-106165916D01*
X139706419Y-105998419D01*
X139873916Y-105860958D01*
X140065012Y-105758816D01*
X140065014Y-105758815D01*
X140272361Y-105695916D01*
X140433962Y-105680000D01*
X140542038Y-105680000D01*
X140703639Y-105695916D01*
X140703639Y-105695916D01*
G37*
G36*
X148069639Y-105695916D02*
X148276986Y-105758815D01*
X148276988Y-105758816D01*
X148468084Y-105860958D01*
X148635581Y-105998419D01*
X148773042Y-106165916D01*
X148840924Y-106292916D01*
X148875185Y-106357014D01*
X148938084Y-106564361D01*
X148959322Y-106780000D01*
X148938084Y-106995639D01*
X148899559Y-107122638D01*
X148875184Y-107202988D01*
X148773042Y-107394084D01*
X148635581Y-107561581D01*
X148468084Y-107699042D01*
X148276988Y-107801184D01*
X148276986Y-107801185D01*
X148069639Y-107864084D01*
X147908038Y-107880000D01*
X147799962Y-107880000D01*
X147638361Y-107864084D01*
X147431014Y-107801185D01*
X147431012Y-107801184D01*
X147239916Y-107699042D01*
X147072419Y-107561581D01*
X146934958Y-107394084D01*
X146832816Y-107202988D01*
X146808442Y-107122638D01*
X146769916Y-106995639D01*
X146748678Y-106780000D01*
X146769916Y-106564361D01*
X146832815Y-106357014D01*
X146867076Y-106292916D01*
X146934958Y-106165916D01*
X147072419Y-105998419D01*
X147239916Y-105860958D01*
X147431012Y-105758816D01*
X147431014Y-105758815D01*
X147638361Y-105695916D01*
X147799962Y-105680000D01*
X147908038Y-105680000D01*
X148069639Y-105695916D01*
X148069639Y-105695916D01*
G37*
G36*
X137778000Y-107880000D02*
X135578000Y-107880000D01*
X135578000Y-105680000D01*
X137778000Y-105680000D01*
X137778000Y-107880000D01*
X137778000Y-107880000D01*
G37*
G36*
X163563639Y-105695916D02*
X163770986Y-105758815D01*
X163770988Y-105758816D01*
X163962084Y-105860958D01*
X164129581Y-105998419D01*
X164267042Y-106165916D01*
X164334924Y-106292916D01*
X164369185Y-106357014D01*
X164432084Y-106564361D01*
X164453322Y-106780000D01*
X164432084Y-106995639D01*
X164393559Y-107122638D01*
X164369184Y-107202988D01*
X164267042Y-107394084D01*
X164129581Y-107561581D01*
X163962084Y-107699042D01*
X163770988Y-107801184D01*
X163770986Y-107801185D01*
X163563639Y-107864084D01*
X163402038Y-107880000D01*
X163293962Y-107880000D01*
X163132361Y-107864084D01*
X162925014Y-107801185D01*
X162925012Y-107801184D01*
X162733916Y-107699042D01*
X162566419Y-107561581D01*
X162428958Y-107394084D01*
X162326816Y-107202988D01*
X162302442Y-107122638D01*
X162263916Y-106995639D01*
X162242678Y-106780000D01*
X162263916Y-106564361D01*
X162326815Y-106357014D01*
X162361076Y-106292916D01*
X162428958Y-106165916D01*
X162566419Y-105998419D01*
X162733916Y-105860958D01*
X162925012Y-105758816D01*
X162925014Y-105758815D01*
X163132361Y-105695916D01*
X163293962Y-105680000D01*
X163402038Y-105680000D01*
X163563639Y-105695916D01*
X163563639Y-105695916D01*
G37*
G36*
X160638000Y-107880000D02*
X158438000Y-107880000D01*
X158438000Y-105680000D01*
X160638000Y-105680000D01*
X160638000Y-107880000D01*
X160638000Y-107880000D01*
G37*
G36*
X171183639Y-105695916D02*
X171390986Y-105758815D01*
X171390988Y-105758816D01*
X171582084Y-105860958D01*
X171749581Y-105998419D01*
X171887042Y-106165916D01*
X171954924Y-106292916D01*
X171989185Y-106357014D01*
X172052084Y-106564361D01*
X172073322Y-106780000D01*
X172052084Y-106995639D01*
X172013559Y-107122638D01*
X171989184Y-107202988D01*
X171887042Y-107394084D01*
X171749581Y-107561581D01*
X171582084Y-107699042D01*
X171390988Y-107801184D01*
X171390986Y-107801185D01*
X171183639Y-107864084D01*
X171022038Y-107880000D01*
X170913962Y-107880000D01*
X170752361Y-107864084D01*
X170545014Y-107801185D01*
X170545012Y-107801184D01*
X170353916Y-107699042D01*
X170186419Y-107561581D01*
X170048958Y-107394084D01*
X169946816Y-107202988D01*
X169922442Y-107122638D01*
X169883916Y-106995639D01*
X169862678Y-106780000D01*
X169883916Y-106564361D01*
X169946815Y-106357014D01*
X169981076Y-106292916D01*
X170048958Y-106165916D01*
X170186419Y-105998419D01*
X170353916Y-105860958D01*
X170545012Y-105758816D01*
X170545014Y-105758815D01*
X170752361Y-105695916D01*
X170913962Y-105680000D01*
X171022038Y-105680000D01*
X171183639Y-105695916D01*
X171183639Y-105695916D01*
G37*
G36*
X168258000Y-107880000D02*
X166058000Y-107880000D01*
X166058000Y-105680000D01*
X168258000Y-105680000D01*
X168258000Y-107880000D01*
X168258000Y-107880000D01*
G37*
G36*
X145144000Y-107880000D02*
X142944000Y-107880000D01*
X142944000Y-105680000D01*
X145144000Y-105680000D01*
X145144000Y-107880000D01*
X145144000Y-107880000D01*
G37*
G36*
X175452630Y-103910299D02*
X175612855Y-103958903D01*
X175760520Y-104037831D01*
X175889949Y-104144051D01*
X175996169Y-104273480D01*
X176075097Y-104421145D01*
X176123701Y-104581370D01*
X176140112Y-104748000D01*
X176123701Y-104914630D01*
X176075097Y-105074855D01*
X175996169Y-105222520D01*
X175889949Y-105351949D01*
X175760520Y-105458169D01*
X175612855Y-105537097D01*
X175452630Y-105585701D01*
X175327752Y-105598000D01*
X175244248Y-105598000D01*
X175119370Y-105585701D01*
X174959145Y-105537097D01*
X174811480Y-105458169D01*
X174682051Y-105351949D01*
X174575831Y-105222520D01*
X174496903Y-105074855D01*
X174448299Y-104914630D01*
X174431888Y-104748000D01*
X174448299Y-104581370D01*
X174496903Y-104421145D01*
X174575831Y-104273480D01*
X174682051Y-104144051D01*
X174811480Y-104037831D01*
X174959145Y-103958903D01*
X175119370Y-103910299D01*
X175244248Y-103898000D01*
X175327752Y-103898000D01*
X175452630Y-103910299D01*
X175452630Y-103910299D01*
G37*
G36*
X175452630Y-101370299D02*
X175612855Y-101418903D01*
X175760520Y-101497831D01*
X175889949Y-101604051D01*
X175996169Y-101733480D01*
X176075097Y-101881145D01*
X176123701Y-102041370D01*
X176140112Y-102208000D01*
X176123701Y-102374630D01*
X176075097Y-102534855D01*
X175996169Y-102682520D01*
X175889949Y-102811949D01*
X175760520Y-102918169D01*
X175612855Y-102997097D01*
X175452630Y-103045701D01*
X175327752Y-103058000D01*
X175244248Y-103058000D01*
X175119370Y-103045701D01*
X174959145Y-102997097D01*
X174811480Y-102918169D01*
X174682051Y-102811949D01*
X174575831Y-102682520D01*
X174496903Y-102534855D01*
X174448299Y-102374630D01*
X174431888Y-102208000D01*
X174448299Y-102041370D01*
X174496903Y-101881145D01*
X174575831Y-101733480D01*
X174682051Y-101604051D01*
X174811480Y-101497831D01*
X174959145Y-101418903D01*
X175119370Y-101370299D01*
X175244248Y-101358000D01*
X175327752Y-101358000D01*
X175452630Y-101370299D01*
X175452630Y-101370299D01*
G37*
G36*
X162420000Y-102550000D02*
X160720000Y-102550000D01*
X160720000Y-100850000D01*
X162420000Y-100850000D01*
X162420000Y-102550000D01*
X162420000Y-102550000D01*
G37*
G36*
X121780000Y-102550000D02*
X120080000Y-102550000D01*
X120080000Y-100850000D01*
X121780000Y-100850000D01*
X121780000Y-102550000D01*
X121780000Y-102550000D01*
G37*
G36*
X175452630Y-98830299D02*
X175612855Y-98878903D01*
X175760520Y-98957831D01*
X175889949Y-99064051D01*
X175996169Y-99193480D01*
X176075097Y-99341145D01*
X176123701Y-99501370D01*
X176140112Y-99668000D01*
X176123701Y-99834630D01*
X176075097Y-99994855D01*
X175996169Y-100142520D01*
X175889949Y-100271949D01*
X175760520Y-100378169D01*
X175612855Y-100457097D01*
X175452630Y-100505701D01*
X175327752Y-100518000D01*
X175244248Y-100518000D01*
X175119370Y-100505701D01*
X174959145Y-100457097D01*
X174811480Y-100378169D01*
X174682051Y-100271949D01*
X174575831Y-100142520D01*
X174496903Y-99994855D01*
X174448299Y-99834630D01*
X174431888Y-99668000D01*
X174448299Y-99501370D01*
X174496903Y-99341145D01*
X174575831Y-99193480D01*
X174682051Y-99064051D01*
X174811480Y-98957831D01*
X174959145Y-98878903D01*
X175119370Y-98830299D01*
X175244248Y-98818000D01*
X175327752Y-98818000D01*
X175452630Y-98830299D01*
X175452630Y-98830299D01*
G37*
G36*
X175452630Y-96290299D02*
X175612855Y-96338903D01*
X175760520Y-96417831D01*
X175889949Y-96524051D01*
X175996169Y-96653480D01*
X176075097Y-96801145D01*
X176123701Y-96961370D01*
X176140112Y-97128000D01*
X176123701Y-97294630D01*
X176075097Y-97454855D01*
X175996169Y-97602520D01*
X175889949Y-97731949D01*
X175760520Y-97838169D01*
X175612855Y-97917097D01*
X175452630Y-97965701D01*
X175327752Y-97978000D01*
X175244248Y-97978000D01*
X175119370Y-97965701D01*
X174959145Y-97917097D01*
X174811480Y-97838169D01*
X174682051Y-97731949D01*
X174575831Y-97602520D01*
X174496903Y-97454855D01*
X174448299Y-97294630D01*
X174431888Y-97128000D01*
X174448299Y-96961370D01*
X174496903Y-96801145D01*
X174575831Y-96653480D01*
X174682051Y-96524051D01*
X174811480Y-96417831D01*
X174959145Y-96338903D01*
X175119370Y-96290299D01*
X175244248Y-96278000D01*
X175327752Y-96278000D01*
X175452630Y-96290299D01*
X175452630Y-96290299D01*
G37*
G36*
X175452630Y-93750299D02*
X175612855Y-93798903D01*
X175760520Y-93877831D01*
X175889949Y-93984051D01*
X175996169Y-94113480D01*
X176075097Y-94261145D01*
X176123701Y-94421370D01*
X176140112Y-94588000D01*
X176123701Y-94754630D01*
X176075097Y-94914855D01*
X175996169Y-95062520D01*
X175889949Y-95191949D01*
X175760520Y-95298169D01*
X175612855Y-95377097D01*
X175452630Y-95425701D01*
X175327752Y-95438000D01*
X175244248Y-95438000D01*
X175119370Y-95425701D01*
X174959145Y-95377097D01*
X174811480Y-95298169D01*
X174682051Y-95191949D01*
X174575831Y-95062520D01*
X174496903Y-94914855D01*
X174448299Y-94754630D01*
X174431888Y-94588000D01*
X174448299Y-94421370D01*
X174496903Y-94261145D01*
X174575831Y-94113480D01*
X174682051Y-93984051D01*
X174811480Y-93877831D01*
X174959145Y-93798903D01*
X175119370Y-93750299D01*
X175244248Y-93738000D01*
X175327752Y-93738000D01*
X175452630Y-93750299D01*
X175452630Y-93750299D01*
G37*
G36*
X172912630Y-90702299D02*
X173072855Y-90750903D01*
X173220520Y-90829831D01*
X173349949Y-90936051D01*
X173456169Y-91065480D01*
X173535097Y-91213145D01*
X173583701Y-91373370D01*
X173600112Y-91540000D01*
X173583701Y-91706630D01*
X173535097Y-91866855D01*
X173456169Y-92014520D01*
X173349949Y-92143949D01*
X173220520Y-92250169D01*
X173072855Y-92329097D01*
X172912630Y-92377701D01*
X172787752Y-92390000D01*
X172704248Y-92390000D01*
X172579370Y-92377701D01*
X172419145Y-92329097D01*
X172271480Y-92250169D01*
X172142051Y-92143949D01*
X172035831Y-92014520D01*
X171956903Y-91866855D01*
X171908299Y-91706630D01*
X171891888Y-91540000D01*
X171908299Y-91373370D01*
X171956903Y-91213145D01*
X172035831Y-91065480D01*
X172142051Y-90936051D01*
X172271480Y-90829831D01*
X172419145Y-90750903D01*
X172579370Y-90702299D01*
X172704248Y-90690000D01*
X172787752Y-90690000D01*
X172912630Y-90702299D01*
X172912630Y-90702299D01*
G37*
G36*
X176136000Y-92390000D02*
X174436000Y-92390000D01*
X174436000Y-90690000D01*
X176136000Y-90690000D01*
X176136000Y-92390000D01*
X176136000Y-92390000D01*
G37*
G36*
X173746307Y-87996101D02*
X173864872Y-88032068D01*
X173974145Y-88090475D01*
X174069922Y-88169078D01*
X174148525Y-88264855D01*
X174206932Y-88374128D01*
X174242899Y-88492693D01*
X174255043Y-88616000D01*
X174242899Y-88739307D01*
X174206932Y-88857872D01*
X174148525Y-88967145D01*
X174069922Y-89062922D01*
X173974145Y-89141525D01*
X173864872Y-89199932D01*
X173746307Y-89235899D01*
X173653899Y-89245000D01*
X172334101Y-89245000D01*
X172241693Y-89235899D01*
X172123128Y-89199932D01*
X172013855Y-89141525D01*
X171918078Y-89062922D01*
X171839475Y-88967145D01*
X171781068Y-88857872D01*
X171745101Y-88739307D01*
X171732957Y-88616000D01*
X171745101Y-88492693D01*
X171781068Y-88374128D01*
X171839475Y-88264855D01*
X171918078Y-88169078D01*
X172013855Y-88090475D01*
X172123128Y-88032068D01*
X172241693Y-87996101D01*
X172334101Y-87987000D01*
X173653899Y-87987000D01*
X173746307Y-87996101D01*
X173746307Y-87996101D01*
G37*
G36*
X175146307Y-85296101D02*
X175264872Y-85332068D01*
X175374145Y-85390475D01*
X175469922Y-85469078D01*
X175548525Y-85564855D01*
X175606932Y-85674128D01*
X175642899Y-85792693D01*
X175655043Y-85916000D01*
X175642899Y-86039307D01*
X175606932Y-86157872D01*
X175548525Y-86267145D01*
X175469922Y-86362922D01*
X175374145Y-86441525D01*
X175264872Y-86499932D01*
X175146307Y-86535899D01*
X175053899Y-86545000D01*
X173734101Y-86545000D01*
X173641693Y-86535899D01*
X173523128Y-86499932D01*
X173413855Y-86441525D01*
X173318078Y-86362922D01*
X173239475Y-86267145D01*
X173181068Y-86157872D01*
X173145101Y-86039307D01*
X173132957Y-85916000D01*
X173145101Y-85792693D01*
X173181068Y-85674128D01*
X173239475Y-85564855D01*
X173318078Y-85469078D01*
X173413855Y-85390475D01*
X173523128Y-85332068D01*
X173641693Y-85296101D01*
X173734101Y-85287000D01*
X175053899Y-85287000D01*
X175146307Y-85296101D01*
X175146307Y-85296101D01*
G37*
G36*
X121780000Y-84770000D02*
X120080000Y-84770000D01*
X120080000Y-83070000D01*
X121780000Y-83070000D01*
X121780000Y-84770000D01*
X121780000Y-84770000D01*
G37*
G36*
X162420000Y-84770000D02*
X160720000Y-84770000D01*
X160720000Y-83070000D01*
X162420000Y-83070000D01*
X162420000Y-84770000D01*
X162420000Y-84770000D01*
G37*
G36*
X180917307Y-82167101D02*
X181035872Y-82203068D01*
X181145145Y-82261475D01*
X181240922Y-82340078D01*
X181319525Y-82435855D01*
X181377932Y-82545128D01*
X181413899Y-82663693D01*
X181423000Y-82756101D01*
X181423000Y-84075899D01*
X181413899Y-84168307D01*
X181377932Y-84286872D01*
X181319525Y-84396145D01*
X181240925Y-84491919D01*
X181240923Y-84491920D01*
X181240922Y-84491922D01*
X181145143Y-84570525D01*
X181145141Y-84570526D01*
X181145140Y-84570527D01*
X181035871Y-84628932D01*
X180917306Y-84664899D01*
X180794000Y-84677043D01*
X180670693Y-84664899D01*
X180552128Y-84628932D01*
X180442855Y-84570525D01*
X180347081Y-84491925D01*
X180347080Y-84491923D01*
X180347078Y-84491922D01*
X180268475Y-84396143D01*
X180210068Y-84286871D01*
X180174101Y-84168306D01*
X180165000Y-84075898D01*
X180165001Y-82756101D01*
X180174102Y-82663693D01*
X180210069Y-82545128D01*
X180268476Y-82435855D01*
X180347079Y-82340078D01*
X180442856Y-82261475D01*
X180552129Y-82203068D01*
X180670694Y-82167101D01*
X180794000Y-82154957D01*
X180917307Y-82167101D01*
X180917307Y-82167101D01*
G37*
G36*
X155337649Y-79317717D02*
X155376827Y-79321576D01*
X155429483Y-79337549D01*
X155527629Y-79367321D01*
X155666608Y-79441608D01*
X155788422Y-79541578D01*
X155888392Y-79663392D01*
X155962679Y-79802371D01*
X155962679Y-79802372D01*
X156008424Y-79953173D01*
X156023870Y-80110000D01*
X156018128Y-80168305D01*
X156008424Y-80266826D01*
X155962679Y-80417629D01*
X155888392Y-80556608D01*
X155788422Y-80678422D01*
X155666608Y-80778392D01*
X155527629Y-80852679D01*
X155452228Y-80875551D01*
X155376827Y-80898424D01*
X155337649Y-80902283D01*
X155259295Y-80910000D01*
X155180705Y-80910000D01*
X155102351Y-80902283D01*
X155063173Y-80898424D01*
X154987772Y-80875551D01*
X154912371Y-80852679D01*
X154773392Y-80778392D01*
X154651578Y-80678422D01*
X154551608Y-80556608D01*
X154477321Y-80417629D01*
X154431576Y-80266826D01*
X154421873Y-80168305D01*
X154416130Y-80110000D01*
X154431576Y-79953173D01*
X154477321Y-79802372D01*
X154477321Y-79802371D01*
X154551608Y-79663392D01*
X154651578Y-79541578D01*
X154773392Y-79441608D01*
X154912371Y-79367321D01*
X155010517Y-79337549D01*
X155063173Y-79321576D01*
X155102351Y-79317717D01*
X155180705Y-79310000D01*
X155259295Y-79310000D01*
X155337649Y-79317717D01*
X155337649Y-79317717D01*
G37*
G36*
X150373352Y-79340743D02*
X150518941Y-79401048D01*
X150649973Y-79488601D01*
X150761399Y-79600027D01*
X150848952Y-79731059D01*
X150909257Y-79876648D01*
X150940000Y-80031205D01*
X150940000Y-80188795D01*
X150909257Y-80343352D01*
X150848952Y-80488941D01*
X150761399Y-80619973D01*
X150649973Y-80731399D01*
X150518941Y-80818952D01*
X150373352Y-80879257D01*
X150218795Y-80910000D01*
X150061205Y-80910000D01*
X149906648Y-80879257D01*
X149761059Y-80818952D01*
X149630027Y-80731399D01*
X149518601Y-80619973D01*
X149431048Y-80488941D01*
X149370743Y-80343352D01*
X149340000Y-80188795D01*
X149340000Y-80031205D01*
X149370743Y-79876648D01*
X149431048Y-79731059D01*
X149518601Y-79600027D01*
X149630027Y-79488601D01*
X149761059Y-79401048D01*
X149906648Y-79340743D01*
X150061205Y-79310000D01*
X150218795Y-79310000D01*
X150373352Y-79340743D01*
X150373352Y-79340743D01*
G37*
G36*
X146447649Y-79254217D02*
X146486827Y-79258076D01*
X146516720Y-79267144D01*
X146637629Y-79303821D01*
X146776608Y-79378108D01*
X146898422Y-79478078D01*
X146998392Y-79599892D01*
X147072679Y-79738871D01*
X147118424Y-79889674D01*
X147133870Y-80046500D01*
X147118424Y-80203326D01*
X147072679Y-80354129D01*
X146998392Y-80493108D01*
X146898422Y-80614922D01*
X146776608Y-80714892D01*
X146637629Y-80789179D01*
X146562228Y-80812051D01*
X146486827Y-80834924D01*
X146447649Y-80838783D01*
X146369295Y-80846500D01*
X146290705Y-80846500D01*
X146212351Y-80838783D01*
X146173173Y-80834924D01*
X146097773Y-80812052D01*
X146022371Y-80789179D01*
X145883392Y-80714892D01*
X145761578Y-80614922D01*
X145661608Y-80493108D01*
X145587321Y-80354129D01*
X145541576Y-80203326D01*
X145526130Y-80046500D01*
X145541576Y-79889674D01*
X145587321Y-79738871D01*
X145661608Y-79599892D01*
X145761578Y-79478078D01*
X145883392Y-79378108D01*
X146022371Y-79303821D01*
X146143280Y-79267144D01*
X146173173Y-79258076D01*
X146212351Y-79254217D01*
X146290705Y-79246500D01*
X146369295Y-79246500D01*
X146447649Y-79254217D01*
X146447649Y-79254217D01*
G37*
G36*
X141483352Y-79277243D02*
X141628941Y-79337548D01*
X141759973Y-79425101D01*
X141871399Y-79536527D01*
X141958952Y-79667559D01*
X142019257Y-79813148D01*
X142050000Y-79967705D01*
X142050000Y-80125295D01*
X142019257Y-80279852D01*
X141958952Y-80425441D01*
X141871399Y-80556473D01*
X141759973Y-80667899D01*
X141628941Y-80755452D01*
X141483352Y-80815757D01*
X141328795Y-80846500D01*
X141171205Y-80846500D01*
X141016648Y-80815757D01*
X140871059Y-80755452D01*
X140740027Y-80667899D01*
X140628601Y-80556473D01*
X140541048Y-80425441D01*
X140480743Y-80279852D01*
X140450000Y-80125295D01*
X140450000Y-79967705D01*
X140480743Y-79813148D01*
X140541048Y-79667559D01*
X140628601Y-79536527D01*
X140740027Y-79425101D01*
X140871059Y-79337548D01*
X141016648Y-79277243D01*
X141171205Y-79246500D01*
X141328795Y-79246500D01*
X141483352Y-79277243D01*
X141483352Y-79277243D01*
G37*
G36*
X169917306Y-78167101D02*
X170035871Y-78203068D01*
X170145140Y-78261473D01*
X170145141Y-78261474D01*
X170145143Y-78261475D01*
X170240922Y-78340078D01*
X170240923Y-78340080D01*
X170240925Y-78340081D01*
X170319525Y-78435855D01*
X170377932Y-78545128D01*
X170413899Y-78663693D01*
X170423000Y-78756101D01*
X170423000Y-80075899D01*
X170413899Y-80168307D01*
X170377932Y-80286872D01*
X170319525Y-80396145D01*
X170240922Y-80491922D01*
X170145145Y-80570525D01*
X170035872Y-80628932D01*
X169917307Y-80664899D01*
X169794000Y-80677043D01*
X169670694Y-80664899D01*
X169552129Y-80628932D01*
X169442856Y-80570525D01*
X169347079Y-80491922D01*
X169268476Y-80396145D01*
X169210069Y-80286872D01*
X169174102Y-80168307D01*
X169165001Y-80075899D01*
X169165000Y-78756102D01*
X169174101Y-78663694D01*
X169210068Y-78545129D01*
X169268473Y-78435860D01*
X169347076Y-78340081D01*
X169347078Y-78340078D01*
X169347080Y-78340077D01*
X169347081Y-78340075D01*
X169442855Y-78261475D01*
X169552128Y-78203068D01*
X169670693Y-78167101D01*
X169794000Y-78154957D01*
X169917306Y-78167101D01*
X169917306Y-78167101D01*
G37*
G36*
X178146307Y-78296101D02*
X178264872Y-78332068D01*
X178374145Y-78390475D01*
X178469922Y-78469078D01*
X178548525Y-78564855D01*
X178606932Y-78674128D01*
X178642899Y-78792693D01*
X178655043Y-78916000D01*
X178642899Y-79039307D01*
X178606932Y-79157872D01*
X178548525Y-79267145D01*
X178469922Y-79362922D01*
X178374145Y-79441525D01*
X178264872Y-79499932D01*
X178146307Y-79535899D01*
X178053899Y-79545000D01*
X176734101Y-79545000D01*
X176641693Y-79535899D01*
X176523128Y-79499932D01*
X176413855Y-79441525D01*
X176318078Y-79362922D01*
X176239475Y-79267145D01*
X176181068Y-79157872D01*
X176145101Y-79039307D01*
X176132957Y-78916000D01*
X176145101Y-78792693D01*
X176181068Y-78674128D01*
X176239475Y-78564855D01*
X176318078Y-78469078D01*
X176413855Y-78390475D01*
X176523128Y-78332068D01*
X176641693Y-78296101D01*
X176734101Y-78287000D01*
X178053899Y-78287000D01*
X178146307Y-78296101D01*
X178146307Y-78296101D01*
G37*
G36*
X118556630Y-75208299D02*
X118716855Y-75256903D01*
X118864520Y-75335831D01*
X118993949Y-75442051D01*
X119100169Y-75571480D01*
X119179097Y-75719145D01*
X119227701Y-75879370D01*
X119244112Y-76046000D01*
X119227701Y-76212630D01*
X119179097Y-76372855D01*
X119100169Y-76520520D01*
X118993949Y-76649949D01*
X118864520Y-76756169D01*
X118716855Y-76835097D01*
X118556630Y-76883701D01*
X118431752Y-76896000D01*
X118348248Y-76896000D01*
X118223370Y-76883701D01*
X118063145Y-76835097D01*
X117915480Y-76756169D01*
X117786051Y-76649949D01*
X117679831Y-76520520D01*
X117600903Y-76372855D01*
X117552299Y-76212630D01*
X117535888Y-76046000D01*
X117552299Y-75879370D01*
X117600903Y-75719145D01*
X117679831Y-75571480D01*
X117786051Y-75442051D01*
X117915480Y-75335831D01*
X118063145Y-75256903D01*
X118223370Y-75208299D01*
X118348248Y-75196000D01*
X118431752Y-75196000D01*
X118556630Y-75208299D01*
X118556630Y-75208299D01*
G37*
G36*
X138876630Y-75208299D02*
X139036855Y-75256903D01*
X139184520Y-75335831D01*
X139313949Y-75442051D01*
X139420169Y-75571480D01*
X139499097Y-75719145D01*
X139547701Y-75879370D01*
X139564112Y-76046000D01*
X139547701Y-76212630D01*
X139499097Y-76372855D01*
X139420169Y-76520520D01*
X139313949Y-76649949D01*
X139184520Y-76756169D01*
X139036855Y-76835097D01*
X138876630Y-76883701D01*
X138751752Y-76896000D01*
X138668248Y-76896000D01*
X138543370Y-76883701D01*
X138383145Y-76835097D01*
X138235480Y-76756169D01*
X138106051Y-76649949D01*
X137999831Y-76520520D01*
X137920903Y-76372855D01*
X137872299Y-76212630D01*
X137855888Y-76046000D01*
X137872299Y-75879370D01*
X137920903Y-75719145D01*
X137999831Y-75571480D01*
X138106051Y-75442051D01*
X138235480Y-75335831D01*
X138383145Y-75256903D01*
X138543370Y-75208299D01*
X138668248Y-75196000D01*
X138751752Y-75196000D01*
X138876630Y-75208299D01*
X138876630Y-75208299D01*
G37*
G36*
X121096630Y-75208299D02*
X121256855Y-75256903D01*
X121404520Y-75335831D01*
X121533949Y-75442051D01*
X121640169Y-75571480D01*
X121719097Y-75719145D01*
X121767701Y-75879370D01*
X121784112Y-76046000D01*
X121767701Y-76212630D01*
X121719097Y-76372855D01*
X121640169Y-76520520D01*
X121533949Y-76649949D01*
X121404520Y-76756169D01*
X121256855Y-76835097D01*
X121096630Y-76883701D01*
X120971752Y-76896000D01*
X120888248Y-76896000D01*
X120763370Y-76883701D01*
X120603145Y-76835097D01*
X120455480Y-76756169D01*
X120326051Y-76649949D01*
X120219831Y-76520520D01*
X120140903Y-76372855D01*
X120092299Y-76212630D01*
X120075888Y-76046000D01*
X120092299Y-75879370D01*
X120140903Y-75719145D01*
X120219831Y-75571480D01*
X120326051Y-75442051D01*
X120455480Y-75335831D01*
X120603145Y-75256903D01*
X120763370Y-75208299D01*
X120888248Y-75196000D01*
X120971752Y-75196000D01*
X121096630Y-75208299D01*
X121096630Y-75208299D01*
G37*
G36*
X123636630Y-75208299D02*
X123796855Y-75256903D01*
X123944520Y-75335831D01*
X124073949Y-75442051D01*
X124180169Y-75571480D01*
X124259097Y-75719145D01*
X124307701Y-75879370D01*
X124324112Y-76046000D01*
X124307701Y-76212630D01*
X124259097Y-76372855D01*
X124180169Y-76520520D01*
X124073949Y-76649949D01*
X123944520Y-76756169D01*
X123796855Y-76835097D01*
X123636630Y-76883701D01*
X123511752Y-76896000D01*
X123428248Y-76896000D01*
X123303370Y-76883701D01*
X123143145Y-76835097D01*
X122995480Y-76756169D01*
X122866051Y-76649949D01*
X122759831Y-76520520D01*
X122680903Y-76372855D01*
X122632299Y-76212630D01*
X122615888Y-76046000D01*
X122632299Y-75879370D01*
X122680903Y-75719145D01*
X122759831Y-75571480D01*
X122866051Y-75442051D01*
X122995480Y-75335831D01*
X123143145Y-75256903D01*
X123303370Y-75208299D01*
X123428248Y-75196000D01*
X123511752Y-75196000D01*
X123636630Y-75208299D01*
X123636630Y-75208299D01*
G37*
G36*
X131256630Y-75208299D02*
X131416855Y-75256903D01*
X131564520Y-75335831D01*
X131693949Y-75442051D01*
X131800169Y-75571480D01*
X131879097Y-75719145D01*
X131927701Y-75879370D01*
X131944112Y-76046000D01*
X131927701Y-76212630D01*
X131879097Y-76372855D01*
X131800169Y-76520520D01*
X131693949Y-76649949D01*
X131564520Y-76756169D01*
X131416855Y-76835097D01*
X131256630Y-76883701D01*
X131131752Y-76896000D01*
X131048248Y-76896000D01*
X130923370Y-76883701D01*
X130763145Y-76835097D01*
X130615480Y-76756169D01*
X130486051Y-76649949D01*
X130379831Y-76520520D01*
X130300903Y-76372855D01*
X130252299Y-76212630D01*
X130235888Y-76046000D01*
X130252299Y-75879370D01*
X130300903Y-75719145D01*
X130379831Y-75571480D01*
X130486051Y-75442051D01*
X130615480Y-75335831D01*
X130763145Y-75256903D01*
X130923370Y-75208299D01*
X131048248Y-75196000D01*
X131131752Y-75196000D01*
X131256630Y-75208299D01*
X131256630Y-75208299D01*
G37*
G36*
X126176630Y-75208299D02*
X126336855Y-75256903D01*
X126484520Y-75335831D01*
X126613949Y-75442051D01*
X126720169Y-75571480D01*
X126799097Y-75719145D01*
X126847701Y-75879370D01*
X126864112Y-76046000D01*
X126847701Y-76212630D01*
X126799097Y-76372855D01*
X126720169Y-76520520D01*
X126613949Y-76649949D01*
X126484520Y-76756169D01*
X126336855Y-76835097D01*
X126176630Y-76883701D01*
X126051752Y-76896000D01*
X125968248Y-76896000D01*
X125843370Y-76883701D01*
X125683145Y-76835097D01*
X125535480Y-76756169D01*
X125406051Y-76649949D01*
X125299831Y-76520520D01*
X125220903Y-76372855D01*
X125172299Y-76212630D01*
X125155888Y-76046000D01*
X125172299Y-75879370D01*
X125220903Y-75719145D01*
X125299831Y-75571480D01*
X125406051Y-75442051D01*
X125535480Y-75335831D01*
X125683145Y-75256903D01*
X125843370Y-75208299D01*
X125968248Y-75196000D01*
X126051752Y-75196000D01*
X126176630Y-75208299D01*
X126176630Y-75208299D01*
G37*
G36*
X149036630Y-75208299D02*
X149196855Y-75256903D01*
X149344520Y-75335831D01*
X149473949Y-75442051D01*
X149580169Y-75571480D01*
X149659097Y-75719145D01*
X149707701Y-75879370D01*
X149724112Y-76046000D01*
X149707701Y-76212630D01*
X149659097Y-76372855D01*
X149580169Y-76520520D01*
X149473949Y-76649949D01*
X149344520Y-76756169D01*
X149196855Y-76835097D01*
X149036630Y-76883701D01*
X148911752Y-76896000D01*
X148828248Y-76896000D01*
X148703370Y-76883701D01*
X148543145Y-76835097D01*
X148395480Y-76756169D01*
X148266051Y-76649949D01*
X148159831Y-76520520D01*
X148080903Y-76372855D01*
X148032299Y-76212630D01*
X148015888Y-76046000D01*
X148032299Y-75879370D01*
X148080903Y-75719145D01*
X148159831Y-75571480D01*
X148266051Y-75442051D01*
X148395480Y-75335831D01*
X148543145Y-75256903D01*
X148703370Y-75208299D01*
X148828248Y-75196000D01*
X148911752Y-75196000D01*
X149036630Y-75208299D01*
X149036630Y-75208299D01*
G37*
G36*
X156656630Y-75208299D02*
X156816855Y-75256903D01*
X156964520Y-75335831D01*
X157093949Y-75442051D01*
X157200169Y-75571480D01*
X157279097Y-75719145D01*
X157327701Y-75879370D01*
X157344112Y-76046000D01*
X157327701Y-76212630D01*
X157279097Y-76372855D01*
X157200169Y-76520520D01*
X157093949Y-76649949D01*
X156964520Y-76756169D01*
X156816855Y-76835097D01*
X156656630Y-76883701D01*
X156531752Y-76896000D01*
X156448248Y-76896000D01*
X156323370Y-76883701D01*
X156163145Y-76835097D01*
X156015480Y-76756169D01*
X155886051Y-76649949D01*
X155779831Y-76520520D01*
X155700903Y-76372855D01*
X155652299Y-76212630D01*
X155635888Y-76046000D01*
X155652299Y-75879370D01*
X155700903Y-75719145D01*
X155779831Y-75571480D01*
X155886051Y-75442051D01*
X156015480Y-75335831D01*
X156163145Y-75256903D01*
X156323370Y-75208299D01*
X156448248Y-75196000D01*
X156531752Y-75196000D01*
X156656630Y-75208299D01*
X156656630Y-75208299D01*
G37*
G36*
X154116630Y-75208299D02*
X154276855Y-75256903D01*
X154424520Y-75335831D01*
X154553949Y-75442051D01*
X154660169Y-75571480D01*
X154739097Y-75719145D01*
X154787701Y-75879370D01*
X154804112Y-76046000D01*
X154787701Y-76212630D01*
X154739097Y-76372855D01*
X154660169Y-76520520D01*
X154553949Y-76649949D01*
X154424520Y-76756169D01*
X154276855Y-76835097D01*
X154116630Y-76883701D01*
X153991752Y-76896000D01*
X153908248Y-76896000D01*
X153783370Y-76883701D01*
X153623145Y-76835097D01*
X153475480Y-76756169D01*
X153346051Y-76649949D01*
X153239831Y-76520520D01*
X153160903Y-76372855D01*
X153112299Y-76212630D01*
X153095888Y-76046000D01*
X153112299Y-75879370D01*
X153160903Y-75719145D01*
X153239831Y-75571480D01*
X153346051Y-75442051D01*
X153475480Y-75335831D01*
X153623145Y-75256903D01*
X153783370Y-75208299D01*
X153908248Y-75196000D01*
X153991752Y-75196000D01*
X154116630Y-75208299D01*
X154116630Y-75208299D01*
G37*
G36*
X151576630Y-75208299D02*
X151736855Y-75256903D01*
X151884520Y-75335831D01*
X152013949Y-75442051D01*
X152120169Y-75571480D01*
X152199097Y-75719145D01*
X152247701Y-75879370D01*
X152264112Y-76046000D01*
X152247701Y-76212630D01*
X152199097Y-76372855D01*
X152120169Y-76520520D01*
X152013949Y-76649949D01*
X151884520Y-76756169D01*
X151736855Y-76835097D01*
X151576630Y-76883701D01*
X151451752Y-76896000D01*
X151368248Y-76896000D01*
X151243370Y-76883701D01*
X151083145Y-76835097D01*
X150935480Y-76756169D01*
X150806051Y-76649949D01*
X150699831Y-76520520D01*
X150620903Y-76372855D01*
X150572299Y-76212630D01*
X150555888Y-76046000D01*
X150572299Y-75879370D01*
X150620903Y-75719145D01*
X150699831Y-75571480D01*
X150806051Y-75442051D01*
X150935480Y-75335831D01*
X151083145Y-75256903D01*
X151243370Y-75208299D01*
X151368248Y-75196000D01*
X151451752Y-75196000D01*
X151576630Y-75208299D01*
X151576630Y-75208299D01*
G37*
G36*
X114160000Y-76896000D02*
X112460000Y-76896000D01*
X112460000Y-75196000D01*
X114160000Y-75196000D01*
X114160000Y-76896000D01*
X114160000Y-76896000D01*
G37*
G36*
X116016630Y-75208299D02*
X116176855Y-75256903D01*
X116324520Y-75335831D01*
X116453949Y-75442051D01*
X116560169Y-75571480D01*
X116639097Y-75719145D01*
X116687701Y-75879370D01*
X116704112Y-76046000D01*
X116687701Y-76212630D01*
X116639097Y-76372855D01*
X116560169Y-76520520D01*
X116453949Y-76649949D01*
X116324520Y-76756169D01*
X116176855Y-76835097D01*
X116016630Y-76883701D01*
X115891752Y-76896000D01*
X115808248Y-76896000D01*
X115683370Y-76883701D01*
X115523145Y-76835097D01*
X115375480Y-76756169D01*
X115246051Y-76649949D01*
X115139831Y-76520520D01*
X115060903Y-76372855D01*
X115012299Y-76212630D01*
X114995888Y-76046000D01*
X115012299Y-75879370D01*
X115060903Y-75719145D01*
X115139831Y-75571480D01*
X115246051Y-75442051D01*
X115375480Y-75335831D01*
X115523145Y-75256903D01*
X115683370Y-75208299D01*
X115808248Y-75196000D01*
X115891752Y-75196000D01*
X116016630Y-75208299D01*
X116016630Y-75208299D01*
G37*
G36*
X136336630Y-75208299D02*
X136496855Y-75256903D01*
X136644520Y-75335831D01*
X136773949Y-75442051D01*
X136880169Y-75571480D01*
X136959097Y-75719145D01*
X137007701Y-75879370D01*
X137024112Y-76046000D01*
X137007701Y-76212630D01*
X136959097Y-76372855D01*
X136880169Y-76520520D01*
X136773949Y-76649949D01*
X136644520Y-76756169D01*
X136496855Y-76835097D01*
X136336630Y-76883701D01*
X136211752Y-76896000D01*
X136128248Y-76896000D01*
X136003370Y-76883701D01*
X135843145Y-76835097D01*
X135695480Y-76756169D01*
X135566051Y-76649949D01*
X135459831Y-76520520D01*
X135380903Y-76372855D01*
X135332299Y-76212630D01*
X135315888Y-76046000D01*
X135332299Y-75879370D01*
X135380903Y-75719145D01*
X135459831Y-75571480D01*
X135566051Y-75442051D01*
X135695480Y-75335831D01*
X135843145Y-75256903D01*
X136003370Y-75208299D01*
X136128248Y-75196000D01*
X136211752Y-75196000D01*
X136336630Y-75208299D01*
X136336630Y-75208299D01*
G37*
G36*
X133796630Y-75208299D02*
X133956855Y-75256903D01*
X134104520Y-75335831D01*
X134233949Y-75442051D01*
X134340169Y-75571480D01*
X134419097Y-75719145D01*
X134467701Y-75879370D01*
X134484112Y-76046000D01*
X134467701Y-76212630D01*
X134419097Y-76372855D01*
X134340169Y-76520520D01*
X134233949Y-76649949D01*
X134104520Y-76756169D01*
X133956855Y-76835097D01*
X133796630Y-76883701D01*
X133671752Y-76896000D01*
X133588248Y-76896000D01*
X133463370Y-76883701D01*
X133303145Y-76835097D01*
X133155480Y-76756169D01*
X133026051Y-76649949D01*
X132919831Y-76520520D01*
X132840903Y-76372855D01*
X132792299Y-76212630D01*
X132775888Y-76046000D01*
X132792299Y-75879370D01*
X132840903Y-75719145D01*
X132919831Y-75571480D01*
X133026051Y-75442051D01*
X133155480Y-75335831D01*
X133303145Y-75256903D01*
X133463370Y-75208299D01*
X133588248Y-75196000D01*
X133671752Y-75196000D01*
X133796630Y-75208299D01*
X133796630Y-75208299D01*
G37*
G36*
X159196630Y-75208299D02*
X159356855Y-75256903D01*
X159504520Y-75335831D01*
X159633949Y-75442051D01*
X159740169Y-75571480D01*
X159819097Y-75719145D01*
X159867701Y-75879370D01*
X159884112Y-76046000D01*
X159867701Y-76212630D01*
X159819097Y-76372855D01*
X159740169Y-76520520D01*
X159633949Y-76649949D01*
X159504520Y-76756169D01*
X159356855Y-76835097D01*
X159196630Y-76883701D01*
X159071752Y-76896000D01*
X158988248Y-76896000D01*
X158863370Y-76883701D01*
X158703145Y-76835097D01*
X158555480Y-76756169D01*
X158426051Y-76649949D01*
X158319831Y-76520520D01*
X158240903Y-76372855D01*
X158192299Y-76212630D01*
X158175888Y-76046000D01*
X158192299Y-75879370D01*
X158240903Y-75719145D01*
X158319831Y-75571480D01*
X158426051Y-75442051D01*
X158555480Y-75335831D01*
X158703145Y-75256903D01*
X158863370Y-75208299D01*
X158988248Y-75196000D01*
X159071752Y-75196000D01*
X159196630Y-75208299D01*
X159196630Y-75208299D01*
G37*
G36*
X146496630Y-75208299D02*
X146656855Y-75256903D01*
X146804520Y-75335831D01*
X146933949Y-75442051D01*
X147040169Y-75571480D01*
X147119097Y-75719145D01*
X147167701Y-75879370D01*
X147184112Y-76046000D01*
X147167701Y-76212630D01*
X147119097Y-76372855D01*
X147040169Y-76520520D01*
X146933949Y-76649949D01*
X146804520Y-76756169D01*
X146656855Y-76835097D01*
X146496630Y-76883701D01*
X146371752Y-76896000D01*
X146288248Y-76896000D01*
X146163370Y-76883701D01*
X146003145Y-76835097D01*
X145855480Y-76756169D01*
X145726051Y-76649949D01*
X145619831Y-76520520D01*
X145540903Y-76372855D01*
X145492299Y-76212630D01*
X145475888Y-76046000D01*
X145492299Y-75879370D01*
X145540903Y-75719145D01*
X145619831Y-75571480D01*
X145726051Y-75442051D01*
X145855480Y-75335831D01*
X146003145Y-75256903D01*
X146163370Y-75208299D01*
X146288248Y-75196000D01*
X146371752Y-75196000D01*
X146496630Y-75208299D01*
X146496630Y-75208299D01*
G37*
G36*
X161736630Y-75208299D02*
X161896855Y-75256903D01*
X162044520Y-75335831D01*
X162173949Y-75442051D01*
X162280169Y-75571480D01*
X162359097Y-75719145D01*
X162407701Y-75879370D01*
X162424112Y-76046000D01*
X162407701Y-76212630D01*
X162359097Y-76372855D01*
X162280169Y-76520520D01*
X162173949Y-76649949D01*
X162044520Y-76756169D01*
X161896855Y-76835097D01*
X161736630Y-76883701D01*
X161611752Y-76896000D01*
X161528248Y-76896000D01*
X161403370Y-76883701D01*
X161243145Y-76835097D01*
X161095480Y-76756169D01*
X160966051Y-76649949D01*
X160859831Y-76520520D01*
X160780903Y-76372855D01*
X160732299Y-76212630D01*
X160715888Y-76046000D01*
X160732299Y-75879370D01*
X160780903Y-75719145D01*
X160859831Y-75571480D01*
X160966051Y-75442051D01*
X161095480Y-75335831D01*
X161243145Y-75256903D01*
X161403370Y-75208299D01*
X161528248Y-75196000D01*
X161611752Y-75196000D01*
X161736630Y-75208299D01*
X161736630Y-75208299D01*
G37*
G36*
X143956630Y-75208299D02*
X144116855Y-75256903D01*
X144264520Y-75335831D01*
X144393949Y-75442051D01*
X144500169Y-75571480D01*
X144579097Y-75719145D01*
X144627701Y-75879370D01*
X144644112Y-76046000D01*
X144627701Y-76212630D01*
X144579097Y-76372855D01*
X144500169Y-76520520D01*
X144393949Y-76649949D01*
X144264520Y-76756169D01*
X144116855Y-76835097D01*
X143956630Y-76883701D01*
X143831752Y-76896000D01*
X143748248Y-76896000D01*
X143623370Y-76883701D01*
X143463145Y-76835097D01*
X143315480Y-76756169D01*
X143186051Y-76649949D01*
X143079831Y-76520520D01*
X143000903Y-76372855D01*
X142952299Y-76212630D01*
X142935888Y-76046000D01*
X142952299Y-75879370D01*
X143000903Y-75719145D01*
X143079831Y-75571480D01*
X143186051Y-75442051D01*
X143315480Y-75335831D01*
X143463145Y-75256903D01*
X143623370Y-75208299D01*
X143748248Y-75196000D01*
X143831752Y-75196000D01*
X143956630Y-75208299D01*
X143956630Y-75208299D01*
G37*
G36*
X141416630Y-75208299D02*
X141576855Y-75256903D01*
X141724520Y-75335831D01*
X141853949Y-75442051D01*
X141960169Y-75571480D01*
X142039097Y-75719145D01*
X142087701Y-75879370D01*
X142104112Y-76046000D01*
X142087701Y-76212630D01*
X142039097Y-76372855D01*
X141960169Y-76520520D01*
X141853949Y-76649949D01*
X141724520Y-76756169D01*
X141576855Y-76835097D01*
X141416630Y-76883701D01*
X141291752Y-76896000D01*
X141208248Y-76896000D01*
X141083370Y-76883701D01*
X140923145Y-76835097D01*
X140775480Y-76756169D01*
X140646051Y-76649949D01*
X140539831Y-76520520D01*
X140460903Y-76372855D01*
X140412299Y-76212630D01*
X140395888Y-76046000D01*
X140412299Y-75879370D01*
X140460903Y-75719145D01*
X140539831Y-75571480D01*
X140646051Y-75442051D01*
X140775480Y-75335831D01*
X140923145Y-75256903D01*
X141083370Y-75208299D01*
X141208248Y-75196000D01*
X141291752Y-75196000D01*
X141416630Y-75208299D01*
X141416630Y-75208299D01*
G37*
G36*
X128716630Y-75208299D02*
X128876855Y-75256903D01*
X129024520Y-75335831D01*
X129153949Y-75442051D01*
X129260169Y-75571480D01*
X129339097Y-75719145D01*
X129387701Y-75879370D01*
X129404112Y-76046000D01*
X129387701Y-76212630D01*
X129339097Y-76372855D01*
X129260169Y-76520520D01*
X129153949Y-76649949D01*
X129024520Y-76756169D01*
X128876855Y-76835097D01*
X128716630Y-76883701D01*
X128591752Y-76896000D01*
X128508248Y-76896000D01*
X128383370Y-76883701D01*
X128223145Y-76835097D01*
X128075480Y-76756169D01*
X127946051Y-76649949D01*
X127839831Y-76520520D01*
X127760903Y-76372855D01*
X127712299Y-76212630D01*
X127695888Y-76046000D01*
X127712299Y-75879370D01*
X127760903Y-75719145D01*
X127839831Y-75571480D01*
X127946051Y-75442051D01*
X128075480Y-75335831D01*
X128223145Y-75256903D01*
X128383370Y-75208299D01*
X128508248Y-75196000D01*
X128591752Y-75196000D01*
X128716630Y-75208299D01*
X128716630Y-75208299D01*
G37*
G36*
X161736630Y-72668299D02*
X161896855Y-72716903D01*
X162044520Y-72795831D01*
X162173949Y-72902051D01*
X162280169Y-73031480D01*
X162359097Y-73179145D01*
X162407701Y-73339370D01*
X162424112Y-73506000D01*
X162407701Y-73672630D01*
X162359097Y-73832855D01*
X162280169Y-73980520D01*
X162173949Y-74109949D01*
X162044520Y-74216169D01*
X161896855Y-74295097D01*
X161736630Y-74343701D01*
X161611752Y-74356000D01*
X161528248Y-74356000D01*
X161403370Y-74343701D01*
X161243145Y-74295097D01*
X161095480Y-74216169D01*
X160966051Y-74109949D01*
X160859831Y-73980520D01*
X160780903Y-73832855D01*
X160732299Y-73672630D01*
X160715888Y-73506000D01*
X160732299Y-73339370D01*
X160780903Y-73179145D01*
X160859831Y-73031480D01*
X160966051Y-72902051D01*
X161095480Y-72795831D01*
X161243145Y-72716903D01*
X161403370Y-72668299D01*
X161528248Y-72656000D01*
X161611752Y-72656000D01*
X161736630Y-72668299D01*
X161736630Y-72668299D01*
G37*
G36*
X159196630Y-72668299D02*
X159356855Y-72716903D01*
X159504520Y-72795831D01*
X159633949Y-72902051D01*
X159740169Y-73031480D01*
X159819097Y-73179145D01*
X159867701Y-73339370D01*
X159884112Y-73506000D01*
X159867701Y-73672630D01*
X159819097Y-73832855D01*
X159740169Y-73980520D01*
X159633949Y-74109949D01*
X159504520Y-74216169D01*
X159356855Y-74295097D01*
X159196630Y-74343701D01*
X159071752Y-74356000D01*
X158988248Y-74356000D01*
X158863370Y-74343701D01*
X158703145Y-74295097D01*
X158555480Y-74216169D01*
X158426051Y-74109949D01*
X158319831Y-73980520D01*
X158240903Y-73832855D01*
X158192299Y-73672630D01*
X158175888Y-73506000D01*
X158192299Y-73339370D01*
X158240903Y-73179145D01*
X158319831Y-73031480D01*
X158426051Y-72902051D01*
X158555480Y-72795831D01*
X158703145Y-72716903D01*
X158863370Y-72668299D01*
X158988248Y-72656000D01*
X159071752Y-72656000D01*
X159196630Y-72668299D01*
X159196630Y-72668299D01*
G37*
G36*
X121096630Y-72668299D02*
X121256855Y-72716903D01*
X121404520Y-72795831D01*
X121533949Y-72902051D01*
X121640169Y-73031480D01*
X121719097Y-73179145D01*
X121767701Y-73339370D01*
X121784112Y-73506000D01*
X121767701Y-73672630D01*
X121719097Y-73832855D01*
X121640169Y-73980520D01*
X121533949Y-74109949D01*
X121404520Y-74216169D01*
X121256855Y-74295097D01*
X121096630Y-74343701D01*
X120971752Y-74356000D01*
X120888248Y-74356000D01*
X120763370Y-74343701D01*
X120603145Y-74295097D01*
X120455480Y-74216169D01*
X120326051Y-74109949D01*
X120219831Y-73980520D01*
X120140903Y-73832855D01*
X120092299Y-73672630D01*
X120075888Y-73506000D01*
X120092299Y-73339370D01*
X120140903Y-73179145D01*
X120219831Y-73031480D01*
X120326051Y-72902051D01*
X120455480Y-72795831D01*
X120603145Y-72716903D01*
X120763370Y-72668299D01*
X120888248Y-72656000D01*
X120971752Y-72656000D01*
X121096630Y-72668299D01*
X121096630Y-72668299D01*
G37*
G36*
X123636630Y-72668299D02*
X123796855Y-72716903D01*
X123944520Y-72795831D01*
X124073949Y-72902051D01*
X124180169Y-73031480D01*
X124259097Y-73179145D01*
X124307701Y-73339370D01*
X124324112Y-73506000D01*
X124307701Y-73672630D01*
X124259097Y-73832855D01*
X124180169Y-73980520D01*
X124073949Y-74109949D01*
X123944520Y-74216169D01*
X123796855Y-74295097D01*
X123636630Y-74343701D01*
X123511752Y-74356000D01*
X123428248Y-74356000D01*
X123303370Y-74343701D01*
X123143145Y-74295097D01*
X122995480Y-74216169D01*
X122866051Y-74109949D01*
X122759831Y-73980520D01*
X122680903Y-73832855D01*
X122632299Y-73672630D01*
X122615888Y-73506000D01*
X122632299Y-73339370D01*
X122680903Y-73179145D01*
X122759831Y-73031480D01*
X122866051Y-72902051D01*
X122995480Y-72795831D01*
X123143145Y-72716903D01*
X123303370Y-72668299D01*
X123428248Y-72656000D01*
X123511752Y-72656000D01*
X123636630Y-72668299D01*
X123636630Y-72668299D01*
G37*
G36*
X126176630Y-72668299D02*
X126336855Y-72716903D01*
X126484520Y-72795831D01*
X126613949Y-72902051D01*
X126720169Y-73031480D01*
X126799097Y-73179145D01*
X126847701Y-73339370D01*
X126864112Y-73506000D01*
X126847701Y-73672630D01*
X126799097Y-73832855D01*
X126720169Y-73980520D01*
X126613949Y-74109949D01*
X126484520Y-74216169D01*
X126336855Y-74295097D01*
X126176630Y-74343701D01*
X126051752Y-74356000D01*
X125968248Y-74356000D01*
X125843370Y-74343701D01*
X125683145Y-74295097D01*
X125535480Y-74216169D01*
X125406051Y-74109949D01*
X125299831Y-73980520D01*
X125220903Y-73832855D01*
X125172299Y-73672630D01*
X125155888Y-73506000D01*
X125172299Y-73339370D01*
X125220903Y-73179145D01*
X125299831Y-73031480D01*
X125406051Y-72902051D01*
X125535480Y-72795831D01*
X125683145Y-72716903D01*
X125843370Y-72668299D01*
X125968248Y-72656000D01*
X126051752Y-72656000D01*
X126176630Y-72668299D01*
X126176630Y-72668299D01*
G37*
G36*
X128716630Y-72668299D02*
X128876855Y-72716903D01*
X129024520Y-72795831D01*
X129153949Y-72902051D01*
X129260169Y-73031480D01*
X129339097Y-73179145D01*
X129387701Y-73339370D01*
X129404112Y-73506000D01*
X129387701Y-73672630D01*
X129339097Y-73832855D01*
X129260169Y-73980520D01*
X129153949Y-74109949D01*
X129024520Y-74216169D01*
X128876855Y-74295097D01*
X128716630Y-74343701D01*
X128591752Y-74356000D01*
X128508248Y-74356000D01*
X128383370Y-74343701D01*
X128223145Y-74295097D01*
X128075480Y-74216169D01*
X127946051Y-74109949D01*
X127839831Y-73980520D01*
X127760903Y-73832855D01*
X127712299Y-73672630D01*
X127695888Y-73506000D01*
X127712299Y-73339370D01*
X127760903Y-73179145D01*
X127839831Y-73031480D01*
X127946051Y-72902051D01*
X128075480Y-72795831D01*
X128223145Y-72716903D01*
X128383370Y-72668299D01*
X128508248Y-72656000D01*
X128591752Y-72656000D01*
X128716630Y-72668299D01*
X128716630Y-72668299D01*
G37*
G36*
X131256630Y-72668299D02*
X131416855Y-72716903D01*
X131564520Y-72795831D01*
X131693949Y-72902051D01*
X131800169Y-73031480D01*
X131879097Y-73179145D01*
X131927701Y-73339370D01*
X131944112Y-73506000D01*
X131927701Y-73672630D01*
X131879097Y-73832855D01*
X131800169Y-73980520D01*
X131693949Y-74109949D01*
X131564520Y-74216169D01*
X131416855Y-74295097D01*
X131256630Y-74343701D01*
X131131752Y-74356000D01*
X131048248Y-74356000D01*
X130923370Y-74343701D01*
X130763145Y-74295097D01*
X130615480Y-74216169D01*
X130486051Y-74109949D01*
X130379831Y-73980520D01*
X130300903Y-73832855D01*
X130252299Y-73672630D01*
X130235888Y-73506000D01*
X130252299Y-73339370D01*
X130300903Y-73179145D01*
X130379831Y-73031480D01*
X130486051Y-72902051D01*
X130615480Y-72795831D01*
X130763145Y-72716903D01*
X130923370Y-72668299D01*
X131048248Y-72656000D01*
X131131752Y-72656000D01*
X131256630Y-72668299D01*
X131256630Y-72668299D01*
G37*
G36*
X133796630Y-72668299D02*
X133956855Y-72716903D01*
X134104520Y-72795831D01*
X134233949Y-72902051D01*
X134340169Y-73031480D01*
X134419097Y-73179145D01*
X134467701Y-73339370D01*
X134484112Y-73506000D01*
X134467701Y-73672630D01*
X134419097Y-73832855D01*
X134340169Y-73980520D01*
X134233949Y-74109949D01*
X134104520Y-74216169D01*
X133956855Y-74295097D01*
X133796630Y-74343701D01*
X133671752Y-74356000D01*
X133588248Y-74356000D01*
X133463370Y-74343701D01*
X133303145Y-74295097D01*
X133155480Y-74216169D01*
X133026051Y-74109949D01*
X132919831Y-73980520D01*
X132840903Y-73832855D01*
X132792299Y-73672630D01*
X132775888Y-73506000D01*
X132792299Y-73339370D01*
X132840903Y-73179145D01*
X132919831Y-73031480D01*
X133026051Y-72902051D01*
X133155480Y-72795831D01*
X133303145Y-72716903D01*
X133463370Y-72668299D01*
X133588248Y-72656000D01*
X133671752Y-72656000D01*
X133796630Y-72668299D01*
X133796630Y-72668299D01*
G37*
G36*
X118556630Y-72668299D02*
X118716855Y-72716903D01*
X118864520Y-72795831D01*
X118993949Y-72902051D01*
X119100169Y-73031480D01*
X119179097Y-73179145D01*
X119227701Y-73339370D01*
X119244112Y-73506000D01*
X119227701Y-73672630D01*
X119179097Y-73832855D01*
X119100169Y-73980520D01*
X118993949Y-74109949D01*
X118864520Y-74216169D01*
X118716855Y-74295097D01*
X118556630Y-74343701D01*
X118431752Y-74356000D01*
X118348248Y-74356000D01*
X118223370Y-74343701D01*
X118063145Y-74295097D01*
X117915480Y-74216169D01*
X117786051Y-74109949D01*
X117679831Y-73980520D01*
X117600903Y-73832855D01*
X117552299Y-73672630D01*
X117535888Y-73506000D01*
X117552299Y-73339370D01*
X117600903Y-73179145D01*
X117679831Y-73031480D01*
X117786051Y-72902051D01*
X117915480Y-72795831D01*
X118063145Y-72716903D01*
X118223370Y-72668299D01*
X118348248Y-72656000D01*
X118431752Y-72656000D01*
X118556630Y-72668299D01*
X118556630Y-72668299D01*
G37*
G36*
X138876630Y-72668299D02*
X139036855Y-72716903D01*
X139184520Y-72795831D01*
X139313949Y-72902051D01*
X139420169Y-73031480D01*
X139499097Y-73179145D01*
X139547701Y-73339370D01*
X139564112Y-73506000D01*
X139547701Y-73672630D01*
X139499097Y-73832855D01*
X139420169Y-73980520D01*
X139313949Y-74109949D01*
X139184520Y-74216169D01*
X139036855Y-74295097D01*
X138876630Y-74343701D01*
X138751752Y-74356000D01*
X138668248Y-74356000D01*
X138543370Y-74343701D01*
X138383145Y-74295097D01*
X138235480Y-74216169D01*
X138106051Y-74109949D01*
X137999831Y-73980520D01*
X137920903Y-73832855D01*
X137872299Y-73672630D01*
X137855888Y-73506000D01*
X137872299Y-73339370D01*
X137920903Y-73179145D01*
X137999831Y-73031480D01*
X138106051Y-72902051D01*
X138235480Y-72795831D01*
X138383145Y-72716903D01*
X138543370Y-72668299D01*
X138668248Y-72656000D01*
X138751752Y-72656000D01*
X138876630Y-72668299D01*
X138876630Y-72668299D01*
G37*
G36*
X141416630Y-72668299D02*
X141576855Y-72716903D01*
X141724520Y-72795831D01*
X141853949Y-72902051D01*
X141960169Y-73031480D01*
X142039097Y-73179145D01*
X142087701Y-73339370D01*
X142104112Y-73506000D01*
X142087701Y-73672630D01*
X142039097Y-73832855D01*
X141960169Y-73980520D01*
X141853949Y-74109949D01*
X141724520Y-74216169D01*
X141576855Y-74295097D01*
X141416630Y-74343701D01*
X141291752Y-74356000D01*
X141208248Y-74356000D01*
X141083370Y-74343701D01*
X140923145Y-74295097D01*
X140775480Y-74216169D01*
X140646051Y-74109949D01*
X140539831Y-73980520D01*
X140460903Y-73832855D01*
X140412299Y-73672630D01*
X140395888Y-73506000D01*
X140412299Y-73339370D01*
X140460903Y-73179145D01*
X140539831Y-73031480D01*
X140646051Y-72902051D01*
X140775480Y-72795831D01*
X140923145Y-72716903D01*
X141083370Y-72668299D01*
X141208248Y-72656000D01*
X141291752Y-72656000D01*
X141416630Y-72668299D01*
X141416630Y-72668299D01*
G37*
G36*
X143956630Y-72668299D02*
X144116855Y-72716903D01*
X144264520Y-72795831D01*
X144393949Y-72902051D01*
X144500169Y-73031480D01*
X144579097Y-73179145D01*
X144627701Y-73339370D01*
X144644112Y-73506000D01*
X144627701Y-73672630D01*
X144579097Y-73832855D01*
X144500169Y-73980520D01*
X144393949Y-74109949D01*
X144264520Y-74216169D01*
X144116855Y-74295097D01*
X143956630Y-74343701D01*
X143831752Y-74356000D01*
X143748248Y-74356000D01*
X143623370Y-74343701D01*
X143463145Y-74295097D01*
X143315480Y-74216169D01*
X143186051Y-74109949D01*
X143079831Y-73980520D01*
X143000903Y-73832855D01*
X142952299Y-73672630D01*
X142935888Y-73506000D01*
X142952299Y-73339370D01*
X143000903Y-73179145D01*
X143079831Y-73031480D01*
X143186051Y-72902051D01*
X143315480Y-72795831D01*
X143463145Y-72716903D01*
X143623370Y-72668299D01*
X143748248Y-72656000D01*
X143831752Y-72656000D01*
X143956630Y-72668299D01*
X143956630Y-72668299D01*
G37*
G36*
X146496630Y-72668299D02*
X146656855Y-72716903D01*
X146804520Y-72795831D01*
X146933949Y-72902051D01*
X147040169Y-73031480D01*
X147119097Y-73179145D01*
X147167701Y-73339370D01*
X147184112Y-73506000D01*
X147167701Y-73672630D01*
X147119097Y-73832855D01*
X147040169Y-73980520D01*
X146933949Y-74109949D01*
X146804520Y-74216169D01*
X146656855Y-74295097D01*
X146496630Y-74343701D01*
X146371752Y-74356000D01*
X146288248Y-74356000D01*
X146163370Y-74343701D01*
X146003145Y-74295097D01*
X145855480Y-74216169D01*
X145726051Y-74109949D01*
X145619831Y-73980520D01*
X145540903Y-73832855D01*
X145492299Y-73672630D01*
X145475888Y-73506000D01*
X145492299Y-73339370D01*
X145540903Y-73179145D01*
X145619831Y-73031480D01*
X145726051Y-72902051D01*
X145855480Y-72795831D01*
X146003145Y-72716903D01*
X146163370Y-72668299D01*
X146288248Y-72656000D01*
X146371752Y-72656000D01*
X146496630Y-72668299D01*
X146496630Y-72668299D01*
G37*
G36*
X149036630Y-72668299D02*
X149196855Y-72716903D01*
X149344520Y-72795831D01*
X149473949Y-72902051D01*
X149580169Y-73031480D01*
X149659097Y-73179145D01*
X149707701Y-73339370D01*
X149724112Y-73506000D01*
X149707701Y-73672630D01*
X149659097Y-73832855D01*
X149580169Y-73980520D01*
X149473949Y-74109949D01*
X149344520Y-74216169D01*
X149196855Y-74295097D01*
X149036630Y-74343701D01*
X148911752Y-74356000D01*
X148828248Y-74356000D01*
X148703370Y-74343701D01*
X148543145Y-74295097D01*
X148395480Y-74216169D01*
X148266051Y-74109949D01*
X148159831Y-73980520D01*
X148080903Y-73832855D01*
X148032299Y-73672630D01*
X148015888Y-73506000D01*
X148032299Y-73339370D01*
X148080903Y-73179145D01*
X148159831Y-73031480D01*
X148266051Y-72902051D01*
X148395480Y-72795831D01*
X148543145Y-72716903D01*
X148703370Y-72668299D01*
X148828248Y-72656000D01*
X148911752Y-72656000D01*
X149036630Y-72668299D01*
X149036630Y-72668299D01*
G37*
G36*
X151576630Y-72668299D02*
X151736855Y-72716903D01*
X151884520Y-72795831D01*
X152013949Y-72902051D01*
X152120169Y-73031480D01*
X152199097Y-73179145D01*
X152247701Y-73339370D01*
X152264112Y-73506000D01*
X152247701Y-73672630D01*
X152199097Y-73832855D01*
X152120169Y-73980520D01*
X152013949Y-74109949D01*
X151884520Y-74216169D01*
X151736855Y-74295097D01*
X151576630Y-74343701D01*
X151451752Y-74356000D01*
X151368248Y-74356000D01*
X151243370Y-74343701D01*
X151083145Y-74295097D01*
X150935480Y-74216169D01*
X150806051Y-74109949D01*
X150699831Y-73980520D01*
X150620903Y-73832855D01*
X150572299Y-73672630D01*
X150555888Y-73506000D01*
X150572299Y-73339370D01*
X150620903Y-73179145D01*
X150699831Y-73031480D01*
X150806051Y-72902051D01*
X150935480Y-72795831D01*
X151083145Y-72716903D01*
X151243370Y-72668299D01*
X151368248Y-72656000D01*
X151451752Y-72656000D01*
X151576630Y-72668299D01*
X151576630Y-72668299D01*
G37*
G36*
X154116630Y-72668299D02*
X154276855Y-72716903D01*
X154424520Y-72795831D01*
X154553949Y-72902051D01*
X154660169Y-73031480D01*
X154739097Y-73179145D01*
X154787701Y-73339370D01*
X154804112Y-73506000D01*
X154787701Y-73672630D01*
X154739097Y-73832855D01*
X154660169Y-73980520D01*
X154553949Y-74109949D01*
X154424520Y-74216169D01*
X154276855Y-74295097D01*
X154116630Y-74343701D01*
X153991752Y-74356000D01*
X153908248Y-74356000D01*
X153783370Y-74343701D01*
X153623145Y-74295097D01*
X153475480Y-74216169D01*
X153346051Y-74109949D01*
X153239831Y-73980520D01*
X153160903Y-73832855D01*
X153112299Y-73672630D01*
X153095888Y-73506000D01*
X153112299Y-73339370D01*
X153160903Y-73179145D01*
X153239831Y-73031480D01*
X153346051Y-72902051D01*
X153475480Y-72795831D01*
X153623145Y-72716903D01*
X153783370Y-72668299D01*
X153908248Y-72656000D01*
X153991752Y-72656000D01*
X154116630Y-72668299D01*
X154116630Y-72668299D01*
G37*
G36*
X113476630Y-72668299D02*
X113636855Y-72716903D01*
X113784520Y-72795831D01*
X113913949Y-72902051D01*
X114020169Y-73031480D01*
X114099097Y-73179145D01*
X114147701Y-73339370D01*
X114164112Y-73506000D01*
X114147701Y-73672630D01*
X114099097Y-73832855D01*
X114020169Y-73980520D01*
X113913949Y-74109949D01*
X113784520Y-74216169D01*
X113636855Y-74295097D01*
X113476630Y-74343701D01*
X113351752Y-74356000D01*
X113268248Y-74356000D01*
X113143370Y-74343701D01*
X112983145Y-74295097D01*
X112835480Y-74216169D01*
X112706051Y-74109949D01*
X112599831Y-73980520D01*
X112520903Y-73832855D01*
X112472299Y-73672630D01*
X112455888Y-73506000D01*
X112472299Y-73339370D01*
X112520903Y-73179145D01*
X112599831Y-73031480D01*
X112706051Y-72902051D01*
X112835480Y-72795831D01*
X112983145Y-72716903D01*
X113143370Y-72668299D01*
X113268248Y-72656000D01*
X113351752Y-72656000D01*
X113476630Y-72668299D01*
X113476630Y-72668299D01*
G37*
G36*
X116016630Y-72668299D02*
X116176855Y-72716903D01*
X116324520Y-72795831D01*
X116453949Y-72902051D01*
X116560169Y-73031480D01*
X116639097Y-73179145D01*
X116687701Y-73339370D01*
X116704112Y-73506000D01*
X116687701Y-73672630D01*
X116639097Y-73832855D01*
X116560169Y-73980520D01*
X116453949Y-74109949D01*
X116324520Y-74216169D01*
X116176855Y-74295097D01*
X116016630Y-74343701D01*
X115891752Y-74356000D01*
X115808248Y-74356000D01*
X115683370Y-74343701D01*
X115523145Y-74295097D01*
X115375480Y-74216169D01*
X115246051Y-74109949D01*
X115139831Y-73980520D01*
X115060903Y-73832855D01*
X115012299Y-73672630D01*
X114995888Y-73506000D01*
X115012299Y-73339370D01*
X115060903Y-73179145D01*
X115139831Y-73031480D01*
X115246051Y-72902051D01*
X115375480Y-72795831D01*
X115523145Y-72716903D01*
X115683370Y-72668299D01*
X115808248Y-72656000D01*
X115891752Y-72656000D01*
X116016630Y-72668299D01*
X116016630Y-72668299D01*
G37*
G36*
X136336630Y-72668299D02*
X136496855Y-72716903D01*
X136644520Y-72795831D01*
X136773949Y-72902051D01*
X136880169Y-73031480D01*
X136959097Y-73179145D01*
X137007701Y-73339370D01*
X137024112Y-73506000D01*
X137007701Y-73672630D01*
X136959097Y-73832855D01*
X136880169Y-73980520D01*
X136773949Y-74109949D01*
X136644520Y-74216169D01*
X136496855Y-74295097D01*
X136336630Y-74343701D01*
X136211752Y-74356000D01*
X136128248Y-74356000D01*
X136003370Y-74343701D01*
X135843145Y-74295097D01*
X135695480Y-74216169D01*
X135566051Y-74109949D01*
X135459831Y-73980520D01*
X135380903Y-73832855D01*
X135332299Y-73672630D01*
X135315888Y-73506000D01*
X135332299Y-73339370D01*
X135380903Y-73179145D01*
X135459831Y-73031480D01*
X135566051Y-72902051D01*
X135695480Y-72795831D01*
X135843145Y-72716903D01*
X136003370Y-72668299D01*
X136128248Y-72656000D01*
X136211752Y-72656000D01*
X136336630Y-72668299D01*
X136336630Y-72668299D01*
G37*
G36*
X156656630Y-72668299D02*
X156816855Y-72716903D01*
X156964520Y-72795831D01*
X157093949Y-72902051D01*
X157200169Y-73031480D01*
X157279097Y-73179145D01*
X157327701Y-73339370D01*
X157344112Y-73506000D01*
X157327701Y-73672630D01*
X157279097Y-73832855D01*
X157200169Y-73980520D01*
X157093949Y-74109949D01*
X156964520Y-74216169D01*
X156816855Y-74295097D01*
X156656630Y-74343701D01*
X156531752Y-74356000D01*
X156448248Y-74356000D01*
X156323370Y-74343701D01*
X156163145Y-74295097D01*
X156015480Y-74216169D01*
X155886051Y-74109949D01*
X155779831Y-73980520D01*
X155700903Y-73832855D01*
X155652299Y-73672630D01*
X155635888Y-73506000D01*
X155652299Y-73339370D01*
X155700903Y-73179145D01*
X155779831Y-73031480D01*
X155886051Y-72902051D01*
X156015480Y-72795831D01*
X156163145Y-72716903D01*
X156323370Y-72668299D01*
X156448248Y-72656000D01*
X156531752Y-72656000D01*
X156656630Y-72668299D01*
X156656630Y-72668299D01*
G37*
M02*
