G04 #@! TF.GenerationSoftware,KiCad,Pcbnew,(5.0.1)-4*
G04 #@! TF.CreationDate,2019-01-24T22:07:47-05:00*
G04 #@! TF.ProjectId,cubesatsim_solar,6375626573617473696D5F736F6C6172,B1.1*
G04 #@! TF.SameCoordinates,Original*
G04 #@! TF.FileFunction,Soldermask,Bot*
G04 #@! TF.FilePolarity,Negative*
%FSLAX46Y46*%
G04 Gerber Fmt 4.6, Leading zero omitted, Abs format (unit mm)*
G04 Created by KiCad (PCBNEW (5.0.1)-4) date 1/24/2019 10:07:47 PM*
%MOMM*%
%LPD*%
G01*
G04 APERTURE LIST*
%ADD10C,0.100000*%
G04 APERTURE END LIST*
D10*
G36*
X173850000Y-139380000D02*
X172150000Y-139380000D01*
X172150000Y-137680000D01*
X173850000Y-137680000D01*
X173850000Y-139380000D01*
X173850000Y-139380000D01*
G37*
G36*
X109080000Y-139380000D02*
X107380000Y-139380000D01*
X107380000Y-137680000D01*
X109080000Y-137680000D01*
X109080000Y-139380000D01*
X109080000Y-139380000D01*
G37*
G36*
X108396630Y-135152299D02*
X108556855Y-135200903D01*
X108704520Y-135279831D01*
X108833949Y-135386051D01*
X108940169Y-135515480D01*
X109019097Y-135663145D01*
X109067701Y-135823370D01*
X109084112Y-135990000D01*
X109067701Y-136156630D01*
X109019097Y-136316855D01*
X108940169Y-136464520D01*
X108833949Y-136593949D01*
X108704520Y-136700169D01*
X108556855Y-136779097D01*
X108396630Y-136827701D01*
X108271752Y-136840000D01*
X108188248Y-136840000D01*
X108063370Y-136827701D01*
X107903145Y-136779097D01*
X107755480Y-136700169D01*
X107626051Y-136593949D01*
X107519831Y-136464520D01*
X107440903Y-136316855D01*
X107392299Y-136156630D01*
X107375888Y-135990000D01*
X107392299Y-135823370D01*
X107440903Y-135663145D01*
X107519831Y-135515480D01*
X107626051Y-135386051D01*
X107755480Y-135279831D01*
X107903145Y-135200903D01*
X108063370Y-135152299D01*
X108188248Y-135140000D01*
X108271752Y-135140000D01*
X108396630Y-135152299D01*
X108396630Y-135152299D01*
G37*
G36*
X173166630Y-135152299D02*
X173326855Y-135200903D01*
X173474520Y-135279831D01*
X173603949Y-135386051D01*
X173710169Y-135515480D01*
X173789097Y-135663145D01*
X173837701Y-135823370D01*
X173854112Y-135990000D01*
X173837701Y-136156630D01*
X173789097Y-136316855D01*
X173710169Y-136464520D01*
X173603949Y-136593949D01*
X173474520Y-136700169D01*
X173326855Y-136779097D01*
X173166630Y-136827701D01*
X173041752Y-136840000D01*
X172958248Y-136840000D01*
X172833370Y-136827701D01*
X172673145Y-136779097D01*
X172525480Y-136700169D01*
X172396051Y-136593949D01*
X172289831Y-136464520D01*
X172210903Y-136316855D01*
X172162299Y-136156630D01*
X172145888Y-135990000D01*
X172162299Y-135823370D01*
X172210903Y-135663145D01*
X172289831Y-135515480D01*
X172396051Y-135386051D01*
X172525480Y-135279831D01*
X172673145Y-135200903D01*
X172833370Y-135152299D01*
X172958248Y-135140000D01*
X173041752Y-135140000D01*
X173166630Y-135152299D01*
X173166630Y-135152299D01*
G37*
G36*
X143702630Y-133120299D02*
X143862855Y-133168903D01*
X144010520Y-133247831D01*
X144139949Y-133354051D01*
X144246169Y-133483480D01*
X144325097Y-133631145D01*
X144373701Y-133791370D01*
X144390112Y-133958000D01*
X144373701Y-134124630D01*
X144325097Y-134284855D01*
X144246169Y-134432520D01*
X144139949Y-134561949D01*
X144010520Y-134668169D01*
X143862855Y-134747097D01*
X143702630Y-134795701D01*
X143577752Y-134808000D01*
X143494248Y-134808000D01*
X143369370Y-134795701D01*
X143209145Y-134747097D01*
X143061480Y-134668169D01*
X142932051Y-134561949D01*
X142825831Y-134432520D01*
X142746903Y-134284855D01*
X142698299Y-134124630D01*
X142681888Y-133958000D01*
X142698299Y-133791370D01*
X142746903Y-133631145D01*
X142825831Y-133483480D01*
X142932051Y-133354051D01*
X143061480Y-133247831D01*
X143209145Y-133168903D01*
X143369370Y-133120299D01*
X143494248Y-133108000D01*
X143577752Y-133108000D01*
X143702630Y-133120299D01*
X143702630Y-133120299D01*
G37*
G36*
X152656130Y-133120299D02*
X152816355Y-133168903D01*
X152964020Y-133247831D01*
X153093449Y-133354051D01*
X153199669Y-133483480D01*
X153278597Y-133631145D01*
X153327201Y-133791370D01*
X153343612Y-133958000D01*
X153327201Y-134124630D01*
X153278597Y-134284855D01*
X153199669Y-134432520D01*
X153093449Y-134561949D01*
X152964020Y-134668169D01*
X152816355Y-134747097D01*
X152656130Y-134795701D01*
X152531252Y-134808000D01*
X152447748Y-134808000D01*
X152322870Y-134795701D01*
X152162645Y-134747097D01*
X152014980Y-134668169D01*
X151885551Y-134561949D01*
X151779331Y-134432520D01*
X151700403Y-134284855D01*
X151651799Y-134124630D01*
X151635388Y-133958000D01*
X151651799Y-133791370D01*
X151700403Y-133631145D01*
X151779331Y-133483480D01*
X151885551Y-133354051D01*
X152014980Y-133247831D01*
X152162645Y-133168903D01*
X152322870Y-133120299D01*
X152447748Y-133108000D01*
X152531252Y-133108000D01*
X152656130Y-133120299D01*
X152656130Y-133120299D01*
G37*
G36*
X161482630Y-133120299D02*
X161642855Y-133168903D01*
X161790520Y-133247831D01*
X161919949Y-133354051D01*
X162026169Y-133483480D01*
X162105097Y-133631145D01*
X162153701Y-133791370D01*
X162170112Y-133958000D01*
X162153701Y-134124630D01*
X162105097Y-134284855D01*
X162026169Y-134432520D01*
X161919949Y-134561949D01*
X161790520Y-134668169D01*
X161642855Y-134747097D01*
X161482630Y-134795701D01*
X161357752Y-134808000D01*
X161274248Y-134808000D01*
X161149370Y-134795701D01*
X160989145Y-134747097D01*
X160841480Y-134668169D01*
X160712051Y-134561949D01*
X160605831Y-134432520D01*
X160526903Y-134284855D01*
X160478299Y-134124630D01*
X160461888Y-133958000D01*
X160478299Y-133791370D01*
X160526903Y-133631145D01*
X160605831Y-133483480D01*
X160712051Y-133354051D01*
X160841480Y-133247831D01*
X160989145Y-133168903D01*
X161149370Y-133120299D01*
X161274248Y-133108000D01*
X161357752Y-133108000D01*
X161482630Y-133120299D01*
X161482630Y-133120299D01*
G37*
G36*
X125414630Y-133120299D02*
X125574855Y-133168903D01*
X125722520Y-133247831D01*
X125851949Y-133354051D01*
X125958169Y-133483480D01*
X126037097Y-133631145D01*
X126085701Y-133791370D01*
X126102112Y-133958000D01*
X126085701Y-134124630D01*
X126037097Y-134284855D01*
X125958169Y-134432520D01*
X125851949Y-134561949D01*
X125722520Y-134668169D01*
X125574855Y-134747097D01*
X125414630Y-134795701D01*
X125289752Y-134808000D01*
X125206248Y-134808000D01*
X125081370Y-134795701D01*
X124921145Y-134747097D01*
X124773480Y-134668169D01*
X124644051Y-134561949D01*
X124537831Y-134432520D01*
X124458903Y-134284855D01*
X124410299Y-134124630D01*
X124393888Y-133958000D01*
X124410299Y-133791370D01*
X124458903Y-133631145D01*
X124537831Y-133483480D01*
X124644051Y-133354051D01*
X124773480Y-133247831D01*
X124921145Y-133168903D01*
X125081370Y-133120299D01*
X125206248Y-133108000D01*
X125289752Y-133108000D01*
X125414630Y-133120299D01*
X125414630Y-133120299D01*
G37*
G36*
X134558630Y-132866299D02*
X134718855Y-132914903D01*
X134866520Y-132993831D01*
X134995949Y-133100051D01*
X135102169Y-133229480D01*
X135181097Y-133377145D01*
X135229701Y-133537370D01*
X135246112Y-133704000D01*
X135229701Y-133870630D01*
X135181097Y-134030855D01*
X135102169Y-134178520D01*
X134995949Y-134307949D01*
X134866520Y-134414169D01*
X134718855Y-134493097D01*
X134558630Y-134541701D01*
X134433752Y-134554000D01*
X134350248Y-134554000D01*
X134225370Y-134541701D01*
X134065145Y-134493097D01*
X133917480Y-134414169D01*
X133788051Y-134307949D01*
X133681831Y-134178520D01*
X133602903Y-134030855D01*
X133554299Y-133870630D01*
X133537888Y-133704000D01*
X133554299Y-133537370D01*
X133602903Y-133377145D01*
X133681831Y-133229480D01*
X133788051Y-133100051D01*
X133917480Y-132993831D01*
X134065145Y-132914903D01*
X134225370Y-132866299D01*
X134350248Y-132854000D01*
X134433752Y-132854000D01*
X134558630Y-132866299D01*
X134558630Y-132866299D01*
G37*
G36*
X116270630Y-132866299D02*
X116430855Y-132914903D01*
X116578520Y-132993831D01*
X116707949Y-133100051D01*
X116814169Y-133229480D01*
X116893097Y-133377145D01*
X116941701Y-133537370D01*
X116958112Y-133704000D01*
X116941701Y-133870630D01*
X116893097Y-134030855D01*
X116814169Y-134178520D01*
X116707949Y-134307949D01*
X116578520Y-134414169D01*
X116430855Y-134493097D01*
X116270630Y-134541701D01*
X116145752Y-134554000D01*
X116062248Y-134554000D01*
X115937370Y-134541701D01*
X115777145Y-134493097D01*
X115629480Y-134414169D01*
X115500051Y-134307949D01*
X115393831Y-134178520D01*
X115314903Y-134030855D01*
X115266299Y-133870630D01*
X115249888Y-133704000D01*
X115266299Y-133537370D01*
X115314903Y-133377145D01*
X115393831Y-133229480D01*
X115500051Y-133100051D01*
X115629480Y-132993831D01*
X115777145Y-132914903D01*
X115937370Y-132866299D01*
X116062248Y-132854000D01*
X116145752Y-132854000D01*
X116270630Y-132866299D01*
X116270630Y-132866299D01*
G37*
G36*
X108396630Y-132612299D02*
X108556855Y-132660903D01*
X108704520Y-132739831D01*
X108833949Y-132846051D01*
X108940169Y-132975480D01*
X109019097Y-133123145D01*
X109067701Y-133283370D01*
X109084112Y-133450000D01*
X109067701Y-133616630D01*
X109019097Y-133776855D01*
X108940169Y-133924520D01*
X108833949Y-134053949D01*
X108704520Y-134160169D01*
X108556855Y-134239097D01*
X108396630Y-134287701D01*
X108271752Y-134300000D01*
X108188248Y-134300000D01*
X108063370Y-134287701D01*
X107903145Y-134239097D01*
X107755480Y-134160169D01*
X107626051Y-134053949D01*
X107519831Y-133924520D01*
X107440903Y-133776855D01*
X107392299Y-133616630D01*
X107375888Y-133450000D01*
X107392299Y-133283370D01*
X107440903Y-133123145D01*
X107519831Y-132975480D01*
X107626051Y-132846051D01*
X107755480Y-132739831D01*
X107903145Y-132660903D01*
X108063370Y-132612299D01*
X108188248Y-132600000D01*
X108271752Y-132600000D01*
X108396630Y-132612299D01*
X108396630Y-132612299D01*
G37*
G36*
X173166630Y-132612299D02*
X173326855Y-132660903D01*
X173474520Y-132739831D01*
X173603949Y-132846051D01*
X173710169Y-132975480D01*
X173789097Y-133123145D01*
X173837701Y-133283370D01*
X173854112Y-133450000D01*
X173837701Y-133616630D01*
X173789097Y-133776855D01*
X173710169Y-133924520D01*
X173603949Y-134053949D01*
X173474520Y-134160169D01*
X173326855Y-134239097D01*
X173166630Y-134287701D01*
X173041752Y-134300000D01*
X172958248Y-134300000D01*
X172833370Y-134287701D01*
X172673145Y-134239097D01*
X172525480Y-134160169D01*
X172396051Y-134053949D01*
X172289831Y-133924520D01*
X172210903Y-133776855D01*
X172162299Y-133616630D01*
X172145888Y-133450000D01*
X172162299Y-133283370D01*
X172210903Y-133123145D01*
X172289831Y-132975480D01*
X172396051Y-132846051D01*
X172525480Y-132739831D01*
X172673145Y-132660903D01*
X172833370Y-132612299D01*
X172958248Y-132600000D01*
X173041752Y-132600000D01*
X173166630Y-132612299D01*
X173166630Y-132612299D01*
G37*
G36*
X161482630Y-130580299D02*
X161642855Y-130628903D01*
X161790520Y-130707831D01*
X161919949Y-130814051D01*
X162026169Y-130943480D01*
X162105097Y-131091145D01*
X162153701Y-131251370D01*
X162170112Y-131418000D01*
X162153701Y-131584630D01*
X162105097Y-131744855D01*
X162026169Y-131892520D01*
X161919949Y-132021949D01*
X161790520Y-132128169D01*
X161642855Y-132207097D01*
X161482630Y-132255701D01*
X161357752Y-132268000D01*
X161274248Y-132268000D01*
X161149370Y-132255701D01*
X160989145Y-132207097D01*
X160841480Y-132128169D01*
X160712051Y-132021949D01*
X160605831Y-131892520D01*
X160526903Y-131744855D01*
X160478299Y-131584630D01*
X160461888Y-131418000D01*
X160478299Y-131251370D01*
X160526903Y-131091145D01*
X160605831Y-130943480D01*
X160712051Y-130814051D01*
X160841480Y-130707831D01*
X160989145Y-130628903D01*
X161149370Y-130580299D01*
X161274248Y-130568000D01*
X161357752Y-130568000D01*
X161482630Y-130580299D01*
X161482630Y-130580299D01*
G37*
G36*
X143702630Y-130580299D02*
X143862855Y-130628903D01*
X144010520Y-130707831D01*
X144139949Y-130814051D01*
X144246169Y-130943480D01*
X144325097Y-131091145D01*
X144373701Y-131251370D01*
X144390112Y-131418000D01*
X144373701Y-131584630D01*
X144325097Y-131744855D01*
X144246169Y-131892520D01*
X144139949Y-132021949D01*
X144010520Y-132128169D01*
X143862855Y-132207097D01*
X143702630Y-132255701D01*
X143577752Y-132268000D01*
X143494248Y-132268000D01*
X143369370Y-132255701D01*
X143209145Y-132207097D01*
X143061480Y-132128169D01*
X142932051Y-132021949D01*
X142825831Y-131892520D01*
X142746903Y-131744855D01*
X142698299Y-131584630D01*
X142681888Y-131418000D01*
X142698299Y-131251370D01*
X142746903Y-131091145D01*
X142825831Y-130943480D01*
X142932051Y-130814051D01*
X143061480Y-130707831D01*
X143209145Y-130628903D01*
X143369370Y-130580299D01*
X143494248Y-130568000D01*
X143577752Y-130568000D01*
X143702630Y-130580299D01*
X143702630Y-130580299D01*
G37*
G36*
X125414630Y-130580299D02*
X125574855Y-130628903D01*
X125722520Y-130707831D01*
X125851949Y-130814051D01*
X125958169Y-130943480D01*
X126037097Y-131091145D01*
X126085701Y-131251370D01*
X126102112Y-131418000D01*
X126085701Y-131584630D01*
X126037097Y-131744855D01*
X125958169Y-131892520D01*
X125851949Y-132021949D01*
X125722520Y-132128169D01*
X125574855Y-132207097D01*
X125414630Y-132255701D01*
X125289752Y-132268000D01*
X125206248Y-132268000D01*
X125081370Y-132255701D01*
X124921145Y-132207097D01*
X124773480Y-132128169D01*
X124644051Y-132021949D01*
X124537831Y-131892520D01*
X124458903Y-131744855D01*
X124410299Y-131584630D01*
X124393888Y-131418000D01*
X124410299Y-131251370D01*
X124458903Y-131091145D01*
X124537831Y-130943480D01*
X124644051Y-130814051D01*
X124773480Y-130707831D01*
X124921145Y-130628903D01*
X125081370Y-130580299D01*
X125206248Y-130568000D01*
X125289752Y-130568000D01*
X125414630Y-130580299D01*
X125414630Y-130580299D01*
G37*
G36*
X152656130Y-130580299D02*
X152816355Y-130628903D01*
X152964020Y-130707831D01*
X153093449Y-130814051D01*
X153199669Y-130943480D01*
X153278597Y-131091145D01*
X153327201Y-131251370D01*
X153343612Y-131418000D01*
X153327201Y-131584630D01*
X153278597Y-131744855D01*
X153199669Y-131892520D01*
X153093449Y-132021949D01*
X152964020Y-132128169D01*
X152816355Y-132207097D01*
X152656130Y-132255701D01*
X152531252Y-132268000D01*
X152447748Y-132268000D01*
X152322870Y-132255701D01*
X152162645Y-132207097D01*
X152014980Y-132128169D01*
X151885551Y-132021949D01*
X151779331Y-131892520D01*
X151700403Y-131744855D01*
X151651799Y-131584630D01*
X151635388Y-131418000D01*
X151651799Y-131251370D01*
X151700403Y-131091145D01*
X151779331Y-130943480D01*
X151885551Y-130814051D01*
X152014980Y-130707831D01*
X152162645Y-130628903D01*
X152322870Y-130580299D01*
X152447748Y-130568000D01*
X152531252Y-130568000D01*
X152656130Y-130580299D01*
X152656130Y-130580299D01*
G37*
G36*
X116270630Y-130326299D02*
X116430855Y-130374903D01*
X116578520Y-130453831D01*
X116707949Y-130560051D01*
X116814169Y-130689480D01*
X116893097Y-130837145D01*
X116941701Y-130997370D01*
X116958112Y-131164000D01*
X116941701Y-131330630D01*
X116893097Y-131490855D01*
X116814169Y-131638520D01*
X116707949Y-131767949D01*
X116578520Y-131874169D01*
X116430855Y-131953097D01*
X116270630Y-132001701D01*
X116145752Y-132014000D01*
X116062248Y-132014000D01*
X115937370Y-132001701D01*
X115777145Y-131953097D01*
X115629480Y-131874169D01*
X115500051Y-131767949D01*
X115393831Y-131638520D01*
X115314903Y-131490855D01*
X115266299Y-131330630D01*
X115249888Y-131164000D01*
X115266299Y-130997370D01*
X115314903Y-130837145D01*
X115393831Y-130689480D01*
X115500051Y-130560051D01*
X115629480Y-130453831D01*
X115777145Y-130374903D01*
X115937370Y-130326299D01*
X116062248Y-130314000D01*
X116145752Y-130314000D01*
X116270630Y-130326299D01*
X116270630Y-130326299D01*
G37*
G36*
X134558630Y-130326299D02*
X134718855Y-130374903D01*
X134866520Y-130453831D01*
X134995949Y-130560051D01*
X135102169Y-130689480D01*
X135181097Y-130837145D01*
X135229701Y-130997370D01*
X135246112Y-131164000D01*
X135229701Y-131330630D01*
X135181097Y-131490855D01*
X135102169Y-131638520D01*
X134995949Y-131767949D01*
X134866520Y-131874169D01*
X134718855Y-131953097D01*
X134558630Y-132001701D01*
X134433752Y-132014000D01*
X134350248Y-132014000D01*
X134225370Y-132001701D01*
X134065145Y-131953097D01*
X133917480Y-131874169D01*
X133788051Y-131767949D01*
X133681831Y-131638520D01*
X133602903Y-131490855D01*
X133554299Y-131330630D01*
X133537888Y-131164000D01*
X133554299Y-130997370D01*
X133602903Y-130837145D01*
X133681831Y-130689480D01*
X133788051Y-130560051D01*
X133917480Y-130453831D01*
X134065145Y-130374903D01*
X134225370Y-130326299D01*
X134350248Y-130314000D01*
X134433752Y-130314000D01*
X134558630Y-130326299D01*
X134558630Y-130326299D01*
G37*
G36*
X108396630Y-130072299D02*
X108556855Y-130120903D01*
X108704520Y-130199831D01*
X108833949Y-130306051D01*
X108940169Y-130435480D01*
X109019097Y-130583145D01*
X109067701Y-130743370D01*
X109084112Y-130910000D01*
X109067701Y-131076630D01*
X109019097Y-131236855D01*
X108940169Y-131384520D01*
X108833949Y-131513949D01*
X108704520Y-131620169D01*
X108556855Y-131699097D01*
X108396630Y-131747701D01*
X108271752Y-131760000D01*
X108188248Y-131760000D01*
X108063370Y-131747701D01*
X107903145Y-131699097D01*
X107755480Y-131620169D01*
X107626051Y-131513949D01*
X107519831Y-131384520D01*
X107440903Y-131236855D01*
X107392299Y-131076630D01*
X107375888Y-130910000D01*
X107392299Y-130743370D01*
X107440903Y-130583145D01*
X107519831Y-130435480D01*
X107626051Y-130306051D01*
X107755480Y-130199831D01*
X107903145Y-130120903D01*
X108063370Y-130072299D01*
X108188248Y-130060000D01*
X108271752Y-130060000D01*
X108396630Y-130072299D01*
X108396630Y-130072299D01*
G37*
G36*
X173166630Y-130072299D02*
X173326855Y-130120903D01*
X173474520Y-130199831D01*
X173603949Y-130306051D01*
X173710169Y-130435480D01*
X173789097Y-130583145D01*
X173837701Y-130743370D01*
X173854112Y-130910000D01*
X173837701Y-131076630D01*
X173789097Y-131236855D01*
X173710169Y-131384520D01*
X173603949Y-131513949D01*
X173474520Y-131620169D01*
X173326855Y-131699097D01*
X173166630Y-131747701D01*
X173041752Y-131760000D01*
X172958248Y-131760000D01*
X172833370Y-131747701D01*
X172673145Y-131699097D01*
X172525480Y-131620169D01*
X172396051Y-131513949D01*
X172289831Y-131384520D01*
X172210903Y-131236855D01*
X172162299Y-131076630D01*
X172145888Y-130910000D01*
X172162299Y-130743370D01*
X172210903Y-130583145D01*
X172289831Y-130435480D01*
X172396051Y-130306051D01*
X172525480Y-130199831D01*
X172673145Y-130120903D01*
X172833370Y-130072299D01*
X172958248Y-130060000D01*
X173041752Y-130060000D01*
X173166630Y-130072299D01*
X173166630Y-130072299D01*
G37*
G36*
X161482630Y-128040299D02*
X161642855Y-128088903D01*
X161790520Y-128167831D01*
X161919949Y-128274051D01*
X162026169Y-128403480D01*
X162105097Y-128551145D01*
X162153701Y-128711370D01*
X162170112Y-128878000D01*
X162153701Y-129044630D01*
X162105097Y-129204855D01*
X162026169Y-129352520D01*
X161919949Y-129481949D01*
X161790520Y-129588169D01*
X161642855Y-129667097D01*
X161482630Y-129715701D01*
X161357752Y-129728000D01*
X161274248Y-129728000D01*
X161149370Y-129715701D01*
X160989145Y-129667097D01*
X160841480Y-129588169D01*
X160712051Y-129481949D01*
X160605831Y-129352520D01*
X160526903Y-129204855D01*
X160478299Y-129044630D01*
X160461888Y-128878000D01*
X160478299Y-128711370D01*
X160526903Y-128551145D01*
X160605831Y-128403480D01*
X160712051Y-128274051D01*
X160841480Y-128167831D01*
X160989145Y-128088903D01*
X161149370Y-128040299D01*
X161274248Y-128028000D01*
X161357752Y-128028000D01*
X161482630Y-128040299D01*
X161482630Y-128040299D01*
G37*
G36*
X125414630Y-128040299D02*
X125574855Y-128088903D01*
X125722520Y-128167831D01*
X125851949Y-128274051D01*
X125958169Y-128403480D01*
X126037097Y-128551145D01*
X126085701Y-128711370D01*
X126102112Y-128878000D01*
X126085701Y-129044630D01*
X126037097Y-129204855D01*
X125958169Y-129352520D01*
X125851949Y-129481949D01*
X125722520Y-129588169D01*
X125574855Y-129667097D01*
X125414630Y-129715701D01*
X125289752Y-129728000D01*
X125206248Y-129728000D01*
X125081370Y-129715701D01*
X124921145Y-129667097D01*
X124773480Y-129588169D01*
X124644051Y-129481949D01*
X124537831Y-129352520D01*
X124458903Y-129204855D01*
X124410299Y-129044630D01*
X124393888Y-128878000D01*
X124410299Y-128711370D01*
X124458903Y-128551145D01*
X124537831Y-128403480D01*
X124644051Y-128274051D01*
X124773480Y-128167831D01*
X124921145Y-128088903D01*
X125081370Y-128040299D01*
X125206248Y-128028000D01*
X125289752Y-128028000D01*
X125414630Y-128040299D01*
X125414630Y-128040299D01*
G37*
G36*
X152656130Y-128040299D02*
X152816355Y-128088903D01*
X152964020Y-128167831D01*
X153093449Y-128274051D01*
X153199669Y-128403480D01*
X153278597Y-128551145D01*
X153327201Y-128711370D01*
X153343612Y-128878000D01*
X153327201Y-129044630D01*
X153278597Y-129204855D01*
X153199669Y-129352520D01*
X153093449Y-129481949D01*
X152964020Y-129588169D01*
X152816355Y-129667097D01*
X152656130Y-129715701D01*
X152531252Y-129728000D01*
X152447748Y-129728000D01*
X152322870Y-129715701D01*
X152162645Y-129667097D01*
X152014980Y-129588169D01*
X151885551Y-129481949D01*
X151779331Y-129352520D01*
X151700403Y-129204855D01*
X151651799Y-129044630D01*
X151635388Y-128878000D01*
X151651799Y-128711370D01*
X151700403Y-128551145D01*
X151779331Y-128403480D01*
X151885551Y-128274051D01*
X152014980Y-128167831D01*
X152162645Y-128088903D01*
X152322870Y-128040299D01*
X152447748Y-128028000D01*
X152531252Y-128028000D01*
X152656130Y-128040299D01*
X152656130Y-128040299D01*
G37*
G36*
X143702630Y-128040299D02*
X143862855Y-128088903D01*
X144010520Y-128167831D01*
X144139949Y-128274051D01*
X144246169Y-128403480D01*
X144325097Y-128551145D01*
X144373701Y-128711370D01*
X144390112Y-128878000D01*
X144373701Y-129044630D01*
X144325097Y-129204855D01*
X144246169Y-129352520D01*
X144139949Y-129481949D01*
X144010520Y-129588169D01*
X143862855Y-129667097D01*
X143702630Y-129715701D01*
X143577752Y-129728000D01*
X143494248Y-129728000D01*
X143369370Y-129715701D01*
X143209145Y-129667097D01*
X143061480Y-129588169D01*
X142932051Y-129481949D01*
X142825831Y-129352520D01*
X142746903Y-129204855D01*
X142698299Y-129044630D01*
X142681888Y-128878000D01*
X142698299Y-128711370D01*
X142746903Y-128551145D01*
X142825831Y-128403480D01*
X142932051Y-128274051D01*
X143061480Y-128167831D01*
X143209145Y-128088903D01*
X143369370Y-128040299D01*
X143494248Y-128028000D01*
X143577752Y-128028000D01*
X143702630Y-128040299D01*
X143702630Y-128040299D01*
G37*
G36*
X116270630Y-127786299D02*
X116430855Y-127834903D01*
X116578520Y-127913831D01*
X116707949Y-128020051D01*
X116814169Y-128149480D01*
X116893097Y-128297145D01*
X116941701Y-128457370D01*
X116958112Y-128624000D01*
X116941701Y-128790630D01*
X116893097Y-128950855D01*
X116814169Y-129098520D01*
X116707949Y-129227949D01*
X116578520Y-129334169D01*
X116430855Y-129413097D01*
X116270630Y-129461701D01*
X116145752Y-129474000D01*
X116062248Y-129474000D01*
X115937370Y-129461701D01*
X115777145Y-129413097D01*
X115629480Y-129334169D01*
X115500051Y-129227949D01*
X115393831Y-129098520D01*
X115314903Y-128950855D01*
X115266299Y-128790630D01*
X115249888Y-128624000D01*
X115266299Y-128457370D01*
X115314903Y-128297145D01*
X115393831Y-128149480D01*
X115500051Y-128020051D01*
X115629480Y-127913831D01*
X115777145Y-127834903D01*
X115937370Y-127786299D01*
X116062248Y-127774000D01*
X116145752Y-127774000D01*
X116270630Y-127786299D01*
X116270630Y-127786299D01*
G37*
G36*
X134558630Y-127786299D02*
X134718855Y-127834903D01*
X134866520Y-127913831D01*
X134995949Y-128020051D01*
X135102169Y-128149480D01*
X135181097Y-128297145D01*
X135229701Y-128457370D01*
X135246112Y-128624000D01*
X135229701Y-128790630D01*
X135181097Y-128950855D01*
X135102169Y-129098520D01*
X134995949Y-129227949D01*
X134866520Y-129334169D01*
X134718855Y-129413097D01*
X134558630Y-129461701D01*
X134433752Y-129474000D01*
X134350248Y-129474000D01*
X134225370Y-129461701D01*
X134065145Y-129413097D01*
X133917480Y-129334169D01*
X133788051Y-129227949D01*
X133681831Y-129098520D01*
X133602903Y-128950855D01*
X133554299Y-128790630D01*
X133537888Y-128624000D01*
X133554299Y-128457370D01*
X133602903Y-128297145D01*
X133681831Y-128149480D01*
X133788051Y-128020051D01*
X133917480Y-127913831D01*
X134065145Y-127834903D01*
X134225370Y-127786299D01*
X134350248Y-127774000D01*
X134433752Y-127774000D01*
X134558630Y-127786299D01*
X134558630Y-127786299D01*
G37*
G36*
X173166630Y-127532299D02*
X173326855Y-127580903D01*
X173474520Y-127659831D01*
X173603949Y-127766051D01*
X173710169Y-127895480D01*
X173789097Y-128043145D01*
X173837701Y-128203370D01*
X173854112Y-128370000D01*
X173837701Y-128536630D01*
X173789097Y-128696855D01*
X173710169Y-128844520D01*
X173603949Y-128973949D01*
X173474520Y-129080169D01*
X173326855Y-129159097D01*
X173166630Y-129207701D01*
X173041752Y-129220000D01*
X172958248Y-129220000D01*
X172833370Y-129207701D01*
X172673145Y-129159097D01*
X172525480Y-129080169D01*
X172396051Y-128973949D01*
X172289831Y-128844520D01*
X172210903Y-128696855D01*
X172162299Y-128536630D01*
X172145888Y-128370000D01*
X172162299Y-128203370D01*
X172210903Y-128043145D01*
X172289831Y-127895480D01*
X172396051Y-127766051D01*
X172525480Y-127659831D01*
X172673145Y-127580903D01*
X172833370Y-127532299D01*
X172958248Y-127520000D01*
X173041752Y-127520000D01*
X173166630Y-127532299D01*
X173166630Y-127532299D01*
G37*
G36*
X108396630Y-127532299D02*
X108556855Y-127580903D01*
X108704520Y-127659831D01*
X108833949Y-127766051D01*
X108940169Y-127895480D01*
X109019097Y-128043145D01*
X109067701Y-128203370D01*
X109084112Y-128370000D01*
X109067701Y-128536630D01*
X109019097Y-128696855D01*
X108940169Y-128844520D01*
X108833949Y-128973949D01*
X108704520Y-129080169D01*
X108556855Y-129159097D01*
X108396630Y-129207701D01*
X108271752Y-129220000D01*
X108188248Y-129220000D01*
X108063370Y-129207701D01*
X107903145Y-129159097D01*
X107755480Y-129080169D01*
X107626051Y-128973949D01*
X107519831Y-128844520D01*
X107440903Y-128696855D01*
X107392299Y-128536630D01*
X107375888Y-128370000D01*
X107392299Y-128203370D01*
X107440903Y-128043145D01*
X107519831Y-127895480D01*
X107626051Y-127766051D01*
X107755480Y-127659831D01*
X107903145Y-127580903D01*
X108063370Y-127532299D01*
X108188248Y-127520000D01*
X108271752Y-127520000D01*
X108396630Y-127532299D01*
X108396630Y-127532299D01*
G37*
G36*
X152656130Y-125500299D02*
X152816355Y-125548903D01*
X152964020Y-125627831D01*
X153093449Y-125734051D01*
X153199669Y-125863480D01*
X153278597Y-126011145D01*
X153327201Y-126171370D01*
X153343612Y-126338000D01*
X153327201Y-126504630D01*
X153278597Y-126664855D01*
X153199669Y-126812520D01*
X153093449Y-126941949D01*
X152964020Y-127048169D01*
X152816355Y-127127097D01*
X152656130Y-127175701D01*
X152531252Y-127188000D01*
X152447748Y-127188000D01*
X152322870Y-127175701D01*
X152162645Y-127127097D01*
X152014980Y-127048169D01*
X151885551Y-126941949D01*
X151779331Y-126812520D01*
X151700403Y-126664855D01*
X151651799Y-126504630D01*
X151635388Y-126338000D01*
X151651799Y-126171370D01*
X151700403Y-126011145D01*
X151779331Y-125863480D01*
X151885551Y-125734051D01*
X152014980Y-125627831D01*
X152162645Y-125548903D01*
X152322870Y-125500299D01*
X152447748Y-125488000D01*
X152531252Y-125488000D01*
X152656130Y-125500299D01*
X152656130Y-125500299D01*
G37*
G36*
X161482630Y-125500299D02*
X161642855Y-125548903D01*
X161790520Y-125627831D01*
X161919949Y-125734051D01*
X162026169Y-125863480D01*
X162105097Y-126011145D01*
X162153701Y-126171370D01*
X162170112Y-126338000D01*
X162153701Y-126504630D01*
X162105097Y-126664855D01*
X162026169Y-126812520D01*
X161919949Y-126941949D01*
X161790520Y-127048169D01*
X161642855Y-127127097D01*
X161482630Y-127175701D01*
X161357752Y-127188000D01*
X161274248Y-127188000D01*
X161149370Y-127175701D01*
X160989145Y-127127097D01*
X160841480Y-127048169D01*
X160712051Y-126941949D01*
X160605831Y-126812520D01*
X160526903Y-126664855D01*
X160478299Y-126504630D01*
X160461888Y-126338000D01*
X160478299Y-126171370D01*
X160526903Y-126011145D01*
X160605831Y-125863480D01*
X160712051Y-125734051D01*
X160841480Y-125627831D01*
X160989145Y-125548903D01*
X161149370Y-125500299D01*
X161274248Y-125488000D01*
X161357752Y-125488000D01*
X161482630Y-125500299D01*
X161482630Y-125500299D01*
G37*
G36*
X143702630Y-125500299D02*
X143862855Y-125548903D01*
X144010520Y-125627831D01*
X144139949Y-125734051D01*
X144246169Y-125863480D01*
X144325097Y-126011145D01*
X144373701Y-126171370D01*
X144390112Y-126338000D01*
X144373701Y-126504630D01*
X144325097Y-126664855D01*
X144246169Y-126812520D01*
X144139949Y-126941949D01*
X144010520Y-127048169D01*
X143862855Y-127127097D01*
X143702630Y-127175701D01*
X143577752Y-127188000D01*
X143494248Y-127188000D01*
X143369370Y-127175701D01*
X143209145Y-127127097D01*
X143061480Y-127048169D01*
X142932051Y-126941949D01*
X142825831Y-126812520D01*
X142746903Y-126664855D01*
X142698299Y-126504630D01*
X142681888Y-126338000D01*
X142698299Y-126171370D01*
X142746903Y-126011145D01*
X142825831Y-125863480D01*
X142932051Y-125734051D01*
X143061480Y-125627831D01*
X143209145Y-125548903D01*
X143369370Y-125500299D01*
X143494248Y-125488000D01*
X143577752Y-125488000D01*
X143702630Y-125500299D01*
X143702630Y-125500299D01*
G37*
G36*
X125414630Y-125500299D02*
X125574855Y-125548903D01*
X125722520Y-125627831D01*
X125851949Y-125734051D01*
X125958169Y-125863480D01*
X126037097Y-126011145D01*
X126085701Y-126171370D01*
X126102112Y-126338000D01*
X126085701Y-126504630D01*
X126037097Y-126664855D01*
X125958169Y-126812520D01*
X125851949Y-126941949D01*
X125722520Y-127048169D01*
X125574855Y-127127097D01*
X125414630Y-127175701D01*
X125289752Y-127188000D01*
X125206248Y-127188000D01*
X125081370Y-127175701D01*
X124921145Y-127127097D01*
X124773480Y-127048169D01*
X124644051Y-126941949D01*
X124537831Y-126812520D01*
X124458903Y-126664855D01*
X124410299Y-126504630D01*
X124393888Y-126338000D01*
X124410299Y-126171370D01*
X124458903Y-126011145D01*
X124537831Y-125863480D01*
X124644051Y-125734051D01*
X124773480Y-125627831D01*
X124921145Y-125548903D01*
X125081370Y-125500299D01*
X125206248Y-125488000D01*
X125289752Y-125488000D01*
X125414630Y-125500299D01*
X125414630Y-125500299D01*
G37*
G36*
X116270630Y-125246299D02*
X116430855Y-125294903D01*
X116578520Y-125373831D01*
X116707949Y-125480051D01*
X116814169Y-125609480D01*
X116893097Y-125757145D01*
X116941701Y-125917370D01*
X116958112Y-126084000D01*
X116941701Y-126250630D01*
X116893097Y-126410855D01*
X116814169Y-126558520D01*
X116707949Y-126687949D01*
X116578520Y-126794169D01*
X116430855Y-126873097D01*
X116270630Y-126921701D01*
X116145752Y-126934000D01*
X116062248Y-126934000D01*
X115937370Y-126921701D01*
X115777145Y-126873097D01*
X115629480Y-126794169D01*
X115500051Y-126687949D01*
X115393831Y-126558520D01*
X115314903Y-126410855D01*
X115266299Y-126250630D01*
X115249888Y-126084000D01*
X115266299Y-125917370D01*
X115314903Y-125757145D01*
X115393831Y-125609480D01*
X115500051Y-125480051D01*
X115629480Y-125373831D01*
X115777145Y-125294903D01*
X115937370Y-125246299D01*
X116062248Y-125234000D01*
X116145752Y-125234000D01*
X116270630Y-125246299D01*
X116270630Y-125246299D01*
G37*
G36*
X134558630Y-125246299D02*
X134718855Y-125294903D01*
X134866520Y-125373831D01*
X134995949Y-125480051D01*
X135102169Y-125609480D01*
X135181097Y-125757145D01*
X135229701Y-125917370D01*
X135246112Y-126084000D01*
X135229701Y-126250630D01*
X135181097Y-126410855D01*
X135102169Y-126558520D01*
X134995949Y-126687949D01*
X134866520Y-126794169D01*
X134718855Y-126873097D01*
X134558630Y-126921701D01*
X134433752Y-126934000D01*
X134350248Y-126934000D01*
X134225370Y-126921701D01*
X134065145Y-126873097D01*
X133917480Y-126794169D01*
X133788051Y-126687949D01*
X133681831Y-126558520D01*
X133602903Y-126410855D01*
X133554299Y-126250630D01*
X133537888Y-126084000D01*
X133554299Y-125917370D01*
X133602903Y-125757145D01*
X133681831Y-125609480D01*
X133788051Y-125480051D01*
X133917480Y-125373831D01*
X134065145Y-125294903D01*
X134225370Y-125246299D01*
X134350248Y-125234000D01*
X134433752Y-125234000D01*
X134558630Y-125246299D01*
X134558630Y-125246299D01*
G37*
G36*
X173166630Y-124992299D02*
X173326855Y-125040903D01*
X173474520Y-125119831D01*
X173603949Y-125226051D01*
X173710169Y-125355480D01*
X173789097Y-125503145D01*
X173837701Y-125663370D01*
X173854112Y-125830000D01*
X173837701Y-125996630D01*
X173789097Y-126156855D01*
X173710169Y-126304520D01*
X173603949Y-126433949D01*
X173474520Y-126540169D01*
X173326855Y-126619097D01*
X173166630Y-126667701D01*
X173041752Y-126680000D01*
X172958248Y-126680000D01*
X172833370Y-126667701D01*
X172673145Y-126619097D01*
X172525480Y-126540169D01*
X172396051Y-126433949D01*
X172289831Y-126304520D01*
X172210903Y-126156855D01*
X172162299Y-125996630D01*
X172145888Y-125830000D01*
X172162299Y-125663370D01*
X172210903Y-125503145D01*
X172289831Y-125355480D01*
X172396051Y-125226051D01*
X172525480Y-125119831D01*
X172673145Y-125040903D01*
X172833370Y-124992299D01*
X172958248Y-124980000D01*
X173041752Y-124980000D01*
X173166630Y-124992299D01*
X173166630Y-124992299D01*
G37*
G36*
X125414630Y-122960299D02*
X125574855Y-123008903D01*
X125722520Y-123087831D01*
X125851949Y-123194051D01*
X125958169Y-123323480D01*
X126037097Y-123471145D01*
X126085701Y-123631370D01*
X126102112Y-123798000D01*
X126085701Y-123964630D01*
X126037097Y-124124855D01*
X125958169Y-124272520D01*
X125851949Y-124401949D01*
X125722520Y-124508169D01*
X125574855Y-124587097D01*
X125414630Y-124635701D01*
X125289752Y-124648000D01*
X125206248Y-124648000D01*
X125081370Y-124635701D01*
X124921145Y-124587097D01*
X124773480Y-124508169D01*
X124644051Y-124401949D01*
X124537831Y-124272520D01*
X124458903Y-124124855D01*
X124410299Y-123964630D01*
X124393888Y-123798000D01*
X124410299Y-123631370D01*
X124458903Y-123471145D01*
X124537831Y-123323480D01*
X124644051Y-123194051D01*
X124773480Y-123087831D01*
X124921145Y-123008903D01*
X125081370Y-122960299D01*
X125206248Y-122948000D01*
X125289752Y-122948000D01*
X125414630Y-122960299D01*
X125414630Y-122960299D01*
G37*
G36*
X143702630Y-122960299D02*
X143862855Y-123008903D01*
X144010520Y-123087831D01*
X144139949Y-123194051D01*
X144246169Y-123323480D01*
X144325097Y-123471145D01*
X144373701Y-123631370D01*
X144390112Y-123798000D01*
X144373701Y-123964630D01*
X144325097Y-124124855D01*
X144246169Y-124272520D01*
X144139949Y-124401949D01*
X144010520Y-124508169D01*
X143862855Y-124587097D01*
X143702630Y-124635701D01*
X143577752Y-124648000D01*
X143494248Y-124648000D01*
X143369370Y-124635701D01*
X143209145Y-124587097D01*
X143061480Y-124508169D01*
X142932051Y-124401949D01*
X142825831Y-124272520D01*
X142746903Y-124124855D01*
X142698299Y-123964630D01*
X142681888Y-123798000D01*
X142698299Y-123631370D01*
X142746903Y-123471145D01*
X142825831Y-123323480D01*
X142932051Y-123194051D01*
X143061480Y-123087831D01*
X143209145Y-123008903D01*
X143369370Y-122960299D01*
X143494248Y-122948000D01*
X143577752Y-122948000D01*
X143702630Y-122960299D01*
X143702630Y-122960299D01*
G37*
G36*
X161482630Y-122960299D02*
X161642855Y-123008903D01*
X161790520Y-123087831D01*
X161919949Y-123194051D01*
X162026169Y-123323480D01*
X162105097Y-123471145D01*
X162153701Y-123631370D01*
X162170112Y-123798000D01*
X162153701Y-123964630D01*
X162105097Y-124124855D01*
X162026169Y-124272520D01*
X161919949Y-124401949D01*
X161790520Y-124508169D01*
X161642855Y-124587097D01*
X161482630Y-124635701D01*
X161357752Y-124648000D01*
X161274248Y-124648000D01*
X161149370Y-124635701D01*
X160989145Y-124587097D01*
X160841480Y-124508169D01*
X160712051Y-124401949D01*
X160605831Y-124272520D01*
X160526903Y-124124855D01*
X160478299Y-123964630D01*
X160461888Y-123798000D01*
X160478299Y-123631370D01*
X160526903Y-123471145D01*
X160605831Y-123323480D01*
X160712051Y-123194051D01*
X160841480Y-123087831D01*
X160989145Y-123008903D01*
X161149370Y-122960299D01*
X161274248Y-122948000D01*
X161357752Y-122948000D01*
X161482630Y-122960299D01*
X161482630Y-122960299D01*
G37*
G36*
X152656130Y-122960299D02*
X152816355Y-123008903D01*
X152964020Y-123087831D01*
X153093449Y-123194051D01*
X153199669Y-123323480D01*
X153278597Y-123471145D01*
X153327201Y-123631370D01*
X153343612Y-123798000D01*
X153327201Y-123964630D01*
X153278597Y-124124855D01*
X153199669Y-124272520D01*
X153093449Y-124401949D01*
X152964020Y-124508169D01*
X152816355Y-124587097D01*
X152656130Y-124635701D01*
X152531252Y-124648000D01*
X152447748Y-124648000D01*
X152322870Y-124635701D01*
X152162645Y-124587097D01*
X152014980Y-124508169D01*
X151885551Y-124401949D01*
X151779331Y-124272520D01*
X151700403Y-124124855D01*
X151651799Y-123964630D01*
X151635388Y-123798000D01*
X151651799Y-123631370D01*
X151700403Y-123471145D01*
X151779331Y-123323480D01*
X151885551Y-123194051D01*
X152014980Y-123087831D01*
X152162645Y-123008903D01*
X152322870Y-122960299D01*
X152447748Y-122948000D01*
X152531252Y-122948000D01*
X152656130Y-122960299D01*
X152656130Y-122960299D01*
G37*
G36*
X116270630Y-122706299D02*
X116430855Y-122754903D01*
X116578520Y-122833831D01*
X116707949Y-122940051D01*
X116814169Y-123069480D01*
X116893097Y-123217145D01*
X116941701Y-123377370D01*
X116958112Y-123544000D01*
X116941701Y-123710630D01*
X116893097Y-123870855D01*
X116814169Y-124018520D01*
X116707949Y-124147949D01*
X116578520Y-124254169D01*
X116430855Y-124333097D01*
X116270630Y-124381701D01*
X116145752Y-124394000D01*
X116062248Y-124394000D01*
X115937370Y-124381701D01*
X115777145Y-124333097D01*
X115629480Y-124254169D01*
X115500051Y-124147949D01*
X115393831Y-124018520D01*
X115314903Y-123870855D01*
X115266299Y-123710630D01*
X115249888Y-123544000D01*
X115266299Y-123377370D01*
X115314903Y-123217145D01*
X115393831Y-123069480D01*
X115500051Y-122940051D01*
X115629480Y-122833831D01*
X115777145Y-122754903D01*
X115937370Y-122706299D01*
X116062248Y-122694000D01*
X116145752Y-122694000D01*
X116270630Y-122706299D01*
X116270630Y-122706299D01*
G37*
G36*
X134558630Y-122706299D02*
X134718855Y-122754903D01*
X134866520Y-122833831D01*
X134995949Y-122940051D01*
X135102169Y-123069480D01*
X135181097Y-123217145D01*
X135229701Y-123377370D01*
X135246112Y-123544000D01*
X135229701Y-123710630D01*
X135181097Y-123870855D01*
X135102169Y-124018520D01*
X134995949Y-124147949D01*
X134866520Y-124254169D01*
X134718855Y-124333097D01*
X134558630Y-124381701D01*
X134433752Y-124394000D01*
X134350248Y-124394000D01*
X134225370Y-124381701D01*
X134065145Y-124333097D01*
X133917480Y-124254169D01*
X133788051Y-124147949D01*
X133681831Y-124018520D01*
X133602903Y-123870855D01*
X133554299Y-123710630D01*
X133537888Y-123544000D01*
X133554299Y-123377370D01*
X133602903Y-123217145D01*
X133681831Y-123069480D01*
X133788051Y-122940051D01*
X133917480Y-122833831D01*
X134065145Y-122754903D01*
X134225370Y-122706299D01*
X134350248Y-122694000D01*
X134433752Y-122694000D01*
X134558630Y-122706299D01*
X134558630Y-122706299D01*
G37*
G36*
X173166630Y-122452299D02*
X173326855Y-122500903D01*
X173474520Y-122579831D01*
X173603949Y-122686051D01*
X173710169Y-122815480D01*
X173789097Y-122963145D01*
X173837701Y-123123370D01*
X173854112Y-123290000D01*
X173837701Y-123456630D01*
X173789097Y-123616855D01*
X173710169Y-123764520D01*
X173603949Y-123893949D01*
X173474520Y-124000169D01*
X173326855Y-124079097D01*
X173166630Y-124127701D01*
X173041752Y-124140000D01*
X172958248Y-124140000D01*
X172833370Y-124127701D01*
X172673145Y-124079097D01*
X172525480Y-124000169D01*
X172396051Y-123893949D01*
X172289831Y-123764520D01*
X172210903Y-123616855D01*
X172162299Y-123456630D01*
X172145888Y-123290000D01*
X172162299Y-123123370D01*
X172210903Y-122963145D01*
X172289831Y-122815480D01*
X172396051Y-122686051D01*
X172525480Y-122579831D01*
X172673145Y-122500903D01*
X172833370Y-122452299D01*
X172958248Y-122440000D01*
X173041752Y-122440000D01*
X173166630Y-122452299D01*
X173166630Y-122452299D01*
G37*
G36*
X144386000Y-122108000D02*
X142686000Y-122108000D01*
X142686000Y-120408000D01*
X144386000Y-120408000D01*
X144386000Y-122108000D01*
X144386000Y-122108000D01*
G37*
G36*
X162166000Y-122108000D02*
X160466000Y-122108000D01*
X160466000Y-120408000D01*
X162166000Y-120408000D01*
X162166000Y-122108000D01*
X162166000Y-122108000D01*
G37*
G36*
X126098000Y-122108000D02*
X124398000Y-122108000D01*
X124398000Y-120408000D01*
X126098000Y-120408000D01*
X126098000Y-122108000D01*
X126098000Y-122108000D01*
G37*
G36*
X153339500Y-122108000D02*
X151639500Y-122108000D01*
X151639500Y-120408000D01*
X153339500Y-120408000D01*
X153339500Y-122108000D01*
X153339500Y-122108000D01*
G37*
G36*
X135242000Y-121854000D02*
X133542000Y-121854000D01*
X133542000Y-120154000D01*
X135242000Y-120154000D01*
X135242000Y-121854000D01*
X135242000Y-121854000D01*
G37*
G36*
X116954000Y-121854000D02*
X115254000Y-121854000D01*
X115254000Y-120154000D01*
X116954000Y-120154000D01*
X116954000Y-121854000D01*
X116954000Y-121854000D01*
G37*
G36*
X173166630Y-119912299D02*
X173326855Y-119960903D01*
X173474520Y-120039831D01*
X173603949Y-120146051D01*
X173710169Y-120275480D01*
X173789097Y-120423145D01*
X173837701Y-120583370D01*
X173854112Y-120750000D01*
X173837701Y-120916630D01*
X173789097Y-121076855D01*
X173710169Y-121224520D01*
X173603949Y-121353949D01*
X173474520Y-121460169D01*
X173326855Y-121539097D01*
X173166630Y-121587701D01*
X173041752Y-121600000D01*
X172958248Y-121600000D01*
X172833370Y-121587701D01*
X172673145Y-121539097D01*
X172525480Y-121460169D01*
X172396051Y-121353949D01*
X172289831Y-121224520D01*
X172210903Y-121076855D01*
X172162299Y-120916630D01*
X172145888Y-120750000D01*
X172162299Y-120583370D01*
X172210903Y-120423145D01*
X172289831Y-120275480D01*
X172396051Y-120146051D01*
X172525480Y-120039831D01*
X172673145Y-119960903D01*
X172833370Y-119912299D01*
X172958248Y-119900000D01*
X173041752Y-119900000D01*
X173166630Y-119912299D01*
X173166630Y-119912299D01*
G37*
G36*
X173166630Y-117372299D02*
X173326855Y-117420903D01*
X173474520Y-117499831D01*
X173603949Y-117606051D01*
X173710169Y-117735480D01*
X173789097Y-117883145D01*
X173837701Y-118043370D01*
X173854112Y-118210000D01*
X173837701Y-118376630D01*
X173789097Y-118536855D01*
X173710169Y-118684520D01*
X173603949Y-118813949D01*
X173474520Y-118920169D01*
X173326855Y-118999097D01*
X173166630Y-119047701D01*
X173041752Y-119060000D01*
X172958248Y-119060000D01*
X172833370Y-119047701D01*
X172673145Y-118999097D01*
X172525480Y-118920169D01*
X172396051Y-118813949D01*
X172289831Y-118684520D01*
X172210903Y-118536855D01*
X172162299Y-118376630D01*
X172145888Y-118210000D01*
X172162299Y-118043370D01*
X172210903Y-117883145D01*
X172289831Y-117735480D01*
X172396051Y-117606051D01*
X172525480Y-117499831D01*
X172673145Y-117420903D01*
X172833370Y-117372299D01*
X172958248Y-117360000D01*
X173041752Y-117360000D01*
X173166630Y-117372299D01*
X173166630Y-117372299D01*
G37*
G36*
X173166630Y-114832299D02*
X173326855Y-114880903D01*
X173474520Y-114959831D01*
X173603949Y-115066051D01*
X173710169Y-115195480D01*
X173789097Y-115343145D01*
X173837701Y-115503370D01*
X173854112Y-115670000D01*
X173837701Y-115836630D01*
X173789097Y-115996855D01*
X173710169Y-116144520D01*
X173603949Y-116273949D01*
X173474520Y-116380169D01*
X173326855Y-116459097D01*
X173166630Y-116507701D01*
X173041752Y-116520000D01*
X172958248Y-116520000D01*
X172833370Y-116507701D01*
X172673145Y-116459097D01*
X172525480Y-116380169D01*
X172396051Y-116273949D01*
X172289831Y-116144520D01*
X172210903Y-115996855D01*
X172162299Y-115836630D01*
X172145888Y-115670000D01*
X172162299Y-115503370D01*
X172210903Y-115343145D01*
X172289831Y-115195480D01*
X172396051Y-115066051D01*
X172525480Y-114959831D01*
X172673145Y-114880903D01*
X172833370Y-114832299D01*
X172958248Y-114820000D01*
X173041752Y-114820000D01*
X173166630Y-114832299D01*
X173166630Y-114832299D01*
G37*
G36*
X173850000Y-113980000D02*
X172150000Y-113980000D01*
X172150000Y-112280000D01*
X173850000Y-112280000D01*
X173850000Y-113980000D01*
X173850000Y-113980000D01*
G37*
G36*
X173166630Y-109752299D02*
X173326855Y-109800903D01*
X173474520Y-109879831D01*
X173603949Y-109986051D01*
X173710169Y-110115480D01*
X173789097Y-110263145D01*
X173837701Y-110423370D01*
X173854112Y-110590000D01*
X173837701Y-110756630D01*
X173789097Y-110916855D01*
X173710169Y-111064520D01*
X173603949Y-111193949D01*
X173474520Y-111300169D01*
X173326855Y-111379097D01*
X173166630Y-111427701D01*
X173041752Y-111440000D01*
X172958248Y-111440000D01*
X172833370Y-111427701D01*
X172673145Y-111379097D01*
X172525480Y-111300169D01*
X172396051Y-111193949D01*
X172289831Y-111064520D01*
X172210903Y-110916855D01*
X172162299Y-110756630D01*
X172145888Y-110590000D01*
X172162299Y-110423370D01*
X172210903Y-110263145D01*
X172289831Y-110115480D01*
X172396051Y-109986051D01*
X172525480Y-109879831D01*
X172673145Y-109800903D01*
X172833370Y-109752299D01*
X172958248Y-109740000D01*
X173041752Y-109740000D01*
X173166630Y-109752299D01*
X173166630Y-109752299D01*
G37*
G36*
X173322606Y-105822916D02*
X173437496Y-105845769D01*
X173474165Y-105860958D01*
X173710454Y-105958832D01*
X173956114Y-106122977D01*
X174165023Y-106331886D01*
X174329168Y-106577546D01*
X174376312Y-106691362D01*
X174439330Y-106843500D01*
X174442231Y-106850505D01*
X174499870Y-107140274D01*
X174499870Y-107435726D01*
X174442231Y-107725495D01*
X174329168Y-107998454D01*
X174165023Y-108244114D01*
X173956114Y-108453023D01*
X173710454Y-108617168D01*
X173550559Y-108683398D01*
X173437496Y-108730231D01*
X173340905Y-108749444D01*
X173147726Y-108787870D01*
X172852274Y-108787870D01*
X172659095Y-108749444D01*
X172562504Y-108730231D01*
X172449441Y-108683398D01*
X172289546Y-108617168D01*
X172043886Y-108453023D01*
X171834977Y-108244114D01*
X171670832Y-107998454D01*
X171557769Y-107725495D01*
X171500130Y-107435726D01*
X171500130Y-107140274D01*
X171557769Y-106850505D01*
X171560671Y-106843500D01*
X171623688Y-106691362D01*
X171670832Y-106577546D01*
X171834977Y-106331886D01*
X172043886Y-106122977D01*
X172289546Y-105958832D01*
X172525835Y-105860958D01*
X172562504Y-105845769D01*
X172677394Y-105822916D01*
X172852274Y-105788130D01*
X173147726Y-105788130D01*
X173322606Y-105822916D01*
X173322606Y-105822916D01*
G37*
G36*
X154165639Y-105822916D02*
X154372986Y-105885815D01*
X154372988Y-105885816D01*
X154564084Y-105987958D01*
X154731581Y-106125419D01*
X154869042Y-106292916D01*
X154937244Y-106420514D01*
X154971185Y-106484014D01*
X155034084Y-106691361D01*
X155055322Y-106907000D01*
X155034084Y-107122639D01*
X154990448Y-107266486D01*
X154971184Y-107329988D01*
X154869042Y-107521084D01*
X154731581Y-107688581D01*
X154564084Y-107826042D01*
X154372988Y-107928184D01*
X154372986Y-107928185D01*
X154165639Y-107991084D01*
X154004038Y-108007000D01*
X153895962Y-108007000D01*
X153734361Y-107991084D01*
X153527014Y-107928185D01*
X153527012Y-107928184D01*
X153335916Y-107826042D01*
X153168419Y-107688581D01*
X153030958Y-107521084D01*
X152928816Y-107329988D01*
X152909553Y-107266486D01*
X152865916Y-107122639D01*
X152844678Y-106907000D01*
X152865916Y-106691361D01*
X152928815Y-106484014D01*
X152962756Y-106420514D01*
X153030958Y-106292916D01*
X153168419Y-106125419D01*
X153335916Y-105987958D01*
X153527012Y-105885816D01*
X153527014Y-105885815D01*
X153734361Y-105822916D01*
X153895962Y-105807000D01*
X154004038Y-105807000D01*
X154165639Y-105822916D01*
X154165639Y-105822916D01*
G37*
G36*
X151240000Y-108007000D02*
X149040000Y-108007000D01*
X149040000Y-105807000D01*
X151240000Y-105807000D01*
X151240000Y-108007000D01*
X151240000Y-108007000D01*
G37*
G36*
X141143500Y-107943500D02*
X138943500Y-107943500D01*
X138943500Y-105743500D01*
X141143500Y-105743500D01*
X141143500Y-107943500D01*
X141143500Y-107943500D01*
G37*
G36*
X144069139Y-105759416D02*
X144276486Y-105822315D01*
X144276488Y-105822316D01*
X144467584Y-105924458D01*
X144635081Y-106061919D01*
X144772542Y-106229416D01*
X144849749Y-106373862D01*
X144874685Y-106420514D01*
X144937584Y-106627861D01*
X144958822Y-106843500D01*
X144937584Y-107059139D01*
X144893948Y-107202986D01*
X144874684Y-107266488D01*
X144772542Y-107457584D01*
X144635081Y-107625081D01*
X144467584Y-107762542D01*
X144276488Y-107864684D01*
X144276486Y-107864685D01*
X144069139Y-107927584D01*
X143907538Y-107943500D01*
X143799462Y-107943500D01*
X143637861Y-107927584D01*
X143430514Y-107864685D01*
X143430512Y-107864684D01*
X143239416Y-107762542D01*
X143071919Y-107625081D01*
X142934458Y-107457584D01*
X142832316Y-107266488D01*
X142813053Y-107202986D01*
X142769416Y-107059139D01*
X142748178Y-106843500D01*
X142769416Y-106627861D01*
X142832315Y-106420514D01*
X142857251Y-106373862D01*
X142934458Y-106229416D01*
X143071919Y-106061919D01*
X143239416Y-105924458D01*
X143430512Y-105822316D01*
X143430514Y-105822315D01*
X143637861Y-105759416D01*
X143799462Y-105743500D01*
X143907538Y-105743500D01*
X144069139Y-105759416D01*
X144069139Y-105759416D01*
G37*
G36*
X131301000Y-107943500D02*
X129101000Y-107943500D01*
X129101000Y-105743500D01*
X131301000Y-105743500D01*
X131301000Y-107943500D01*
X131301000Y-107943500D01*
G37*
G36*
X134226639Y-105759416D02*
X134433986Y-105822315D01*
X134433988Y-105822316D01*
X134625084Y-105924458D01*
X134792581Y-106061919D01*
X134930042Y-106229416D01*
X135007249Y-106373862D01*
X135032185Y-106420514D01*
X135095084Y-106627861D01*
X135116322Y-106843500D01*
X135095084Y-107059139D01*
X135051448Y-107202986D01*
X135032184Y-107266488D01*
X134930042Y-107457584D01*
X134792581Y-107625081D01*
X134625084Y-107762542D01*
X134433988Y-107864684D01*
X134433986Y-107864685D01*
X134226639Y-107927584D01*
X134065038Y-107943500D01*
X133956962Y-107943500D01*
X133795361Y-107927584D01*
X133588014Y-107864685D01*
X133588012Y-107864684D01*
X133396916Y-107762542D01*
X133229419Y-107625081D01*
X133091958Y-107457584D01*
X132989816Y-107266488D01*
X132970553Y-107202986D01*
X132926916Y-107059139D01*
X132905678Y-106843500D01*
X132926916Y-106627861D01*
X132989815Y-106420514D01*
X133014751Y-106373862D01*
X133091958Y-106229416D01*
X133229419Y-106061919D01*
X133396916Y-105924458D01*
X133588012Y-105822316D01*
X133588014Y-105822315D01*
X133795361Y-105759416D01*
X133956962Y-105743500D01*
X134065038Y-105743500D01*
X134226639Y-105759416D01*
X134226639Y-105759416D01*
G37*
G36*
X121395000Y-107880000D02*
X119195000Y-107880000D01*
X119195000Y-105680000D01*
X121395000Y-105680000D01*
X121395000Y-107880000D01*
X121395000Y-107880000D01*
G37*
G36*
X124320639Y-105695916D02*
X124527986Y-105758815D01*
X124527988Y-105758816D01*
X124719084Y-105860958D01*
X124886581Y-105998419D01*
X125024042Y-106165916D01*
X125126184Y-106357012D01*
X125126185Y-106357014D01*
X125189084Y-106564361D01*
X125210322Y-106780000D01*
X125189084Y-106995639D01*
X125145209Y-107140274D01*
X125126184Y-107202988D01*
X125024042Y-107394084D01*
X124886581Y-107561581D01*
X124719084Y-107699042D01*
X124527988Y-107801184D01*
X124527986Y-107801185D01*
X124320639Y-107864084D01*
X124159038Y-107880000D01*
X124050962Y-107880000D01*
X123889361Y-107864084D01*
X123682014Y-107801185D01*
X123682012Y-107801184D01*
X123490916Y-107699042D01*
X123323419Y-107561581D01*
X123185958Y-107394084D01*
X123083816Y-107202988D01*
X123064792Y-107140274D01*
X123020916Y-106995639D01*
X122999678Y-106780000D01*
X123020916Y-106564361D01*
X123083815Y-106357014D01*
X123083816Y-106357012D01*
X123185958Y-106165916D01*
X123323419Y-105998419D01*
X123490916Y-105860958D01*
X123682012Y-105758816D01*
X123682014Y-105758815D01*
X123889361Y-105695916D01*
X124050962Y-105680000D01*
X124159038Y-105680000D01*
X124320639Y-105695916D01*
X124320639Y-105695916D01*
G37*
G36*
X163627139Y-105505416D02*
X163834486Y-105568315D01*
X163834488Y-105568316D01*
X164025584Y-105670458D01*
X164193081Y-105807919D01*
X164330542Y-105975416D01*
X164432684Y-106166512D01*
X164432685Y-106166514D01*
X164495584Y-106373861D01*
X164516822Y-106589500D01*
X164495584Y-106805139D01*
X164437796Y-106995639D01*
X164432684Y-107012488D01*
X164330542Y-107203584D01*
X164193081Y-107371081D01*
X164025584Y-107508542D01*
X163834488Y-107610684D01*
X163834486Y-107610685D01*
X163627139Y-107673584D01*
X163465538Y-107689500D01*
X163357462Y-107689500D01*
X163195861Y-107673584D01*
X162988514Y-107610685D01*
X162988512Y-107610684D01*
X162797416Y-107508542D01*
X162629919Y-107371081D01*
X162492458Y-107203584D01*
X162390316Y-107012488D01*
X162385205Y-106995639D01*
X162327416Y-106805139D01*
X162306178Y-106589500D01*
X162327416Y-106373861D01*
X162390315Y-106166514D01*
X162390316Y-106166512D01*
X162492458Y-105975416D01*
X162629919Y-105807919D01*
X162797416Y-105670458D01*
X162988512Y-105568316D01*
X162988514Y-105568315D01*
X163195861Y-105505416D01*
X163357462Y-105489500D01*
X163465538Y-105489500D01*
X163627139Y-105505416D01*
X163627139Y-105505416D01*
G37*
G36*
X160701500Y-107689500D02*
X158501500Y-107689500D01*
X158501500Y-105489500D01*
X160701500Y-105489500D01*
X160701500Y-107689500D01*
X160701500Y-107689500D01*
G37*
G36*
X174499870Y-104977870D02*
X171500130Y-104977870D01*
X171500130Y-101978130D01*
X174499870Y-101978130D01*
X174499870Y-104977870D01*
X174499870Y-104977870D01*
G37*
G36*
X162420000Y-102550000D02*
X160720000Y-102550000D01*
X160720000Y-100850000D01*
X162420000Y-100850000D01*
X162420000Y-102550000D01*
X162420000Y-102550000D01*
G37*
G36*
X121780000Y-102550000D02*
X120080000Y-102550000D01*
X120080000Y-100850000D01*
X121780000Y-100850000D01*
X121780000Y-102550000D01*
X121780000Y-102550000D01*
G37*
G36*
X173340905Y-98206556D02*
X173437496Y-98225769D01*
X173550559Y-98272602D01*
X173710454Y-98338832D01*
X173956114Y-98502977D01*
X174165023Y-98711886D01*
X174329168Y-98957546D01*
X174442231Y-99230505D01*
X174499870Y-99520274D01*
X174499870Y-99815726D01*
X174442231Y-100105495D01*
X174329168Y-100378454D01*
X174165023Y-100624114D01*
X173956114Y-100833023D01*
X173710454Y-100997168D01*
X173550559Y-101063398D01*
X173437496Y-101110231D01*
X173340905Y-101129444D01*
X173147726Y-101167870D01*
X172852274Y-101167870D01*
X172659095Y-101129444D01*
X172562504Y-101110231D01*
X172449441Y-101063398D01*
X172289546Y-100997168D01*
X172043886Y-100833023D01*
X171834977Y-100624114D01*
X171670832Y-100378454D01*
X171557769Y-100105495D01*
X171500130Y-99815726D01*
X171500130Y-99520274D01*
X171557769Y-99230505D01*
X171670832Y-98957546D01*
X171834977Y-98711886D01*
X172043886Y-98502977D01*
X172289546Y-98338832D01*
X172449441Y-98272602D01*
X172562504Y-98225769D01*
X172659095Y-98206556D01*
X172852274Y-98168130D01*
X173147726Y-98168130D01*
X173340905Y-98206556D01*
X173340905Y-98206556D01*
G37*
G36*
X174499870Y-97357870D02*
X171500130Y-97357870D01*
X171500130Y-94358130D01*
X174499870Y-94358130D01*
X174499870Y-97357870D01*
X174499870Y-97357870D01*
G37*
G36*
X177484630Y-91464299D02*
X177644855Y-91512903D01*
X177792520Y-91591831D01*
X177921949Y-91698051D01*
X178028169Y-91827480D01*
X178107097Y-91975145D01*
X178155701Y-92135370D01*
X178172112Y-92302000D01*
X178155701Y-92468630D01*
X178107097Y-92628855D01*
X178028169Y-92776520D01*
X177921949Y-92905949D01*
X177792520Y-93012169D01*
X177644855Y-93091097D01*
X177484630Y-93139701D01*
X177359752Y-93152000D01*
X177276248Y-93152000D01*
X177151370Y-93139701D01*
X176991145Y-93091097D01*
X176843480Y-93012169D01*
X176714051Y-92905949D01*
X176607831Y-92776520D01*
X176528903Y-92628855D01*
X176480299Y-92468630D01*
X176463888Y-92302000D01*
X176480299Y-92135370D01*
X176528903Y-91975145D01*
X176607831Y-91827480D01*
X176714051Y-91698051D01*
X176843480Y-91591831D01*
X176991145Y-91512903D01*
X177151370Y-91464299D01*
X177276248Y-91452000D01*
X177359752Y-91452000D01*
X177484630Y-91464299D01*
X177484630Y-91464299D01*
G37*
G36*
X180024630Y-91464299D02*
X180184855Y-91512903D01*
X180332520Y-91591831D01*
X180461949Y-91698051D01*
X180568169Y-91827480D01*
X180647097Y-91975145D01*
X180695701Y-92135370D01*
X180712112Y-92302000D01*
X180695701Y-92468630D01*
X180647097Y-92628855D01*
X180568169Y-92776520D01*
X180461949Y-92905949D01*
X180332520Y-93012169D01*
X180184855Y-93091097D01*
X180024630Y-93139701D01*
X179899752Y-93152000D01*
X179816248Y-93152000D01*
X179691370Y-93139701D01*
X179531145Y-93091097D01*
X179383480Y-93012169D01*
X179254051Y-92905949D01*
X179147831Y-92776520D01*
X179068903Y-92628855D01*
X179020299Y-92468630D01*
X179003888Y-92302000D01*
X179020299Y-92135370D01*
X179068903Y-91975145D01*
X179147831Y-91827480D01*
X179254051Y-91698051D01*
X179383480Y-91591831D01*
X179531145Y-91512903D01*
X179691370Y-91464299D01*
X179816248Y-91452000D01*
X179899752Y-91452000D01*
X180024630Y-91464299D01*
X180024630Y-91464299D01*
G37*
G36*
X174944630Y-91464299D02*
X175104855Y-91512903D01*
X175252520Y-91591831D01*
X175381949Y-91698051D01*
X175488169Y-91827480D01*
X175567097Y-91975145D01*
X175615701Y-92135370D01*
X175632112Y-92302000D01*
X175615701Y-92468630D01*
X175567097Y-92628855D01*
X175488169Y-92776520D01*
X175381949Y-92905949D01*
X175252520Y-93012169D01*
X175104855Y-93091097D01*
X174944630Y-93139701D01*
X174819752Y-93152000D01*
X174736248Y-93152000D01*
X174611370Y-93139701D01*
X174451145Y-93091097D01*
X174303480Y-93012169D01*
X174174051Y-92905949D01*
X174067831Y-92776520D01*
X173988903Y-92628855D01*
X173940299Y-92468630D01*
X173923888Y-92302000D01*
X173940299Y-92135370D01*
X173988903Y-91975145D01*
X174067831Y-91827480D01*
X174174051Y-91698051D01*
X174303480Y-91591831D01*
X174451145Y-91512903D01*
X174611370Y-91464299D01*
X174736248Y-91452000D01*
X174819752Y-91452000D01*
X174944630Y-91464299D01*
X174944630Y-91464299D01*
G37*
G36*
X172404630Y-91464299D02*
X172564855Y-91512903D01*
X172712520Y-91591831D01*
X172841949Y-91698051D01*
X172948169Y-91827480D01*
X173027097Y-91975145D01*
X173075701Y-92135370D01*
X173092112Y-92302000D01*
X173075701Y-92468630D01*
X173027097Y-92628855D01*
X172948169Y-92776520D01*
X172841949Y-92905949D01*
X172712520Y-93012169D01*
X172564855Y-93091097D01*
X172404630Y-93139701D01*
X172279752Y-93152000D01*
X172196248Y-93152000D01*
X172071370Y-93139701D01*
X171911145Y-93091097D01*
X171763480Y-93012169D01*
X171634051Y-92905949D01*
X171527831Y-92776520D01*
X171448903Y-92628855D01*
X171400299Y-92468630D01*
X171383888Y-92302000D01*
X171400299Y-92135370D01*
X171448903Y-91975145D01*
X171527831Y-91827480D01*
X171634051Y-91698051D01*
X171763480Y-91591831D01*
X171911145Y-91512903D01*
X172071370Y-91464299D01*
X172196248Y-91452000D01*
X172279752Y-91452000D01*
X172404630Y-91464299D01*
X172404630Y-91464299D01*
G37*
G36*
X170548000Y-93152000D02*
X168848000Y-93152000D01*
X168848000Y-91452000D01*
X170548000Y-91452000D01*
X170548000Y-93152000D01*
X170548000Y-93152000D01*
G37*
G36*
X173746307Y-87996101D02*
X173864872Y-88032068D01*
X173974145Y-88090475D01*
X174069922Y-88169078D01*
X174148525Y-88264855D01*
X174206932Y-88374128D01*
X174242899Y-88492693D01*
X174255043Y-88616000D01*
X174242899Y-88739307D01*
X174206932Y-88857872D01*
X174148525Y-88967145D01*
X174069922Y-89062922D01*
X173974145Y-89141525D01*
X173864872Y-89199932D01*
X173746307Y-89235899D01*
X173653899Y-89245000D01*
X172334101Y-89245000D01*
X172241693Y-89235899D01*
X172123128Y-89199932D01*
X172013855Y-89141525D01*
X171918078Y-89062922D01*
X171839475Y-88967145D01*
X171781068Y-88857872D01*
X171745101Y-88739307D01*
X171732957Y-88616000D01*
X171745101Y-88492693D01*
X171781068Y-88374128D01*
X171839475Y-88264855D01*
X171918078Y-88169078D01*
X172013855Y-88090475D01*
X172123128Y-88032068D01*
X172241693Y-87996101D01*
X172334101Y-87987000D01*
X173653899Y-87987000D01*
X173746307Y-87996101D01*
X173746307Y-87996101D01*
G37*
G36*
X175146307Y-85296101D02*
X175264872Y-85332068D01*
X175374145Y-85390475D01*
X175469922Y-85469078D01*
X175548525Y-85564855D01*
X175606932Y-85674128D01*
X175642899Y-85792693D01*
X175655043Y-85916000D01*
X175642899Y-86039307D01*
X175606932Y-86157872D01*
X175548525Y-86267145D01*
X175469922Y-86362922D01*
X175374145Y-86441525D01*
X175264872Y-86499932D01*
X175146307Y-86535899D01*
X175053899Y-86545000D01*
X173734101Y-86545000D01*
X173641693Y-86535899D01*
X173523128Y-86499932D01*
X173413855Y-86441525D01*
X173318078Y-86362922D01*
X173239475Y-86267145D01*
X173181068Y-86157872D01*
X173145101Y-86039307D01*
X173132957Y-85916000D01*
X173145101Y-85792693D01*
X173181068Y-85674128D01*
X173239475Y-85564855D01*
X173318078Y-85469078D01*
X173413855Y-85390475D01*
X173523128Y-85332068D01*
X173641693Y-85296101D01*
X173734101Y-85287000D01*
X175053899Y-85287000D01*
X175146307Y-85296101D01*
X175146307Y-85296101D01*
G37*
G36*
X121780000Y-84770000D02*
X120080000Y-84770000D01*
X120080000Y-83070000D01*
X121780000Y-83070000D01*
X121780000Y-84770000D01*
X121780000Y-84770000D01*
G37*
G36*
X162420000Y-84770000D02*
X160720000Y-84770000D01*
X160720000Y-83070000D01*
X162420000Y-83070000D01*
X162420000Y-84770000D01*
X162420000Y-84770000D01*
G37*
G36*
X180917307Y-82167101D02*
X181035872Y-82203068D01*
X181145145Y-82261475D01*
X181240922Y-82340078D01*
X181319525Y-82435855D01*
X181377932Y-82545128D01*
X181413899Y-82663693D01*
X181423000Y-82756101D01*
X181423000Y-84075899D01*
X181413899Y-84168307D01*
X181377932Y-84286872D01*
X181319525Y-84396145D01*
X181240925Y-84491919D01*
X181240923Y-84491920D01*
X181240922Y-84491922D01*
X181145143Y-84570525D01*
X181145141Y-84570526D01*
X181145140Y-84570527D01*
X181035871Y-84628932D01*
X180917306Y-84664899D01*
X180794000Y-84677043D01*
X180670693Y-84664899D01*
X180552128Y-84628932D01*
X180442855Y-84570525D01*
X180347081Y-84491925D01*
X180347080Y-84491923D01*
X180347078Y-84491922D01*
X180268475Y-84396143D01*
X180210068Y-84286871D01*
X180174101Y-84168306D01*
X180165000Y-84075898D01*
X180165001Y-82756101D01*
X180174102Y-82663693D01*
X180210069Y-82545128D01*
X180268476Y-82435855D01*
X180347079Y-82340078D01*
X180442856Y-82261475D01*
X180552129Y-82203068D01*
X180670694Y-82167101D01*
X180794000Y-82154957D01*
X180917307Y-82167101D01*
X180917307Y-82167101D01*
G37*
G36*
X150373352Y-79340743D02*
X150518941Y-79401048D01*
X150649973Y-79488601D01*
X150761399Y-79600027D01*
X150848952Y-79731059D01*
X150909257Y-79876648D01*
X150940000Y-80031205D01*
X150940000Y-80188795D01*
X150909257Y-80343352D01*
X150848952Y-80488941D01*
X150761399Y-80619973D01*
X150649973Y-80731399D01*
X150518941Y-80818952D01*
X150373352Y-80879257D01*
X150218795Y-80910000D01*
X150061205Y-80910000D01*
X149906648Y-80879257D01*
X149761059Y-80818952D01*
X149630027Y-80731399D01*
X149518601Y-80619973D01*
X149431048Y-80488941D01*
X149370743Y-80343352D01*
X149340000Y-80188795D01*
X149340000Y-80031205D01*
X149370743Y-79876648D01*
X149431048Y-79731059D01*
X149518601Y-79600027D01*
X149630027Y-79488601D01*
X149761059Y-79401048D01*
X149906648Y-79340743D01*
X150061205Y-79310000D01*
X150218795Y-79310000D01*
X150373352Y-79340743D01*
X150373352Y-79340743D01*
G37*
G36*
X155337649Y-79317717D02*
X155376827Y-79321576D01*
X155429483Y-79337549D01*
X155527629Y-79367321D01*
X155666608Y-79441608D01*
X155788422Y-79541578D01*
X155888392Y-79663392D01*
X155962679Y-79802371D01*
X155962679Y-79802372D01*
X156008424Y-79953173D01*
X156023870Y-80110000D01*
X156018128Y-80168305D01*
X156008424Y-80266826D01*
X155962679Y-80417629D01*
X155888392Y-80556608D01*
X155788422Y-80678422D01*
X155666608Y-80778392D01*
X155527629Y-80852679D01*
X155452228Y-80875551D01*
X155376827Y-80898424D01*
X155337649Y-80902283D01*
X155259295Y-80910000D01*
X155180705Y-80910000D01*
X155102351Y-80902283D01*
X155063173Y-80898424D01*
X154987772Y-80875551D01*
X154912371Y-80852679D01*
X154773392Y-80778392D01*
X154651578Y-80678422D01*
X154551608Y-80556608D01*
X154477321Y-80417629D01*
X154431576Y-80266826D01*
X154421873Y-80168305D01*
X154416130Y-80110000D01*
X154431576Y-79953173D01*
X154477321Y-79802372D01*
X154477321Y-79802371D01*
X154551608Y-79663392D01*
X154651578Y-79541578D01*
X154773392Y-79441608D01*
X154912371Y-79367321D01*
X155010517Y-79337549D01*
X155063173Y-79321576D01*
X155102351Y-79317717D01*
X155180705Y-79310000D01*
X155259295Y-79310000D01*
X155337649Y-79317717D01*
X155337649Y-79317717D01*
G37*
G36*
X141483352Y-79277243D02*
X141628941Y-79337548D01*
X141759973Y-79425101D01*
X141871399Y-79536527D01*
X141958952Y-79667559D01*
X142019257Y-79813148D01*
X142050000Y-79967705D01*
X142050000Y-80125295D01*
X142019257Y-80279852D01*
X141958952Y-80425441D01*
X141871399Y-80556473D01*
X141759973Y-80667899D01*
X141628941Y-80755452D01*
X141483352Y-80815757D01*
X141328795Y-80846500D01*
X141171205Y-80846500D01*
X141016648Y-80815757D01*
X140871059Y-80755452D01*
X140740027Y-80667899D01*
X140628601Y-80556473D01*
X140541048Y-80425441D01*
X140480743Y-80279852D01*
X140450000Y-80125295D01*
X140450000Y-79967705D01*
X140480743Y-79813148D01*
X140541048Y-79667559D01*
X140628601Y-79536527D01*
X140740027Y-79425101D01*
X140871059Y-79337548D01*
X141016648Y-79277243D01*
X141171205Y-79246500D01*
X141328795Y-79246500D01*
X141483352Y-79277243D01*
X141483352Y-79277243D01*
G37*
G36*
X146447649Y-79254217D02*
X146486827Y-79258076D01*
X146516720Y-79267144D01*
X146637629Y-79303821D01*
X146776608Y-79378108D01*
X146898422Y-79478078D01*
X146998392Y-79599892D01*
X147072679Y-79738871D01*
X147118424Y-79889674D01*
X147133870Y-80046500D01*
X147118424Y-80203326D01*
X147072679Y-80354129D01*
X146998392Y-80493108D01*
X146898422Y-80614922D01*
X146776608Y-80714892D01*
X146637629Y-80789179D01*
X146562228Y-80812051D01*
X146486827Y-80834924D01*
X146447649Y-80838783D01*
X146369295Y-80846500D01*
X146290705Y-80846500D01*
X146212351Y-80838783D01*
X146173173Y-80834924D01*
X146097773Y-80812052D01*
X146022371Y-80789179D01*
X145883392Y-80714892D01*
X145761578Y-80614922D01*
X145661608Y-80493108D01*
X145587321Y-80354129D01*
X145541576Y-80203326D01*
X145526130Y-80046500D01*
X145541576Y-79889674D01*
X145587321Y-79738871D01*
X145661608Y-79599892D01*
X145761578Y-79478078D01*
X145883392Y-79378108D01*
X146022371Y-79303821D01*
X146143280Y-79267144D01*
X146173173Y-79258076D01*
X146212351Y-79254217D01*
X146290705Y-79246500D01*
X146369295Y-79246500D01*
X146447649Y-79254217D01*
X146447649Y-79254217D01*
G37*
G36*
X169917306Y-78167101D02*
X170035871Y-78203068D01*
X170145140Y-78261473D01*
X170145141Y-78261474D01*
X170145143Y-78261475D01*
X170240922Y-78340078D01*
X170240923Y-78340080D01*
X170240925Y-78340081D01*
X170319525Y-78435855D01*
X170377932Y-78545128D01*
X170413899Y-78663693D01*
X170423000Y-78756101D01*
X170423000Y-80075899D01*
X170413899Y-80168307D01*
X170377932Y-80286872D01*
X170319525Y-80396145D01*
X170240922Y-80491922D01*
X170145145Y-80570525D01*
X170035872Y-80628932D01*
X169917307Y-80664899D01*
X169794000Y-80677043D01*
X169670694Y-80664899D01*
X169552129Y-80628932D01*
X169442856Y-80570525D01*
X169347079Y-80491922D01*
X169268476Y-80396145D01*
X169210069Y-80286872D01*
X169174102Y-80168307D01*
X169165001Y-80075899D01*
X169165000Y-78756102D01*
X169174101Y-78663694D01*
X169210068Y-78545129D01*
X169268473Y-78435860D01*
X169347076Y-78340081D01*
X169347078Y-78340078D01*
X169347080Y-78340077D01*
X169347081Y-78340075D01*
X169442855Y-78261475D01*
X169552128Y-78203068D01*
X169670693Y-78167101D01*
X169794000Y-78154957D01*
X169917306Y-78167101D01*
X169917306Y-78167101D01*
G37*
G36*
X178146307Y-78296101D02*
X178264872Y-78332068D01*
X178374145Y-78390475D01*
X178469922Y-78469078D01*
X178548525Y-78564855D01*
X178606932Y-78674128D01*
X178642899Y-78792693D01*
X178655043Y-78916000D01*
X178642899Y-79039307D01*
X178606932Y-79157872D01*
X178548525Y-79267145D01*
X178469922Y-79362922D01*
X178374145Y-79441525D01*
X178264872Y-79499932D01*
X178146307Y-79535899D01*
X178053899Y-79545000D01*
X176734101Y-79545000D01*
X176641693Y-79535899D01*
X176523128Y-79499932D01*
X176413855Y-79441525D01*
X176318078Y-79362922D01*
X176239475Y-79267145D01*
X176181068Y-79157872D01*
X176145101Y-79039307D01*
X176132957Y-78916000D01*
X176145101Y-78792693D01*
X176181068Y-78674128D01*
X176239475Y-78564855D01*
X176318078Y-78469078D01*
X176413855Y-78390475D01*
X176523128Y-78332068D01*
X176641693Y-78296101D01*
X176734101Y-78287000D01*
X178053899Y-78287000D01*
X178146307Y-78296101D01*
X178146307Y-78296101D01*
G37*
G36*
X161716630Y-75252299D02*
X161876855Y-75300903D01*
X162024520Y-75379831D01*
X162153949Y-75486051D01*
X162260169Y-75615480D01*
X162339097Y-75763145D01*
X162387701Y-75923370D01*
X162404112Y-76090000D01*
X162387701Y-76256630D01*
X162339097Y-76416855D01*
X162260169Y-76564520D01*
X162153949Y-76693949D01*
X162024520Y-76800169D01*
X161876855Y-76879097D01*
X161716630Y-76927701D01*
X161591752Y-76940000D01*
X161508248Y-76940000D01*
X161383370Y-76927701D01*
X161223145Y-76879097D01*
X161075480Y-76800169D01*
X160946051Y-76693949D01*
X160839831Y-76564520D01*
X160760903Y-76416855D01*
X160712299Y-76256630D01*
X160695888Y-76090000D01*
X160712299Y-75923370D01*
X160760903Y-75763145D01*
X160839831Y-75615480D01*
X160946051Y-75486051D01*
X161075480Y-75379831D01*
X161223145Y-75300903D01*
X161383370Y-75252299D01*
X161508248Y-75240000D01*
X161591752Y-75240000D01*
X161716630Y-75252299D01*
X161716630Y-75252299D01*
G37*
G36*
X159176630Y-75252299D02*
X159336855Y-75300903D01*
X159484520Y-75379831D01*
X159613949Y-75486051D01*
X159720169Y-75615480D01*
X159799097Y-75763145D01*
X159847701Y-75923370D01*
X159864112Y-76090000D01*
X159847701Y-76256630D01*
X159799097Y-76416855D01*
X159720169Y-76564520D01*
X159613949Y-76693949D01*
X159484520Y-76800169D01*
X159336855Y-76879097D01*
X159176630Y-76927701D01*
X159051752Y-76940000D01*
X158968248Y-76940000D01*
X158843370Y-76927701D01*
X158683145Y-76879097D01*
X158535480Y-76800169D01*
X158406051Y-76693949D01*
X158299831Y-76564520D01*
X158220903Y-76416855D01*
X158172299Y-76256630D01*
X158155888Y-76090000D01*
X158172299Y-75923370D01*
X158220903Y-75763145D01*
X158299831Y-75615480D01*
X158406051Y-75486051D01*
X158535480Y-75379831D01*
X158683145Y-75300903D01*
X158843370Y-75252299D01*
X158968248Y-75240000D01*
X159051752Y-75240000D01*
X159176630Y-75252299D01*
X159176630Y-75252299D01*
G37*
G36*
X114140000Y-76940000D02*
X112440000Y-76940000D01*
X112440000Y-75240000D01*
X114140000Y-75240000D01*
X114140000Y-76940000D01*
X114140000Y-76940000D01*
G37*
G36*
X146476630Y-75252299D02*
X146636855Y-75300903D01*
X146784520Y-75379831D01*
X146913949Y-75486051D01*
X147020169Y-75615480D01*
X147099097Y-75763145D01*
X147147701Y-75923370D01*
X147164112Y-76090000D01*
X147147701Y-76256630D01*
X147099097Y-76416855D01*
X147020169Y-76564520D01*
X146913949Y-76693949D01*
X146784520Y-76800169D01*
X146636855Y-76879097D01*
X146476630Y-76927701D01*
X146351752Y-76940000D01*
X146268248Y-76940000D01*
X146143370Y-76927701D01*
X145983145Y-76879097D01*
X145835480Y-76800169D01*
X145706051Y-76693949D01*
X145599831Y-76564520D01*
X145520903Y-76416855D01*
X145472299Y-76256630D01*
X145455888Y-76090000D01*
X145472299Y-75923370D01*
X145520903Y-75763145D01*
X145599831Y-75615480D01*
X145706051Y-75486051D01*
X145835480Y-75379831D01*
X145983145Y-75300903D01*
X146143370Y-75252299D01*
X146268248Y-75240000D01*
X146351752Y-75240000D01*
X146476630Y-75252299D01*
X146476630Y-75252299D01*
G37*
G36*
X149016630Y-75252299D02*
X149176855Y-75300903D01*
X149324520Y-75379831D01*
X149453949Y-75486051D01*
X149560169Y-75615480D01*
X149639097Y-75763145D01*
X149687701Y-75923370D01*
X149704112Y-76090000D01*
X149687701Y-76256630D01*
X149639097Y-76416855D01*
X149560169Y-76564520D01*
X149453949Y-76693949D01*
X149324520Y-76800169D01*
X149176855Y-76879097D01*
X149016630Y-76927701D01*
X148891752Y-76940000D01*
X148808248Y-76940000D01*
X148683370Y-76927701D01*
X148523145Y-76879097D01*
X148375480Y-76800169D01*
X148246051Y-76693949D01*
X148139831Y-76564520D01*
X148060903Y-76416855D01*
X148012299Y-76256630D01*
X147995888Y-76090000D01*
X148012299Y-75923370D01*
X148060903Y-75763145D01*
X148139831Y-75615480D01*
X148246051Y-75486051D01*
X148375480Y-75379831D01*
X148523145Y-75300903D01*
X148683370Y-75252299D01*
X148808248Y-75240000D01*
X148891752Y-75240000D01*
X149016630Y-75252299D01*
X149016630Y-75252299D01*
G37*
G36*
X151556630Y-75252299D02*
X151716855Y-75300903D01*
X151864520Y-75379831D01*
X151993949Y-75486051D01*
X152100169Y-75615480D01*
X152179097Y-75763145D01*
X152227701Y-75923370D01*
X152244112Y-76090000D01*
X152227701Y-76256630D01*
X152179097Y-76416855D01*
X152100169Y-76564520D01*
X151993949Y-76693949D01*
X151864520Y-76800169D01*
X151716855Y-76879097D01*
X151556630Y-76927701D01*
X151431752Y-76940000D01*
X151348248Y-76940000D01*
X151223370Y-76927701D01*
X151063145Y-76879097D01*
X150915480Y-76800169D01*
X150786051Y-76693949D01*
X150679831Y-76564520D01*
X150600903Y-76416855D01*
X150552299Y-76256630D01*
X150535888Y-76090000D01*
X150552299Y-75923370D01*
X150600903Y-75763145D01*
X150679831Y-75615480D01*
X150786051Y-75486051D01*
X150915480Y-75379831D01*
X151063145Y-75300903D01*
X151223370Y-75252299D01*
X151348248Y-75240000D01*
X151431752Y-75240000D01*
X151556630Y-75252299D01*
X151556630Y-75252299D01*
G37*
G36*
X154096630Y-75252299D02*
X154256855Y-75300903D01*
X154404520Y-75379831D01*
X154533949Y-75486051D01*
X154640169Y-75615480D01*
X154719097Y-75763145D01*
X154767701Y-75923370D01*
X154784112Y-76090000D01*
X154767701Y-76256630D01*
X154719097Y-76416855D01*
X154640169Y-76564520D01*
X154533949Y-76693949D01*
X154404520Y-76800169D01*
X154256855Y-76879097D01*
X154096630Y-76927701D01*
X153971752Y-76940000D01*
X153888248Y-76940000D01*
X153763370Y-76927701D01*
X153603145Y-76879097D01*
X153455480Y-76800169D01*
X153326051Y-76693949D01*
X153219831Y-76564520D01*
X153140903Y-76416855D01*
X153092299Y-76256630D01*
X153075888Y-76090000D01*
X153092299Y-75923370D01*
X153140903Y-75763145D01*
X153219831Y-75615480D01*
X153326051Y-75486051D01*
X153455480Y-75379831D01*
X153603145Y-75300903D01*
X153763370Y-75252299D01*
X153888248Y-75240000D01*
X153971752Y-75240000D01*
X154096630Y-75252299D01*
X154096630Y-75252299D01*
G37*
G36*
X118536630Y-75252299D02*
X118696855Y-75300903D01*
X118844520Y-75379831D01*
X118973949Y-75486051D01*
X119080169Y-75615480D01*
X119159097Y-75763145D01*
X119207701Y-75923370D01*
X119224112Y-76090000D01*
X119207701Y-76256630D01*
X119159097Y-76416855D01*
X119080169Y-76564520D01*
X118973949Y-76693949D01*
X118844520Y-76800169D01*
X118696855Y-76879097D01*
X118536630Y-76927701D01*
X118411752Y-76940000D01*
X118328248Y-76940000D01*
X118203370Y-76927701D01*
X118043145Y-76879097D01*
X117895480Y-76800169D01*
X117766051Y-76693949D01*
X117659831Y-76564520D01*
X117580903Y-76416855D01*
X117532299Y-76256630D01*
X117515888Y-76090000D01*
X117532299Y-75923370D01*
X117580903Y-75763145D01*
X117659831Y-75615480D01*
X117766051Y-75486051D01*
X117895480Y-75379831D01*
X118043145Y-75300903D01*
X118203370Y-75252299D01*
X118328248Y-75240000D01*
X118411752Y-75240000D01*
X118536630Y-75252299D01*
X118536630Y-75252299D01*
G37*
G36*
X121076630Y-75252299D02*
X121236855Y-75300903D01*
X121384520Y-75379831D01*
X121513949Y-75486051D01*
X121620169Y-75615480D01*
X121699097Y-75763145D01*
X121747701Y-75923370D01*
X121764112Y-76090000D01*
X121747701Y-76256630D01*
X121699097Y-76416855D01*
X121620169Y-76564520D01*
X121513949Y-76693949D01*
X121384520Y-76800169D01*
X121236855Y-76879097D01*
X121076630Y-76927701D01*
X120951752Y-76940000D01*
X120868248Y-76940000D01*
X120743370Y-76927701D01*
X120583145Y-76879097D01*
X120435480Y-76800169D01*
X120306051Y-76693949D01*
X120199831Y-76564520D01*
X120120903Y-76416855D01*
X120072299Y-76256630D01*
X120055888Y-76090000D01*
X120072299Y-75923370D01*
X120120903Y-75763145D01*
X120199831Y-75615480D01*
X120306051Y-75486051D01*
X120435480Y-75379831D01*
X120583145Y-75300903D01*
X120743370Y-75252299D01*
X120868248Y-75240000D01*
X120951752Y-75240000D01*
X121076630Y-75252299D01*
X121076630Y-75252299D01*
G37*
G36*
X123616630Y-75252299D02*
X123776855Y-75300903D01*
X123924520Y-75379831D01*
X124053949Y-75486051D01*
X124160169Y-75615480D01*
X124239097Y-75763145D01*
X124287701Y-75923370D01*
X124304112Y-76090000D01*
X124287701Y-76256630D01*
X124239097Y-76416855D01*
X124160169Y-76564520D01*
X124053949Y-76693949D01*
X123924520Y-76800169D01*
X123776855Y-76879097D01*
X123616630Y-76927701D01*
X123491752Y-76940000D01*
X123408248Y-76940000D01*
X123283370Y-76927701D01*
X123123145Y-76879097D01*
X122975480Y-76800169D01*
X122846051Y-76693949D01*
X122739831Y-76564520D01*
X122660903Y-76416855D01*
X122612299Y-76256630D01*
X122595888Y-76090000D01*
X122612299Y-75923370D01*
X122660903Y-75763145D01*
X122739831Y-75615480D01*
X122846051Y-75486051D01*
X122975480Y-75379831D01*
X123123145Y-75300903D01*
X123283370Y-75252299D01*
X123408248Y-75240000D01*
X123491752Y-75240000D01*
X123616630Y-75252299D01*
X123616630Y-75252299D01*
G37*
G36*
X126156630Y-75252299D02*
X126316855Y-75300903D01*
X126464520Y-75379831D01*
X126593949Y-75486051D01*
X126700169Y-75615480D01*
X126779097Y-75763145D01*
X126827701Y-75923370D01*
X126844112Y-76090000D01*
X126827701Y-76256630D01*
X126779097Y-76416855D01*
X126700169Y-76564520D01*
X126593949Y-76693949D01*
X126464520Y-76800169D01*
X126316855Y-76879097D01*
X126156630Y-76927701D01*
X126031752Y-76940000D01*
X125948248Y-76940000D01*
X125823370Y-76927701D01*
X125663145Y-76879097D01*
X125515480Y-76800169D01*
X125386051Y-76693949D01*
X125279831Y-76564520D01*
X125200903Y-76416855D01*
X125152299Y-76256630D01*
X125135888Y-76090000D01*
X125152299Y-75923370D01*
X125200903Y-75763145D01*
X125279831Y-75615480D01*
X125386051Y-75486051D01*
X125515480Y-75379831D01*
X125663145Y-75300903D01*
X125823370Y-75252299D01*
X125948248Y-75240000D01*
X126031752Y-75240000D01*
X126156630Y-75252299D01*
X126156630Y-75252299D01*
G37*
G36*
X156636630Y-75252299D02*
X156796855Y-75300903D01*
X156944520Y-75379831D01*
X157073949Y-75486051D01*
X157180169Y-75615480D01*
X157259097Y-75763145D01*
X157307701Y-75923370D01*
X157324112Y-76090000D01*
X157307701Y-76256630D01*
X157259097Y-76416855D01*
X157180169Y-76564520D01*
X157073949Y-76693949D01*
X156944520Y-76800169D01*
X156796855Y-76879097D01*
X156636630Y-76927701D01*
X156511752Y-76940000D01*
X156428248Y-76940000D01*
X156303370Y-76927701D01*
X156143145Y-76879097D01*
X155995480Y-76800169D01*
X155866051Y-76693949D01*
X155759831Y-76564520D01*
X155680903Y-76416855D01*
X155632299Y-76256630D01*
X155615888Y-76090000D01*
X155632299Y-75923370D01*
X155680903Y-75763145D01*
X155759831Y-75615480D01*
X155866051Y-75486051D01*
X155995480Y-75379831D01*
X156143145Y-75300903D01*
X156303370Y-75252299D01*
X156428248Y-75240000D01*
X156511752Y-75240000D01*
X156636630Y-75252299D01*
X156636630Y-75252299D01*
G37*
G36*
X143936630Y-75252299D02*
X144096855Y-75300903D01*
X144244520Y-75379831D01*
X144373949Y-75486051D01*
X144480169Y-75615480D01*
X144559097Y-75763145D01*
X144607701Y-75923370D01*
X144624112Y-76090000D01*
X144607701Y-76256630D01*
X144559097Y-76416855D01*
X144480169Y-76564520D01*
X144373949Y-76693949D01*
X144244520Y-76800169D01*
X144096855Y-76879097D01*
X143936630Y-76927701D01*
X143811752Y-76940000D01*
X143728248Y-76940000D01*
X143603370Y-76927701D01*
X143443145Y-76879097D01*
X143295480Y-76800169D01*
X143166051Y-76693949D01*
X143059831Y-76564520D01*
X142980903Y-76416855D01*
X142932299Y-76256630D01*
X142915888Y-76090000D01*
X142932299Y-75923370D01*
X142980903Y-75763145D01*
X143059831Y-75615480D01*
X143166051Y-75486051D01*
X143295480Y-75379831D01*
X143443145Y-75300903D01*
X143603370Y-75252299D01*
X143728248Y-75240000D01*
X143811752Y-75240000D01*
X143936630Y-75252299D01*
X143936630Y-75252299D01*
G37*
G36*
X115996630Y-75252299D02*
X116156855Y-75300903D01*
X116304520Y-75379831D01*
X116433949Y-75486051D01*
X116540169Y-75615480D01*
X116619097Y-75763145D01*
X116667701Y-75923370D01*
X116684112Y-76090000D01*
X116667701Y-76256630D01*
X116619097Y-76416855D01*
X116540169Y-76564520D01*
X116433949Y-76693949D01*
X116304520Y-76800169D01*
X116156855Y-76879097D01*
X115996630Y-76927701D01*
X115871752Y-76940000D01*
X115788248Y-76940000D01*
X115663370Y-76927701D01*
X115503145Y-76879097D01*
X115355480Y-76800169D01*
X115226051Y-76693949D01*
X115119831Y-76564520D01*
X115040903Y-76416855D01*
X114992299Y-76256630D01*
X114975888Y-76090000D01*
X114992299Y-75923370D01*
X115040903Y-75763145D01*
X115119831Y-75615480D01*
X115226051Y-75486051D01*
X115355480Y-75379831D01*
X115503145Y-75300903D01*
X115663370Y-75252299D01*
X115788248Y-75240000D01*
X115871752Y-75240000D01*
X115996630Y-75252299D01*
X115996630Y-75252299D01*
G37*
G36*
X138856630Y-75252299D02*
X139016855Y-75300903D01*
X139164520Y-75379831D01*
X139293949Y-75486051D01*
X139400169Y-75615480D01*
X139479097Y-75763145D01*
X139527701Y-75923370D01*
X139544112Y-76090000D01*
X139527701Y-76256630D01*
X139479097Y-76416855D01*
X139400169Y-76564520D01*
X139293949Y-76693949D01*
X139164520Y-76800169D01*
X139016855Y-76879097D01*
X138856630Y-76927701D01*
X138731752Y-76940000D01*
X138648248Y-76940000D01*
X138523370Y-76927701D01*
X138363145Y-76879097D01*
X138215480Y-76800169D01*
X138086051Y-76693949D01*
X137979831Y-76564520D01*
X137900903Y-76416855D01*
X137852299Y-76256630D01*
X137835888Y-76090000D01*
X137852299Y-75923370D01*
X137900903Y-75763145D01*
X137979831Y-75615480D01*
X138086051Y-75486051D01*
X138215480Y-75379831D01*
X138363145Y-75300903D01*
X138523370Y-75252299D01*
X138648248Y-75240000D01*
X138731752Y-75240000D01*
X138856630Y-75252299D01*
X138856630Y-75252299D01*
G37*
G36*
X141396630Y-75252299D02*
X141556855Y-75300903D01*
X141704520Y-75379831D01*
X141833949Y-75486051D01*
X141940169Y-75615480D01*
X142019097Y-75763145D01*
X142067701Y-75923370D01*
X142084112Y-76090000D01*
X142067701Y-76256630D01*
X142019097Y-76416855D01*
X141940169Y-76564520D01*
X141833949Y-76693949D01*
X141704520Y-76800169D01*
X141556855Y-76879097D01*
X141396630Y-76927701D01*
X141271752Y-76940000D01*
X141188248Y-76940000D01*
X141063370Y-76927701D01*
X140903145Y-76879097D01*
X140755480Y-76800169D01*
X140626051Y-76693949D01*
X140519831Y-76564520D01*
X140440903Y-76416855D01*
X140392299Y-76256630D01*
X140375888Y-76090000D01*
X140392299Y-75923370D01*
X140440903Y-75763145D01*
X140519831Y-75615480D01*
X140626051Y-75486051D01*
X140755480Y-75379831D01*
X140903145Y-75300903D01*
X141063370Y-75252299D01*
X141188248Y-75240000D01*
X141271752Y-75240000D01*
X141396630Y-75252299D01*
X141396630Y-75252299D01*
G37*
G36*
X136316630Y-75252299D02*
X136476855Y-75300903D01*
X136624520Y-75379831D01*
X136753949Y-75486051D01*
X136860169Y-75615480D01*
X136939097Y-75763145D01*
X136987701Y-75923370D01*
X137004112Y-76090000D01*
X136987701Y-76256630D01*
X136939097Y-76416855D01*
X136860169Y-76564520D01*
X136753949Y-76693949D01*
X136624520Y-76800169D01*
X136476855Y-76879097D01*
X136316630Y-76927701D01*
X136191752Y-76940000D01*
X136108248Y-76940000D01*
X135983370Y-76927701D01*
X135823145Y-76879097D01*
X135675480Y-76800169D01*
X135546051Y-76693949D01*
X135439831Y-76564520D01*
X135360903Y-76416855D01*
X135312299Y-76256630D01*
X135295888Y-76090000D01*
X135312299Y-75923370D01*
X135360903Y-75763145D01*
X135439831Y-75615480D01*
X135546051Y-75486051D01*
X135675480Y-75379831D01*
X135823145Y-75300903D01*
X135983370Y-75252299D01*
X136108248Y-75240000D01*
X136191752Y-75240000D01*
X136316630Y-75252299D01*
X136316630Y-75252299D01*
G37*
G36*
X133776630Y-75252299D02*
X133936855Y-75300903D01*
X134084520Y-75379831D01*
X134213949Y-75486051D01*
X134320169Y-75615480D01*
X134399097Y-75763145D01*
X134447701Y-75923370D01*
X134464112Y-76090000D01*
X134447701Y-76256630D01*
X134399097Y-76416855D01*
X134320169Y-76564520D01*
X134213949Y-76693949D01*
X134084520Y-76800169D01*
X133936855Y-76879097D01*
X133776630Y-76927701D01*
X133651752Y-76940000D01*
X133568248Y-76940000D01*
X133443370Y-76927701D01*
X133283145Y-76879097D01*
X133135480Y-76800169D01*
X133006051Y-76693949D01*
X132899831Y-76564520D01*
X132820903Y-76416855D01*
X132772299Y-76256630D01*
X132755888Y-76090000D01*
X132772299Y-75923370D01*
X132820903Y-75763145D01*
X132899831Y-75615480D01*
X133006051Y-75486051D01*
X133135480Y-75379831D01*
X133283145Y-75300903D01*
X133443370Y-75252299D01*
X133568248Y-75240000D01*
X133651752Y-75240000D01*
X133776630Y-75252299D01*
X133776630Y-75252299D01*
G37*
G36*
X131236630Y-75252299D02*
X131396855Y-75300903D01*
X131544520Y-75379831D01*
X131673949Y-75486051D01*
X131780169Y-75615480D01*
X131859097Y-75763145D01*
X131907701Y-75923370D01*
X131924112Y-76090000D01*
X131907701Y-76256630D01*
X131859097Y-76416855D01*
X131780169Y-76564520D01*
X131673949Y-76693949D01*
X131544520Y-76800169D01*
X131396855Y-76879097D01*
X131236630Y-76927701D01*
X131111752Y-76940000D01*
X131028248Y-76940000D01*
X130903370Y-76927701D01*
X130743145Y-76879097D01*
X130595480Y-76800169D01*
X130466051Y-76693949D01*
X130359831Y-76564520D01*
X130280903Y-76416855D01*
X130232299Y-76256630D01*
X130215888Y-76090000D01*
X130232299Y-75923370D01*
X130280903Y-75763145D01*
X130359831Y-75615480D01*
X130466051Y-75486051D01*
X130595480Y-75379831D01*
X130743145Y-75300903D01*
X130903370Y-75252299D01*
X131028248Y-75240000D01*
X131111752Y-75240000D01*
X131236630Y-75252299D01*
X131236630Y-75252299D01*
G37*
G36*
X128696630Y-75252299D02*
X128856855Y-75300903D01*
X129004520Y-75379831D01*
X129133949Y-75486051D01*
X129240169Y-75615480D01*
X129319097Y-75763145D01*
X129367701Y-75923370D01*
X129384112Y-76090000D01*
X129367701Y-76256630D01*
X129319097Y-76416855D01*
X129240169Y-76564520D01*
X129133949Y-76693949D01*
X129004520Y-76800169D01*
X128856855Y-76879097D01*
X128696630Y-76927701D01*
X128571752Y-76940000D01*
X128488248Y-76940000D01*
X128363370Y-76927701D01*
X128203145Y-76879097D01*
X128055480Y-76800169D01*
X127926051Y-76693949D01*
X127819831Y-76564520D01*
X127740903Y-76416855D01*
X127692299Y-76256630D01*
X127675888Y-76090000D01*
X127692299Y-75923370D01*
X127740903Y-75763145D01*
X127819831Y-75615480D01*
X127926051Y-75486051D01*
X128055480Y-75379831D01*
X128203145Y-75300903D01*
X128363370Y-75252299D01*
X128488248Y-75240000D01*
X128571752Y-75240000D01*
X128696630Y-75252299D01*
X128696630Y-75252299D01*
G37*
G36*
X161716630Y-72712299D02*
X161876855Y-72760903D01*
X162024520Y-72839831D01*
X162153949Y-72946051D01*
X162260169Y-73075480D01*
X162339097Y-73223145D01*
X162387701Y-73383370D01*
X162404112Y-73550000D01*
X162387701Y-73716630D01*
X162339097Y-73876855D01*
X162260169Y-74024520D01*
X162153949Y-74153949D01*
X162024520Y-74260169D01*
X161876855Y-74339097D01*
X161716630Y-74387701D01*
X161591752Y-74400000D01*
X161508248Y-74400000D01*
X161383370Y-74387701D01*
X161223145Y-74339097D01*
X161075480Y-74260169D01*
X160946051Y-74153949D01*
X160839831Y-74024520D01*
X160760903Y-73876855D01*
X160712299Y-73716630D01*
X160695888Y-73550000D01*
X160712299Y-73383370D01*
X160760903Y-73223145D01*
X160839831Y-73075480D01*
X160946051Y-72946051D01*
X161075480Y-72839831D01*
X161223145Y-72760903D01*
X161383370Y-72712299D01*
X161508248Y-72700000D01*
X161591752Y-72700000D01*
X161716630Y-72712299D01*
X161716630Y-72712299D01*
G37*
G36*
X156636630Y-72712299D02*
X156796855Y-72760903D01*
X156944520Y-72839831D01*
X157073949Y-72946051D01*
X157180169Y-73075480D01*
X157259097Y-73223145D01*
X157307701Y-73383370D01*
X157324112Y-73550000D01*
X157307701Y-73716630D01*
X157259097Y-73876855D01*
X157180169Y-74024520D01*
X157073949Y-74153949D01*
X156944520Y-74260169D01*
X156796855Y-74339097D01*
X156636630Y-74387701D01*
X156511752Y-74400000D01*
X156428248Y-74400000D01*
X156303370Y-74387701D01*
X156143145Y-74339097D01*
X155995480Y-74260169D01*
X155866051Y-74153949D01*
X155759831Y-74024520D01*
X155680903Y-73876855D01*
X155632299Y-73716630D01*
X155615888Y-73550000D01*
X155632299Y-73383370D01*
X155680903Y-73223145D01*
X155759831Y-73075480D01*
X155866051Y-72946051D01*
X155995480Y-72839831D01*
X156143145Y-72760903D01*
X156303370Y-72712299D01*
X156428248Y-72700000D01*
X156511752Y-72700000D01*
X156636630Y-72712299D01*
X156636630Y-72712299D01*
G37*
G36*
X159176630Y-72712299D02*
X159336855Y-72760903D01*
X159484520Y-72839831D01*
X159613949Y-72946051D01*
X159720169Y-73075480D01*
X159799097Y-73223145D01*
X159847701Y-73383370D01*
X159864112Y-73550000D01*
X159847701Y-73716630D01*
X159799097Y-73876855D01*
X159720169Y-74024520D01*
X159613949Y-74153949D01*
X159484520Y-74260169D01*
X159336855Y-74339097D01*
X159176630Y-74387701D01*
X159051752Y-74400000D01*
X158968248Y-74400000D01*
X158843370Y-74387701D01*
X158683145Y-74339097D01*
X158535480Y-74260169D01*
X158406051Y-74153949D01*
X158299831Y-74024520D01*
X158220903Y-73876855D01*
X158172299Y-73716630D01*
X158155888Y-73550000D01*
X158172299Y-73383370D01*
X158220903Y-73223145D01*
X158299831Y-73075480D01*
X158406051Y-72946051D01*
X158535480Y-72839831D01*
X158683145Y-72760903D01*
X158843370Y-72712299D01*
X158968248Y-72700000D01*
X159051752Y-72700000D01*
X159176630Y-72712299D01*
X159176630Y-72712299D01*
G37*
G36*
X113456630Y-72712299D02*
X113616855Y-72760903D01*
X113764520Y-72839831D01*
X113893949Y-72946051D01*
X114000169Y-73075480D01*
X114079097Y-73223145D01*
X114127701Y-73383370D01*
X114144112Y-73550000D01*
X114127701Y-73716630D01*
X114079097Y-73876855D01*
X114000169Y-74024520D01*
X113893949Y-74153949D01*
X113764520Y-74260169D01*
X113616855Y-74339097D01*
X113456630Y-74387701D01*
X113331752Y-74400000D01*
X113248248Y-74400000D01*
X113123370Y-74387701D01*
X112963145Y-74339097D01*
X112815480Y-74260169D01*
X112686051Y-74153949D01*
X112579831Y-74024520D01*
X112500903Y-73876855D01*
X112452299Y-73716630D01*
X112435888Y-73550000D01*
X112452299Y-73383370D01*
X112500903Y-73223145D01*
X112579831Y-73075480D01*
X112686051Y-72946051D01*
X112815480Y-72839831D01*
X112963145Y-72760903D01*
X113123370Y-72712299D01*
X113248248Y-72700000D01*
X113331752Y-72700000D01*
X113456630Y-72712299D01*
X113456630Y-72712299D01*
G37*
G36*
X115996630Y-72712299D02*
X116156855Y-72760903D01*
X116304520Y-72839831D01*
X116433949Y-72946051D01*
X116540169Y-73075480D01*
X116619097Y-73223145D01*
X116667701Y-73383370D01*
X116684112Y-73550000D01*
X116667701Y-73716630D01*
X116619097Y-73876855D01*
X116540169Y-74024520D01*
X116433949Y-74153949D01*
X116304520Y-74260169D01*
X116156855Y-74339097D01*
X115996630Y-74387701D01*
X115871752Y-74400000D01*
X115788248Y-74400000D01*
X115663370Y-74387701D01*
X115503145Y-74339097D01*
X115355480Y-74260169D01*
X115226051Y-74153949D01*
X115119831Y-74024520D01*
X115040903Y-73876855D01*
X114992299Y-73716630D01*
X114975888Y-73550000D01*
X114992299Y-73383370D01*
X115040903Y-73223145D01*
X115119831Y-73075480D01*
X115226051Y-72946051D01*
X115355480Y-72839831D01*
X115503145Y-72760903D01*
X115663370Y-72712299D01*
X115788248Y-72700000D01*
X115871752Y-72700000D01*
X115996630Y-72712299D01*
X115996630Y-72712299D01*
G37*
G36*
X118536630Y-72712299D02*
X118696855Y-72760903D01*
X118844520Y-72839831D01*
X118973949Y-72946051D01*
X119080169Y-73075480D01*
X119159097Y-73223145D01*
X119207701Y-73383370D01*
X119224112Y-73550000D01*
X119207701Y-73716630D01*
X119159097Y-73876855D01*
X119080169Y-74024520D01*
X118973949Y-74153949D01*
X118844520Y-74260169D01*
X118696855Y-74339097D01*
X118536630Y-74387701D01*
X118411752Y-74400000D01*
X118328248Y-74400000D01*
X118203370Y-74387701D01*
X118043145Y-74339097D01*
X117895480Y-74260169D01*
X117766051Y-74153949D01*
X117659831Y-74024520D01*
X117580903Y-73876855D01*
X117532299Y-73716630D01*
X117515888Y-73550000D01*
X117532299Y-73383370D01*
X117580903Y-73223145D01*
X117659831Y-73075480D01*
X117766051Y-72946051D01*
X117895480Y-72839831D01*
X118043145Y-72760903D01*
X118203370Y-72712299D01*
X118328248Y-72700000D01*
X118411752Y-72700000D01*
X118536630Y-72712299D01*
X118536630Y-72712299D01*
G37*
G36*
X121076630Y-72712299D02*
X121236855Y-72760903D01*
X121384520Y-72839831D01*
X121513949Y-72946051D01*
X121620169Y-73075480D01*
X121699097Y-73223145D01*
X121747701Y-73383370D01*
X121764112Y-73550000D01*
X121747701Y-73716630D01*
X121699097Y-73876855D01*
X121620169Y-74024520D01*
X121513949Y-74153949D01*
X121384520Y-74260169D01*
X121236855Y-74339097D01*
X121076630Y-74387701D01*
X120951752Y-74400000D01*
X120868248Y-74400000D01*
X120743370Y-74387701D01*
X120583145Y-74339097D01*
X120435480Y-74260169D01*
X120306051Y-74153949D01*
X120199831Y-74024520D01*
X120120903Y-73876855D01*
X120072299Y-73716630D01*
X120055888Y-73550000D01*
X120072299Y-73383370D01*
X120120903Y-73223145D01*
X120199831Y-73075480D01*
X120306051Y-72946051D01*
X120435480Y-72839831D01*
X120583145Y-72760903D01*
X120743370Y-72712299D01*
X120868248Y-72700000D01*
X120951752Y-72700000D01*
X121076630Y-72712299D01*
X121076630Y-72712299D01*
G37*
G36*
X123616630Y-72712299D02*
X123776855Y-72760903D01*
X123924520Y-72839831D01*
X124053949Y-72946051D01*
X124160169Y-73075480D01*
X124239097Y-73223145D01*
X124287701Y-73383370D01*
X124304112Y-73550000D01*
X124287701Y-73716630D01*
X124239097Y-73876855D01*
X124160169Y-74024520D01*
X124053949Y-74153949D01*
X123924520Y-74260169D01*
X123776855Y-74339097D01*
X123616630Y-74387701D01*
X123491752Y-74400000D01*
X123408248Y-74400000D01*
X123283370Y-74387701D01*
X123123145Y-74339097D01*
X122975480Y-74260169D01*
X122846051Y-74153949D01*
X122739831Y-74024520D01*
X122660903Y-73876855D01*
X122612299Y-73716630D01*
X122595888Y-73550000D01*
X122612299Y-73383370D01*
X122660903Y-73223145D01*
X122739831Y-73075480D01*
X122846051Y-72946051D01*
X122975480Y-72839831D01*
X123123145Y-72760903D01*
X123283370Y-72712299D01*
X123408248Y-72700000D01*
X123491752Y-72700000D01*
X123616630Y-72712299D01*
X123616630Y-72712299D01*
G37*
G36*
X126156630Y-72712299D02*
X126316855Y-72760903D01*
X126464520Y-72839831D01*
X126593949Y-72946051D01*
X126700169Y-73075480D01*
X126779097Y-73223145D01*
X126827701Y-73383370D01*
X126844112Y-73550000D01*
X126827701Y-73716630D01*
X126779097Y-73876855D01*
X126700169Y-74024520D01*
X126593949Y-74153949D01*
X126464520Y-74260169D01*
X126316855Y-74339097D01*
X126156630Y-74387701D01*
X126031752Y-74400000D01*
X125948248Y-74400000D01*
X125823370Y-74387701D01*
X125663145Y-74339097D01*
X125515480Y-74260169D01*
X125386051Y-74153949D01*
X125279831Y-74024520D01*
X125200903Y-73876855D01*
X125152299Y-73716630D01*
X125135888Y-73550000D01*
X125152299Y-73383370D01*
X125200903Y-73223145D01*
X125279831Y-73075480D01*
X125386051Y-72946051D01*
X125515480Y-72839831D01*
X125663145Y-72760903D01*
X125823370Y-72712299D01*
X125948248Y-72700000D01*
X126031752Y-72700000D01*
X126156630Y-72712299D01*
X126156630Y-72712299D01*
G37*
G36*
X154096630Y-72712299D02*
X154256855Y-72760903D01*
X154404520Y-72839831D01*
X154533949Y-72946051D01*
X154640169Y-73075480D01*
X154719097Y-73223145D01*
X154767701Y-73383370D01*
X154784112Y-73550000D01*
X154767701Y-73716630D01*
X154719097Y-73876855D01*
X154640169Y-74024520D01*
X154533949Y-74153949D01*
X154404520Y-74260169D01*
X154256855Y-74339097D01*
X154096630Y-74387701D01*
X153971752Y-74400000D01*
X153888248Y-74400000D01*
X153763370Y-74387701D01*
X153603145Y-74339097D01*
X153455480Y-74260169D01*
X153326051Y-74153949D01*
X153219831Y-74024520D01*
X153140903Y-73876855D01*
X153092299Y-73716630D01*
X153075888Y-73550000D01*
X153092299Y-73383370D01*
X153140903Y-73223145D01*
X153219831Y-73075480D01*
X153326051Y-72946051D01*
X153455480Y-72839831D01*
X153603145Y-72760903D01*
X153763370Y-72712299D01*
X153888248Y-72700000D01*
X153971752Y-72700000D01*
X154096630Y-72712299D01*
X154096630Y-72712299D01*
G37*
G36*
X131236630Y-72712299D02*
X131396855Y-72760903D01*
X131544520Y-72839831D01*
X131673949Y-72946051D01*
X131780169Y-73075480D01*
X131859097Y-73223145D01*
X131907701Y-73383370D01*
X131924112Y-73550000D01*
X131907701Y-73716630D01*
X131859097Y-73876855D01*
X131780169Y-74024520D01*
X131673949Y-74153949D01*
X131544520Y-74260169D01*
X131396855Y-74339097D01*
X131236630Y-74387701D01*
X131111752Y-74400000D01*
X131028248Y-74400000D01*
X130903370Y-74387701D01*
X130743145Y-74339097D01*
X130595480Y-74260169D01*
X130466051Y-74153949D01*
X130359831Y-74024520D01*
X130280903Y-73876855D01*
X130232299Y-73716630D01*
X130215888Y-73550000D01*
X130232299Y-73383370D01*
X130280903Y-73223145D01*
X130359831Y-73075480D01*
X130466051Y-72946051D01*
X130595480Y-72839831D01*
X130743145Y-72760903D01*
X130903370Y-72712299D01*
X131028248Y-72700000D01*
X131111752Y-72700000D01*
X131236630Y-72712299D01*
X131236630Y-72712299D01*
G37*
G36*
X133776630Y-72712299D02*
X133936855Y-72760903D01*
X134084520Y-72839831D01*
X134213949Y-72946051D01*
X134320169Y-73075480D01*
X134399097Y-73223145D01*
X134447701Y-73383370D01*
X134464112Y-73550000D01*
X134447701Y-73716630D01*
X134399097Y-73876855D01*
X134320169Y-74024520D01*
X134213949Y-74153949D01*
X134084520Y-74260169D01*
X133936855Y-74339097D01*
X133776630Y-74387701D01*
X133651752Y-74400000D01*
X133568248Y-74400000D01*
X133443370Y-74387701D01*
X133283145Y-74339097D01*
X133135480Y-74260169D01*
X133006051Y-74153949D01*
X132899831Y-74024520D01*
X132820903Y-73876855D01*
X132772299Y-73716630D01*
X132755888Y-73550000D01*
X132772299Y-73383370D01*
X132820903Y-73223145D01*
X132899831Y-73075480D01*
X133006051Y-72946051D01*
X133135480Y-72839831D01*
X133283145Y-72760903D01*
X133443370Y-72712299D01*
X133568248Y-72700000D01*
X133651752Y-72700000D01*
X133776630Y-72712299D01*
X133776630Y-72712299D01*
G37*
G36*
X136316630Y-72712299D02*
X136476855Y-72760903D01*
X136624520Y-72839831D01*
X136753949Y-72946051D01*
X136860169Y-73075480D01*
X136939097Y-73223145D01*
X136987701Y-73383370D01*
X137004112Y-73550000D01*
X136987701Y-73716630D01*
X136939097Y-73876855D01*
X136860169Y-74024520D01*
X136753949Y-74153949D01*
X136624520Y-74260169D01*
X136476855Y-74339097D01*
X136316630Y-74387701D01*
X136191752Y-74400000D01*
X136108248Y-74400000D01*
X135983370Y-74387701D01*
X135823145Y-74339097D01*
X135675480Y-74260169D01*
X135546051Y-74153949D01*
X135439831Y-74024520D01*
X135360903Y-73876855D01*
X135312299Y-73716630D01*
X135295888Y-73550000D01*
X135312299Y-73383370D01*
X135360903Y-73223145D01*
X135439831Y-73075480D01*
X135546051Y-72946051D01*
X135675480Y-72839831D01*
X135823145Y-72760903D01*
X135983370Y-72712299D01*
X136108248Y-72700000D01*
X136191752Y-72700000D01*
X136316630Y-72712299D01*
X136316630Y-72712299D01*
G37*
G36*
X138856630Y-72712299D02*
X139016855Y-72760903D01*
X139164520Y-72839831D01*
X139293949Y-72946051D01*
X139400169Y-73075480D01*
X139479097Y-73223145D01*
X139527701Y-73383370D01*
X139544112Y-73550000D01*
X139527701Y-73716630D01*
X139479097Y-73876855D01*
X139400169Y-74024520D01*
X139293949Y-74153949D01*
X139164520Y-74260169D01*
X139016855Y-74339097D01*
X138856630Y-74387701D01*
X138731752Y-74400000D01*
X138648248Y-74400000D01*
X138523370Y-74387701D01*
X138363145Y-74339097D01*
X138215480Y-74260169D01*
X138086051Y-74153949D01*
X137979831Y-74024520D01*
X137900903Y-73876855D01*
X137852299Y-73716630D01*
X137835888Y-73550000D01*
X137852299Y-73383370D01*
X137900903Y-73223145D01*
X137979831Y-73075480D01*
X138086051Y-72946051D01*
X138215480Y-72839831D01*
X138363145Y-72760903D01*
X138523370Y-72712299D01*
X138648248Y-72700000D01*
X138731752Y-72700000D01*
X138856630Y-72712299D01*
X138856630Y-72712299D01*
G37*
G36*
X141396630Y-72712299D02*
X141556855Y-72760903D01*
X141704520Y-72839831D01*
X141833949Y-72946051D01*
X141940169Y-73075480D01*
X142019097Y-73223145D01*
X142067701Y-73383370D01*
X142084112Y-73550000D01*
X142067701Y-73716630D01*
X142019097Y-73876855D01*
X141940169Y-74024520D01*
X141833949Y-74153949D01*
X141704520Y-74260169D01*
X141556855Y-74339097D01*
X141396630Y-74387701D01*
X141271752Y-74400000D01*
X141188248Y-74400000D01*
X141063370Y-74387701D01*
X140903145Y-74339097D01*
X140755480Y-74260169D01*
X140626051Y-74153949D01*
X140519831Y-74024520D01*
X140440903Y-73876855D01*
X140392299Y-73716630D01*
X140375888Y-73550000D01*
X140392299Y-73383370D01*
X140440903Y-73223145D01*
X140519831Y-73075480D01*
X140626051Y-72946051D01*
X140755480Y-72839831D01*
X140903145Y-72760903D01*
X141063370Y-72712299D01*
X141188248Y-72700000D01*
X141271752Y-72700000D01*
X141396630Y-72712299D01*
X141396630Y-72712299D01*
G37*
G36*
X146476630Y-72712299D02*
X146636855Y-72760903D01*
X146784520Y-72839831D01*
X146913949Y-72946051D01*
X147020169Y-73075480D01*
X147099097Y-73223145D01*
X147147701Y-73383370D01*
X147164112Y-73550000D01*
X147147701Y-73716630D01*
X147099097Y-73876855D01*
X147020169Y-74024520D01*
X146913949Y-74153949D01*
X146784520Y-74260169D01*
X146636855Y-74339097D01*
X146476630Y-74387701D01*
X146351752Y-74400000D01*
X146268248Y-74400000D01*
X146143370Y-74387701D01*
X145983145Y-74339097D01*
X145835480Y-74260169D01*
X145706051Y-74153949D01*
X145599831Y-74024520D01*
X145520903Y-73876855D01*
X145472299Y-73716630D01*
X145455888Y-73550000D01*
X145472299Y-73383370D01*
X145520903Y-73223145D01*
X145599831Y-73075480D01*
X145706051Y-72946051D01*
X145835480Y-72839831D01*
X145983145Y-72760903D01*
X146143370Y-72712299D01*
X146268248Y-72700000D01*
X146351752Y-72700000D01*
X146476630Y-72712299D01*
X146476630Y-72712299D01*
G37*
G36*
X149016630Y-72712299D02*
X149176855Y-72760903D01*
X149324520Y-72839831D01*
X149453949Y-72946051D01*
X149560169Y-73075480D01*
X149639097Y-73223145D01*
X149687701Y-73383370D01*
X149704112Y-73550000D01*
X149687701Y-73716630D01*
X149639097Y-73876855D01*
X149560169Y-74024520D01*
X149453949Y-74153949D01*
X149324520Y-74260169D01*
X149176855Y-74339097D01*
X149016630Y-74387701D01*
X148891752Y-74400000D01*
X148808248Y-74400000D01*
X148683370Y-74387701D01*
X148523145Y-74339097D01*
X148375480Y-74260169D01*
X148246051Y-74153949D01*
X148139831Y-74024520D01*
X148060903Y-73876855D01*
X148012299Y-73716630D01*
X147995888Y-73550000D01*
X148012299Y-73383370D01*
X148060903Y-73223145D01*
X148139831Y-73075480D01*
X148246051Y-72946051D01*
X148375480Y-72839831D01*
X148523145Y-72760903D01*
X148683370Y-72712299D01*
X148808248Y-72700000D01*
X148891752Y-72700000D01*
X149016630Y-72712299D01*
X149016630Y-72712299D01*
G37*
G36*
X151556630Y-72712299D02*
X151716855Y-72760903D01*
X151864520Y-72839831D01*
X151993949Y-72946051D01*
X152100169Y-73075480D01*
X152179097Y-73223145D01*
X152227701Y-73383370D01*
X152244112Y-73550000D01*
X152227701Y-73716630D01*
X152179097Y-73876855D01*
X152100169Y-74024520D01*
X151993949Y-74153949D01*
X151864520Y-74260169D01*
X151716855Y-74339097D01*
X151556630Y-74387701D01*
X151431752Y-74400000D01*
X151348248Y-74400000D01*
X151223370Y-74387701D01*
X151063145Y-74339097D01*
X150915480Y-74260169D01*
X150786051Y-74153949D01*
X150679831Y-74024520D01*
X150600903Y-73876855D01*
X150552299Y-73716630D01*
X150535888Y-73550000D01*
X150552299Y-73383370D01*
X150600903Y-73223145D01*
X150679831Y-73075480D01*
X150786051Y-72946051D01*
X150915480Y-72839831D01*
X151063145Y-72760903D01*
X151223370Y-72712299D01*
X151348248Y-72700000D01*
X151431752Y-72700000D01*
X151556630Y-72712299D01*
X151556630Y-72712299D01*
G37*
G36*
X128696630Y-72712299D02*
X128856855Y-72760903D01*
X129004520Y-72839831D01*
X129133949Y-72946051D01*
X129240169Y-73075480D01*
X129319097Y-73223145D01*
X129367701Y-73383370D01*
X129384112Y-73550000D01*
X129367701Y-73716630D01*
X129319097Y-73876855D01*
X129240169Y-74024520D01*
X129133949Y-74153949D01*
X129004520Y-74260169D01*
X128856855Y-74339097D01*
X128696630Y-74387701D01*
X128571752Y-74400000D01*
X128488248Y-74400000D01*
X128363370Y-74387701D01*
X128203145Y-74339097D01*
X128055480Y-74260169D01*
X127926051Y-74153949D01*
X127819831Y-74024520D01*
X127740903Y-73876855D01*
X127692299Y-73716630D01*
X127675888Y-73550000D01*
X127692299Y-73383370D01*
X127740903Y-73223145D01*
X127819831Y-73075480D01*
X127926051Y-72946051D01*
X128055480Y-72839831D01*
X128203145Y-72760903D01*
X128363370Y-72712299D01*
X128488248Y-72700000D01*
X128571752Y-72700000D01*
X128696630Y-72712299D01*
X128696630Y-72712299D01*
G37*
G36*
X143936630Y-72712299D02*
X144096855Y-72760903D01*
X144244520Y-72839831D01*
X144373949Y-72946051D01*
X144480169Y-73075480D01*
X144559097Y-73223145D01*
X144607701Y-73383370D01*
X144624112Y-73550000D01*
X144607701Y-73716630D01*
X144559097Y-73876855D01*
X144480169Y-74024520D01*
X144373949Y-74153949D01*
X144244520Y-74260169D01*
X144096855Y-74339097D01*
X143936630Y-74387701D01*
X143811752Y-74400000D01*
X143728248Y-74400000D01*
X143603370Y-74387701D01*
X143443145Y-74339097D01*
X143295480Y-74260169D01*
X143166051Y-74153949D01*
X143059831Y-74024520D01*
X142980903Y-73876855D01*
X142932299Y-73716630D01*
X142915888Y-73550000D01*
X142932299Y-73383370D01*
X142980903Y-73223145D01*
X143059831Y-73075480D01*
X143166051Y-72946051D01*
X143295480Y-72839831D01*
X143443145Y-72760903D01*
X143603370Y-72712299D01*
X143728248Y-72700000D01*
X143811752Y-72700000D01*
X143936630Y-72712299D01*
X143936630Y-72712299D01*
G37*
M02*
