M48
INCH,TZ
T1C0.0250
T2C0.0295
T3C0.0315
T4C0.0394
T5C0.0433
T6C0.1181
%
G90
G05
T1
X43810Y-30739
X44110Y-52639
X44438Y-42560
X44438Y-49212
X44910Y-49739
X44945Y-51105
X45602Y-41396
X45810Y-46039
X46110Y-30339
X46810Y-50239
X47010Y-43139
X48638Y-40512
X49610Y-43639
X49658Y-44587
X49658Y-44587
X49710Y-32239
X50510Y-47039
X51710Y-40939
X52410Y-43539
X52910Y-45739
X53810Y-46639
X56038Y-42662
X56038Y-48267
X57010Y-46239
X57610Y-43039
X57610Y-47389
X60563Y-44587
X61610Y-43039
X61610Y-43039
X61610Y-49339
X62210Y-33339
X62610Y-43539
X62610Y-48313
X65710Y-34239
X66110Y-45339
X66563Y-46639
X66748Y-48082
X66748Y-49991
X66810Y-38823
X66810Y-38823
X67710Y-43439
X68192Y-50857
X68210Y-40339
X69410Y-33239
X69483Y-46667
T2
X66848Y-31266
X68108Y-34888
X68659Y-33825
X69840Y-31069
X71179Y-32841
T3
X59110Y-31539
X61110Y-31539
X67510Y-44639
X67510Y-46639
X55610Y-31514
X57610Y-31514
T4
X53410Y-47739
X53410Y-48739
X53410Y-49739
X53410Y-50739
X53410Y-51739
X53410Y-52739
X47610Y-33039
X60535Y-47839
X60535Y-48839
X60535Y-49839
X60535Y-50839
X60535Y-51839
X60535Y-52839
X49810Y-47839
X49810Y-48839
X49810Y-49839
X49810Y-50839
X49810Y-51839
X49810Y-52839
X68010Y-36039
X69010Y-36039
X46210Y-47739
X46210Y-48739
X46210Y-49739
X46210Y-50739
X46210Y-51739
X46210Y-52739
X44610Y-28939
X44610Y-29939
X45610Y-28939
X45610Y-29939
X46610Y-28939
X46610Y-29939
X47610Y-28939
X47610Y-29939
X48610Y-28939
X48610Y-29939
X49610Y-28939
X49610Y-29939
X50610Y-28939
X50610Y-29939
X51610Y-28939
X51610Y-29939
X52610Y-28939
X52610Y-29939
X53610Y-28939
X53610Y-29939
X54610Y-28939
X54610Y-29939
X55610Y-28939
X55610Y-29939
X56610Y-28939
X56610Y-29939
X57610Y-28939
X57610Y-29939
X58610Y-28939
X58610Y-29939
X59610Y-28939
X59610Y-29939
X60610Y-28939
X60610Y-29939
X61610Y-28939
X61610Y-29939
X62610Y-28939
X62610Y-29939
X63610Y-28939
X63610Y-29939
X63610Y-40039
X66610Y-52739
X68972Y-52739
X42610Y-50539
X42610Y-51539
X42610Y-52539
X42610Y-53539
X42610Y-54539
X47610Y-40039
X42910Y-44539
X43910Y-44539
X44910Y-44539
X45910Y-44539
X46910Y-44539
X47910Y-44539
X63610Y-33039
X69010Y-37239
X69010Y-38239
X69010Y-39239
X69010Y-40239
X69010Y-41239
X69010Y-42239
X69010Y-43239
X69010Y-44239
X69010Y-45239
X69010Y-46239
X69010Y-47239
X69010Y-48239
X69010Y-49239
X69010Y-50239
X57010Y-47839
X57010Y-48839
X57010Y-49839
X57010Y-50839
X57010Y-51839
X57010Y-52839
X64010Y-47839
X64010Y-48839
X64010Y-49839
X64010Y-50839
X64010Y-51839
X64010Y-52839
T5
X67510Y-48139
X67510Y-49639
X65810Y-42039
X67310Y-42039
X53810Y-42039
X55310Y-42039
X50810Y-42039
X52310Y-42039
X56710Y-42039
X58210Y-42039
X59810Y-42089
X61310Y-42089
X62810Y-42039
X64310Y-42039
T6
X65520Y-29457
X65520Y-48748
X42685Y-48748
X42685Y-29457
T0
M30
