G04 #@! TF.GenerationSoftware,KiCad,Pcbnew,(5.0.1)-4*
G04 #@! TF.CreationDate,2018-12-13T18:51:49-05:00*
G04 #@! TF.ProjectId,pihat_template,70696861745F74656D706C6174652E6B,B1.1*
G04 #@! TF.SameCoordinates,Original*
G04 #@! TF.FileFunction,Legend,Top*
G04 #@! TF.FilePolarity,Positive*
%FSLAX46Y46*%
G04 Gerber Fmt 4.6, Leading zero omitted, Abs format (unit mm)*
G04 Created by KiCad (PCBNEW (5.0.1)-4) date 12/13/2018 6:51:49 PM*
%MOMM*%
%LPD*%
G01*
G04 APERTURE LIST*
%ADD10C,0.200000*%
%ADD11C,0.120000*%
%ADD12C,0.304800*%
%ADD13C,0.150000*%
%ADD14C,0.125000*%
G04 APERTURE END LIST*
D10*
X113789714Y-139238000D02*
X114361142Y-139238000D01*
X113675428Y-139580857D02*
X114075428Y-138380857D01*
X114475428Y-139580857D01*
X114875428Y-139580857D02*
X114875428Y-138380857D01*
X115275428Y-139238000D01*
X115675428Y-138380857D01*
X115675428Y-139580857D01*
X116189714Y-139523714D02*
X116361142Y-139580857D01*
X116646857Y-139580857D01*
X116761142Y-139523714D01*
X116818285Y-139466571D01*
X116875428Y-139352285D01*
X116875428Y-139238000D01*
X116818285Y-139123714D01*
X116761142Y-139066571D01*
X116646857Y-139009428D01*
X116418285Y-138952285D01*
X116304000Y-138895142D01*
X116246857Y-138838000D01*
X116189714Y-138723714D01*
X116189714Y-138609428D01*
X116246857Y-138495142D01*
X116304000Y-138438000D01*
X116418285Y-138380857D01*
X116704000Y-138380857D01*
X116875428Y-138438000D01*
X117332571Y-139238000D02*
X117904000Y-139238000D01*
X117218285Y-139580857D02*
X117618285Y-138380857D01*
X118018285Y-139580857D01*
X118246857Y-138380857D02*
X118932571Y-138380857D01*
X118589714Y-139580857D02*
X118589714Y-138380857D01*
X120361142Y-139409428D02*
X120075428Y-139066571D01*
X119846857Y-139409428D02*
X119846857Y-138609428D01*
X120189714Y-138609428D01*
X120304000Y-138666571D01*
X120361142Y-138780857D01*
X120361142Y-138895142D01*
X120304000Y-139009428D01*
X120189714Y-139066571D01*
X119846857Y-139066571D01*
X120075428Y-138209428D02*
X119789714Y-138266571D01*
X119504000Y-138438000D01*
X119332571Y-138723714D01*
X119275428Y-139009428D01*
X119332571Y-139295142D01*
X119504000Y-139580857D01*
X119789714Y-139752285D01*
X120075428Y-139809428D01*
X120361142Y-139752285D01*
X120646857Y-139580857D01*
X120818285Y-139295142D01*
X120875428Y-139009428D01*
X120818285Y-138723714D01*
X120646857Y-138438000D01*
X120361142Y-138266571D01*
X120075428Y-138209428D01*
X122989714Y-139466571D02*
X122932571Y-139523714D01*
X122761142Y-139580857D01*
X122646857Y-139580857D01*
X122475428Y-139523714D01*
X122361142Y-139409428D01*
X122304000Y-139295142D01*
X122246857Y-139066571D01*
X122246857Y-138895142D01*
X122304000Y-138666571D01*
X122361142Y-138552285D01*
X122475428Y-138438000D01*
X122646857Y-138380857D01*
X122761142Y-138380857D01*
X122932571Y-138438000D01*
X122989714Y-138495142D01*
X124018285Y-138780857D02*
X124018285Y-139580857D01*
X123504000Y-138780857D02*
X123504000Y-139409428D01*
X123561142Y-139523714D01*
X123675428Y-139580857D01*
X123846857Y-139580857D01*
X123961142Y-139523714D01*
X124018285Y-139466571D01*
X124589714Y-139580857D02*
X124589714Y-138380857D01*
X124589714Y-138838000D02*
X124704000Y-138780857D01*
X124932571Y-138780857D01*
X125046857Y-138838000D01*
X125104000Y-138895142D01*
X125161142Y-139009428D01*
X125161142Y-139352285D01*
X125104000Y-139466571D01*
X125046857Y-139523714D01*
X124932571Y-139580857D01*
X124704000Y-139580857D01*
X124589714Y-139523714D01*
X126132571Y-139523714D02*
X126018285Y-139580857D01*
X125789714Y-139580857D01*
X125675428Y-139523714D01*
X125618285Y-139409428D01*
X125618285Y-138952285D01*
X125675428Y-138838000D01*
X125789714Y-138780857D01*
X126018285Y-138780857D01*
X126132571Y-138838000D01*
X126189714Y-138952285D01*
X126189714Y-139066571D01*
X125618285Y-139180857D01*
X126646857Y-139523714D02*
X126818285Y-139580857D01*
X127104000Y-139580857D01*
X127218285Y-139523714D01*
X127275428Y-139466571D01*
X127332571Y-139352285D01*
X127332571Y-139238000D01*
X127275428Y-139123714D01*
X127218285Y-139066571D01*
X127104000Y-139009428D01*
X126875428Y-138952285D01*
X126761142Y-138895142D01*
X126704000Y-138838000D01*
X126646857Y-138723714D01*
X126646857Y-138609428D01*
X126704000Y-138495142D01*
X126761142Y-138438000D01*
X126875428Y-138380857D01*
X127161142Y-138380857D01*
X127332571Y-138438000D01*
X128361142Y-139580857D02*
X128361142Y-138952285D01*
X128304000Y-138838000D01*
X128189714Y-138780857D01*
X127961142Y-138780857D01*
X127846857Y-138838000D01*
X128361142Y-139523714D02*
X128246857Y-139580857D01*
X127961142Y-139580857D01*
X127846857Y-139523714D01*
X127789714Y-139409428D01*
X127789714Y-139295142D01*
X127846857Y-139180857D01*
X127961142Y-139123714D01*
X128246857Y-139123714D01*
X128361142Y-139066571D01*
X128761142Y-138780857D02*
X129218285Y-138780857D01*
X128932571Y-138380857D02*
X128932571Y-139409428D01*
X128989714Y-139523714D01*
X129104000Y-139580857D01*
X129218285Y-139580857D01*
X130475428Y-139523714D02*
X130646857Y-139580857D01*
X130932571Y-139580857D01*
X131046857Y-139523714D01*
X131104000Y-139466571D01*
X131161142Y-139352285D01*
X131161142Y-139238000D01*
X131104000Y-139123714D01*
X131046857Y-139066571D01*
X130932571Y-139009428D01*
X130704000Y-138952285D01*
X130589714Y-138895142D01*
X130532571Y-138838000D01*
X130475428Y-138723714D01*
X130475428Y-138609428D01*
X130532571Y-138495142D01*
X130589714Y-138438000D01*
X130704000Y-138380857D01*
X130989714Y-138380857D01*
X131161142Y-138438000D01*
X131675428Y-139580857D02*
X131675428Y-138780857D01*
X131675428Y-138380857D02*
X131618285Y-138438000D01*
X131675428Y-138495142D01*
X131732571Y-138438000D01*
X131675428Y-138380857D01*
X131675428Y-138495142D01*
X132246857Y-139580857D02*
X132246857Y-138780857D01*
X132246857Y-138895142D02*
X132304000Y-138838000D01*
X132418285Y-138780857D01*
X132589714Y-138780857D01*
X132704000Y-138838000D01*
X132761142Y-138952285D01*
X132761142Y-139580857D01*
X132761142Y-138952285D02*
X132818285Y-138838000D01*
X132932571Y-138780857D01*
X133104000Y-138780857D01*
X133218285Y-138838000D01*
X133275428Y-138952285D01*
X133275428Y-139580857D01*
X134361142Y-138780857D02*
X134361142Y-139580857D01*
X133846857Y-138780857D02*
X133846857Y-139409428D01*
X133904000Y-139523714D01*
X134018285Y-139580857D01*
X134189714Y-139580857D01*
X134304000Y-139523714D01*
X134361142Y-139466571D01*
X135104000Y-139580857D02*
X134989714Y-139523714D01*
X134932571Y-139409428D01*
X134932571Y-138380857D01*
X136075428Y-139580857D02*
X136075428Y-138952285D01*
X136018285Y-138838000D01*
X135904000Y-138780857D01*
X135675428Y-138780857D01*
X135561142Y-138838000D01*
X136075428Y-139523714D02*
X135961142Y-139580857D01*
X135675428Y-139580857D01*
X135561142Y-139523714D01*
X135504000Y-139409428D01*
X135504000Y-139295142D01*
X135561142Y-139180857D01*
X135675428Y-139123714D01*
X135961142Y-139123714D01*
X136075428Y-139066571D01*
X136475428Y-138780857D02*
X136932571Y-138780857D01*
X136646857Y-138380857D02*
X136646857Y-139409428D01*
X136704000Y-139523714D01*
X136818285Y-139580857D01*
X136932571Y-139580857D01*
X137504000Y-139580857D02*
X137389714Y-139523714D01*
X137332571Y-139466571D01*
X137275428Y-139352285D01*
X137275428Y-139009428D01*
X137332571Y-138895142D01*
X137389714Y-138838000D01*
X137504000Y-138780857D01*
X137675428Y-138780857D01*
X137789714Y-138838000D01*
X137846857Y-138895142D01*
X137904000Y-139009428D01*
X137904000Y-139352285D01*
X137846857Y-139466571D01*
X137789714Y-139523714D01*
X137675428Y-139580857D01*
X137504000Y-139580857D01*
X138418285Y-139580857D02*
X138418285Y-138780857D01*
X138418285Y-139009428D02*
X138475428Y-138895142D01*
X138532571Y-138838000D01*
X138646857Y-138780857D01*
X138761142Y-138780857D01*
X140018285Y-139523714D02*
X140189714Y-139580857D01*
X140475428Y-139580857D01*
X140589714Y-139523714D01*
X140646857Y-139466571D01*
X140704000Y-139352285D01*
X140704000Y-139238000D01*
X140646857Y-139123714D01*
X140589714Y-139066571D01*
X140475428Y-139009428D01*
X140246857Y-138952285D01*
X140132571Y-138895142D01*
X140075428Y-138838000D01*
X140018285Y-138723714D01*
X140018285Y-138609428D01*
X140075428Y-138495142D01*
X140132571Y-138438000D01*
X140246857Y-138380857D01*
X140532571Y-138380857D01*
X140704000Y-138438000D01*
X141389714Y-139580857D02*
X141275428Y-139523714D01*
X141218285Y-139466571D01*
X141161142Y-139352285D01*
X141161142Y-139009428D01*
X141218285Y-138895142D01*
X141275428Y-138838000D01*
X141389714Y-138780857D01*
X141561142Y-138780857D01*
X141675428Y-138838000D01*
X141732571Y-138895142D01*
X141789714Y-139009428D01*
X141789714Y-139352285D01*
X141732571Y-139466571D01*
X141675428Y-139523714D01*
X141561142Y-139580857D01*
X141389714Y-139580857D01*
X142475428Y-139580857D02*
X142361142Y-139523714D01*
X142304000Y-139409428D01*
X142304000Y-138380857D01*
X143446857Y-139580857D02*
X143446857Y-138952285D01*
X143389714Y-138838000D01*
X143275428Y-138780857D01*
X143046857Y-138780857D01*
X142932571Y-138838000D01*
X143446857Y-139523714D02*
X143332571Y-139580857D01*
X143046857Y-139580857D01*
X142932571Y-139523714D01*
X142875428Y-139409428D01*
X142875428Y-139295142D01*
X142932571Y-139180857D01*
X143046857Y-139123714D01*
X143332571Y-139123714D01*
X143446857Y-139066571D01*
X144018285Y-139580857D02*
X144018285Y-138780857D01*
X144018285Y-139009428D02*
X144075428Y-138895142D01*
X144132571Y-138838000D01*
X144246857Y-138780857D01*
X144361142Y-138780857D01*
X145675428Y-139580857D02*
X145675428Y-138380857D01*
X146132571Y-138380857D01*
X146246857Y-138438000D01*
X146304000Y-138495142D01*
X146361142Y-138609428D01*
X146361142Y-138780857D01*
X146304000Y-138895142D01*
X146246857Y-138952285D01*
X146132571Y-139009428D01*
X145675428Y-139009428D01*
X147046857Y-139580857D02*
X146932571Y-139523714D01*
X146875428Y-139466571D01*
X146818285Y-139352285D01*
X146818285Y-139009428D01*
X146875428Y-138895142D01*
X146932571Y-138838000D01*
X147046857Y-138780857D01*
X147218285Y-138780857D01*
X147332571Y-138838000D01*
X147389714Y-138895142D01*
X147446857Y-139009428D01*
X147446857Y-139352285D01*
X147389714Y-139466571D01*
X147332571Y-139523714D01*
X147218285Y-139580857D01*
X147046857Y-139580857D01*
X147846857Y-138780857D02*
X148075428Y-139580857D01*
X148304000Y-139009428D01*
X148532571Y-139580857D01*
X148761142Y-138780857D01*
X149675428Y-139523714D02*
X149561142Y-139580857D01*
X149332571Y-139580857D01*
X149218285Y-139523714D01*
X149161142Y-139409428D01*
X149161142Y-138952285D01*
X149218285Y-138838000D01*
X149332571Y-138780857D01*
X149561142Y-138780857D01*
X149675428Y-138838000D01*
X149732571Y-138952285D01*
X149732571Y-139066571D01*
X149161142Y-139180857D01*
X150246857Y-139580857D02*
X150246857Y-138780857D01*
X150246857Y-139009428D02*
X150304000Y-138895142D01*
X150361142Y-138838000D01*
X150475428Y-138780857D01*
X150589714Y-138780857D01*
X152304000Y-138952285D02*
X152475428Y-139009428D01*
X152532571Y-139066571D01*
X152589714Y-139180857D01*
X152589714Y-139352285D01*
X152532571Y-139466571D01*
X152475428Y-139523714D01*
X152361142Y-139580857D01*
X151904000Y-139580857D01*
X151904000Y-138380857D01*
X152304000Y-138380857D01*
X152418285Y-138438000D01*
X152475428Y-138495142D01*
X152532571Y-138609428D01*
X152532571Y-138723714D01*
X152475428Y-138838000D01*
X152418285Y-138895142D01*
X152304000Y-138952285D01*
X151904000Y-138952285D01*
X153275428Y-139580857D02*
X153161142Y-139523714D01*
X153104000Y-139466571D01*
X153046857Y-139352285D01*
X153046857Y-139009428D01*
X153104000Y-138895142D01*
X153161142Y-138838000D01*
X153275428Y-138780857D01*
X153446857Y-138780857D01*
X153561142Y-138838000D01*
X153618285Y-138895142D01*
X153675428Y-139009428D01*
X153675428Y-139352285D01*
X153618285Y-139466571D01*
X153561142Y-139523714D01*
X153446857Y-139580857D01*
X153275428Y-139580857D01*
X154704000Y-139580857D02*
X154704000Y-138952285D01*
X154646857Y-138838000D01*
X154532571Y-138780857D01*
X154304000Y-138780857D01*
X154189714Y-138838000D01*
X154704000Y-139523714D02*
X154589714Y-139580857D01*
X154304000Y-139580857D01*
X154189714Y-139523714D01*
X154132571Y-139409428D01*
X154132571Y-139295142D01*
X154189714Y-139180857D01*
X154304000Y-139123714D01*
X154589714Y-139123714D01*
X154704000Y-139066571D01*
X155275428Y-139580857D02*
X155275428Y-138780857D01*
X155275428Y-139009428D02*
X155332571Y-138895142D01*
X155389714Y-138838000D01*
X155504000Y-138780857D01*
X155618285Y-138780857D01*
X156532571Y-139580857D02*
X156532571Y-138380857D01*
X156532571Y-139523714D02*
X156418285Y-139580857D01*
X156189714Y-139580857D01*
X156075428Y-139523714D01*
X156018285Y-139466571D01*
X155961142Y-139352285D01*
X155961142Y-139009428D01*
X156018285Y-138895142D01*
X156075428Y-138838000D01*
X156189714Y-138780857D01*
X156418285Y-138780857D01*
X156532571Y-138838000D01*
X157904000Y-138780857D02*
X158189714Y-139580857D01*
X158475428Y-138780857D01*
X159332571Y-138952285D02*
X159504000Y-139009428D01*
X159561142Y-139066571D01*
X159618285Y-139180857D01*
X159618285Y-139352285D01*
X159561142Y-139466571D01*
X159504000Y-139523714D01*
X159389714Y-139580857D01*
X158932571Y-139580857D01*
X158932571Y-138380857D01*
X159332571Y-138380857D01*
X159446857Y-138438000D01*
X159504000Y-138495142D01*
X159561142Y-138609428D01*
X159561142Y-138723714D01*
X159504000Y-138838000D01*
X159446857Y-138895142D01*
X159332571Y-138952285D01*
X158932571Y-138952285D01*
X160761142Y-139580857D02*
X160075428Y-139580857D01*
X160418285Y-139580857D02*
X160418285Y-138380857D01*
X160304000Y-138552285D01*
X160189714Y-138666571D01*
X160075428Y-138723714D01*
X162189714Y-139580857D02*
X162189714Y-138380857D01*
X162189714Y-138838000D02*
X162304000Y-138780857D01*
X162532571Y-138780857D01*
X162646857Y-138838000D01*
X162704000Y-138895142D01*
X162761142Y-139009428D01*
X162761142Y-139352285D01*
X162704000Y-139466571D01*
X162646857Y-139523714D01*
X162532571Y-139580857D01*
X162304000Y-139580857D01*
X162189714Y-139523714D01*
X163161142Y-138780857D02*
X163446857Y-139580857D01*
X163732571Y-138780857D02*
X163446857Y-139580857D01*
X163332571Y-139866571D01*
X163275428Y-139923714D01*
X163161142Y-139980857D01*
X165104000Y-139580857D02*
X165104000Y-138380857D01*
X165789714Y-139580857D02*
X165275428Y-138895142D01*
X165789714Y-138380857D02*
X165104000Y-139066571D01*
X166304000Y-138380857D02*
X166304000Y-139352285D01*
X166361142Y-139466571D01*
X166418285Y-139523714D01*
X166532571Y-139580857D01*
X166761142Y-139580857D01*
X166875428Y-139523714D01*
X166932571Y-139466571D01*
X166989714Y-139352285D01*
X166989714Y-138380857D01*
X167504000Y-138495142D02*
X167561142Y-138438000D01*
X167675428Y-138380857D01*
X167961142Y-138380857D01*
X168075428Y-138438000D01*
X168132571Y-138495142D01*
X168189714Y-138609428D01*
X168189714Y-138723714D01*
X168132571Y-138895142D01*
X167446857Y-139580857D01*
X168189714Y-139580857D01*
X168932571Y-139009428D02*
X168932571Y-139580857D01*
X168532571Y-138380857D02*
X168932571Y-139009428D01*
X169332571Y-138380857D01*
X130828000Y-90882857D02*
X130828000Y-91854285D01*
X130885142Y-91968571D01*
X130942285Y-92025714D01*
X131056571Y-92082857D01*
X131285142Y-92082857D01*
X131399428Y-92025714D01*
X131456571Y-91968571D01*
X131513714Y-91854285D01*
X131513714Y-90882857D01*
X132713714Y-92082857D02*
X132028000Y-92082857D01*
X132370857Y-92082857D02*
X132370857Y-90882857D01*
X132256571Y-91054285D01*
X132142285Y-91168571D01*
X132028000Y-91225714D01*
X134542285Y-91454285D02*
X134713714Y-91511428D01*
X134770857Y-91568571D01*
X134828000Y-91682857D01*
X134828000Y-91854285D01*
X134770857Y-91968571D01*
X134713714Y-92025714D01*
X134599428Y-92082857D01*
X134142285Y-92082857D01*
X134142285Y-90882857D01*
X134542285Y-90882857D01*
X134656571Y-90940000D01*
X134713714Y-90997142D01*
X134770857Y-91111428D01*
X134770857Y-91225714D01*
X134713714Y-91340000D01*
X134656571Y-91397142D01*
X134542285Y-91454285D01*
X134142285Y-91454285D01*
X135513714Y-92082857D02*
X135399428Y-92025714D01*
X135342285Y-91968571D01*
X135285142Y-91854285D01*
X135285142Y-91511428D01*
X135342285Y-91397142D01*
X135399428Y-91340000D01*
X135513714Y-91282857D01*
X135685142Y-91282857D01*
X135799428Y-91340000D01*
X135856571Y-91397142D01*
X135913714Y-91511428D01*
X135913714Y-91854285D01*
X135856571Y-91968571D01*
X135799428Y-92025714D01*
X135685142Y-92082857D01*
X135513714Y-92082857D01*
X136599428Y-92082857D02*
X136485142Y-92025714D01*
X136428000Y-91968571D01*
X136370857Y-91854285D01*
X136370857Y-91511428D01*
X136428000Y-91397142D01*
X136485142Y-91340000D01*
X136599428Y-91282857D01*
X136770857Y-91282857D01*
X136885142Y-91340000D01*
X136942285Y-91397142D01*
X136999428Y-91511428D01*
X136999428Y-91854285D01*
X136942285Y-91968571D01*
X136885142Y-92025714D01*
X136770857Y-92082857D01*
X136599428Y-92082857D01*
X137456571Y-92025714D02*
X137570857Y-92082857D01*
X137799428Y-92082857D01*
X137913714Y-92025714D01*
X137970857Y-91911428D01*
X137970857Y-91854285D01*
X137913714Y-91740000D01*
X137799428Y-91682857D01*
X137628000Y-91682857D01*
X137513714Y-91625714D01*
X137456571Y-91511428D01*
X137456571Y-91454285D01*
X137513714Y-91340000D01*
X137628000Y-91282857D01*
X137799428Y-91282857D01*
X137913714Y-91340000D01*
X138313714Y-91282857D02*
X138770857Y-91282857D01*
X138485142Y-90882857D02*
X138485142Y-91911428D01*
X138542285Y-92025714D01*
X138656571Y-92082857D01*
X138770857Y-92082857D01*
X140770857Y-91968571D02*
X140713714Y-92025714D01*
X140542285Y-92082857D01*
X140428000Y-92082857D01*
X140256571Y-92025714D01*
X140142285Y-91911428D01*
X140085142Y-91797142D01*
X140028000Y-91568571D01*
X140028000Y-91397142D01*
X140085142Y-91168571D01*
X140142285Y-91054285D01*
X140256571Y-90940000D01*
X140428000Y-90882857D01*
X140542285Y-90882857D01*
X140713714Y-90940000D01*
X140770857Y-90997142D01*
X141456571Y-92082857D02*
X141342285Y-92025714D01*
X141285142Y-91968571D01*
X141228000Y-91854285D01*
X141228000Y-91511428D01*
X141285142Y-91397142D01*
X141342285Y-91340000D01*
X141456571Y-91282857D01*
X141628000Y-91282857D01*
X141742285Y-91340000D01*
X141799428Y-91397142D01*
X141856571Y-91511428D01*
X141856571Y-91854285D01*
X141799428Y-91968571D01*
X141742285Y-92025714D01*
X141628000Y-92082857D01*
X141456571Y-92082857D01*
X142370857Y-91282857D02*
X142370857Y-92082857D01*
X142370857Y-91397142D02*
X142428000Y-91340000D01*
X142542285Y-91282857D01*
X142713714Y-91282857D01*
X142828000Y-91340000D01*
X142885142Y-91454285D01*
X142885142Y-92082857D01*
X143342285Y-91282857D02*
X143628000Y-92082857D01*
X143913714Y-91282857D01*
X144828000Y-92025714D02*
X144713714Y-92082857D01*
X144485142Y-92082857D01*
X144370857Y-92025714D01*
X144313714Y-91911428D01*
X144313714Y-91454285D01*
X144370857Y-91340000D01*
X144485142Y-91282857D01*
X144713714Y-91282857D01*
X144828000Y-91340000D01*
X144885142Y-91454285D01*
X144885142Y-91568571D01*
X144313714Y-91682857D01*
X145399428Y-92082857D02*
X145399428Y-91282857D01*
X145399428Y-91511428D02*
X145456571Y-91397142D01*
X145513714Y-91340000D01*
X145628000Y-91282857D01*
X145742285Y-91282857D01*
X145970857Y-91282857D02*
X146428000Y-91282857D01*
X146142285Y-90882857D02*
X146142285Y-91911428D01*
X146199428Y-92025714D01*
X146313714Y-92082857D01*
X146428000Y-92082857D01*
X147285142Y-92025714D02*
X147170857Y-92082857D01*
X146942285Y-92082857D01*
X146828000Y-92025714D01*
X146770857Y-91911428D01*
X146770857Y-91454285D01*
X146828000Y-91340000D01*
X146942285Y-91282857D01*
X147170857Y-91282857D01*
X147285142Y-91340000D01*
X147342285Y-91454285D01*
X147342285Y-91568571D01*
X146770857Y-91682857D01*
X147856571Y-92082857D02*
X147856571Y-91282857D01*
X147856571Y-91511428D02*
X147913714Y-91397142D01*
X147970857Y-91340000D01*
X148085142Y-91282857D01*
X148199428Y-91282857D01*
X149513714Y-92082857D02*
X149513714Y-90882857D01*
X149913714Y-91740000D01*
X150313714Y-90882857D01*
X150313714Y-92082857D01*
X151056571Y-92082857D02*
X150942285Y-92025714D01*
X150885142Y-91968571D01*
X150828000Y-91854285D01*
X150828000Y-91511428D01*
X150885142Y-91397142D01*
X150942285Y-91340000D01*
X151056571Y-91282857D01*
X151228000Y-91282857D01*
X151342285Y-91340000D01*
X151399428Y-91397142D01*
X151456571Y-91511428D01*
X151456571Y-91854285D01*
X151399428Y-91968571D01*
X151342285Y-92025714D01*
X151228000Y-92082857D01*
X151056571Y-92082857D01*
X152485142Y-92082857D02*
X152485142Y-90882857D01*
X152485142Y-92025714D02*
X152370857Y-92082857D01*
X152142285Y-92082857D01*
X152028000Y-92025714D01*
X151970857Y-91968571D01*
X151913714Y-91854285D01*
X151913714Y-91511428D01*
X151970857Y-91397142D01*
X152028000Y-91340000D01*
X152142285Y-91282857D01*
X152370857Y-91282857D01*
X152485142Y-91340000D01*
X153570857Y-91282857D02*
X153570857Y-92082857D01*
X153056571Y-91282857D02*
X153056571Y-91911428D01*
X153113714Y-92025714D01*
X153228000Y-92082857D01*
X153399428Y-92082857D01*
X153513714Y-92025714D01*
X153570857Y-91968571D01*
X154313714Y-92082857D02*
X154199428Y-92025714D01*
X154142285Y-91911428D01*
X154142285Y-90882857D01*
X155228000Y-92025714D02*
X155113714Y-92082857D01*
X154885142Y-92082857D01*
X154770857Y-92025714D01*
X154713714Y-91911428D01*
X154713714Y-91454285D01*
X154770857Y-91340000D01*
X154885142Y-91282857D01*
X155113714Y-91282857D01*
X155228000Y-91340000D01*
X155285142Y-91454285D01*
X155285142Y-91568571D01*
X154713714Y-91682857D01*
X118644000Y-104240000D02*
X118644000Y-81888000D01*
X163602000Y-104240000D02*
X118644000Y-104240000D01*
X163602000Y-81888000D02*
X163602000Y-104240000D01*
X118898000Y-81888000D02*
X163602000Y-81888000D01*
D11*
G04 #@! TO.C,J11*
X123918000Y-135288000D02*
X126578000Y-135288000D01*
X123918000Y-122528000D02*
X123918000Y-135288000D01*
X126578000Y-122528000D02*
X126578000Y-135288000D01*
X123918000Y-122528000D02*
X126578000Y-122528000D01*
X123918000Y-121258000D02*
X123918000Y-119928000D01*
X123918000Y-119928000D02*
X125248000Y-119928000D01*
G04 #@! TO.C,OUT-*
X159986000Y-103030000D02*
X162646000Y-103030000D01*
X159986000Y-102910000D02*
X159986000Y-103030000D01*
X162646000Y-102910000D02*
X162646000Y-103030000D01*
X162646000Y-100370000D02*
X162646000Y-101700000D01*
X161316000Y-100370000D02*
X162646000Y-100370000D01*
G04 #@! TO.C,IN+*
X119600000Y-85250000D02*
X122260000Y-85250000D01*
X119600000Y-85130000D02*
X119600000Y-85250000D01*
X122260000Y-85130000D02*
X122260000Y-85250000D01*
X122260000Y-82590000D02*
X122260000Y-83920000D01*
X120930000Y-82590000D02*
X122260000Y-82590000D01*
G04 #@! TO.C,IN-*
X119600000Y-103030000D02*
X122260000Y-103030000D01*
X119600000Y-102910000D02*
X119600000Y-103030000D01*
X122260000Y-102910000D02*
X122260000Y-103030000D01*
X122260000Y-100370000D02*
X122260000Y-101700000D01*
X120930000Y-100370000D02*
X122260000Y-100370000D01*
G04 #@! TO.C,OUT+*
X161570000Y-82590000D02*
X162900000Y-82590000D01*
X162900000Y-82590000D02*
X162900000Y-83920000D01*
X162900000Y-85130000D02*
X162900000Y-85250000D01*
X160240000Y-85130000D02*
X160240000Y-85250000D01*
X160240000Y-85250000D02*
X162900000Y-85250000D01*
G04 #@! TO.C,J6*
X109560000Y-137260000D02*
X106900000Y-137260000D01*
X109560000Y-137260000D02*
X109560000Y-127040000D01*
X109560000Y-127040000D02*
X106900000Y-127040000D01*
X106900000Y-137260000D02*
X106900000Y-127040000D01*
X106900000Y-139860000D02*
X106900000Y-138530000D01*
X108230000Y-139860000D02*
X106900000Y-139860000D01*
G04 #@! TO.C,R1*
X151510000Y-80110000D02*
X154120000Y-80110000D01*
X151510000Y-80110000D02*
G75*
G03X151510000Y-80110000I-1370000J0D01*
G01*
G04 #@! TO.C,R2*
X142620000Y-80046500D02*
G75*
G03X142620000Y-80046500I-1370000J0D01*
G01*
X142620000Y-80046500D02*
X145230000Y-80046500D01*
G04 #@! TO.C,J2*
X174330000Y-109260000D02*
X171670000Y-109260000D01*
X174330000Y-111860000D02*
X174330000Y-109260000D01*
X171670000Y-111860000D02*
X171670000Y-109260000D01*
X174330000Y-111860000D02*
X171670000Y-111860000D01*
X174330000Y-113130000D02*
X174330000Y-114460000D01*
X174330000Y-114460000D02*
X173000000Y-114460000D01*
G04 #@! TO.C,J4*
X171670000Y-90464000D02*
X173000000Y-90464000D01*
X171670000Y-91794000D02*
X171670000Y-90464000D01*
X171670000Y-93064000D02*
X174330000Y-93064000D01*
X174330000Y-93064000D02*
X174330000Y-95664000D01*
X171670000Y-93064000D02*
X171670000Y-95664000D01*
X171670000Y-95664000D02*
X174330000Y-95664000D01*
G04 #@! TO.C,J3*
X171670000Y-103030000D02*
X174330000Y-103030000D01*
X171670000Y-100430000D02*
X171670000Y-103030000D01*
X174330000Y-100430000D02*
X174330000Y-103030000D01*
X171670000Y-100430000D02*
X174330000Y-100430000D01*
X171670000Y-99160000D02*
X171670000Y-97830000D01*
X171670000Y-97830000D02*
X173000000Y-97830000D01*
G04 #@! TO.C,J10*
X133062000Y-135034000D02*
X135722000Y-135034000D01*
X133062000Y-122274000D02*
X133062000Y-135034000D01*
X135722000Y-122274000D02*
X135722000Y-135034000D01*
X133062000Y-122274000D02*
X135722000Y-122274000D01*
X133062000Y-121004000D02*
X133062000Y-119674000D01*
X133062000Y-119674000D02*
X134392000Y-119674000D01*
G04 #@! TO.C,J12*
X114774000Y-119674000D02*
X116104000Y-119674000D01*
X114774000Y-121004000D02*
X114774000Y-119674000D01*
X114774000Y-122274000D02*
X117434000Y-122274000D01*
X117434000Y-122274000D02*
X117434000Y-135034000D01*
X114774000Y-122274000D02*
X114774000Y-135034000D01*
X114774000Y-135034000D02*
X117434000Y-135034000D01*
G04 #@! TO.C,J8*
X151159500Y-135288000D02*
X153819500Y-135288000D01*
X151159500Y-122528000D02*
X151159500Y-135288000D01*
X153819500Y-122528000D02*
X153819500Y-135288000D01*
X151159500Y-122528000D02*
X153819500Y-122528000D01*
X151159500Y-121258000D02*
X151159500Y-119928000D01*
X151159500Y-119928000D02*
X152489500Y-119928000D01*
G04 #@! TO.C,J7*
X159986000Y-119928000D02*
X161316000Y-119928000D01*
X159986000Y-121258000D02*
X159986000Y-119928000D01*
X159986000Y-122528000D02*
X162646000Y-122528000D01*
X162646000Y-122528000D02*
X162646000Y-135288000D01*
X159986000Y-122528000D02*
X159986000Y-135288000D01*
X159986000Y-135288000D02*
X162646000Y-135288000D01*
G04 #@! TO.C,J9*
X142206000Y-135288000D02*
X144866000Y-135288000D01*
X142206000Y-122528000D02*
X142206000Y-135288000D01*
X144866000Y-122528000D02*
X144866000Y-135288000D01*
X142206000Y-122528000D02*
X144866000Y-122528000D01*
X142206000Y-121258000D02*
X142206000Y-119928000D01*
X142206000Y-119928000D02*
X143536000Y-119928000D01*
G04 #@! TO.C,J1*
X174330000Y-114340000D02*
X171670000Y-114340000D01*
X174330000Y-137260000D02*
X174330000Y-114340000D01*
X171670000Y-137260000D02*
X171670000Y-114340000D01*
X174330000Y-137260000D02*
X171670000Y-137260000D01*
X174330000Y-138530000D02*
X174330000Y-139860000D01*
X174330000Y-139860000D02*
X173000000Y-139860000D01*
G04 #@! TO.C,D4*
X151890635Y-106907000D02*
X152550000Y-106907000D01*
X151890635Y-106907000D02*
G75*
G03X151890635Y-106907000I-1750635J0D01*
G01*
G04 #@! TO.C,D3*
X141794135Y-106843500D02*
G75*
G03X141794135Y-106843500I-1750635J0D01*
G01*
X141794135Y-106843500D02*
X142453500Y-106843500D01*
G04 #@! TO.C,D5*
X161352135Y-106589500D02*
X162011500Y-106589500D01*
X161352135Y-106589500D02*
G75*
G03X161352135Y-106589500I-1750635J0D01*
G01*
G04 #@! TO.C,D2*
X131951635Y-106843500D02*
G75*
G03X131951635Y-106843500I-1750635J0D01*
G01*
X131951635Y-106843500D02*
X132611000Y-106843500D01*
G04 #@! TO.C,J5*
X171670000Y-87155000D02*
X174330000Y-87155000D01*
X171670000Y-76935000D02*
X171670000Y-87155000D01*
X174330000Y-76935000D02*
X174330000Y-87155000D01*
X171670000Y-76935000D02*
X174330000Y-76935000D01*
X171670000Y-75665000D02*
X171670000Y-74335000D01*
X171670000Y-74335000D02*
X173000000Y-74335000D01*
G04 #@! TO.C,D1*
X122045635Y-106780000D02*
G75*
G03X122045635Y-106780000I-1750635J0D01*
G01*
X122045635Y-106780000D02*
X122705000Y-106780000D01*
D12*
G04 #@! TO.C,GPIO*
X162820000Y-77360000D02*
X112020000Y-77360000D01*
X112020000Y-72280000D02*
X162820000Y-72280000D01*
X112020000Y-74820000D02*
X114560000Y-74820000D01*
X114560000Y-74820000D02*
X114560000Y-77360000D01*
X112020000Y-72280000D02*
X112020000Y-77360000D01*
X162820000Y-77360000D02*
X162820000Y-72280000D01*
G04 #@! TO.C,J11*
D13*
X124438476Y-135950380D02*
X124438476Y-136664666D01*
X124390857Y-136807523D01*
X124295619Y-136902761D01*
X124152761Y-136950380D01*
X124057523Y-136950380D01*
X125438476Y-136950380D02*
X124867047Y-136950380D01*
X125152761Y-136950380D02*
X125152761Y-135950380D01*
X125057523Y-136093238D01*
X124962285Y-136188476D01*
X124867047Y-136236095D01*
X126390857Y-136950380D02*
X125819428Y-136950380D01*
X126105142Y-136950380D02*
X126105142Y-135950380D01*
X126009904Y-136093238D01*
X125914666Y-136188476D01*
X125819428Y-136236095D01*
G04 #@! TO.C,OUT-*
X164014952Y-101152380D02*
X164205428Y-101152380D01*
X164300666Y-101200000D01*
X164395904Y-101295238D01*
X164443523Y-101485714D01*
X164443523Y-101819047D01*
X164395904Y-102009523D01*
X164300666Y-102104761D01*
X164205428Y-102152380D01*
X164014952Y-102152380D01*
X163919714Y-102104761D01*
X163824476Y-102009523D01*
X163776857Y-101819047D01*
X163776857Y-101485714D01*
X163824476Y-101295238D01*
X163919714Y-101200000D01*
X164014952Y-101152380D01*
X164872095Y-101152380D02*
X164872095Y-101961904D01*
X164919714Y-102057142D01*
X164967333Y-102104761D01*
X165062571Y-102152380D01*
X165253047Y-102152380D01*
X165348285Y-102104761D01*
X165395904Y-102057142D01*
X165443523Y-101961904D01*
X165443523Y-101152380D01*
X165776857Y-101152380D02*
X166348285Y-101152380D01*
X166062571Y-102152380D02*
X166062571Y-101152380D01*
X166681619Y-101771428D02*
X167443523Y-101771428D01*
G04 #@! TO.C,IN+*
X115977142Y-84372380D02*
X115977142Y-83372380D01*
X116453333Y-84372380D02*
X116453333Y-83372380D01*
X117024761Y-84372380D01*
X117024761Y-83372380D01*
X117500952Y-83991428D02*
X118262857Y-83991428D01*
X117881904Y-84372380D02*
X117881904Y-83610476D01*
G04 #@! TO.C,IN-*
X115723142Y-102152380D02*
X115723142Y-101152380D01*
X116199333Y-102152380D02*
X116199333Y-101152380D01*
X116770761Y-102152380D01*
X116770761Y-101152380D01*
X117246952Y-101771428D02*
X118008857Y-101771428D01*
G04 #@! TO.C,OUT+*
X164268952Y-83626380D02*
X164459428Y-83626380D01*
X164554666Y-83674000D01*
X164649904Y-83769238D01*
X164697523Y-83959714D01*
X164697523Y-84293047D01*
X164649904Y-84483523D01*
X164554666Y-84578761D01*
X164459428Y-84626380D01*
X164268952Y-84626380D01*
X164173714Y-84578761D01*
X164078476Y-84483523D01*
X164030857Y-84293047D01*
X164030857Y-83959714D01*
X164078476Y-83769238D01*
X164173714Y-83674000D01*
X164268952Y-83626380D01*
X165126095Y-83626380D02*
X165126095Y-84435904D01*
X165173714Y-84531142D01*
X165221333Y-84578761D01*
X165316571Y-84626380D01*
X165507047Y-84626380D01*
X165602285Y-84578761D01*
X165649904Y-84531142D01*
X165697523Y-84435904D01*
X165697523Y-83626380D01*
X166030857Y-83626380D02*
X166602285Y-83626380D01*
X166316571Y-84626380D02*
X166316571Y-83626380D01*
X166935619Y-84245428D02*
X167697523Y-84245428D01*
X167316571Y-84626380D02*
X167316571Y-83864476D01*
G04 #@! TO.C,J6*
X105610666Y-137220380D02*
X105610666Y-137934666D01*
X105563047Y-138077523D01*
X105467809Y-138172761D01*
X105324952Y-138220380D01*
X105229714Y-138220380D01*
X106515428Y-137220380D02*
X106324952Y-137220380D01*
X106229714Y-137268000D01*
X106182095Y-137315619D01*
X106086857Y-137458476D01*
X106039238Y-137648952D01*
X106039238Y-138029904D01*
X106086857Y-138125142D01*
X106134476Y-138172761D01*
X106229714Y-138220380D01*
X106420190Y-138220380D01*
X106515428Y-138172761D01*
X106563047Y-138125142D01*
X106610666Y-138029904D01*
X106610666Y-137791809D01*
X106563047Y-137696571D01*
X106515428Y-137648952D01*
X106420190Y-137601333D01*
X106229714Y-137601333D01*
X106134476Y-137648952D01*
X106086857Y-137696571D01*
X106039238Y-137791809D01*
G04 #@! TO.C,R1*
X152259333Y-79292380D02*
X151926000Y-78816190D01*
X151687904Y-79292380D02*
X151687904Y-78292380D01*
X152068857Y-78292380D01*
X152164095Y-78340000D01*
X152211714Y-78387619D01*
X152259333Y-78482857D01*
X152259333Y-78625714D01*
X152211714Y-78720952D01*
X152164095Y-78768571D01*
X152068857Y-78816190D01*
X151687904Y-78816190D01*
X153211714Y-79292380D02*
X152640285Y-79292380D01*
X152926000Y-79292380D02*
X152926000Y-78292380D01*
X152830761Y-78435238D01*
X152735523Y-78530476D01*
X152640285Y-78578095D01*
G04 #@! TO.C,R2*
X143623333Y-79038380D02*
X143290000Y-78562190D01*
X143051904Y-79038380D02*
X143051904Y-78038380D01*
X143432857Y-78038380D01*
X143528095Y-78086000D01*
X143575714Y-78133619D01*
X143623333Y-78228857D01*
X143623333Y-78371714D01*
X143575714Y-78466952D01*
X143528095Y-78514571D01*
X143432857Y-78562190D01*
X143051904Y-78562190D01*
X144004285Y-78133619D02*
X144051904Y-78086000D01*
X144147142Y-78038380D01*
X144385238Y-78038380D01*
X144480476Y-78086000D01*
X144528095Y-78133619D01*
X144575714Y-78228857D01*
X144575714Y-78324095D01*
X144528095Y-78466952D01*
X143956666Y-79038380D01*
X144575714Y-79038380D01*
G04 #@! TO.C,J2*
X174952666Y-112836380D02*
X174952666Y-113550666D01*
X174905047Y-113693523D01*
X174809809Y-113788761D01*
X174666952Y-113836380D01*
X174571714Y-113836380D01*
X175381238Y-112931619D02*
X175428857Y-112884000D01*
X175524095Y-112836380D01*
X175762190Y-112836380D01*
X175857428Y-112884000D01*
X175905047Y-112931619D01*
X175952666Y-113026857D01*
X175952666Y-113122095D01*
X175905047Y-113264952D01*
X175333619Y-113836380D01*
X175952666Y-113836380D01*
G04 #@! TO.C,J4*
X174698666Y-90992380D02*
X174698666Y-91706666D01*
X174651047Y-91849523D01*
X174555809Y-91944761D01*
X174412952Y-91992380D01*
X174317714Y-91992380D01*
X175603428Y-91325714D02*
X175603428Y-91992380D01*
X175365333Y-90944761D02*
X175127238Y-91659047D01*
X175746285Y-91659047D01*
G04 #@! TO.C,J3*
X174952666Y-98612380D02*
X174952666Y-99326666D01*
X174905047Y-99469523D01*
X174809809Y-99564761D01*
X174666952Y-99612380D01*
X174571714Y-99612380D01*
X175333619Y-98612380D02*
X175952666Y-98612380D01*
X175619333Y-98993333D01*
X175762190Y-98993333D01*
X175857428Y-99040952D01*
X175905047Y-99088571D01*
X175952666Y-99183809D01*
X175952666Y-99421904D01*
X175905047Y-99517142D01*
X175857428Y-99564761D01*
X175762190Y-99612380D01*
X175476476Y-99612380D01*
X175381238Y-99564761D01*
X175333619Y-99517142D01*
G04 #@! TO.C,J10*
X133582476Y-135696380D02*
X133582476Y-136410666D01*
X133534857Y-136553523D01*
X133439619Y-136648761D01*
X133296761Y-136696380D01*
X133201523Y-136696380D01*
X134582476Y-136696380D02*
X134011047Y-136696380D01*
X134296761Y-136696380D02*
X134296761Y-135696380D01*
X134201523Y-135839238D01*
X134106285Y-135934476D01*
X134011047Y-135982095D01*
X135201523Y-135696380D02*
X135296761Y-135696380D01*
X135392000Y-135744000D01*
X135439619Y-135791619D01*
X135487238Y-135886857D01*
X135534857Y-136077333D01*
X135534857Y-136315428D01*
X135487238Y-136505904D01*
X135439619Y-136601142D01*
X135392000Y-136648761D01*
X135296761Y-136696380D01*
X135201523Y-136696380D01*
X135106285Y-136648761D01*
X135058666Y-136601142D01*
X135011047Y-136505904D01*
X134963428Y-136315428D01*
X134963428Y-136077333D01*
X135011047Y-135886857D01*
X135058666Y-135791619D01*
X135106285Y-135744000D01*
X135201523Y-135696380D01*
G04 #@! TO.C,J12*
X115294476Y-135696380D02*
X115294476Y-136410666D01*
X115246857Y-136553523D01*
X115151619Y-136648761D01*
X115008761Y-136696380D01*
X114913523Y-136696380D01*
X116294476Y-136696380D02*
X115723047Y-136696380D01*
X116008761Y-136696380D02*
X116008761Y-135696380D01*
X115913523Y-135839238D01*
X115818285Y-135934476D01*
X115723047Y-135982095D01*
X116675428Y-135791619D02*
X116723047Y-135744000D01*
X116818285Y-135696380D01*
X117056380Y-135696380D01*
X117151619Y-135744000D01*
X117199238Y-135791619D01*
X117246857Y-135886857D01*
X117246857Y-135982095D01*
X117199238Y-136124952D01*
X116627809Y-136696380D01*
X117246857Y-136696380D01*
G04 #@! TO.C,J8*
X151838666Y-135950380D02*
X151838666Y-136664666D01*
X151791047Y-136807523D01*
X151695809Y-136902761D01*
X151552952Y-136950380D01*
X151457714Y-136950380D01*
X152457714Y-136378952D02*
X152362476Y-136331333D01*
X152314857Y-136283714D01*
X152267238Y-136188476D01*
X152267238Y-136140857D01*
X152314857Y-136045619D01*
X152362476Y-135998000D01*
X152457714Y-135950380D01*
X152648190Y-135950380D01*
X152743428Y-135998000D01*
X152791047Y-136045619D01*
X152838666Y-136140857D01*
X152838666Y-136188476D01*
X152791047Y-136283714D01*
X152743428Y-136331333D01*
X152648190Y-136378952D01*
X152457714Y-136378952D01*
X152362476Y-136426571D01*
X152314857Y-136474190D01*
X152267238Y-136569428D01*
X152267238Y-136759904D01*
X152314857Y-136855142D01*
X152362476Y-136902761D01*
X152457714Y-136950380D01*
X152648190Y-136950380D01*
X152743428Y-136902761D01*
X152791047Y-136855142D01*
X152838666Y-136759904D01*
X152838666Y-136569428D01*
X152791047Y-136474190D01*
X152743428Y-136426571D01*
X152648190Y-136378952D01*
G04 #@! TO.C,J7*
X161236666Y-135696380D02*
X161236666Y-136410666D01*
X161189047Y-136553523D01*
X161093809Y-136648761D01*
X160950952Y-136696380D01*
X160855714Y-136696380D01*
X161617619Y-135696380D02*
X162284285Y-135696380D01*
X161855714Y-136696380D01*
G04 #@! TO.C,J9*
X143202666Y-135950380D02*
X143202666Y-136664666D01*
X143155047Y-136807523D01*
X143059809Y-136902761D01*
X142916952Y-136950380D01*
X142821714Y-136950380D01*
X143726476Y-136950380D02*
X143916952Y-136950380D01*
X144012190Y-136902761D01*
X144059809Y-136855142D01*
X144155047Y-136712285D01*
X144202666Y-136521809D01*
X144202666Y-136140857D01*
X144155047Y-136045619D01*
X144107428Y-135998000D01*
X144012190Y-135950380D01*
X143821714Y-135950380D01*
X143726476Y-135998000D01*
X143678857Y-136045619D01*
X143631238Y-136140857D01*
X143631238Y-136378952D01*
X143678857Y-136474190D01*
X143726476Y-136521809D01*
X143821714Y-136569428D01*
X144012190Y-136569428D01*
X144107428Y-136521809D01*
X144155047Y-136474190D01*
X144202666Y-136378952D01*
G04 #@! TO.C,J1*
X174698666Y-137220380D02*
X174698666Y-137934666D01*
X174651047Y-138077523D01*
X174555809Y-138172761D01*
X174412952Y-138220380D01*
X174317714Y-138220380D01*
X175698666Y-138220380D02*
X175127238Y-138220380D01*
X175412952Y-138220380D02*
X175412952Y-137220380D01*
X175317714Y-137363238D01*
X175222476Y-137458476D01*
X175127238Y-137506095D01*
G04 #@! TO.C,D4*
X151433904Y-110534380D02*
X151433904Y-109534380D01*
X151672000Y-109534380D01*
X151814857Y-109582000D01*
X151910095Y-109677238D01*
X151957714Y-109772476D01*
X152005333Y-109962952D01*
X152005333Y-110105809D01*
X151957714Y-110296285D01*
X151910095Y-110391523D01*
X151814857Y-110486761D01*
X151672000Y-110534380D01*
X151433904Y-110534380D01*
X152862476Y-109867714D02*
X152862476Y-110534380D01*
X152624380Y-109486761D02*
X152386285Y-110201047D01*
X153005333Y-110201047D01*
X151911904Y-108173666D02*
X152388095Y-108173666D01*
X151816666Y-108459380D02*
X152150000Y-107459380D01*
X152483333Y-108459380D01*
G04 #@! TO.C,D3*
X141210404Y-110534380D02*
X141210404Y-109534380D01*
X141448500Y-109534380D01*
X141591357Y-109582000D01*
X141686595Y-109677238D01*
X141734214Y-109772476D01*
X141781833Y-109962952D01*
X141781833Y-110105809D01*
X141734214Y-110296285D01*
X141686595Y-110391523D01*
X141591357Y-110486761D01*
X141448500Y-110534380D01*
X141210404Y-110534380D01*
X142115166Y-109534380D02*
X142734214Y-109534380D01*
X142400880Y-109915333D01*
X142543738Y-109915333D01*
X142638976Y-109962952D01*
X142686595Y-110010571D01*
X142734214Y-110105809D01*
X142734214Y-110343904D01*
X142686595Y-110439142D01*
X142638976Y-110486761D01*
X142543738Y-110534380D01*
X142258023Y-110534380D01*
X142162785Y-110486761D01*
X142115166Y-110439142D01*
X141815404Y-108110166D02*
X142291595Y-108110166D01*
X141720166Y-108395880D02*
X142053500Y-107395880D01*
X142386833Y-108395880D01*
G04 #@! TO.C,D5*
X160831904Y-110280380D02*
X160831904Y-109280380D01*
X161070000Y-109280380D01*
X161212857Y-109328000D01*
X161308095Y-109423238D01*
X161355714Y-109518476D01*
X161403333Y-109708952D01*
X161403333Y-109851809D01*
X161355714Y-110042285D01*
X161308095Y-110137523D01*
X161212857Y-110232761D01*
X161070000Y-110280380D01*
X160831904Y-110280380D01*
X162308095Y-109280380D02*
X161831904Y-109280380D01*
X161784285Y-109756571D01*
X161831904Y-109708952D01*
X161927142Y-109661333D01*
X162165238Y-109661333D01*
X162260476Y-109708952D01*
X162308095Y-109756571D01*
X162355714Y-109851809D01*
X162355714Y-110089904D01*
X162308095Y-110185142D01*
X162260476Y-110232761D01*
X162165238Y-110280380D01*
X161927142Y-110280380D01*
X161831904Y-110232761D01*
X161784285Y-110185142D01*
X161373404Y-107856166D02*
X161849595Y-107856166D01*
X161278166Y-108141880D02*
X161611500Y-107141880D01*
X161944833Y-108141880D01*
G04 #@! TO.C,D2*
X131367904Y-110534380D02*
X131367904Y-109534380D01*
X131606000Y-109534380D01*
X131748857Y-109582000D01*
X131844095Y-109677238D01*
X131891714Y-109772476D01*
X131939333Y-109962952D01*
X131939333Y-110105809D01*
X131891714Y-110296285D01*
X131844095Y-110391523D01*
X131748857Y-110486761D01*
X131606000Y-110534380D01*
X131367904Y-110534380D01*
X132320285Y-109629619D02*
X132367904Y-109582000D01*
X132463142Y-109534380D01*
X132701238Y-109534380D01*
X132796476Y-109582000D01*
X132844095Y-109629619D01*
X132891714Y-109724857D01*
X132891714Y-109820095D01*
X132844095Y-109962952D01*
X132272666Y-110534380D01*
X132891714Y-110534380D01*
X131972904Y-108110166D02*
X132449095Y-108110166D01*
X131877666Y-108395880D02*
X132211000Y-107395880D01*
X132544333Y-108395880D01*
G04 #@! TO.C,J5*
X174698666Y-74990380D02*
X174698666Y-75704666D01*
X174651047Y-75847523D01*
X174555809Y-75942761D01*
X174412952Y-75990380D01*
X174317714Y-75990380D01*
X175651047Y-74990380D02*
X175174857Y-74990380D01*
X175127238Y-75466571D01*
X175174857Y-75418952D01*
X175270095Y-75371333D01*
X175508190Y-75371333D01*
X175603428Y-75418952D01*
X175651047Y-75466571D01*
X175698666Y-75561809D01*
X175698666Y-75799904D01*
X175651047Y-75895142D01*
X175603428Y-75942761D01*
X175508190Y-75990380D01*
X175270095Y-75990380D01*
X175174857Y-75942761D01*
X175127238Y-75895142D01*
G04 #@! TO.C,D1*
X121461904Y-110534380D02*
X121461904Y-109534380D01*
X121700000Y-109534380D01*
X121842857Y-109582000D01*
X121938095Y-109677238D01*
X121985714Y-109772476D01*
X122033333Y-109962952D01*
X122033333Y-110105809D01*
X121985714Y-110296285D01*
X121938095Y-110391523D01*
X121842857Y-110486761D01*
X121700000Y-110534380D01*
X121461904Y-110534380D01*
X122985714Y-110534380D02*
X122414285Y-110534380D01*
X122700000Y-110534380D02*
X122700000Y-109534380D01*
X122604761Y-109677238D01*
X122509523Y-109772476D01*
X122414285Y-109820095D01*
X122066904Y-108046666D02*
X122543095Y-108046666D01*
X121971666Y-108332380D02*
X122305000Y-107332380D01*
X122638333Y-108332380D01*
G04 #@! TO.C,GPIO*
D14*
X161324000Y-78082000D02*
X161276380Y-78058190D01*
X161204952Y-78058190D01*
X161133523Y-78082000D01*
X161085904Y-78129619D01*
X161062095Y-78177238D01*
X161038285Y-78272476D01*
X161038285Y-78343904D01*
X161062095Y-78439142D01*
X161085904Y-78486761D01*
X161133523Y-78534380D01*
X161204952Y-78558190D01*
X161252571Y-78558190D01*
X161324000Y-78534380D01*
X161347809Y-78510571D01*
X161347809Y-78343904D01*
X161252571Y-78343904D01*
X161562095Y-78558190D02*
X161562095Y-78058190D01*
X161752571Y-78058190D01*
X161800190Y-78082000D01*
X161824000Y-78105809D01*
X161847809Y-78153428D01*
X161847809Y-78224857D01*
X161824000Y-78272476D01*
X161800190Y-78296285D01*
X161752571Y-78320095D01*
X161562095Y-78320095D01*
X162062095Y-78558190D02*
X162062095Y-78058190D01*
X162395428Y-78058190D02*
X162490666Y-78058190D01*
X162538285Y-78082000D01*
X162585904Y-78129619D01*
X162609714Y-78224857D01*
X162609714Y-78391523D01*
X162585904Y-78486761D01*
X162538285Y-78534380D01*
X162490666Y-78558190D01*
X162395428Y-78558190D01*
X162347809Y-78534380D01*
X162300190Y-78486761D01*
X162276380Y-78391523D01*
X162276380Y-78224857D01*
X162300190Y-78129619D01*
X162347809Y-78082000D01*
X162395428Y-78058190D01*
G04 #@! TD*
M02*
