G04 #@! TF.GenerationSoftware,KiCad,Pcbnew,(5.0.1)-4*
G04 #@! TF.CreationDate,2018-12-13T18:51:49-05:00*
G04 #@! TF.ProjectId,pihat_template,70696861745F74656D706C6174652E6B,B1.1*
G04 #@! TF.SameCoordinates,Original*
G04 #@! TF.FileFunction,Soldermask,Bot*
G04 #@! TF.FilePolarity,Negative*
%FSLAX46Y46*%
G04 Gerber Fmt 4.6, Leading zero omitted, Abs format (unit mm)*
G04 Created by KiCad (PCBNEW (5.0.1)-4) date 12/13/2018 6:51:49 PM*
%MOMM*%
%LPD*%
G01*
G04 APERTURE LIST*
%ADD10C,0.100000*%
G04 APERTURE END LIST*
D10*
G36*
X173850000Y-139380000D02*
X172150000Y-139380000D01*
X172150000Y-137680000D01*
X173850000Y-137680000D01*
X173850000Y-139380000D01*
X173850000Y-139380000D01*
G37*
G36*
X109080000Y-139380000D02*
X107380000Y-139380000D01*
X107380000Y-137680000D01*
X109080000Y-137680000D01*
X109080000Y-139380000D01*
X109080000Y-139380000D01*
G37*
G36*
X108396630Y-135152299D02*
X108556855Y-135200903D01*
X108704520Y-135279831D01*
X108833949Y-135386051D01*
X108940169Y-135515480D01*
X109019097Y-135663145D01*
X109067701Y-135823370D01*
X109084112Y-135990000D01*
X109067701Y-136156630D01*
X109019097Y-136316855D01*
X108940169Y-136464520D01*
X108833949Y-136593949D01*
X108704520Y-136700169D01*
X108556855Y-136779097D01*
X108396630Y-136827701D01*
X108271752Y-136840000D01*
X108188248Y-136840000D01*
X108063370Y-136827701D01*
X107903145Y-136779097D01*
X107755480Y-136700169D01*
X107626051Y-136593949D01*
X107519831Y-136464520D01*
X107440903Y-136316855D01*
X107392299Y-136156630D01*
X107375888Y-135990000D01*
X107392299Y-135823370D01*
X107440903Y-135663145D01*
X107519831Y-135515480D01*
X107626051Y-135386051D01*
X107755480Y-135279831D01*
X107903145Y-135200903D01*
X108063370Y-135152299D01*
X108188248Y-135140000D01*
X108271752Y-135140000D01*
X108396630Y-135152299D01*
X108396630Y-135152299D01*
G37*
G36*
X173166630Y-135152299D02*
X173326855Y-135200903D01*
X173474520Y-135279831D01*
X173603949Y-135386051D01*
X173710169Y-135515480D01*
X173789097Y-135663145D01*
X173837701Y-135823370D01*
X173854112Y-135990000D01*
X173837701Y-136156630D01*
X173789097Y-136316855D01*
X173710169Y-136464520D01*
X173603949Y-136593949D01*
X173474520Y-136700169D01*
X173326855Y-136779097D01*
X173166630Y-136827701D01*
X173041752Y-136840000D01*
X172958248Y-136840000D01*
X172833370Y-136827701D01*
X172673145Y-136779097D01*
X172525480Y-136700169D01*
X172396051Y-136593949D01*
X172289831Y-136464520D01*
X172210903Y-136316855D01*
X172162299Y-136156630D01*
X172145888Y-135990000D01*
X172162299Y-135823370D01*
X172210903Y-135663145D01*
X172289831Y-135515480D01*
X172396051Y-135386051D01*
X172525480Y-135279831D01*
X172673145Y-135200903D01*
X172833370Y-135152299D01*
X172958248Y-135140000D01*
X173041752Y-135140000D01*
X173166630Y-135152299D01*
X173166630Y-135152299D01*
G37*
G36*
X152656130Y-133120299D02*
X152816355Y-133168903D01*
X152964020Y-133247831D01*
X153093449Y-133354051D01*
X153199669Y-133483480D01*
X153278597Y-133631145D01*
X153327201Y-133791370D01*
X153343612Y-133958000D01*
X153327201Y-134124630D01*
X153278597Y-134284855D01*
X153199669Y-134432520D01*
X153093449Y-134561949D01*
X152964020Y-134668169D01*
X152816355Y-134747097D01*
X152656130Y-134795701D01*
X152531252Y-134808000D01*
X152447748Y-134808000D01*
X152322870Y-134795701D01*
X152162645Y-134747097D01*
X152014980Y-134668169D01*
X151885551Y-134561949D01*
X151779331Y-134432520D01*
X151700403Y-134284855D01*
X151651799Y-134124630D01*
X151635388Y-133958000D01*
X151651799Y-133791370D01*
X151700403Y-133631145D01*
X151779331Y-133483480D01*
X151885551Y-133354051D01*
X152014980Y-133247831D01*
X152162645Y-133168903D01*
X152322870Y-133120299D01*
X152447748Y-133108000D01*
X152531252Y-133108000D01*
X152656130Y-133120299D01*
X152656130Y-133120299D01*
G37*
G36*
X161482630Y-133120299D02*
X161642855Y-133168903D01*
X161790520Y-133247831D01*
X161919949Y-133354051D01*
X162026169Y-133483480D01*
X162105097Y-133631145D01*
X162153701Y-133791370D01*
X162170112Y-133958000D01*
X162153701Y-134124630D01*
X162105097Y-134284855D01*
X162026169Y-134432520D01*
X161919949Y-134561949D01*
X161790520Y-134668169D01*
X161642855Y-134747097D01*
X161482630Y-134795701D01*
X161357752Y-134808000D01*
X161274248Y-134808000D01*
X161149370Y-134795701D01*
X160989145Y-134747097D01*
X160841480Y-134668169D01*
X160712051Y-134561949D01*
X160605831Y-134432520D01*
X160526903Y-134284855D01*
X160478299Y-134124630D01*
X160461888Y-133958000D01*
X160478299Y-133791370D01*
X160526903Y-133631145D01*
X160605831Y-133483480D01*
X160712051Y-133354051D01*
X160841480Y-133247831D01*
X160989145Y-133168903D01*
X161149370Y-133120299D01*
X161274248Y-133108000D01*
X161357752Y-133108000D01*
X161482630Y-133120299D01*
X161482630Y-133120299D01*
G37*
G36*
X143702630Y-133120299D02*
X143862855Y-133168903D01*
X144010520Y-133247831D01*
X144139949Y-133354051D01*
X144246169Y-133483480D01*
X144325097Y-133631145D01*
X144373701Y-133791370D01*
X144390112Y-133958000D01*
X144373701Y-134124630D01*
X144325097Y-134284855D01*
X144246169Y-134432520D01*
X144139949Y-134561949D01*
X144010520Y-134668169D01*
X143862855Y-134747097D01*
X143702630Y-134795701D01*
X143577752Y-134808000D01*
X143494248Y-134808000D01*
X143369370Y-134795701D01*
X143209145Y-134747097D01*
X143061480Y-134668169D01*
X142932051Y-134561949D01*
X142825831Y-134432520D01*
X142746903Y-134284855D01*
X142698299Y-134124630D01*
X142681888Y-133958000D01*
X142698299Y-133791370D01*
X142746903Y-133631145D01*
X142825831Y-133483480D01*
X142932051Y-133354051D01*
X143061480Y-133247831D01*
X143209145Y-133168903D01*
X143369370Y-133120299D01*
X143494248Y-133108000D01*
X143577752Y-133108000D01*
X143702630Y-133120299D01*
X143702630Y-133120299D01*
G37*
G36*
X125414630Y-133120299D02*
X125574855Y-133168903D01*
X125722520Y-133247831D01*
X125851949Y-133354051D01*
X125958169Y-133483480D01*
X126037097Y-133631145D01*
X126085701Y-133791370D01*
X126102112Y-133958000D01*
X126085701Y-134124630D01*
X126037097Y-134284855D01*
X125958169Y-134432520D01*
X125851949Y-134561949D01*
X125722520Y-134668169D01*
X125574855Y-134747097D01*
X125414630Y-134795701D01*
X125289752Y-134808000D01*
X125206248Y-134808000D01*
X125081370Y-134795701D01*
X124921145Y-134747097D01*
X124773480Y-134668169D01*
X124644051Y-134561949D01*
X124537831Y-134432520D01*
X124458903Y-134284855D01*
X124410299Y-134124630D01*
X124393888Y-133958000D01*
X124410299Y-133791370D01*
X124458903Y-133631145D01*
X124537831Y-133483480D01*
X124644051Y-133354051D01*
X124773480Y-133247831D01*
X124921145Y-133168903D01*
X125081370Y-133120299D01*
X125206248Y-133108000D01*
X125289752Y-133108000D01*
X125414630Y-133120299D01*
X125414630Y-133120299D01*
G37*
G36*
X134558630Y-132866299D02*
X134718855Y-132914903D01*
X134866520Y-132993831D01*
X134995949Y-133100051D01*
X135102169Y-133229480D01*
X135181097Y-133377145D01*
X135229701Y-133537370D01*
X135246112Y-133704000D01*
X135229701Y-133870630D01*
X135181097Y-134030855D01*
X135102169Y-134178520D01*
X134995949Y-134307949D01*
X134866520Y-134414169D01*
X134718855Y-134493097D01*
X134558630Y-134541701D01*
X134433752Y-134554000D01*
X134350248Y-134554000D01*
X134225370Y-134541701D01*
X134065145Y-134493097D01*
X133917480Y-134414169D01*
X133788051Y-134307949D01*
X133681831Y-134178520D01*
X133602903Y-134030855D01*
X133554299Y-133870630D01*
X133537888Y-133704000D01*
X133554299Y-133537370D01*
X133602903Y-133377145D01*
X133681831Y-133229480D01*
X133788051Y-133100051D01*
X133917480Y-132993831D01*
X134065145Y-132914903D01*
X134225370Y-132866299D01*
X134350248Y-132854000D01*
X134433752Y-132854000D01*
X134558630Y-132866299D01*
X134558630Y-132866299D01*
G37*
G36*
X116270630Y-132866299D02*
X116430855Y-132914903D01*
X116578520Y-132993831D01*
X116707949Y-133100051D01*
X116814169Y-133229480D01*
X116893097Y-133377145D01*
X116941701Y-133537370D01*
X116958112Y-133704000D01*
X116941701Y-133870630D01*
X116893097Y-134030855D01*
X116814169Y-134178520D01*
X116707949Y-134307949D01*
X116578520Y-134414169D01*
X116430855Y-134493097D01*
X116270630Y-134541701D01*
X116145752Y-134554000D01*
X116062248Y-134554000D01*
X115937370Y-134541701D01*
X115777145Y-134493097D01*
X115629480Y-134414169D01*
X115500051Y-134307949D01*
X115393831Y-134178520D01*
X115314903Y-134030855D01*
X115266299Y-133870630D01*
X115249888Y-133704000D01*
X115266299Y-133537370D01*
X115314903Y-133377145D01*
X115393831Y-133229480D01*
X115500051Y-133100051D01*
X115629480Y-132993831D01*
X115777145Y-132914903D01*
X115937370Y-132866299D01*
X116062248Y-132854000D01*
X116145752Y-132854000D01*
X116270630Y-132866299D01*
X116270630Y-132866299D01*
G37*
G36*
X108396630Y-132612299D02*
X108556855Y-132660903D01*
X108704520Y-132739831D01*
X108833949Y-132846051D01*
X108940169Y-132975480D01*
X109019097Y-133123145D01*
X109067701Y-133283370D01*
X109084112Y-133450000D01*
X109067701Y-133616630D01*
X109019097Y-133776855D01*
X108940169Y-133924520D01*
X108833949Y-134053949D01*
X108704520Y-134160169D01*
X108556855Y-134239097D01*
X108396630Y-134287701D01*
X108271752Y-134300000D01*
X108188248Y-134300000D01*
X108063370Y-134287701D01*
X107903145Y-134239097D01*
X107755480Y-134160169D01*
X107626051Y-134053949D01*
X107519831Y-133924520D01*
X107440903Y-133776855D01*
X107392299Y-133616630D01*
X107375888Y-133450000D01*
X107392299Y-133283370D01*
X107440903Y-133123145D01*
X107519831Y-132975480D01*
X107626051Y-132846051D01*
X107755480Y-132739831D01*
X107903145Y-132660903D01*
X108063370Y-132612299D01*
X108188248Y-132600000D01*
X108271752Y-132600000D01*
X108396630Y-132612299D01*
X108396630Y-132612299D01*
G37*
G36*
X173166630Y-132612299D02*
X173326855Y-132660903D01*
X173474520Y-132739831D01*
X173603949Y-132846051D01*
X173710169Y-132975480D01*
X173789097Y-133123145D01*
X173837701Y-133283370D01*
X173854112Y-133450000D01*
X173837701Y-133616630D01*
X173789097Y-133776855D01*
X173710169Y-133924520D01*
X173603949Y-134053949D01*
X173474520Y-134160169D01*
X173326855Y-134239097D01*
X173166630Y-134287701D01*
X173041752Y-134300000D01*
X172958248Y-134300000D01*
X172833370Y-134287701D01*
X172673145Y-134239097D01*
X172525480Y-134160169D01*
X172396051Y-134053949D01*
X172289831Y-133924520D01*
X172210903Y-133776855D01*
X172162299Y-133616630D01*
X172145888Y-133450000D01*
X172162299Y-133283370D01*
X172210903Y-133123145D01*
X172289831Y-132975480D01*
X172396051Y-132846051D01*
X172525480Y-132739831D01*
X172673145Y-132660903D01*
X172833370Y-132612299D01*
X172958248Y-132600000D01*
X173041752Y-132600000D01*
X173166630Y-132612299D01*
X173166630Y-132612299D01*
G37*
G36*
X125414630Y-130580299D02*
X125574855Y-130628903D01*
X125722520Y-130707831D01*
X125851949Y-130814051D01*
X125958169Y-130943480D01*
X126037097Y-131091145D01*
X126085701Y-131251370D01*
X126102112Y-131418000D01*
X126085701Y-131584630D01*
X126037097Y-131744855D01*
X125958169Y-131892520D01*
X125851949Y-132021949D01*
X125722520Y-132128169D01*
X125574855Y-132207097D01*
X125414630Y-132255701D01*
X125289752Y-132268000D01*
X125206248Y-132268000D01*
X125081370Y-132255701D01*
X124921145Y-132207097D01*
X124773480Y-132128169D01*
X124644051Y-132021949D01*
X124537831Y-131892520D01*
X124458903Y-131744855D01*
X124410299Y-131584630D01*
X124393888Y-131418000D01*
X124410299Y-131251370D01*
X124458903Y-131091145D01*
X124537831Y-130943480D01*
X124644051Y-130814051D01*
X124773480Y-130707831D01*
X124921145Y-130628903D01*
X125081370Y-130580299D01*
X125206248Y-130568000D01*
X125289752Y-130568000D01*
X125414630Y-130580299D01*
X125414630Y-130580299D01*
G37*
G36*
X143702630Y-130580299D02*
X143862855Y-130628903D01*
X144010520Y-130707831D01*
X144139949Y-130814051D01*
X144246169Y-130943480D01*
X144325097Y-131091145D01*
X144373701Y-131251370D01*
X144390112Y-131418000D01*
X144373701Y-131584630D01*
X144325097Y-131744855D01*
X144246169Y-131892520D01*
X144139949Y-132021949D01*
X144010520Y-132128169D01*
X143862855Y-132207097D01*
X143702630Y-132255701D01*
X143577752Y-132268000D01*
X143494248Y-132268000D01*
X143369370Y-132255701D01*
X143209145Y-132207097D01*
X143061480Y-132128169D01*
X142932051Y-132021949D01*
X142825831Y-131892520D01*
X142746903Y-131744855D01*
X142698299Y-131584630D01*
X142681888Y-131418000D01*
X142698299Y-131251370D01*
X142746903Y-131091145D01*
X142825831Y-130943480D01*
X142932051Y-130814051D01*
X143061480Y-130707831D01*
X143209145Y-130628903D01*
X143369370Y-130580299D01*
X143494248Y-130568000D01*
X143577752Y-130568000D01*
X143702630Y-130580299D01*
X143702630Y-130580299D01*
G37*
G36*
X161482630Y-130580299D02*
X161642855Y-130628903D01*
X161790520Y-130707831D01*
X161919949Y-130814051D01*
X162026169Y-130943480D01*
X162105097Y-131091145D01*
X162153701Y-131251370D01*
X162170112Y-131418000D01*
X162153701Y-131584630D01*
X162105097Y-131744855D01*
X162026169Y-131892520D01*
X161919949Y-132021949D01*
X161790520Y-132128169D01*
X161642855Y-132207097D01*
X161482630Y-132255701D01*
X161357752Y-132268000D01*
X161274248Y-132268000D01*
X161149370Y-132255701D01*
X160989145Y-132207097D01*
X160841480Y-132128169D01*
X160712051Y-132021949D01*
X160605831Y-131892520D01*
X160526903Y-131744855D01*
X160478299Y-131584630D01*
X160461888Y-131418000D01*
X160478299Y-131251370D01*
X160526903Y-131091145D01*
X160605831Y-130943480D01*
X160712051Y-130814051D01*
X160841480Y-130707831D01*
X160989145Y-130628903D01*
X161149370Y-130580299D01*
X161274248Y-130568000D01*
X161357752Y-130568000D01*
X161482630Y-130580299D01*
X161482630Y-130580299D01*
G37*
G36*
X152656130Y-130580299D02*
X152816355Y-130628903D01*
X152964020Y-130707831D01*
X153093449Y-130814051D01*
X153199669Y-130943480D01*
X153278597Y-131091145D01*
X153327201Y-131251370D01*
X153343612Y-131418000D01*
X153327201Y-131584630D01*
X153278597Y-131744855D01*
X153199669Y-131892520D01*
X153093449Y-132021949D01*
X152964020Y-132128169D01*
X152816355Y-132207097D01*
X152656130Y-132255701D01*
X152531252Y-132268000D01*
X152447748Y-132268000D01*
X152322870Y-132255701D01*
X152162645Y-132207097D01*
X152014980Y-132128169D01*
X151885551Y-132021949D01*
X151779331Y-131892520D01*
X151700403Y-131744855D01*
X151651799Y-131584630D01*
X151635388Y-131418000D01*
X151651799Y-131251370D01*
X151700403Y-131091145D01*
X151779331Y-130943480D01*
X151885551Y-130814051D01*
X152014980Y-130707831D01*
X152162645Y-130628903D01*
X152322870Y-130580299D01*
X152447748Y-130568000D01*
X152531252Y-130568000D01*
X152656130Y-130580299D01*
X152656130Y-130580299D01*
G37*
G36*
X134558630Y-130326299D02*
X134718855Y-130374903D01*
X134866520Y-130453831D01*
X134995949Y-130560051D01*
X135102169Y-130689480D01*
X135181097Y-130837145D01*
X135229701Y-130997370D01*
X135246112Y-131164000D01*
X135229701Y-131330630D01*
X135181097Y-131490855D01*
X135102169Y-131638520D01*
X134995949Y-131767949D01*
X134866520Y-131874169D01*
X134718855Y-131953097D01*
X134558630Y-132001701D01*
X134433752Y-132014000D01*
X134350248Y-132014000D01*
X134225370Y-132001701D01*
X134065145Y-131953097D01*
X133917480Y-131874169D01*
X133788051Y-131767949D01*
X133681831Y-131638520D01*
X133602903Y-131490855D01*
X133554299Y-131330630D01*
X133537888Y-131164000D01*
X133554299Y-130997370D01*
X133602903Y-130837145D01*
X133681831Y-130689480D01*
X133788051Y-130560051D01*
X133917480Y-130453831D01*
X134065145Y-130374903D01*
X134225370Y-130326299D01*
X134350248Y-130314000D01*
X134433752Y-130314000D01*
X134558630Y-130326299D01*
X134558630Y-130326299D01*
G37*
G36*
X116270630Y-130326299D02*
X116430855Y-130374903D01*
X116578520Y-130453831D01*
X116707949Y-130560051D01*
X116814169Y-130689480D01*
X116893097Y-130837145D01*
X116941701Y-130997370D01*
X116958112Y-131164000D01*
X116941701Y-131330630D01*
X116893097Y-131490855D01*
X116814169Y-131638520D01*
X116707949Y-131767949D01*
X116578520Y-131874169D01*
X116430855Y-131953097D01*
X116270630Y-132001701D01*
X116145752Y-132014000D01*
X116062248Y-132014000D01*
X115937370Y-132001701D01*
X115777145Y-131953097D01*
X115629480Y-131874169D01*
X115500051Y-131767949D01*
X115393831Y-131638520D01*
X115314903Y-131490855D01*
X115266299Y-131330630D01*
X115249888Y-131164000D01*
X115266299Y-130997370D01*
X115314903Y-130837145D01*
X115393831Y-130689480D01*
X115500051Y-130560051D01*
X115629480Y-130453831D01*
X115777145Y-130374903D01*
X115937370Y-130326299D01*
X116062248Y-130314000D01*
X116145752Y-130314000D01*
X116270630Y-130326299D01*
X116270630Y-130326299D01*
G37*
G36*
X108396630Y-130072299D02*
X108556855Y-130120903D01*
X108704520Y-130199831D01*
X108833949Y-130306051D01*
X108940169Y-130435480D01*
X109019097Y-130583145D01*
X109067701Y-130743370D01*
X109084112Y-130910000D01*
X109067701Y-131076630D01*
X109019097Y-131236855D01*
X108940169Y-131384520D01*
X108833949Y-131513949D01*
X108704520Y-131620169D01*
X108556855Y-131699097D01*
X108396630Y-131747701D01*
X108271752Y-131760000D01*
X108188248Y-131760000D01*
X108063370Y-131747701D01*
X107903145Y-131699097D01*
X107755480Y-131620169D01*
X107626051Y-131513949D01*
X107519831Y-131384520D01*
X107440903Y-131236855D01*
X107392299Y-131076630D01*
X107375888Y-130910000D01*
X107392299Y-130743370D01*
X107440903Y-130583145D01*
X107519831Y-130435480D01*
X107626051Y-130306051D01*
X107755480Y-130199831D01*
X107903145Y-130120903D01*
X108063370Y-130072299D01*
X108188248Y-130060000D01*
X108271752Y-130060000D01*
X108396630Y-130072299D01*
X108396630Y-130072299D01*
G37*
G36*
X173166630Y-130072299D02*
X173326855Y-130120903D01*
X173474520Y-130199831D01*
X173603949Y-130306051D01*
X173710169Y-130435480D01*
X173789097Y-130583145D01*
X173837701Y-130743370D01*
X173854112Y-130910000D01*
X173837701Y-131076630D01*
X173789097Y-131236855D01*
X173710169Y-131384520D01*
X173603949Y-131513949D01*
X173474520Y-131620169D01*
X173326855Y-131699097D01*
X173166630Y-131747701D01*
X173041752Y-131760000D01*
X172958248Y-131760000D01*
X172833370Y-131747701D01*
X172673145Y-131699097D01*
X172525480Y-131620169D01*
X172396051Y-131513949D01*
X172289831Y-131384520D01*
X172210903Y-131236855D01*
X172162299Y-131076630D01*
X172145888Y-130910000D01*
X172162299Y-130743370D01*
X172210903Y-130583145D01*
X172289831Y-130435480D01*
X172396051Y-130306051D01*
X172525480Y-130199831D01*
X172673145Y-130120903D01*
X172833370Y-130072299D01*
X172958248Y-130060000D01*
X173041752Y-130060000D01*
X173166630Y-130072299D01*
X173166630Y-130072299D01*
G37*
G36*
X152656130Y-128040299D02*
X152816355Y-128088903D01*
X152964020Y-128167831D01*
X153093449Y-128274051D01*
X153199669Y-128403480D01*
X153278597Y-128551145D01*
X153327201Y-128711370D01*
X153343612Y-128878000D01*
X153327201Y-129044630D01*
X153278597Y-129204855D01*
X153199669Y-129352520D01*
X153093449Y-129481949D01*
X152964020Y-129588169D01*
X152816355Y-129667097D01*
X152656130Y-129715701D01*
X152531252Y-129728000D01*
X152447748Y-129728000D01*
X152322870Y-129715701D01*
X152162645Y-129667097D01*
X152014980Y-129588169D01*
X151885551Y-129481949D01*
X151779331Y-129352520D01*
X151700403Y-129204855D01*
X151651799Y-129044630D01*
X151635388Y-128878000D01*
X151651799Y-128711370D01*
X151700403Y-128551145D01*
X151779331Y-128403480D01*
X151885551Y-128274051D01*
X152014980Y-128167831D01*
X152162645Y-128088903D01*
X152322870Y-128040299D01*
X152447748Y-128028000D01*
X152531252Y-128028000D01*
X152656130Y-128040299D01*
X152656130Y-128040299D01*
G37*
G36*
X161482630Y-128040299D02*
X161642855Y-128088903D01*
X161790520Y-128167831D01*
X161919949Y-128274051D01*
X162026169Y-128403480D01*
X162105097Y-128551145D01*
X162153701Y-128711370D01*
X162170112Y-128878000D01*
X162153701Y-129044630D01*
X162105097Y-129204855D01*
X162026169Y-129352520D01*
X161919949Y-129481949D01*
X161790520Y-129588169D01*
X161642855Y-129667097D01*
X161482630Y-129715701D01*
X161357752Y-129728000D01*
X161274248Y-129728000D01*
X161149370Y-129715701D01*
X160989145Y-129667097D01*
X160841480Y-129588169D01*
X160712051Y-129481949D01*
X160605831Y-129352520D01*
X160526903Y-129204855D01*
X160478299Y-129044630D01*
X160461888Y-128878000D01*
X160478299Y-128711370D01*
X160526903Y-128551145D01*
X160605831Y-128403480D01*
X160712051Y-128274051D01*
X160841480Y-128167831D01*
X160989145Y-128088903D01*
X161149370Y-128040299D01*
X161274248Y-128028000D01*
X161357752Y-128028000D01*
X161482630Y-128040299D01*
X161482630Y-128040299D01*
G37*
G36*
X143702630Y-128040299D02*
X143862855Y-128088903D01*
X144010520Y-128167831D01*
X144139949Y-128274051D01*
X144246169Y-128403480D01*
X144325097Y-128551145D01*
X144373701Y-128711370D01*
X144390112Y-128878000D01*
X144373701Y-129044630D01*
X144325097Y-129204855D01*
X144246169Y-129352520D01*
X144139949Y-129481949D01*
X144010520Y-129588169D01*
X143862855Y-129667097D01*
X143702630Y-129715701D01*
X143577752Y-129728000D01*
X143494248Y-129728000D01*
X143369370Y-129715701D01*
X143209145Y-129667097D01*
X143061480Y-129588169D01*
X142932051Y-129481949D01*
X142825831Y-129352520D01*
X142746903Y-129204855D01*
X142698299Y-129044630D01*
X142681888Y-128878000D01*
X142698299Y-128711370D01*
X142746903Y-128551145D01*
X142825831Y-128403480D01*
X142932051Y-128274051D01*
X143061480Y-128167831D01*
X143209145Y-128088903D01*
X143369370Y-128040299D01*
X143494248Y-128028000D01*
X143577752Y-128028000D01*
X143702630Y-128040299D01*
X143702630Y-128040299D01*
G37*
G36*
X125414630Y-128040299D02*
X125574855Y-128088903D01*
X125722520Y-128167831D01*
X125851949Y-128274051D01*
X125958169Y-128403480D01*
X126037097Y-128551145D01*
X126085701Y-128711370D01*
X126102112Y-128878000D01*
X126085701Y-129044630D01*
X126037097Y-129204855D01*
X125958169Y-129352520D01*
X125851949Y-129481949D01*
X125722520Y-129588169D01*
X125574855Y-129667097D01*
X125414630Y-129715701D01*
X125289752Y-129728000D01*
X125206248Y-129728000D01*
X125081370Y-129715701D01*
X124921145Y-129667097D01*
X124773480Y-129588169D01*
X124644051Y-129481949D01*
X124537831Y-129352520D01*
X124458903Y-129204855D01*
X124410299Y-129044630D01*
X124393888Y-128878000D01*
X124410299Y-128711370D01*
X124458903Y-128551145D01*
X124537831Y-128403480D01*
X124644051Y-128274051D01*
X124773480Y-128167831D01*
X124921145Y-128088903D01*
X125081370Y-128040299D01*
X125206248Y-128028000D01*
X125289752Y-128028000D01*
X125414630Y-128040299D01*
X125414630Y-128040299D01*
G37*
G36*
X134558630Y-127786299D02*
X134718855Y-127834903D01*
X134866520Y-127913831D01*
X134995949Y-128020051D01*
X135102169Y-128149480D01*
X135181097Y-128297145D01*
X135229701Y-128457370D01*
X135246112Y-128624000D01*
X135229701Y-128790630D01*
X135181097Y-128950855D01*
X135102169Y-129098520D01*
X134995949Y-129227949D01*
X134866520Y-129334169D01*
X134718855Y-129413097D01*
X134558630Y-129461701D01*
X134433752Y-129474000D01*
X134350248Y-129474000D01*
X134225370Y-129461701D01*
X134065145Y-129413097D01*
X133917480Y-129334169D01*
X133788051Y-129227949D01*
X133681831Y-129098520D01*
X133602903Y-128950855D01*
X133554299Y-128790630D01*
X133537888Y-128624000D01*
X133554299Y-128457370D01*
X133602903Y-128297145D01*
X133681831Y-128149480D01*
X133788051Y-128020051D01*
X133917480Y-127913831D01*
X134065145Y-127834903D01*
X134225370Y-127786299D01*
X134350248Y-127774000D01*
X134433752Y-127774000D01*
X134558630Y-127786299D01*
X134558630Y-127786299D01*
G37*
G36*
X116270630Y-127786299D02*
X116430855Y-127834903D01*
X116578520Y-127913831D01*
X116707949Y-128020051D01*
X116814169Y-128149480D01*
X116893097Y-128297145D01*
X116941701Y-128457370D01*
X116958112Y-128624000D01*
X116941701Y-128790630D01*
X116893097Y-128950855D01*
X116814169Y-129098520D01*
X116707949Y-129227949D01*
X116578520Y-129334169D01*
X116430855Y-129413097D01*
X116270630Y-129461701D01*
X116145752Y-129474000D01*
X116062248Y-129474000D01*
X115937370Y-129461701D01*
X115777145Y-129413097D01*
X115629480Y-129334169D01*
X115500051Y-129227949D01*
X115393831Y-129098520D01*
X115314903Y-128950855D01*
X115266299Y-128790630D01*
X115249888Y-128624000D01*
X115266299Y-128457370D01*
X115314903Y-128297145D01*
X115393831Y-128149480D01*
X115500051Y-128020051D01*
X115629480Y-127913831D01*
X115777145Y-127834903D01*
X115937370Y-127786299D01*
X116062248Y-127774000D01*
X116145752Y-127774000D01*
X116270630Y-127786299D01*
X116270630Y-127786299D01*
G37*
G36*
X173166630Y-127532299D02*
X173326855Y-127580903D01*
X173474520Y-127659831D01*
X173603949Y-127766051D01*
X173710169Y-127895480D01*
X173789097Y-128043145D01*
X173837701Y-128203370D01*
X173854112Y-128370000D01*
X173837701Y-128536630D01*
X173789097Y-128696855D01*
X173710169Y-128844520D01*
X173603949Y-128973949D01*
X173474520Y-129080169D01*
X173326855Y-129159097D01*
X173166630Y-129207701D01*
X173041752Y-129220000D01*
X172958248Y-129220000D01*
X172833370Y-129207701D01*
X172673145Y-129159097D01*
X172525480Y-129080169D01*
X172396051Y-128973949D01*
X172289831Y-128844520D01*
X172210903Y-128696855D01*
X172162299Y-128536630D01*
X172145888Y-128370000D01*
X172162299Y-128203370D01*
X172210903Y-128043145D01*
X172289831Y-127895480D01*
X172396051Y-127766051D01*
X172525480Y-127659831D01*
X172673145Y-127580903D01*
X172833370Y-127532299D01*
X172958248Y-127520000D01*
X173041752Y-127520000D01*
X173166630Y-127532299D01*
X173166630Y-127532299D01*
G37*
G36*
X108396630Y-127532299D02*
X108556855Y-127580903D01*
X108704520Y-127659831D01*
X108833949Y-127766051D01*
X108940169Y-127895480D01*
X109019097Y-128043145D01*
X109067701Y-128203370D01*
X109084112Y-128370000D01*
X109067701Y-128536630D01*
X109019097Y-128696855D01*
X108940169Y-128844520D01*
X108833949Y-128973949D01*
X108704520Y-129080169D01*
X108556855Y-129159097D01*
X108396630Y-129207701D01*
X108271752Y-129220000D01*
X108188248Y-129220000D01*
X108063370Y-129207701D01*
X107903145Y-129159097D01*
X107755480Y-129080169D01*
X107626051Y-128973949D01*
X107519831Y-128844520D01*
X107440903Y-128696855D01*
X107392299Y-128536630D01*
X107375888Y-128370000D01*
X107392299Y-128203370D01*
X107440903Y-128043145D01*
X107519831Y-127895480D01*
X107626051Y-127766051D01*
X107755480Y-127659831D01*
X107903145Y-127580903D01*
X108063370Y-127532299D01*
X108188248Y-127520000D01*
X108271752Y-127520000D01*
X108396630Y-127532299D01*
X108396630Y-127532299D01*
G37*
G36*
X143702630Y-125500299D02*
X143862855Y-125548903D01*
X144010520Y-125627831D01*
X144139949Y-125734051D01*
X144246169Y-125863480D01*
X144325097Y-126011145D01*
X144373701Y-126171370D01*
X144390112Y-126338000D01*
X144373701Y-126504630D01*
X144325097Y-126664855D01*
X144246169Y-126812520D01*
X144139949Y-126941949D01*
X144010520Y-127048169D01*
X143862855Y-127127097D01*
X143702630Y-127175701D01*
X143577752Y-127188000D01*
X143494248Y-127188000D01*
X143369370Y-127175701D01*
X143209145Y-127127097D01*
X143061480Y-127048169D01*
X142932051Y-126941949D01*
X142825831Y-126812520D01*
X142746903Y-126664855D01*
X142698299Y-126504630D01*
X142681888Y-126338000D01*
X142698299Y-126171370D01*
X142746903Y-126011145D01*
X142825831Y-125863480D01*
X142932051Y-125734051D01*
X143061480Y-125627831D01*
X143209145Y-125548903D01*
X143369370Y-125500299D01*
X143494248Y-125488000D01*
X143577752Y-125488000D01*
X143702630Y-125500299D01*
X143702630Y-125500299D01*
G37*
G36*
X152656130Y-125500299D02*
X152816355Y-125548903D01*
X152964020Y-125627831D01*
X153093449Y-125734051D01*
X153199669Y-125863480D01*
X153278597Y-126011145D01*
X153327201Y-126171370D01*
X153343612Y-126338000D01*
X153327201Y-126504630D01*
X153278597Y-126664855D01*
X153199669Y-126812520D01*
X153093449Y-126941949D01*
X152964020Y-127048169D01*
X152816355Y-127127097D01*
X152656130Y-127175701D01*
X152531252Y-127188000D01*
X152447748Y-127188000D01*
X152322870Y-127175701D01*
X152162645Y-127127097D01*
X152014980Y-127048169D01*
X151885551Y-126941949D01*
X151779331Y-126812520D01*
X151700403Y-126664855D01*
X151651799Y-126504630D01*
X151635388Y-126338000D01*
X151651799Y-126171370D01*
X151700403Y-126011145D01*
X151779331Y-125863480D01*
X151885551Y-125734051D01*
X152014980Y-125627831D01*
X152162645Y-125548903D01*
X152322870Y-125500299D01*
X152447748Y-125488000D01*
X152531252Y-125488000D01*
X152656130Y-125500299D01*
X152656130Y-125500299D01*
G37*
G36*
X125414630Y-125500299D02*
X125574855Y-125548903D01*
X125722520Y-125627831D01*
X125851949Y-125734051D01*
X125958169Y-125863480D01*
X126037097Y-126011145D01*
X126085701Y-126171370D01*
X126102112Y-126338000D01*
X126085701Y-126504630D01*
X126037097Y-126664855D01*
X125958169Y-126812520D01*
X125851949Y-126941949D01*
X125722520Y-127048169D01*
X125574855Y-127127097D01*
X125414630Y-127175701D01*
X125289752Y-127188000D01*
X125206248Y-127188000D01*
X125081370Y-127175701D01*
X124921145Y-127127097D01*
X124773480Y-127048169D01*
X124644051Y-126941949D01*
X124537831Y-126812520D01*
X124458903Y-126664855D01*
X124410299Y-126504630D01*
X124393888Y-126338000D01*
X124410299Y-126171370D01*
X124458903Y-126011145D01*
X124537831Y-125863480D01*
X124644051Y-125734051D01*
X124773480Y-125627831D01*
X124921145Y-125548903D01*
X125081370Y-125500299D01*
X125206248Y-125488000D01*
X125289752Y-125488000D01*
X125414630Y-125500299D01*
X125414630Y-125500299D01*
G37*
G36*
X161482630Y-125500299D02*
X161642855Y-125548903D01*
X161790520Y-125627831D01*
X161919949Y-125734051D01*
X162026169Y-125863480D01*
X162105097Y-126011145D01*
X162153701Y-126171370D01*
X162170112Y-126338000D01*
X162153701Y-126504630D01*
X162105097Y-126664855D01*
X162026169Y-126812520D01*
X161919949Y-126941949D01*
X161790520Y-127048169D01*
X161642855Y-127127097D01*
X161482630Y-127175701D01*
X161357752Y-127188000D01*
X161274248Y-127188000D01*
X161149370Y-127175701D01*
X160989145Y-127127097D01*
X160841480Y-127048169D01*
X160712051Y-126941949D01*
X160605831Y-126812520D01*
X160526903Y-126664855D01*
X160478299Y-126504630D01*
X160461888Y-126338000D01*
X160478299Y-126171370D01*
X160526903Y-126011145D01*
X160605831Y-125863480D01*
X160712051Y-125734051D01*
X160841480Y-125627831D01*
X160989145Y-125548903D01*
X161149370Y-125500299D01*
X161274248Y-125488000D01*
X161357752Y-125488000D01*
X161482630Y-125500299D01*
X161482630Y-125500299D01*
G37*
G36*
X134558630Y-125246299D02*
X134718855Y-125294903D01*
X134866520Y-125373831D01*
X134995949Y-125480051D01*
X135102169Y-125609480D01*
X135181097Y-125757145D01*
X135229701Y-125917370D01*
X135246112Y-126084000D01*
X135229701Y-126250630D01*
X135181097Y-126410855D01*
X135102169Y-126558520D01*
X134995949Y-126687949D01*
X134866520Y-126794169D01*
X134718855Y-126873097D01*
X134558630Y-126921701D01*
X134433752Y-126934000D01*
X134350248Y-126934000D01*
X134225370Y-126921701D01*
X134065145Y-126873097D01*
X133917480Y-126794169D01*
X133788051Y-126687949D01*
X133681831Y-126558520D01*
X133602903Y-126410855D01*
X133554299Y-126250630D01*
X133537888Y-126084000D01*
X133554299Y-125917370D01*
X133602903Y-125757145D01*
X133681831Y-125609480D01*
X133788051Y-125480051D01*
X133917480Y-125373831D01*
X134065145Y-125294903D01*
X134225370Y-125246299D01*
X134350248Y-125234000D01*
X134433752Y-125234000D01*
X134558630Y-125246299D01*
X134558630Y-125246299D01*
G37*
G36*
X116270630Y-125246299D02*
X116430855Y-125294903D01*
X116578520Y-125373831D01*
X116707949Y-125480051D01*
X116814169Y-125609480D01*
X116893097Y-125757145D01*
X116941701Y-125917370D01*
X116958112Y-126084000D01*
X116941701Y-126250630D01*
X116893097Y-126410855D01*
X116814169Y-126558520D01*
X116707949Y-126687949D01*
X116578520Y-126794169D01*
X116430855Y-126873097D01*
X116270630Y-126921701D01*
X116145752Y-126934000D01*
X116062248Y-126934000D01*
X115937370Y-126921701D01*
X115777145Y-126873097D01*
X115629480Y-126794169D01*
X115500051Y-126687949D01*
X115393831Y-126558520D01*
X115314903Y-126410855D01*
X115266299Y-126250630D01*
X115249888Y-126084000D01*
X115266299Y-125917370D01*
X115314903Y-125757145D01*
X115393831Y-125609480D01*
X115500051Y-125480051D01*
X115629480Y-125373831D01*
X115777145Y-125294903D01*
X115937370Y-125246299D01*
X116062248Y-125234000D01*
X116145752Y-125234000D01*
X116270630Y-125246299D01*
X116270630Y-125246299D01*
G37*
G36*
X173166630Y-124992299D02*
X173326855Y-125040903D01*
X173474520Y-125119831D01*
X173603949Y-125226051D01*
X173710169Y-125355480D01*
X173789097Y-125503145D01*
X173837701Y-125663370D01*
X173854112Y-125830000D01*
X173837701Y-125996630D01*
X173789097Y-126156855D01*
X173710169Y-126304520D01*
X173603949Y-126433949D01*
X173474520Y-126540169D01*
X173326855Y-126619097D01*
X173166630Y-126667701D01*
X173041752Y-126680000D01*
X172958248Y-126680000D01*
X172833370Y-126667701D01*
X172673145Y-126619097D01*
X172525480Y-126540169D01*
X172396051Y-126433949D01*
X172289831Y-126304520D01*
X172210903Y-126156855D01*
X172162299Y-125996630D01*
X172145888Y-125830000D01*
X172162299Y-125663370D01*
X172210903Y-125503145D01*
X172289831Y-125355480D01*
X172396051Y-125226051D01*
X172525480Y-125119831D01*
X172673145Y-125040903D01*
X172833370Y-124992299D01*
X172958248Y-124980000D01*
X173041752Y-124980000D01*
X173166630Y-124992299D01*
X173166630Y-124992299D01*
G37*
G36*
X125414630Y-122960299D02*
X125574855Y-123008903D01*
X125722520Y-123087831D01*
X125851949Y-123194051D01*
X125958169Y-123323480D01*
X126037097Y-123471145D01*
X126085701Y-123631370D01*
X126102112Y-123798000D01*
X126085701Y-123964630D01*
X126037097Y-124124855D01*
X125958169Y-124272520D01*
X125851949Y-124401949D01*
X125722520Y-124508169D01*
X125574855Y-124587097D01*
X125414630Y-124635701D01*
X125289752Y-124648000D01*
X125206248Y-124648000D01*
X125081370Y-124635701D01*
X124921145Y-124587097D01*
X124773480Y-124508169D01*
X124644051Y-124401949D01*
X124537831Y-124272520D01*
X124458903Y-124124855D01*
X124410299Y-123964630D01*
X124393888Y-123798000D01*
X124410299Y-123631370D01*
X124458903Y-123471145D01*
X124537831Y-123323480D01*
X124644051Y-123194051D01*
X124773480Y-123087831D01*
X124921145Y-123008903D01*
X125081370Y-122960299D01*
X125206248Y-122948000D01*
X125289752Y-122948000D01*
X125414630Y-122960299D01*
X125414630Y-122960299D01*
G37*
G36*
X143702630Y-122960299D02*
X143862855Y-123008903D01*
X144010520Y-123087831D01*
X144139949Y-123194051D01*
X144246169Y-123323480D01*
X144325097Y-123471145D01*
X144373701Y-123631370D01*
X144390112Y-123798000D01*
X144373701Y-123964630D01*
X144325097Y-124124855D01*
X144246169Y-124272520D01*
X144139949Y-124401949D01*
X144010520Y-124508169D01*
X143862855Y-124587097D01*
X143702630Y-124635701D01*
X143577752Y-124648000D01*
X143494248Y-124648000D01*
X143369370Y-124635701D01*
X143209145Y-124587097D01*
X143061480Y-124508169D01*
X142932051Y-124401949D01*
X142825831Y-124272520D01*
X142746903Y-124124855D01*
X142698299Y-123964630D01*
X142681888Y-123798000D01*
X142698299Y-123631370D01*
X142746903Y-123471145D01*
X142825831Y-123323480D01*
X142932051Y-123194051D01*
X143061480Y-123087831D01*
X143209145Y-123008903D01*
X143369370Y-122960299D01*
X143494248Y-122948000D01*
X143577752Y-122948000D01*
X143702630Y-122960299D01*
X143702630Y-122960299D01*
G37*
G36*
X161482630Y-122960299D02*
X161642855Y-123008903D01*
X161790520Y-123087831D01*
X161919949Y-123194051D01*
X162026169Y-123323480D01*
X162105097Y-123471145D01*
X162153701Y-123631370D01*
X162170112Y-123798000D01*
X162153701Y-123964630D01*
X162105097Y-124124855D01*
X162026169Y-124272520D01*
X161919949Y-124401949D01*
X161790520Y-124508169D01*
X161642855Y-124587097D01*
X161482630Y-124635701D01*
X161357752Y-124648000D01*
X161274248Y-124648000D01*
X161149370Y-124635701D01*
X160989145Y-124587097D01*
X160841480Y-124508169D01*
X160712051Y-124401949D01*
X160605831Y-124272520D01*
X160526903Y-124124855D01*
X160478299Y-123964630D01*
X160461888Y-123798000D01*
X160478299Y-123631370D01*
X160526903Y-123471145D01*
X160605831Y-123323480D01*
X160712051Y-123194051D01*
X160841480Y-123087831D01*
X160989145Y-123008903D01*
X161149370Y-122960299D01*
X161274248Y-122948000D01*
X161357752Y-122948000D01*
X161482630Y-122960299D01*
X161482630Y-122960299D01*
G37*
G36*
X152656130Y-122960299D02*
X152816355Y-123008903D01*
X152964020Y-123087831D01*
X153093449Y-123194051D01*
X153199669Y-123323480D01*
X153278597Y-123471145D01*
X153327201Y-123631370D01*
X153343612Y-123798000D01*
X153327201Y-123964630D01*
X153278597Y-124124855D01*
X153199669Y-124272520D01*
X153093449Y-124401949D01*
X152964020Y-124508169D01*
X152816355Y-124587097D01*
X152656130Y-124635701D01*
X152531252Y-124648000D01*
X152447748Y-124648000D01*
X152322870Y-124635701D01*
X152162645Y-124587097D01*
X152014980Y-124508169D01*
X151885551Y-124401949D01*
X151779331Y-124272520D01*
X151700403Y-124124855D01*
X151651799Y-123964630D01*
X151635388Y-123798000D01*
X151651799Y-123631370D01*
X151700403Y-123471145D01*
X151779331Y-123323480D01*
X151885551Y-123194051D01*
X152014980Y-123087831D01*
X152162645Y-123008903D01*
X152322870Y-122960299D01*
X152447748Y-122948000D01*
X152531252Y-122948000D01*
X152656130Y-122960299D01*
X152656130Y-122960299D01*
G37*
G36*
X116270630Y-122706299D02*
X116430855Y-122754903D01*
X116578520Y-122833831D01*
X116707949Y-122940051D01*
X116814169Y-123069480D01*
X116893097Y-123217145D01*
X116941701Y-123377370D01*
X116958112Y-123544000D01*
X116941701Y-123710630D01*
X116893097Y-123870855D01*
X116814169Y-124018520D01*
X116707949Y-124147949D01*
X116578520Y-124254169D01*
X116430855Y-124333097D01*
X116270630Y-124381701D01*
X116145752Y-124394000D01*
X116062248Y-124394000D01*
X115937370Y-124381701D01*
X115777145Y-124333097D01*
X115629480Y-124254169D01*
X115500051Y-124147949D01*
X115393831Y-124018520D01*
X115314903Y-123870855D01*
X115266299Y-123710630D01*
X115249888Y-123544000D01*
X115266299Y-123377370D01*
X115314903Y-123217145D01*
X115393831Y-123069480D01*
X115500051Y-122940051D01*
X115629480Y-122833831D01*
X115777145Y-122754903D01*
X115937370Y-122706299D01*
X116062248Y-122694000D01*
X116145752Y-122694000D01*
X116270630Y-122706299D01*
X116270630Y-122706299D01*
G37*
G36*
X134558630Y-122706299D02*
X134718855Y-122754903D01*
X134866520Y-122833831D01*
X134995949Y-122940051D01*
X135102169Y-123069480D01*
X135181097Y-123217145D01*
X135229701Y-123377370D01*
X135246112Y-123544000D01*
X135229701Y-123710630D01*
X135181097Y-123870855D01*
X135102169Y-124018520D01*
X134995949Y-124147949D01*
X134866520Y-124254169D01*
X134718855Y-124333097D01*
X134558630Y-124381701D01*
X134433752Y-124394000D01*
X134350248Y-124394000D01*
X134225370Y-124381701D01*
X134065145Y-124333097D01*
X133917480Y-124254169D01*
X133788051Y-124147949D01*
X133681831Y-124018520D01*
X133602903Y-123870855D01*
X133554299Y-123710630D01*
X133537888Y-123544000D01*
X133554299Y-123377370D01*
X133602903Y-123217145D01*
X133681831Y-123069480D01*
X133788051Y-122940051D01*
X133917480Y-122833831D01*
X134065145Y-122754903D01*
X134225370Y-122706299D01*
X134350248Y-122694000D01*
X134433752Y-122694000D01*
X134558630Y-122706299D01*
X134558630Y-122706299D01*
G37*
G36*
X173166630Y-122452299D02*
X173326855Y-122500903D01*
X173474520Y-122579831D01*
X173603949Y-122686051D01*
X173710169Y-122815480D01*
X173789097Y-122963145D01*
X173837701Y-123123370D01*
X173854112Y-123290000D01*
X173837701Y-123456630D01*
X173789097Y-123616855D01*
X173710169Y-123764520D01*
X173603949Y-123893949D01*
X173474520Y-124000169D01*
X173326855Y-124079097D01*
X173166630Y-124127701D01*
X173041752Y-124140000D01*
X172958248Y-124140000D01*
X172833370Y-124127701D01*
X172673145Y-124079097D01*
X172525480Y-124000169D01*
X172396051Y-123893949D01*
X172289831Y-123764520D01*
X172210903Y-123616855D01*
X172162299Y-123456630D01*
X172145888Y-123290000D01*
X172162299Y-123123370D01*
X172210903Y-122963145D01*
X172289831Y-122815480D01*
X172396051Y-122686051D01*
X172525480Y-122579831D01*
X172673145Y-122500903D01*
X172833370Y-122452299D01*
X172958248Y-122440000D01*
X173041752Y-122440000D01*
X173166630Y-122452299D01*
X173166630Y-122452299D01*
G37*
G36*
X144386000Y-122108000D02*
X142686000Y-122108000D01*
X142686000Y-120408000D01*
X144386000Y-120408000D01*
X144386000Y-122108000D01*
X144386000Y-122108000D01*
G37*
G36*
X162166000Y-122108000D02*
X160466000Y-122108000D01*
X160466000Y-120408000D01*
X162166000Y-120408000D01*
X162166000Y-122108000D01*
X162166000Y-122108000D01*
G37*
G36*
X153339500Y-122108000D02*
X151639500Y-122108000D01*
X151639500Y-120408000D01*
X153339500Y-120408000D01*
X153339500Y-122108000D01*
X153339500Y-122108000D01*
G37*
G36*
X126098000Y-122108000D02*
X124398000Y-122108000D01*
X124398000Y-120408000D01*
X126098000Y-120408000D01*
X126098000Y-122108000D01*
X126098000Y-122108000D01*
G37*
G36*
X135242000Y-121854000D02*
X133542000Y-121854000D01*
X133542000Y-120154000D01*
X135242000Y-120154000D01*
X135242000Y-121854000D01*
X135242000Y-121854000D01*
G37*
G36*
X116954000Y-121854000D02*
X115254000Y-121854000D01*
X115254000Y-120154000D01*
X116954000Y-120154000D01*
X116954000Y-121854000D01*
X116954000Y-121854000D01*
G37*
G36*
X173166630Y-119912299D02*
X173326855Y-119960903D01*
X173474520Y-120039831D01*
X173603949Y-120146051D01*
X173710169Y-120275480D01*
X173789097Y-120423145D01*
X173837701Y-120583370D01*
X173854112Y-120750000D01*
X173837701Y-120916630D01*
X173789097Y-121076855D01*
X173710169Y-121224520D01*
X173603949Y-121353949D01*
X173474520Y-121460169D01*
X173326855Y-121539097D01*
X173166630Y-121587701D01*
X173041752Y-121600000D01*
X172958248Y-121600000D01*
X172833370Y-121587701D01*
X172673145Y-121539097D01*
X172525480Y-121460169D01*
X172396051Y-121353949D01*
X172289831Y-121224520D01*
X172210903Y-121076855D01*
X172162299Y-120916630D01*
X172145888Y-120750000D01*
X172162299Y-120583370D01*
X172210903Y-120423145D01*
X172289831Y-120275480D01*
X172396051Y-120146051D01*
X172525480Y-120039831D01*
X172673145Y-119960903D01*
X172833370Y-119912299D01*
X172958248Y-119900000D01*
X173041752Y-119900000D01*
X173166630Y-119912299D01*
X173166630Y-119912299D01*
G37*
G36*
X173166630Y-117372299D02*
X173326855Y-117420903D01*
X173474520Y-117499831D01*
X173603949Y-117606051D01*
X173710169Y-117735480D01*
X173789097Y-117883145D01*
X173837701Y-118043370D01*
X173854112Y-118210000D01*
X173837701Y-118376630D01*
X173789097Y-118536855D01*
X173710169Y-118684520D01*
X173603949Y-118813949D01*
X173474520Y-118920169D01*
X173326855Y-118999097D01*
X173166630Y-119047701D01*
X173041752Y-119060000D01*
X172958248Y-119060000D01*
X172833370Y-119047701D01*
X172673145Y-118999097D01*
X172525480Y-118920169D01*
X172396051Y-118813949D01*
X172289831Y-118684520D01*
X172210903Y-118536855D01*
X172162299Y-118376630D01*
X172145888Y-118210000D01*
X172162299Y-118043370D01*
X172210903Y-117883145D01*
X172289831Y-117735480D01*
X172396051Y-117606051D01*
X172525480Y-117499831D01*
X172673145Y-117420903D01*
X172833370Y-117372299D01*
X172958248Y-117360000D01*
X173041752Y-117360000D01*
X173166630Y-117372299D01*
X173166630Y-117372299D01*
G37*
G36*
X173166630Y-114832299D02*
X173326855Y-114880903D01*
X173474520Y-114959831D01*
X173603949Y-115066051D01*
X173710169Y-115195480D01*
X173789097Y-115343145D01*
X173837701Y-115503370D01*
X173854112Y-115670000D01*
X173837701Y-115836630D01*
X173789097Y-115996855D01*
X173710169Y-116144520D01*
X173603949Y-116273949D01*
X173474520Y-116380169D01*
X173326855Y-116459097D01*
X173166630Y-116507701D01*
X173041752Y-116520000D01*
X172958248Y-116520000D01*
X172833370Y-116507701D01*
X172673145Y-116459097D01*
X172525480Y-116380169D01*
X172396051Y-116273949D01*
X172289831Y-116144520D01*
X172210903Y-115996855D01*
X172162299Y-115836630D01*
X172145888Y-115670000D01*
X172162299Y-115503370D01*
X172210903Y-115343145D01*
X172289831Y-115195480D01*
X172396051Y-115066051D01*
X172525480Y-114959831D01*
X172673145Y-114880903D01*
X172833370Y-114832299D01*
X172958248Y-114820000D01*
X173041752Y-114820000D01*
X173166630Y-114832299D01*
X173166630Y-114832299D01*
G37*
G36*
X173850000Y-113980000D02*
X172150000Y-113980000D01*
X172150000Y-112280000D01*
X173850000Y-112280000D01*
X173850000Y-113980000D01*
X173850000Y-113980000D01*
G37*
G36*
X173166630Y-109752299D02*
X173326855Y-109800903D01*
X173474520Y-109879831D01*
X173603949Y-109986051D01*
X173710169Y-110115480D01*
X173789097Y-110263145D01*
X173837701Y-110423370D01*
X173854112Y-110590000D01*
X173837701Y-110756630D01*
X173789097Y-110916855D01*
X173710169Y-111064520D01*
X173603949Y-111193949D01*
X173474520Y-111300169D01*
X173326855Y-111379097D01*
X173166630Y-111427701D01*
X173041752Y-111440000D01*
X172958248Y-111440000D01*
X172833370Y-111427701D01*
X172673145Y-111379097D01*
X172525480Y-111300169D01*
X172396051Y-111193949D01*
X172289831Y-111064520D01*
X172210903Y-110916855D01*
X172162299Y-110756630D01*
X172145888Y-110590000D01*
X172162299Y-110423370D01*
X172210903Y-110263145D01*
X172289831Y-110115480D01*
X172396051Y-109986051D01*
X172525480Y-109879831D01*
X172673145Y-109800903D01*
X172833370Y-109752299D01*
X172958248Y-109740000D01*
X173041752Y-109740000D01*
X173166630Y-109752299D01*
X173166630Y-109752299D01*
G37*
G36*
X154165639Y-105822916D02*
X154372986Y-105885815D01*
X154372988Y-105885816D01*
X154564084Y-105987958D01*
X154731581Y-106125419D01*
X154869042Y-106292916D01*
X154937244Y-106420514D01*
X154971185Y-106484014D01*
X155034084Y-106691361D01*
X155055322Y-106907000D01*
X155034084Y-107122639D01*
X154990448Y-107266486D01*
X154971184Y-107329988D01*
X154869042Y-107521084D01*
X154731581Y-107688581D01*
X154564084Y-107826042D01*
X154372988Y-107928184D01*
X154372986Y-107928185D01*
X154165639Y-107991084D01*
X154004038Y-108007000D01*
X153895962Y-108007000D01*
X153734361Y-107991084D01*
X153527014Y-107928185D01*
X153527012Y-107928184D01*
X153335916Y-107826042D01*
X153168419Y-107688581D01*
X153030958Y-107521084D01*
X152928816Y-107329988D01*
X152909553Y-107266486D01*
X152865916Y-107122639D01*
X152844678Y-106907000D01*
X152865916Y-106691361D01*
X152928815Y-106484014D01*
X152962756Y-106420514D01*
X153030958Y-106292916D01*
X153168419Y-106125419D01*
X153335916Y-105987958D01*
X153527012Y-105885816D01*
X153527014Y-105885815D01*
X153734361Y-105822916D01*
X153895962Y-105807000D01*
X154004038Y-105807000D01*
X154165639Y-105822916D01*
X154165639Y-105822916D01*
G37*
G36*
X151240000Y-108007000D02*
X149040000Y-108007000D01*
X149040000Y-105807000D01*
X151240000Y-105807000D01*
X151240000Y-108007000D01*
X151240000Y-108007000D01*
G37*
G36*
X134226639Y-105759416D02*
X134433986Y-105822315D01*
X134433988Y-105822316D01*
X134625084Y-105924458D01*
X134792581Y-106061919D01*
X134930042Y-106229416D01*
X135007249Y-106373862D01*
X135032185Y-106420514D01*
X135095084Y-106627861D01*
X135116322Y-106843500D01*
X135095084Y-107059139D01*
X135051448Y-107202986D01*
X135032184Y-107266488D01*
X134930042Y-107457584D01*
X134792581Y-107625081D01*
X134625084Y-107762542D01*
X134433988Y-107864684D01*
X134433986Y-107864685D01*
X134226639Y-107927584D01*
X134065038Y-107943500D01*
X133956962Y-107943500D01*
X133795361Y-107927584D01*
X133588014Y-107864685D01*
X133588012Y-107864684D01*
X133396916Y-107762542D01*
X133229419Y-107625081D01*
X133091958Y-107457584D01*
X132989816Y-107266488D01*
X132970553Y-107202986D01*
X132926916Y-107059139D01*
X132905678Y-106843500D01*
X132926916Y-106627861D01*
X132989815Y-106420514D01*
X133014751Y-106373862D01*
X133091958Y-106229416D01*
X133229419Y-106061919D01*
X133396916Y-105924458D01*
X133588012Y-105822316D01*
X133588014Y-105822315D01*
X133795361Y-105759416D01*
X133956962Y-105743500D01*
X134065038Y-105743500D01*
X134226639Y-105759416D01*
X134226639Y-105759416D01*
G37*
G36*
X141143500Y-107943500D02*
X138943500Y-107943500D01*
X138943500Y-105743500D01*
X141143500Y-105743500D01*
X141143500Y-107943500D01*
X141143500Y-107943500D01*
G37*
G36*
X144069139Y-105759416D02*
X144276486Y-105822315D01*
X144276488Y-105822316D01*
X144467584Y-105924458D01*
X144635081Y-106061919D01*
X144772542Y-106229416D01*
X144849749Y-106373862D01*
X144874685Y-106420514D01*
X144937584Y-106627861D01*
X144958822Y-106843500D01*
X144937584Y-107059139D01*
X144893948Y-107202986D01*
X144874684Y-107266488D01*
X144772542Y-107457584D01*
X144635081Y-107625081D01*
X144467584Y-107762542D01*
X144276488Y-107864684D01*
X144276486Y-107864685D01*
X144069139Y-107927584D01*
X143907538Y-107943500D01*
X143799462Y-107943500D01*
X143637861Y-107927584D01*
X143430514Y-107864685D01*
X143430512Y-107864684D01*
X143239416Y-107762542D01*
X143071919Y-107625081D01*
X142934458Y-107457584D01*
X142832316Y-107266488D01*
X142813053Y-107202986D01*
X142769416Y-107059139D01*
X142748178Y-106843500D01*
X142769416Y-106627861D01*
X142832315Y-106420514D01*
X142857251Y-106373862D01*
X142934458Y-106229416D01*
X143071919Y-106061919D01*
X143239416Y-105924458D01*
X143430512Y-105822316D01*
X143430514Y-105822315D01*
X143637861Y-105759416D01*
X143799462Y-105743500D01*
X143907538Y-105743500D01*
X144069139Y-105759416D01*
X144069139Y-105759416D01*
G37*
G36*
X131301000Y-107943500D02*
X129101000Y-107943500D01*
X129101000Y-105743500D01*
X131301000Y-105743500D01*
X131301000Y-107943500D01*
X131301000Y-107943500D01*
G37*
G36*
X121395000Y-107880000D02*
X119195000Y-107880000D01*
X119195000Y-105680000D01*
X121395000Y-105680000D01*
X121395000Y-107880000D01*
X121395000Y-107880000D01*
G37*
G36*
X124320639Y-105695916D02*
X124527986Y-105758815D01*
X124527988Y-105758816D01*
X124719084Y-105860958D01*
X124886581Y-105998419D01*
X125024042Y-106165916D01*
X125091924Y-106292916D01*
X125126185Y-106357014D01*
X125189084Y-106564361D01*
X125210322Y-106780000D01*
X125189084Y-106995639D01*
X125150559Y-107122638D01*
X125126184Y-107202988D01*
X125024042Y-107394084D01*
X124886581Y-107561581D01*
X124719084Y-107699042D01*
X124527988Y-107801184D01*
X124527986Y-107801185D01*
X124320639Y-107864084D01*
X124159038Y-107880000D01*
X124050962Y-107880000D01*
X123889361Y-107864084D01*
X123682014Y-107801185D01*
X123682012Y-107801184D01*
X123490916Y-107699042D01*
X123323419Y-107561581D01*
X123185958Y-107394084D01*
X123083816Y-107202988D01*
X123059442Y-107122638D01*
X123020916Y-106995639D01*
X122999678Y-106780000D01*
X123020916Y-106564361D01*
X123083815Y-106357014D01*
X123118076Y-106292916D01*
X123185958Y-106165916D01*
X123323419Y-105998419D01*
X123490916Y-105860958D01*
X123682012Y-105758816D01*
X123682014Y-105758815D01*
X123889361Y-105695916D01*
X124050962Y-105680000D01*
X124159038Y-105680000D01*
X124320639Y-105695916D01*
X124320639Y-105695916D01*
G37*
G36*
X160701500Y-107689500D02*
X158501500Y-107689500D01*
X158501500Y-105489500D01*
X160701500Y-105489500D01*
X160701500Y-107689500D01*
X160701500Y-107689500D01*
G37*
G36*
X163627139Y-105505416D02*
X163834486Y-105568315D01*
X163834488Y-105568316D01*
X164025584Y-105670458D01*
X164193081Y-105807919D01*
X164330542Y-105975416D01*
X164432684Y-106166512D01*
X164432685Y-106166514D01*
X164495584Y-106373861D01*
X164516822Y-106589500D01*
X164495584Y-106805139D01*
X164437796Y-106995639D01*
X164432684Y-107012488D01*
X164330542Y-107203584D01*
X164193081Y-107371081D01*
X164025584Y-107508542D01*
X163834488Y-107610684D01*
X163834486Y-107610685D01*
X163627139Y-107673584D01*
X163465538Y-107689500D01*
X163357462Y-107689500D01*
X163195861Y-107673584D01*
X162988514Y-107610685D01*
X162988512Y-107610684D01*
X162797416Y-107508542D01*
X162629919Y-107371081D01*
X162492458Y-107203584D01*
X162390316Y-107012488D01*
X162385205Y-106995639D01*
X162327416Y-106805139D01*
X162306178Y-106589500D01*
X162327416Y-106373861D01*
X162390315Y-106166514D01*
X162390316Y-106166512D01*
X162492458Y-105975416D01*
X162629919Y-105807919D01*
X162797416Y-105670458D01*
X162988512Y-105568316D01*
X162988514Y-105568315D01*
X163195861Y-105505416D01*
X163357462Y-105489500D01*
X163465538Y-105489500D01*
X163627139Y-105505416D01*
X163627139Y-105505416D01*
G37*
G36*
X162166000Y-102550000D02*
X160466000Y-102550000D01*
X160466000Y-100850000D01*
X162166000Y-100850000D01*
X162166000Y-102550000D01*
X162166000Y-102550000D01*
G37*
G36*
X173166630Y-100862299D02*
X173326855Y-100910903D01*
X173474520Y-100989831D01*
X173603949Y-101096051D01*
X173710169Y-101225480D01*
X173789097Y-101373145D01*
X173837701Y-101533370D01*
X173854112Y-101700000D01*
X173837701Y-101866630D01*
X173789097Y-102026855D01*
X173710169Y-102174520D01*
X173603949Y-102303949D01*
X173474520Y-102410169D01*
X173326855Y-102489097D01*
X173166630Y-102537701D01*
X173041752Y-102550000D01*
X172958248Y-102550000D01*
X172833370Y-102537701D01*
X172673145Y-102489097D01*
X172525480Y-102410169D01*
X172396051Y-102303949D01*
X172289831Y-102174520D01*
X172210903Y-102026855D01*
X172162299Y-101866630D01*
X172145888Y-101700000D01*
X172162299Y-101533370D01*
X172210903Y-101373145D01*
X172289831Y-101225480D01*
X172396051Y-101096051D01*
X172525480Y-100989831D01*
X172673145Y-100910903D01*
X172833370Y-100862299D01*
X172958248Y-100850000D01*
X173041752Y-100850000D01*
X173166630Y-100862299D01*
X173166630Y-100862299D01*
G37*
G36*
X121780000Y-102550000D02*
X120080000Y-102550000D01*
X120080000Y-100850000D01*
X121780000Y-100850000D01*
X121780000Y-102550000D01*
X121780000Y-102550000D01*
G37*
G36*
X173850000Y-100010000D02*
X172150000Y-100010000D01*
X172150000Y-98310000D01*
X173850000Y-98310000D01*
X173850000Y-100010000D01*
X173850000Y-100010000D01*
G37*
G36*
X173166630Y-93496299D02*
X173326855Y-93544903D01*
X173474520Y-93623831D01*
X173603949Y-93730051D01*
X173710169Y-93859480D01*
X173789097Y-94007145D01*
X173837701Y-94167370D01*
X173854112Y-94334000D01*
X173837701Y-94500630D01*
X173789097Y-94660855D01*
X173710169Y-94808520D01*
X173603949Y-94937949D01*
X173474520Y-95044169D01*
X173326855Y-95123097D01*
X173166630Y-95171701D01*
X173041752Y-95184000D01*
X172958248Y-95184000D01*
X172833370Y-95171701D01*
X172673145Y-95123097D01*
X172525480Y-95044169D01*
X172396051Y-94937949D01*
X172289831Y-94808520D01*
X172210903Y-94660855D01*
X172162299Y-94500630D01*
X172145888Y-94334000D01*
X172162299Y-94167370D01*
X172210903Y-94007145D01*
X172289831Y-93859480D01*
X172396051Y-93730051D01*
X172525480Y-93623831D01*
X172673145Y-93544903D01*
X172833370Y-93496299D01*
X172958248Y-93484000D01*
X173041752Y-93484000D01*
X173166630Y-93496299D01*
X173166630Y-93496299D01*
G37*
G36*
X173850000Y-92644000D02*
X172150000Y-92644000D01*
X172150000Y-90944000D01*
X173850000Y-90944000D01*
X173850000Y-92644000D01*
X173850000Y-92644000D01*
G37*
G36*
X173166630Y-84987299D02*
X173326855Y-85035903D01*
X173474520Y-85114831D01*
X173603949Y-85221051D01*
X173710169Y-85350480D01*
X173789097Y-85498145D01*
X173837701Y-85658370D01*
X173854112Y-85825000D01*
X173837701Y-85991630D01*
X173789097Y-86151855D01*
X173710169Y-86299520D01*
X173603949Y-86428949D01*
X173474520Y-86535169D01*
X173326855Y-86614097D01*
X173166630Y-86662701D01*
X173041752Y-86675000D01*
X172958248Y-86675000D01*
X172833370Y-86662701D01*
X172673145Y-86614097D01*
X172525480Y-86535169D01*
X172396051Y-86428949D01*
X172289831Y-86299520D01*
X172210903Y-86151855D01*
X172162299Y-85991630D01*
X172145888Y-85825000D01*
X172162299Y-85658370D01*
X172210903Y-85498145D01*
X172289831Y-85350480D01*
X172396051Y-85221051D01*
X172525480Y-85114831D01*
X172673145Y-85035903D01*
X172833370Y-84987299D01*
X172958248Y-84975000D01*
X173041752Y-84975000D01*
X173166630Y-84987299D01*
X173166630Y-84987299D01*
G37*
G36*
X162420000Y-84770000D02*
X160720000Y-84770000D01*
X160720000Y-83070000D01*
X162420000Y-83070000D01*
X162420000Y-84770000D01*
X162420000Y-84770000D01*
G37*
G36*
X121780000Y-84770000D02*
X120080000Y-84770000D01*
X120080000Y-83070000D01*
X121780000Y-83070000D01*
X121780000Y-84770000D01*
X121780000Y-84770000D01*
G37*
G36*
X173166630Y-82447299D02*
X173326855Y-82495903D01*
X173474520Y-82574831D01*
X173603949Y-82681051D01*
X173710169Y-82810480D01*
X173789097Y-82958145D01*
X173837701Y-83118370D01*
X173854112Y-83285000D01*
X173837701Y-83451630D01*
X173789097Y-83611855D01*
X173710169Y-83759520D01*
X173603949Y-83888949D01*
X173474520Y-83995169D01*
X173326855Y-84074097D01*
X173166630Y-84122701D01*
X173041752Y-84135000D01*
X172958248Y-84135000D01*
X172833370Y-84122701D01*
X172673145Y-84074097D01*
X172525480Y-83995169D01*
X172396051Y-83888949D01*
X172289831Y-83759520D01*
X172210903Y-83611855D01*
X172162299Y-83451630D01*
X172145888Y-83285000D01*
X172162299Y-83118370D01*
X172210903Y-82958145D01*
X172289831Y-82810480D01*
X172396051Y-82681051D01*
X172525480Y-82574831D01*
X172673145Y-82495903D01*
X172833370Y-82447299D01*
X172958248Y-82435000D01*
X173041752Y-82435000D01*
X173166630Y-82447299D01*
X173166630Y-82447299D01*
G37*
G36*
X173166630Y-79907299D02*
X173326855Y-79955903D01*
X173474520Y-80034831D01*
X173603949Y-80141051D01*
X173710169Y-80270480D01*
X173789097Y-80418145D01*
X173837701Y-80578370D01*
X173854112Y-80745000D01*
X173837701Y-80911630D01*
X173789097Y-81071855D01*
X173710169Y-81219520D01*
X173603949Y-81348949D01*
X173474520Y-81455169D01*
X173326855Y-81534097D01*
X173166630Y-81582701D01*
X173041752Y-81595000D01*
X172958248Y-81595000D01*
X172833370Y-81582701D01*
X172673145Y-81534097D01*
X172525480Y-81455169D01*
X172396051Y-81348949D01*
X172289831Y-81219520D01*
X172210903Y-81071855D01*
X172162299Y-80911630D01*
X172145888Y-80745000D01*
X172162299Y-80578370D01*
X172210903Y-80418145D01*
X172289831Y-80270480D01*
X172396051Y-80141051D01*
X172525480Y-80034831D01*
X172673145Y-79955903D01*
X172833370Y-79907299D01*
X172958248Y-79895000D01*
X173041752Y-79895000D01*
X173166630Y-79907299D01*
X173166630Y-79907299D01*
G37*
G36*
X150373352Y-79340743D02*
X150518941Y-79401048D01*
X150649973Y-79488601D01*
X150761399Y-79600027D01*
X150848952Y-79731059D01*
X150909257Y-79876648D01*
X150940000Y-80031205D01*
X150940000Y-80188795D01*
X150909257Y-80343352D01*
X150848952Y-80488941D01*
X150761399Y-80619973D01*
X150649973Y-80731399D01*
X150518941Y-80818952D01*
X150373352Y-80879257D01*
X150218795Y-80910000D01*
X150061205Y-80910000D01*
X149906648Y-80879257D01*
X149761059Y-80818952D01*
X149630027Y-80731399D01*
X149518601Y-80619973D01*
X149431048Y-80488941D01*
X149370743Y-80343352D01*
X149340000Y-80188795D01*
X149340000Y-80031205D01*
X149370743Y-79876648D01*
X149431048Y-79731059D01*
X149518601Y-79600027D01*
X149630027Y-79488601D01*
X149761059Y-79401048D01*
X149906648Y-79340743D01*
X150061205Y-79310000D01*
X150218795Y-79310000D01*
X150373352Y-79340743D01*
X150373352Y-79340743D01*
G37*
G36*
X155337649Y-79317717D02*
X155376827Y-79321576D01*
X155429483Y-79337549D01*
X155527629Y-79367321D01*
X155666608Y-79441608D01*
X155788422Y-79541578D01*
X155888392Y-79663392D01*
X155962679Y-79802371D01*
X155962679Y-79802372D01*
X156008424Y-79953173D01*
X156023870Y-80110000D01*
X156008424Y-80266827D01*
X156004473Y-80279851D01*
X155962679Y-80417629D01*
X155888392Y-80556608D01*
X155788422Y-80678422D01*
X155666608Y-80778392D01*
X155527629Y-80852679D01*
X155452228Y-80875551D01*
X155376827Y-80898424D01*
X155337649Y-80902283D01*
X155259295Y-80910000D01*
X155180705Y-80910000D01*
X155102351Y-80902283D01*
X155063173Y-80898424D01*
X154987772Y-80875551D01*
X154912371Y-80852679D01*
X154773392Y-80778392D01*
X154651578Y-80678422D01*
X154551608Y-80556608D01*
X154477321Y-80417629D01*
X154435527Y-80279851D01*
X154431576Y-80266827D01*
X154416130Y-80110000D01*
X154431576Y-79953173D01*
X154477321Y-79802372D01*
X154477321Y-79802371D01*
X154551608Y-79663392D01*
X154651578Y-79541578D01*
X154773392Y-79441608D01*
X154912371Y-79367321D01*
X155010517Y-79337549D01*
X155063173Y-79321576D01*
X155102351Y-79317717D01*
X155180705Y-79310000D01*
X155259295Y-79310000D01*
X155337649Y-79317717D01*
X155337649Y-79317717D01*
G37*
G36*
X146447649Y-79254217D02*
X146486827Y-79258076D01*
X146550012Y-79277243D01*
X146637629Y-79303821D01*
X146776608Y-79378108D01*
X146898422Y-79478078D01*
X146998392Y-79599892D01*
X147072679Y-79738871D01*
X147072679Y-79738872D01*
X147118424Y-79889673D01*
X147133870Y-80046500D01*
X147124558Y-80141052D01*
X147118424Y-80203326D01*
X147072679Y-80354129D01*
X146998392Y-80493108D01*
X146898422Y-80614922D01*
X146776608Y-80714892D01*
X146637629Y-80789179D01*
X146562228Y-80812051D01*
X146486827Y-80834924D01*
X146447649Y-80838783D01*
X146369295Y-80846500D01*
X146290705Y-80846500D01*
X146212351Y-80838783D01*
X146173173Y-80834924D01*
X146097773Y-80812052D01*
X146022371Y-80789179D01*
X145883392Y-80714892D01*
X145761578Y-80614922D01*
X145661608Y-80493108D01*
X145587321Y-80354129D01*
X145541576Y-80203326D01*
X145535443Y-80141052D01*
X145526130Y-80046500D01*
X145541576Y-79889673D01*
X145587321Y-79738872D01*
X145587321Y-79738871D01*
X145661608Y-79599892D01*
X145761578Y-79478078D01*
X145883392Y-79378108D01*
X146022371Y-79303821D01*
X146109988Y-79277243D01*
X146173173Y-79258076D01*
X146212351Y-79254217D01*
X146290705Y-79246500D01*
X146369295Y-79246500D01*
X146447649Y-79254217D01*
X146447649Y-79254217D01*
G37*
G36*
X141483352Y-79277243D02*
X141628941Y-79337548D01*
X141759973Y-79425101D01*
X141871399Y-79536527D01*
X141958952Y-79667559D01*
X142019257Y-79813148D01*
X142050000Y-79967705D01*
X142050000Y-80125295D01*
X142019257Y-80279852D01*
X141958952Y-80425441D01*
X141871399Y-80556473D01*
X141759973Y-80667899D01*
X141628941Y-80755452D01*
X141483352Y-80815757D01*
X141328795Y-80846500D01*
X141171205Y-80846500D01*
X141016648Y-80815757D01*
X140871059Y-80755452D01*
X140740027Y-80667899D01*
X140628601Y-80556473D01*
X140541048Y-80425441D01*
X140480743Y-80279852D01*
X140450000Y-80125295D01*
X140450000Y-79967705D01*
X140480743Y-79813148D01*
X140541048Y-79667559D01*
X140628601Y-79536527D01*
X140740027Y-79425101D01*
X140871059Y-79337548D01*
X141016648Y-79277243D01*
X141171205Y-79246500D01*
X141328795Y-79246500D01*
X141483352Y-79277243D01*
X141483352Y-79277243D01*
G37*
G36*
X173166630Y-77367299D02*
X173326855Y-77415903D01*
X173474520Y-77494831D01*
X173603949Y-77601051D01*
X173710169Y-77730480D01*
X173789097Y-77878145D01*
X173837701Y-78038370D01*
X173854112Y-78205000D01*
X173837701Y-78371630D01*
X173789097Y-78531855D01*
X173710169Y-78679520D01*
X173603949Y-78808949D01*
X173474520Y-78915169D01*
X173326855Y-78994097D01*
X173166630Y-79042701D01*
X173041752Y-79055000D01*
X172958248Y-79055000D01*
X172833370Y-79042701D01*
X172673145Y-78994097D01*
X172525480Y-78915169D01*
X172396051Y-78808949D01*
X172289831Y-78679520D01*
X172210903Y-78531855D01*
X172162299Y-78371630D01*
X172145888Y-78205000D01*
X172162299Y-78038370D01*
X172210903Y-77878145D01*
X172289831Y-77730480D01*
X172396051Y-77601051D01*
X172525480Y-77494831D01*
X172673145Y-77415903D01*
X172833370Y-77367299D01*
X172958248Y-77355000D01*
X173041752Y-77355000D01*
X173166630Y-77367299D01*
X173166630Y-77367299D01*
G37*
G36*
X118519377Y-75350456D02*
X118615135Y-75379504D01*
X118663015Y-75394028D01*
X118729203Y-75429407D01*
X118795391Y-75464785D01*
X118911422Y-75560008D01*
X118911423Y-75560010D01*
X118911425Y-75560011D01*
X118968556Y-75629626D01*
X119006645Y-75676038D01*
X119051594Y-75760131D01*
X119077402Y-75808414D01*
X119091926Y-75856294D01*
X119120974Y-75952052D01*
X119132000Y-76064004D01*
X119132000Y-76613835D01*
X119120974Y-76725788D01*
X119091926Y-76821546D01*
X119077402Y-76869426D01*
X119051594Y-76917709D01*
X119006645Y-77001802D01*
X118911422Y-77117832D01*
X118795392Y-77213055D01*
X118711299Y-77258004D01*
X118663016Y-77283812D01*
X118615136Y-77298336D01*
X118519378Y-77327384D01*
X118370000Y-77342096D01*
X118220623Y-77327384D01*
X118124865Y-77298336D01*
X118076985Y-77283812D01*
X118028702Y-77258004D01*
X117944609Y-77213055D01*
X117828579Y-77117832D01*
X117733355Y-77001802D01*
X117688406Y-76917709D01*
X117662598Y-76869426D01*
X117648074Y-76821546D01*
X117619026Y-76725788D01*
X117608000Y-76613836D01*
X117608000Y-76064005D01*
X117619026Y-75952053D01*
X117662598Y-75808416D01*
X117662598Y-75808415D01*
X117697976Y-75742228D01*
X117733355Y-75676039D01*
X117828578Y-75560008D01*
X117828580Y-75560007D01*
X117828581Y-75560005D01*
X117944606Y-75464787D01*
X117944608Y-75464785D01*
X118028701Y-75419836D01*
X118076984Y-75394028D01*
X118124864Y-75379504D01*
X118220622Y-75350456D01*
X118370000Y-75335744D01*
X118519377Y-75350456D01*
X118519377Y-75350456D01*
G37*
G36*
X121059377Y-75350456D02*
X121155135Y-75379504D01*
X121203015Y-75394028D01*
X121269203Y-75429407D01*
X121335391Y-75464785D01*
X121451422Y-75560008D01*
X121451423Y-75560010D01*
X121451425Y-75560011D01*
X121508556Y-75629626D01*
X121546645Y-75676038D01*
X121591594Y-75760131D01*
X121617402Y-75808414D01*
X121631926Y-75856294D01*
X121660974Y-75952052D01*
X121672000Y-76064004D01*
X121672000Y-76613835D01*
X121660974Y-76725788D01*
X121631926Y-76821546D01*
X121617402Y-76869426D01*
X121591594Y-76917709D01*
X121546645Y-77001802D01*
X121451422Y-77117832D01*
X121335392Y-77213055D01*
X121251299Y-77258004D01*
X121203016Y-77283812D01*
X121155136Y-77298336D01*
X121059378Y-77327384D01*
X120910000Y-77342096D01*
X120760623Y-77327384D01*
X120664865Y-77298336D01*
X120616985Y-77283812D01*
X120568702Y-77258004D01*
X120484609Y-77213055D01*
X120368579Y-77117832D01*
X120273355Y-77001802D01*
X120228406Y-76917709D01*
X120202598Y-76869426D01*
X120188074Y-76821546D01*
X120159026Y-76725788D01*
X120148000Y-76613836D01*
X120148000Y-76064005D01*
X120159026Y-75952053D01*
X120202598Y-75808416D01*
X120202598Y-75808415D01*
X120237976Y-75742228D01*
X120273355Y-75676039D01*
X120368578Y-75560008D01*
X120368580Y-75560007D01*
X120368581Y-75560005D01*
X120484606Y-75464787D01*
X120484608Y-75464785D01*
X120568701Y-75419836D01*
X120616984Y-75394028D01*
X120664864Y-75379504D01*
X120760622Y-75350456D01*
X120910000Y-75335744D01*
X121059377Y-75350456D01*
X121059377Y-75350456D01*
G37*
G36*
X123599377Y-75350456D02*
X123695135Y-75379504D01*
X123743015Y-75394028D01*
X123809203Y-75429407D01*
X123875391Y-75464785D01*
X123991422Y-75560008D01*
X123991423Y-75560010D01*
X123991425Y-75560011D01*
X124048556Y-75629626D01*
X124086645Y-75676038D01*
X124131594Y-75760131D01*
X124157402Y-75808414D01*
X124171926Y-75856294D01*
X124200974Y-75952052D01*
X124212000Y-76064004D01*
X124212000Y-76613835D01*
X124200974Y-76725788D01*
X124171926Y-76821546D01*
X124157402Y-76869426D01*
X124131594Y-76917709D01*
X124086645Y-77001802D01*
X123991422Y-77117832D01*
X123875392Y-77213055D01*
X123791299Y-77258004D01*
X123743016Y-77283812D01*
X123695136Y-77298336D01*
X123599378Y-77327384D01*
X123450000Y-77342096D01*
X123300623Y-77327384D01*
X123204865Y-77298336D01*
X123156985Y-77283812D01*
X123108702Y-77258004D01*
X123024609Y-77213055D01*
X122908579Y-77117832D01*
X122813355Y-77001802D01*
X122768406Y-76917709D01*
X122742598Y-76869426D01*
X122728074Y-76821546D01*
X122699026Y-76725788D01*
X122688000Y-76613836D01*
X122688000Y-76064005D01*
X122699026Y-75952053D01*
X122742598Y-75808416D01*
X122742598Y-75808415D01*
X122777976Y-75742228D01*
X122813355Y-75676039D01*
X122908578Y-75560008D01*
X122908580Y-75560007D01*
X122908581Y-75560005D01*
X123024606Y-75464787D01*
X123024608Y-75464785D01*
X123108701Y-75419836D01*
X123156984Y-75394028D01*
X123204864Y-75379504D01*
X123300622Y-75350456D01*
X123450000Y-75335744D01*
X123599377Y-75350456D01*
X123599377Y-75350456D01*
G37*
G36*
X126139377Y-75350456D02*
X126235135Y-75379504D01*
X126283015Y-75394028D01*
X126349203Y-75429407D01*
X126415391Y-75464785D01*
X126531422Y-75560008D01*
X126531423Y-75560010D01*
X126531425Y-75560011D01*
X126588556Y-75629626D01*
X126626645Y-75676038D01*
X126671594Y-75760131D01*
X126697402Y-75808414D01*
X126711926Y-75856294D01*
X126740974Y-75952052D01*
X126752000Y-76064004D01*
X126752000Y-76613835D01*
X126740974Y-76725788D01*
X126711926Y-76821546D01*
X126697402Y-76869426D01*
X126671594Y-76917709D01*
X126626645Y-77001802D01*
X126531422Y-77117832D01*
X126415392Y-77213055D01*
X126331299Y-77258004D01*
X126283016Y-77283812D01*
X126235136Y-77298336D01*
X126139378Y-77327384D01*
X125990000Y-77342096D01*
X125840623Y-77327384D01*
X125744865Y-77298336D01*
X125696985Y-77283812D01*
X125648702Y-77258004D01*
X125564609Y-77213055D01*
X125448579Y-77117832D01*
X125353355Y-77001802D01*
X125308406Y-76917709D01*
X125282598Y-76869426D01*
X125268074Y-76821546D01*
X125239026Y-76725788D01*
X125228000Y-76613836D01*
X125228000Y-76064005D01*
X125239026Y-75952053D01*
X125282598Y-75808416D01*
X125282598Y-75808415D01*
X125317976Y-75742228D01*
X125353355Y-75676039D01*
X125448578Y-75560008D01*
X125448580Y-75560007D01*
X125448581Y-75560005D01*
X125564606Y-75464787D01*
X125564608Y-75464785D01*
X125648701Y-75419836D01*
X125696984Y-75394028D01*
X125744864Y-75379504D01*
X125840622Y-75350456D01*
X125990000Y-75335744D01*
X126139377Y-75350456D01*
X126139377Y-75350456D01*
G37*
G36*
X128679377Y-75350456D02*
X128775135Y-75379504D01*
X128823015Y-75394028D01*
X128889203Y-75429407D01*
X128955391Y-75464785D01*
X129071422Y-75560008D01*
X129071423Y-75560010D01*
X129071425Y-75560011D01*
X129128556Y-75629626D01*
X129166645Y-75676038D01*
X129211594Y-75760131D01*
X129237402Y-75808414D01*
X129251926Y-75856294D01*
X129280974Y-75952052D01*
X129292000Y-76064004D01*
X129292000Y-76613835D01*
X129280974Y-76725788D01*
X129251926Y-76821546D01*
X129237402Y-76869426D01*
X129211594Y-76917709D01*
X129166645Y-77001802D01*
X129071422Y-77117832D01*
X128955392Y-77213055D01*
X128871299Y-77258004D01*
X128823016Y-77283812D01*
X128775136Y-77298336D01*
X128679378Y-77327384D01*
X128530000Y-77342096D01*
X128380623Y-77327384D01*
X128284865Y-77298336D01*
X128236985Y-77283812D01*
X128188702Y-77258004D01*
X128104609Y-77213055D01*
X127988579Y-77117832D01*
X127893355Y-77001802D01*
X127848406Y-76917709D01*
X127822598Y-76869426D01*
X127808074Y-76821546D01*
X127779026Y-76725788D01*
X127768000Y-76613836D01*
X127768000Y-76064005D01*
X127779026Y-75952053D01*
X127822598Y-75808416D01*
X127822598Y-75808415D01*
X127857976Y-75742228D01*
X127893355Y-75676039D01*
X127988578Y-75560008D01*
X127988580Y-75560007D01*
X127988581Y-75560005D01*
X128104606Y-75464787D01*
X128104608Y-75464785D01*
X128188701Y-75419836D01*
X128236984Y-75394028D01*
X128284864Y-75379504D01*
X128380622Y-75350456D01*
X128530000Y-75335744D01*
X128679377Y-75350456D01*
X128679377Y-75350456D01*
G37*
G36*
X131219377Y-75350456D02*
X131315135Y-75379504D01*
X131363015Y-75394028D01*
X131429203Y-75429407D01*
X131495391Y-75464785D01*
X131611422Y-75560008D01*
X131611423Y-75560010D01*
X131611425Y-75560011D01*
X131668556Y-75629626D01*
X131706645Y-75676038D01*
X131751594Y-75760131D01*
X131777402Y-75808414D01*
X131791926Y-75856294D01*
X131820974Y-75952052D01*
X131832000Y-76064004D01*
X131832000Y-76613835D01*
X131820974Y-76725788D01*
X131791926Y-76821546D01*
X131777402Y-76869426D01*
X131751594Y-76917709D01*
X131706645Y-77001802D01*
X131611422Y-77117832D01*
X131495392Y-77213055D01*
X131411299Y-77258004D01*
X131363016Y-77283812D01*
X131315136Y-77298336D01*
X131219378Y-77327384D01*
X131070000Y-77342096D01*
X130920623Y-77327384D01*
X130824865Y-77298336D01*
X130776985Y-77283812D01*
X130728702Y-77258004D01*
X130644609Y-77213055D01*
X130528579Y-77117832D01*
X130433355Y-77001802D01*
X130388406Y-76917709D01*
X130362598Y-76869426D01*
X130348074Y-76821546D01*
X130319026Y-76725788D01*
X130308000Y-76613836D01*
X130308000Y-76064005D01*
X130319026Y-75952053D01*
X130362598Y-75808416D01*
X130362598Y-75808415D01*
X130397976Y-75742228D01*
X130433355Y-75676039D01*
X130528578Y-75560008D01*
X130528580Y-75560007D01*
X130528581Y-75560005D01*
X130644606Y-75464787D01*
X130644608Y-75464785D01*
X130728701Y-75419836D01*
X130776984Y-75394028D01*
X130824864Y-75379504D01*
X130920622Y-75350456D01*
X131070000Y-75335744D01*
X131219377Y-75350456D01*
X131219377Y-75350456D01*
G37*
G36*
X133759377Y-75350456D02*
X133855135Y-75379504D01*
X133903015Y-75394028D01*
X133969203Y-75429407D01*
X134035391Y-75464785D01*
X134151422Y-75560008D01*
X134151423Y-75560010D01*
X134151425Y-75560011D01*
X134208556Y-75629626D01*
X134246645Y-75676038D01*
X134291594Y-75760131D01*
X134317402Y-75808414D01*
X134331926Y-75856294D01*
X134360974Y-75952052D01*
X134372000Y-76064004D01*
X134372000Y-76613835D01*
X134360974Y-76725788D01*
X134331926Y-76821546D01*
X134317402Y-76869426D01*
X134291594Y-76917709D01*
X134246645Y-77001802D01*
X134151422Y-77117832D01*
X134035392Y-77213055D01*
X133951299Y-77258004D01*
X133903016Y-77283812D01*
X133855136Y-77298336D01*
X133759378Y-77327384D01*
X133610000Y-77342096D01*
X133460623Y-77327384D01*
X133364865Y-77298336D01*
X133316985Y-77283812D01*
X133268702Y-77258004D01*
X133184609Y-77213055D01*
X133068579Y-77117832D01*
X132973355Y-77001802D01*
X132928406Y-76917709D01*
X132902598Y-76869426D01*
X132888074Y-76821546D01*
X132859026Y-76725788D01*
X132848000Y-76613836D01*
X132848000Y-76064005D01*
X132859026Y-75952053D01*
X132902598Y-75808416D01*
X132902598Y-75808415D01*
X132937976Y-75742228D01*
X132973355Y-75676039D01*
X133068578Y-75560008D01*
X133068580Y-75560007D01*
X133068581Y-75560005D01*
X133184606Y-75464787D01*
X133184608Y-75464785D01*
X133268701Y-75419836D01*
X133316984Y-75394028D01*
X133364864Y-75379504D01*
X133460622Y-75350456D01*
X133610000Y-75335744D01*
X133759377Y-75350456D01*
X133759377Y-75350456D01*
G37*
G36*
X136299377Y-75350456D02*
X136395135Y-75379504D01*
X136443015Y-75394028D01*
X136509203Y-75429407D01*
X136575391Y-75464785D01*
X136691422Y-75560008D01*
X136691423Y-75560010D01*
X136691425Y-75560011D01*
X136748556Y-75629626D01*
X136786645Y-75676038D01*
X136831594Y-75760131D01*
X136857402Y-75808414D01*
X136871926Y-75856294D01*
X136900974Y-75952052D01*
X136912000Y-76064004D01*
X136912000Y-76613835D01*
X136900974Y-76725788D01*
X136871926Y-76821546D01*
X136857402Y-76869426D01*
X136831594Y-76917709D01*
X136786645Y-77001802D01*
X136691422Y-77117832D01*
X136575392Y-77213055D01*
X136491299Y-77258004D01*
X136443016Y-77283812D01*
X136395136Y-77298336D01*
X136299378Y-77327384D01*
X136150000Y-77342096D01*
X136000623Y-77327384D01*
X135904865Y-77298336D01*
X135856985Y-77283812D01*
X135808702Y-77258004D01*
X135724609Y-77213055D01*
X135608579Y-77117832D01*
X135513355Y-77001802D01*
X135468406Y-76917709D01*
X135442598Y-76869426D01*
X135428074Y-76821546D01*
X135399026Y-76725788D01*
X135388000Y-76613836D01*
X135388000Y-76064005D01*
X135399026Y-75952053D01*
X135442598Y-75808416D01*
X135442598Y-75808415D01*
X135477976Y-75742228D01*
X135513355Y-75676039D01*
X135608578Y-75560008D01*
X135608580Y-75560007D01*
X135608581Y-75560005D01*
X135724606Y-75464787D01*
X135724608Y-75464785D01*
X135808701Y-75419836D01*
X135856984Y-75394028D01*
X135904864Y-75379504D01*
X136000622Y-75350456D01*
X136150000Y-75335744D01*
X136299377Y-75350456D01*
X136299377Y-75350456D01*
G37*
G36*
X138839377Y-75350456D02*
X138935135Y-75379504D01*
X138983015Y-75394028D01*
X139049203Y-75429407D01*
X139115391Y-75464785D01*
X139231422Y-75560008D01*
X139231423Y-75560010D01*
X139231425Y-75560011D01*
X139288556Y-75629626D01*
X139326645Y-75676038D01*
X139371594Y-75760131D01*
X139397402Y-75808414D01*
X139411926Y-75856294D01*
X139440974Y-75952052D01*
X139452000Y-76064004D01*
X139452000Y-76613835D01*
X139440974Y-76725788D01*
X139411926Y-76821546D01*
X139397402Y-76869426D01*
X139371594Y-76917709D01*
X139326645Y-77001802D01*
X139231422Y-77117832D01*
X139115392Y-77213055D01*
X139031299Y-77258004D01*
X138983016Y-77283812D01*
X138935136Y-77298336D01*
X138839378Y-77327384D01*
X138690000Y-77342096D01*
X138540623Y-77327384D01*
X138444865Y-77298336D01*
X138396985Y-77283812D01*
X138348702Y-77258004D01*
X138264609Y-77213055D01*
X138148579Y-77117832D01*
X138053355Y-77001802D01*
X138008406Y-76917709D01*
X137982598Y-76869426D01*
X137968074Y-76821546D01*
X137939026Y-76725788D01*
X137928000Y-76613836D01*
X137928000Y-76064005D01*
X137939026Y-75952053D01*
X137982598Y-75808416D01*
X137982598Y-75808415D01*
X138017976Y-75742228D01*
X138053355Y-75676039D01*
X138148578Y-75560008D01*
X138148580Y-75560007D01*
X138148581Y-75560005D01*
X138264606Y-75464787D01*
X138264608Y-75464785D01*
X138348701Y-75419836D01*
X138396984Y-75394028D01*
X138444864Y-75379504D01*
X138540622Y-75350456D01*
X138690000Y-75335744D01*
X138839377Y-75350456D01*
X138839377Y-75350456D01*
G37*
G36*
X143919377Y-75350456D02*
X144015135Y-75379504D01*
X144063015Y-75394028D01*
X144129203Y-75429407D01*
X144195391Y-75464785D01*
X144311422Y-75560008D01*
X144311423Y-75560010D01*
X144311425Y-75560011D01*
X144368556Y-75629626D01*
X144406645Y-75676038D01*
X144451594Y-75760131D01*
X144477402Y-75808414D01*
X144491926Y-75856294D01*
X144520974Y-75952052D01*
X144532000Y-76064004D01*
X144532000Y-76613835D01*
X144520974Y-76725788D01*
X144491926Y-76821546D01*
X144477402Y-76869426D01*
X144451594Y-76917709D01*
X144406645Y-77001802D01*
X144311422Y-77117832D01*
X144195392Y-77213055D01*
X144111299Y-77258004D01*
X144063016Y-77283812D01*
X144015136Y-77298336D01*
X143919378Y-77327384D01*
X143770000Y-77342096D01*
X143620623Y-77327384D01*
X143524865Y-77298336D01*
X143476985Y-77283812D01*
X143428702Y-77258004D01*
X143344609Y-77213055D01*
X143228579Y-77117832D01*
X143133355Y-77001802D01*
X143088406Y-76917709D01*
X143062598Y-76869426D01*
X143048074Y-76821546D01*
X143019026Y-76725788D01*
X143008000Y-76613836D01*
X143008000Y-76064005D01*
X143019026Y-75952053D01*
X143062598Y-75808416D01*
X143062598Y-75808415D01*
X143097976Y-75742228D01*
X143133355Y-75676039D01*
X143228578Y-75560008D01*
X143228580Y-75560007D01*
X143228581Y-75560005D01*
X143344606Y-75464787D01*
X143344608Y-75464785D01*
X143428701Y-75419836D01*
X143476984Y-75394028D01*
X143524864Y-75379504D01*
X143620622Y-75350456D01*
X143770000Y-75335744D01*
X143919377Y-75350456D01*
X143919377Y-75350456D01*
G37*
G36*
X146459377Y-75350456D02*
X146555135Y-75379504D01*
X146603015Y-75394028D01*
X146669203Y-75429407D01*
X146735391Y-75464785D01*
X146851422Y-75560008D01*
X146851423Y-75560010D01*
X146851425Y-75560011D01*
X146908556Y-75629626D01*
X146946645Y-75676038D01*
X146991594Y-75760131D01*
X147017402Y-75808414D01*
X147031926Y-75856294D01*
X147060974Y-75952052D01*
X147072000Y-76064004D01*
X147072000Y-76613835D01*
X147060974Y-76725788D01*
X147031926Y-76821546D01*
X147017402Y-76869426D01*
X146991594Y-76917709D01*
X146946645Y-77001802D01*
X146851422Y-77117832D01*
X146735392Y-77213055D01*
X146651299Y-77258004D01*
X146603016Y-77283812D01*
X146555136Y-77298336D01*
X146459378Y-77327384D01*
X146310000Y-77342096D01*
X146160623Y-77327384D01*
X146064865Y-77298336D01*
X146016985Y-77283812D01*
X145968702Y-77258004D01*
X145884609Y-77213055D01*
X145768579Y-77117832D01*
X145673355Y-77001802D01*
X145628406Y-76917709D01*
X145602598Y-76869426D01*
X145588074Y-76821546D01*
X145559026Y-76725788D01*
X145548000Y-76613836D01*
X145548000Y-76064005D01*
X145559026Y-75952053D01*
X145602598Y-75808416D01*
X145602598Y-75808415D01*
X145637976Y-75742228D01*
X145673355Y-75676039D01*
X145768578Y-75560008D01*
X145768580Y-75560007D01*
X145768581Y-75560005D01*
X145884606Y-75464787D01*
X145884608Y-75464785D01*
X145968701Y-75419836D01*
X146016984Y-75394028D01*
X146064864Y-75379504D01*
X146160622Y-75350456D01*
X146310000Y-75335744D01*
X146459377Y-75350456D01*
X146459377Y-75350456D01*
G37*
G36*
X148999377Y-75350456D02*
X149095135Y-75379504D01*
X149143015Y-75394028D01*
X149209203Y-75429407D01*
X149275391Y-75464785D01*
X149391422Y-75560008D01*
X149391423Y-75560010D01*
X149391425Y-75560011D01*
X149448556Y-75629626D01*
X149486645Y-75676038D01*
X149531594Y-75760131D01*
X149557402Y-75808414D01*
X149571926Y-75856294D01*
X149600974Y-75952052D01*
X149612000Y-76064004D01*
X149612000Y-76613835D01*
X149600974Y-76725788D01*
X149571926Y-76821546D01*
X149557402Y-76869426D01*
X149531594Y-76917709D01*
X149486645Y-77001802D01*
X149391422Y-77117832D01*
X149275392Y-77213055D01*
X149191299Y-77258004D01*
X149143016Y-77283812D01*
X149095136Y-77298336D01*
X148999378Y-77327384D01*
X148850000Y-77342096D01*
X148700623Y-77327384D01*
X148604865Y-77298336D01*
X148556985Y-77283812D01*
X148508702Y-77258004D01*
X148424609Y-77213055D01*
X148308579Y-77117832D01*
X148213355Y-77001802D01*
X148168406Y-76917709D01*
X148142598Y-76869426D01*
X148128074Y-76821546D01*
X148099026Y-76725788D01*
X148088000Y-76613836D01*
X148088000Y-76064005D01*
X148099026Y-75952053D01*
X148142598Y-75808416D01*
X148142598Y-75808415D01*
X148177976Y-75742228D01*
X148213355Y-75676039D01*
X148308578Y-75560008D01*
X148308580Y-75560007D01*
X148308581Y-75560005D01*
X148424606Y-75464787D01*
X148424608Y-75464785D01*
X148508701Y-75419836D01*
X148556984Y-75394028D01*
X148604864Y-75379504D01*
X148700622Y-75350456D01*
X148850000Y-75335744D01*
X148999377Y-75350456D01*
X148999377Y-75350456D01*
G37*
G36*
X151539377Y-75350456D02*
X151635135Y-75379504D01*
X151683015Y-75394028D01*
X151749203Y-75429407D01*
X151815391Y-75464785D01*
X151931422Y-75560008D01*
X151931423Y-75560010D01*
X151931425Y-75560011D01*
X151988556Y-75629626D01*
X152026645Y-75676038D01*
X152071594Y-75760131D01*
X152097402Y-75808414D01*
X152111926Y-75856294D01*
X152140974Y-75952052D01*
X152152000Y-76064004D01*
X152152000Y-76613835D01*
X152140974Y-76725788D01*
X152111926Y-76821546D01*
X152097402Y-76869426D01*
X152071594Y-76917709D01*
X152026645Y-77001802D01*
X151931422Y-77117832D01*
X151815392Y-77213055D01*
X151731299Y-77258004D01*
X151683016Y-77283812D01*
X151635136Y-77298336D01*
X151539378Y-77327384D01*
X151390000Y-77342096D01*
X151240623Y-77327384D01*
X151144865Y-77298336D01*
X151096985Y-77283812D01*
X151048702Y-77258004D01*
X150964609Y-77213055D01*
X150848579Y-77117832D01*
X150753355Y-77001802D01*
X150708406Y-76917709D01*
X150682598Y-76869426D01*
X150668074Y-76821546D01*
X150639026Y-76725788D01*
X150628000Y-76613836D01*
X150628000Y-76064005D01*
X150639026Y-75952053D01*
X150682598Y-75808416D01*
X150682598Y-75808415D01*
X150717976Y-75742228D01*
X150753355Y-75676039D01*
X150848578Y-75560008D01*
X150848580Y-75560007D01*
X150848581Y-75560005D01*
X150964606Y-75464787D01*
X150964608Y-75464785D01*
X151048701Y-75419836D01*
X151096984Y-75394028D01*
X151144864Y-75379504D01*
X151240622Y-75350456D01*
X151390000Y-75335744D01*
X151539377Y-75350456D01*
X151539377Y-75350456D01*
G37*
G36*
X154079377Y-75350456D02*
X154175135Y-75379504D01*
X154223015Y-75394028D01*
X154289203Y-75429407D01*
X154355391Y-75464785D01*
X154471422Y-75560008D01*
X154471423Y-75560010D01*
X154471425Y-75560011D01*
X154528556Y-75629626D01*
X154566645Y-75676038D01*
X154611594Y-75760131D01*
X154637402Y-75808414D01*
X154651926Y-75856294D01*
X154680974Y-75952052D01*
X154692000Y-76064004D01*
X154692000Y-76613835D01*
X154680974Y-76725788D01*
X154651926Y-76821546D01*
X154637402Y-76869426D01*
X154611594Y-76917709D01*
X154566645Y-77001802D01*
X154471422Y-77117832D01*
X154355392Y-77213055D01*
X154271299Y-77258004D01*
X154223016Y-77283812D01*
X154175136Y-77298336D01*
X154079378Y-77327384D01*
X153930000Y-77342096D01*
X153780623Y-77327384D01*
X153684865Y-77298336D01*
X153636985Y-77283812D01*
X153588702Y-77258004D01*
X153504609Y-77213055D01*
X153388579Y-77117832D01*
X153293355Y-77001802D01*
X153248406Y-76917709D01*
X153222598Y-76869426D01*
X153208074Y-76821546D01*
X153179026Y-76725788D01*
X153168000Y-76613836D01*
X153168000Y-76064005D01*
X153179026Y-75952053D01*
X153222598Y-75808416D01*
X153222598Y-75808415D01*
X153257976Y-75742228D01*
X153293355Y-75676039D01*
X153388578Y-75560008D01*
X153388580Y-75560007D01*
X153388581Y-75560005D01*
X153504606Y-75464787D01*
X153504608Y-75464785D01*
X153588701Y-75419836D01*
X153636984Y-75394028D01*
X153684864Y-75379504D01*
X153780622Y-75350456D01*
X153930000Y-75335744D01*
X154079377Y-75350456D01*
X154079377Y-75350456D01*
G37*
G36*
X156619377Y-75350456D02*
X156715135Y-75379504D01*
X156763015Y-75394028D01*
X156829203Y-75429407D01*
X156895391Y-75464785D01*
X157011422Y-75560008D01*
X157011423Y-75560010D01*
X157011425Y-75560011D01*
X157068556Y-75629626D01*
X157106645Y-75676038D01*
X157151594Y-75760131D01*
X157177402Y-75808414D01*
X157191926Y-75856294D01*
X157220974Y-75952052D01*
X157232000Y-76064004D01*
X157232000Y-76613835D01*
X157220974Y-76725788D01*
X157191926Y-76821546D01*
X157177402Y-76869426D01*
X157151594Y-76917709D01*
X157106645Y-77001802D01*
X157011422Y-77117832D01*
X156895392Y-77213055D01*
X156811299Y-77258004D01*
X156763016Y-77283812D01*
X156715136Y-77298336D01*
X156619378Y-77327384D01*
X156470000Y-77342096D01*
X156320623Y-77327384D01*
X156224865Y-77298336D01*
X156176985Y-77283812D01*
X156128702Y-77258004D01*
X156044609Y-77213055D01*
X155928579Y-77117832D01*
X155833355Y-77001802D01*
X155788406Y-76917709D01*
X155762598Y-76869426D01*
X155748074Y-76821546D01*
X155719026Y-76725788D01*
X155708000Y-76613836D01*
X155708000Y-76064005D01*
X155719026Y-75952053D01*
X155762598Y-75808416D01*
X155762598Y-75808415D01*
X155797976Y-75742228D01*
X155833355Y-75676039D01*
X155928578Y-75560008D01*
X155928580Y-75560007D01*
X155928581Y-75560005D01*
X156044606Y-75464787D01*
X156044608Y-75464785D01*
X156128701Y-75419836D01*
X156176984Y-75394028D01*
X156224864Y-75379504D01*
X156320622Y-75350456D01*
X156470000Y-75335744D01*
X156619377Y-75350456D01*
X156619377Y-75350456D01*
G37*
G36*
X159159377Y-75350456D02*
X159255135Y-75379504D01*
X159303015Y-75394028D01*
X159369203Y-75429407D01*
X159435391Y-75464785D01*
X159551422Y-75560008D01*
X159551423Y-75560010D01*
X159551425Y-75560011D01*
X159608556Y-75629626D01*
X159646645Y-75676038D01*
X159691594Y-75760131D01*
X159717402Y-75808414D01*
X159731926Y-75856294D01*
X159760974Y-75952052D01*
X159772000Y-76064004D01*
X159772000Y-76613835D01*
X159760974Y-76725788D01*
X159731926Y-76821546D01*
X159717402Y-76869426D01*
X159691594Y-76917709D01*
X159646645Y-77001802D01*
X159551422Y-77117832D01*
X159435392Y-77213055D01*
X159351299Y-77258004D01*
X159303016Y-77283812D01*
X159255136Y-77298336D01*
X159159378Y-77327384D01*
X159010000Y-77342096D01*
X158860623Y-77327384D01*
X158764865Y-77298336D01*
X158716985Y-77283812D01*
X158668702Y-77258004D01*
X158584609Y-77213055D01*
X158468579Y-77117832D01*
X158373355Y-77001802D01*
X158328406Y-76917709D01*
X158302598Y-76869426D01*
X158288074Y-76821546D01*
X158259026Y-76725788D01*
X158248000Y-76613836D01*
X158248000Y-76064005D01*
X158259026Y-75952053D01*
X158302598Y-75808416D01*
X158302598Y-75808415D01*
X158337976Y-75742228D01*
X158373355Y-75676039D01*
X158468578Y-75560008D01*
X158468580Y-75560007D01*
X158468581Y-75560005D01*
X158584606Y-75464787D01*
X158584608Y-75464785D01*
X158668701Y-75419836D01*
X158716984Y-75394028D01*
X158764864Y-75379504D01*
X158860622Y-75350456D01*
X159010000Y-75335744D01*
X159159377Y-75350456D01*
X159159377Y-75350456D01*
G37*
G36*
X115979377Y-75350456D02*
X116075135Y-75379504D01*
X116123015Y-75394028D01*
X116189203Y-75429407D01*
X116255391Y-75464785D01*
X116371422Y-75560008D01*
X116371423Y-75560010D01*
X116371425Y-75560011D01*
X116428556Y-75629626D01*
X116466645Y-75676038D01*
X116511594Y-75760131D01*
X116537402Y-75808414D01*
X116551926Y-75856294D01*
X116580974Y-75952052D01*
X116592000Y-76064004D01*
X116592000Y-76613835D01*
X116580974Y-76725788D01*
X116551926Y-76821546D01*
X116537402Y-76869426D01*
X116511594Y-76917709D01*
X116466645Y-77001802D01*
X116371422Y-77117832D01*
X116255392Y-77213055D01*
X116171299Y-77258004D01*
X116123016Y-77283812D01*
X116075136Y-77298336D01*
X115979378Y-77327384D01*
X115830000Y-77342096D01*
X115680623Y-77327384D01*
X115584865Y-77298336D01*
X115536985Y-77283812D01*
X115488702Y-77258004D01*
X115404609Y-77213055D01*
X115288579Y-77117832D01*
X115193355Y-77001802D01*
X115148406Y-76917709D01*
X115122598Y-76869426D01*
X115108074Y-76821546D01*
X115079026Y-76725788D01*
X115068000Y-76613836D01*
X115068000Y-76064005D01*
X115079026Y-75952053D01*
X115122598Y-75808416D01*
X115122598Y-75808415D01*
X115157976Y-75742228D01*
X115193355Y-75676039D01*
X115288578Y-75560008D01*
X115288580Y-75560007D01*
X115288581Y-75560005D01*
X115404606Y-75464787D01*
X115404608Y-75464785D01*
X115488701Y-75419836D01*
X115536984Y-75394028D01*
X115584864Y-75379504D01*
X115680622Y-75350456D01*
X115830000Y-75335744D01*
X115979377Y-75350456D01*
X115979377Y-75350456D01*
G37*
G36*
X161699377Y-75350456D02*
X161795135Y-75379504D01*
X161843015Y-75394028D01*
X161909203Y-75429407D01*
X161975391Y-75464785D01*
X162091422Y-75560008D01*
X162091423Y-75560010D01*
X162091425Y-75560011D01*
X162148556Y-75629626D01*
X162186645Y-75676038D01*
X162231594Y-75760131D01*
X162257402Y-75808414D01*
X162271926Y-75856294D01*
X162300974Y-75952052D01*
X162312000Y-76064004D01*
X162312000Y-76613835D01*
X162300974Y-76725788D01*
X162271926Y-76821546D01*
X162257402Y-76869426D01*
X162231594Y-76917709D01*
X162186645Y-77001802D01*
X162091422Y-77117832D01*
X161975392Y-77213055D01*
X161891299Y-77258004D01*
X161843016Y-77283812D01*
X161795136Y-77298336D01*
X161699378Y-77327384D01*
X161550000Y-77342096D01*
X161400623Y-77327384D01*
X161304865Y-77298336D01*
X161256985Y-77283812D01*
X161208702Y-77258004D01*
X161124609Y-77213055D01*
X161008579Y-77117832D01*
X160913355Y-77001802D01*
X160868406Y-76917709D01*
X160842598Y-76869426D01*
X160828074Y-76821546D01*
X160799026Y-76725788D01*
X160788000Y-76613836D01*
X160788000Y-76064005D01*
X160799026Y-75952053D01*
X160842598Y-75808416D01*
X160842598Y-75808415D01*
X160877976Y-75742228D01*
X160913355Y-75676039D01*
X161008578Y-75560008D01*
X161008580Y-75560007D01*
X161008581Y-75560005D01*
X161124606Y-75464787D01*
X161124608Y-75464785D01*
X161208701Y-75419836D01*
X161256984Y-75394028D01*
X161304864Y-75379504D01*
X161400622Y-75350456D01*
X161550000Y-75335744D01*
X161699377Y-75350456D01*
X161699377Y-75350456D01*
G37*
G36*
X141379377Y-75350456D02*
X141475135Y-75379504D01*
X141523015Y-75394028D01*
X141589203Y-75429407D01*
X141655391Y-75464785D01*
X141771422Y-75560008D01*
X141771423Y-75560010D01*
X141771425Y-75560011D01*
X141828556Y-75629626D01*
X141866645Y-75676038D01*
X141911594Y-75760131D01*
X141937402Y-75808414D01*
X141951926Y-75856294D01*
X141980974Y-75952052D01*
X141992000Y-76064004D01*
X141992000Y-76613835D01*
X141980974Y-76725788D01*
X141951926Y-76821546D01*
X141937402Y-76869426D01*
X141911594Y-76917709D01*
X141866645Y-77001802D01*
X141771422Y-77117832D01*
X141655392Y-77213055D01*
X141571299Y-77258004D01*
X141523016Y-77283812D01*
X141475136Y-77298336D01*
X141379378Y-77327384D01*
X141230000Y-77342096D01*
X141080623Y-77327384D01*
X140984865Y-77298336D01*
X140936985Y-77283812D01*
X140888702Y-77258004D01*
X140804609Y-77213055D01*
X140688579Y-77117832D01*
X140593355Y-77001802D01*
X140548406Y-76917709D01*
X140522598Y-76869426D01*
X140508074Y-76821546D01*
X140479026Y-76725788D01*
X140468000Y-76613836D01*
X140468000Y-76064005D01*
X140479026Y-75952053D01*
X140522598Y-75808416D01*
X140522598Y-75808415D01*
X140557976Y-75742228D01*
X140593355Y-75676039D01*
X140688578Y-75560008D01*
X140688580Y-75560007D01*
X140688581Y-75560005D01*
X140804606Y-75464787D01*
X140804608Y-75464785D01*
X140888701Y-75419836D01*
X140936984Y-75394028D01*
X140984864Y-75379504D01*
X141080622Y-75350456D01*
X141230000Y-75335744D01*
X141379377Y-75350456D01*
X141379377Y-75350456D01*
G37*
G36*
X114052000Y-77338410D02*
X112528000Y-77338410D01*
X112528000Y-75339430D01*
X114052000Y-75339430D01*
X114052000Y-77338410D01*
X114052000Y-77338410D01*
G37*
G36*
X173850000Y-76515000D02*
X172150000Y-76515000D01*
X172150000Y-74815000D01*
X173850000Y-74815000D01*
X173850000Y-76515000D01*
X173850000Y-76515000D01*
G37*
G36*
X128679377Y-72312616D02*
X128775135Y-72341664D01*
X128823015Y-72356188D01*
X128889202Y-72391566D01*
X128955391Y-72426945D01*
X129071422Y-72522168D01*
X129071423Y-72522170D01*
X129071425Y-72522171D01*
X129128556Y-72591786D01*
X129166645Y-72638198D01*
X129211594Y-72722291D01*
X129237402Y-72770574D01*
X129251926Y-72818454D01*
X129280974Y-72914212D01*
X129292000Y-73026164D01*
X129292000Y-73575995D01*
X129280974Y-73687948D01*
X129251926Y-73783706D01*
X129237402Y-73831586D01*
X129211594Y-73879869D01*
X129166645Y-73963962D01*
X129071422Y-74079992D01*
X128955392Y-74175215D01*
X128871299Y-74220164D01*
X128823016Y-74245972D01*
X128775136Y-74260496D01*
X128679378Y-74289544D01*
X128530000Y-74304256D01*
X128380623Y-74289544D01*
X128284865Y-74260496D01*
X128236985Y-74245972D01*
X128188702Y-74220164D01*
X128104609Y-74175215D01*
X127988579Y-74079992D01*
X127893355Y-73963962D01*
X127848406Y-73879869D01*
X127822598Y-73831586D01*
X127808074Y-73783706D01*
X127779026Y-73687948D01*
X127768000Y-73575996D01*
X127768000Y-73026165D01*
X127779026Y-72914213D01*
X127822598Y-72770576D01*
X127822598Y-72770575D01*
X127857977Y-72704387D01*
X127893355Y-72638199D01*
X127988578Y-72522168D01*
X127988580Y-72522167D01*
X127988581Y-72522165D01*
X128104606Y-72426947D01*
X128104608Y-72426945D01*
X128188701Y-72381996D01*
X128236984Y-72356188D01*
X128284864Y-72341664D01*
X128380622Y-72312616D01*
X128530000Y-72297904D01*
X128679377Y-72312616D01*
X128679377Y-72312616D01*
G37*
G36*
X126139377Y-72312616D02*
X126235135Y-72341664D01*
X126283015Y-72356188D01*
X126349202Y-72391566D01*
X126415391Y-72426945D01*
X126531422Y-72522168D01*
X126531423Y-72522170D01*
X126531425Y-72522171D01*
X126588556Y-72591786D01*
X126626645Y-72638198D01*
X126671594Y-72722291D01*
X126697402Y-72770574D01*
X126711926Y-72818454D01*
X126740974Y-72914212D01*
X126752000Y-73026164D01*
X126752000Y-73575995D01*
X126740974Y-73687948D01*
X126711926Y-73783706D01*
X126697402Y-73831586D01*
X126671594Y-73879869D01*
X126626645Y-73963962D01*
X126531422Y-74079992D01*
X126415392Y-74175215D01*
X126331299Y-74220164D01*
X126283016Y-74245972D01*
X126235136Y-74260496D01*
X126139378Y-74289544D01*
X125990000Y-74304256D01*
X125840623Y-74289544D01*
X125744865Y-74260496D01*
X125696985Y-74245972D01*
X125648702Y-74220164D01*
X125564609Y-74175215D01*
X125448579Y-74079992D01*
X125353355Y-73963962D01*
X125308406Y-73879869D01*
X125282598Y-73831586D01*
X125268074Y-73783706D01*
X125239026Y-73687948D01*
X125228000Y-73575996D01*
X125228000Y-73026165D01*
X125239026Y-72914213D01*
X125282598Y-72770576D01*
X125282598Y-72770575D01*
X125317977Y-72704387D01*
X125353355Y-72638199D01*
X125448578Y-72522168D01*
X125448580Y-72522167D01*
X125448581Y-72522165D01*
X125564606Y-72426947D01*
X125564608Y-72426945D01*
X125648701Y-72381996D01*
X125696984Y-72356188D01*
X125744864Y-72341664D01*
X125840622Y-72312616D01*
X125990000Y-72297904D01*
X126139377Y-72312616D01*
X126139377Y-72312616D01*
G37*
G36*
X123599377Y-72312616D02*
X123695135Y-72341664D01*
X123743015Y-72356188D01*
X123809202Y-72391566D01*
X123875391Y-72426945D01*
X123991422Y-72522168D01*
X123991423Y-72522170D01*
X123991425Y-72522171D01*
X124048556Y-72591786D01*
X124086645Y-72638198D01*
X124131594Y-72722291D01*
X124157402Y-72770574D01*
X124171926Y-72818454D01*
X124200974Y-72914212D01*
X124212000Y-73026164D01*
X124212000Y-73575995D01*
X124200974Y-73687948D01*
X124171926Y-73783706D01*
X124157402Y-73831586D01*
X124131594Y-73879869D01*
X124086645Y-73963962D01*
X123991422Y-74079992D01*
X123875392Y-74175215D01*
X123791299Y-74220164D01*
X123743016Y-74245972D01*
X123695136Y-74260496D01*
X123599378Y-74289544D01*
X123450000Y-74304256D01*
X123300623Y-74289544D01*
X123204865Y-74260496D01*
X123156985Y-74245972D01*
X123108702Y-74220164D01*
X123024609Y-74175215D01*
X122908579Y-74079992D01*
X122813355Y-73963962D01*
X122768406Y-73879869D01*
X122742598Y-73831586D01*
X122728074Y-73783706D01*
X122699026Y-73687948D01*
X122688000Y-73575996D01*
X122688000Y-73026165D01*
X122699026Y-72914213D01*
X122742598Y-72770576D01*
X122742598Y-72770575D01*
X122777977Y-72704387D01*
X122813355Y-72638199D01*
X122908578Y-72522168D01*
X122908580Y-72522167D01*
X122908581Y-72522165D01*
X123024606Y-72426947D01*
X123024608Y-72426945D01*
X123108701Y-72381996D01*
X123156984Y-72356188D01*
X123204864Y-72341664D01*
X123300622Y-72312616D01*
X123450000Y-72297904D01*
X123599377Y-72312616D01*
X123599377Y-72312616D01*
G37*
G36*
X121059377Y-72312616D02*
X121155135Y-72341664D01*
X121203015Y-72356188D01*
X121269202Y-72391566D01*
X121335391Y-72426945D01*
X121451422Y-72522168D01*
X121451423Y-72522170D01*
X121451425Y-72522171D01*
X121508556Y-72591786D01*
X121546645Y-72638198D01*
X121591594Y-72722291D01*
X121617402Y-72770574D01*
X121631926Y-72818454D01*
X121660974Y-72914212D01*
X121672000Y-73026164D01*
X121672000Y-73575995D01*
X121660974Y-73687948D01*
X121631926Y-73783706D01*
X121617402Y-73831586D01*
X121591594Y-73879869D01*
X121546645Y-73963962D01*
X121451422Y-74079992D01*
X121335392Y-74175215D01*
X121251299Y-74220164D01*
X121203016Y-74245972D01*
X121155136Y-74260496D01*
X121059378Y-74289544D01*
X120910000Y-74304256D01*
X120760623Y-74289544D01*
X120664865Y-74260496D01*
X120616985Y-74245972D01*
X120568702Y-74220164D01*
X120484609Y-74175215D01*
X120368579Y-74079992D01*
X120273355Y-73963962D01*
X120228406Y-73879869D01*
X120202598Y-73831586D01*
X120188074Y-73783706D01*
X120159026Y-73687948D01*
X120148000Y-73575996D01*
X120148000Y-73026165D01*
X120159026Y-72914213D01*
X120202598Y-72770576D01*
X120202598Y-72770575D01*
X120237977Y-72704387D01*
X120273355Y-72638199D01*
X120368578Y-72522168D01*
X120368580Y-72522167D01*
X120368581Y-72522165D01*
X120484606Y-72426947D01*
X120484608Y-72426945D01*
X120568701Y-72381996D01*
X120616984Y-72356188D01*
X120664864Y-72341664D01*
X120760622Y-72312616D01*
X120910000Y-72297904D01*
X121059377Y-72312616D01*
X121059377Y-72312616D01*
G37*
G36*
X118519377Y-72312616D02*
X118615135Y-72341664D01*
X118663015Y-72356188D01*
X118729202Y-72391566D01*
X118795391Y-72426945D01*
X118911422Y-72522168D01*
X118911423Y-72522170D01*
X118911425Y-72522171D01*
X118968556Y-72591786D01*
X119006645Y-72638198D01*
X119051594Y-72722291D01*
X119077402Y-72770574D01*
X119091926Y-72818454D01*
X119120974Y-72914212D01*
X119132000Y-73026164D01*
X119132000Y-73575995D01*
X119120974Y-73687948D01*
X119091926Y-73783706D01*
X119077402Y-73831586D01*
X119051594Y-73879869D01*
X119006645Y-73963962D01*
X118911422Y-74079992D01*
X118795392Y-74175215D01*
X118711299Y-74220164D01*
X118663016Y-74245972D01*
X118615136Y-74260496D01*
X118519378Y-74289544D01*
X118370000Y-74304256D01*
X118220623Y-74289544D01*
X118124865Y-74260496D01*
X118076985Y-74245972D01*
X118028702Y-74220164D01*
X117944609Y-74175215D01*
X117828579Y-74079992D01*
X117733355Y-73963962D01*
X117688406Y-73879869D01*
X117662598Y-73831586D01*
X117648074Y-73783706D01*
X117619026Y-73687948D01*
X117608000Y-73575996D01*
X117608000Y-73026165D01*
X117619026Y-72914213D01*
X117662598Y-72770576D01*
X117662598Y-72770575D01*
X117697977Y-72704387D01*
X117733355Y-72638199D01*
X117828578Y-72522168D01*
X117828580Y-72522167D01*
X117828581Y-72522165D01*
X117944606Y-72426947D01*
X117944608Y-72426945D01*
X118028701Y-72381996D01*
X118076984Y-72356188D01*
X118124864Y-72341664D01*
X118220622Y-72312616D01*
X118370000Y-72297904D01*
X118519377Y-72312616D01*
X118519377Y-72312616D01*
G37*
G36*
X115979377Y-72312616D02*
X116075135Y-72341664D01*
X116123015Y-72356188D01*
X116189202Y-72391566D01*
X116255391Y-72426945D01*
X116371422Y-72522168D01*
X116371423Y-72522170D01*
X116371425Y-72522171D01*
X116428556Y-72591786D01*
X116466645Y-72638198D01*
X116511594Y-72722291D01*
X116537402Y-72770574D01*
X116551926Y-72818454D01*
X116580974Y-72914212D01*
X116592000Y-73026164D01*
X116592000Y-73575995D01*
X116580974Y-73687948D01*
X116551926Y-73783706D01*
X116537402Y-73831586D01*
X116511594Y-73879869D01*
X116466645Y-73963962D01*
X116371422Y-74079992D01*
X116255392Y-74175215D01*
X116171299Y-74220164D01*
X116123016Y-74245972D01*
X116075136Y-74260496D01*
X115979378Y-74289544D01*
X115830000Y-74304256D01*
X115680623Y-74289544D01*
X115584865Y-74260496D01*
X115536985Y-74245972D01*
X115488702Y-74220164D01*
X115404609Y-74175215D01*
X115288579Y-74079992D01*
X115193355Y-73963962D01*
X115148406Y-73879869D01*
X115122598Y-73831586D01*
X115108074Y-73783706D01*
X115079026Y-73687948D01*
X115068000Y-73575996D01*
X115068000Y-73026165D01*
X115079026Y-72914213D01*
X115122598Y-72770576D01*
X115122598Y-72770575D01*
X115157977Y-72704387D01*
X115193355Y-72638199D01*
X115288578Y-72522168D01*
X115288580Y-72522167D01*
X115288581Y-72522165D01*
X115404606Y-72426947D01*
X115404608Y-72426945D01*
X115488701Y-72381996D01*
X115536984Y-72356188D01*
X115584864Y-72341664D01*
X115680622Y-72312616D01*
X115830000Y-72297904D01*
X115979377Y-72312616D01*
X115979377Y-72312616D01*
G37*
G36*
X113439377Y-72312616D02*
X113535135Y-72341664D01*
X113583015Y-72356188D01*
X113649202Y-72391566D01*
X113715391Y-72426945D01*
X113831422Y-72522168D01*
X113831423Y-72522170D01*
X113831425Y-72522171D01*
X113888556Y-72591786D01*
X113926645Y-72638198D01*
X113971594Y-72722291D01*
X113997402Y-72770574D01*
X114011926Y-72818454D01*
X114040974Y-72914212D01*
X114052000Y-73026164D01*
X114052000Y-73575995D01*
X114040974Y-73687948D01*
X114011926Y-73783706D01*
X113997402Y-73831586D01*
X113971594Y-73879869D01*
X113926645Y-73963962D01*
X113831422Y-74079992D01*
X113715392Y-74175215D01*
X113631299Y-74220164D01*
X113583016Y-74245972D01*
X113535136Y-74260496D01*
X113439378Y-74289544D01*
X113290000Y-74304256D01*
X113140623Y-74289544D01*
X113044865Y-74260496D01*
X112996985Y-74245972D01*
X112948702Y-74220164D01*
X112864609Y-74175215D01*
X112748579Y-74079992D01*
X112653355Y-73963962D01*
X112608406Y-73879869D01*
X112582598Y-73831586D01*
X112568074Y-73783706D01*
X112539026Y-73687948D01*
X112528000Y-73575996D01*
X112528000Y-73026165D01*
X112539026Y-72914213D01*
X112582598Y-72770576D01*
X112582598Y-72770575D01*
X112617977Y-72704387D01*
X112653355Y-72638199D01*
X112748578Y-72522168D01*
X112748580Y-72522167D01*
X112748581Y-72522165D01*
X112864606Y-72426947D01*
X112864608Y-72426945D01*
X112948701Y-72381996D01*
X112996984Y-72356188D01*
X113044864Y-72341664D01*
X113140622Y-72312616D01*
X113290000Y-72297904D01*
X113439377Y-72312616D01*
X113439377Y-72312616D01*
G37*
G36*
X159159377Y-72312616D02*
X159255135Y-72341664D01*
X159303015Y-72356188D01*
X159369202Y-72391566D01*
X159435391Y-72426945D01*
X159551422Y-72522168D01*
X159551423Y-72522170D01*
X159551425Y-72522171D01*
X159608556Y-72591786D01*
X159646645Y-72638198D01*
X159691594Y-72722291D01*
X159717402Y-72770574D01*
X159731926Y-72818454D01*
X159760974Y-72914212D01*
X159772000Y-73026164D01*
X159772000Y-73575995D01*
X159760974Y-73687948D01*
X159731926Y-73783706D01*
X159717402Y-73831586D01*
X159691594Y-73879869D01*
X159646645Y-73963962D01*
X159551422Y-74079992D01*
X159435392Y-74175215D01*
X159351299Y-74220164D01*
X159303016Y-74245972D01*
X159255136Y-74260496D01*
X159159378Y-74289544D01*
X159010000Y-74304256D01*
X158860623Y-74289544D01*
X158764865Y-74260496D01*
X158716985Y-74245972D01*
X158668702Y-74220164D01*
X158584609Y-74175215D01*
X158468579Y-74079992D01*
X158373355Y-73963962D01*
X158328406Y-73879869D01*
X158302598Y-73831586D01*
X158288074Y-73783706D01*
X158259026Y-73687948D01*
X158248000Y-73575996D01*
X158248000Y-73026165D01*
X158259026Y-72914213D01*
X158302598Y-72770576D01*
X158302598Y-72770575D01*
X158337977Y-72704387D01*
X158373355Y-72638199D01*
X158468578Y-72522168D01*
X158468580Y-72522167D01*
X158468581Y-72522165D01*
X158584606Y-72426947D01*
X158584608Y-72426945D01*
X158668701Y-72381996D01*
X158716984Y-72356188D01*
X158764864Y-72341664D01*
X158860622Y-72312616D01*
X159010000Y-72297904D01*
X159159377Y-72312616D01*
X159159377Y-72312616D01*
G37*
G36*
X156619377Y-72312616D02*
X156715135Y-72341664D01*
X156763015Y-72356188D01*
X156829202Y-72391566D01*
X156895391Y-72426945D01*
X157011422Y-72522168D01*
X157011423Y-72522170D01*
X157011425Y-72522171D01*
X157068556Y-72591786D01*
X157106645Y-72638198D01*
X157151594Y-72722291D01*
X157177402Y-72770574D01*
X157191926Y-72818454D01*
X157220974Y-72914212D01*
X157232000Y-73026164D01*
X157232000Y-73575995D01*
X157220974Y-73687948D01*
X157191926Y-73783706D01*
X157177402Y-73831586D01*
X157151594Y-73879869D01*
X157106645Y-73963962D01*
X157011422Y-74079992D01*
X156895392Y-74175215D01*
X156811299Y-74220164D01*
X156763016Y-74245972D01*
X156715136Y-74260496D01*
X156619378Y-74289544D01*
X156470000Y-74304256D01*
X156320623Y-74289544D01*
X156224865Y-74260496D01*
X156176985Y-74245972D01*
X156128702Y-74220164D01*
X156044609Y-74175215D01*
X155928579Y-74079992D01*
X155833355Y-73963962D01*
X155788406Y-73879869D01*
X155762598Y-73831586D01*
X155748074Y-73783706D01*
X155719026Y-73687948D01*
X155708000Y-73575996D01*
X155708000Y-73026165D01*
X155719026Y-72914213D01*
X155762598Y-72770576D01*
X155762598Y-72770575D01*
X155797977Y-72704387D01*
X155833355Y-72638199D01*
X155928578Y-72522168D01*
X155928580Y-72522167D01*
X155928581Y-72522165D01*
X156044606Y-72426947D01*
X156044608Y-72426945D01*
X156128701Y-72381996D01*
X156176984Y-72356188D01*
X156224864Y-72341664D01*
X156320622Y-72312616D01*
X156470000Y-72297904D01*
X156619377Y-72312616D01*
X156619377Y-72312616D01*
G37*
G36*
X154079377Y-72312616D02*
X154175135Y-72341664D01*
X154223015Y-72356188D01*
X154289202Y-72391566D01*
X154355391Y-72426945D01*
X154471422Y-72522168D01*
X154471423Y-72522170D01*
X154471425Y-72522171D01*
X154528556Y-72591786D01*
X154566645Y-72638198D01*
X154611594Y-72722291D01*
X154637402Y-72770574D01*
X154651926Y-72818454D01*
X154680974Y-72914212D01*
X154692000Y-73026164D01*
X154692000Y-73575995D01*
X154680974Y-73687948D01*
X154651926Y-73783706D01*
X154637402Y-73831586D01*
X154611594Y-73879869D01*
X154566645Y-73963962D01*
X154471422Y-74079992D01*
X154355392Y-74175215D01*
X154271299Y-74220164D01*
X154223016Y-74245972D01*
X154175136Y-74260496D01*
X154079378Y-74289544D01*
X153930000Y-74304256D01*
X153780623Y-74289544D01*
X153684865Y-74260496D01*
X153636985Y-74245972D01*
X153588702Y-74220164D01*
X153504609Y-74175215D01*
X153388579Y-74079992D01*
X153293355Y-73963962D01*
X153248406Y-73879869D01*
X153222598Y-73831586D01*
X153208074Y-73783706D01*
X153179026Y-73687948D01*
X153168000Y-73575996D01*
X153168000Y-73026165D01*
X153179026Y-72914213D01*
X153222598Y-72770576D01*
X153222598Y-72770575D01*
X153257977Y-72704387D01*
X153293355Y-72638199D01*
X153388578Y-72522168D01*
X153388580Y-72522167D01*
X153388581Y-72522165D01*
X153504606Y-72426947D01*
X153504608Y-72426945D01*
X153588701Y-72381996D01*
X153636984Y-72356188D01*
X153684864Y-72341664D01*
X153780622Y-72312616D01*
X153930000Y-72297904D01*
X154079377Y-72312616D01*
X154079377Y-72312616D01*
G37*
G36*
X151539377Y-72312616D02*
X151635135Y-72341664D01*
X151683015Y-72356188D01*
X151749202Y-72391566D01*
X151815391Y-72426945D01*
X151931422Y-72522168D01*
X151931423Y-72522170D01*
X151931425Y-72522171D01*
X151988556Y-72591786D01*
X152026645Y-72638198D01*
X152071594Y-72722291D01*
X152097402Y-72770574D01*
X152111926Y-72818454D01*
X152140974Y-72914212D01*
X152152000Y-73026164D01*
X152152000Y-73575995D01*
X152140974Y-73687948D01*
X152111926Y-73783706D01*
X152097402Y-73831586D01*
X152071594Y-73879869D01*
X152026645Y-73963962D01*
X151931422Y-74079992D01*
X151815392Y-74175215D01*
X151731299Y-74220164D01*
X151683016Y-74245972D01*
X151635136Y-74260496D01*
X151539378Y-74289544D01*
X151390000Y-74304256D01*
X151240623Y-74289544D01*
X151144865Y-74260496D01*
X151096985Y-74245972D01*
X151048702Y-74220164D01*
X150964609Y-74175215D01*
X150848579Y-74079992D01*
X150753355Y-73963962D01*
X150708406Y-73879869D01*
X150682598Y-73831586D01*
X150668074Y-73783706D01*
X150639026Y-73687948D01*
X150628000Y-73575996D01*
X150628000Y-73026165D01*
X150639026Y-72914213D01*
X150682598Y-72770576D01*
X150682598Y-72770575D01*
X150717977Y-72704387D01*
X150753355Y-72638199D01*
X150848578Y-72522168D01*
X150848580Y-72522167D01*
X150848581Y-72522165D01*
X150964606Y-72426947D01*
X150964608Y-72426945D01*
X151048701Y-72381996D01*
X151096984Y-72356188D01*
X151144864Y-72341664D01*
X151240622Y-72312616D01*
X151390000Y-72297904D01*
X151539377Y-72312616D01*
X151539377Y-72312616D01*
G37*
G36*
X148999377Y-72312616D02*
X149095135Y-72341664D01*
X149143015Y-72356188D01*
X149209202Y-72391566D01*
X149275391Y-72426945D01*
X149391422Y-72522168D01*
X149391423Y-72522170D01*
X149391425Y-72522171D01*
X149448556Y-72591786D01*
X149486645Y-72638198D01*
X149531594Y-72722291D01*
X149557402Y-72770574D01*
X149571926Y-72818454D01*
X149600974Y-72914212D01*
X149612000Y-73026164D01*
X149612000Y-73575995D01*
X149600974Y-73687948D01*
X149571926Y-73783706D01*
X149557402Y-73831586D01*
X149531594Y-73879869D01*
X149486645Y-73963962D01*
X149391422Y-74079992D01*
X149275392Y-74175215D01*
X149191299Y-74220164D01*
X149143016Y-74245972D01*
X149095136Y-74260496D01*
X148999378Y-74289544D01*
X148850000Y-74304256D01*
X148700623Y-74289544D01*
X148604865Y-74260496D01*
X148556985Y-74245972D01*
X148508702Y-74220164D01*
X148424609Y-74175215D01*
X148308579Y-74079992D01*
X148213355Y-73963962D01*
X148168406Y-73879869D01*
X148142598Y-73831586D01*
X148128074Y-73783706D01*
X148099026Y-73687948D01*
X148088000Y-73575996D01*
X148088000Y-73026165D01*
X148099026Y-72914213D01*
X148142598Y-72770576D01*
X148142598Y-72770575D01*
X148177977Y-72704387D01*
X148213355Y-72638199D01*
X148308578Y-72522168D01*
X148308580Y-72522167D01*
X148308581Y-72522165D01*
X148424606Y-72426947D01*
X148424608Y-72426945D01*
X148508701Y-72381996D01*
X148556984Y-72356188D01*
X148604864Y-72341664D01*
X148700622Y-72312616D01*
X148850000Y-72297904D01*
X148999377Y-72312616D01*
X148999377Y-72312616D01*
G37*
G36*
X146459377Y-72312616D02*
X146555135Y-72341664D01*
X146603015Y-72356188D01*
X146669202Y-72391566D01*
X146735391Y-72426945D01*
X146851422Y-72522168D01*
X146851423Y-72522170D01*
X146851425Y-72522171D01*
X146908556Y-72591786D01*
X146946645Y-72638198D01*
X146991594Y-72722291D01*
X147017402Y-72770574D01*
X147031926Y-72818454D01*
X147060974Y-72914212D01*
X147072000Y-73026164D01*
X147072000Y-73575995D01*
X147060974Y-73687948D01*
X147031926Y-73783706D01*
X147017402Y-73831586D01*
X146991594Y-73879869D01*
X146946645Y-73963962D01*
X146851422Y-74079992D01*
X146735392Y-74175215D01*
X146651299Y-74220164D01*
X146603016Y-74245972D01*
X146555136Y-74260496D01*
X146459378Y-74289544D01*
X146310000Y-74304256D01*
X146160623Y-74289544D01*
X146064865Y-74260496D01*
X146016985Y-74245972D01*
X145968702Y-74220164D01*
X145884609Y-74175215D01*
X145768579Y-74079992D01*
X145673355Y-73963962D01*
X145628406Y-73879869D01*
X145602598Y-73831586D01*
X145588074Y-73783706D01*
X145559026Y-73687948D01*
X145548000Y-73575996D01*
X145548000Y-73026165D01*
X145559026Y-72914213D01*
X145602598Y-72770576D01*
X145602598Y-72770575D01*
X145637977Y-72704387D01*
X145673355Y-72638199D01*
X145768578Y-72522168D01*
X145768580Y-72522167D01*
X145768581Y-72522165D01*
X145884606Y-72426947D01*
X145884608Y-72426945D01*
X145968701Y-72381996D01*
X146016984Y-72356188D01*
X146064864Y-72341664D01*
X146160622Y-72312616D01*
X146310000Y-72297904D01*
X146459377Y-72312616D01*
X146459377Y-72312616D01*
G37*
G36*
X143919377Y-72312616D02*
X144015135Y-72341664D01*
X144063015Y-72356188D01*
X144129202Y-72391566D01*
X144195391Y-72426945D01*
X144311422Y-72522168D01*
X144311423Y-72522170D01*
X144311425Y-72522171D01*
X144368556Y-72591786D01*
X144406645Y-72638198D01*
X144451594Y-72722291D01*
X144477402Y-72770574D01*
X144491926Y-72818454D01*
X144520974Y-72914212D01*
X144532000Y-73026164D01*
X144532000Y-73575995D01*
X144520974Y-73687948D01*
X144491926Y-73783706D01*
X144477402Y-73831586D01*
X144451594Y-73879869D01*
X144406645Y-73963962D01*
X144311422Y-74079992D01*
X144195392Y-74175215D01*
X144111299Y-74220164D01*
X144063016Y-74245972D01*
X144015136Y-74260496D01*
X143919378Y-74289544D01*
X143770000Y-74304256D01*
X143620623Y-74289544D01*
X143524865Y-74260496D01*
X143476985Y-74245972D01*
X143428702Y-74220164D01*
X143344609Y-74175215D01*
X143228579Y-74079992D01*
X143133355Y-73963962D01*
X143088406Y-73879869D01*
X143062598Y-73831586D01*
X143048074Y-73783706D01*
X143019026Y-73687948D01*
X143008000Y-73575996D01*
X143008000Y-73026165D01*
X143019026Y-72914213D01*
X143062598Y-72770576D01*
X143062598Y-72770575D01*
X143097977Y-72704387D01*
X143133355Y-72638199D01*
X143228578Y-72522168D01*
X143228580Y-72522167D01*
X143228581Y-72522165D01*
X143344606Y-72426947D01*
X143344608Y-72426945D01*
X143428701Y-72381996D01*
X143476984Y-72356188D01*
X143524864Y-72341664D01*
X143620622Y-72312616D01*
X143770000Y-72297904D01*
X143919377Y-72312616D01*
X143919377Y-72312616D01*
G37*
G36*
X141379377Y-72312616D02*
X141475135Y-72341664D01*
X141523015Y-72356188D01*
X141589202Y-72391566D01*
X141655391Y-72426945D01*
X141771422Y-72522168D01*
X141771423Y-72522170D01*
X141771425Y-72522171D01*
X141828556Y-72591786D01*
X141866645Y-72638198D01*
X141911594Y-72722291D01*
X141937402Y-72770574D01*
X141951926Y-72818454D01*
X141980974Y-72914212D01*
X141992000Y-73026164D01*
X141992000Y-73575995D01*
X141980974Y-73687948D01*
X141951926Y-73783706D01*
X141937402Y-73831586D01*
X141911594Y-73879869D01*
X141866645Y-73963962D01*
X141771422Y-74079992D01*
X141655392Y-74175215D01*
X141571299Y-74220164D01*
X141523016Y-74245972D01*
X141475136Y-74260496D01*
X141379378Y-74289544D01*
X141230000Y-74304256D01*
X141080623Y-74289544D01*
X140984865Y-74260496D01*
X140936985Y-74245972D01*
X140888702Y-74220164D01*
X140804609Y-74175215D01*
X140688579Y-74079992D01*
X140593355Y-73963962D01*
X140548406Y-73879869D01*
X140522598Y-73831586D01*
X140508074Y-73783706D01*
X140479026Y-73687948D01*
X140468000Y-73575996D01*
X140468000Y-73026165D01*
X140479026Y-72914213D01*
X140522598Y-72770576D01*
X140522598Y-72770575D01*
X140557977Y-72704387D01*
X140593355Y-72638199D01*
X140688578Y-72522168D01*
X140688580Y-72522167D01*
X140688581Y-72522165D01*
X140804606Y-72426947D01*
X140804608Y-72426945D01*
X140888701Y-72381996D01*
X140936984Y-72356188D01*
X140984864Y-72341664D01*
X141080622Y-72312616D01*
X141230000Y-72297904D01*
X141379377Y-72312616D01*
X141379377Y-72312616D01*
G37*
G36*
X161699377Y-72312616D02*
X161795135Y-72341664D01*
X161843015Y-72356188D01*
X161909202Y-72391566D01*
X161975391Y-72426945D01*
X162091422Y-72522168D01*
X162091423Y-72522170D01*
X162091425Y-72522171D01*
X162148556Y-72591786D01*
X162186645Y-72638198D01*
X162231594Y-72722291D01*
X162257402Y-72770574D01*
X162271926Y-72818454D01*
X162300974Y-72914212D01*
X162312000Y-73026164D01*
X162312000Y-73575995D01*
X162300974Y-73687948D01*
X162271926Y-73783706D01*
X162257402Y-73831586D01*
X162231594Y-73879869D01*
X162186645Y-73963962D01*
X162091422Y-74079992D01*
X161975392Y-74175215D01*
X161891299Y-74220164D01*
X161843016Y-74245972D01*
X161795136Y-74260496D01*
X161699378Y-74289544D01*
X161550000Y-74304256D01*
X161400623Y-74289544D01*
X161304865Y-74260496D01*
X161256985Y-74245972D01*
X161208702Y-74220164D01*
X161124609Y-74175215D01*
X161008579Y-74079992D01*
X160913355Y-73963962D01*
X160868406Y-73879869D01*
X160842598Y-73831586D01*
X160828074Y-73783706D01*
X160799026Y-73687948D01*
X160788000Y-73575996D01*
X160788000Y-73026165D01*
X160799026Y-72914213D01*
X160842598Y-72770576D01*
X160842598Y-72770575D01*
X160877977Y-72704387D01*
X160913355Y-72638199D01*
X161008578Y-72522168D01*
X161008580Y-72522167D01*
X161008581Y-72522165D01*
X161124606Y-72426947D01*
X161124608Y-72426945D01*
X161208701Y-72381996D01*
X161256984Y-72356188D01*
X161304864Y-72341664D01*
X161400622Y-72312616D01*
X161550000Y-72297904D01*
X161699377Y-72312616D01*
X161699377Y-72312616D01*
G37*
G36*
X138839377Y-72312616D02*
X138935135Y-72341664D01*
X138983015Y-72356188D01*
X139049202Y-72391566D01*
X139115391Y-72426945D01*
X139231422Y-72522168D01*
X139231423Y-72522170D01*
X139231425Y-72522171D01*
X139288556Y-72591786D01*
X139326645Y-72638198D01*
X139371594Y-72722291D01*
X139397402Y-72770574D01*
X139411926Y-72818454D01*
X139440974Y-72914212D01*
X139452000Y-73026164D01*
X139452000Y-73575995D01*
X139440974Y-73687948D01*
X139411926Y-73783706D01*
X139397402Y-73831586D01*
X139371594Y-73879869D01*
X139326645Y-73963962D01*
X139231422Y-74079992D01*
X139115392Y-74175215D01*
X139031299Y-74220164D01*
X138983016Y-74245972D01*
X138935136Y-74260496D01*
X138839378Y-74289544D01*
X138690000Y-74304256D01*
X138540623Y-74289544D01*
X138444865Y-74260496D01*
X138396985Y-74245972D01*
X138348702Y-74220164D01*
X138264609Y-74175215D01*
X138148579Y-74079992D01*
X138053355Y-73963962D01*
X138008406Y-73879869D01*
X137982598Y-73831586D01*
X137968074Y-73783706D01*
X137939026Y-73687948D01*
X137928000Y-73575996D01*
X137928000Y-73026165D01*
X137939026Y-72914213D01*
X137982598Y-72770576D01*
X137982598Y-72770575D01*
X138017977Y-72704387D01*
X138053355Y-72638199D01*
X138148578Y-72522168D01*
X138148580Y-72522167D01*
X138148581Y-72522165D01*
X138264606Y-72426947D01*
X138264608Y-72426945D01*
X138348701Y-72381996D01*
X138396984Y-72356188D01*
X138444864Y-72341664D01*
X138540622Y-72312616D01*
X138690000Y-72297904D01*
X138839377Y-72312616D01*
X138839377Y-72312616D01*
G37*
G36*
X136299377Y-72312616D02*
X136395135Y-72341664D01*
X136443015Y-72356188D01*
X136509202Y-72391566D01*
X136575391Y-72426945D01*
X136691422Y-72522168D01*
X136691423Y-72522170D01*
X136691425Y-72522171D01*
X136748556Y-72591786D01*
X136786645Y-72638198D01*
X136831594Y-72722291D01*
X136857402Y-72770574D01*
X136871926Y-72818454D01*
X136900974Y-72914212D01*
X136912000Y-73026164D01*
X136912000Y-73575995D01*
X136900974Y-73687948D01*
X136871926Y-73783706D01*
X136857402Y-73831586D01*
X136831594Y-73879869D01*
X136786645Y-73963962D01*
X136691422Y-74079992D01*
X136575392Y-74175215D01*
X136491299Y-74220164D01*
X136443016Y-74245972D01*
X136395136Y-74260496D01*
X136299378Y-74289544D01*
X136150000Y-74304256D01*
X136000623Y-74289544D01*
X135904865Y-74260496D01*
X135856985Y-74245972D01*
X135808702Y-74220164D01*
X135724609Y-74175215D01*
X135608579Y-74079992D01*
X135513355Y-73963962D01*
X135468406Y-73879869D01*
X135442598Y-73831586D01*
X135428074Y-73783706D01*
X135399026Y-73687948D01*
X135388000Y-73575996D01*
X135388000Y-73026165D01*
X135399026Y-72914213D01*
X135442598Y-72770576D01*
X135442598Y-72770575D01*
X135477977Y-72704387D01*
X135513355Y-72638199D01*
X135608578Y-72522168D01*
X135608580Y-72522167D01*
X135608581Y-72522165D01*
X135724606Y-72426947D01*
X135724608Y-72426945D01*
X135808701Y-72381996D01*
X135856984Y-72356188D01*
X135904864Y-72341664D01*
X136000622Y-72312616D01*
X136150000Y-72297904D01*
X136299377Y-72312616D01*
X136299377Y-72312616D01*
G37*
G36*
X131219377Y-72312616D02*
X131315135Y-72341664D01*
X131363015Y-72356188D01*
X131429202Y-72391566D01*
X131495391Y-72426945D01*
X131611422Y-72522168D01*
X131611423Y-72522170D01*
X131611425Y-72522171D01*
X131668556Y-72591786D01*
X131706645Y-72638198D01*
X131751594Y-72722291D01*
X131777402Y-72770574D01*
X131791926Y-72818454D01*
X131820974Y-72914212D01*
X131832000Y-73026164D01*
X131832000Y-73575995D01*
X131820974Y-73687948D01*
X131791926Y-73783706D01*
X131777402Y-73831586D01*
X131751594Y-73879869D01*
X131706645Y-73963962D01*
X131611422Y-74079992D01*
X131495392Y-74175215D01*
X131411299Y-74220164D01*
X131363016Y-74245972D01*
X131315136Y-74260496D01*
X131219378Y-74289544D01*
X131070000Y-74304256D01*
X130920623Y-74289544D01*
X130824865Y-74260496D01*
X130776985Y-74245972D01*
X130728702Y-74220164D01*
X130644609Y-74175215D01*
X130528579Y-74079992D01*
X130433355Y-73963962D01*
X130388406Y-73879869D01*
X130362598Y-73831586D01*
X130348074Y-73783706D01*
X130319026Y-73687948D01*
X130308000Y-73575996D01*
X130308000Y-73026165D01*
X130319026Y-72914213D01*
X130362598Y-72770576D01*
X130362598Y-72770575D01*
X130397977Y-72704387D01*
X130433355Y-72638199D01*
X130528578Y-72522168D01*
X130528580Y-72522167D01*
X130528581Y-72522165D01*
X130644606Y-72426947D01*
X130644608Y-72426945D01*
X130728701Y-72381996D01*
X130776984Y-72356188D01*
X130824864Y-72341664D01*
X130920622Y-72312616D01*
X131070000Y-72297904D01*
X131219377Y-72312616D01*
X131219377Y-72312616D01*
G37*
G36*
X133759377Y-72312616D02*
X133855135Y-72341664D01*
X133903015Y-72356188D01*
X133969202Y-72391566D01*
X134035391Y-72426945D01*
X134151422Y-72522168D01*
X134151423Y-72522170D01*
X134151425Y-72522171D01*
X134208556Y-72591786D01*
X134246645Y-72638198D01*
X134291594Y-72722291D01*
X134317402Y-72770574D01*
X134331926Y-72818454D01*
X134360974Y-72914212D01*
X134372000Y-73026164D01*
X134372000Y-73575995D01*
X134360974Y-73687948D01*
X134331926Y-73783706D01*
X134317402Y-73831586D01*
X134291594Y-73879869D01*
X134246645Y-73963962D01*
X134151422Y-74079992D01*
X134035392Y-74175215D01*
X133951299Y-74220164D01*
X133903016Y-74245972D01*
X133855136Y-74260496D01*
X133759378Y-74289544D01*
X133610000Y-74304256D01*
X133460623Y-74289544D01*
X133364865Y-74260496D01*
X133316985Y-74245972D01*
X133268702Y-74220164D01*
X133184609Y-74175215D01*
X133068579Y-74079992D01*
X132973355Y-73963962D01*
X132928406Y-73879869D01*
X132902598Y-73831586D01*
X132888074Y-73783706D01*
X132859026Y-73687948D01*
X132848000Y-73575996D01*
X132848000Y-73026165D01*
X132859026Y-72914213D01*
X132902598Y-72770576D01*
X132902598Y-72770575D01*
X132937977Y-72704387D01*
X132973355Y-72638199D01*
X133068578Y-72522168D01*
X133068580Y-72522167D01*
X133068581Y-72522165D01*
X133184606Y-72426947D01*
X133184608Y-72426945D01*
X133268701Y-72381996D01*
X133316984Y-72356188D01*
X133364864Y-72341664D01*
X133460622Y-72312616D01*
X133610000Y-72297904D01*
X133759377Y-72312616D01*
X133759377Y-72312616D01*
G37*
M02*
