G04 #@! TF.GenerationSoftware,KiCad,Pcbnew,(5.0.1)-4*
G04 #@! TF.CreationDate,2018-12-13T18:51:49-05:00*
G04 #@! TF.ProjectId,pihat_template,70696861745F74656D706C6174652E6B,B1.1*
G04 #@! TF.SameCoordinates,Original*
G04 #@! TF.FileFunction,Copper,L1,Top,Signal*
G04 #@! TF.FilePolarity,Positive*
%FSLAX46Y46*%
G04 Gerber Fmt 4.6, Leading zero omitted, Abs format (unit mm)*
G04 Created by KiCad (PCBNEW (5.0.1)-4) date 12/13/2018 6:51:49 PM*
%MOMM*%
%LPD*%
G01*
G04 APERTURE LIST*
G04 #@! TA.AperFunction,ComponentPad*
%ADD10R,1.700000X1.700000*%
G04 #@! TD*
G04 #@! TA.AperFunction,ComponentPad*
%ADD11O,1.700000X1.700000*%
G04 #@! TD*
G04 #@! TA.AperFunction,ComponentPad*
%ADD12O,1.600000X1.600000*%
G04 #@! TD*
G04 #@! TA.AperFunction,ComponentPad*
%ADD13C,1.600000*%
G04 #@! TD*
G04 #@! TA.AperFunction,ComponentPad*
%ADD14O,2.200000X2.200000*%
G04 #@! TD*
G04 #@! TA.AperFunction,ComponentPad*
%ADD15R,2.200000X2.200000*%
G04 #@! TD*
G04 #@! TA.AperFunction,ComponentPad*
%ADD16R,1.524000X1.998980*%
G04 #@! TD*
G04 #@! TA.AperFunction,ComponentPad*
%ADD17O,1.524000X1.998980*%
G04 #@! TD*
G04 #@! TA.AperFunction,ViaPad*
%ADD18C,0.889000*%
G04 #@! TD*
G04 #@! TA.AperFunction,Conductor*
%ADD19C,0.400000*%
G04 #@! TD*
G04 APERTURE END LIST*
D10*
G04 #@! TO.P,J11,1*
G04 #@! TO.N,X-In*
X125248000Y-121258000D03*
D11*
G04 #@! TO.P,J11,2*
G04 #@! TO.N,X-Out*
X125248000Y-123798000D03*
G04 #@! TO.P,J11,3*
G04 #@! TO.N,SDA_3*
X125248000Y-126338000D03*
G04 #@! TO.P,J11,4*
G04 #@! TO.N,SCL_3*
X125248000Y-128878000D03*
G04 #@! TO.P,J11,5*
G04 #@! TO.N,GND*
X125248000Y-131418000D03*
G04 #@! TO.P,J11,6*
G04 #@! TO.N,+3V3*
X125248000Y-133958000D03*
G04 #@! TD*
D10*
G04 #@! TO.P,OUT-,1*
G04 #@! TO.N,GND*
X161316000Y-101700000D03*
G04 #@! TD*
G04 #@! TO.P,IN+,1*
G04 #@! TO.N,Net-(J13-Pad1)*
X120930000Y-83920000D03*
G04 #@! TD*
G04 #@! TO.P,IN-,1*
G04 #@! TO.N,GND*
X120930000Y-101700000D03*
G04 #@! TD*
G04 #@! TO.P,OUT+,1*
G04 #@! TO.N,Net-(J15-Pad1)*
X161570000Y-83920000D03*
G04 #@! TD*
G04 #@! TO.P,J6,1*
G04 #@! TO.N,+5V*
X108230000Y-138530000D03*
D11*
G04 #@! TO.P,J6,2*
G04 #@! TO.N,+3V3*
X108230000Y-135990000D03*
G04 #@! TO.P,J6,3*
G04 #@! TO.N,GND*
X108230000Y-133450000D03*
G04 #@! TO.P,J6,4*
G04 #@! TO.N,SDA_3*
X108230000Y-130910000D03*
G04 #@! TO.P,J6,5*
G04 #@! TO.N,SCL_3*
X108230000Y-128370000D03*
G04 #@! TD*
D12*
G04 #@! TO.P,R1,2*
G04 #@! TO.N,SCL_3*
X155220000Y-80110000D03*
D13*
G04 #@! TO.P,R1,1*
G04 #@! TO.N,+3V3*
X150140000Y-80110000D03*
G04 #@! TD*
G04 #@! TO.P,R2,1*
G04 #@! TO.N,+3V3*
X141250000Y-80046500D03*
D12*
G04 #@! TO.P,R2,2*
G04 #@! TO.N,SDA_3*
X146330000Y-80046500D03*
G04 #@! TD*
D10*
G04 #@! TO.P,J2,1*
G04 #@! TO.N,VbattIn*
X173000000Y-113130000D03*
D11*
G04 #@! TO.P,J2,2*
G04 #@! TO.N,VbattOut*
X173000000Y-110590000D03*
G04 #@! TD*
G04 #@! TO.P,J4,2*
G04 #@! TO.N,GND*
X173000000Y-94334000D03*
D10*
G04 #@! TO.P,J4,1*
G04 #@! TO.N,Net-(J3-Pad1)*
X173000000Y-91794000D03*
G04 #@! TD*
G04 #@! TO.P,J3,1*
G04 #@! TO.N,Net-(J4-Pad1)*
X173000000Y-99160000D03*
D11*
G04 #@! TO.P,J3,2*
G04 #@! TO.N,GND*
X173000000Y-101700000D03*
G04 #@! TD*
D10*
G04 #@! TO.P,J10,1*
G04 #@! TO.N,VbattIn*
X134392000Y-121004000D03*
D11*
G04 #@! TO.P,J10,2*
G04 #@! TO.N,VbattOut*
X134392000Y-123544000D03*
G04 #@! TO.P,J10,3*
G04 #@! TO.N,SDA_1*
X134392000Y-126084000D03*
G04 #@! TO.P,J10,4*
G04 #@! TO.N,SCL_1*
X134392000Y-128624000D03*
G04 #@! TO.P,J10,5*
G04 #@! TO.N,GND*
X134392000Y-131164000D03*
G04 #@! TO.P,J10,6*
G04 #@! TO.N,+3V3*
X134392000Y-133704000D03*
G04 #@! TD*
G04 #@! TO.P,J12,6*
G04 #@! TO.N,+3V3*
X116104000Y-133704000D03*
G04 #@! TO.P,J12,5*
G04 #@! TO.N,GND*
X116104000Y-131164000D03*
G04 #@! TO.P,J12,4*
G04 #@! TO.N,SCL_3*
X116104000Y-128624000D03*
G04 #@! TO.P,J12,3*
G04 #@! TO.N,SDA_3*
X116104000Y-126084000D03*
G04 #@! TO.P,J12,2*
G04 #@! TO.N,Y-Out*
X116104000Y-123544000D03*
D10*
G04 #@! TO.P,J12,1*
G04 #@! TO.N,Y-In*
X116104000Y-121004000D03*
G04 #@! TD*
G04 #@! TO.P,J8,1*
G04 #@! TO.N,Y+In*
X152489500Y-121258000D03*
D11*
G04 #@! TO.P,J8,2*
G04 #@! TO.N,Y+Out*
X152489500Y-123798000D03*
G04 #@! TO.P,J8,3*
G04 #@! TO.N,SDA_1*
X152489500Y-126338000D03*
G04 #@! TO.P,J8,4*
G04 #@! TO.N,SCL_1*
X152489500Y-128878000D03*
G04 #@! TO.P,J8,5*
G04 #@! TO.N,GND*
X152489500Y-131418000D03*
G04 #@! TO.P,J8,6*
G04 #@! TO.N,+3V3*
X152489500Y-133958000D03*
G04 #@! TD*
G04 #@! TO.P,J7,6*
G04 #@! TO.N,+3V3*
X161316000Y-133958000D03*
G04 #@! TO.P,J7,5*
G04 #@! TO.N,GND*
X161316000Y-131418000D03*
G04 #@! TO.P,J7,4*
G04 #@! TO.N,SCL_1*
X161316000Y-128878000D03*
G04 #@! TO.P,J7,3*
G04 #@! TO.N,SDA_1*
X161316000Y-126338000D03*
G04 #@! TO.P,J7,2*
G04 #@! TO.N,X+Out*
X161316000Y-123798000D03*
D10*
G04 #@! TO.P,J7,1*
G04 #@! TO.N,X+In*
X161316000Y-121258000D03*
G04 #@! TD*
G04 #@! TO.P,J9,1*
G04 #@! TO.N,Z+In*
X143536000Y-121258000D03*
D11*
G04 #@! TO.P,J9,2*
G04 #@! TO.N,Z+Out*
X143536000Y-123798000D03*
G04 #@! TO.P,J9,3*
G04 #@! TO.N,SDA_1*
X143536000Y-126338000D03*
G04 #@! TO.P,J9,4*
G04 #@! TO.N,SCL_1*
X143536000Y-128878000D03*
G04 #@! TO.P,J9,5*
G04 #@! TO.N,GND*
X143536000Y-131418000D03*
G04 #@! TO.P,J9,6*
G04 #@! TO.N,+3V3*
X143536000Y-133958000D03*
G04 #@! TD*
D10*
G04 #@! TO.P,J1,1*
G04 #@! TO.N,X+In*
X173000000Y-138530000D03*
D11*
G04 #@! TO.P,J1,2*
G04 #@! TO.N,GND*
X173000000Y-135990000D03*
G04 #@! TO.P,J1,3*
G04 #@! TO.N,Y+In*
X173000000Y-133450000D03*
G04 #@! TO.P,J1,4*
G04 #@! TO.N,GND*
X173000000Y-130910000D03*
G04 #@! TO.P,J1,5*
G04 #@! TO.N,Z+In*
X173000000Y-128370000D03*
G04 #@! TO.P,J1,6*
G04 #@! TO.N,GND*
X173000000Y-125830000D03*
G04 #@! TO.P,J1,7*
G04 #@! TO.N,X-In*
X173000000Y-123290000D03*
G04 #@! TO.P,J1,8*
G04 #@! TO.N,GND*
X173000000Y-120750000D03*
G04 #@! TO.P,J1,9*
G04 #@! TO.N,Y-In*
X173000000Y-118210000D03*
G04 #@! TO.P,J1,10*
G04 #@! TO.N,GND*
X173000000Y-115670000D03*
G04 #@! TD*
D14*
G04 #@! TO.P,D4,2*
G04 #@! TO.N,X-Out*
X153950000Y-106907000D03*
D15*
G04 #@! TO.P,D4,1*
G04 #@! TO.N,Net-(D1-Pad1)*
X150140000Y-106907000D03*
G04 #@! TD*
G04 #@! TO.P,D3,1*
G04 #@! TO.N,Net-(D1-Pad1)*
X140043500Y-106843500D03*
D14*
G04 #@! TO.P,D3,2*
G04 #@! TO.N,Z+Out*
X143853500Y-106843500D03*
G04 #@! TD*
G04 #@! TO.P,D5,2*
G04 #@! TO.N,Y-Out*
X163411500Y-106589500D03*
D15*
G04 #@! TO.P,D5,1*
G04 #@! TO.N,Net-(D1-Pad1)*
X159601500Y-106589500D03*
G04 #@! TD*
G04 #@! TO.P,D2,1*
G04 #@! TO.N,Net-(D1-Pad1)*
X130201000Y-106843500D03*
D14*
G04 #@! TO.P,D2,2*
G04 #@! TO.N,Y+Out*
X134011000Y-106843500D03*
G04 #@! TD*
D10*
G04 #@! TO.P,J5,1*
G04 #@! TO.N,Net-(D1-Pad1)*
X173000000Y-75665000D03*
D11*
G04 #@! TO.P,J5,2*
G04 #@! TO.N,Net-(J13-Pad1)*
X173000000Y-78205000D03*
G04 #@! TO.P,J5,3*
G04 #@! TO.N,Net-(J15-Pad1)*
X173000000Y-80745000D03*
G04 #@! TO.P,J5,4*
G04 #@! TO.N,Net-(J3-Pad1)*
X173000000Y-83285000D03*
G04 #@! TO.P,J5,5*
G04 #@! TO.N,Net-(J4-Pad1)*
X173000000Y-85825000D03*
G04 #@! TD*
D15*
G04 #@! TO.P,D1,1*
G04 #@! TO.N,Net-(D1-Pad1)*
X120295000Y-106780000D03*
D14*
G04 #@! TO.P,D1,2*
G04 #@! TO.N,X+Out*
X124105000Y-106780000D03*
G04 #@! TD*
D16*
G04 #@! TO.P,GPIO,1*
G04 #@! TO.N,+3V3*
X113290000Y-76338920D03*
D17*
G04 #@! TO.P,GPIO,2*
G04 #@! TO.N,+5V*
X113290000Y-73301080D03*
G04 #@! TO.P,GPIO,3*
G04 #@! TO.N,SDA_1*
X115830000Y-76338920D03*
G04 #@! TO.P,GPIO,4*
G04 #@! TO.N,+5V*
X115830000Y-73301080D03*
G04 #@! TO.P,GPIO,5*
G04 #@! TO.N,SCL_1*
X118370000Y-76338920D03*
G04 #@! TO.P,GPIO,6*
G04 #@! TO.N,GND*
X118370000Y-73301080D03*
G04 #@! TO.P,GPIO,7*
G04 #@! TO.N,Net-(P3-Pad7)*
X120910000Y-76338920D03*
G04 #@! TO.P,GPIO,8*
G04 #@! TO.N,Net-(P3-Pad8)*
X120910000Y-73301080D03*
G04 #@! TO.P,GPIO,9*
G04 #@! TO.N,GND*
X123450000Y-76338920D03*
G04 #@! TO.P,GPIO,10*
G04 #@! TO.N,Net-(P3-Pad10)*
X123450000Y-73301080D03*
G04 #@! TO.P,GPIO,11*
G04 #@! TO.N,Net-(P3-Pad11)*
X125990000Y-76338920D03*
G04 #@! TO.P,GPIO,12*
G04 #@! TO.N,Net-(P3-Pad12)*
X125990000Y-73301080D03*
G04 #@! TO.P,GPIO,13*
G04 #@! TO.N,Net-(P3-Pad13)*
X128530000Y-76338920D03*
G04 #@! TO.P,GPIO,14*
G04 #@! TO.N,GND*
X128530000Y-73301080D03*
G04 #@! TO.P,GPIO,15*
G04 #@! TO.N,Net-(P3-Pad15)*
X131070000Y-76338920D03*
G04 #@! TO.P,GPIO,16*
G04 #@! TO.N,Net-(P3-Pad16)*
X131070000Y-73301080D03*
G04 #@! TO.P,GPIO,17*
G04 #@! TO.N,Net-(P3-Pad17)*
X133610000Y-76338920D03*
G04 #@! TO.P,GPIO,18*
G04 #@! TO.N,Net-(P3-Pad18)*
X133610000Y-73301080D03*
G04 #@! TO.P,GPIO,19*
G04 #@! TO.N,Net-(P3-Pad19)*
X136150000Y-76338920D03*
G04 #@! TO.P,GPIO,20*
G04 #@! TO.N,GND*
X136150000Y-73301080D03*
G04 #@! TO.P,GPIO,21*
G04 #@! TO.N,Net-(P3-Pad21)*
X138690000Y-76338920D03*
G04 #@! TO.P,GPIO,22*
G04 #@! TO.N,Net-(P3-Pad22)*
X138690000Y-73301080D03*
G04 #@! TO.P,GPIO,23*
G04 #@! TO.N,Net-(P3-Pad23)*
X141230000Y-76338920D03*
G04 #@! TO.P,GPIO,24*
G04 #@! TO.N,Net-(P3-Pad24)*
X141230000Y-73301080D03*
G04 #@! TO.P,GPIO,25*
G04 #@! TO.N,GND*
X143770000Y-76338920D03*
G04 #@! TO.P,GPIO,26*
G04 #@! TO.N,Net-(P3-Pad26)*
X143770000Y-73301080D03*
G04 #@! TO.P,GPIO,27*
G04 #@! TO.N,SDA_3*
X146310000Y-76338920D03*
G04 #@! TO.P,GPIO,28*
G04 #@! TO.N,SCL_3*
X146310000Y-73301080D03*
G04 #@! TO.P,GPIO,29*
G04 #@! TO.N,Net-(P3-Pad29)*
X148850000Y-76338920D03*
G04 #@! TO.P,GPIO,30*
G04 #@! TO.N,GND*
X148850000Y-73301080D03*
G04 #@! TO.P,GPIO,31*
G04 #@! TO.N,Net-(P3-Pad31)*
X151390000Y-76338920D03*
G04 #@! TO.P,GPIO,32*
G04 #@! TO.N,Net-(P3-Pad32)*
X151390000Y-73301080D03*
G04 #@! TO.P,GPIO,33*
G04 #@! TO.N,Net-(P3-Pad33)*
X153930000Y-76338920D03*
G04 #@! TO.P,GPIO,34*
G04 #@! TO.N,GND*
X153930000Y-73301080D03*
G04 #@! TO.P,GPIO,35*
G04 #@! TO.N,Net-(P3-Pad35)*
X156470000Y-76338920D03*
G04 #@! TO.P,GPIO,36*
G04 #@! TO.N,Net-(P3-Pad36)*
X156470000Y-73301080D03*
G04 #@! TO.P,GPIO,37*
G04 #@! TO.N,Net-(P3-Pad37)*
X159010000Y-76338920D03*
G04 #@! TO.P,GPIO,38*
G04 #@! TO.N,N/C*
X159010000Y-73301080D03*
G04 #@! TO.P,GPIO,39*
G04 #@! TO.N,GND*
X161550000Y-76338920D03*
G04 #@! TO.P,GPIO,40*
G04 #@! TO.N,Net-(P3-Pad40)*
X161550000Y-73301080D03*
G04 #@! TD*
D18*
G04 #@! TO.N,SDA_1*
X120676000Y-125068000D03*
G04 #@! TO.N,SCL_1*
X122454000Y-127608000D03*
G04 #@! TO.N,Net-(D1-Pad1)*
X166650000Y-104240000D03*
G04 #@! TO.N,X+Out*
X159030000Y-110590000D03*
G04 #@! TO.N,Y+In*
X156928001Y-132618001D03*
G04 #@! TO.N,Z+In*
X147784001Y-127538001D03*
G04 #@! TO.N,VbattIn*
X134392000Y-116178000D03*
G04 #@! TO.N,VbattOut*
X169751928Y-118410072D03*
X136678000Y-118464000D03*
G04 #@! TO.N,+3V3*
X112040000Y-133704000D03*
X111786000Y-78078000D03*
G04 #@! TO.N,Y+Out*
X146330000Y-109320000D03*
G04 #@! TO.N,Y-Out*
X118390000Y-114400000D03*
X118390000Y-114400000D03*
X162840000Y-113130000D03*
G04 #@! TO.N,X-Out*
X126130501Y-113250501D03*
X126130501Y-113250501D03*
X153829499Y-113250501D03*
G04 #@! TO.N,SDA_3*
X114159999Y-129806001D03*
G04 #@! TD*
D19*
G04 #@! TO.N,GND*
X123450000Y-76090000D02*
X123450000Y-76320000D01*
X120930000Y-97910000D02*
X120930000Y-99160000D01*
X119729999Y-96709999D02*
X120930000Y-97910000D01*
X119729999Y-80040001D02*
X119729999Y-96709999D01*
X123450000Y-76320000D02*
X119729999Y-80040001D01*
X173849999Y-114820001D02*
X173000000Y-115670000D01*
X174270000Y-114400000D02*
X173849999Y-114820001D01*
X174270000Y-102970000D02*
X174270000Y-114400000D01*
X173000000Y-101700000D02*
X174270000Y-102970000D01*
X120930000Y-99160000D02*
X120930000Y-101700000D01*
G04 #@! TO.N,+5V*
X113290000Y-73550000D02*
X115830000Y-73550000D01*
X114402001Y-74662001D02*
X113290000Y-73550000D01*
X114402001Y-77618411D02*
X114402001Y-74662001D01*
X113056000Y-78964412D02*
X114402001Y-77618411D01*
X113056000Y-137006000D02*
X113056000Y-78964412D01*
X108230000Y-138530000D02*
X111532000Y-138530000D01*
X111532000Y-138530000D02*
X113056000Y-137006000D01*
G04 #@! TO.N,SDA_1*
X115830000Y-105145002D02*
X115830000Y-76090000D01*
X120676000Y-109991002D02*
X120676000Y-125068000D01*
X115830000Y-105145002D02*
X120676000Y-109991002D01*
G04 #@! TO.N,SCL_1*
X118370000Y-102024998D02*
X118370000Y-76090000D01*
X121745001Y-105399999D02*
X118370000Y-102024998D01*
X121745001Y-126899001D02*
X121745001Y-105399999D01*
X122454000Y-127608000D02*
X121745001Y-126899001D01*
G04 #@! TO.N,Net-(D1-Pad1)*
X171750000Y-75665000D02*
X173000000Y-75665000D01*
X166650000Y-80765000D02*
X171750000Y-75665000D01*
X166650000Y-104240000D02*
X166650000Y-80765000D01*
G04 #@! TO.N,X+Out*
X159030000Y-110590000D02*
X159030000Y-110590000D01*
X159030000Y-111218617D02*
X159030000Y-110590000D01*
X159030000Y-122714081D02*
X159030000Y-111218617D01*
X160113919Y-123798000D02*
X159030000Y-122714081D01*
X161316000Y-123798000D02*
X160113919Y-123798000D01*
G04 #@! TO.N,X+In*
X162516001Y-122458001D02*
X161316000Y-121258000D01*
X162516001Y-129296001D02*
X162516001Y-122458001D01*
X171750000Y-138530000D02*
X162516001Y-129296001D01*
X173000000Y-138530000D02*
X171750000Y-138530000D01*
G04 #@! TO.N,Y+In*
X153739500Y-121258000D02*
X152489500Y-121258000D01*
X156928001Y-124446501D02*
X153739500Y-121258000D01*
X156928001Y-132618001D02*
X156928001Y-124446501D01*
G04 #@! TO.N,Z+In*
X144786000Y-121258000D02*
X143536000Y-121258000D01*
X147784001Y-124256001D02*
X144786000Y-121258000D01*
X147784001Y-127538001D02*
X147784001Y-124256001D01*
G04 #@! TO.N,VbattIn*
X134392000Y-121004000D02*
X134392000Y-116178000D01*
X134392000Y-115924000D02*
X134646000Y-116178000D01*
X134392000Y-116178000D02*
X134392000Y-115924000D01*
G04 #@! TO.N,VbattOut*
X170460000Y-110590000D02*
X173000000Y-110590000D01*
X169751928Y-111298072D02*
X170460000Y-110590000D01*
X169751928Y-111298072D02*
X169751928Y-118410072D01*
X169751928Y-118210000D02*
X169751928Y-118410072D01*
X169751928Y-118410072D02*
X169751928Y-118210000D01*
X136678000Y-121258000D02*
X134392000Y-123544000D01*
X136678000Y-118464000D02*
X136678000Y-121258000D01*
G04 #@! TO.N,+3V3*
X113290000Y-76090000D02*
X113290000Y-76574000D01*
X112040000Y-133704000D02*
X112040000Y-133704000D01*
X112040000Y-127608000D02*
X112040000Y-133704000D01*
X112040000Y-127100000D02*
X112040000Y-127608000D01*
X111737952Y-126797952D02*
X112040000Y-127100000D01*
X111786000Y-78078000D02*
X111737952Y-126797952D01*
X113290000Y-76090000D02*
X113290000Y-76828000D01*
X113290000Y-76828000D02*
X111786000Y-78078000D01*
G04 #@! TO.N,Y+Out*
X146330000Y-109320000D02*
X146330000Y-109320000D01*
X146330000Y-120369000D02*
X146330000Y-119480000D01*
X146330000Y-120369000D02*
X146330000Y-118210000D01*
X146330000Y-119099000D02*
X146330000Y-118210000D01*
X146330000Y-118210000D02*
X146330000Y-109320000D01*
X149060500Y-120369000D02*
X152489500Y-123798000D01*
X146330000Y-120369000D02*
X149060500Y-120369000D01*
G04 #@! TO.N,Y-Out*
X118390000Y-114400000D02*
X118390000Y-114400000D01*
X118390000Y-114400000D02*
X118390000Y-114400000D01*
X162840000Y-107161000D02*
X163411500Y-106589500D01*
X162840000Y-113130000D02*
X162840000Y-107161000D01*
X118390000Y-121258000D02*
X118390000Y-114400000D01*
X116104000Y-123544000D02*
X118390000Y-121258000D01*
G04 #@! TO.N,Z+Out*
X142753501Y-107943499D02*
X143853500Y-106843500D01*
X142335999Y-108361001D02*
X142753501Y-107943499D01*
X142335999Y-122597999D02*
X142335999Y-108361001D01*
X143536000Y-123798000D02*
X142335999Y-122597999D01*
G04 #@! TO.N,X-Out*
X126130501Y-113250501D02*
X126010000Y-113130000D01*
X126130501Y-113250501D02*
X126130501Y-113250501D01*
X126130501Y-113250501D02*
X126130501Y-113250501D01*
X153829499Y-107027501D02*
X153950000Y-106907000D01*
X153829499Y-113250501D02*
X153829499Y-107027501D01*
X126097999Y-122948001D02*
X125248000Y-123798000D01*
X126448001Y-122597999D02*
X126097999Y-122948001D01*
X126448001Y-120127999D02*
X126448001Y-122597999D01*
X126130501Y-119810499D02*
X126448001Y-120127999D01*
X126130501Y-113250501D02*
X126130501Y-119810499D01*
G04 #@! TO.N,Net-(J3-Pad1)*
X173000000Y-90544000D02*
X173000000Y-91794000D01*
X174270000Y-89274000D02*
X173000000Y-90544000D01*
X174270000Y-84555000D02*
X174270000Y-89274000D01*
X173000000Y-83285000D02*
X174270000Y-84555000D01*
G04 #@! TO.N,Net-(J4-Pad1)*
X172150001Y-86674999D02*
X173000000Y-85825000D01*
X171799999Y-87025001D02*
X172150001Y-86674999D01*
X171799999Y-96709999D02*
X171799999Y-87025001D01*
X173000000Y-97910000D02*
X171799999Y-96709999D01*
X173000000Y-99160000D02*
X173000000Y-97910000D01*
G04 #@! TO.N,SDA_3*
X145530001Y-80846499D02*
X146330000Y-80046500D01*
X128750999Y-97625501D02*
X145530001Y-80846499D01*
X128750999Y-125756001D02*
X128750999Y-97625501D01*
X145197990Y-77202010D02*
X146310000Y-76090000D01*
X145197990Y-78914490D02*
X145197990Y-77202010D01*
X146330000Y-80046500D02*
X145197990Y-78914490D01*
X114159999Y-128028001D02*
X116104000Y-126084000D01*
X114159999Y-129806001D02*
X114159999Y-128028001D01*
X127032080Y-125756001D02*
X128750999Y-125756001D01*
X126450081Y-126338000D02*
X127032080Y-125756001D01*
X125248000Y-126338000D02*
X126450081Y-126338000D01*
G04 #@! TO.N,SCL_3*
X147749420Y-74989420D02*
X146310000Y-73550000D01*
X149310609Y-74989420D02*
X147749420Y-74989420D01*
X149962010Y-75640821D02*
X149310609Y-74989420D01*
X149962010Y-76721039D02*
X149962010Y-75640821D01*
X150929391Y-77688420D02*
X149962010Y-76721039D01*
X152798420Y-77688420D02*
X150929391Y-77688420D01*
X155220000Y-80110000D02*
X152798420Y-77688420D01*
X154420001Y-80909999D02*
X155220000Y-80110000D01*
X131651001Y-103678999D02*
X154420001Y-80909999D01*
X131651001Y-125395999D02*
X131651001Y-103678999D01*
X129018999Y-128028001D02*
X131651001Y-125395999D01*
X126097999Y-128028001D02*
X129018999Y-128028001D01*
X125248000Y-128878000D02*
X126097999Y-128028001D01*
G04 #@! TD*
M02*
