G04 #@! TF.FileFunction,Copper,L1,Top,Signal*
%FSLAX46Y46*%
G04 Gerber Fmt 4.6, Leading zero omitted, Abs format (unit mm)*
G04 Created by KiCad (PCBNEW 4.0.7) date Sat Mar 24 05:53:16 2018*
%MOMM*%
%LPD*%
G01*
G04 APERTURE LIST*
%ADD10C,0.100000*%
%ADD11C,0.200000*%
%ADD12R,0.900000X0.900000*%
%ADD13R,0.300000X1.000000*%
%ADD14R,1.000000X0.300000*%
%ADD15R,3.300000X3.300000*%
%ADD16R,0.800000X0.800000*%
%ADD17R,1.150000X1.400000*%
%ADD18R,0.350000X0.650000*%
%ADD19R,1.200000X0.775000*%
%ADD20R,1.727200X1.727200*%
%ADD21O,1.727200X1.727200*%
%ADD22R,0.800000X0.750000*%
%ADD23R,0.750000X0.800000*%
%ADD24R,0.900000X0.500000*%
%ADD25R,0.500000X0.900000*%
%ADD26C,2.200000*%
%ADD27C,2.000000*%
%ADD28R,1.700000X1.700000*%
%ADD29O,1.700000X1.700000*%
%ADD30C,0.800000*%
%ADD31C,0.250000*%
%ADD32C,0.254000*%
G04 APERTURE END LIST*
D10*
D11*
X100693071Y-82993453D02*
X100740690Y-82850596D01*
X100788310Y-82802977D01*
X100883548Y-82755358D01*
X101026405Y-82755358D01*
X101121643Y-82802977D01*
X101169262Y-82850596D01*
X101216881Y-82945834D01*
X101216881Y-83326787D01*
X100216881Y-83326787D01*
X100216881Y-82993453D01*
X100264500Y-82898215D01*
X100312119Y-82850596D01*
X100407357Y-82802977D01*
X100502595Y-82802977D01*
X100597833Y-82850596D01*
X100645452Y-82898215D01*
X100693071Y-82993453D01*
X100693071Y-83326787D01*
X101216881Y-82326787D02*
X100550214Y-82326787D01*
X100740690Y-82326787D02*
X100645452Y-82279168D01*
X100597833Y-82231549D01*
X100550214Y-82136311D01*
X100550214Y-82041072D01*
X101216881Y-81279167D02*
X100693071Y-81279167D01*
X100597833Y-81326786D01*
X100550214Y-81422024D01*
X100550214Y-81612501D01*
X100597833Y-81707739D01*
X101169262Y-81279167D02*
X101216881Y-81374405D01*
X101216881Y-81612501D01*
X101169262Y-81707739D01*
X101074024Y-81755358D01*
X100978786Y-81755358D01*
X100883548Y-81707739D01*
X100835929Y-81612501D01*
X100835929Y-81374405D01*
X100788310Y-81279167D01*
X100550214Y-80802977D02*
X101216881Y-80802977D01*
X100645452Y-80802977D02*
X100597833Y-80755358D01*
X100550214Y-80660120D01*
X100550214Y-80517262D01*
X100597833Y-80422024D01*
X100693071Y-80374405D01*
X101216881Y-80374405D01*
X101216881Y-79469643D02*
X100216881Y-79469643D01*
X101169262Y-79469643D02*
X101216881Y-79564881D01*
X101216881Y-79755358D01*
X101169262Y-79850596D01*
X101121643Y-79898215D01*
X101026405Y-79945834D01*
X100740690Y-79945834D01*
X100645452Y-79898215D01*
X100597833Y-79850596D01*
X100550214Y-79755358D01*
X100550214Y-79564881D01*
X100597833Y-79469643D01*
X101169262Y-78612500D02*
X101216881Y-78707738D01*
X101216881Y-78898215D01*
X101169262Y-78993453D01*
X101074024Y-79041072D01*
X100693071Y-79041072D01*
X100597833Y-78993453D01*
X100550214Y-78898215D01*
X100550214Y-78707738D01*
X100597833Y-78612500D01*
X100693071Y-78564881D01*
X100788310Y-78564881D01*
X100883548Y-79041072D01*
X100550214Y-78136310D02*
X101216881Y-78136310D01*
X100645452Y-78136310D02*
X100597833Y-78088691D01*
X100550214Y-77993453D01*
X100550214Y-77850595D01*
X100597833Y-77755357D01*
X100693071Y-77707738D01*
X101216881Y-77707738D01*
X101216881Y-77231548D02*
X100216881Y-77231548D01*
X100597833Y-77231548D02*
X100550214Y-77136310D01*
X100550214Y-76945833D01*
X100597833Y-76850595D01*
X100645452Y-76802976D01*
X100740690Y-76755357D01*
X101026405Y-76755357D01*
X101121643Y-76802976D01*
X101169262Y-76850595D01*
X101216881Y-76945833D01*
X101216881Y-77136310D01*
X101169262Y-77231548D01*
X100550214Y-75898214D02*
X101216881Y-75898214D01*
X100550214Y-76326786D02*
X101074024Y-76326786D01*
X101169262Y-76279167D01*
X101216881Y-76183929D01*
X101216881Y-76041071D01*
X101169262Y-75945833D01*
X101121643Y-75898214D01*
X101216881Y-75422024D02*
X100550214Y-75422024D01*
X100740690Y-75422024D02*
X100645452Y-75374405D01*
X100597833Y-75326786D01*
X100550214Y-75231548D01*
X100550214Y-75136309D01*
X100550214Y-74374404D02*
X101359738Y-74374404D01*
X101454976Y-74422023D01*
X101502595Y-74469642D01*
X101550214Y-74564881D01*
X101550214Y-74707738D01*
X101502595Y-74802976D01*
X101169262Y-74374404D02*
X101216881Y-74469642D01*
X101216881Y-74660119D01*
X101169262Y-74755357D01*
X101121643Y-74802976D01*
X101026405Y-74850595D01*
X100740690Y-74850595D01*
X100645452Y-74802976D01*
X100597833Y-74755357D01*
X100550214Y-74660119D01*
X100550214Y-74469642D01*
X100597833Y-74374404D01*
X100216881Y-73279166D02*
X100216881Y-72707737D01*
X101216881Y-72993452D02*
X100216881Y-72993452D01*
X101169262Y-71993451D02*
X101216881Y-72088689D01*
X101216881Y-72279166D01*
X101169262Y-72374404D01*
X101074024Y-72422023D01*
X100693071Y-72422023D01*
X100597833Y-72374404D01*
X100550214Y-72279166D01*
X100550214Y-72088689D01*
X100597833Y-71993451D01*
X100693071Y-71945832D01*
X100788310Y-71945832D01*
X100883548Y-72422023D01*
X101169262Y-71088689D02*
X101216881Y-71183927D01*
X101216881Y-71374404D01*
X101169262Y-71469642D01*
X101121643Y-71517261D01*
X101026405Y-71564880D01*
X100740690Y-71564880D01*
X100645452Y-71517261D01*
X100597833Y-71469642D01*
X100550214Y-71374404D01*
X100550214Y-71183927D01*
X100597833Y-71088689D01*
X101216881Y-70660118D02*
X100216881Y-70660118D01*
X101216881Y-70231546D02*
X100693071Y-70231546D01*
X100597833Y-70279165D01*
X100550214Y-70374403D01*
X100550214Y-70517261D01*
X100597833Y-70612499D01*
X100645452Y-70660118D01*
X101169262Y-69707737D02*
X101216881Y-69707737D01*
X101312119Y-69755356D01*
X101359738Y-69802975D01*
X101216881Y-68041070D02*
X101216881Y-68517261D01*
X100216881Y-68517261D01*
X101216881Y-67231546D02*
X101216881Y-67707737D01*
X100216881Y-67707737D01*
X101121643Y-66326784D02*
X101169262Y-66374403D01*
X101216881Y-66517260D01*
X101216881Y-66612498D01*
X101169262Y-66755356D01*
X101074024Y-66850594D01*
X100978786Y-66898213D01*
X100788310Y-66945832D01*
X100645452Y-66945832D01*
X100454976Y-66898213D01*
X100359738Y-66850594D01*
X100264500Y-66755356D01*
X100216881Y-66612498D01*
X100216881Y-66517260D01*
X100264500Y-66374403D01*
X100312119Y-66326784D01*
X101121643Y-65898213D02*
X101169262Y-65850594D01*
X101216881Y-65898213D01*
X101169262Y-65945832D01*
X101121643Y-65898213D01*
X101216881Y-65898213D01*
X102631167Y-85350597D02*
X102631167Y-84874406D01*
X102916881Y-85445835D02*
X101916881Y-85112502D01*
X102916881Y-84779168D01*
X101916881Y-84541073D02*
X102916881Y-83874406D01*
X101916881Y-83874406D02*
X102916881Y-84541073D01*
X101916881Y-82255358D02*
X101916881Y-82731549D01*
X102393071Y-82779168D01*
X102345452Y-82731549D01*
X102297833Y-82636311D01*
X102297833Y-82398215D01*
X102345452Y-82302977D01*
X102393071Y-82255358D01*
X102488310Y-82207739D01*
X102726405Y-82207739D01*
X102821643Y-82255358D01*
X102869262Y-82302977D01*
X102916881Y-82398215D01*
X102916881Y-82636311D01*
X102869262Y-82731549D01*
X102821643Y-82779168D01*
X101916881Y-81588692D02*
X101916881Y-81493453D01*
X101964500Y-81398215D01*
X102012119Y-81350596D01*
X102107357Y-81302977D01*
X102297833Y-81255358D01*
X102535929Y-81255358D01*
X102726405Y-81302977D01*
X102821643Y-81350596D01*
X102869262Y-81398215D01*
X102916881Y-81493453D01*
X102916881Y-81588692D01*
X102869262Y-81683930D01*
X102821643Y-81731549D01*
X102726405Y-81779168D01*
X102535929Y-81826787D01*
X102297833Y-81826787D01*
X102107357Y-81779168D01*
X102012119Y-81731549D01*
X101964500Y-81683930D01*
X101916881Y-81588692D01*
X102250214Y-80398215D02*
X102916881Y-80398215D01*
X101869262Y-80636311D02*
X102583548Y-80874406D01*
X102583548Y-80255358D01*
X101916881Y-79969644D02*
X101916881Y-79350596D01*
X102297833Y-79683930D01*
X102297833Y-79541072D01*
X102345452Y-79445834D01*
X102393071Y-79398215D01*
X102488310Y-79350596D01*
X102726405Y-79350596D01*
X102821643Y-79398215D01*
X102869262Y-79445834D01*
X102916881Y-79541072D01*
X102916881Y-79826787D01*
X102869262Y-79922025D01*
X102821643Y-79969644D01*
X102916881Y-77588691D02*
X102440690Y-77922025D01*
X102916881Y-78160120D02*
X101916881Y-78160120D01*
X101916881Y-77779167D01*
X101964500Y-77683929D01*
X102012119Y-77636310D01*
X102107357Y-77588691D01*
X102250214Y-77588691D01*
X102345452Y-77636310D01*
X102393071Y-77683929D01*
X102440690Y-77779167D01*
X102440690Y-78160120D01*
X102916881Y-76731548D02*
X102393071Y-76731548D01*
X102297833Y-76779167D01*
X102250214Y-76874405D01*
X102250214Y-77064882D01*
X102297833Y-77160120D01*
X102869262Y-76731548D02*
X102916881Y-76826786D01*
X102916881Y-77064882D01*
X102869262Y-77160120D01*
X102774024Y-77207739D01*
X102678786Y-77207739D01*
X102583548Y-77160120D01*
X102535929Y-77064882D01*
X102535929Y-76826786D01*
X102488310Y-76731548D01*
X102869262Y-76302977D02*
X102916881Y-76207739D01*
X102916881Y-76017263D01*
X102869262Y-75922024D01*
X102774024Y-75874405D01*
X102726405Y-75874405D01*
X102631167Y-75922024D01*
X102583548Y-76017263D01*
X102583548Y-76160120D01*
X102535929Y-76255358D01*
X102440690Y-76302977D01*
X102393071Y-76302977D01*
X102297833Y-76255358D01*
X102250214Y-76160120D01*
X102250214Y-76017263D01*
X102297833Y-75922024D01*
X102250214Y-75445834D02*
X103250214Y-75445834D01*
X102297833Y-75445834D02*
X102250214Y-75350596D01*
X102250214Y-75160119D01*
X102297833Y-75064881D01*
X102345452Y-75017262D01*
X102440690Y-74969643D01*
X102726405Y-74969643D01*
X102821643Y-75017262D01*
X102869262Y-75064881D01*
X102916881Y-75160119D01*
X102916881Y-75350596D01*
X102869262Y-75445834D01*
X102916881Y-74541072D02*
X101916881Y-74541072D01*
X102297833Y-74541072D02*
X102250214Y-74445834D01*
X102250214Y-74255357D01*
X102297833Y-74160119D01*
X102345452Y-74112500D01*
X102440690Y-74064881D01*
X102726405Y-74064881D01*
X102821643Y-74112500D01*
X102869262Y-74160119D01*
X102916881Y-74255357D01*
X102916881Y-74445834D01*
X102869262Y-74541072D01*
X102869262Y-73255357D02*
X102916881Y-73350595D01*
X102916881Y-73541072D01*
X102869262Y-73636310D01*
X102774024Y-73683929D01*
X102393071Y-73683929D01*
X102297833Y-73636310D01*
X102250214Y-73541072D01*
X102250214Y-73350595D01*
X102297833Y-73255357D01*
X102393071Y-73207738D01*
X102488310Y-73207738D01*
X102583548Y-73683929D01*
X102916881Y-72779167D02*
X102250214Y-72779167D01*
X102440690Y-72779167D02*
X102345452Y-72731548D01*
X102297833Y-72683929D01*
X102250214Y-72588691D01*
X102250214Y-72493452D01*
X102916881Y-72160119D02*
X102250214Y-72160119D01*
X102440690Y-72160119D02*
X102345452Y-72112500D01*
X102297833Y-72064881D01*
X102250214Y-71969643D01*
X102250214Y-71874404D01*
X102250214Y-71636309D02*
X102916881Y-71398214D01*
X102250214Y-71160118D02*
X102916881Y-71398214D01*
X103154976Y-71493452D01*
X103202595Y-71541071D01*
X103250214Y-71636309D01*
X102916881Y-70017261D02*
X101916881Y-70017261D01*
X101916881Y-69636308D01*
X101964500Y-69541070D01*
X102012119Y-69493451D01*
X102107357Y-69445832D01*
X102250214Y-69445832D01*
X102345452Y-69493451D01*
X102393071Y-69541070D01*
X102440690Y-69636308D01*
X102440690Y-70017261D01*
X102916881Y-69017261D02*
X102250214Y-69017261D01*
X101916881Y-69017261D02*
X101964500Y-69064880D01*
X102012119Y-69017261D01*
X101964500Y-68969642D01*
X101916881Y-69017261D01*
X102012119Y-69017261D01*
X102393071Y-67445832D02*
X102440690Y-67302975D01*
X102488310Y-67255356D01*
X102583548Y-67207737D01*
X102726405Y-67207737D01*
X102821643Y-67255356D01*
X102869262Y-67302975D01*
X102916881Y-67398213D01*
X102916881Y-67779166D01*
X101916881Y-67779166D01*
X101916881Y-67445832D01*
X101964500Y-67350594D01*
X102012119Y-67302975D01*
X102107357Y-67255356D01*
X102202595Y-67255356D01*
X102297833Y-67302975D01*
X102345452Y-67350594D01*
X102393071Y-67445832D01*
X102393071Y-67779166D01*
X102916881Y-66636309D02*
X102869262Y-66731547D01*
X102821643Y-66779166D01*
X102726405Y-66826785D01*
X102440690Y-66826785D01*
X102345452Y-66779166D01*
X102297833Y-66731547D01*
X102250214Y-66636309D01*
X102250214Y-66493451D01*
X102297833Y-66398213D01*
X102345452Y-66350594D01*
X102440690Y-66302975D01*
X102726405Y-66302975D01*
X102821643Y-66350594D01*
X102869262Y-66398213D01*
X102916881Y-66493451D01*
X102916881Y-66636309D01*
X102916881Y-65445832D02*
X102393071Y-65445832D01*
X102297833Y-65493451D01*
X102250214Y-65588689D01*
X102250214Y-65779166D01*
X102297833Y-65874404D01*
X102869262Y-65445832D02*
X102916881Y-65541070D01*
X102916881Y-65779166D01*
X102869262Y-65874404D01*
X102774024Y-65922023D01*
X102678786Y-65922023D01*
X102583548Y-65874404D01*
X102535929Y-65779166D01*
X102535929Y-65541070D01*
X102488310Y-65445832D01*
X102916881Y-64969642D02*
X102250214Y-64969642D01*
X102440690Y-64969642D02*
X102345452Y-64922023D01*
X102297833Y-64874404D01*
X102250214Y-64779166D01*
X102250214Y-64683927D01*
X102916881Y-63922022D02*
X101916881Y-63922022D01*
X102869262Y-63922022D02*
X102916881Y-64017260D01*
X102916881Y-64207737D01*
X102869262Y-64302975D01*
X102821643Y-64350594D01*
X102726405Y-64398213D01*
X102440690Y-64398213D01*
X102345452Y-64350594D01*
X102297833Y-64302975D01*
X102250214Y-64207737D01*
X102250214Y-64017260D01*
X102297833Y-63922022D01*
X105316881Y-84231549D02*
X106316881Y-83898216D01*
X105316881Y-83564882D01*
X106316881Y-82707739D02*
X106316881Y-83279168D01*
X106316881Y-82993454D02*
X105316881Y-82993454D01*
X105459738Y-83088692D01*
X105554976Y-83183930D01*
X105602595Y-83279168D01*
X106221643Y-82279168D02*
X106269262Y-82231549D01*
X106316881Y-82279168D01*
X106269262Y-82326787D01*
X106221643Y-82279168D01*
X106316881Y-82279168D01*
X105316881Y-81898216D02*
X105316881Y-81279168D01*
X105697833Y-81612502D01*
X105697833Y-81469644D01*
X105745452Y-81374406D01*
X105793071Y-81326787D01*
X105888310Y-81279168D01*
X106126405Y-81279168D01*
X106221643Y-81326787D01*
X106269262Y-81374406D01*
X106316881Y-81469644D01*
X106316881Y-81755359D01*
X106269262Y-81850597D01*
X106221643Y-81898216D01*
X106269262Y-77850596D02*
X106316881Y-77707739D01*
X106316881Y-77469643D01*
X106269262Y-77374405D01*
X106221643Y-77326786D01*
X106126405Y-77279167D01*
X106031167Y-77279167D01*
X105935929Y-77326786D01*
X105888310Y-77374405D01*
X105840690Y-77469643D01*
X105793071Y-77660120D01*
X105745452Y-77755358D01*
X105697833Y-77802977D01*
X105602595Y-77850596D01*
X105507357Y-77850596D01*
X105412119Y-77802977D01*
X105364500Y-77755358D01*
X105316881Y-77660120D01*
X105316881Y-77422024D01*
X105364500Y-77279167D01*
X106316881Y-76850596D02*
X105316881Y-76850596D01*
X106316881Y-76279167D01*
X105316881Y-76279167D01*
X106221643Y-75802977D02*
X106269262Y-75755358D01*
X106316881Y-75802977D01*
X106269262Y-75850596D01*
X106221643Y-75802977D01*
X106316881Y-75802977D01*
X105697833Y-75802977D02*
X105745452Y-75755358D01*
X105793071Y-75802977D01*
X105745452Y-75850596D01*
X105697833Y-75802977D01*
X105793071Y-75802977D01*
X106412119Y-74802977D02*
X106412119Y-74041072D01*
X106412119Y-74041072D02*
X106412119Y-73279167D01*
X106412119Y-73279167D02*
X106412119Y-72517262D01*
X106412119Y-72517262D02*
X106412119Y-71755357D01*
X106412119Y-71755357D02*
X106412119Y-70993452D01*
X106412119Y-70993452D02*
X106412119Y-70231547D01*
X106412119Y-70231547D02*
X106412119Y-69469642D01*
X106412119Y-69469642D02*
X106412119Y-68707737D01*
X106412119Y-68707737D02*
X106412119Y-67945832D01*
X106412119Y-67945832D02*
X106412119Y-67183927D01*
X106412119Y-67183927D02*
X106412119Y-66422022D01*
X106412119Y-66422022D02*
X106412119Y-65660117D01*
X106412119Y-65660117D02*
X106412119Y-64898212D01*
D12*
X77025500Y-59880500D03*
X77025500Y-58801000D03*
X77025500Y-60960000D03*
X78105000Y-58801000D03*
X78105000Y-60960000D03*
X78105000Y-59880500D03*
X75946000Y-58801000D03*
X75946000Y-60960000D03*
D13*
X75525500Y-62230500D03*
X76025500Y-62230500D03*
X76525500Y-62230500D03*
X77025500Y-62230500D03*
X77525500Y-62230500D03*
X78025500Y-62230500D03*
X78525500Y-62230500D03*
D14*
X79375500Y-61380500D03*
X79375500Y-60880500D03*
X79375500Y-60380500D03*
X79375500Y-59880500D03*
X79375500Y-59380500D03*
X79375500Y-58880500D03*
X79375500Y-58380500D03*
D13*
X78525500Y-57530500D03*
X78025500Y-57530500D03*
X77525500Y-57530500D03*
X77025500Y-57530500D03*
X76525500Y-57530500D03*
X76025500Y-57530500D03*
X75525500Y-57530500D03*
D14*
X74675500Y-58380500D03*
X74675500Y-58880500D03*
X74675500Y-59380500D03*
X74675500Y-59880500D03*
X74675500Y-60380500D03*
X74675500Y-60880500D03*
X74675500Y-61380500D03*
D15*
X77025500Y-59880500D03*
D12*
X75946000Y-59880500D03*
D16*
X55537000Y-49403000D03*
X53937000Y-49403000D03*
D17*
X68618000Y-63095000D03*
X68618000Y-60095000D03*
X67018000Y-60095000D03*
X67018000Y-63095000D03*
D18*
X96606000Y-56997000D03*
X95956000Y-56997000D03*
X95306000Y-56997000D03*
X94656000Y-56997000D03*
X94656000Y-60097000D03*
X95306000Y-60097000D03*
X95956000Y-60097000D03*
X96606000Y-60097000D03*
D19*
X95031000Y-58934500D03*
X96231000Y-58934500D03*
X95031000Y-58159500D03*
X96231000Y-58159500D03*
D20*
X52270000Y-43370000D03*
D21*
X52270000Y-40830000D03*
X54810000Y-43370000D03*
X54810000Y-40830000D03*
X57350000Y-43370000D03*
X57350000Y-40830000D03*
X59890000Y-43370000D03*
X59890000Y-40830000D03*
X62430000Y-43370000D03*
X62430000Y-40830000D03*
X64970000Y-43370000D03*
X64970000Y-40830000D03*
X67510000Y-43370000D03*
X67510000Y-40830000D03*
X70050000Y-43370000D03*
X70050000Y-40830000D03*
X72590000Y-43370000D03*
X72590000Y-40830000D03*
X75130000Y-43370000D03*
X75130000Y-40830000D03*
X77670000Y-43370000D03*
X77670000Y-40830000D03*
X80210000Y-43370000D03*
X80210000Y-40830000D03*
X82750000Y-43370000D03*
X82750000Y-40830000D03*
X85290000Y-43370000D03*
X85290000Y-40830000D03*
X87830000Y-43370000D03*
X87830000Y-40830000D03*
X90370000Y-43370000D03*
X90370000Y-40830000D03*
X92910000Y-43370000D03*
X92910000Y-40830000D03*
X95450000Y-43370000D03*
X95450000Y-40830000D03*
X97990000Y-43370000D03*
X97990000Y-40830000D03*
X100530000Y-43370000D03*
X100530000Y-40830000D03*
D22*
X74116500Y-83629500D03*
X75616500Y-83629500D03*
D23*
X77152500Y-82347500D03*
X77152500Y-80847500D03*
D22*
X74116500Y-79565500D03*
X75616500Y-79565500D03*
D23*
X77406500Y-78283500D03*
X77406500Y-76783500D03*
D22*
X74116500Y-73723500D03*
X75616500Y-73723500D03*
X78918500Y-73723500D03*
X77418500Y-73723500D03*
D23*
X75628500Y-69647500D03*
X75628500Y-68147500D03*
X77406500Y-69647500D03*
X77406500Y-68147500D03*
D22*
X72719500Y-63817500D03*
X74219500Y-63817500D03*
X81331500Y-63817500D03*
X79831500Y-63817500D03*
D23*
X72263000Y-56400000D03*
X72263000Y-57900000D03*
X96647000Y-63615000D03*
X96647000Y-62115000D03*
D24*
X75628500Y-80847500D03*
X75628500Y-82347500D03*
X75628500Y-76783500D03*
X75628500Y-78283500D03*
D25*
X78918500Y-75247500D03*
X77418500Y-75247500D03*
D24*
X75628500Y-70941500D03*
X75628500Y-72441500D03*
X77406500Y-70941500D03*
X77406500Y-72441500D03*
D25*
X78918500Y-66611500D03*
X77418500Y-66611500D03*
X74116500Y-66611500D03*
X75616500Y-66611500D03*
D24*
X81597500Y-60908500D03*
X81597500Y-62408500D03*
D26*
X73088500Y-86550500D03*
X78168500Y-86550500D03*
X78168500Y-91630500D03*
X73088500Y-91630500D03*
D27*
X75628500Y-89090500D03*
D28*
X61722000Y-63754000D03*
D29*
X61722000Y-61214000D03*
X61722000Y-58674000D03*
X61722000Y-56134000D03*
X61722000Y-53594000D03*
X61722000Y-51054000D03*
D25*
X58662000Y-61214000D03*
X57162000Y-61214000D03*
X58662000Y-58674000D03*
X57162000Y-58674000D03*
D24*
X97155000Y-53606000D03*
X97155000Y-55106000D03*
X95377000Y-53606000D03*
X95377000Y-55106000D03*
D25*
X53987000Y-51689000D03*
X55487000Y-51689000D03*
D30*
X78613000Y-64960500D03*
X79375000Y-65087500D03*
X80010000Y-66675000D03*
X80010000Y-65786000D03*
X77787500Y-63754000D03*
X77787500Y-64960500D03*
X59055000Y-51054000D03*
X82804000Y-63881000D03*
X72771000Y-79502000D03*
X72898000Y-82486500D03*
X74231500Y-82105500D03*
X74231500Y-80772000D03*
X73152000Y-80708500D03*
X72771000Y-73787000D03*
X73088500Y-78422500D03*
X74104500Y-77597000D03*
X74104500Y-76454000D03*
X74866500Y-75692000D03*
X74295000Y-74930000D03*
X73215500Y-74866500D03*
X72644000Y-66675000D03*
X72961500Y-72771000D03*
X74104500Y-72263000D03*
X74104500Y-71120000D03*
X74358500Y-70040500D03*
X74358500Y-69024500D03*
X74358500Y-68008500D03*
X73152000Y-67754500D03*
X75692000Y-63754000D03*
X73025000Y-65468500D03*
X74485500Y-65278000D03*
X75692000Y-64960500D03*
X80137000Y-75311000D03*
X76835000Y-83566000D03*
X78041500Y-83502500D03*
X78422500Y-82486500D03*
X78422500Y-81343500D03*
X78422500Y-80264000D03*
X77406500Y-79502000D03*
X78613000Y-78803500D03*
X78613000Y-77660500D03*
X78613000Y-76581000D03*
X79883000Y-76390500D03*
X78613000Y-67945000D03*
X79756000Y-67691000D03*
X79692500Y-72517000D03*
X78740000Y-72072500D03*
X78740000Y-70993000D03*
X78613000Y-69977000D03*
X78613000Y-68961000D03*
X93218000Y-56388000D03*
X72771000Y-83566000D03*
X58674000Y-47752000D03*
X55753000Y-58674000D03*
X55499000Y-62103000D03*
X70866000Y-55753000D03*
X65405000Y-63119000D03*
X70231000Y-60960000D03*
X71501000Y-64897000D03*
X94107000Y-61341000D03*
X96647000Y-65024000D03*
X80137000Y-73787000D03*
X81026000Y-91694000D03*
X80899000Y-86487000D03*
X70231000Y-86614000D03*
X70358000Y-91694000D03*
X95123000Y-62357000D03*
X97155000Y-52197000D03*
X95377000Y-52197000D03*
X70612000Y-58166000D03*
X58674000Y-63754000D03*
X52324000Y-45974000D03*
X83058000Y-60198000D03*
X54864000Y-45974000D03*
X57404000Y-45974000D03*
X82613500Y-58737500D03*
X73660000Y-53594000D03*
X65659000Y-46037500D03*
X67690500Y-46038900D03*
X81153000Y-58420000D03*
X98552000Y-56388000D03*
X71374000Y-39497000D03*
X73787000Y-42037000D03*
X93599000Y-55118000D03*
X77089000Y-54864000D03*
X75184000Y-45974000D03*
X77978000Y-53784500D03*
X77724000Y-45974000D03*
X78867000Y-54864000D03*
X80264000Y-45974000D03*
X79756000Y-56896000D03*
X81407000Y-45974000D03*
X64262000Y-61214000D03*
X72136000Y-60071000D03*
X64262000Y-58674000D03*
X71374000Y-59055000D03*
X73279000Y-57404000D03*
X64262000Y-56261000D03*
X64211200Y-53619400D03*
X70612000Y-54610000D03*
D31*
X52270000Y-46821000D02*
X52324000Y-46875000D01*
X78613000Y-64960500D02*
X77787500Y-64960500D01*
X80010000Y-65786000D02*
X80073500Y-65849500D01*
X80073500Y-65849500D02*
X79375000Y-65087500D01*
X80010000Y-66675000D02*
X80010000Y-65786000D01*
X55487000Y-51689000D02*
X58420000Y-51689000D01*
X59055000Y-51054000D02*
X61722000Y-51054000D01*
X58420000Y-51689000D02*
X59055000Y-51054000D01*
X96231000Y-58934500D02*
X96231000Y-58159500D01*
X95031000Y-58159500D02*
X96231000Y-58159500D01*
X95031000Y-58159500D02*
X95031000Y-58934500D01*
X94656000Y-56997000D02*
X94656000Y-57784500D01*
X94656000Y-57784500D02*
X95031000Y-58159500D01*
X81395000Y-63881000D02*
X82804000Y-63881000D01*
X72771000Y-79502000D02*
X72771000Y-80327500D01*
X74053000Y-79502000D02*
X72771000Y-79502000D01*
X74231500Y-80772000D02*
X74231500Y-82105500D01*
X72771000Y-80327500D02*
X73152000Y-80708500D01*
X72771000Y-73787000D02*
X72771000Y-74422000D01*
X74053000Y-73787000D02*
X72771000Y-73787000D01*
X74104500Y-76454000D02*
X74104500Y-77597000D01*
X74295000Y-75057000D02*
X74866500Y-75692000D01*
X74295000Y-74930000D02*
X74295000Y-75057000D01*
X72771000Y-74422000D02*
X73215500Y-74866500D01*
X72707500Y-66611500D02*
X72644000Y-66675000D01*
X74116500Y-66611500D02*
X72707500Y-66611500D01*
X74104500Y-71120000D02*
X74104500Y-72263000D01*
X74358500Y-69024500D02*
X74358500Y-70040500D01*
X73406000Y-68008500D02*
X74358500Y-68008500D01*
X73152000Y-67754500D02*
X73406000Y-68008500D01*
X75692000Y-63754000D02*
X75692000Y-64960500D01*
X76025500Y-63420500D02*
X75692000Y-63754000D01*
X76025500Y-62230500D02*
X76025500Y-63420500D01*
X73215500Y-65278000D02*
X73025000Y-65468500D01*
X74485500Y-65278000D02*
X73215500Y-65278000D01*
X80137000Y-75311000D02*
X80137000Y-76136500D01*
X78982000Y-75311000D02*
X80137000Y-75311000D01*
X78422500Y-83121500D02*
X78041500Y-83502500D01*
X78422500Y-82486500D02*
X78422500Y-83121500D01*
X78422500Y-80264000D02*
X78422500Y-81343500D01*
X77914500Y-79502000D02*
X77406500Y-79502000D01*
X78613000Y-78803500D02*
X77914500Y-79502000D01*
X78613000Y-76581000D02*
X78613000Y-77660500D01*
X80137000Y-76136500D02*
X79883000Y-76390500D01*
X80010000Y-66675000D02*
X80010000Y-67437000D01*
X78982000Y-66675000D02*
X80010000Y-66675000D01*
X80010000Y-67437000D02*
X79756000Y-67691000D01*
X78740000Y-70993000D02*
X78740000Y-72072500D01*
X78613000Y-68961000D02*
X78613000Y-69977000D01*
X94656000Y-56997000D02*
X94656000Y-56746500D01*
X94656000Y-56746500D02*
X93218000Y-56388000D01*
X72771000Y-83566000D02*
X74053000Y-83566000D01*
X78025500Y-62230500D02*
X78025500Y-60880500D01*
X78025500Y-60880500D02*
X77025500Y-59880500D01*
X76025500Y-62230500D02*
X76025500Y-60880500D01*
X76025500Y-60880500D02*
X77025500Y-59880500D01*
X57350000Y-40830000D02*
X57350000Y-40967000D01*
X57350000Y-40967000D02*
X58674000Y-42291000D01*
X58674000Y-42291000D02*
X58674000Y-47752000D01*
X57162000Y-58674000D02*
X55753000Y-58674000D01*
X57162000Y-61214000D02*
X56388000Y-61214000D01*
X56388000Y-61214000D02*
X55499000Y-62103000D01*
X72263000Y-56400000D02*
X71616000Y-55753000D01*
X71616000Y-55753000D02*
X70866000Y-55753000D01*
X67018000Y-63095000D02*
X65429000Y-63095000D01*
X65429000Y-63095000D02*
X65405000Y-63119000D01*
X68618000Y-60095000D02*
X69366000Y-60095000D01*
X69366000Y-60095000D02*
X70231000Y-60960000D01*
X72719500Y-63817500D02*
X72580500Y-63817500D01*
X72580500Y-63817500D02*
X71501000Y-64897000D01*
X94656000Y-61128000D02*
X94320000Y-61128000D01*
X94320000Y-61128000D02*
X94107000Y-61341000D01*
X95306000Y-60097000D02*
X95306000Y-61285000D01*
X95306000Y-61285000D02*
X95250000Y-61341000D01*
X95250000Y-61341000D02*
X94869000Y-61341000D01*
X94869000Y-61341000D02*
X94656000Y-61128000D01*
X94656000Y-61128000D02*
X94656000Y-60097000D01*
X95956000Y-60097000D02*
X95956000Y-60635000D01*
X95956000Y-60635000D02*
X95250000Y-61341000D01*
X96647000Y-63615000D02*
X96647000Y-65024000D01*
X81331500Y-63817500D02*
X81395000Y-63881000D01*
X78918500Y-66611500D02*
X78982000Y-66675000D01*
X78918500Y-73723500D02*
X78982000Y-73787000D01*
X78982000Y-73787000D02*
X80137000Y-73787000D01*
X78918500Y-75247500D02*
X78982000Y-75311000D01*
X74116500Y-73723500D02*
X74053000Y-73787000D01*
X74116500Y-79565500D02*
X74053000Y-79502000D01*
X74116500Y-83629500D02*
X74053000Y-83566000D01*
X78168500Y-91630500D02*
X78232000Y-91694000D01*
X78232000Y-91694000D02*
X81026000Y-91694000D01*
X78168500Y-86550500D02*
X78232000Y-86487000D01*
X78232000Y-86487000D02*
X80899000Y-86487000D01*
X73088500Y-86550500D02*
X73025000Y-86614000D01*
X73025000Y-86614000D02*
X70231000Y-86614000D01*
X73088500Y-91630500D02*
X73025000Y-91694000D01*
X73025000Y-91694000D02*
X70358000Y-91694000D01*
X75628500Y-89090500D02*
X75628500Y-83641500D01*
X75628500Y-83641500D02*
X75628500Y-82347500D01*
X75628500Y-82347500D02*
X77152500Y-82347500D01*
X75628500Y-80847500D02*
X75628500Y-79577500D01*
X75628500Y-79577500D02*
X75628500Y-78283500D01*
X77152500Y-80847500D02*
X75628500Y-80847500D01*
X75628500Y-80847500D02*
X75616500Y-80835500D01*
X75616500Y-78295500D02*
X75628500Y-78283500D01*
X75628500Y-78283500D02*
X77406500Y-78283500D01*
X77406500Y-72441500D02*
X77406500Y-73711500D01*
X77406500Y-73711500D02*
X77418500Y-73723500D01*
X77418500Y-73723500D02*
X77418500Y-75247500D01*
X77406500Y-76783500D02*
X77406500Y-75259500D01*
X77406500Y-75259500D02*
X77418500Y-75247500D01*
X77418500Y-72453500D02*
X77406500Y-72441500D01*
X75628500Y-76783500D02*
X75628500Y-73735500D01*
X75628500Y-73735500D02*
X75628500Y-72441500D01*
X75628500Y-70941500D02*
X75628500Y-69647500D01*
X76525500Y-62230500D02*
X76525500Y-65702500D01*
X76525500Y-65702500D02*
X75616500Y-66611500D01*
X75628500Y-68147500D02*
X75628500Y-66623500D01*
X75628500Y-66623500D02*
X75616500Y-66611500D01*
X77406500Y-70941500D02*
X77406500Y-69647500D01*
X77418500Y-66611500D02*
X77025500Y-66218500D01*
X77025500Y-66218500D02*
X77025500Y-62230500D01*
X77406500Y-68147500D02*
X77406500Y-66623500D01*
X77406500Y-66623500D02*
X77418500Y-66611500D01*
X75525500Y-62230500D02*
X75525500Y-62511500D01*
X75525500Y-62511500D02*
X74219500Y-63817500D01*
X78525500Y-62230500D02*
X78525500Y-62511500D01*
X78525500Y-62511500D02*
X79831500Y-63817500D01*
X55537000Y-49403000D02*
X55537000Y-49187000D01*
X55537000Y-49187000D02*
X52324000Y-45974000D01*
X96647000Y-62115000D02*
X95365000Y-62115000D01*
X95365000Y-62115000D02*
X95123000Y-62357000D01*
X97155000Y-52197000D02*
X97155000Y-53606000D01*
X95377000Y-52197000D02*
X95377000Y-53606000D01*
X72263000Y-57900000D02*
X71997000Y-58166000D01*
X71997000Y-58166000D02*
X70612000Y-58166000D01*
X52270000Y-43370000D02*
X52270000Y-45920000D01*
X58674000Y-63754000D02*
X61722000Y-63754000D01*
X52270000Y-45920000D02*
X52324000Y-45974000D01*
X74675500Y-58880500D02*
X72862500Y-58880500D01*
X72862500Y-58880500D02*
X72263000Y-57900000D01*
X96606000Y-60097000D02*
X96606000Y-62074000D01*
X96606000Y-62074000D02*
X96647000Y-62115000D01*
X79375500Y-60380500D02*
X81069500Y-60380500D01*
X81069500Y-60380500D02*
X81597500Y-60908500D01*
X79375500Y-60880500D02*
X80184500Y-60880500D01*
X80950500Y-62408500D02*
X81597500Y-62408500D01*
X80454500Y-61912500D02*
X80950500Y-62408500D01*
X80454500Y-61150500D02*
X80454500Y-61912500D01*
X80184500Y-60880500D02*
X80454500Y-61150500D01*
X54810000Y-43370000D02*
X54810000Y-45920000D01*
X82740500Y-59880500D02*
X79375500Y-59880500D01*
X83058000Y-60198000D02*
X82740500Y-59880500D01*
X54810000Y-45920000D02*
X54864000Y-45974000D01*
X57350000Y-43370000D02*
X57350000Y-45920000D01*
X57350000Y-45920000D02*
X57404000Y-45974000D01*
X82613500Y-58737500D02*
X81335500Y-59380500D01*
X81335500Y-59380500D02*
X79375500Y-59380500D01*
X73660000Y-53594000D02*
X76581000Y-56057800D01*
X64970000Y-43370000D02*
X65024000Y-43424000D01*
X65024000Y-43424000D02*
X65659000Y-46037500D01*
X76581000Y-56057800D02*
X76525500Y-57530500D01*
X79375500Y-58880500D02*
X80692500Y-58880500D01*
X81153000Y-58420000D02*
X80692500Y-58880500D01*
X67690500Y-46038900D02*
X67690500Y-43550500D01*
X67690500Y-43550500D02*
X67510000Y-43370000D01*
X67510000Y-43370000D02*
X67564000Y-43424000D01*
X70050000Y-40830000D02*
X70050000Y-40821000D01*
X70050000Y-40821000D02*
X71374000Y-39497000D01*
X98552000Y-56388000D02*
X97270000Y-55106000D01*
X97270000Y-55106000D02*
X97155000Y-55106000D01*
X97155000Y-55106000D02*
X96606000Y-55655000D01*
X96606000Y-55655000D02*
X96606000Y-56997000D01*
X72590000Y-40830000D02*
X72590000Y-40840000D01*
X72590000Y-40840000D02*
X73787000Y-42037000D01*
X93599000Y-55118000D02*
X93611000Y-55106000D01*
X93611000Y-55106000D02*
X95377000Y-55106000D01*
X95377000Y-55106000D02*
X95956000Y-55685000D01*
X95956000Y-55685000D02*
X95956000Y-56997000D01*
X75130000Y-43370000D02*
X75130000Y-45920000D01*
X77525500Y-55300500D02*
X77525500Y-57530500D01*
X77089000Y-54864000D02*
X77525500Y-55300500D01*
X75130000Y-45920000D02*
X75184000Y-45974000D01*
X77670000Y-43370000D02*
X77670000Y-45920000D01*
X78025500Y-53832000D02*
X78025500Y-57530500D01*
X77978000Y-53784500D02*
X78025500Y-53832000D01*
X77670000Y-45920000D02*
X77724000Y-45974000D01*
X80210000Y-43370000D02*
X80210000Y-45920000D01*
X78525500Y-55205500D02*
X78525500Y-57530500D01*
X78867000Y-54864000D02*
X78525500Y-55205500D01*
X80210000Y-45920000D02*
X80264000Y-45974000D01*
X81407000Y-42164000D02*
X81407000Y-45974000D01*
X79375500Y-58380500D02*
X79375500Y-57276500D01*
X79756000Y-56896000D02*
X79375500Y-57276500D01*
X81407000Y-42164000D02*
X80210000Y-40967000D01*
X80210000Y-40830000D02*
X80210000Y-40967000D01*
X58662000Y-61214000D02*
X61722000Y-61214000D01*
X61722000Y-61214000D02*
X64262000Y-61214000D01*
X72136000Y-60071000D02*
X72445500Y-60380500D01*
X72445500Y-60380500D02*
X74675500Y-60380500D01*
X58662000Y-58674000D02*
X61722000Y-58674000D01*
X61722000Y-58674000D02*
X64262000Y-58674000D01*
X71374000Y-59055000D02*
X72263000Y-59055000D01*
X72263000Y-59055000D02*
X73088500Y-59880500D01*
X73088500Y-59880500D02*
X74675500Y-59880500D01*
X61722000Y-56134000D02*
X64135000Y-56134000D01*
X73405500Y-57530500D02*
X75525500Y-57530500D01*
X73279000Y-57404000D02*
X73405500Y-57530500D01*
X64135000Y-56134000D02*
X64262000Y-56261000D01*
X76025500Y-57530500D02*
X76025500Y-56645300D01*
X64211200Y-53619400D02*
X61747400Y-53619400D01*
X70637400Y-54635400D02*
X70612000Y-54610000D01*
X73990200Y-54610000D02*
X70637400Y-54635400D01*
X76025500Y-56645300D02*
X73990200Y-54610000D01*
X61747400Y-53619400D02*
X61722000Y-53594000D01*
X74675500Y-60880500D02*
X71802500Y-60880500D01*
X67018000Y-59093000D02*
X67018000Y-60095000D01*
X67437000Y-58674000D02*
X67018000Y-59093000D01*
X69596000Y-58674000D02*
X67437000Y-58674000D01*
X71802500Y-60880500D02*
X69596000Y-58674000D01*
X74675500Y-61380500D02*
X72223500Y-61380500D01*
X70509000Y-63095000D02*
X68618000Y-63095000D01*
X72223500Y-61380500D02*
X70509000Y-63095000D01*
X53987000Y-51689000D02*
X53987000Y-49453000D01*
X53987000Y-49453000D02*
X53937000Y-49403000D01*
D32*
G36*
X101854000Y-45720000D02*
X101864006Y-45769410D01*
X101892447Y-45811035D01*
X101934841Y-45838315D01*
X101981000Y-45847000D01*
X108077767Y-45847000D01*
X108215000Y-68490410D01*
X108215000Y-87503000D01*
X101854000Y-87503000D01*
X101804590Y-87513006D01*
X101762965Y-87541447D01*
X101735685Y-87583841D01*
X101727000Y-87630000D01*
X101727000Y-93853000D01*
X51181000Y-93853000D01*
X51181000Y-92855368D01*
X72043237Y-92855368D01*
X72154141Y-93132599D01*
X72800093Y-93375823D01*
X73489953Y-93353336D01*
X74022859Y-93132599D01*
X74133763Y-92855368D01*
X77123237Y-92855368D01*
X77234141Y-93132599D01*
X77880093Y-93375823D01*
X78569953Y-93353336D01*
X79102859Y-93132599D01*
X79213763Y-92855368D01*
X78168500Y-91810105D01*
X77123237Y-92855368D01*
X74133763Y-92855368D01*
X73088500Y-91810105D01*
X72043237Y-92855368D01*
X51181000Y-92855368D01*
X51181000Y-91342093D01*
X71343177Y-91342093D01*
X71365664Y-92031953D01*
X71586401Y-92564859D01*
X71863632Y-92675763D01*
X72908895Y-91630500D01*
X73268105Y-91630500D01*
X74313368Y-92675763D01*
X74590599Y-92564859D01*
X74833823Y-91918907D01*
X74815021Y-91342093D01*
X76423177Y-91342093D01*
X76445664Y-92031953D01*
X76666401Y-92564859D01*
X76943632Y-92675763D01*
X77988895Y-91630500D01*
X78348105Y-91630500D01*
X79393368Y-92675763D01*
X79670599Y-92564859D01*
X79913823Y-91918907D01*
X79891336Y-91229047D01*
X79670599Y-90696141D01*
X79393368Y-90585237D01*
X78348105Y-91630500D01*
X77988895Y-91630500D01*
X76943632Y-90585237D01*
X76666401Y-90696141D01*
X76423177Y-91342093D01*
X74815021Y-91342093D01*
X74811336Y-91229047D01*
X74590599Y-90696141D01*
X74313368Y-90585237D01*
X73268105Y-91630500D01*
X72908895Y-91630500D01*
X71863632Y-90585237D01*
X71586401Y-90696141D01*
X71343177Y-91342093D01*
X51181000Y-91342093D01*
X51181000Y-90405632D01*
X72043237Y-90405632D01*
X73088500Y-91450895D01*
X74133763Y-90405632D01*
X74022859Y-90128401D01*
X73376907Y-89885177D01*
X72687047Y-89907664D01*
X72154141Y-90128401D01*
X72043237Y-90405632D01*
X51181000Y-90405632D01*
X51181000Y-87775368D01*
X72043237Y-87775368D01*
X72154141Y-88052599D01*
X72800093Y-88295823D01*
X73489953Y-88273336D01*
X74022859Y-88052599D01*
X74133763Y-87775368D01*
X73088500Y-86730105D01*
X72043237Y-87775368D01*
X51181000Y-87775368D01*
X51181000Y-87630000D01*
X51170994Y-87580590D01*
X51142553Y-87538965D01*
X51100159Y-87511685D01*
X51054000Y-87503000D01*
X44585000Y-87503000D01*
X44585000Y-86262093D01*
X71343177Y-86262093D01*
X71365664Y-86951953D01*
X71586401Y-87484859D01*
X71863632Y-87595763D01*
X72908895Y-86550500D01*
X73268105Y-86550500D01*
X74313368Y-87595763D01*
X74590599Y-87484859D01*
X74833823Y-86838907D01*
X74811336Y-86149047D01*
X74590599Y-85616141D01*
X74313368Y-85505237D01*
X73268105Y-86550500D01*
X72908895Y-86550500D01*
X71863632Y-85505237D01*
X71586401Y-85616141D01*
X71343177Y-86262093D01*
X44585000Y-86262093D01*
X44585000Y-85325632D01*
X72043237Y-85325632D01*
X73088500Y-86370895D01*
X74133763Y-85325632D01*
X74022859Y-85048401D01*
X73376907Y-84805177D01*
X72687047Y-84827664D01*
X72154141Y-85048401D01*
X72043237Y-85325632D01*
X44585000Y-85325632D01*
X44585000Y-83915250D01*
X73081500Y-83915250D01*
X73081500Y-84130810D01*
X73178173Y-84364199D01*
X73356802Y-84542827D01*
X73590191Y-84639500D01*
X73830750Y-84639500D01*
X73989500Y-84480750D01*
X73989500Y-83756500D01*
X73240250Y-83756500D01*
X73081500Y-83915250D01*
X44585000Y-83915250D01*
X44585000Y-83128190D01*
X73081500Y-83128190D01*
X73081500Y-83343750D01*
X73240250Y-83502500D01*
X73989500Y-83502500D01*
X73989500Y-82778250D01*
X73830750Y-82619500D01*
X73590191Y-82619500D01*
X73356802Y-82716173D01*
X73178173Y-82894801D01*
X73081500Y-83128190D01*
X44585000Y-83128190D01*
X44585000Y-79851250D01*
X73081500Y-79851250D01*
X73081500Y-80066810D01*
X73178173Y-80300199D01*
X73356802Y-80478827D01*
X73590191Y-80575500D01*
X73830750Y-80575500D01*
X73989500Y-80416750D01*
X73989500Y-79692500D01*
X73240250Y-79692500D01*
X73081500Y-79851250D01*
X44585000Y-79851250D01*
X44585000Y-79064190D01*
X73081500Y-79064190D01*
X73081500Y-79279750D01*
X73240250Y-79438500D01*
X73989500Y-79438500D01*
X73989500Y-78714250D01*
X73830750Y-78555500D01*
X73590191Y-78555500D01*
X73356802Y-78652173D01*
X73178173Y-78830801D01*
X73081500Y-79064190D01*
X44585000Y-79064190D01*
X44585000Y-76167466D01*
X44621376Y-75984591D01*
X44621625Y-75984218D01*
X44869452Y-75819000D01*
X49276000Y-75819000D01*
X49325410Y-75808994D01*
X49367035Y-75780553D01*
X49394315Y-75738159D01*
X49403000Y-75692000D01*
X49403000Y-74840162D01*
X49447180Y-74733500D01*
X49495718Y-74616319D01*
X49571838Y-74233636D01*
X49571838Y-74166170D01*
X49585000Y-74100000D01*
X49585000Y-74009250D01*
X73081500Y-74009250D01*
X73081500Y-74224810D01*
X73178173Y-74458199D01*
X73356802Y-74636827D01*
X73590191Y-74733500D01*
X73830750Y-74733500D01*
X73989500Y-74574750D01*
X73989500Y-73850500D01*
X73240250Y-73850500D01*
X73081500Y-74009250D01*
X49585000Y-74009250D01*
X49585000Y-73222190D01*
X73081500Y-73222190D01*
X73081500Y-73437750D01*
X73240250Y-73596500D01*
X73989500Y-73596500D01*
X73989500Y-72872250D01*
X73830750Y-72713500D01*
X73590191Y-72713500D01*
X73356802Y-72810173D01*
X73178173Y-72988801D01*
X73081500Y-73222190D01*
X49585000Y-73222190D01*
X49585000Y-66897250D01*
X73231500Y-66897250D01*
X73231500Y-67187810D01*
X73328173Y-67421199D01*
X73506802Y-67599827D01*
X73740191Y-67696500D01*
X73832750Y-67696500D01*
X73991500Y-67537750D01*
X73991500Y-66738500D01*
X73390250Y-66738500D01*
X73231500Y-66897250D01*
X49585000Y-66897250D01*
X49585000Y-66035190D01*
X73231500Y-66035190D01*
X73231500Y-66325750D01*
X73390250Y-66484500D01*
X73991500Y-66484500D01*
X73991500Y-65685250D01*
X73832750Y-65526500D01*
X73740191Y-65526500D01*
X73506802Y-65623173D01*
X73328173Y-65801801D01*
X73231500Y-66035190D01*
X49585000Y-66035190D01*
X49585000Y-61499750D01*
X56277000Y-61499750D01*
X56277000Y-61790310D01*
X56373673Y-62023699D01*
X56552302Y-62202327D01*
X56785691Y-62299000D01*
X56878250Y-62299000D01*
X57037000Y-62140250D01*
X57037000Y-61341000D01*
X56435750Y-61341000D01*
X56277000Y-61499750D01*
X49585000Y-61499750D01*
X49585000Y-60637690D01*
X56277000Y-60637690D01*
X56277000Y-60928250D01*
X56435750Y-61087000D01*
X57037000Y-61087000D01*
X57037000Y-60287750D01*
X56878250Y-60129000D01*
X56785691Y-60129000D01*
X56552302Y-60225673D01*
X56373673Y-60404301D01*
X56277000Y-60637690D01*
X49585000Y-60637690D01*
X49585000Y-59100000D01*
X49571838Y-59033830D01*
X49571838Y-58966364D01*
X49570523Y-58959750D01*
X56277000Y-58959750D01*
X56277000Y-59250310D01*
X56373673Y-59483699D01*
X56552302Y-59662327D01*
X56785691Y-59759000D01*
X56878250Y-59759000D01*
X57037000Y-59600250D01*
X57037000Y-58801000D01*
X56435750Y-58801000D01*
X56277000Y-58959750D01*
X49570523Y-58959750D01*
X49495718Y-58583681D01*
X49407611Y-58370971D01*
X49393437Y-58336751D01*
X49233702Y-58097690D01*
X56277000Y-58097690D01*
X56277000Y-58388250D01*
X56435750Y-58547000D01*
X57037000Y-58547000D01*
X57037000Y-57747750D01*
X57287000Y-57747750D01*
X57287000Y-58547000D01*
X57309000Y-58547000D01*
X57309000Y-58801000D01*
X57287000Y-58801000D01*
X57287000Y-59600250D01*
X57445750Y-59759000D01*
X57538309Y-59759000D01*
X57771698Y-59662327D01*
X57912936Y-59521090D01*
X57947910Y-59575441D01*
X58160110Y-59720431D01*
X58412000Y-59771440D01*
X58912000Y-59771440D01*
X59147317Y-59727162D01*
X59363441Y-59588090D01*
X59468726Y-59434000D01*
X60449046Y-59434000D01*
X60642853Y-59724054D01*
X60972026Y-59944000D01*
X60642853Y-60163946D01*
X60449046Y-60454000D01*
X59467105Y-60454000D01*
X59376090Y-60312559D01*
X59163890Y-60167569D01*
X58912000Y-60116560D01*
X58412000Y-60116560D01*
X58176683Y-60160838D01*
X57960559Y-60299910D01*
X57914031Y-60368006D01*
X57771698Y-60225673D01*
X57538309Y-60129000D01*
X57445750Y-60129000D01*
X57287000Y-60287750D01*
X57287000Y-61087000D01*
X57309000Y-61087000D01*
X57309000Y-61341000D01*
X57287000Y-61341000D01*
X57287000Y-62140250D01*
X57445750Y-62299000D01*
X57538309Y-62299000D01*
X57771698Y-62202327D01*
X57912936Y-62061090D01*
X57947910Y-62115441D01*
X58160110Y-62260431D01*
X58412000Y-62311440D01*
X58912000Y-62311440D01*
X59147317Y-62267162D01*
X59363441Y-62128090D01*
X59468726Y-61974000D01*
X60449046Y-61974000D01*
X60642853Y-62264054D01*
X60684452Y-62291850D01*
X60636683Y-62300838D01*
X60420559Y-62439910D01*
X60275569Y-62652110D01*
X60224560Y-62904000D01*
X60224560Y-62994000D01*
X59377761Y-62994000D01*
X59261046Y-62877081D01*
X58880777Y-62719180D01*
X58469029Y-62718821D01*
X58088485Y-62876058D01*
X57797081Y-63166954D01*
X57639180Y-63547223D01*
X57638821Y-63958971D01*
X57796058Y-64339515D01*
X58086954Y-64630919D01*
X58467223Y-64788820D01*
X58878971Y-64789179D01*
X59259515Y-64631942D01*
X59377663Y-64514000D01*
X60224560Y-64514000D01*
X60224560Y-64604000D01*
X60268838Y-64839317D01*
X60407910Y-65055441D01*
X60620110Y-65200431D01*
X60872000Y-65251440D01*
X62572000Y-65251440D01*
X62807317Y-65207162D01*
X63023441Y-65068090D01*
X63168431Y-64855890D01*
X63219440Y-64604000D01*
X63219440Y-63380750D01*
X65808000Y-63380750D01*
X65808000Y-63921309D01*
X65904673Y-64154698D01*
X66083301Y-64333327D01*
X66316690Y-64430000D01*
X66732250Y-64430000D01*
X66891000Y-64271250D01*
X66891000Y-63222000D01*
X65966750Y-63222000D01*
X65808000Y-63380750D01*
X63219440Y-63380750D01*
X63219440Y-62904000D01*
X63175162Y-62668683D01*
X63036090Y-62452559D01*
X62823890Y-62307569D01*
X62756459Y-62293914D01*
X62794207Y-62268691D01*
X65808000Y-62268691D01*
X65808000Y-62809250D01*
X65966750Y-62968000D01*
X66891000Y-62968000D01*
X66891000Y-61918750D01*
X66732250Y-61760000D01*
X66316690Y-61760000D01*
X66083301Y-61856673D01*
X65904673Y-62035302D01*
X65808000Y-62268691D01*
X62794207Y-62268691D01*
X62801147Y-62264054D01*
X62994954Y-61974000D01*
X63558239Y-61974000D01*
X63674954Y-62090919D01*
X64055223Y-62248820D01*
X64466971Y-62249179D01*
X64847515Y-62091942D01*
X65138919Y-61801046D01*
X65296820Y-61420777D01*
X65297179Y-61009029D01*
X65139942Y-60628485D01*
X64849046Y-60337081D01*
X64468777Y-60179180D01*
X64057029Y-60178821D01*
X63676485Y-60336058D01*
X63558337Y-60454000D01*
X62994954Y-60454000D01*
X62801147Y-60163946D01*
X62471974Y-59944000D01*
X62801147Y-59724054D01*
X62994954Y-59434000D01*
X63558239Y-59434000D01*
X63674954Y-59550919D01*
X64055223Y-59708820D01*
X64466971Y-59709179D01*
X64847515Y-59551942D01*
X65004731Y-59395000D01*
X65795560Y-59395000D01*
X65795560Y-60795000D01*
X65839838Y-61030317D01*
X65978910Y-61246441D01*
X66191110Y-61391431D01*
X66443000Y-61442440D01*
X67593000Y-61442440D01*
X67828317Y-61398162D01*
X67832824Y-61395262D01*
X67916690Y-61430000D01*
X68332250Y-61430000D01*
X68491000Y-61271250D01*
X68491000Y-60222000D01*
X68745000Y-60222000D01*
X68745000Y-61271250D01*
X68903750Y-61430000D01*
X69319310Y-61430000D01*
X69552699Y-61333327D01*
X69731327Y-61154698D01*
X69828000Y-60921309D01*
X69828000Y-60380750D01*
X69669250Y-60222000D01*
X68745000Y-60222000D01*
X68491000Y-60222000D01*
X68471000Y-60222000D01*
X68471000Y-59968000D01*
X68491000Y-59968000D01*
X68491000Y-59948000D01*
X68745000Y-59948000D01*
X68745000Y-59968000D01*
X69669250Y-59968000D01*
X69742224Y-59895026D01*
X71188198Y-61341000D01*
X70194198Y-62335000D01*
X69829150Y-62335000D01*
X69796162Y-62159683D01*
X69657090Y-61943559D01*
X69444890Y-61798569D01*
X69193000Y-61747560D01*
X68043000Y-61747560D01*
X67807683Y-61791838D01*
X67803176Y-61794738D01*
X67719310Y-61760000D01*
X67303750Y-61760000D01*
X67145000Y-61918750D01*
X67145000Y-62968000D01*
X67165000Y-62968000D01*
X67165000Y-63222000D01*
X67145000Y-63222000D01*
X67145000Y-64271250D01*
X67303750Y-64430000D01*
X67719310Y-64430000D01*
X67805425Y-64394330D01*
X68043000Y-64442440D01*
X69193000Y-64442440D01*
X69428317Y-64398162D01*
X69644441Y-64259090D01*
X69750921Y-64103250D01*
X71684500Y-64103250D01*
X71684500Y-64318810D01*
X71781173Y-64552199D01*
X71959802Y-64730827D01*
X72193191Y-64827500D01*
X72433750Y-64827500D01*
X72592500Y-64668750D01*
X72592500Y-63944500D01*
X71843250Y-63944500D01*
X71684500Y-64103250D01*
X69750921Y-64103250D01*
X69789431Y-64046890D01*
X69828290Y-63855000D01*
X70509000Y-63855000D01*
X70799839Y-63797148D01*
X71046401Y-63632401D01*
X71362612Y-63316190D01*
X71684500Y-63316190D01*
X71684500Y-63531750D01*
X71843250Y-63690500D01*
X72592500Y-63690500D01*
X72592500Y-62966250D01*
X72433750Y-62807500D01*
X72193191Y-62807500D01*
X71959802Y-62904173D01*
X71781173Y-63082801D01*
X71684500Y-63316190D01*
X71362612Y-63316190D01*
X72538302Y-62140500D01*
X73990616Y-62140500D01*
X74175500Y-62177940D01*
X74728060Y-62177940D01*
X74728060Y-62234138D01*
X74167138Y-62795060D01*
X73819500Y-62795060D01*
X73584183Y-62839338D01*
X73480854Y-62905829D01*
X73479198Y-62904173D01*
X73245809Y-62807500D01*
X73005250Y-62807500D01*
X72846500Y-62966250D01*
X72846500Y-63690500D01*
X72866500Y-63690500D01*
X72866500Y-63944500D01*
X72846500Y-63944500D01*
X72846500Y-64668750D01*
X73005250Y-64827500D01*
X73245809Y-64827500D01*
X73479198Y-64730827D01*
X73480568Y-64729457D01*
X73567610Y-64788931D01*
X73819500Y-64839940D01*
X74619500Y-64839940D01*
X74854817Y-64795662D01*
X75070941Y-64656590D01*
X75215931Y-64444390D01*
X75266940Y-64192500D01*
X75266940Y-63844862D01*
X75747148Y-63364654D01*
X75749191Y-63365500D01*
X75765500Y-63365500D01*
X75765500Y-65387698D01*
X75639138Y-65514060D01*
X75366500Y-65514060D01*
X75131183Y-65558338D01*
X74915059Y-65697410D01*
X74868531Y-65765506D01*
X74726198Y-65623173D01*
X74492809Y-65526500D01*
X74400250Y-65526500D01*
X74241500Y-65685250D01*
X74241500Y-66484500D01*
X74263500Y-66484500D01*
X74263500Y-66738500D01*
X74241500Y-66738500D01*
X74241500Y-67537750D01*
X74400250Y-67696500D01*
X74492809Y-67696500D01*
X74627703Y-67640625D01*
X74606060Y-67747500D01*
X74606060Y-68547500D01*
X74650338Y-68782817D01*
X74724120Y-68897478D01*
X74657069Y-68995610D01*
X74606060Y-69247500D01*
X74606060Y-70047500D01*
X74650338Y-70282817D01*
X74669187Y-70312109D01*
X74582069Y-70439610D01*
X74531060Y-70691500D01*
X74531060Y-71191500D01*
X74575338Y-71426817D01*
X74714410Y-71642941D01*
X74784211Y-71690634D01*
X74727059Y-71727410D01*
X74582069Y-71939610D01*
X74531060Y-72191500D01*
X74531060Y-72691500D01*
X74535200Y-72713500D01*
X74402250Y-72713500D01*
X74243500Y-72872250D01*
X74243500Y-73596500D01*
X74263500Y-73596500D01*
X74263500Y-73850500D01*
X74243500Y-73850500D01*
X74243500Y-74574750D01*
X74402250Y-74733500D01*
X74642809Y-74733500D01*
X74868500Y-74640016D01*
X74868500Y-75978395D01*
X74727059Y-76069410D01*
X74582069Y-76281610D01*
X74531060Y-76533500D01*
X74531060Y-77033500D01*
X74575338Y-77268817D01*
X74714410Y-77484941D01*
X74784211Y-77532634D01*
X74727059Y-77569410D01*
X74582069Y-77781610D01*
X74531060Y-78033500D01*
X74531060Y-78533500D01*
X74535200Y-78555500D01*
X74402250Y-78555500D01*
X74243500Y-78714250D01*
X74243500Y-79438500D01*
X74263500Y-79438500D01*
X74263500Y-79692500D01*
X74243500Y-79692500D01*
X74243500Y-80416750D01*
X74402250Y-80575500D01*
X74535515Y-80575500D01*
X74531060Y-80597500D01*
X74531060Y-81097500D01*
X74575338Y-81332817D01*
X74714410Y-81548941D01*
X74784211Y-81596634D01*
X74727059Y-81633410D01*
X74582069Y-81845610D01*
X74531060Y-82097500D01*
X74531060Y-82597500D01*
X74535200Y-82619500D01*
X74402250Y-82619500D01*
X74243500Y-82778250D01*
X74243500Y-83502500D01*
X74263500Y-83502500D01*
X74263500Y-83756500D01*
X74243500Y-83756500D01*
X74243500Y-84480750D01*
X74402250Y-84639500D01*
X74642809Y-84639500D01*
X74868500Y-84546016D01*
X74868500Y-87635453D01*
X74703557Y-87703606D01*
X74243222Y-88163137D01*
X73993784Y-88763852D01*
X73993216Y-89414295D01*
X74241606Y-90015443D01*
X74701137Y-90475778D01*
X75301852Y-90725216D01*
X75952295Y-90725784D01*
X76553443Y-90477394D01*
X76625330Y-90405632D01*
X77123237Y-90405632D01*
X78168500Y-91450895D01*
X79213763Y-90405632D01*
X79102859Y-90128401D01*
X78456907Y-89885177D01*
X77767047Y-89907664D01*
X77234141Y-90128401D01*
X77123237Y-90405632D01*
X76625330Y-90405632D01*
X77013778Y-90017863D01*
X77263216Y-89417148D01*
X77263784Y-88766705D01*
X77015394Y-88165557D01*
X76625887Y-87775368D01*
X77123237Y-87775368D01*
X77234141Y-88052599D01*
X77880093Y-88295823D01*
X78569953Y-88273336D01*
X79102859Y-88052599D01*
X79213763Y-87775368D01*
X78168500Y-86730105D01*
X77123237Y-87775368D01*
X76625887Y-87775368D01*
X76555863Y-87705222D01*
X76388500Y-87635727D01*
X76388500Y-86262093D01*
X76423177Y-86262093D01*
X76445664Y-86951953D01*
X76666401Y-87484859D01*
X76943632Y-87595763D01*
X77988895Y-86550500D01*
X78348105Y-86550500D01*
X79393368Y-87595763D01*
X79670599Y-87484859D01*
X79913823Y-86838907D01*
X79891336Y-86149047D01*
X79670599Y-85616141D01*
X79393368Y-85505237D01*
X78348105Y-86550500D01*
X77988895Y-86550500D01*
X76943632Y-85505237D01*
X76666401Y-85616141D01*
X76423177Y-86262093D01*
X76388500Y-86262093D01*
X76388500Y-85325632D01*
X77123237Y-85325632D01*
X78168500Y-86370895D01*
X79213763Y-85325632D01*
X79102859Y-85048401D01*
X78456907Y-84805177D01*
X77767047Y-84827664D01*
X77234141Y-85048401D01*
X77123237Y-85325632D01*
X76388500Y-85325632D01*
X76388500Y-84519709D01*
X76467941Y-84468590D01*
X76612931Y-84256390D01*
X76663940Y-84004500D01*
X76663940Y-83371944D01*
X76777500Y-83394940D01*
X77527500Y-83394940D01*
X77762817Y-83350662D01*
X77978941Y-83211590D01*
X78123931Y-82999390D01*
X78174940Y-82747500D01*
X78174940Y-81947500D01*
X78130662Y-81712183D01*
X78056880Y-81597522D01*
X78123931Y-81499390D01*
X78174940Y-81247500D01*
X78174940Y-80447500D01*
X78130662Y-80212183D01*
X77991590Y-79996059D01*
X77779390Y-79851069D01*
X77527500Y-79800060D01*
X76777500Y-79800060D01*
X76663940Y-79821428D01*
X76663940Y-79200897D01*
X76779610Y-79279931D01*
X77031500Y-79330940D01*
X77781500Y-79330940D01*
X78016817Y-79286662D01*
X78232941Y-79147590D01*
X78377931Y-78935390D01*
X78428940Y-78683500D01*
X78428940Y-77883500D01*
X78384662Y-77648183D01*
X78310880Y-77533522D01*
X78377931Y-77435390D01*
X78428940Y-77183500D01*
X78428940Y-76383500D01*
X78408960Y-76277314D01*
X78542191Y-76332500D01*
X78634750Y-76332500D01*
X78793500Y-76173750D01*
X78793500Y-75374500D01*
X79043500Y-75374500D01*
X79043500Y-76173750D01*
X79202250Y-76332500D01*
X79294809Y-76332500D01*
X79528198Y-76235827D01*
X79706827Y-76057199D01*
X79803500Y-75823810D01*
X79803500Y-75600000D01*
X87215000Y-75600000D01*
X87215000Y-90600000D01*
X87228162Y-90666170D01*
X87228162Y-90733636D01*
X87304282Y-91116319D01*
X87374152Y-91285000D01*
X87406563Y-91363248D01*
X87623336Y-91687672D01*
X87812328Y-91876664D01*
X88136751Y-92093437D01*
X88239032Y-92135803D01*
X88383681Y-92195718D01*
X88766364Y-92271838D01*
X89033636Y-92271838D01*
X89416319Y-92195718D01*
X89663248Y-92093437D01*
X89663249Y-92093436D01*
X89987672Y-91876664D01*
X90176664Y-91687672D01*
X90393437Y-91363249D01*
X90435803Y-91260968D01*
X90495718Y-91116319D01*
X90571838Y-90733636D01*
X90571838Y-90666170D01*
X90585000Y-90600000D01*
X90585000Y-75600000D01*
X90571838Y-75533830D01*
X90571838Y-75466364D01*
X90495718Y-75083681D01*
X90415594Y-74890243D01*
X90393437Y-74836751D01*
X90176664Y-74512328D01*
X89987672Y-74323336D01*
X89663248Y-74106563D01*
X89643782Y-74098500D01*
X89416319Y-74004282D01*
X89033636Y-73928162D01*
X88900000Y-73928162D01*
X88383681Y-74004282D01*
X88239032Y-74064197D01*
X88136751Y-74106563D01*
X87812328Y-74323336D01*
X87623336Y-74512328D01*
X87406564Y-74836751D01*
X87406563Y-74836752D01*
X87304282Y-75083681D01*
X87228162Y-75466364D01*
X87228162Y-75533830D01*
X87215000Y-75600000D01*
X79803500Y-75600000D01*
X79803500Y-75533250D01*
X79644750Y-75374500D01*
X79043500Y-75374500D01*
X78793500Y-75374500D01*
X78771500Y-75374500D01*
X78771500Y-75120500D01*
X78793500Y-75120500D01*
X78793500Y-74321250D01*
X79043500Y-74321250D01*
X79043500Y-75120500D01*
X79644750Y-75120500D01*
X79803500Y-74961750D01*
X79803500Y-74671190D01*
X79756735Y-74558290D01*
X79856827Y-74458199D01*
X79953500Y-74224810D01*
X79953500Y-74009250D01*
X79794750Y-73850500D01*
X79045500Y-73850500D01*
X79045500Y-74319250D01*
X79043500Y-74321250D01*
X78793500Y-74321250D01*
X78791500Y-74319250D01*
X78791500Y-73850500D01*
X78771500Y-73850500D01*
X78771500Y-73596500D01*
X78791500Y-73596500D01*
X78791500Y-72872250D01*
X79045500Y-72872250D01*
X79045500Y-73596500D01*
X79794750Y-73596500D01*
X79953500Y-73437750D01*
X79953500Y-73222190D01*
X79856827Y-72988801D01*
X79678198Y-72810173D01*
X79444809Y-72713500D01*
X79204250Y-72713500D01*
X79045500Y-72872250D01*
X78791500Y-72872250D01*
X78632750Y-72713500D01*
X78499485Y-72713500D01*
X78503940Y-72691500D01*
X78503940Y-72191500D01*
X78459662Y-71956183D01*
X78320590Y-71740059D01*
X78250789Y-71692366D01*
X78307941Y-71655590D01*
X78452931Y-71443390D01*
X78503940Y-71191500D01*
X78503940Y-70691500D01*
X78459662Y-70456183D01*
X78368062Y-70313833D01*
X78377931Y-70299390D01*
X78428940Y-70047500D01*
X78428940Y-69247500D01*
X78384662Y-69012183D01*
X78310880Y-68897522D01*
X78377931Y-68799390D01*
X78428940Y-68547500D01*
X78428940Y-67747500D01*
X78408960Y-67641314D01*
X78542191Y-67696500D01*
X78634750Y-67696500D01*
X78793500Y-67537750D01*
X78793500Y-66738500D01*
X79043500Y-66738500D01*
X79043500Y-67537750D01*
X79202250Y-67696500D01*
X79294809Y-67696500D01*
X79528198Y-67599827D01*
X79706827Y-67421199D01*
X79803500Y-67187810D01*
X79803500Y-66897250D01*
X79644750Y-66738500D01*
X79043500Y-66738500D01*
X78793500Y-66738500D01*
X78771500Y-66738500D01*
X78771500Y-66484500D01*
X78793500Y-66484500D01*
X78793500Y-65685250D01*
X79043500Y-65685250D01*
X79043500Y-66484500D01*
X79644750Y-66484500D01*
X79803500Y-66325750D01*
X79803500Y-66035190D01*
X79706827Y-65801801D01*
X79528198Y-65623173D01*
X79294809Y-65526500D01*
X79202250Y-65526500D01*
X79043500Y-65685250D01*
X78793500Y-65685250D01*
X78634750Y-65526500D01*
X78542191Y-65526500D01*
X78308802Y-65623173D01*
X78167564Y-65764410D01*
X78132590Y-65710059D01*
X77920390Y-65565069D01*
X77785500Y-65537753D01*
X77785500Y-63365500D01*
X77791750Y-63365500D01*
X77803371Y-63353879D01*
X77910817Y-63333662D01*
X78025478Y-63259880D01*
X78123610Y-63326931D01*
X78245330Y-63351580D01*
X78259250Y-63365500D01*
X78301809Y-63365500D01*
X78303852Y-63364654D01*
X78784060Y-63844862D01*
X78784060Y-64192500D01*
X78828338Y-64427817D01*
X78967410Y-64643941D01*
X79179610Y-64788931D01*
X79431500Y-64839940D01*
X80231500Y-64839940D01*
X80466817Y-64795662D01*
X80570146Y-64729171D01*
X80571802Y-64730827D01*
X80805191Y-64827500D01*
X81045750Y-64827500D01*
X81204500Y-64668750D01*
X81204500Y-63944500D01*
X81458500Y-63944500D01*
X81458500Y-64668750D01*
X81617250Y-64827500D01*
X81857809Y-64827500D01*
X82091198Y-64730827D01*
X82269827Y-64552199D01*
X82366500Y-64318810D01*
X82366500Y-64103250D01*
X82207750Y-63944500D01*
X81458500Y-63944500D01*
X81204500Y-63944500D01*
X81184500Y-63944500D01*
X81184500Y-63900750D01*
X95637000Y-63900750D01*
X95637000Y-64141309D01*
X95733673Y-64374698D01*
X95912301Y-64553327D01*
X96145690Y-64650000D01*
X96361250Y-64650000D01*
X96520000Y-64491250D01*
X96520000Y-63742000D01*
X96774000Y-63742000D01*
X96774000Y-64491250D01*
X96932750Y-64650000D01*
X97148310Y-64650000D01*
X97381699Y-64553327D01*
X97560327Y-64374698D01*
X97657000Y-64141309D01*
X97657000Y-63900750D01*
X97498250Y-63742000D01*
X96774000Y-63742000D01*
X96520000Y-63742000D01*
X95795750Y-63742000D01*
X95637000Y-63900750D01*
X81184500Y-63900750D01*
X81184500Y-63690500D01*
X81204500Y-63690500D01*
X81204500Y-63670500D01*
X81458500Y-63670500D01*
X81458500Y-63690500D01*
X82207750Y-63690500D01*
X82366500Y-63531750D01*
X82366500Y-63316190D01*
X82331056Y-63230621D01*
X82498941Y-63122590D01*
X82643931Y-62910390D01*
X82694940Y-62658500D01*
X82694940Y-62158500D01*
X82650662Y-61923183D01*
X82511590Y-61707059D01*
X82441789Y-61659366D01*
X82498941Y-61622590D01*
X82643931Y-61410390D01*
X82693179Y-61167195D01*
X82851223Y-61232820D01*
X83262971Y-61233179D01*
X83643515Y-61075942D01*
X83934919Y-60785046D01*
X84092820Y-60404777D01*
X84093179Y-59993029D01*
X83935942Y-59612485D01*
X83645046Y-59321081D01*
X83514386Y-59266826D01*
X83648320Y-58944277D01*
X83648679Y-58532529D01*
X83491442Y-58151985D01*
X83200546Y-57860581D01*
X82820277Y-57702680D01*
X82408529Y-57702321D01*
X82039360Y-57854858D01*
X82030942Y-57834485D01*
X81740046Y-57543081D01*
X81359777Y-57385180D01*
X80948029Y-57384821D01*
X80578267Y-57537603D01*
X80632919Y-57483046D01*
X80790820Y-57102777D01*
X80791179Y-56691029D01*
X80633942Y-56310485D01*
X80343046Y-56019081D01*
X79962777Y-55861180D01*
X79551029Y-55860821D01*
X79285500Y-55970535D01*
X79285500Y-55810951D01*
X79452515Y-55741942D01*
X79743919Y-55451046D01*
X79797100Y-55322971D01*
X92563821Y-55322971D01*
X92721058Y-55703515D01*
X93011954Y-55994919D01*
X93392223Y-56152820D01*
X93803971Y-56153179D01*
X94184515Y-55995942D01*
X94314684Y-55866000D01*
X94548614Y-55866000D01*
X94675110Y-55952431D01*
X94927000Y-56003440D01*
X95196000Y-56003440D01*
X95196000Y-56024560D01*
X95131000Y-56024560D01*
X94990914Y-56050919D01*
X94957310Y-56037000D01*
X94902250Y-56037000D01*
X94824800Y-56114450D01*
X94679559Y-56207910D01*
X94568500Y-56370450D01*
X94568500Y-56195750D01*
X94409750Y-56037000D01*
X94354690Y-56037000D01*
X94121301Y-56133673D01*
X93942673Y-56312302D01*
X93846000Y-56545691D01*
X93846000Y-56711250D01*
X94004750Y-56870000D01*
X94483560Y-56870000D01*
X94483560Y-57124000D01*
X94004750Y-57124000D01*
X93846000Y-57282750D01*
X93846000Y-57448309D01*
X93861879Y-57486645D01*
X93796000Y-57645691D01*
X93796000Y-57873750D01*
X93954750Y-58032500D01*
X94047474Y-58032500D01*
X93892673Y-58187302D01*
X93796000Y-58420691D01*
X93796000Y-58673309D01*
X93892673Y-58906698D01*
X94047474Y-59061500D01*
X93954750Y-59061500D01*
X93796000Y-59220250D01*
X93796000Y-59448309D01*
X93861879Y-59607355D01*
X93846000Y-59645691D01*
X93846000Y-59811250D01*
X94004750Y-59970000D01*
X94568500Y-59970000D01*
X94568500Y-59957000D01*
X94641750Y-59957000D01*
X94654750Y-59970000D01*
X95453000Y-59970000D01*
X95453000Y-60224000D01*
X94654750Y-60224000D01*
X94568500Y-60310250D01*
X94568500Y-60224000D01*
X94004750Y-60224000D01*
X93846000Y-60382750D01*
X93846000Y-60548309D01*
X93942673Y-60781698D01*
X94121301Y-60960327D01*
X94354690Y-61057000D01*
X94409750Y-61057000D01*
X94568500Y-60898250D01*
X94568500Y-60723339D01*
X94592673Y-60781698D01*
X94771301Y-60960327D01*
X94829814Y-60984564D01*
X94902250Y-61057000D01*
X94957310Y-61057000D01*
X94981000Y-61047187D01*
X95004690Y-61057000D01*
X95059750Y-61057000D01*
X95132186Y-60984564D01*
X95190699Y-60960327D01*
X95306000Y-60845025D01*
X95421301Y-60960327D01*
X95479814Y-60984564D01*
X95552250Y-61057000D01*
X95607310Y-61057000D01*
X95631000Y-61047187D01*
X95654690Y-61057000D01*
X95709750Y-61057000D01*
X95782186Y-60984564D01*
X95828998Y-60965174D01*
X95828998Y-61057000D01*
X95846000Y-61057000D01*
X95846000Y-61234539D01*
X95820559Y-61250910D01*
X95749437Y-61355000D01*
X95408817Y-61355000D01*
X95329777Y-61322180D01*
X94918029Y-61321821D01*
X94537485Y-61479058D01*
X94246081Y-61769954D01*
X94088180Y-62150223D01*
X94087821Y-62561971D01*
X94245058Y-62942515D01*
X94535954Y-63233919D01*
X94916223Y-63391820D01*
X95327971Y-63392179D01*
X95637000Y-63264491D01*
X95637000Y-63329250D01*
X95795750Y-63488000D01*
X96520000Y-63488000D01*
X96520000Y-63468000D01*
X96774000Y-63468000D01*
X96774000Y-63488000D01*
X97498250Y-63488000D01*
X97657000Y-63329250D01*
X97657000Y-63088691D01*
X97640530Y-63048927D01*
X99329500Y-63048927D01*
X99329500Y-86176073D01*
X107399500Y-86176073D01*
X107399500Y-63048927D01*
X99329500Y-63048927D01*
X97640530Y-63048927D01*
X97560327Y-62855302D01*
X97558957Y-62853932D01*
X97618431Y-62766890D01*
X97669440Y-62515000D01*
X97669440Y-61715000D01*
X97625162Y-61479683D01*
X97486090Y-61263559D01*
X97366000Y-61181505D01*
X97366000Y-60690620D01*
X97377431Y-60673890D01*
X97428440Y-60422000D01*
X97428440Y-59772000D01*
X97398291Y-59611773D01*
X97466000Y-59448309D01*
X97466000Y-59220250D01*
X97307250Y-59061500D01*
X97214526Y-59061500D01*
X97369327Y-58906698D01*
X97466000Y-58673309D01*
X97466000Y-58420691D01*
X97369327Y-58187302D01*
X97214526Y-58032500D01*
X97307250Y-58032500D01*
X97466000Y-57873750D01*
X97466000Y-57645691D01*
X97396748Y-57478501D01*
X97428440Y-57322000D01*
X97428440Y-56672000D01*
X97384162Y-56436683D01*
X97366000Y-56408458D01*
X97366000Y-56276802D01*
X97516965Y-56427767D01*
X97516821Y-56592971D01*
X97674058Y-56973515D01*
X97964954Y-57264919D01*
X98345223Y-57422820D01*
X98756971Y-57423179D01*
X99137515Y-57265942D01*
X99428919Y-56975046D01*
X99586820Y-56594777D01*
X99587179Y-56183029D01*
X99429942Y-55802485D01*
X99139046Y-55511081D01*
X98758777Y-55353180D01*
X98591836Y-55353034D01*
X98252440Y-55013638D01*
X98252440Y-54856000D01*
X98208162Y-54620683D01*
X98069090Y-54404559D01*
X97999289Y-54356866D01*
X98056441Y-54320090D01*
X98201431Y-54107890D01*
X98252440Y-53856000D01*
X98252440Y-53356000D01*
X98208162Y-53120683D01*
X98069090Y-52904559D01*
X97975354Y-52840512D01*
X98031919Y-52784046D01*
X98189820Y-52403777D01*
X98190179Y-51992029D01*
X98032942Y-51611485D01*
X97742046Y-51320081D01*
X97361777Y-51162180D01*
X96950029Y-51161821D01*
X96569485Y-51319058D01*
X96278081Y-51609954D01*
X96266166Y-51638649D01*
X96254942Y-51611485D01*
X95964046Y-51320081D01*
X95583777Y-51162180D01*
X95172029Y-51161821D01*
X94791485Y-51319058D01*
X94500081Y-51609954D01*
X94342180Y-51990223D01*
X94341821Y-52401971D01*
X94499058Y-52782515D01*
X94556359Y-52839916D01*
X94475559Y-52891910D01*
X94330569Y-53104110D01*
X94279560Y-53356000D01*
X94279560Y-53856000D01*
X94323838Y-54091317D01*
X94462910Y-54307441D01*
X94519343Y-54346000D01*
X94290782Y-54346000D01*
X94186046Y-54241081D01*
X93805777Y-54083180D01*
X93394029Y-54082821D01*
X93013485Y-54240058D01*
X92722081Y-54530954D01*
X92564180Y-54911223D01*
X92563821Y-55322971D01*
X79797100Y-55322971D01*
X79901820Y-55070777D01*
X79902179Y-54659029D01*
X79744942Y-54278485D01*
X79454046Y-53987081D01*
X79073777Y-53829180D01*
X79012961Y-53829127D01*
X79013179Y-53579529D01*
X78855942Y-53198985D01*
X78565046Y-52907581D01*
X78184777Y-52749680D01*
X77773029Y-52749321D01*
X77392485Y-52906558D01*
X77101081Y-53197454D01*
X76943180Y-53577723D01*
X76942961Y-53828872D01*
X76884029Y-53828821D01*
X76503485Y-53986058D01*
X76212081Y-54276954D01*
X76065877Y-54629053D01*
X74695106Y-53472838D01*
X74695179Y-53389029D01*
X74537942Y-53008485D01*
X74247046Y-52717081D01*
X73866777Y-52559180D01*
X73455029Y-52558821D01*
X73074485Y-52716058D01*
X72783081Y-53006954D01*
X72625180Y-53387223D01*
X72624821Y-53798971D01*
X72650092Y-53860131D01*
X71335814Y-53870087D01*
X71199046Y-53733081D01*
X70818777Y-53575180D01*
X70407029Y-53574821D01*
X70026485Y-53732058D01*
X69735081Y-54022954D01*
X69577180Y-54403223D01*
X69576821Y-54814971D01*
X69734058Y-55195515D01*
X70024954Y-55486919D01*
X70405223Y-55644820D01*
X70816971Y-55645179D01*
X71197515Y-55487942D01*
X71295189Y-55390438D01*
X71707823Y-55387312D01*
X71528301Y-55461673D01*
X71349673Y-55640302D01*
X71253000Y-55873691D01*
X71253000Y-56114250D01*
X71411750Y-56273000D01*
X72136000Y-56273000D01*
X72136000Y-56253000D01*
X72390000Y-56253000D01*
X72390000Y-56273000D01*
X72410000Y-56273000D01*
X72410000Y-56527000D01*
X72390000Y-56527000D01*
X72390000Y-56547000D01*
X72136000Y-56547000D01*
X72136000Y-56527000D01*
X71411750Y-56527000D01*
X71253000Y-56685750D01*
X71253000Y-56926309D01*
X71349673Y-57159698D01*
X71351043Y-57161068D01*
X71291569Y-57248110D01*
X71269068Y-57359225D01*
X71199046Y-57289081D01*
X70818777Y-57131180D01*
X70407029Y-57130821D01*
X70026485Y-57288058D01*
X69735081Y-57578954D01*
X69595958Y-57914000D01*
X67437000Y-57914000D01*
X67194414Y-57962254D01*
X67146160Y-57971852D01*
X66899599Y-58136599D01*
X66480599Y-58555599D01*
X66339297Y-58767073D01*
X66207683Y-58791838D01*
X65991559Y-58930910D01*
X65846569Y-59143110D01*
X65795560Y-59395000D01*
X65004731Y-59395000D01*
X65138919Y-59261046D01*
X65296820Y-58880777D01*
X65297179Y-58469029D01*
X65139942Y-58088485D01*
X64849046Y-57797081D01*
X64468777Y-57639180D01*
X64057029Y-57638821D01*
X63676485Y-57796058D01*
X63558337Y-57914000D01*
X62994954Y-57914000D01*
X62801147Y-57623946D01*
X62471974Y-57404000D01*
X62801147Y-57184054D01*
X62994954Y-56894000D01*
X63431460Y-56894000D01*
X63674954Y-57137919D01*
X64055223Y-57295820D01*
X64466971Y-57296179D01*
X64847515Y-57138942D01*
X65138919Y-56848046D01*
X65296820Y-56467777D01*
X65297179Y-56056029D01*
X65139942Y-55675485D01*
X64849046Y-55384081D01*
X64468777Y-55226180D01*
X64057029Y-55225821D01*
X63698407Y-55374000D01*
X62994954Y-55374000D01*
X62801147Y-55083946D01*
X62471974Y-54864000D01*
X62801147Y-54644054D01*
X62977983Y-54379400D01*
X63507439Y-54379400D01*
X63624154Y-54496319D01*
X64004423Y-54654220D01*
X64416171Y-54654579D01*
X64796715Y-54497342D01*
X65088119Y-54206446D01*
X65246020Y-53826177D01*
X65246379Y-53414429D01*
X65089142Y-53033885D01*
X64798246Y-52742481D01*
X64417977Y-52584580D01*
X64006229Y-52584221D01*
X63625685Y-52741458D01*
X63507537Y-52859400D01*
X63011926Y-52859400D01*
X62801147Y-52543946D01*
X62460447Y-52316298D01*
X62603358Y-52249183D01*
X62993645Y-51820924D01*
X63163476Y-51410890D01*
X63042155Y-51181000D01*
X61849000Y-51181000D01*
X61849000Y-51201000D01*
X61595000Y-51201000D01*
X61595000Y-51181000D01*
X60401845Y-51181000D01*
X60280524Y-51410890D01*
X60450355Y-51820924D01*
X60840642Y-52249183D01*
X60983553Y-52316298D01*
X60642853Y-52543946D01*
X60320946Y-53025715D01*
X60207907Y-53594000D01*
X60320946Y-54162285D01*
X60642853Y-54644054D01*
X60972026Y-54864000D01*
X60642853Y-55083946D01*
X60320946Y-55565715D01*
X60207907Y-56134000D01*
X60320946Y-56702285D01*
X60642853Y-57184054D01*
X60972026Y-57404000D01*
X60642853Y-57623946D01*
X60449046Y-57914000D01*
X59467105Y-57914000D01*
X59376090Y-57772559D01*
X59163890Y-57627569D01*
X58912000Y-57576560D01*
X58412000Y-57576560D01*
X58176683Y-57620838D01*
X57960559Y-57759910D01*
X57914031Y-57828006D01*
X57771698Y-57685673D01*
X57538309Y-57589000D01*
X57445750Y-57589000D01*
X57287000Y-57747750D01*
X57037000Y-57747750D01*
X56878250Y-57589000D01*
X56785691Y-57589000D01*
X56552302Y-57685673D01*
X56373673Y-57864301D01*
X56277000Y-58097690D01*
X49233702Y-58097690D01*
X49176664Y-58012328D01*
X48987672Y-57823336D01*
X48663248Y-57606563D01*
X48627264Y-57591658D01*
X48603803Y-57568197D01*
X48561789Y-57540334D01*
X48514000Y-57531000D01*
X48480822Y-57531000D01*
X48416319Y-57504282D01*
X48033636Y-57428162D01*
X47966170Y-57428162D01*
X47900000Y-57415000D01*
X44967466Y-57415000D01*
X44784590Y-57378624D01*
X44686751Y-57313250D01*
X44621376Y-57215409D01*
X44585000Y-57032534D01*
X44585000Y-45847000D01*
X50800000Y-45847000D01*
X50849410Y-45836994D01*
X50891035Y-45808553D01*
X50918315Y-45766159D01*
X50927000Y-45720000D01*
X50927000Y-44661249D01*
X50942310Y-44685041D01*
X51154510Y-44830031D01*
X51406400Y-44881040D01*
X51510000Y-44881040D01*
X51510000Y-45324145D01*
X51447081Y-45386954D01*
X51289180Y-45767223D01*
X51288821Y-46178971D01*
X51446058Y-46559515D01*
X51542747Y-46656373D01*
X51510000Y-46821000D01*
X51567852Y-47111839D01*
X51732599Y-47358401D01*
X51786599Y-47412401D01*
X52033161Y-47577148D01*
X52324000Y-47635000D01*
X52614840Y-47577148D01*
X52757214Y-47482016D01*
X53630758Y-48355560D01*
X53537000Y-48355560D01*
X53301683Y-48399838D01*
X53085559Y-48538910D01*
X52940569Y-48751110D01*
X52889560Y-49003000D01*
X52889560Y-49803000D01*
X52933838Y-50038317D01*
X53072910Y-50254441D01*
X53227000Y-50359726D01*
X53227000Y-50860614D01*
X53140569Y-50987110D01*
X53089560Y-51239000D01*
X53089560Y-52139000D01*
X53133838Y-52374317D01*
X53272910Y-52590441D01*
X53485110Y-52735431D01*
X53737000Y-52786440D01*
X54237000Y-52786440D01*
X54472317Y-52742162D01*
X54688441Y-52603090D01*
X54734969Y-52534994D01*
X54877302Y-52677327D01*
X55110691Y-52774000D01*
X55203250Y-52774000D01*
X55362000Y-52615250D01*
X55362000Y-51816000D01*
X55612000Y-51816000D01*
X55612000Y-52615250D01*
X55770750Y-52774000D01*
X55863309Y-52774000D01*
X56096698Y-52677327D01*
X56275327Y-52498699D01*
X56372000Y-52265310D01*
X56372000Y-51974750D01*
X56213250Y-51816000D01*
X55612000Y-51816000D01*
X55362000Y-51816000D01*
X55340000Y-51816000D01*
X55340000Y-51562000D01*
X55362000Y-51562000D01*
X55362000Y-50762750D01*
X55612000Y-50762750D01*
X55612000Y-51562000D01*
X56213250Y-51562000D01*
X56372000Y-51403250D01*
X56372000Y-51112690D01*
X56275327Y-50879301D01*
X56096698Y-50700673D01*
X56088097Y-50697110D01*
X60280524Y-50697110D01*
X60401845Y-50927000D01*
X61595000Y-50927000D01*
X61595000Y-49733181D01*
X61849000Y-49733181D01*
X61849000Y-50927000D01*
X63042155Y-50927000D01*
X63163476Y-50697110D01*
X62993645Y-50287076D01*
X62603358Y-49858817D01*
X62078892Y-49612514D01*
X61849000Y-49733181D01*
X61595000Y-49733181D01*
X61365108Y-49612514D01*
X60840642Y-49858817D01*
X60450355Y-50287076D01*
X60280524Y-50697110D01*
X56088097Y-50697110D01*
X55863309Y-50604000D01*
X55770750Y-50604000D01*
X55612000Y-50762750D01*
X55362000Y-50762750D01*
X55203250Y-50604000D01*
X55110691Y-50604000D01*
X54877302Y-50700673D01*
X54747000Y-50830974D01*
X54747000Y-50305065D01*
X54885110Y-50399431D01*
X55137000Y-50450440D01*
X55937000Y-50450440D01*
X56172317Y-50406162D01*
X56388441Y-50267090D01*
X56533431Y-50054890D01*
X56584440Y-49803000D01*
X56584440Y-49003000D01*
X56540162Y-48767683D01*
X56401090Y-48551559D01*
X56188890Y-48406569D01*
X55937000Y-48355560D01*
X55780362Y-48355560D01*
X53359035Y-45934233D01*
X53359179Y-45769029D01*
X53201942Y-45388485D01*
X53030000Y-45216243D01*
X53030000Y-44881040D01*
X53133600Y-44881040D01*
X53368917Y-44836762D01*
X53585041Y-44697690D01*
X53730031Y-44485490D01*
X53738864Y-44441869D01*
X53750330Y-44459029D01*
X54050000Y-44659262D01*
X54050000Y-45324145D01*
X53987081Y-45386954D01*
X53829180Y-45767223D01*
X53828821Y-46178971D01*
X53986058Y-46559515D01*
X54276954Y-46850919D01*
X54657223Y-47008820D01*
X55068971Y-47009179D01*
X55449515Y-46851942D01*
X55740919Y-46561046D01*
X55898820Y-46180777D01*
X55899179Y-45769029D01*
X55741942Y-45388485D01*
X55570000Y-45216243D01*
X55570000Y-44659262D01*
X55869670Y-44459029D01*
X56080000Y-44144248D01*
X56290330Y-44459029D01*
X56590000Y-44659262D01*
X56590000Y-45324145D01*
X56527081Y-45386954D01*
X56369180Y-45767223D01*
X56368821Y-46178971D01*
X56526058Y-46559515D01*
X56816954Y-46850919D01*
X57197223Y-47008820D01*
X57608971Y-47009179D01*
X57989515Y-46851942D01*
X58280919Y-46561046D01*
X58438820Y-46180777D01*
X58439179Y-45769029D01*
X58281942Y-45388485D01*
X58110000Y-45216243D01*
X58110000Y-44659262D01*
X58409670Y-44459029D01*
X58620000Y-44144248D01*
X58830330Y-44459029D01*
X59316511Y-44783885D01*
X59890000Y-44897959D01*
X60463489Y-44783885D01*
X60949670Y-44459029D01*
X61160000Y-44144248D01*
X61370330Y-44459029D01*
X61856511Y-44783885D01*
X62430000Y-44897959D01*
X63003489Y-44783885D01*
X63489670Y-44459029D01*
X63700000Y-44144248D01*
X63910330Y-44459029D01*
X64396511Y-44783885D01*
X64581226Y-44820627D01*
X64751909Y-45523116D01*
X64624180Y-45830723D01*
X64623821Y-46242471D01*
X64781058Y-46623015D01*
X65071954Y-46914419D01*
X65452223Y-47072320D01*
X65863971Y-47072679D01*
X66244515Y-46915442D01*
X66535919Y-46624546D01*
X66674607Y-46290547D01*
X66812558Y-46624415D01*
X67103454Y-46915819D01*
X67483723Y-47073720D01*
X67895471Y-47074079D01*
X68276015Y-46916842D01*
X68567419Y-46625946D01*
X68725320Y-46245677D01*
X68725679Y-45833929D01*
X68568442Y-45453385D01*
X68450500Y-45335237D01*
X68450500Y-44538656D01*
X68569670Y-44459029D01*
X68780000Y-44144248D01*
X68990330Y-44459029D01*
X69476511Y-44783885D01*
X70050000Y-44897959D01*
X70623489Y-44783885D01*
X71109670Y-44459029D01*
X71320000Y-44144248D01*
X71530330Y-44459029D01*
X72016511Y-44783885D01*
X72590000Y-44897959D01*
X73163489Y-44783885D01*
X73649670Y-44459029D01*
X73860000Y-44144248D01*
X74070330Y-44459029D01*
X74370000Y-44659262D01*
X74370000Y-45324145D01*
X74307081Y-45386954D01*
X74149180Y-45767223D01*
X74148821Y-46178971D01*
X74306058Y-46559515D01*
X74596954Y-46850919D01*
X74977223Y-47008820D01*
X75388971Y-47009179D01*
X75769515Y-46851942D01*
X76060919Y-46561046D01*
X76218820Y-46180777D01*
X76219179Y-45769029D01*
X76061942Y-45388485D01*
X75890000Y-45216243D01*
X75890000Y-44659262D01*
X76189670Y-44459029D01*
X76400000Y-44144248D01*
X76610330Y-44459029D01*
X76910000Y-44659262D01*
X76910000Y-45324145D01*
X76847081Y-45386954D01*
X76689180Y-45767223D01*
X76688821Y-46178971D01*
X76846058Y-46559515D01*
X77136954Y-46850919D01*
X77517223Y-47008820D01*
X77928971Y-47009179D01*
X78309515Y-46851942D01*
X78600919Y-46561046D01*
X78758820Y-46180777D01*
X78759179Y-45769029D01*
X78601942Y-45388485D01*
X78430000Y-45216243D01*
X78430000Y-44659262D01*
X78729670Y-44459029D01*
X78940000Y-44144248D01*
X79150330Y-44459029D01*
X79450000Y-44659262D01*
X79450000Y-45324145D01*
X79387081Y-45386954D01*
X79229180Y-45767223D01*
X79228821Y-46178971D01*
X79386058Y-46559515D01*
X79676954Y-46850919D01*
X80057223Y-47008820D01*
X80468971Y-47009179D01*
X80835933Y-46857554D01*
X81200223Y-47008820D01*
X81611971Y-47009179D01*
X81992515Y-46851942D01*
X82283919Y-46561046D01*
X82441820Y-46180777D01*
X82442179Y-45769029D01*
X82284942Y-45388485D01*
X82167000Y-45270337D01*
X82167000Y-44777530D01*
X82176511Y-44783885D01*
X82750000Y-44897959D01*
X83323489Y-44783885D01*
X83809670Y-44459029D01*
X84020000Y-44144248D01*
X84230330Y-44459029D01*
X84716511Y-44783885D01*
X85290000Y-44897959D01*
X85863489Y-44783885D01*
X86349670Y-44459029D01*
X86560000Y-44144248D01*
X86770330Y-44459029D01*
X87256511Y-44783885D01*
X87830000Y-44897959D01*
X88403489Y-44783885D01*
X88889670Y-44459029D01*
X89100000Y-44144248D01*
X89310330Y-44459029D01*
X89796511Y-44783885D01*
X90370000Y-44897959D01*
X90943489Y-44783885D01*
X91429670Y-44459029D01*
X91640000Y-44144248D01*
X91850330Y-44459029D01*
X92336511Y-44783885D01*
X92910000Y-44897959D01*
X93483489Y-44783885D01*
X93969670Y-44459029D01*
X94180000Y-44144248D01*
X94390330Y-44459029D01*
X94876511Y-44783885D01*
X95450000Y-44897959D01*
X96023489Y-44783885D01*
X96509670Y-44459029D01*
X96720000Y-44144248D01*
X96930330Y-44459029D01*
X97416511Y-44783885D01*
X97990000Y-44897959D01*
X98563489Y-44783885D01*
X99049670Y-44459029D01*
X99260000Y-44144248D01*
X99470330Y-44459029D01*
X99956511Y-44783885D01*
X100530000Y-44897959D01*
X101103489Y-44783885D01*
X101589670Y-44459029D01*
X101854000Y-44063431D01*
X101854000Y-45720000D01*
X101854000Y-45720000D01*
G37*
X101854000Y-45720000D02*
X101864006Y-45769410D01*
X101892447Y-45811035D01*
X101934841Y-45838315D01*
X101981000Y-45847000D01*
X108077767Y-45847000D01*
X108215000Y-68490410D01*
X108215000Y-87503000D01*
X101854000Y-87503000D01*
X101804590Y-87513006D01*
X101762965Y-87541447D01*
X101735685Y-87583841D01*
X101727000Y-87630000D01*
X101727000Y-93853000D01*
X51181000Y-93853000D01*
X51181000Y-92855368D01*
X72043237Y-92855368D01*
X72154141Y-93132599D01*
X72800093Y-93375823D01*
X73489953Y-93353336D01*
X74022859Y-93132599D01*
X74133763Y-92855368D01*
X77123237Y-92855368D01*
X77234141Y-93132599D01*
X77880093Y-93375823D01*
X78569953Y-93353336D01*
X79102859Y-93132599D01*
X79213763Y-92855368D01*
X78168500Y-91810105D01*
X77123237Y-92855368D01*
X74133763Y-92855368D01*
X73088500Y-91810105D01*
X72043237Y-92855368D01*
X51181000Y-92855368D01*
X51181000Y-91342093D01*
X71343177Y-91342093D01*
X71365664Y-92031953D01*
X71586401Y-92564859D01*
X71863632Y-92675763D01*
X72908895Y-91630500D01*
X73268105Y-91630500D01*
X74313368Y-92675763D01*
X74590599Y-92564859D01*
X74833823Y-91918907D01*
X74815021Y-91342093D01*
X76423177Y-91342093D01*
X76445664Y-92031953D01*
X76666401Y-92564859D01*
X76943632Y-92675763D01*
X77988895Y-91630500D01*
X78348105Y-91630500D01*
X79393368Y-92675763D01*
X79670599Y-92564859D01*
X79913823Y-91918907D01*
X79891336Y-91229047D01*
X79670599Y-90696141D01*
X79393368Y-90585237D01*
X78348105Y-91630500D01*
X77988895Y-91630500D01*
X76943632Y-90585237D01*
X76666401Y-90696141D01*
X76423177Y-91342093D01*
X74815021Y-91342093D01*
X74811336Y-91229047D01*
X74590599Y-90696141D01*
X74313368Y-90585237D01*
X73268105Y-91630500D01*
X72908895Y-91630500D01*
X71863632Y-90585237D01*
X71586401Y-90696141D01*
X71343177Y-91342093D01*
X51181000Y-91342093D01*
X51181000Y-90405632D01*
X72043237Y-90405632D01*
X73088500Y-91450895D01*
X74133763Y-90405632D01*
X74022859Y-90128401D01*
X73376907Y-89885177D01*
X72687047Y-89907664D01*
X72154141Y-90128401D01*
X72043237Y-90405632D01*
X51181000Y-90405632D01*
X51181000Y-87775368D01*
X72043237Y-87775368D01*
X72154141Y-88052599D01*
X72800093Y-88295823D01*
X73489953Y-88273336D01*
X74022859Y-88052599D01*
X74133763Y-87775368D01*
X73088500Y-86730105D01*
X72043237Y-87775368D01*
X51181000Y-87775368D01*
X51181000Y-87630000D01*
X51170994Y-87580590D01*
X51142553Y-87538965D01*
X51100159Y-87511685D01*
X51054000Y-87503000D01*
X44585000Y-87503000D01*
X44585000Y-86262093D01*
X71343177Y-86262093D01*
X71365664Y-86951953D01*
X71586401Y-87484859D01*
X71863632Y-87595763D01*
X72908895Y-86550500D01*
X73268105Y-86550500D01*
X74313368Y-87595763D01*
X74590599Y-87484859D01*
X74833823Y-86838907D01*
X74811336Y-86149047D01*
X74590599Y-85616141D01*
X74313368Y-85505237D01*
X73268105Y-86550500D01*
X72908895Y-86550500D01*
X71863632Y-85505237D01*
X71586401Y-85616141D01*
X71343177Y-86262093D01*
X44585000Y-86262093D01*
X44585000Y-85325632D01*
X72043237Y-85325632D01*
X73088500Y-86370895D01*
X74133763Y-85325632D01*
X74022859Y-85048401D01*
X73376907Y-84805177D01*
X72687047Y-84827664D01*
X72154141Y-85048401D01*
X72043237Y-85325632D01*
X44585000Y-85325632D01*
X44585000Y-83915250D01*
X73081500Y-83915250D01*
X73081500Y-84130810D01*
X73178173Y-84364199D01*
X73356802Y-84542827D01*
X73590191Y-84639500D01*
X73830750Y-84639500D01*
X73989500Y-84480750D01*
X73989500Y-83756500D01*
X73240250Y-83756500D01*
X73081500Y-83915250D01*
X44585000Y-83915250D01*
X44585000Y-83128190D01*
X73081500Y-83128190D01*
X73081500Y-83343750D01*
X73240250Y-83502500D01*
X73989500Y-83502500D01*
X73989500Y-82778250D01*
X73830750Y-82619500D01*
X73590191Y-82619500D01*
X73356802Y-82716173D01*
X73178173Y-82894801D01*
X73081500Y-83128190D01*
X44585000Y-83128190D01*
X44585000Y-79851250D01*
X73081500Y-79851250D01*
X73081500Y-80066810D01*
X73178173Y-80300199D01*
X73356802Y-80478827D01*
X73590191Y-80575500D01*
X73830750Y-80575500D01*
X73989500Y-80416750D01*
X73989500Y-79692500D01*
X73240250Y-79692500D01*
X73081500Y-79851250D01*
X44585000Y-79851250D01*
X44585000Y-79064190D01*
X73081500Y-79064190D01*
X73081500Y-79279750D01*
X73240250Y-79438500D01*
X73989500Y-79438500D01*
X73989500Y-78714250D01*
X73830750Y-78555500D01*
X73590191Y-78555500D01*
X73356802Y-78652173D01*
X73178173Y-78830801D01*
X73081500Y-79064190D01*
X44585000Y-79064190D01*
X44585000Y-76167466D01*
X44621376Y-75984591D01*
X44621625Y-75984218D01*
X44869452Y-75819000D01*
X49276000Y-75819000D01*
X49325410Y-75808994D01*
X49367035Y-75780553D01*
X49394315Y-75738159D01*
X49403000Y-75692000D01*
X49403000Y-74840162D01*
X49447180Y-74733500D01*
X49495718Y-74616319D01*
X49571838Y-74233636D01*
X49571838Y-74166170D01*
X49585000Y-74100000D01*
X49585000Y-74009250D01*
X73081500Y-74009250D01*
X73081500Y-74224810D01*
X73178173Y-74458199D01*
X73356802Y-74636827D01*
X73590191Y-74733500D01*
X73830750Y-74733500D01*
X73989500Y-74574750D01*
X73989500Y-73850500D01*
X73240250Y-73850500D01*
X73081500Y-74009250D01*
X49585000Y-74009250D01*
X49585000Y-73222190D01*
X73081500Y-73222190D01*
X73081500Y-73437750D01*
X73240250Y-73596500D01*
X73989500Y-73596500D01*
X73989500Y-72872250D01*
X73830750Y-72713500D01*
X73590191Y-72713500D01*
X73356802Y-72810173D01*
X73178173Y-72988801D01*
X73081500Y-73222190D01*
X49585000Y-73222190D01*
X49585000Y-66897250D01*
X73231500Y-66897250D01*
X73231500Y-67187810D01*
X73328173Y-67421199D01*
X73506802Y-67599827D01*
X73740191Y-67696500D01*
X73832750Y-67696500D01*
X73991500Y-67537750D01*
X73991500Y-66738500D01*
X73390250Y-66738500D01*
X73231500Y-66897250D01*
X49585000Y-66897250D01*
X49585000Y-66035190D01*
X73231500Y-66035190D01*
X73231500Y-66325750D01*
X73390250Y-66484500D01*
X73991500Y-66484500D01*
X73991500Y-65685250D01*
X73832750Y-65526500D01*
X73740191Y-65526500D01*
X73506802Y-65623173D01*
X73328173Y-65801801D01*
X73231500Y-66035190D01*
X49585000Y-66035190D01*
X49585000Y-61499750D01*
X56277000Y-61499750D01*
X56277000Y-61790310D01*
X56373673Y-62023699D01*
X56552302Y-62202327D01*
X56785691Y-62299000D01*
X56878250Y-62299000D01*
X57037000Y-62140250D01*
X57037000Y-61341000D01*
X56435750Y-61341000D01*
X56277000Y-61499750D01*
X49585000Y-61499750D01*
X49585000Y-60637690D01*
X56277000Y-60637690D01*
X56277000Y-60928250D01*
X56435750Y-61087000D01*
X57037000Y-61087000D01*
X57037000Y-60287750D01*
X56878250Y-60129000D01*
X56785691Y-60129000D01*
X56552302Y-60225673D01*
X56373673Y-60404301D01*
X56277000Y-60637690D01*
X49585000Y-60637690D01*
X49585000Y-59100000D01*
X49571838Y-59033830D01*
X49571838Y-58966364D01*
X49570523Y-58959750D01*
X56277000Y-58959750D01*
X56277000Y-59250310D01*
X56373673Y-59483699D01*
X56552302Y-59662327D01*
X56785691Y-59759000D01*
X56878250Y-59759000D01*
X57037000Y-59600250D01*
X57037000Y-58801000D01*
X56435750Y-58801000D01*
X56277000Y-58959750D01*
X49570523Y-58959750D01*
X49495718Y-58583681D01*
X49407611Y-58370971D01*
X49393437Y-58336751D01*
X49233702Y-58097690D01*
X56277000Y-58097690D01*
X56277000Y-58388250D01*
X56435750Y-58547000D01*
X57037000Y-58547000D01*
X57037000Y-57747750D01*
X57287000Y-57747750D01*
X57287000Y-58547000D01*
X57309000Y-58547000D01*
X57309000Y-58801000D01*
X57287000Y-58801000D01*
X57287000Y-59600250D01*
X57445750Y-59759000D01*
X57538309Y-59759000D01*
X57771698Y-59662327D01*
X57912936Y-59521090D01*
X57947910Y-59575441D01*
X58160110Y-59720431D01*
X58412000Y-59771440D01*
X58912000Y-59771440D01*
X59147317Y-59727162D01*
X59363441Y-59588090D01*
X59468726Y-59434000D01*
X60449046Y-59434000D01*
X60642853Y-59724054D01*
X60972026Y-59944000D01*
X60642853Y-60163946D01*
X60449046Y-60454000D01*
X59467105Y-60454000D01*
X59376090Y-60312559D01*
X59163890Y-60167569D01*
X58912000Y-60116560D01*
X58412000Y-60116560D01*
X58176683Y-60160838D01*
X57960559Y-60299910D01*
X57914031Y-60368006D01*
X57771698Y-60225673D01*
X57538309Y-60129000D01*
X57445750Y-60129000D01*
X57287000Y-60287750D01*
X57287000Y-61087000D01*
X57309000Y-61087000D01*
X57309000Y-61341000D01*
X57287000Y-61341000D01*
X57287000Y-62140250D01*
X57445750Y-62299000D01*
X57538309Y-62299000D01*
X57771698Y-62202327D01*
X57912936Y-62061090D01*
X57947910Y-62115441D01*
X58160110Y-62260431D01*
X58412000Y-62311440D01*
X58912000Y-62311440D01*
X59147317Y-62267162D01*
X59363441Y-62128090D01*
X59468726Y-61974000D01*
X60449046Y-61974000D01*
X60642853Y-62264054D01*
X60684452Y-62291850D01*
X60636683Y-62300838D01*
X60420559Y-62439910D01*
X60275569Y-62652110D01*
X60224560Y-62904000D01*
X60224560Y-62994000D01*
X59377761Y-62994000D01*
X59261046Y-62877081D01*
X58880777Y-62719180D01*
X58469029Y-62718821D01*
X58088485Y-62876058D01*
X57797081Y-63166954D01*
X57639180Y-63547223D01*
X57638821Y-63958971D01*
X57796058Y-64339515D01*
X58086954Y-64630919D01*
X58467223Y-64788820D01*
X58878971Y-64789179D01*
X59259515Y-64631942D01*
X59377663Y-64514000D01*
X60224560Y-64514000D01*
X60224560Y-64604000D01*
X60268838Y-64839317D01*
X60407910Y-65055441D01*
X60620110Y-65200431D01*
X60872000Y-65251440D01*
X62572000Y-65251440D01*
X62807317Y-65207162D01*
X63023441Y-65068090D01*
X63168431Y-64855890D01*
X63219440Y-64604000D01*
X63219440Y-63380750D01*
X65808000Y-63380750D01*
X65808000Y-63921309D01*
X65904673Y-64154698D01*
X66083301Y-64333327D01*
X66316690Y-64430000D01*
X66732250Y-64430000D01*
X66891000Y-64271250D01*
X66891000Y-63222000D01*
X65966750Y-63222000D01*
X65808000Y-63380750D01*
X63219440Y-63380750D01*
X63219440Y-62904000D01*
X63175162Y-62668683D01*
X63036090Y-62452559D01*
X62823890Y-62307569D01*
X62756459Y-62293914D01*
X62794207Y-62268691D01*
X65808000Y-62268691D01*
X65808000Y-62809250D01*
X65966750Y-62968000D01*
X66891000Y-62968000D01*
X66891000Y-61918750D01*
X66732250Y-61760000D01*
X66316690Y-61760000D01*
X66083301Y-61856673D01*
X65904673Y-62035302D01*
X65808000Y-62268691D01*
X62794207Y-62268691D01*
X62801147Y-62264054D01*
X62994954Y-61974000D01*
X63558239Y-61974000D01*
X63674954Y-62090919D01*
X64055223Y-62248820D01*
X64466971Y-62249179D01*
X64847515Y-62091942D01*
X65138919Y-61801046D01*
X65296820Y-61420777D01*
X65297179Y-61009029D01*
X65139942Y-60628485D01*
X64849046Y-60337081D01*
X64468777Y-60179180D01*
X64057029Y-60178821D01*
X63676485Y-60336058D01*
X63558337Y-60454000D01*
X62994954Y-60454000D01*
X62801147Y-60163946D01*
X62471974Y-59944000D01*
X62801147Y-59724054D01*
X62994954Y-59434000D01*
X63558239Y-59434000D01*
X63674954Y-59550919D01*
X64055223Y-59708820D01*
X64466971Y-59709179D01*
X64847515Y-59551942D01*
X65004731Y-59395000D01*
X65795560Y-59395000D01*
X65795560Y-60795000D01*
X65839838Y-61030317D01*
X65978910Y-61246441D01*
X66191110Y-61391431D01*
X66443000Y-61442440D01*
X67593000Y-61442440D01*
X67828317Y-61398162D01*
X67832824Y-61395262D01*
X67916690Y-61430000D01*
X68332250Y-61430000D01*
X68491000Y-61271250D01*
X68491000Y-60222000D01*
X68745000Y-60222000D01*
X68745000Y-61271250D01*
X68903750Y-61430000D01*
X69319310Y-61430000D01*
X69552699Y-61333327D01*
X69731327Y-61154698D01*
X69828000Y-60921309D01*
X69828000Y-60380750D01*
X69669250Y-60222000D01*
X68745000Y-60222000D01*
X68491000Y-60222000D01*
X68471000Y-60222000D01*
X68471000Y-59968000D01*
X68491000Y-59968000D01*
X68491000Y-59948000D01*
X68745000Y-59948000D01*
X68745000Y-59968000D01*
X69669250Y-59968000D01*
X69742224Y-59895026D01*
X71188198Y-61341000D01*
X70194198Y-62335000D01*
X69829150Y-62335000D01*
X69796162Y-62159683D01*
X69657090Y-61943559D01*
X69444890Y-61798569D01*
X69193000Y-61747560D01*
X68043000Y-61747560D01*
X67807683Y-61791838D01*
X67803176Y-61794738D01*
X67719310Y-61760000D01*
X67303750Y-61760000D01*
X67145000Y-61918750D01*
X67145000Y-62968000D01*
X67165000Y-62968000D01*
X67165000Y-63222000D01*
X67145000Y-63222000D01*
X67145000Y-64271250D01*
X67303750Y-64430000D01*
X67719310Y-64430000D01*
X67805425Y-64394330D01*
X68043000Y-64442440D01*
X69193000Y-64442440D01*
X69428317Y-64398162D01*
X69644441Y-64259090D01*
X69750921Y-64103250D01*
X71684500Y-64103250D01*
X71684500Y-64318810D01*
X71781173Y-64552199D01*
X71959802Y-64730827D01*
X72193191Y-64827500D01*
X72433750Y-64827500D01*
X72592500Y-64668750D01*
X72592500Y-63944500D01*
X71843250Y-63944500D01*
X71684500Y-64103250D01*
X69750921Y-64103250D01*
X69789431Y-64046890D01*
X69828290Y-63855000D01*
X70509000Y-63855000D01*
X70799839Y-63797148D01*
X71046401Y-63632401D01*
X71362612Y-63316190D01*
X71684500Y-63316190D01*
X71684500Y-63531750D01*
X71843250Y-63690500D01*
X72592500Y-63690500D01*
X72592500Y-62966250D01*
X72433750Y-62807500D01*
X72193191Y-62807500D01*
X71959802Y-62904173D01*
X71781173Y-63082801D01*
X71684500Y-63316190D01*
X71362612Y-63316190D01*
X72538302Y-62140500D01*
X73990616Y-62140500D01*
X74175500Y-62177940D01*
X74728060Y-62177940D01*
X74728060Y-62234138D01*
X74167138Y-62795060D01*
X73819500Y-62795060D01*
X73584183Y-62839338D01*
X73480854Y-62905829D01*
X73479198Y-62904173D01*
X73245809Y-62807500D01*
X73005250Y-62807500D01*
X72846500Y-62966250D01*
X72846500Y-63690500D01*
X72866500Y-63690500D01*
X72866500Y-63944500D01*
X72846500Y-63944500D01*
X72846500Y-64668750D01*
X73005250Y-64827500D01*
X73245809Y-64827500D01*
X73479198Y-64730827D01*
X73480568Y-64729457D01*
X73567610Y-64788931D01*
X73819500Y-64839940D01*
X74619500Y-64839940D01*
X74854817Y-64795662D01*
X75070941Y-64656590D01*
X75215931Y-64444390D01*
X75266940Y-64192500D01*
X75266940Y-63844862D01*
X75747148Y-63364654D01*
X75749191Y-63365500D01*
X75765500Y-63365500D01*
X75765500Y-65387698D01*
X75639138Y-65514060D01*
X75366500Y-65514060D01*
X75131183Y-65558338D01*
X74915059Y-65697410D01*
X74868531Y-65765506D01*
X74726198Y-65623173D01*
X74492809Y-65526500D01*
X74400250Y-65526500D01*
X74241500Y-65685250D01*
X74241500Y-66484500D01*
X74263500Y-66484500D01*
X74263500Y-66738500D01*
X74241500Y-66738500D01*
X74241500Y-67537750D01*
X74400250Y-67696500D01*
X74492809Y-67696500D01*
X74627703Y-67640625D01*
X74606060Y-67747500D01*
X74606060Y-68547500D01*
X74650338Y-68782817D01*
X74724120Y-68897478D01*
X74657069Y-68995610D01*
X74606060Y-69247500D01*
X74606060Y-70047500D01*
X74650338Y-70282817D01*
X74669187Y-70312109D01*
X74582069Y-70439610D01*
X74531060Y-70691500D01*
X74531060Y-71191500D01*
X74575338Y-71426817D01*
X74714410Y-71642941D01*
X74784211Y-71690634D01*
X74727059Y-71727410D01*
X74582069Y-71939610D01*
X74531060Y-72191500D01*
X74531060Y-72691500D01*
X74535200Y-72713500D01*
X74402250Y-72713500D01*
X74243500Y-72872250D01*
X74243500Y-73596500D01*
X74263500Y-73596500D01*
X74263500Y-73850500D01*
X74243500Y-73850500D01*
X74243500Y-74574750D01*
X74402250Y-74733500D01*
X74642809Y-74733500D01*
X74868500Y-74640016D01*
X74868500Y-75978395D01*
X74727059Y-76069410D01*
X74582069Y-76281610D01*
X74531060Y-76533500D01*
X74531060Y-77033500D01*
X74575338Y-77268817D01*
X74714410Y-77484941D01*
X74784211Y-77532634D01*
X74727059Y-77569410D01*
X74582069Y-77781610D01*
X74531060Y-78033500D01*
X74531060Y-78533500D01*
X74535200Y-78555500D01*
X74402250Y-78555500D01*
X74243500Y-78714250D01*
X74243500Y-79438500D01*
X74263500Y-79438500D01*
X74263500Y-79692500D01*
X74243500Y-79692500D01*
X74243500Y-80416750D01*
X74402250Y-80575500D01*
X74535515Y-80575500D01*
X74531060Y-80597500D01*
X74531060Y-81097500D01*
X74575338Y-81332817D01*
X74714410Y-81548941D01*
X74784211Y-81596634D01*
X74727059Y-81633410D01*
X74582069Y-81845610D01*
X74531060Y-82097500D01*
X74531060Y-82597500D01*
X74535200Y-82619500D01*
X74402250Y-82619500D01*
X74243500Y-82778250D01*
X74243500Y-83502500D01*
X74263500Y-83502500D01*
X74263500Y-83756500D01*
X74243500Y-83756500D01*
X74243500Y-84480750D01*
X74402250Y-84639500D01*
X74642809Y-84639500D01*
X74868500Y-84546016D01*
X74868500Y-87635453D01*
X74703557Y-87703606D01*
X74243222Y-88163137D01*
X73993784Y-88763852D01*
X73993216Y-89414295D01*
X74241606Y-90015443D01*
X74701137Y-90475778D01*
X75301852Y-90725216D01*
X75952295Y-90725784D01*
X76553443Y-90477394D01*
X76625330Y-90405632D01*
X77123237Y-90405632D01*
X78168500Y-91450895D01*
X79213763Y-90405632D01*
X79102859Y-90128401D01*
X78456907Y-89885177D01*
X77767047Y-89907664D01*
X77234141Y-90128401D01*
X77123237Y-90405632D01*
X76625330Y-90405632D01*
X77013778Y-90017863D01*
X77263216Y-89417148D01*
X77263784Y-88766705D01*
X77015394Y-88165557D01*
X76625887Y-87775368D01*
X77123237Y-87775368D01*
X77234141Y-88052599D01*
X77880093Y-88295823D01*
X78569953Y-88273336D01*
X79102859Y-88052599D01*
X79213763Y-87775368D01*
X78168500Y-86730105D01*
X77123237Y-87775368D01*
X76625887Y-87775368D01*
X76555863Y-87705222D01*
X76388500Y-87635727D01*
X76388500Y-86262093D01*
X76423177Y-86262093D01*
X76445664Y-86951953D01*
X76666401Y-87484859D01*
X76943632Y-87595763D01*
X77988895Y-86550500D01*
X78348105Y-86550500D01*
X79393368Y-87595763D01*
X79670599Y-87484859D01*
X79913823Y-86838907D01*
X79891336Y-86149047D01*
X79670599Y-85616141D01*
X79393368Y-85505237D01*
X78348105Y-86550500D01*
X77988895Y-86550500D01*
X76943632Y-85505237D01*
X76666401Y-85616141D01*
X76423177Y-86262093D01*
X76388500Y-86262093D01*
X76388500Y-85325632D01*
X77123237Y-85325632D01*
X78168500Y-86370895D01*
X79213763Y-85325632D01*
X79102859Y-85048401D01*
X78456907Y-84805177D01*
X77767047Y-84827664D01*
X77234141Y-85048401D01*
X77123237Y-85325632D01*
X76388500Y-85325632D01*
X76388500Y-84519709D01*
X76467941Y-84468590D01*
X76612931Y-84256390D01*
X76663940Y-84004500D01*
X76663940Y-83371944D01*
X76777500Y-83394940D01*
X77527500Y-83394940D01*
X77762817Y-83350662D01*
X77978941Y-83211590D01*
X78123931Y-82999390D01*
X78174940Y-82747500D01*
X78174940Y-81947500D01*
X78130662Y-81712183D01*
X78056880Y-81597522D01*
X78123931Y-81499390D01*
X78174940Y-81247500D01*
X78174940Y-80447500D01*
X78130662Y-80212183D01*
X77991590Y-79996059D01*
X77779390Y-79851069D01*
X77527500Y-79800060D01*
X76777500Y-79800060D01*
X76663940Y-79821428D01*
X76663940Y-79200897D01*
X76779610Y-79279931D01*
X77031500Y-79330940D01*
X77781500Y-79330940D01*
X78016817Y-79286662D01*
X78232941Y-79147590D01*
X78377931Y-78935390D01*
X78428940Y-78683500D01*
X78428940Y-77883500D01*
X78384662Y-77648183D01*
X78310880Y-77533522D01*
X78377931Y-77435390D01*
X78428940Y-77183500D01*
X78428940Y-76383500D01*
X78408960Y-76277314D01*
X78542191Y-76332500D01*
X78634750Y-76332500D01*
X78793500Y-76173750D01*
X78793500Y-75374500D01*
X79043500Y-75374500D01*
X79043500Y-76173750D01*
X79202250Y-76332500D01*
X79294809Y-76332500D01*
X79528198Y-76235827D01*
X79706827Y-76057199D01*
X79803500Y-75823810D01*
X79803500Y-75600000D01*
X87215000Y-75600000D01*
X87215000Y-90600000D01*
X87228162Y-90666170D01*
X87228162Y-90733636D01*
X87304282Y-91116319D01*
X87374152Y-91285000D01*
X87406563Y-91363248D01*
X87623336Y-91687672D01*
X87812328Y-91876664D01*
X88136751Y-92093437D01*
X88239032Y-92135803D01*
X88383681Y-92195718D01*
X88766364Y-92271838D01*
X89033636Y-92271838D01*
X89416319Y-92195718D01*
X89663248Y-92093437D01*
X89663249Y-92093436D01*
X89987672Y-91876664D01*
X90176664Y-91687672D01*
X90393437Y-91363249D01*
X90435803Y-91260968D01*
X90495718Y-91116319D01*
X90571838Y-90733636D01*
X90571838Y-90666170D01*
X90585000Y-90600000D01*
X90585000Y-75600000D01*
X90571838Y-75533830D01*
X90571838Y-75466364D01*
X90495718Y-75083681D01*
X90415594Y-74890243D01*
X90393437Y-74836751D01*
X90176664Y-74512328D01*
X89987672Y-74323336D01*
X89663248Y-74106563D01*
X89643782Y-74098500D01*
X89416319Y-74004282D01*
X89033636Y-73928162D01*
X88900000Y-73928162D01*
X88383681Y-74004282D01*
X88239032Y-74064197D01*
X88136751Y-74106563D01*
X87812328Y-74323336D01*
X87623336Y-74512328D01*
X87406564Y-74836751D01*
X87406563Y-74836752D01*
X87304282Y-75083681D01*
X87228162Y-75466364D01*
X87228162Y-75533830D01*
X87215000Y-75600000D01*
X79803500Y-75600000D01*
X79803500Y-75533250D01*
X79644750Y-75374500D01*
X79043500Y-75374500D01*
X78793500Y-75374500D01*
X78771500Y-75374500D01*
X78771500Y-75120500D01*
X78793500Y-75120500D01*
X78793500Y-74321250D01*
X79043500Y-74321250D01*
X79043500Y-75120500D01*
X79644750Y-75120500D01*
X79803500Y-74961750D01*
X79803500Y-74671190D01*
X79756735Y-74558290D01*
X79856827Y-74458199D01*
X79953500Y-74224810D01*
X79953500Y-74009250D01*
X79794750Y-73850500D01*
X79045500Y-73850500D01*
X79045500Y-74319250D01*
X79043500Y-74321250D01*
X78793500Y-74321250D01*
X78791500Y-74319250D01*
X78791500Y-73850500D01*
X78771500Y-73850500D01*
X78771500Y-73596500D01*
X78791500Y-73596500D01*
X78791500Y-72872250D01*
X79045500Y-72872250D01*
X79045500Y-73596500D01*
X79794750Y-73596500D01*
X79953500Y-73437750D01*
X79953500Y-73222190D01*
X79856827Y-72988801D01*
X79678198Y-72810173D01*
X79444809Y-72713500D01*
X79204250Y-72713500D01*
X79045500Y-72872250D01*
X78791500Y-72872250D01*
X78632750Y-72713500D01*
X78499485Y-72713500D01*
X78503940Y-72691500D01*
X78503940Y-72191500D01*
X78459662Y-71956183D01*
X78320590Y-71740059D01*
X78250789Y-71692366D01*
X78307941Y-71655590D01*
X78452931Y-71443390D01*
X78503940Y-71191500D01*
X78503940Y-70691500D01*
X78459662Y-70456183D01*
X78368062Y-70313833D01*
X78377931Y-70299390D01*
X78428940Y-70047500D01*
X78428940Y-69247500D01*
X78384662Y-69012183D01*
X78310880Y-68897522D01*
X78377931Y-68799390D01*
X78428940Y-68547500D01*
X78428940Y-67747500D01*
X78408960Y-67641314D01*
X78542191Y-67696500D01*
X78634750Y-67696500D01*
X78793500Y-67537750D01*
X78793500Y-66738500D01*
X79043500Y-66738500D01*
X79043500Y-67537750D01*
X79202250Y-67696500D01*
X79294809Y-67696500D01*
X79528198Y-67599827D01*
X79706827Y-67421199D01*
X79803500Y-67187810D01*
X79803500Y-66897250D01*
X79644750Y-66738500D01*
X79043500Y-66738500D01*
X78793500Y-66738500D01*
X78771500Y-66738500D01*
X78771500Y-66484500D01*
X78793500Y-66484500D01*
X78793500Y-65685250D01*
X79043500Y-65685250D01*
X79043500Y-66484500D01*
X79644750Y-66484500D01*
X79803500Y-66325750D01*
X79803500Y-66035190D01*
X79706827Y-65801801D01*
X79528198Y-65623173D01*
X79294809Y-65526500D01*
X79202250Y-65526500D01*
X79043500Y-65685250D01*
X78793500Y-65685250D01*
X78634750Y-65526500D01*
X78542191Y-65526500D01*
X78308802Y-65623173D01*
X78167564Y-65764410D01*
X78132590Y-65710059D01*
X77920390Y-65565069D01*
X77785500Y-65537753D01*
X77785500Y-63365500D01*
X77791750Y-63365500D01*
X77803371Y-63353879D01*
X77910817Y-63333662D01*
X78025478Y-63259880D01*
X78123610Y-63326931D01*
X78245330Y-63351580D01*
X78259250Y-63365500D01*
X78301809Y-63365500D01*
X78303852Y-63364654D01*
X78784060Y-63844862D01*
X78784060Y-64192500D01*
X78828338Y-64427817D01*
X78967410Y-64643941D01*
X79179610Y-64788931D01*
X79431500Y-64839940D01*
X80231500Y-64839940D01*
X80466817Y-64795662D01*
X80570146Y-64729171D01*
X80571802Y-64730827D01*
X80805191Y-64827500D01*
X81045750Y-64827500D01*
X81204500Y-64668750D01*
X81204500Y-63944500D01*
X81458500Y-63944500D01*
X81458500Y-64668750D01*
X81617250Y-64827500D01*
X81857809Y-64827500D01*
X82091198Y-64730827D01*
X82269827Y-64552199D01*
X82366500Y-64318810D01*
X82366500Y-64103250D01*
X82207750Y-63944500D01*
X81458500Y-63944500D01*
X81204500Y-63944500D01*
X81184500Y-63944500D01*
X81184500Y-63900750D01*
X95637000Y-63900750D01*
X95637000Y-64141309D01*
X95733673Y-64374698D01*
X95912301Y-64553327D01*
X96145690Y-64650000D01*
X96361250Y-64650000D01*
X96520000Y-64491250D01*
X96520000Y-63742000D01*
X96774000Y-63742000D01*
X96774000Y-64491250D01*
X96932750Y-64650000D01*
X97148310Y-64650000D01*
X97381699Y-64553327D01*
X97560327Y-64374698D01*
X97657000Y-64141309D01*
X97657000Y-63900750D01*
X97498250Y-63742000D01*
X96774000Y-63742000D01*
X96520000Y-63742000D01*
X95795750Y-63742000D01*
X95637000Y-63900750D01*
X81184500Y-63900750D01*
X81184500Y-63690500D01*
X81204500Y-63690500D01*
X81204500Y-63670500D01*
X81458500Y-63670500D01*
X81458500Y-63690500D01*
X82207750Y-63690500D01*
X82366500Y-63531750D01*
X82366500Y-63316190D01*
X82331056Y-63230621D01*
X82498941Y-63122590D01*
X82643931Y-62910390D01*
X82694940Y-62658500D01*
X82694940Y-62158500D01*
X82650662Y-61923183D01*
X82511590Y-61707059D01*
X82441789Y-61659366D01*
X82498941Y-61622590D01*
X82643931Y-61410390D01*
X82693179Y-61167195D01*
X82851223Y-61232820D01*
X83262971Y-61233179D01*
X83643515Y-61075942D01*
X83934919Y-60785046D01*
X84092820Y-60404777D01*
X84093179Y-59993029D01*
X83935942Y-59612485D01*
X83645046Y-59321081D01*
X83514386Y-59266826D01*
X83648320Y-58944277D01*
X83648679Y-58532529D01*
X83491442Y-58151985D01*
X83200546Y-57860581D01*
X82820277Y-57702680D01*
X82408529Y-57702321D01*
X82039360Y-57854858D01*
X82030942Y-57834485D01*
X81740046Y-57543081D01*
X81359777Y-57385180D01*
X80948029Y-57384821D01*
X80578267Y-57537603D01*
X80632919Y-57483046D01*
X80790820Y-57102777D01*
X80791179Y-56691029D01*
X80633942Y-56310485D01*
X80343046Y-56019081D01*
X79962777Y-55861180D01*
X79551029Y-55860821D01*
X79285500Y-55970535D01*
X79285500Y-55810951D01*
X79452515Y-55741942D01*
X79743919Y-55451046D01*
X79797100Y-55322971D01*
X92563821Y-55322971D01*
X92721058Y-55703515D01*
X93011954Y-55994919D01*
X93392223Y-56152820D01*
X93803971Y-56153179D01*
X94184515Y-55995942D01*
X94314684Y-55866000D01*
X94548614Y-55866000D01*
X94675110Y-55952431D01*
X94927000Y-56003440D01*
X95196000Y-56003440D01*
X95196000Y-56024560D01*
X95131000Y-56024560D01*
X94990914Y-56050919D01*
X94957310Y-56037000D01*
X94902250Y-56037000D01*
X94824800Y-56114450D01*
X94679559Y-56207910D01*
X94568500Y-56370450D01*
X94568500Y-56195750D01*
X94409750Y-56037000D01*
X94354690Y-56037000D01*
X94121301Y-56133673D01*
X93942673Y-56312302D01*
X93846000Y-56545691D01*
X93846000Y-56711250D01*
X94004750Y-56870000D01*
X94483560Y-56870000D01*
X94483560Y-57124000D01*
X94004750Y-57124000D01*
X93846000Y-57282750D01*
X93846000Y-57448309D01*
X93861879Y-57486645D01*
X93796000Y-57645691D01*
X93796000Y-57873750D01*
X93954750Y-58032500D01*
X94047474Y-58032500D01*
X93892673Y-58187302D01*
X93796000Y-58420691D01*
X93796000Y-58673309D01*
X93892673Y-58906698D01*
X94047474Y-59061500D01*
X93954750Y-59061500D01*
X93796000Y-59220250D01*
X93796000Y-59448309D01*
X93861879Y-59607355D01*
X93846000Y-59645691D01*
X93846000Y-59811250D01*
X94004750Y-59970000D01*
X94568500Y-59970000D01*
X94568500Y-59957000D01*
X94641750Y-59957000D01*
X94654750Y-59970000D01*
X95453000Y-59970000D01*
X95453000Y-60224000D01*
X94654750Y-60224000D01*
X94568500Y-60310250D01*
X94568500Y-60224000D01*
X94004750Y-60224000D01*
X93846000Y-60382750D01*
X93846000Y-60548309D01*
X93942673Y-60781698D01*
X94121301Y-60960327D01*
X94354690Y-61057000D01*
X94409750Y-61057000D01*
X94568500Y-60898250D01*
X94568500Y-60723339D01*
X94592673Y-60781698D01*
X94771301Y-60960327D01*
X94829814Y-60984564D01*
X94902250Y-61057000D01*
X94957310Y-61057000D01*
X94981000Y-61047187D01*
X95004690Y-61057000D01*
X95059750Y-61057000D01*
X95132186Y-60984564D01*
X95190699Y-60960327D01*
X95306000Y-60845025D01*
X95421301Y-60960327D01*
X95479814Y-60984564D01*
X95552250Y-61057000D01*
X95607310Y-61057000D01*
X95631000Y-61047187D01*
X95654690Y-61057000D01*
X95709750Y-61057000D01*
X95782186Y-60984564D01*
X95828998Y-60965174D01*
X95828998Y-61057000D01*
X95846000Y-61057000D01*
X95846000Y-61234539D01*
X95820559Y-61250910D01*
X95749437Y-61355000D01*
X95408817Y-61355000D01*
X95329777Y-61322180D01*
X94918029Y-61321821D01*
X94537485Y-61479058D01*
X94246081Y-61769954D01*
X94088180Y-62150223D01*
X94087821Y-62561971D01*
X94245058Y-62942515D01*
X94535954Y-63233919D01*
X94916223Y-63391820D01*
X95327971Y-63392179D01*
X95637000Y-63264491D01*
X95637000Y-63329250D01*
X95795750Y-63488000D01*
X96520000Y-63488000D01*
X96520000Y-63468000D01*
X96774000Y-63468000D01*
X96774000Y-63488000D01*
X97498250Y-63488000D01*
X97657000Y-63329250D01*
X97657000Y-63088691D01*
X97640530Y-63048927D01*
X99329500Y-63048927D01*
X99329500Y-86176073D01*
X107399500Y-86176073D01*
X107399500Y-63048927D01*
X99329500Y-63048927D01*
X97640530Y-63048927D01*
X97560327Y-62855302D01*
X97558957Y-62853932D01*
X97618431Y-62766890D01*
X97669440Y-62515000D01*
X97669440Y-61715000D01*
X97625162Y-61479683D01*
X97486090Y-61263559D01*
X97366000Y-61181505D01*
X97366000Y-60690620D01*
X97377431Y-60673890D01*
X97428440Y-60422000D01*
X97428440Y-59772000D01*
X97398291Y-59611773D01*
X97466000Y-59448309D01*
X97466000Y-59220250D01*
X97307250Y-59061500D01*
X97214526Y-59061500D01*
X97369327Y-58906698D01*
X97466000Y-58673309D01*
X97466000Y-58420691D01*
X97369327Y-58187302D01*
X97214526Y-58032500D01*
X97307250Y-58032500D01*
X97466000Y-57873750D01*
X97466000Y-57645691D01*
X97396748Y-57478501D01*
X97428440Y-57322000D01*
X97428440Y-56672000D01*
X97384162Y-56436683D01*
X97366000Y-56408458D01*
X97366000Y-56276802D01*
X97516965Y-56427767D01*
X97516821Y-56592971D01*
X97674058Y-56973515D01*
X97964954Y-57264919D01*
X98345223Y-57422820D01*
X98756971Y-57423179D01*
X99137515Y-57265942D01*
X99428919Y-56975046D01*
X99586820Y-56594777D01*
X99587179Y-56183029D01*
X99429942Y-55802485D01*
X99139046Y-55511081D01*
X98758777Y-55353180D01*
X98591836Y-55353034D01*
X98252440Y-55013638D01*
X98252440Y-54856000D01*
X98208162Y-54620683D01*
X98069090Y-54404559D01*
X97999289Y-54356866D01*
X98056441Y-54320090D01*
X98201431Y-54107890D01*
X98252440Y-53856000D01*
X98252440Y-53356000D01*
X98208162Y-53120683D01*
X98069090Y-52904559D01*
X97975354Y-52840512D01*
X98031919Y-52784046D01*
X98189820Y-52403777D01*
X98190179Y-51992029D01*
X98032942Y-51611485D01*
X97742046Y-51320081D01*
X97361777Y-51162180D01*
X96950029Y-51161821D01*
X96569485Y-51319058D01*
X96278081Y-51609954D01*
X96266166Y-51638649D01*
X96254942Y-51611485D01*
X95964046Y-51320081D01*
X95583777Y-51162180D01*
X95172029Y-51161821D01*
X94791485Y-51319058D01*
X94500081Y-51609954D01*
X94342180Y-51990223D01*
X94341821Y-52401971D01*
X94499058Y-52782515D01*
X94556359Y-52839916D01*
X94475559Y-52891910D01*
X94330569Y-53104110D01*
X94279560Y-53356000D01*
X94279560Y-53856000D01*
X94323838Y-54091317D01*
X94462910Y-54307441D01*
X94519343Y-54346000D01*
X94290782Y-54346000D01*
X94186046Y-54241081D01*
X93805777Y-54083180D01*
X93394029Y-54082821D01*
X93013485Y-54240058D01*
X92722081Y-54530954D01*
X92564180Y-54911223D01*
X92563821Y-55322971D01*
X79797100Y-55322971D01*
X79901820Y-55070777D01*
X79902179Y-54659029D01*
X79744942Y-54278485D01*
X79454046Y-53987081D01*
X79073777Y-53829180D01*
X79012961Y-53829127D01*
X79013179Y-53579529D01*
X78855942Y-53198985D01*
X78565046Y-52907581D01*
X78184777Y-52749680D01*
X77773029Y-52749321D01*
X77392485Y-52906558D01*
X77101081Y-53197454D01*
X76943180Y-53577723D01*
X76942961Y-53828872D01*
X76884029Y-53828821D01*
X76503485Y-53986058D01*
X76212081Y-54276954D01*
X76065877Y-54629053D01*
X74695106Y-53472838D01*
X74695179Y-53389029D01*
X74537942Y-53008485D01*
X74247046Y-52717081D01*
X73866777Y-52559180D01*
X73455029Y-52558821D01*
X73074485Y-52716058D01*
X72783081Y-53006954D01*
X72625180Y-53387223D01*
X72624821Y-53798971D01*
X72650092Y-53860131D01*
X71335814Y-53870087D01*
X71199046Y-53733081D01*
X70818777Y-53575180D01*
X70407029Y-53574821D01*
X70026485Y-53732058D01*
X69735081Y-54022954D01*
X69577180Y-54403223D01*
X69576821Y-54814971D01*
X69734058Y-55195515D01*
X70024954Y-55486919D01*
X70405223Y-55644820D01*
X70816971Y-55645179D01*
X71197515Y-55487942D01*
X71295189Y-55390438D01*
X71707823Y-55387312D01*
X71528301Y-55461673D01*
X71349673Y-55640302D01*
X71253000Y-55873691D01*
X71253000Y-56114250D01*
X71411750Y-56273000D01*
X72136000Y-56273000D01*
X72136000Y-56253000D01*
X72390000Y-56253000D01*
X72390000Y-56273000D01*
X72410000Y-56273000D01*
X72410000Y-56527000D01*
X72390000Y-56527000D01*
X72390000Y-56547000D01*
X72136000Y-56547000D01*
X72136000Y-56527000D01*
X71411750Y-56527000D01*
X71253000Y-56685750D01*
X71253000Y-56926309D01*
X71349673Y-57159698D01*
X71351043Y-57161068D01*
X71291569Y-57248110D01*
X71269068Y-57359225D01*
X71199046Y-57289081D01*
X70818777Y-57131180D01*
X70407029Y-57130821D01*
X70026485Y-57288058D01*
X69735081Y-57578954D01*
X69595958Y-57914000D01*
X67437000Y-57914000D01*
X67194414Y-57962254D01*
X67146160Y-57971852D01*
X66899599Y-58136599D01*
X66480599Y-58555599D01*
X66339297Y-58767073D01*
X66207683Y-58791838D01*
X65991559Y-58930910D01*
X65846569Y-59143110D01*
X65795560Y-59395000D01*
X65004731Y-59395000D01*
X65138919Y-59261046D01*
X65296820Y-58880777D01*
X65297179Y-58469029D01*
X65139942Y-58088485D01*
X64849046Y-57797081D01*
X64468777Y-57639180D01*
X64057029Y-57638821D01*
X63676485Y-57796058D01*
X63558337Y-57914000D01*
X62994954Y-57914000D01*
X62801147Y-57623946D01*
X62471974Y-57404000D01*
X62801147Y-57184054D01*
X62994954Y-56894000D01*
X63431460Y-56894000D01*
X63674954Y-57137919D01*
X64055223Y-57295820D01*
X64466971Y-57296179D01*
X64847515Y-57138942D01*
X65138919Y-56848046D01*
X65296820Y-56467777D01*
X65297179Y-56056029D01*
X65139942Y-55675485D01*
X64849046Y-55384081D01*
X64468777Y-55226180D01*
X64057029Y-55225821D01*
X63698407Y-55374000D01*
X62994954Y-55374000D01*
X62801147Y-55083946D01*
X62471974Y-54864000D01*
X62801147Y-54644054D01*
X62977983Y-54379400D01*
X63507439Y-54379400D01*
X63624154Y-54496319D01*
X64004423Y-54654220D01*
X64416171Y-54654579D01*
X64796715Y-54497342D01*
X65088119Y-54206446D01*
X65246020Y-53826177D01*
X65246379Y-53414429D01*
X65089142Y-53033885D01*
X64798246Y-52742481D01*
X64417977Y-52584580D01*
X64006229Y-52584221D01*
X63625685Y-52741458D01*
X63507537Y-52859400D01*
X63011926Y-52859400D01*
X62801147Y-52543946D01*
X62460447Y-52316298D01*
X62603358Y-52249183D01*
X62993645Y-51820924D01*
X63163476Y-51410890D01*
X63042155Y-51181000D01*
X61849000Y-51181000D01*
X61849000Y-51201000D01*
X61595000Y-51201000D01*
X61595000Y-51181000D01*
X60401845Y-51181000D01*
X60280524Y-51410890D01*
X60450355Y-51820924D01*
X60840642Y-52249183D01*
X60983553Y-52316298D01*
X60642853Y-52543946D01*
X60320946Y-53025715D01*
X60207907Y-53594000D01*
X60320946Y-54162285D01*
X60642853Y-54644054D01*
X60972026Y-54864000D01*
X60642853Y-55083946D01*
X60320946Y-55565715D01*
X60207907Y-56134000D01*
X60320946Y-56702285D01*
X60642853Y-57184054D01*
X60972026Y-57404000D01*
X60642853Y-57623946D01*
X60449046Y-57914000D01*
X59467105Y-57914000D01*
X59376090Y-57772559D01*
X59163890Y-57627569D01*
X58912000Y-57576560D01*
X58412000Y-57576560D01*
X58176683Y-57620838D01*
X57960559Y-57759910D01*
X57914031Y-57828006D01*
X57771698Y-57685673D01*
X57538309Y-57589000D01*
X57445750Y-57589000D01*
X57287000Y-57747750D01*
X57037000Y-57747750D01*
X56878250Y-57589000D01*
X56785691Y-57589000D01*
X56552302Y-57685673D01*
X56373673Y-57864301D01*
X56277000Y-58097690D01*
X49233702Y-58097690D01*
X49176664Y-58012328D01*
X48987672Y-57823336D01*
X48663248Y-57606563D01*
X48627264Y-57591658D01*
X48603803Y-57568197D01*
X48561789Y-57540334D01*
X48514000Y-57531000D01*
X48480822Y-57531000D01*
X48416319Y-57504282D01*
X48033636Y-57428162D01*
X47966170Y-57428162D01*
X47900000Y-57415000D01*
X44967466Y-57415000D01*
X44784590Y-57378624D01*
X44686751Y-57313250D01*
X44621376Y-57215409D01*
X44585000Y-57032534D01*
X44585000Y-45847000D01*
X50800000Y-45847000D01*
X50849410Y-45836994D01*
X50891035Y-45808553D01*
X50918315Y-45766159D01*
X50927000Y-45720000D01*
X50927000Y-44661249D01*
X50942310Y-44685041D01*
X51154510Y-44830031D01*
X51406400Y-44881040D01*
X51510000Y-44881040D01*
X51510000Y-45324145D01*
X51447081Y-45386954D01*
X51289180Y-45767223D01*
X51288821Y-46178971D01*
X51446058Y-46559515D01*
X51542747Y-46656373D01*
X51510000Y-46821000D01*
X51567852Y-47111839D01*
X51732599Y-47358401D01*
X51786599Y-47412401D01*
X52033161Y-47577148D01*
X52324000Y-47635000D01*
X52614840Y-47577148D01*
X52757214Y-47482016D01*
X53630758Y-48355560D01*
X53537000Y-48355560D01*
X53301683Y-48399838D01*
X53085559Y-48538910D01*
X52940569Y-48751110D01*
X52889560Y-49003000D01*
X52889560Y-49803000D01*
X52933838Y-50038317D01*
X53072910Y-50254441D01*
X53227000Y-50359726D01*
X53227000Y-50860614D01*
X53140569Y-50987110D01*
X53089560Y-51239000D01*
X53089560Y-52139000D01*
X53133838Y-52374317D01*
X53272910Y-52590441D01*
X53485110Y-52735431D01*
X53737000Y-52786440D01*
X54237000Y-52786440D01*
X54472317Y-52742162D01*
X54688441Y-52603090D01*
X54734969Y-52534994D01*
X54877302Y-52677327D01*
X55110691Y-52774000D01*
X55203250Y-52774000D01*
X55362000Y-52615250D01*
X55362000Y-51816000D01*
X55612000Y-51816000D01*
X55612000Y-52615250D01*
X55770750Y-52774000D01*
X55863309Y-52774000D01*
X56096698Y-52677327D01*
X56275327Y-52498699D01*
X56372000Y-52265310D01*
X56372000Y-51974750D01*
X56213250Y-51816000D01*
X55612000Y-51816000D01*
X55362000Y-51816000D01*
X55340000Y-51816000D01*
X55340000Y-51562000D01*
X55362000Y-51562000D01*
X55362000Y-50762750D01*
X55612000Y-50762750D01*
X55612000Y-51562000D01*
X56213250Y-51562000D01*
X56372000Y-51403250D01*
X56372000Y-51112690D01*
X56275327Y-50879301D01*
X56096698Y-50700673D01*
X56088097Y-50697110D01*
X60280524Y-50697110D01*
X60401845Y-50927000D01*
X61595000Y-50927000D01*
X61595000Y-49733181D01*
X61849000Y-49733181D01*
X61849000Y-50927000D01*
X63042155Y-50927000D01*
X63163476Y-50697110D01*
X62993645Y-50287076D01*
X62603358Y-49858817D01*
X62078892Y-49612514D01*
X61849000Y-49733181D01*
X61595000Y-49733181D01*
X61365108Y-49612514D01*
X60840642Y-49858817D01*
X60450355Y-50287076D01*
X60280524Y-50697110D01*
X56088097Y-50697110D01*
X55863309Y-50604000D01*
X55770750Y-50604000D01*
X55612000Y-50762750D01*
X55362000Y-50762750D01*
X55203250Y-50604000D01*
X55110691Y-50604000D01*
X54877302Y-50700673D01*
X54747000Y-50830974D01*
X54747000Y-50305065D01*
X54885110Y-50399431D01*
X55137000Y-50450440D01*
X55937000Y-50450440D01*
X56172317Y-50406162D01*
X56388441Y-50267090D01*
X56533431Y-50054890D01*
X56584440Y-49803000D01*
X56584440Y-49003000D01*
X56540162Y-48767683D01*
X56401090Y-48551559D01*
X56188890Y-48406569D01*
X55937000Y-48355560D01*
X55780362Y-48355560D01*
X53359035Y-45934233D01*
X53359179Y-45769029D01*
X53201942Y-45388485D01*
X53030000Y-45216243D01*
X53030000Y-44881040D01*
X53133600Y-44881040D01*
X53368917Y-44836762D01*
X53585041Y-44697690D01*
X53730031Y-44485490D01*
X53738864Y-44441869D01*
X53750330Y-44459029D01*
X54050000Y-44659262D01*
X54050000Y-45324145D01*
X53987081Y-45386954D01*
X53829180Y-45767223D01*
X53828821Y-46178971D01*
X53986058Y-46559515D01*
X54276954Y-46850919D01*
X54657223Y-47008820D01*
X55068971Y-47009179D01*
X55449515Y-46851942D01*
X55740919Y-46561046D01*
X55898820Y-46180777D01*
X55899179Y-45769029D01*
X55741942Y-45388485D01*
X55570000Y-45216243D01*
X55570000Y-44659262D01*
X55869670Y-44459029D01*
X56080000Y-44144248D01*
X56290330Y-44459029D01*
X56590000Y-44659262D01*
X56590000Y-45324145D01*
X56527081Y-45386954D01*
X56369180Y-45767223D01*
X56368821Y-46178971D01*
X56526058Y-46559515D01*
X56816954Y-46850919D01*
X57197223Y-47008820D01*
X57608971Y-47009179D01*
X57989515Y-46851942D01*
X58280919Y-46561046D01*
X58438820Y-46180777D01*
X58439179Y-45769029D01*
X58281942Y-45388485D01*
X58110000Y-45216243D01*
X58110000Y-44659262D01*
X58409670Y-44459029D01*
X58620000Y-44144248D01*
X58830330Y-44459029D01*
X59316511Y-44783885D01*
X59890000Y-44897959D01*
X60463489Y-44783885D01*
X60949670Y-44459029D01*
X61160000Y-44144248D01*
X61370330Y-44459029D01*
X61856511Y-44783885D01*
X62430000Y-44897959D01*
X63003489Y-44783885D01*
X63489670Y-44459029D01*
X63700000Y-44144248D01*
X63910330Y-44459029D01*
X64396511Y-44783885D01*
X64581226Y-44820627D01*
X64751909Y-45523116D01*
X64624180Y-45830723D01*
X64623821Y-46242471D01*
X64781058Y-46623015D01*
X65071954Y-46914419D01*
X65452223Y-47072320D01*
X65863971Y-47072679D01*
X66244515Y-46915442D01*
X66535919Y-46624546D01*
X66674607Y-46290547D01*
X66812558Y-46624415D01*
X67103454Y-46915819D01*
X67483723Y-47073720D01*
X67895471Y-47074079D01*
X68276015Y-46916842D01*
X68567419Y-46625946D01*
X68725320Y-46245677D01*
X68725679Y-45833929D01*
X68568442Y-45453385D01*
X68450500Y-45335237D01*
X68450500Y-44538656D01*
X68569670Y-44459029D01*
X68780000Y-44144248D01*
X68990330Y-44459029D01*
X69476511Y-44783885D01*
X70050000Y-44897959D01*
X70623489Y-44783885D01*
X71109670Y-44459029D01*
X71320000Y-44144248D01*
X71530330Y-44459029D01*
X72016511Y-44783885D01*
X72590000Y-44897959D01*
X73163489Y-44783885D01*
X73649670Y-44459029D01*
X73860000Y-44144248D01*
X74070330Y-44459029D01*
X74370000Y-44659262D01*
X74370000Y-45324145D01*
X74307081Y-45386954D01*
X74149180Y-45767223D01*
X74148821Y-46178971D01*
X74306058Y-46559515D01*
X74596954Y-46850919D01*
X74977223Y-47008820D01*
X75388971Y-47009179D01*
X75769515Y-46851942D01*
X76060919Y-46561046D01*
X76218820Y-46180777D01*
X76219179Y-45769029D01*
X76061942Y-45388485D01*
X75890000Y-45216243D01*
X75890000Y-44659262D01*
X76189670Y-44459029D01*
X76400000Y-44144248D01*
X76610330Y-44459029D01*
X76910000Y-44659262D01*
X76910000Y-45324145D01*
X76847081Y-45386954D01*
X76689180Y-45767223D01*
X76688821Y-46178971D01*
X76846058Y-46559515D01*
X77136954Y-46850919D01*
X77517223Y-47008820D01*
X77928971Y-47009179D01*
X78309515Y-46851942D01*
X78600919Y-46561046D01*
X78758820Y-46180777D01*
X78759179Y-45769029D01*
X78601942Y-45388485D01*
X78430000Y-45216243D01*
X78430000Y-44659262D01*
X78729670Y-44459029D01*
X78940000Y-44144248D01*
X79150330Y-44459029D01*
X79450000Y-44659262D01*
X79450000Y-45324145D01*
X79387081Y-45386954D01*
X79229180Y-45767223D01*
X79228821Y-46178971D01*
X79386058Y-46559515D01*
X79676954Y-46850919D01*
X80057223Y-47008820D01*
X80468971Y-47009179D01*
X80835933Y-46857554D01*
X81200223Y-47008820D01*
X81611971Y-47009179D01*
X81992515Y-46851942D01*
X82283919Y-46561046D01*
X82441820Y-46180777D01*
X82442179Y-45769029D01*
X82284942Y-45388485D01*
X82167000Y-45270337D01*
X82167000Y-44777530D01*
X82176511Y-44783885D01*
X82750000Y-44897959D01*
X83323489Y-44783885D01*
X83809670Y-44459029D01*
X84020000Y-44144248D01*
X84230330Y-44459029D01*
X84716511Y-44783885D01*
X85290000Y-44897959D01*
X85863489Y-44783885D01*
X86349670Y-44459029D01*
X86560000Y-44144248D01*
X86770330Y-44459029D01*
X87256511Y-44783885D01*
X87830000Y-44897959D01*
X88403489Y-44783885D01*
X88889670Y-44459029D01*
X89100000Y-44144248D01*
X89310330Y-44459029D01*
X89796511Y-44783885D01*
X90370000Y-44897959D01*
X90943489Y-44783885D01*
X91429670Y-44459029D01*
X91640000Y-44144248D01*
X91850330Y-44459029D01*
X92336511Y-44783885D01*
X92910000Y-44897959D01*
X93483489Y-44783885D01*
X93969670Y-44459029D01*
X94180000Y-44144248D01*
X94390330Y-44459029D01*
X94876511Y-44783885D01*
X95450000Y-44897959D01*
X96023489Y-44783885D01*
X96509670Y-44459029D01*
X96720000Y-44144248D01*
X96930330Y-44459029D01*
X97416511Y-44783885D01*
X97990000Y-44897959D01*
X98563489Y-44783885D01*
X99049670Y-44459029D01*
X99260000Y-44144248D01*
X99470330Y-44459029D01*
X99956511Y-44783885D01*
X100530000Y-44897959D01*
X101103489Y-44783885D01*
X101589670Y-44459029D01*
X101854000Y-44063431D01*
X101854000Y-45720000D01*
G36*
X58830330Y-41919029D02*
X59101172Y-42100000D01*
X58830330Y-42280971D01*
X58620000Y-42595752D01*
X58409670Y-42280971D01*
X58138839Y-42100008D01*
X58556821Y-41718490D01*
X58614336Y-41595772D01*
X58830330Y-41919029D01*
X58830330Y-41919029D01*
G37*
X58830330Y-41919029D02*
X59101172Y-42100000D01*
X58830330Y-42280971D01*
X58620000Y-42595752D01*
X58409670Y-42280971D01*
X58138839Y-42100008D01*
X58556821Y-41718490D01*
X58614336Y-41595772D01*
X58830330Y-41919029D01*
G36*
X70339180Y-39290223D02*
X70339120Y-39359550D01*
X70050000Y-39302041D01*
X69476511Y-39416115D01*
X68990330Y-39740971D01*
X68780000Y-40055752D01*
X68569670Y-39740971D01*
X68083489Y-39416115D01*
X67510000Y-39302041D01*
X66936511Y-39416115D01*
X66450330Y-39740971D01*
X66240000Y-40055752D01*
X66029670Y-39740971D01*
X65543489Y-39416115D01*
X64970000Y-39302041D01*
X64396511Y-39416115D01*
X63910330Y-39740971D01*
X63700000Y-40055752D01*
X63489670Y-39740971D01*
X63003489Y-39416115D01*
X62430000Y-39302041D01*
X61856511Y-39416115D01*
X61370330Y-39740971D01*
X61160000Y-40055752D01*
X60949670Y-39740971D01*
X60463489Y-39416115D01*
X59890000Y-39302041D01*
X59316511Y-39416115D01*
X58830330Y-39740971D01*
X58614336Y-40064228D01*
X58556821Y-39941510D01*
X58124947Y-39547312D01*
X57709026Y-39375042D01*
X57477000Y-39496183D01*
X57477000Y-40703000D01*
X57497000Y-40703000D01*
X57497000Y-40957000D01*
X57477000Y-40957000D01*
X57477000Y-40977000D01*
X57223000Y-40977000D01*
X57223000Y-40957000D01*
X57203000Y-40957000D01*
X57203000Y-40703000D01*
X57223000Y-40703000D01*
X57223000Y-39496183D01*
X56990974Y-39375042D01*
X56575053Y-39547312D01*
X56143179Y-39941510D01*
X56085664Y-40064228D01*
X55869670Y-39740971D01*
X55383489Y-39416115D01*
X54810000Y-39302041D01*
X54236511Y-39416115D01*
X53750330Y-39740971D01*
X53540000Y-40055752D01*
X53329670Y-39740971D01*
X52843489Y-39416115D01*
X52270000Y-39302041D01*
X51696511Y-39416115D01*
X51210330Y-39740971D01*
X50927000Y-40165004D01*
X50927000Y-39285000D01*
X70341349Y-39285000D01*
X70339180Y-39290223D01*
X70339180Y-39290223D01*
G37*
X70339180Y-39290223D02*
X70339120Y-39359550D01*
X70050000Y-39302041D01*
X69476511Y-39416115D01*
X68990330Y-39740971D01*
X68780000Y-40055752D01*
X68569670Y-39740971D01*
X68083489Y-39416115D01*
X67510000Y-39302041D01*
X66936511Y-39416115D01*
X66450330Y-39740971D01*
X66240000Y-40055752D01*
X66029670Y-39740971D01*
X65543489Y-39416115D01*
X64970000Y-39302041D01*
X64396511Y-39416115D01*
X63910330Y-39740971D01*
X63700000Y-40055752D01*
X63489670Y-39740971D01*
X63003489Y-39416115D01*
X62430000Y-39302041D01*
X61856511Y-39416115D01*
X61370330Y-39740971D01*
X61160000Y-40055752D01*
X60949670Y-39740971D01*
X60463489Y-39416115D01*
X59890000Y-39302041D01*
X59316511Y-39416115D01*
X58830330Y-39740971D01*
X58614336Y-40064228D01*
X58556821Y-39941510D01*
X58124947Y-39547312D01*
X57709026Y-39375042D01*
X57477000Y-39496183D01*
X57477000Y-40703000D01*
X57497000Y-40703000D01*
X57497000Y-40957000D01*
X57477000Y-40957000D01*
X57477000Y-40977000D01*
X57223000Y-40977000D01*
X57223000Y-40957000D01*
X57203000Y-40957000D01*
X57203000Y-40703000D01*
X57223000Y-40703000D01*
X57223000Y-39496183D01*
X56990974Y-39375042D01*
X56575053Y-39547312D01*
X56143179Y-39941510D01*
X56085664Y-40064228D01*
X55869670Y-39740971D01*
X55383489Y-39416115D01*
X54810000Y-39302041D01*
X54236511Y-39416115D01*
X53750330Y-39740971D01*
X53540000Y-40055752D01*
X53329670Y-39740971D01*
X52843489Y-39416115D01*
X52270000Y-39302041D01*
X51696511Y-39416115D01*
X51210330Y-39740971D01*
X50927000Y-40165004D01*
X50927000Y-39285000D01*
X70341349Y-39285000D01*
X70339180Y-39290223D01*
M02*
