M48
INCH,TZ
T1C0.016
T2C0.039
T3C0.040
T4C0.059
T5C0.067
%
G90
G05
T1
X20600Y-18100
X21600Y-18100
X21850Y-24450
X21950Y-23100
X22600Y-18100
X23100Y-18800
X23100Y-25100
X23250Y-20100
X25280Y-21110
X25300Y-22150
X25300Y-23100
X25300Y-24100
X25750Y-24850
X25850Y-18125
X26650Y-18126
X27650Y-24000
X27650Y-34100
X27700Y-36100
X27800Y-21500
X27800Y-22900
X27900Y-21950
X28100Y-15550
X28100Y-23250
X28150Y-25550
X28400Y-23650
X28600Y-26250
X28650Y-29050
X28650Y-31300
X28650Y-32900
X28700Y-32475
X28725Y-28650
X28750Y-25775
X28775Y-30875
X28800Y-26675
X28800Y-31775
X28825Y-29475
X28850Y-22600
X29000Y-21100
X29050Y-16550
X29175Y-28000
X29175Y-28450
X29175Y-30100
X29175Y-30550
X29225Y-31800
X29225Y-32325
X29250Y-29500
X29275Y-26775
X29275Y-27175
X29275Y-27575
X29325Y-25700
X29475Y-29800
X29600Y-18100
X29800Y-25100
X29800Y-25575
X30250Y-32900
X30350Y-21600
X30475Y-31300
X30600Y-18100
X30625Y-25100
X30625Y-25575
X30700Y-21175
X30725Y-32875
X30875Y-31600
X30875Y-32025
X30875Y-32475
X30950Y-25575
X30950Y-26750
X30950Y-27150
X30950Y-27550
X30950Y-30150
X30950Y-30575
X30950Y-31025
X31000Y-27950
X31000Y-28375
X31050Y-21600
X31250Y-25625
X31375Y-28550
X31400Y-22400
X31400Y-26650
X31450Y-30075
X31500Y-25900
X31500Y-26250
X31550Y-29050
X31550Y-29650
X31600Y-18100
X31850Y-34050
X31900Y-36100
X31950Y-23000
X32050Y-18100
X32525Y-23125
X32600Y-25150
X32700Y-23700
X36700Y-22200
X36850Y-21700
X37050Y-24150
X37450Y-24550
X37550Y-20550
X38050Y-25600
X38250Y-20550
X38800Y-22200
T2
X24300Y-20100
X24300Y-21100
X24300Y-22100
X24300Y-23100
X24300Y-24100
X24300Y-25100
T3
X20579Y-16075
X20579Y-17075
X21579Y-16075
X21579Y-17075
X22579Y-16075
X22579Y-17075
X23579Y-16075
X23579Y-17075
X24579Y-16075
X24579Y-17075
X25579Y-16075
X25579Y-17075
X26579Y-16075
X26579Y-17075
X27579Y-16075
X27579Y-17075
X28579Y-16075
X28579Y-17075
X29579Y-16075
X29579Y-17075
X30579Y-16075
X30579Y-17075
X31579Y-16075
X31579Y-17075
X32579Y-16075
X32579Y-17075
X33579Y-16075
X33579Y-17075
X34579Y-16075
X34579Y-17075
X35579Y-16075
X35579Y-17075
X36579Y-16075
X36579Y-17075
X37579Y-16075
X37579Y-17075
X38579Y-16075
X38579Y-17075
X39579Y-16075
X39579Y-17075
T4
X29775Y-35075
T5
X28775Y-34075
X28775Y-36075
X30775Y-34075
X30775Y-36075
T0
M30
