G04 #@! TF.FileFunction,Legend,Top*
%FSLAX46Y46*%
G04 Gerber Fmt 4.6, Leading zero omitted, Abs format (unit mm)*
G04 Created by KiCad (PCBNEW 4.0.7) date Sat Mar 24 05:53:16 2018*
%MOMM*%
%LPD*%
G01*
G04 APERTURE LIST*
%ADD10C,0.100000*%
%ADD11C,0.254000*%
%ADD12C,0.120000*%
%ADD13C,0.150000*%
G04 APERTURE END LIST*
D10*
D11*
X75726000Y-63302000D02*
G75*
G03X75726000Y-63302000I-125000J0D01*
G01*
D10*
X54887000Y-49203000D02*
X54887000Y-49603000D01*
X54887000Y-49603000D02*
X54587000Y-49403000D01*
X54587000Y-49403000D02*
X54887000Y-49203000D01*
X54537000Y-49203000D02*
X54537000Y-49603000D01*
D12*
X53437000Y-48903000D02*
X53437000Y-49903000D01*
X53437000Y-49903000D02*
X55537000Y-49903000D01*
X53437000Y-48903000D02*
X55537000Y-48903000D01*
X66243000Y-63995000D02*
X69393000Y-63995000D01*
X69393000Y-63995000D02*
X69393000Y-59195000D01*
D13*
X94006000Y-57322000D02*
X94006000Y-59772000D01*
X97256000Y-56597000D02*
X97256000Y-59772000D01*
X101800000Y-39560000D02*
X51000000Y-39560000D01*
X53540000Y-44640000D02*
X101800000Y-44640000D01*
X101800000Y-39560000D02*
X101800000Y-44640000D01*
X51000000Y-39560000D02*
X51000000Y-42100000D01*
X50720000Y-43370000D02*
X50720000Y-44920000D01*
X51000000Y-42100000D02*
X53540000Y-42100000D01*
X53540000Y-42100000D02*
X53540000Y-44640000D01*
X50720000Y-44920000D02*
X52270000Y-44920000D01*
D12*
X74516500Y-83029500D02*
X75216500Y-83029500D01*
X75216500Y-84229500D02*
X74516500Y-84229500D01*
X76552500Y-81947500D02*
X76552500Y-81247500D01*
X77752500Y-81247500D02*
X77752500Y-81947500D01*
X74516500Y-78965500D02*
X75216500Y-78965500D01*
X75216500Y-80165500D02*
X74516500Y-80165500D01*
X76806500Y-77883500D02*
X76806500Y-77183500D01*
X78006500Y-77183500D02*
X78006500Y-77883500D01*
X74516500Y-73123500D02*
X75216500Y-73123500D01*
X75216500Y-74323500D02*
X74516500Y-74323500D01*
X78518500Y-74323500D02*
X77818500Y-74323500D01*
X77818500Y-73123500D02*
X78518500Y-73123500D01*
X75028500Y-69247500D02*
X75028500Y-68547500D01*
X76228500Y-68547500D02*
X76228500Y-69247500D01*
X76806500Y-69247500D02*
X76806500Y-68547500D01*
X78006500Y-68547500D02*
X78006500Y-69247500D01*
X73119500Y-63217500D02*
X73819500Y-63217500D01*
X73819500Y-64417500D02*
X73119500Y-64417500D01*
X80931500Y-64417500D02*
X80231500Y-64417500D01*
X80231500Y-63217500D02*
X80931500Y-63217500D01*
X72863000Y-56800000D02*
X72863000Y-57500000D01*
X71663000Y-57500000D02*
X71663000Y-56800000D01*
X96047000Y-63215000D02*
X96047000Y-62515000D01*
X97247000Y-62515000D02*
X97247000Y-63215000D01*
X74948500Y-82097500D02*
X74948500Y-81097500D01*
X76308500Y-81097500D02*
X76308500Y-82097500D01*
X74948500Y-78033500D02*
X74948500Y-77033500D01*
X76308500Y-77033500D02*
X76308500Y-78033500D01*
X77668500Y-74567500D02*
X78668500Y-74567500D01*
X78668500Y-75927500D02*
X77668500Y-75927500D01*
X74948500Y-72191500D02*
X74948500Y-71191500D01*
X76308500Y-71191500D02*
X76308500Y-72191500D01*
X76726500Y-72191500D02*
X76726500Y-71191500D01*
X78086500Y-71191500D02*
X78086500Y-72191500D01*
X77668500Y-65931500D02*
X78668500Y-65931500D01*
X78668500Y-67291500D02*
X77668500Y-67291500D01*
X75366500Y-67291500D02*
X74366500Y-67291500D01*
X74366500Y-65931500D02*
X75366500Y-65931500D01*
X80917500Y-62158500D02*
X80917500Y-61158500D01*
X82277500Y-61158500D02*
X82277500Y-62158500D01*
X78928500Y-88090500D02*
X78928500Y-90090500D01*
X72328500Y-88090500D02*
X72328500Y-90090500D01*
X76628500Y-92390500D02*
X74628500Y-92390500D01*
X76628500Y-85790500D02*
X74628500Y-85790500D01*
X63052000Y-49724000D02*
X60392000Y-49724000D01*
X63052000Y-62484000D02*
X63052000Y-49724000D01*
X60392000Y-62484000D02*
X60392000Y-49724000D01*
X63052000Y-62484000D02*
X60392000Y-62484000D01*
X63052000Y-63754000D02*
X63052000Y-65084000D01*
X63052000Y-65084000D02*
X61722000Y-65084000D01*
X57412000Y-60534000D02*
X58412000Y-60534000D01*
X58412000Y-61894000D02*
X57412000Y-61894000D01*
X57412000Y-57994000D02*
X58412000Y-57994000D01*
X58412000Y-59354000D02*
X57412000Y-59354000D01*
X96475000Y-54856000D02*
X96475000Y-53856000D01*
X97835000Y-53856000D02*
X97835000Y-54856000D01*
X94697000Y-54856000D02*
X94697000Y-53856000D01*
X96057000Y-53856000D02*
X96057000Y-54856000D01*
X55237000Y-52369000D02*
X54237000Y-52369000D01*
X54237000Y-51009000D02*
X55237000Y-51009000D01*
D11*
X79550381Y-54867024D02*
X79550381Y-55895119D01*
X79610857Y-56016071D01*
X79671333Y-56076548D01*
X79792286Y-56137024D01*
X80034190Y-56137024D01*
X80155143Y-56076548D01*
X80215619Y-56016071D01*
X80276095Y-55895119D01*
X80276095Y-54867024D01*
X81546095Y-56137024D02*
X80820381Y-56137024D01*
X81183238Y-56137024D02*
X81183238Y-54867024D01*
X81062286Y-55048452D01*
X80941333Y-55169405D01*
X80820381Y-55229881D01*
D13*
X75279215Y-63063381D02*
X74707786Y-63063381D01*
X74993500Y-63063381D02*
X74993500Y-62063381D01*
X74898262Y-62206238D01*
X74803024Y-62301476D01*
X74707786Y-62349095D01*
X53998905Y-48605381D02*
X53998905Y-47605381D01*
X54237000Y-47605381D01*
X54379858Y-47653000D01*
X54475096Y-47748238D01*
X54522715Y-47843476D01*
X54570334Y-48033952D01*
X54570334Y-48176810D01*
X54522715Y-48367286D01*
X54475096Y-48462524D01*
X54379858Y-48557762D01*
X54237000Y-48605381D01*
X53998905Y-48605381D01*
X55522715Y-48605381D02*
X54951286Y-48605381D01*
X55237000Y-48605381D02*
X55237000Y-47605381D01*
X55141762Y-47748238D01*
X55046524Y-47843476D01*
X54951286Y-47891095D01*
X67214809Y-65127190D02*
X67214809Y-65603381D01*
X66881476Y-64603381D02*
X67214809Y-65127190D01*
X67548143Y-64603381D01*
X68405286Y-65603381D02*
X67833857Y-65603381D01*
X68119571Y-65603381D02*
X68119571Y-64603381D01*
X68024333Y-64746238D01*
X67929095Y-64841476D01*
X67833857Y-64889095D01*
X70072215Y-64968381D02*
X69500786Y-64968381D01*
X69786500Y-64968381D02*
X69786500Y-63968381D01*
X69691262Y-64111238D01*
X69596024Y-64206476D01*
X69500786Y-64254095D01*
X97623381Y-60642405D02*
X98432905Y-60642405D01*
X98528143Y-60594786D01*
X98575762Y-60547167D01*
X98623381Y-60451929D01*
X98623381Y-60261452D01*
X98575762Y-60166214D01*
X98528143Y-60118595D01*
X98432905Y-60070976D01*
X97623381Y-60070976D01*
X97718619Y-59642405D02*
X97671000Y-59594786D01*
X97623381Y-59499548D01*
X97623381Y-59261452D01*
X97671000Y-59166214D01*
X97718619Y-59118595D01*
X97813857Y-59070976D01*
X97909095Y-59070976D01*
X98051952Y-59118595D01*
X98623381Y-59690024D01*
X98623381Y-59070976D01*
X97670881Y-55975285D02*
X97670881Y-56546714D01*
X97670881Y-56261000D02*
X96670881Y-56261000D01*
X96813738Y-56356238D01*
X96908976Y-56451476D01*
X96956595Y-56546714D01*
X54173381Y-47029595D02*
X53173381Y-47029595D01*
X53173381Y-46648642D01*
X53221000Y-46553404D01*
X53268619Y-46505785D01*
X53363857Y-46458166D01*
X53506714Y-46458166D01*
X53601952Y-46505785D01*
X53649571Y-46553404D01*
X53697190Y-46648642D01*
X53697190Y-47029595D01*
X53268619Y-46077214D02*
X53221000Y-46029595D01*
X53173381Y-45934357D01*
X53173381Y-45696261D01*
X53221000Y-45601023D01*
X53268619Y-45553404D01*
X53363857Y-45505785D01*
X53459095Y-45505785D01*
X53601952Y-45553404D01*
X54173381Y-46124833D01*
X54173381Y-45505785D01*
X72048643Y-83859666D02*
X72096262Y-83907285D01*
X72143881Y-84050142D01*
X72143881Y-84145380D01*
X72096262Y-84288238D01*
X72001024Y-84383476D01*
X71905786Y-84431095D01*
X71715310Y-84478714D01*
X71572452Y-84478714D01*
X71381976Y-84431095D01*
X71286738Y-84383476D01*
X71191500Y-84288238D01*
X71143881Y-84145380D01*
X71143881Y-84050142D01*
X71191500Y-83907285D01*
X71239119Y-83859666D01*
X72143881Y-82907285D02*
X72143881Y-83478714D01*
X72143881Y-83193000D02*
X71143881Y-83193000D01*
X71286738Y-83288238D01*
X71381976Y-83383476D01*
X71429595Y-83478714D01*
X80176643Y-81700666D02*
X80224262Y-81748285D01*
X80271881Y-81891142D01*
X80271881Y-81986380D01*
X80224262Y-82129238D01*
X80129024Y-82224476D01*
X80033786Y-82272095D01*
X79843310Y-82319714D01*
X79700452Y-82319714D01*
X79509976Y-82272095D01*
X79414738Y-82224476D01*
X79319500Y-82129238D01*
X79271881Y-81986380D01*
X79271881Y-81891142D01*
X79319500Y-81748285D01*
X79367119Y-81700666D01*
X79367119Y-81319714D02*
X79319500Y-81272095D01*
X79271881Y-81176857D01*
X79271881Y-80938761D01*
X79319500Y-80843523D01*
X79367119Y-80795904D01*
X79462357Y-80748285D01*
X79557595Y-80748285D01*
X79700452Y-80795904D01*
X80271881Y-81367333D01*
X80271881Y-80748285D01*
X72112143Y-79795666D02*
X72159762Y-79843285D01*
X72207381Y-79986142D01*
X72207381Y-80081380D01*
X72159762Y-80224238D01*
X72064524Y-80319476D01*
X71969286Y-80367095D01*
X71778810Y-80414714D01*
X71635952Y-80414714D01*
X71445476Y-80367095D01*
X71350238Y-80319476D01*
X71255000Y-80224238D01*
X71207381Y-80081380D01*
X71207381Y-79986142D01*
X71255000Y-79843285D01*
X71302619Y-79795666D01*
X71207381Y-79462333D02*
X71207381Y-78843285D01*
X71588333Y-79176619D01*
X71588333Y-79033761D01*
X71635952Y-78938523D01*
X71683571Y-78890904D01*
X71778810Y-78843285D01*
X72016905Y-78843285D01*
X72112143Y-78890904D01*
X72159762Y-78938523D01*
X72207381Y-79033761D01*
X72207381Y-79319476D01*
X72159762Y-79414714D01*
X72112143Y-79462333D01*
X80430643Y-77890666D02*
X80478262Y-77938285D01*
X80525881Y-78081142D01*
X80525881Y-78176380D01*
X80478262Y-78319238D01*
X80383024Y-78414476D01*
X80287786Y-78462095D01*
X80097310Y-78509714D01*
X79954452Y-78509714D01*
X79763976Y-78462095D01*
X79668738Y-78414476D01*
X79573500Y-78319238D01*
X79525881Y-78176380D01*
X79525881Y-78081142D01*
X79573500Y-77938285D01*
X79621119Y-77890666D01*
X79859214Y-77033523D02*
X80525881Y-77033523D01*
X79478262Y-77271619D02*
X80192548Y-77509714D01*
X80192548Y-76890666D01*
X72048643Y-73953666D02*
X72096262Y-74001285D01*
X72143881Y-74144142D01*
X72143881Y-74239380D01*
X72096262Y-74382238D01*
X72001024Y-74477476D01*
X71905786Y-74525095D01*
X71715310Y-74572714D01*
X71572452Y-74572714D01*
X71381976Y-74525095D01*
X71286738Y-74477476D01*
X71191500Y-74382238D01*
X71143881Y-74239380D01*
X71143881Y-74144142D01*
X71191500Y-74001285D01*
X71239119Y-73953666D01*
X71143881Y-73048904D02*
X71143881Y-73525095D01*
X71620071Y-73572714D01*
X71572452Y-73525095D01*
X71524833Y-73429857D01*
X71524833Y-73191761D01*
X71572452Y-73096523D01*
X71620071Y-73048904D01*
X71715310Y-73001285D01*
X71953405Y-73001285D01*
X72048643Y-73048904D01*
X72096262Y-73096523D01*
X72143881Y-73191761D01*
X72143881Y-73429857D01*
X72096262Y-73525095D01*
X72048643Y-73572714D01*
X81700643Y-73953666D02*
X81748262Y-74001285D01*
X81795881Y-74144142D01*
X81795881Y-74239380D01*
X81748262Y-74382238D01*
X81653024Y-74477476D01*
X81557786Y-74525095D01*
X81367310Y-74572714D01*
X81224452Y-74572714D01*
X81033976Y-74525095D01*
X80938738Y-74477476D01*
X80843500Y-74382238D01*
X80795881Y-74239380D01*
X80795881Y-74144142D01*
X80843500Y-74001285D01*
X80891119Y-73953666D01*
X80795881Y-73096523D02*
X80795881Y-73287000D01*
X80843500Y-73382238D01*
X80891119Y-73429857D01*
X81033976Y-73525095D01*
X81224452Y-73572714D01*
X81605405Y-73572714D01*
X81700643Y-73525095D01*
X81748262Y-73477476D01*
X81795881Y-73382238D01*
X81795881Y-73191761D01*
X81748262Y-73096523D01*
X81700643Y-73048904D01*
X81605405Y-73001285D01*
X81367310Y-73001285D01*
X81272071Y-73048904D01*
X81224452Y-73096523D01*
X81176833Y-73191761D01*
X81176833Y-73382238D01*
X81224452Y-73477476D01*
X81272071Y-73525095D01*
X81367310Y-73572714D01*
X73255143Y-69064166D02*
X73302762Y-69111785D01*
X73350381Y-69254642D01*
X73350381Y-69349880D01*
X73302762Y-69492738D01*
X73207524Y-69587976D01*
X73112286Y-69635595D01*
X72921810Y-69683214D01*
X72778952Y-69683214D01*
X72588476Y-69635595D01*
X72493238Y-69587976D01*
X72398000Y-69492738D01*
X72350381Y-69349880D01*
X72350381Y-69254642D01*
X72398000Y-69111785D01*
X72445619Y-69064166D01*
X72350381Y-68730833D02*
X72350381Y-68064166D01*
X73350381Y-68492738D01*
X80494143Y-69064166D02*
X80541762Y-69111785D01*
X80589381Y-69254642D01*
X80589381Y-69349880D01*
X80541762Y-69492738D01*
X80446524Y-69587976D01*
X80351286Y-69635595D01*
X80160810Y-69683214D01*
X80017952Y-69683214D01*
X79827476Y-69635595D01*
X79732238Y-69587976D01*
X79637000Y-69492738D01*
X79589381Y-69349880D01*
X79589381Y-69254642D01*
X79637000Y-69111785D01*
X79684619Y-69064166D01*
X80017952Y-68492738D02*
X79970333Y-68587976D01*
X79922714Y-68635595D01*
X79827476Y-68683214D01*
X79779857Y-68683214D01*
X79684619Y-68635595D01*
X79637000Y-68587976D01*
X79589381Y-68492738D01*
X79589381Y-68302261D01*
X79637000Y-68207023D01*
X79684619Y-68159404D01*
X79779857Y-68111785D01*
X79827476Y-68111785D01*
X79922714Y-68159404D01*
X79970333Y-68207023D01*
X80017952Y-68302261D01*
X80017952Y-68492738D01*
X80065571Y-68587976D01*
X80113190Y-68635595D01*
X80208429Y-68683214D01*
X80398905Y-68683214D01*
X80494143Y-68635595D01*
X80541762Y-68587976D01*
X80589381Y-68492738D01*
X80589381Y-68302261D01*
X80541762Y-68207023D01*
X80494143Y-68159404D01*
X80398905Y-68111785D01*
X80208429Y-68111785D01*
X80113190Y-68159404D01*
X80065571Y-68207023D01*
X80017952Y-68302261D01*
X71540643Y-63857166D02*
X71588262Y-63904785D01*
X71635881Y-64047642D01*
X71635881Y-64142880D01*
X71588262Y-64285738D01*
X71493024Y-64380976D01*
X71397786Y-64428595D01*
X71207310Y-64476214D01*
X71064452Y-64476214D01*
X70873976Y-64428595D01*
X70778738Y-64380976D01*
X70683500Y-64285738D01*
X70635881Y-64142880D01*
X70635881Y-64047642D01*
X70683500Y-63904785D01*
X70731119Y-63857166D01*
X71635881Y-63380976D02*
X71635881Y-63190500D01*
X71588262Y-63095261D01*
X71540643Y-63047642D01*
X71397786Y-62952404D01*
X71207310Y-62904785D01*
X70826357Y-62904785D01*
X70731119Y-62952404D01*
X70683500Y-63000023D01*
X70635881Y-63095261D01*
X70635881Y-63285738D01*
X70683500Y-63380976D01*
X70731119Y-63428595D01*
X70826357Y-63476214D01*
X71064452Y-63476214D01*
X71159690Y-63428595D01*
X71207310Y-63380976D01*
X71254929Y-63285738D01*
X71254929Y-63095261D01*
X71207310Y-63000023D01*
X71159690Y-62952404D01*
X71064452Y-62904785D01*
X84240643Y-65095357D02*
X84288262Y-65142976D01*
X84335881Y-65285833D01*
X84335881Y-65381071D01*
X84288262Y-65523929D01*
X84193024Y-65619167D01*
X84097786Y-65666786D01*
X83907310Y-65714405D01*
X83764452Y-65714405D01*
X83573976Y-65666786D01*
X83478738Y-65619167D01*
X83383500Y-65523929D01*
X83335881Y-65381071D01*
X83335881Y-65285833D01*
X83383500Y-65142976D01*
X83431119Y-65095357D01*
X84335881Y-64142976D02*
X84335881Y-64714405D01*
X84335881Y-64428691D02*
X83335881Y-64428691D01*
X83478738Y-64523929D01*
X83573976Y-64619167D01*
X83621595Y-64714405D01*
X83335881Y-63523929D02*
X83335881Y-63428690D01*
X83383500Y-63333452D01*
X83431119Y-63285833D01*
X83526357Y-63238214D01*
X83716833Y-63190595D01*
X83954929Y-63190595D01*
X84145405Y-63238214D01*
X84240643Y-63285833D01*
X84288262Y-63333452D01*
X84335881Y-63428690D01*
X84335881Y-63523929D01*
X84288262Y-63619167D01*
X84240643Y-63666786D01*
X84145405Y-63714405D01*
X83954929Y-63762024D01*
X83716833Y-63762024D01*
X83526357Y-63714405D01*
X83431119Y-63666786D01*
X83383500Y-63619167D01*
X83335881Y-63523929D01*
X71937643Y-55094143D02*
X71890024Y-55141762D01*
X71747167Y-55189381D01*
X71651929Y-55189381D01*
X71509071Y-55141762D01*
X71413833Y-55046524D01*
X71366214Y-54951286D01*
X71318595Y-54760810D01*
X71318595Y-54617952D01*
X71366214Y-54427476D01*
X71413833Y-54332238D01*
X71509071Y-54237000D01*
X71651929Y-54189381D01*
X71747167Y-54189381D01*
X71890024Y-54237000D01*
X71937643Y-54284619D01*
X72890024Y-55189381D02*
X72318595Y-55189381D01*
X72604309Y-55189381D02*
X72604309Y-54189381D01*
X72509071Y-54332238D01*
X72413833Y-54427476D01*
X72318595Y-54475095D01*
X73842405Y-55189381D02*
X73270976Y-55189381D01*
X73556690Y-55189381D02*
X73556690Y-54189381D01*
X73461452Y-54332238D01*
X73366214Y-54427476D01*
X73270976Y-54475095D01*
X96067643Y-66778143D02*
X96020024Y-66825762D01*
X95877167Y-66873381D01*
X95781929Y-66873381D01*
X95639071Y-66825762D01*
X95543833Y-66730524D01*
X95496214Y-66635286D01*
X95448595Y-66444810D01*
X95448595Y-66301952D01*
X95496214Y-66111476D01*
X95543833Y-66016238D01*
X95639071Y-65921000D01*
X95781929Y-65873381D01*
X95877167Y-65873381D01*
X96020024Y-65921000D01*
X96067643Y-65968619D01*
X97020024Y-66873381D02*
X96448595Y-66873381D01*
X96734309Y-66873381D02*
X96734309Y-65873381D01*
X96639071Y-66016238D01*
X96543833Y-66111476D01*
X96448595Y-66159095D01*
X97400976Y-65968619D02*
X97448595Y-65921000D01*
X97543833Y-65873381D01*
X97781929Y-65873381D01*
X97877167Y-65921000D01*
X97924786Y-65968619D01*
X97972405Y-66063857D01*
X97972405Y-66159095D01*
X97924786Y-66301952D01*
X97353357Y-66873381D01*
X97972405Y-66873381D01*
X73350381Y-81764166D02*
X73350381Y-82240357D01*
X72350381Y-82240357D01*
X73350381Y-80907023D02*
X73350381Y-81478452D01*
X73350381Y-81192738D02*
X72350381Y-81192738D01*
X72493238Y-81287976D01*
X72588476Y-81383214D01*
X72636095Y-81478452D01*
X73413881Y-77763666D02*
X73413881Y-78239857D01*
X72413881Y-78239857D01*
X72509119Y-77477952D02*
X72461500Y-77430333D01*
X72413881Y-77335095D01*
X72413881Y-77096999D01*
X72461500Y-77001761D01*
X72509119Y-76954142D01*
X72604357Y-76906523D01*
X72699595Y-76906523D01*
X72842452Y-76954142D01*
X73413881Y-77525571D01*
X73413881Y-76906523D01*
X81795881Y-75922166D02*
X81795881Y-76398357D01*
X80795881Y-76398357D01*
X80795881Y-75684071D02*
X80795881Y-75065023D01*
X81176833Y-75398357D01*
X81176833Y-75255499D01*
X81224452Y-75160261D01*
X81272071Y-75112642D01*
X81367310Y-75065023D01*
X81605405Y-75065023D01*
X81700643Y-75112642D01*
X81748262Y-75160261D01*
X81795881Y-75255499D01*
X81795881Y-75541214D01*
X81748262Y-75636452D01*
X81700643Y-75684071D01*
X73350381Y-71731166D02*
X73350381Y-72207357D01*
X72350381Y-72207357D01*
X72683714Y-70969261D02*
X73350381Y-70969261D01*
X72302762Y-71207357D02*
X73017048Y-71445452D01*
X73017048Y-70826404D01*
X80652881Y-71731166D02*
X80652881Y-72207357D01*
X79652881Y-72207357D01*
X79652881Y-70921642D02*
X79652881Y-71397833D01*
X80129071Y-71445452D01*
X80081452Y-71397833D01*
X80033833Y-71302595D01*
X80033833Y-71064499D01*
X80081452Y-70969261D01*
X80129071Y-70921642D01*
X80224310Y-70874023D01*
X80462405Y-70874023D01*
X80557643Y-70921642D01*
X80605262Y-70969261D01*
X80652881Y-71064499D01*
X80652881Y-71302595D01*
X80605262Y-71397833D01*
X80557643Y-71445452D01*
X81478381Y-66778166D02*
X81478381Y-67254357D01*
X80478381Y-67254357D01*
X80478381Y-66016261D02*
X80478381Y-66206738D01*
X80526000Y-66301976D01*
X80573619Y-66349595D01*
X80716476Y-66444833D01*
X80906952Y-66492452D01*
X81287905Y-66492452D01*
X81383143Y-66444833D01*
X81430762Y-66397214D01*
X81478381Y-66301976D01*
X81478381Y-66111499D01*
X81430762Y-66016261D01*
X81383143Y-65968642D01*
X81287905Y-65921023D01*
X81049810Y-65921023D01*
X80954571Y-65968642D01*
X80906952Y-66016261D01*
X80859333Y-66111499D01*
X80859333Y-66301976D01*
X80906952Y-66397214D01*
X80954571Y-66444833D01*
X81049810Y-66492452D01*
X72016881Y-66778166D02*
X72016881Y-67254357D01*
X71016881Y-67254357D01*
X71016881Y-66540071D02*
X71016881Y-65873404D01*
X72016881Y-66301976D01*
X84018381Y-61952166D02*
X84018381Y-62428357D01*
X83018381Y-62428357D01*
X83446952Y-61475976D02*
X83399333Y-61571214D01*
X83351714Y-61618833D01*
X83256476Y-61666452D01*
X83208857Y-61666452D01*
X83113619Y-61618833D01*
X83066000Y-61571214D01*
X83018381Y-61475976D01*
X83018381Y-61285499D01*
X83066000Y-61190261D01*
X83113619Y-61142642D01*
X83208857Y-61095023D01*
X83256476Y-61095023D01*
X83351714Y-61142642D01*
X83399333Y-61190261D01*
X83446952Y-61285499D01*
X83446952Y-61475976D01*
X83494571Y-61571214D01*
X83542190Y-61618833D01*
X83637429Y-61666452D01*
X83827905Y-61666452D01*
X83923143Y-61618833D01*
X83970762Y-61571214D01*
X84018381Y-61475976D01*
X84018381Y-61285499D01*
X83970762Y-61190261D01*
X83923143Y-61142642D01*
X83827905Y-61095023D01*
X83637429Y-61095023D01*
X83542190Y-61142642D01*
X83494571Y-61190261D01*
X83446952Y-61285499D01*
X81080881Y-89828595D02*
X80080881Y-89828595D01*
X80080881Y-89447642D01*
X80128500Y-89352404D01*
X80176119Y-89304785D01*
X80271357Y-89257166D01*
X80414214Y-89257166D01*
X80509452Y-89304785D01*
X80557071Y-89352404D01*
X80604690Y-89447642D01*
X80604690Y-89828595D01*
X81080881Y-88304785D02*
X81080881Y-88876214D01*
X81080881Y-88590500D02*
X80080881Y-88590500D01*
X80223738Y-88685738D01*
X80318976Y-88780976D01*
X80366595Y-88876214D01*
X60983905Y-66536381D02*
X60983905Y-65536381D01*
X61364858Y-65536381D01*
X61460096Y-65584000D01*
X61507715Y-65631619D01*
X61555334Y-65726857D01*
X61555334Y-65869714D01*
X61507715Y-65964952D01*
X61460096Y-66012571D01*
X61364858Y-66060190D01*
X60983905Y-66060190D01*
X61888667Y-65536381D02*
X62507715Y-65536381D01*
X62174381Y-65917333D01*
X62317239Y-65917333D01*
X62412477Y-65964952D01*
X62460096Y-66012571D01*
X62507715Y-66107810D01*
X62507715Y-66345905D01*
X62460096Y-66441143D01*
X62412477Y-66488762D01*
X62317239Y-66536381D01*
X62031524Y-66536381D01*
X61936286Y-66488762D01*
X61888667Y-66441143D01*
X57046834Y-63380881D02*
X56713500Y-62904690D01*
X56475405Y-63380881D02*
X56475405Y-62380881D01*
X56856358Y-62380881D01*
X56951596Y-62428500D01*
X56999215Y-62476119D01*
X57046834Y-62571357D01*
X57046834Y-62714214D01*
X56999215Y-62809452D01*
X56951596Y-62857071D01*
X56856358Y-62904690D01*
X56475405Y-62904690D01*
X57999215Y-63380881D02*
X57427786Y-63380881D01*
X57713500Y-63380881D02*
X57713500Y-62380881D01*
X57618262Y-62523738D01*
X57523024Y-62618976D01*
X57427786Y-62666595D01*
X56856334Y-57284881D02*
X56523000Y-56808690D01*
X56284905Y-57284881D02*
X56284905Y-56284881D01*
X56665858Y-56284881D01*
X56761096Y-56332500D01*
X56808715Y-56380119D01*
X56856334Y-56475357D01*
X56856334Y-56618214D01*
X56808715Y-56713452D01*
X56761096Y-56761071D01*
X56665858Y-56808690D01*
X56284905Y-56808690D01*
X57237286Y-56380119D02*
X57284905Y-56332500D01*
X57380143Y-56284881D01*
X57618239Y-56284881D01*
X57713477Y-56332500D01*
X57761096Y-56380119D01*
X57808715Y-56475357D01*
X57808715Y-56570595D01*
X57761096Y-56713452D01*
X57189667Y-57284881D01*
X57808715Y-57284881D01*
X97305834Y-51125381D02*
X96972500Y-50649190D01*
X96734405Y-51125381D02*
X96734405Y-50125381D01*
X97115358Y-50125381D01*
X97210596Y-50173000D01*
X97258215Y-50220619D01*
X97305834Y-50315857D01*
X97305834Y-50458714D01*
X97258215Y-50553952D01*
X97210596Y-50601571D01*
X97115358Y-50649190D01*
X96734405Y-50649190D01*
X97639167Y-50125381D02*
X98258215Y-50125381D01*
X97924881Y-50506333D01*
X98067739Y-50506333D01*
X98162977Y-50553952D01*
X98210596Y-50601571D01*
X98258215Y-50696810D01*
X98258215Y-50934905D01*
X98210596Y-51030143D01*
X98162977Y-51077762D01*
X98067739Y-51125381D01*
X97782024Y-51125381D01*
X97686786Y-51077762D01*
X97639167Y-51030143D01*
X94892834Y-50998381D02*
X94559500Y-50522190D01*
X94321405Y-50998381D02*
X94321405Y-49998381D01*
X94702358Y-49998381D01*
X94797596Y-50046000D01*
X94845215Y-50093619D01*
X94892834Y-50188857D01*
X94892834Y-50331714D01*
X94845215Y-50426952D01*
X94797596Y-50474571D01*
X94702358Y-50522190D01*
X94321405Y-50522190D01*
X95749977Y-50331714D02*
X95749977Y-50998381D01*
X95511881Y-49950762D02*
X95273786Y-50665048D01*
X95892834Y-50665048D01*
X54506834Y-53665381D02*
X54173500Y-53189190D01*
X53935405Y-53665381D02*
X53935405Y-52665381D01*
X54316358Y-52665381D01*
X54411596Y-52713000D01*
X54459215Y-52760619D01*
X54506834Y-52855857D01*
X54506834Y-52998714D01*
X54459215Y-53093952D01*
X54411596Y-53141571D01*
X54316358Y-53189190D01*
X53935405Y-53189190D01*
X55411596Y-52665381D02*
X54935405Y-52665381D01*
X54887786Y-53141571D01*
X54935405Y-53093952D01*
X55030643Y-53046333D01*
X55268739Y-53046333D01*
X55363977Y-53093952D01*
X55411596Y-53141571D01*
X55459215Y-53236810D01*
X55459215Y-53474905D01*
X55411596Y-53570143D01*
X55363977Y-53617762D01*
X55268739Y-53665381D01*
X55030643Y-53665381D01*
X54935405Y-53617762D01*
X54887786Y-53570143D01*
M02*
