G04 #@! TF.FileFunction,Copper,L3,Inr,Signal*
%FSLAX46Y46*%
G04 Gerber Fmt 4.6, Leading zero omitted, Abs format (unit mm)*
G04 Created by KiCad (PCBNEW 4.0.7) date Sat Mar 24 05:53:16 2018*
%MOMM*%
%LPD*%
G01*
G04 APERTURE LIST*
%ADD10C,0.100000*%
%ADD11R,1.727200X1.727200*%
%ADD12O,1.727200X1.727200*%
%ADD13C,2.200000*%
%ADD14C,2.000000*%
%ADD15R,1.700000X1.700000*%
%ADD16O,1.700000X1.700000*%
%ADD17C,0.800000*%
%ADD18C,0.250000*%
%ADD19C,0.254000*%
G04 APERTURE END LIST*
D10*
D11*
X52270000Y-43370000D03*
D12*
X52270000Y-40830000D03*
X54810000Y-43370000D03*
X54810000Y-40830000D03*
X57350000Y-43370000D03*
X57350000Y-40830000D03*
X59890000Y-43370000D03*
X59890000Y-40830000D03*
X62430000Y-43370000D03*
X62430000Y-40830000D03*
X64970000Y-43370000D03*
X64970000Y-40830000D03*
X67510000Y-43370000D03*
X67510000Y-40830000D03*
X70050000Y-43370000D03*
X70050000Y-40830000D03*
X72590000Y-43370000D03*
X72590000Y-40830000D03*
X75130000Y-43370000D03*
X75130000Y-40830000D03*
X77670000Y-43370000D03*
X77670000Y-40830000D03*
X80210000Y-43370000D03*
X80210000Y-40830000D03*
X82750000Y-43370000D03*
X82750000Y-40830000D03*
X85290000Y-43370000D03*
X85290000Y-40830000D03*
X87830000Y-43370000D03*
X87830000Y-40830000D03*
X90370000Y-43370000D03*
X90370000Y-40830000D03*
X92910000Y-43370000D03*
X92910000Y-40830000D03*
X95450000Y-43370000D03*
X95450000Y-40830000D03*
X97990000Y-43370000D03*
X97990000Y-40830000D03*
X100530000Y-43370000D03*
X100530000Y-40830000D03*
D13*
X73088500Y-86550500D03*
X78168500Y-86550500D03*
X78168500Y-91630500D03*
X73088500Y-91630500D03*
D14*
X75628500Y-89090500D03*
D15*
X61722000Y-63754000D03*
D16*
X61722000Y-61214000D03*
X61722000Y-58674000D03*
X61722000Y-56134000D03*
X61722000Y-53594000D03*
X61722000Y-51054000D03*
D17*
X78613000Y-64960500D03*
X79375000Y-65087500D03*
X80010000Y-66675000D03*
X80010000Y-65786000D03*
X77787500Y-63754000D03*
X77787500Y-64960500D03*
X59055000Y-51054000D03*
X82804000Y-63881000D03*
X72771000Y-79502000D03*
X72898000Y-82486500D03*
X74231500Y-82105500D03*
X74231500Y-80772000D03*
X73152000Y-80708500D03*
X72771000Y-73787000D03*
X73088500Y-78422500D03*
X74104500Y-77597000D03*
X74104500Y-76454000D03*
X74866500Y-75692000D03*
X74295000Y-74930000D03*
X73215500Y-74866500D03*
X72644000Y-66675000D03*
X72961500Y-72771000D03*
X74104500Y-72263000D03*
X74104500Y-71120000D03*
X74358500Y-70040500D03*
X74358500Y-69024500D03*
X74358500Y-68008500D03*
X73152000Y-67754500D03*
X75692000Y-63754000D03*
X73025000Y-65468500D03*
X74485500Y-65278000D03*
X75692000Y-64960500D03*
X80137000Y-75311000D03*
X76835000Y-83566000D03*
X78041500Y-83502500D03*
X78422500Y-82486500D03*
X78422500Y-81343500D03*
X78422500Y-80264000D03*
X77406500Y-79502000D03*
X78613000Y-78803500D03*
X78613000Y-77660500D03*
X78613000Y-76581000D03*
X79883000Y-76390500D03*
X78613000Y-67945000D03*
X79756000Y-67691000D03*
X79692500Y-72517000D03*
X78740000Y-72072500D03*
X78740000Y-70993000D03*
X78613000Y-69977000D03*
X78613000Y-68961000D03*
X93218000Y-56388000D03*
X72771000Y-83566000D03*
X58674000Y-47752000D03*
X55753000Y-58674000D03*
X55499000Y-62103000D03*
X70866000Y-55753000D03*
X65405000Y-63119000D03*
X70231000Y-60960000D03*
X71501000Y-64897000D03*
X94107000Y-61341000D03*
X96647000Y-65024000D03*
X80137000Y-73787000D03*
X81026000Y-91694000D03*
X80899000Y-86487000D03*
X70231000Y-86614000D03*
X70358000Y-91694000D03*
X95123000Y-62357000D03*
X97155000Y-52197000D03*
X95377000Y-52197000D03*
X70612000Y-58166000D03*
X58674000Y-63754000D03*
X52324000Y-45974000D03*
X83058000Y-60198000D03*
X54864000Y-45974000D03*
X57404000Y-45974000D03*
X82613500Y-58737500D03*
X73660000Y-53594000D03*
X65659000Y-46037500D03*
X67690500Y-46038900D03*
X81153000Y-58420000D03*
X98552000Y-56388000D03*
X71374000Y-39497000D03*
X73787000Y-42037000D03*
X93599000Y-55118000D03*
X77089000Y-54864000D03*
X75184000Y-45974000D03*
X77978000Y-53784500D03*
X77724000Y-45974000D03*
X78867000Y-54864000D03*
X80264000Y-45974000D03*
X79756000Y-56896000D03*
X81407000Y-45974000D03*
X64262000Y-61214000D03*
X72136000Y-60071000D03*
X64262000Y-58674000D03*
X71374000Y-59055000D03*
X73279000Y-57404000D03*
X64262000Y-56261000D03*
X64211200Y-53619400D03*
X70612000Y-54610000D03*
D18*
X93853000Y-62357000D02*
X88773000Y-57277000D01*
X95123000Y-62357000D02*
X93853000Y-62357000D01*
X94869000Y-51816000D02*
X96774000Y-51816000D01*
X96774000Y-51816000D02*
X97155000Y-52197000D01*
X70612000Y-58166000D02*
X80264000Y-58166000D01*
X80264000Y-58166000D02*
X81153000Y-57277000D01*
X81153000Y-57277000D02*
X88773000Y-57277000D01*
X94996000Y-51816000D02*
X95377000Y-52197000D01*
X94234000Y-51816000D02*
X94869000Y-51816000D01*
X88773000Y-57277000D02*
X94234000Y-51816000D01*
X94869000Y-51816000D02*
X94996000Y-51816000D01*
X64135000Y-57404000D02*
X52324000Y-57404000D01*
X64897000Y-58166000D02*
X64135000Y-57404000D01*
X70612000Y-58166000D02*
X64897000Y-58166000D01*
X52324000Y-57404000D02*
X58674000Y-63754000D01*
X52324000Y-54356000D02*
X52324000Y-57404000D01*
X52324000Y-45974000D02*
X52324000Y-54356000D01*
D19*
G36*
X101854000Y-45720000D02*
X101864006Y-45769410D01*
X101892447Y-45811035D01*
X101934841Y-45838315D01*
X101981000Y-45847000D01*
X108077767Y-45847000D01*
X108215000Y-68490410D01*
X108215000Y-87503000D01*
X101854000Y-87503000D01*
X101804590Y-87513006D01*
X101762965Y-87541447D01*
X101735685Y-87583841D01*
X101727000Y-87630000D01*
X101727000Y-93853000D01*
X51181000Y-93853000D01*
X51181000Y-92855368D01*
X72043237Y-92855368D01*
X72154141Y-93132599D01*
X72800093Y-93375823D01*
X73489953Y-93353336D01*
X74022859Y-93132599D01*
X74133763Y-92855368D01*
X77123237Y-92855368D01*
X77234141Y-93132599D01*
X77880093Y-93375823D01*
X78569953Y-93353336D01*
X79102859Y-93132599D01*
X79213763Y-92855368D01*
X78168500Y-91810105D01*
X77123237Y-92855368D01*
X74133763Y-92855368D01*
X73088500Y-91810105D01*
X72043237Y-92855368D01*
X51181000Y-92855368D01*
X51181000Y-91342093D01*
X71343177Y-91342093D01*
X71365664Y-92031953D01*
X71586401Y-92564859D01*
X71863632Y-92675763D01*
X72908895Y-91630500D01*
X73268105Y-91630500D01*
X74313368Y-92675763D01*
X74590599Y-92564859D01*
X74833823Y-91918907D01*
X74815021Y-91342093D01*
X76423177Y-91342093D01*
X76445664Y-92031953D01*
X76666401Y-92564859D01*
X76943632Y-92675763D01*
X77988895Y-91630500D01*
X78348105Y-91630500D01*
X79393368Y-92675763D01*
X79670599Y-92564859D01*
X79913823Y-91918907D01*
X79891336Y-91229047D01*
X79670599Y-90696141D01*
X79393368Y-90585237D01*
X78348105Y-91630500D01*
X77988895Y-91630500D01*
X76943632Y-90585237D01*
X76666401Y-90696141D01*
X76423177Y-91342093D01*
X74815021Y-91342093D01*
X74811336Y-91229047D01*
X74590599Y-90696141D01*
X74313368Y-90585237D01*
X73268105Y-91630500D01*
X72908895Y-91630500D01*
X71863632Y-90585237D01*
X71586401Y-90696141D01*
X71343177Y-91342093D01*
X51181000Y-91342093D01*
X51181000Y-90405632D01*
X72043237Y-90405632D01*
X73088500Y-91450895D01*
X74133763Y-90405632D01*
X74022859Y-90128401D01*
X73376907Y-89885177D01*
X72687047Y-89907664D01*
X72154141Y-90128401D01*
X72043237Y-90405632D01*
X51181000Y-90405632D01*
X51181000Y-89414295D01*
X73993216Y-89414295D01*
X74241606Y-90015443D01*
X74701137Y-90475778D01*
X75301852Y-90725216D01*
X75952295Y-90725784D01*
X76553443Y-90477394D01*
X76625330Y-90405632D01*
X77123237Y-90405632D01*
X78168500Y-91450895D01*
X79213763Y-90405632D01*
X79102859Y-90128401D01*
X78456907Y-89885177D01*
X77767047Y-89907664D01*
X77234141Y-90128401D01*
X77123237Y-90405632D01*
X76625330Y-90405632D01*
X77013778Y-90017863D01*
X77263216Y-89417148D01*
X77263784Y-88766705D01*
X77015394Y-88165557D01*
X76625887Y-87775368D01*
X77123237Y-87775368D01*
X77234141Y-88052599D01*
X77880093Y-88295823D01*
X78569953Y-88273336D01*
X79102859Y-88052599D01*
X79213763Y-87775368D01*
X78168500Y-86730105D01*
X77123237Y-87775368D01*
X76625887Y-87775368D01*
X76555863Y-87705222D01*
X75955148Y-87455784D01*
X75304705Y-87455216D01*
X74703557Y-87703606D01*
X74243222Y-88163137D01*
X73993784Y-88763852D01*
X73993216Y-89414295D01*
X51181000Y-89414295D01*
X51181000Y-87775368D01*
X72043237Y-87775368D01*
X72154141Y-88052599D01*
X72800093Y-88295823D01*
X73489953Y-88273336D01*
X74022859Y-88052599D01*
X74133763Y-87775368D01*
X73088500Y-86730105D01*
X72043237Y-87775368D01*
X51181000Y-87775368D01*
X51181000Y-87630000D01*
X51170994Y-87580590D01*
X51142553Y-87538965D01*
X51100159Y-87511685D01*
X51054000Y-87503000D01*
X44585000Y-87503000D01*
X44585000Y-86262093D01*
X71343177Y-86262093D01*
X71365664Y-86951953D01*
X71586401Y-87484859D01*
X71863632Y-87595763D01*
X72908895Y-86550500D01*
X73268105Y-86550500D01*
X74313368Y-87595763D01*
X74590599Y-87484859D01*
X74833823Y-86838907D01*
X74815021Y-86262093D01*
X76423177Y-86262093D01*
X76445664Y-86951953D01*
X76666401Y-87484859D01*
X76943632Y-87595763D01*
X77988895Y-86550500D01*
X78348105Y-86550500D01*
X79393368Y-87595763D01*
X79670599Y-87484859D01*
X79913823Y-86838907D01*
X79891336Y-86149047D01*
X79670599Y-85616141D01*
X79393368Y-85505237D01*
X78348105Y-86550500D01*
X77988895Y-86550500D01*
X76943632Y-85505237D01*
X76666401Y-85616141D01*
X76423177Y-86262093D01*
X74815021Y-86262093D01*
X74811336Y-86149047D01*
X74590599Y-85616141D01*
X74313368Y-85505237D01*
X73268105Y-86550500D01*
X72908895Y-86550500D01*
X71863632Y-85505237D01*
X71586401Y-85616141D01*
X71343177Y-86262093D01*
X44585000Y-86262093D01*
X44585000Y-85325632D01*
X72043237Y-85325632D01*
X73088500Y-86370895D01*
X74133763Y-85325632D01*
X77123237Y-85325632D01*
X78168500Y-86370895D01*
X79213763Y-85325632D01*
X79102859Y-85048401D01*
X78456907Y-84805177D01*
X77767047Y-84827664D01*
X77234141Y-85048401D01*
X77123237Y-85325632D01*
X74133763Y-85325632D01*
X74022859Y-85048401D01*
X73376907Y-84805177D01*
X72687047Y-84827664D01*
X72154141Y-85048401D01*
X72043237Y-85325632D01*
X44585000Y-85325632D01*
X44585000Y-76167466D01*
X44621376Y-75984591D01*
X44621625Y-75984218D01*
X44869452Y-75819000D01*
X49276000Y-75819000D01*
X49325410Y-75808994D01*
X49367035Y-75780553D01*
X49394315Y-75738159D01*
X49403000Y-75692000D01*
X49403000Y-75600000D01*
X87215000Y-75600000D01*
X87215000Y-90600000D01*
X87228162Y-90666170D01*
X87228162Y-90733636D01*
X87304282Y-91116319D01*
X87374152Y-91285000D01*
X87406563Y-91363248D01*
X87623336Y-91687672D01*
X87812328Y-91876664D01*
X88136751Y-92093437D01*
X88239032Y-92135803D01*
X88383681Y-92195718D01*
X88766364Y-92271838D01*
X89033636Y-92271838D01*
X89416319Y-92195718D01*
X89663248Y-92093437D01*
X89663249Y-92093436D01*
X89987672Y-91876664D01*
X90176664Y-91687672D01*
X90393437Y-91363249D01*
X90435803Y-91260968D01*
X90495718Y-91116319D01*
X90571838Y-90733636D01*
X90571838Y-90666170D01*
X90585000Y-90600000D01*
X90585000Y-75600000D01*
X90571838Y-75533830D01*
X90571838Y-75466364D01*
X90495718Y-75083681D01*
X90415594Y-74890243D01*
X90393437Y-74836751D01*
X90176664Y-74512328D01*
X89987672Y-74323336D01*
X89663248Y-74106563D01*
X89647403Y-74100000D01*
X89416319Y-74004282D01*
X89033636Y-73928162D01*
X88900000Y-73928162D01*
X88383681Y-74004282D01*
X88239032Y-74064197D01*
X88136751Y-74106563D01*
X87812328Y-74323336D01*
X87623336Y-74512328D01*
X87406564Y-74836751D01*
X87406563Y-74836752D01*
X87304282Y-75083681D01*
X87228162Y-75466364D01*
X87228162Y-75533830D01*
X87215000Y-75600000D01*
X49403000Y-75600000D01*
X49403000Y-74840161D01*
X49447123Y-74733637D01*
X49495718Y-74616319D01*
X49571838Y-74233636D01*
X49571838Y-74166170D01*
X49585000Y-74100000D01*
X49585000Y-59100000D01*
X49571838Y-59033830D01*
X49571838Y-58966364D01*
X49495718Y-58583681D01*
X49407611Y-58370971D01*
X49393437Y-58336751D01*
X49176664Y-58012328D01*
X48987672Y-57823336D01*
X48663248Y-57606563D01*
X48627264Y-57591658D01*
X48603803Y-57568197D01*
X48561789Y-57540334D01*
X48514000Y-57531000D01*
X48480822Y-57531000D01*
X48416319Y-57504282D01*
X48033636Y-57428162D01*
X47966170Y-57428162D01*
X47900000Y-57415000D01*
X44967466Y-57415000D01*
X44784590Y-57378624D01*
X44686751Y-57313250D01*
X44621376Y-57215409D01*
X44585000Y-57032534D01*
X44585000Y-46178971D01*
X51288821Y-46178971D01*
X51446058Y-46559515D01*
X51564000Y-46677663D01*
X51564000Y-57404000D01*
X51621852Y-57694839D01*
X51786599Y-57941401D01*
X57638965Y-63793767D01*
X57638821Y-63958971D01*
X57796058Y-64339515D01*
X58086954Y-64630919D01*
X58467223Y-64788820D01*
X58878971Y-64789179D01*
X59259515Y-64631942D01*
X59550919Y-64341046D01*
X59708820Y-63960777D01*
X59709179Y-63549029D01*
X59551942Y-63168485D01*
X59261046Y-62877081D01*
X58880777Y-62719180D01*
X58713836Y-62719034D01*
X54158802Y-58164000D01*
X60309352Y-58164000D01*
X60207907Y-58674000D01*
X60320946Y-59242285D01*
X60642853Y-59724054D01*
X60972026Y-59944000D01*
X60642853Y-60163946D01*
X60320946Y-60645715D01*
X60207907Y-61214000D01*
X60320946Y-61782285D01*
X60642853Y-62264054D01*
X60684452Y-62291850D01*
X60636683Y-62300838D01*
X60420559Y-62439910D01*
X60275569Y-62652110D01*
X60224560Y-62904000D01*
X60224560Y-64604000D01*
X60268838Y-64839317D01*
X60407910Y-65055441D01*
X60620110Y-65200431D01*
X60872000Y-65251440D01*
X62572000Y-65251440D01*
X62807317Y-65207162D01*
X63023441Y-65068090D01*
X63168431Y-64855890D01*
X63219440Y-64604000D01*
X63219440Y-62904000D01*
X63175162Y-62668683D01*
X63036090Y-62452559D01*
X62823890Y-62307569D01*
X62756459Y-62293914D01*
X62801147Y-62264054D01*
X63123054Y-61782285D01*
X63226960Y-61259916D01*
X63226821Y-61418971D01*
X63384058Y-61799515D01*
X63674954Y-62090919D01*
X64055223Y-62248820D01*
X64466971Y-62249179D01*
X64847515Y-62091942D01*
X65138919Y-61801046D01*
X65296820Y-61420777D01*
X65297179Y-61009029D01*
X65139942Y-60628485D01*
X64849046Y-60337081D01*
X64468777Y-60179180D01*
X64057029Y-60178821D01*
X63676485Y-60336058D01*
X63385081Y-60626954D01*
X63227180Y-61007223D01*
X63227039Y-61168484D01*
X63123054Y-60645715D01*
X62801147Y-60163946D01*
X62471974Y-59944000D01*
X62801147Y-59724054D01*
X63123054Y-59242285D01*
X63226960Y-58719916D01*
X63226821Y-58878971D01*
X63384058Y-59259515D01*
X63674954Y-59550919D01*
X64055223Y-59708820D01*
X64466971Y-59709179D01*
X64847515Y-59551942D01*
X65138919Y-59261046D01*
X65278042Y-58926000D01*
X69908239Y-58926000D01*
X70024954Y-59042919D01*
X70338897Y-59173279D01*
X70338821Y-59259971D01*
X70496058Y-59640515D01*
X70786954Y-59931919D01*
X71101007Y-60062325D01*
X71100821Y-60275971D01*
X71258058Y-60656515D01*
X71548954Y-60947919D01*
X71929223Y-61105820D01*
X72340971Y-61106179D01*
X72721515Y-60948942D01*
X73012919Y-60658046D01*
X73170820Y-60277777D01*
X73171179Y-59866029D01*
X73013942Y-59485485D01*
X72723046Y-59194081D01*
X72408993Y-59063675D01*
X72409113Y-58926000D01*
X80242203Y-58926000D01*
X80275058Y-59005515D01*
X80565954Y-59296919D01*
X80946223Y-59454820D01*
X81357971Y-59455179D01*
X81727140Y-59302642D01*
X81735558Y-59323015D01*
X82026454Y-59614419D01*
X82157114Y-59668674D01*
X82023180Y-59991223D01*
X82022821Y-60402971D01*
X82180058Y-60783515D01*
X82470954Y-61074919D01*
X82851223Y-61232820D01*
X83262971Y-61233179D01*
X83643515Y-61075942D01*
X83934919Y-60785046D01*
X84092820Y-60404777D01*
X84093179Y-59993029D01*
X83935942Y-59612485D01*
X83645046Y-59321081D01*
X83514386Y-59266826D01*
X83648320Y-58944277D01*
X83648679Y-58532529D01*
X83491442Y-58151985D01*
X83376657Y-58037000D01*
X88458198Y-58037000D01*
X93315599Y-62894401D01*
X93562161Y-63059148D01*
X93853000Y-63117000D01*
X94419239Y-63117000D01*
X94535954Y-63233919D01*
X94916223Y-63391820D01*
X95327971Y-63392179D01*
X95708515Y-63234942D01*
X95999919Y-62944046D01*
X96157820Y-62563777D01*
X96158179Y-62152029D01*
X96000942Y-61771485D01*
X95710046Y-61480081D01*
X95329777Y-61322180D01*
X94918029Y-61321821D01*
X94537485Y-61479058D01*
X94419337Y-61597000D01*
X94167802Y-61597000D01*
X89847802Y-57277000D01*
X90531831Y-56592971D01*
X97516821Y-56592971D01*
X97674058Y-56973515D01*
X97964954Y-57264919D01*
X98345223Y-57422820D01*
X98756971Y-57423179D01*
X99137515Y-57265942D01*
X99428919Y-56975046D01*
X99586820Y-56594777D01*
X99587179Y-56183029D01*
X99429942Y-55802485D01*
X99139046Y-55511081D01*
X98758777Y-55353180D01*
X98347029Y-55352821D01*
X97966485Y-55510058D01*
X97675081Y-55800954D01*
X97517180Y-56181223D01*
X97516821Y-56592971D01*
X90531831Y-56592971D01*
X91801831Y-55322971D01*
X92563821Y-55322971D01*
X92721058Y-55703515D01*
X93011954Y-55994919D01*
X93392223Y-56152820D01*
X93803971Y-56153179D01*
X94184515Y-55995942D01*
X94475919Y-55705046D01*
X94633820Y-55324777D01*
X94634179Y-54913029D01*
X94476942Y-54532485D01*
X94186046Y-54241081D01*
X93805777Y-54083180D01*
X93394029Y-54082821D01*
X93013485Y-54240058D01*
X92722081Y-54530954D01*
X92564180Y-54911223D01*
X92563821Y-55322971D01*
X91801831Y-55322971D01*
X94453221Y-52671581D01*
X94499058Y-52782515D01*
X94789954Y-53073919D01*
X95170223Y-53231820D01*
X95581971Y-53232179D01*
X95962515Y-53074942D01*
X96253919Y-52784046D01*
X96265834Y-52755351D01*
X96277058Y-52782515D01*
X96567954Y-53073919D01*
X96948223Y-53231820D01*
X97359971Y-53232179D01*
X97740515Y-53074942D01*
X98031919Y-52784046D01*
X98189820Y-52403777D01*
X98190179Y-51992029D01*
X98032942Y-51611485D01*
X97742046Y-51320081D01*
X97361777Y-51162180D01*
X97136874Y-51161984D01*
X97064839Y-51113852D01*
X96774000Y-51056000D01*
X94234000Y-51056000D01*
X93943160Y-51113852D01*
X93696599Y-51278599D01*
X88458198Y-56517000D01*
X81153000Y-56517000D01*
X80862161Y-56574852D01*
X80768919Y-56637154D01*
X80633942Y-56310485D01*
X80343046Y-56019081D01*
X79962777Y-55861180D01*
X79551029Y-55860821D01*
X79170485Y-56018058D01*
X78879081Y-56308954D01*
X78721180Y-56689223D01*
X78720821Y-57100971D01*
X78846856Y-57406000D01*
X74313999Y-57406000D01*
X74314179Y-57199029D01*
X74156942Y-56818485D01*
X73866046Y-56527081D01*
X73485777Y-56369180D01*
X73074029Y-56368821D01*
X72693485Y-56526058D01*
X72402081Y-56816954D01*
X72244180Y-57197223D01*
X72243998Y-57406000D01*
X71315761Y-57406000D01*
X71199046Y-57289081D01*
X70818777Y-57131180D01*
X70407029Y-57130821D01*
X70026485Y-57288058D01*
X69908337Y-57406000D01*
X65211802Y-57406000D01*
X64896172Y-57090370D01*
X65138919Y-56848046D01*
X65296820Y-56467777D01*
X65297179Y-56056029D01*
X65139942Y-55675485D01*
X64849046Y-55384081D01*
X64468777Y-55226180D01*
X64057029Y-55225821D01*
X63676485Y-55383058D01*
X63385081Y-55673954D01*
X63227180Y-56054223D01*
X63227150Y-56089039D01*
X63123054Y-55565715D01*
X62801147Y-55083946D01*
X62471974Y-54864000D01*
X62545351Y-54814971D01*
X69576821Y-54814971D01*
X69734058Y-55195515D01*
X70024954Y-55486919D01*
X70405223Y-55644820D01*
X70816971Y-55645179D01*
X71197515Y-55487942D01*
X71488919Y-55197046D01*
X71542100Y-55068971D01*
X76053821Y-55068971D01*
X76211058Y-55449515D01*
X76501954Y-55740919D01*
X76882223Y-55898820D01*
X77293971Y-55899179D01*
X77674515Y-55741942D01*
X77965919Y-55451046D01*
X77977834Y-55422351D01*
X77989058Y-55449515D01*
X78279954Y-55740919D01*
X78660223Y-55898820D01*
X79071971Y-55899179D01*
X79452515Y-55741942D01*
X79743919Y-55451046D01*
X79901820Y-55070777D01*
X79902179Y-54659029D01*
X79744942Y-54278485D01*
X79454046Y-53987081D01*
X79073777Y-53829180D01*
X79012961Y-53829127D01*
X79013179Y-53579529D01*
X78855942Y-53198985D01*
X78565046Y-52907581D01*
X78184777Y-52749680D01*
X77773029Y-52749321D01*
X77392485Y-52906558D01*
X77101081Y-53197454D01*
X76943180Y-53577723D01*
X76942961Y-53828872D01*
X76884029Y-53828821D01*
X76503485Y-53986058D01*
X76212081Y-54276954D01*
X76054180Y-54657223D01*
X76053821Y-55068971D01*
X71542100Y-55068971D01*
X71646820Y-54816777D01*
X71647179Y-54405029D01*
X71489942Y-54024485D01*
X71264822Y-53798971D01*
X72624821Y-53798971D01*
X72782058Y-54179515D01*
X73072954Y-54470919D01*
X73453223Y-54628820D01*
X73864971Y-54629179D01*
X74245515Y-54471942D01*
X74536919Y-54181046D01*
X74694820Y-53800777D01*
X74695179Y-53389029D01*
X74537942Y-53008485D01*
X74247046Y-52717081D01*
X73866777Y-52559180D01*
X73455029Y-52558821D01*
X73074485Y-52716058D01*
X72783081Y-53006954D01*
X72625180Y-53387223D01*
X72624821Y-53798971D01*
X71264822Y-53798971D01*
X71199046Y-53733081D01*
X70818777Y-53575180D01*
X70407029Y-53574821D01*
X70026485Y-53732058D01*
X69735081Y-54022954D01*
X69577180Y-54403223D01*
X69576821Y-54814971D01*
X62545351Y-54814971D01*
X62801147Y-54644054D01*
X63123054Y-54162285D01*
X63185639Y-53847649D01*
X63333258Y-54204915D01*
X63624154Y-54496319D01*
X64004423Y-54654220D01*
X64416171Y-54654579D01*
X64796715Y-54497342D01*
X65088119Y-54206446D01*
X65246020Y-53826177D01*
X65246379Y-53414429D01*
X65089142Y-53033885D01*
X64798246Y-52742481D01*
X64417977Y-52584580D01*
X64006229Y-52584221D01*
X63625685Y-52741458D01*
X63334281Y-53032354D01*
X63192360Y-53374139D01*
X63123054Y-53025715D01*
X62801147Y-52543946D01*
X62460447Y-52316298D01*
X62603358Y-52249183D01*
X62993645Y-51820924D01*
X63163476Y-51410890D01*
X63042155Y-51181000D01*
X61849000Y-51181000D01*
X61849000Y-51201000D01*
X61595000Y-51201000D01*
X61595000Y-51181000D01*
X60401845Y-51181000D01*
X60280524Y-51410890D01*
X60450355Y-51820924D01*
X60840642Y-52249183D01*
X60983553Y-52316298D01*
X60642853Y-52543946D01*
X60320946Y-53025715D01*
X60207907Y-53594000D01*
X60320946Y-54162285D01*
X60642853Y-54644054D01*
X60972026Y-54864000D01*
X60642853Y-55083946D01*
X60320946Y-55565715D01*
X60207907Y-56134000D01*
X60309352Y-56644000D01*
X53084000Y-56644000D01*
X53084000Y-50697110D01*
X60280524Y-50697110D01*
X60401845Y-50927000D01*
X61595000Y-50927000D01*
X61595000Y-49733181D01*
X61849000Y-49733181D01*
X61849000Y-50927000D01*
X63042155Y-50927000D01*
X63163476Y-50697110D01*
X62993645Y-50287076D01*
X62603358Y-49858817D01*
X62078892Y-49612514D01*
X61849000Y-49733181D01*
X61595000Y-49733181D01*
X61365108Y-49612514D01*
X60840642Y-49858817D01*
X60450355Y-50287076D01*
X60280524Y-50697110D01*
X53084000Y-50697110D01*
X53084000Y-46677761D01*
X53200919Y-46561046D01*
X53358820Y-46180777D01*
X53358821Y-46178971D01*
X53828821Y-46178971D01*
X53986058Y-46559515D01*
X54276954Y-46850919D01*
X54657223Y-47008820D01*
X55068971Y-47009179D01*
X55449515Y-46851942D01*
X55740919Y-46561046D01*
X55898820Y-46180777D01*
X55898821Y-46178971D01*
X56368821Y-46178971D01*
X56526058Y-46559515D01*
X56816954Y-46850919D01*
X57197223Y-47008820D01*
X57608971Y-47009179D01*
X57989515Y-46851942D01*
X58280919Y-46561046D01*
X58413202Y-46242471D01*
X64623821Y-46242471D01*
X64781058Y-46623015D01*
X65071954Y-46914419D01*
X65452223Y-47072320D01*
X65863971Y-47072679D01*
X66244515Y-46915442D01*
X66535919Y-46624546D01*
X66674607Y-46290547D01*
X66812558Y-46624415D01*
X67103454Y-46915819D01*
X67483723Y-47073720D01*
X67895471Y-47074079D01*
X68276015Y-46916842D01*
X68567419Y-46625946D01*
X68725320Y-46245677D01*
X68725378Y-46178971D01*
X74148821Y-46178971D01*
X74306058Y-46559515D01*
X74596954Y-46850919D01*
X74977223Y-47008820D01*
X75388971Y-47009179D01*
X75769515Y-46851942D01*
X76060919Y-46561046D01*
X76218820Y-46180777D01*
X76218821Y-46178971D01*
X76688821Y-46178971D01*
X76846058Y-46559515D01*
X77136954Y-46850919D01*
X77517223Y-47008820D01*
X77928971Y-47009179D01*
X78309515Y-46851942D01*
X78600919Y-46561046D01*
X78758820Y-46180777D01*
X78758821Y-46178971D01*
X79228821Y-46178971D01*
X79386058Y-46559515D01*
X79676954Y-46850919D01*
X80057223Y-47008820D01*
X80468971Y-47009179D01*
X80835933Y-46857554D01*
X81200223Y-47008820D01*
X81611971Y-47009179D01*
X81992515Y-46851942D01*
X82283919Y-46561046D01*
X82441820Y-46180777D01*
X82442179Y-45769029D01*
X82284942Y-45388485D01*
X81994046Y-45097081D01*
X81613777Y-44939180D01*
X81202029Y-44938821D01*
X80835067Y-45090446D01*
X80470777Y-44939180D01*
X80059029Y-44938821D01*
X79678485Y-45096058D01*
X79387081Y-45386954D01*
X79229180Y-45767223D01*
X79228821Y-46178971D01*
X78758821Y-46178971D01*
X78759179Y-45769029D01*
X78601942Y-45388485D01*
X78311046Y-45097081D01*
X77930777Y-44939180D01*
X77519029Y-44938821D01*
X77138485Y-45096058D01*
X76847081Y-45386954D01*
X76689180Y-45767223D01*
X76688821Y-46178971D01*
X76218821Y-46178971D01*
X76219179Y-45769029D01*
X76061942Y-45388485D01*
X75771046Y-45097081D01*
X75390777Y-44939180D01*
X74979029Y-44938821D01*
X74598485Y-45096058D01*
X74307081Y-45386954D01*
X74149180Y-45767223D01*
X74148821Y-46178971D01*
X68725378Y-46178971D01*
X68725679Y-45833929D01*
X68568442Y-45453385D01*
X68277546Y-45161981D01*
X67897277Y-45004080D01*
X67485529Y-45003721D01*
X67104985Y-45160958D01*
X66813581Y-45451854D01*
X66674893Y-45785853D01*
X66536942Y-45451985D01*
X66246046Y-45160581D01*
X65865777Y-45002680D01*
X65454029Y-45002321D01*
X65073485Y-45159558D01*
X64782081Y-45450454D01*
X64624180Y-45830723D01*
X64623821Y-46242471D01*
X58413202Y-46242471D01*
X58438820Y-46180777D01*
X58439179Y-45769029D01*
X58281942Y-45388485D01*
X57991046Y-45097081D01*
X57610777Y-44939180D01*
X57199029Y-44938821D01*
X56818485Y-45096058D01*
X56527081Y-45386954D01*
X56369180Y-45767223D01*
X56368821Y-46178971D01*
X55898821Y-46178971D01*
X55899179Y-45769029D01*
X55741942Y-45388485D01*
X55451046Y-45097081D01*
X55070777Y-44939180D01*
X54659029Y-44938821D01*
X54278485Y-45096058D01*
X53987081Y-45386954D01*
X53829180Y-45767223D01*
X53828821Y-46178971D01*
X53358821Y-46178971D01*
X53359179Y-45769029D01*
X53201942Y-45388485D01*
X52911046Y-45097081D01*
X52530777Y-44939180D01*
X52119029Y-44938821D01*
X51738485Y-45096058D01*
X51447081Y-45386954D01*
X51289180Y-45767223D01*
X51288821Y-46178971D01*
X44585000Y-46178971D01*
X44585000Y-45847000D01*
X50800000Y-45847000D01*
X50849410Y-45836994D01*
X50891035Y-45808553D01*
X50918315Y-45766159D01*
X50927000Y-45720000D01*
X50927000Y-44661249D01*
X50942310Y-44685041D01*
X51154510Y-44830031D01*
X51406400Y-44881040D01*
X53133600Y-44881040D01*
X53368917Y-44836762D01*
X53585041Y-44697690D01*
X53730031Y-44485490D01*
X53738864Y-44441869D01*
X53750330Y-44459029D01*
X54236511Y-44783885D01*
X54810000Y-44897959D01*
X55383489Y-44783885D01*
X55869670Y-44459029D01*
X56080000Y-44144248D01*
X56290330Y-44459029D01*
X56776511Y-44783885D01*
X57350000Y-44897959D01*
X57923489Y-44783885D01*
X58409670Y-44459029D01*
X58620000Y-44144248D01*
X58830330Y-44459029D01*
X59316511Y-44783885D01*
X59890000Y-44897959D01*
X60463489Y-44783885D01*
X60949670Y-44459029D01*
X61160000Y-44144248D01*
X61370330Y-44459029D01*
X61856511Y-44783885D01*
X62430000Y-44897959D01*
X63003489Y-44783885D01*
X63489670Y-44459029D01*
X63700000Y-44144248D01*
X63910330Y-44459029D01*
X64396511Y-44783885D01*
X64970000Y-44897959D01*
X65543489Y-44783885D01*
X66029670Y-44459029D01*
X66240000Y-44144248D01*
X66450330Y-44459029D01*
X66936511Y-44783885D01*
X67510000Y-44897959D01*
X68083489Y-44783885D01*
X68569670Y-44459029D01*
X68780000Y-44144248D01*
X68990330Y-44459029D01*
X69476511Y-44783885D01*
X70050000Y-44897959D01*
X70623489Y-44783885D01*
X71109670Y-44459029D01*
X71320000Y-44144248D01*
X71530330Y-44459029D01*
X72016511Y-44783885D01*
X72590000Y-44897959D01*
X73163489Y-44783885D01*
X73649670Y-44459029D01*
X73860000Y-44144248D01*
X74070330Y-44459029D01*
X74556511Y-44783885D01*
X75130000Y-44897959D01*
X75703489Y-44783885D01*
X76189670Y-44459029D01*
X76400000Y-44144248D01*
X76610330Y-44459029D01*
X77096511Y-44783885D01*
X77670000Y-44897959D01*
X78243489Y-44783885D01*
X78729670Y-44459029D01*
X78940000Y-44144248D01*
X79150330Y-44459029D01*
X79636511Y-44783885D01*
X80210000Y-44897959D01*
X80783489Y-44783885D01*
X81269670Y-44459029D01*
X81480000Y-44144248D01*
X81690330Y-44459029D01*
X82176511Y-44783885D01*
X82750000Y-44897959D01*
X83323489Y-44783885D01*
X83809670Y-44459029D01*
X84020000Y-44144248D01*
X84230330Y-44459029D01*
X84716511Y-44783885D01*
X85290000Y-44897959D01*
X85863489Y-44783885D01*
X86349670Y-44459029D01*
X86560000Y-44144248D01*
X86770330Y-44459029D01*
X87256511Y-44783885D01*
X87830000Y-44897959D01*
X88403489Y-44783885D01*
X88889670Y-44459029D01*
X89100000Y-44144248D01*
X89310330Y-44459029D01*
X89796511Y-44783885D01*
X90370000Y-44897959D01*
X90943489Y-44783885D01*
X91429670Y-44459029D01*
X91640000Y-44144248D01*
X91850330Y-44459029D01*
X92336511Y-44783885D01*
X92910000Y-44897959D01*
X93483489Y-44783885D01*
X93969670Y-44459029D01*
X94180000Y-44144248D01*
X94390330Y-44459029D01*
X94876511Y-44783885D01*
X95450000Y-44897959D01*
X96023489Y-44783885D01*
X96509670Y-44459029D01*
X96720000Y-44144248D01*
X96930330Y-44459029D01*
X97416511Y-44783885D01*
X97990000Y-44897959D01*
X98563489Y-44783885D01*
X99049670Y-44459029D01*
X99260000Y-44144248D01*
X99470330Y-44459029D01*
X99956511Y-44783885D01*
X100530000Y-44897959D01*
X101103489Y-44783885D01*
X101589670Y-44459029D01*
X101854000Y-44063431D01*
X101854000Y-45720000D01*
X101854000Y-45720000D01*
G37*
X101854000Y-45720000D02*
X101864006Y-45769410D01*
X101892447Y-45811035D01*
X101934841Y-45838315D01*
X101981000Y-45847000D01*
X108077767Y-45847000D01*
X108215000Y-68490410D01*
X108215000Y-87503000D01*
X101854000Y-87503000D01*
X101804590Y-87513006D01*
X101762965Y-87541447D01*
X101735685Y-87583841D01*
X101727000Y-87630000D01*
X101727000Y-93853000D01*
X51181000Y-93853000D01*
X51181000Y-92855368D01*
X72043237Y-92855368D01*
X72154141Y-93132599D01*
X72800093Y-93375823D01*
X73489953Y-93353336D01*
X74022859Y-93132599D01*
X74133763Y-92855368D01*
X77123237Y-92855368D01*
X77234141Y-93132599D01*
X77880093Y-93375823D01*
X78569953Y-93353336D01*
X79102859Y-93132599D01*
X79213763Y-92855368D01*
X78168500Y-91810105D01*
X77123237Y-92855368D01*
X74133763Y-92855368D01*
X73088500Y-91810105D01*
X72043237Y-92855368D01*
X51181000Y-92855368D01*
X51181000Y-91342093D01*
X71343177Y-91342093D01*
X71365664Y-92031953D01*
X71586401Y-92564859D01*
X71863632Y-92675763D01*
X72908895Y-91630500D01*
X73268105Y-91630500D01*
X74313368Y-92675763D01*
X74590599Y-92564859D01*
X74833823Y-91918907D01*
X74815021Y-91342093D01*
X76423177Y-91342093D01*
X76445664Y-92031953D01*
X76666401Y-92564859D01*
X76943632Y-92675763D01*
X77988895Y-91630500D01*
X78348105Y-91630500D01*
X79393368Y-92675763D01*
X79670599Y-92564859D01*
X79913823Y-91918907D01*
X79891336Y-91229047D01*
X79670599Y-90696141D01*
X79393368Y-90585237D01*
X78348105Y-91630500D01*
X77988895Y-91630500D01*
X76943632Y-90585237D01*
X76666401Y-90696141D01*
X76423177Y-91342093D01*
X74815021Y-91342093D01*
X74811336Y-91229047D01*
X74590599Y-90696141D01*
X74313368Y-90585237D01*
X73268105Y-91630500D01*
X72908895Y-91630500D01*
X71863632Y-90585237D01*
X71586401Y-90696141D01*
X71343177Y-91342093D01*
X51181000Y-91342093D01*
X51181000Y-90405632D01*
X72043237Y-90405632D01*
X73088500Y-91450895D01*
X74133763Y-90405632D01*
X74022859Y-90128401D01*
X73376907Y-89885177D01*
X72687047Y-89907664D01*
X72154141Y-90128401D01*
X72043237Y-90405632D01*
X51181000Y-90405632D01*
X51181000Y-89414295D01*
X73993216Y-89414295D01*
X74241606Y-90015443D01*
X74701137Y-90475778D01*
X75301852Y-90725216D01*
X75952295Y-90725784D01*
X76553443Y-90477394D01*
X76625330Y-90405632D01*
X77123237Y-90405632D01*
X78168500Y-91450895D01*
X79213763Y-90405632D01*
X79102859Y-90128401D01*
X78456907Y-89885177D01*
X77767047Y-89907664D01*
X77234141Y-90128401D01*
X77123237Y-90405632D01*
X76625330Y-90405632D01*
X77013778Y-90017863D01*
X77263216Y-89417148D01*
X77263784Y-88766705D01*
X77015394Y-88165557D01*
X76625887Y-87775368D01*
X77123237Y-87775368D01*
X77234141Y-88052599D01*
X77880093Y-88295823D01*
X78569953Y-88273336D01*
X79102859Y-88052599D01*
X79213763Y-87775368D01*
X78168500Y-86730105D01*
X77123237Y-87775368D01*
X76625887Y-87775368D01*
X76555863Y-87705222D01*
X75955148Y-87455784D01*
X75304705Y-87455216D01*
X74703557Y-87703606D01*
X74243222Y-88163137D01*
X73993784Y-88763852D01*
X73993216Y-89414295D01*
X51181000Y-89414295D01*
X51181000Y-87775368D01*
X72043237Y-87775368D01*
X72154141Y-88052599D01*
X72800093Y-88295823D01*
X73489953Y-88273336D01*
X74022859Y-88052599D01*
X74133763Y-87775368D01*
X73088500Y-86730105D01*
X72043237Y-87775368D01*
X51181000Y-87775368D01*
X51181000Y-87630000D01*
X51170994Y-87580590D01*
X51142553Y-87538965D01*
X51100159Y-87511685D01*
X51054000Y-87503000D01*
X44585000Y-87503000D01*
X44585000Y-86262093D01*
X71343177Y-86262093D01*
X71365664Y-86951953D01*
X71586401Y-87484859D01*
X71863632Y-87595763D01*
X72908895Y-86550500D01*
X73268105Y-86550500D01*
X74313368Y-87595763D01*
X74590599Y-87484859D01*
X74833823Y-86838907D01*
X74815021Y-86262093D01*
X76423177Y-86262093D01*
X76445664Y-86951953D01*
X76666401Y-87484859D01*
X76943632Y-87595763D01*
X77988895Y-86550500D01*
X78348105Y-86550500D01*
X79393368Y-87595763D01*
X79670599Y-87484859D01*
X79913823Y-86838907D01*
X79891336Y-86149047D01*
X79670599Y-85616141D01*
X79393368Y-85505237D01*
X78348105Y-86550500D01*
X77988895Y-86550500D01*
X76943632Y-85505237D01*
X76666401Y-85616141D01*
X76423177Y-86262093D01*
X74815021Y-86262093D01*
X74811336Y-86149047D01*
X74590599Y-85616141D01*
X74313368Y-85505237D01*
X73268105Y-86550500D01*
X72908895Y-86550500D01*
X71863632Y-85505237D01*
X71586401Y-85616141D01*
X71343177Y-86262093D01*
X44585000Y-86262093D01*
X44585000Y-85325632D01*
X72043237Y-85325632D01*
X73088500Y-86370895D01*
X74133763Y-85325632D01*
X77123237Y-85325632D01*
X78168500Y-86370895D01*
X79213763Y-85325632D01*
X79102859Y-85048401D01*
X78456907Y-84805177D01*
X77767047Y-84827664D01*
X77234141Y-85048401D01*
X77123237Y-85325632D01*
X74133763Y-85325632D01*
X74022859Y-85048401D01*
X73376907Y-84805177D01*
X72687047Y-84827664D01*
X72154141Y-85048401D01*
X72043237Y-85325632D01*
X44585000Y-85325632D01*
X44585000Y-76167466D01*
X44621376Y-75984591D01*
X44621625Y-75984218D01*
X44869452Y-75819000D01*
X49276000Y-75819000D01*
X49325410Y-75808994D01*
X49367035Y-75780553D01*
X49394315Y-75738159D01*
X49403000Y-75692000D01*
X49403000Y-75600000D01*
X87215000Y-75600000D01*
X87215000Y-90600000D01*
X87228162Y-90666170D01*
X87228162Y-90733636D01*
X87304282Y-91116319D01*
X87374152Y-91285000D01*
X87406563Y-91363248D01*
X87623336Y-91687672D01*
X87812328Y-91876664D01*
X88136751Y-92093437D01*
X88239032Y-92135803D01*
X88383681Y-92195718D01*
X88766364Y-92271838D01*
X89033636Y-92271838D01*
X89416319Y-92195718D01*
X89663248Y-92093437D01*
X89663249Y-92093436D01*
X89987672Y-91876664D01*
X90176664Y-91687672D01*
X90393437Y-91363249D01*
X90435803Y-91260968D01*
X90495718Y-91116319D01*
X90571838Y-90733636D01*
X90571838Y-90666170D01*
X90585000Y-90600000D01*
X90585000Y-75600000D01*
X90571838Y-75533830D01*
X90571838Y-75466364D01*
X90495718Y-75083681D01*
X90415594Y-74890243D01*
X90393437Y-74836751D01*
X90176664Y-74512328D01*
X89987672Y-74323336D01*
X89663248Y-74106563D01*
X89647403Y-74100000D01*
X89416319Y-74004282D01*
X89033636Y-73928162D01*
X88900000Y-73928162D01*
X88383681Y-74004282D01*
X88239032Y-74064197D01*
X88136751Y-74106563D01*
X87812328Y-74323336D01*
X87623336Y-74512328D01*
X87406564Y-74836751D01*
X87406563Y-74836752D01*
X87304282Y-75083681D01*
X87228162Y-75466364D01*
X87228162Y-75533830D01*
X87215000Y-75600000D01*
X49403000Y-75600000D01*
X49403000Y-74840161D01*
X49447123Y-74733637D01*
X49495718Y-74616319D01*
X49571838Y-74233636D01*
X49571838Y-74166170D01*
X49585000Y-74100000D01*
X49585000Y-59100000D01*
X49571838Y-59033830D01*
X49571838Y-58966364D01*
X49495718Y-58583681D01*
X49407611Y-58370971D01*
X49393437Y-58336751D01*
X49176664Y-58012328D01*
X48987672Y-57823336D01*
X48663248Y-57606563D01*
X48627264Y-57591658D01*
X48603803Y-57568197D01*
X48561789Y-57540334D01*
X48514000Y-57531000D01*
X48480822Y-57531000D01*
X48416319Y-57504282D01*
X48033636Y-57428162D01*
X47966170Y-57428162D01*
X47900000Y-57415000D01*
X44967466Y-57415000D01*
X44784590Y-57378624D01*
X44686751Y-57313250D01*
X44621376Y-57215409D01*
X44585000Y-57032534D01*
X44585000Y-46178971D01*
X51288821Y-46178971D01*
X51446058Y-46559515D01*
X51564000Y-46677663D01*
X51564000Y-57404000D01*
X51621852Y-57694839D01*
X51786599Y-57941401D01*
X57638965Y-63793767D01*
X57638821Y-63958971D01*
X57796058Y-64339515D01*
X58086954Y-64630919D01*
X58467223Y-64788820D01*
X58878971Y-64789179D01*
X59259515Y-64631942D01*
X59550919Y-64341046D01*
X59708820Y-63960777D01*
X59709179Y-63549029D01*
X59551942Y-63168485D01*
X59261046Y-62877081D01*
X58880777Y-62719180D01*
X58713836Y-62719034D01*
X54158802Y-58164000D01*
X60309352Y-58164000D01*
X60207907Y-58674000D01*
X60320946Y-59242285D01*
X60642853Y-59724054D01*
X60972026Y-59944000D01*
X60642853Y-60163946D01*
X60320946Y-60645715D01*
X60207907Y-61214000D01*
X60320946Y-61782285D01*
X60642853Y-62264054D01*
X60684452Y-62291850D01*
X60636683Y-62300838D01*
X60420559Y-62439910D01*
X60275569Y-62652110D01*
X60224560Y-62904000D01*
X60224560Y-64604000D01*
X60268838Y-64839317D01*
X60407910Y-65055441D01*
X60620110Y-65200431D01*
X60872000Y-65251440D01*
X62572000Y-65251440D01*
X62807317Y-65207162D01*
X63023441Y-65068090D01*
X63168431Y-64855890D01*
X63219440Y-64604000D01*
X63219440Y-62904000D01*
X63175162Y-62668683D01*
X63036090Y-62452559D01*
X62823890Y-62307569D01*
X62756459Y-62293914D01*
X62801147Y-62264054D01*
X63123054Y-61782285D01*
X63226960Y-61259916D01*
X63226821Y-61418971D01*
X63384058Y-61799515D01*
X63674954Y-62090919D01*
X64055223Y-62248820D01*
X64466971Y-62249179D01*
X64847515Y-62091942D01*
X65138919Y-61801046D01*
X65296820Y-61420777D01*
X65297179Y-61009029D01*
X65139942Y-60628485D01*
X64849046Y-60337081D01*
X64468777Y-60179180D01*
X64057029Y-60178821D01*
X63676485Y-60336058D01*
X63385081Y-60626954D01*
X63227180Y-61007223D01*
X63227039Y-61168484D01*
X63123054Y-60645715D01*
X62801147Y-60163946D01*
X62471974Y-59944000D01*
X62801147Y-59724054D01*
X63123054Y-59242285D01*
X63226960Y-58719916D01*
X63226821Y-58878971D01*
X63384058Y-59259515D01*
X63674954Y-59550919D01*
X64055223Y-59708820D01*
X64466971Y-59709179D01*
X64847515Y-59551942D01*
X65138919Y-59261046D01*
X65278042Y-58926000D01*
X69908239Y-58926000D01*
X70024954Y-59042919D01*
X70338897Y-59173279D01*
X70338821Y-59259971D01*
X70496058Y-59640515D01*
X70786954Y-59931919D01*
X71101007Y-60062325D01*
X71100821Y-60275971D01*
X71258058Y-60656515D01*
X71548954Y-60947919D01*
X71929223Y-61105820D01*
X72340971Y-61106179D01*
X72721515Y-60948942D01*
X73012919Y-60658046D01*
X73170820Y-60277777D01*
X73171179Y-59866029D01*
X73013942Y-59485485D01*
X72723046Y-59194081D01*
X72408993Y-59063675D01*
X72409113Y-58926000D01*
X80242203Y-58926000D01*
X80275058Y-59005515D01*
X80565954Y-59296919D01*
X80946223Y-59454820D01*
X81357971Y-59455179D01*
X81727140Y-59302642D01*
X81735558Y-59323015D01*
X82026454Y-59614419D01*
X82157114Y-59668674D01*
X82023180Y-59991223D01*
X82022821Y-60402971D01*
X82180058Y-60783515D01*
X82470954Y-61074919D01*
X82851223Y-61232820D01*
X83262971Y-61233179D01*
X83643515Y-61075942D01*
X83934919Y-60785046D01*
X84092820Y-60404777D01*
X84093179Y-59993029D01*
X83935942Y-59612485D01*
X83645046Y-59321081D01*
X83514386Y-59266826D01*
X83648320Y-58944277D01*
X83648679Y-58532529D01*
X83491442Y-58151985D01*
X83376657Y-58037000D01*
X88458198Y-58037000D01*
X93315599Y-62894401D01*
X93562161Y-63059148D01*
X93853000Y-63117000D01*
X94419239Y-63117000D01*
X94535954Y-63233919D01*
X94916223Y-63391820D01*
X95327971Y-63392179D01*
X95708515Y-63234942D01*
X95999919Y-62944046D01*
X96157820Y-62563777D01*
X96158179Y-62152029D01*
X96000942Y-61771485D01*
X95710046Y-61480081D01*
X95329777Y-61322180D01*
X94918029Y-61321821D01*
X94537485Y-61479058D01*
X94419337Y-61597000D01*
X94167802Y-61597000D01*
X89847802Y-57277000D01*
X90531831Y-56592971D01*
X97516821Y-56592971D01*
X97674058Y-56973515D01*
X97964954Y-57264919D01*
X98345223Y-57422820D01*
X98756971Y-57423179D01*
X99137515Y-57265942D01*
X99428919Y-56975046D01*
X99586820Y-56594777D01*
X99587179Y-56183029D01*
X99429942Y-55802485D01*
X99139046Y-55511081D01*
X98758777Y-55353180D01*
X98347029Y-55352821D01*
X97966485Y-55510058D01*
X97675081Y-55800954D01*
X97517180Y-56181223D01*
X97516821Y-56592971D01*
X90531831Y-56592971D01*
X91801831Y-55322971D01*
X92563821Y-55322971D01*
X92721058Y-55703515D01*
X93011954Y-55994919D01*
X93392223Y-56152820D01*
X93803971Y-56153179D01*
X94184515Y-55995942D01*
X94475919Y-55705046D01*
X94633820Y-55324777D01*
X94634179Y-54913029D01*
X94476942Y-54532485D01*
X94186046Y-54241081D01*
X93805777Y-54083180D01*
X93394029Y-54082821D01*
X93013485Y-54240058D01*
X92722081Y-54530954D01*
X92564180Y-54911223D01*
X92563821Y-55322971D01*
X91801831Y-55322971D01*
X94453221Y-52671581D01*
X94499058Y-52782515D01*
X94789954Y-53073919D01*
X95170223Y-53231820D01*
X95581971Y-53232179D01*
X95962515Y-53074942D01*
X96253919Y-52784046D01*
X96265834Y-52755351D01*
X96277058Y-52782515D01*
X96567954Y-53073919D01*
X96948223Y-53231820D01*
X97359971Y-53232179D01*
X97740515Y-53074942D01*
X98031919Y-52784046D01*
X98189820Y-52403777D01*
X98190179Y-51992029D01*
X98032942Y-51611485D01*
X97742046Y-51320081D01*
X97361777Y-51162180D01*
X97136874Y-51161984D01*
X97064839Y-51113852D01*
X96774000Y-51056000D01*
X94234000Y-51056000D01*
X93943160Y-51113852D01*
X93696599Y-51278599D01*
X88458198Y-56517000D01*
X81153000Y-56517000D01*
X80862161Y-56574852D01*
X80768919Y-56637154D01*
X80633942Y-56310485D01*
X80343046Y-56019081D01*
X79962777Y-55861180D01*
X79551029Y-55860821D01*
X79170485Y-56018058D01*
X78879081Y-56308954D01*
X78721180Y-56689223D01*
X78720821Y-57100971D01*
X78846856Y-57406000D01*
X74313999Y-57406000D01*
X74314179Y-57199029D01*
X74156942Y-56818485D01*
X73866046Y-56527081D01*
X73485777Y-56369180D01*
X73074029Y-56368821D01*
X72693485Y-56526058D01*
X72402081Y-56816954D01*
X72244180Y-57197223D01*
X72243998Y-57406000D01*
X71315761Y-57406000D01*
X71199046Y-57289081D01*
X70818777Y-57131180D01*
X70407029Y-57130821D01*
X70026485Y-57288058D01*
X69908337Y-57406000D01*
X65211802Y-57406000D01*
X64896172Y-57090370D01*
X65138919Y-56848046D01*
X65296820Y-56467777D01*
X65297179Y-56056029D01*
X65139942Y-55675485D01*
X64849046Y-55384081D01*
X64468777Y-55226180D01*
X64057029Y-55225821D01*
X63676485Y-55383058D01*
X63385081Y-55673954D01*
X63227180Y-56054223D01*
X63227150Y-56089039D01*
X63123054Y-55565715D01*
X62801147Y-55083946D01*
X62471974Y-54864000D01*
X62545351Y-54814971D01*
X69576821Y-54814971D01*
X69734058Y-55195515D01*
X70024954Y-55486919D01*
X70405223Y-55644820D01*
X70816971Y-55645179D01*
X71197515Y-55487942D01*
X71488919Y-55197046D01*
X71542100Y-55068971D01*
X76053821Y-55068971D01*
X76211058Y-55449515D01*
X76501954Y-55740919D01*
X76882223Y-55898820D01*
X77293971Y-55899179D01*
X77674515Y-55741942D01*
X77965919Y-55451046D01*
X77977834Y-55422351D01*
X77989058Y-55449515D01*
X78279954Y-55740919D01*
X78660223Y-55898820D01*
X79071971Y-55899179D01*
X79452515Y-55741942D01*
X79743919Y-55451046D01*
X79901820Y-55070777D01*
X79902179Y-54659029D01*
X79744942Y-54278485D01*
X79454046Y-53987081D01*
X79073777Y-53829180D01*
X79012961Y-53829127D01*
X79013179Y-53579529D01*
X78855942Y-53198985D01*
X78565046Y-52907581D01*
X78184777Y-52749680D01*
X77773029Y-52749321D01*
X77392485Y-52906558D01*
X77101081Y-53197454D01*
X76943180Y-53577723D01*
X76942961Y-53828872D01*
X76884029Y-53828821D01*
X76503485Y-53986058D01*
X76212081Y-54276954D01*
X76054180Y-54657223D01*
X76053821Y-55068971D01*
X71542100Y-55068971D01*
X71646820Y-54816777D01*
X71647179Y-54405029D01*
X71489942Y-54024485D01*
X71264822Y-53798971D01*
X72624821Y-53798971D01*
X72782058Y-54179515D01*
X73072954Y-54470919D01*
X73453223Y-54628820D01*
X73864971Y-54629179D01*
X74245515Y-54471942D01*
X74536919Y-54181046D01*
X74694820Y-53800777D01*
X74695179Y-53389029D01*
X74537942Y-53008485D01*
X74247046Y-52717081D01*
X73866777Y-52559180D01*
X73455029Y-52558821D01*
X73074485Y-52716058D01*
X72783081Y-53006954D01*
X72625180Y-53387223D01*
X72624821Y-53798971D01*
X71264822Y-53798971D01*
X71199046Y-53733081D01*
X70818777Y-53575180D01*
X70407029Y-53574821D01*
X70026485Y-53732058D01*
X69735081Y-54022954D01*
X69577180Y-54403223D01*
X69576821Y-54814971D01*
X62545351Y-54814971D01*
X62801147Y-54644054D01*
X63123054Y-54162285D01*
X63185639Y-53847649D01*
X63333258Y-54204915D01*
X63624154Y-54496319D01*
X64004423Y-54654220D01*
X64416171Y-54654579D01*
X64796715Y-54497342D01*
X65088119Y-54206446D01*
X65246020Y-53826177D01*
X65246379Y-53414429D01*
X65089142Y-53033885D01*
X64798246Y-52742481D01*
X64417977Y-52584580D01*
X64006229Y-52584221D01*
X63625685Y-52741458D01*
X63334281Y-53032354D01*
X63192360Y-53374139D01*
X63123054Y-53025715D01*
X62801147Y-52543946D01*
X62460447Y-52316298D01*
X62603358Y-52249183D01*
X62993645Y-51820924D01*
X63163476Y-51410890D01*
X63042155Y-51181000D01*
X61849000Y-51181000D01*
X61849000Y-51201000D01*
X61595000Y-51201000D01*
X61595000Y-51181000D01*
X60401845Y-51181000D01*
X60280524Y-51410890D01*
X60450355Y-51820924D01*
X60840642Y-52249183D01*
X60983553Y-52316298D01*
X60642853Y-52543946D01*
X60320946Y-53025715D01*
X60207907Y-53594000D01*
X60320946Y-54162285D01*
X60642853Y-54644054D01*
X60972026Y-54864000D01*
X60642853Y-55083946D01*
X60320946Y-55565715D01*
X60207907Y-56134000D01*
X60309352Y-56644000D01*
X53084000Y-56644000D01*
X53084000Y-50697110D01*
X60280524Y-50697110D01*
X60401845Y-50927000D01*
X61595000Y-50927000D01*
X61595000Y-49733181D01*
X61849000Y-49733181D01*
X61849000Y-50927000D01*
X63042155Y-50927000D01*
X63163476Y-50697110D01*
X62993645Y-50287076D01*
X62603358Y-49858817D01*
X62078892Y-49612514D01*
X61849000Y-49733181D01*
X61595000Y-49733181D01*
X61365108Y-49612514D01*
X60840642Y-49858817D01*
X60450355Y-50287076D01*
X60280524Y-50697110D01*
X53084000Y-50697110D01*
X53084000Y-46677761D01*
X53200919Y-46561046D01*
X53358820Y-46180777D01*
X53358821Y-46178971D01*
X53828821Y-46178971D01*
X53986058Y-46559515D01*
X54276954Y-46850919D01*
X54657223Y-47008820D01*
X55068971Y-47009179D01*
X55449515Y-46851942D01*
X55740919Y-46561046D01*
X55898820Y-46180777D01*
X55898821Y-46178971D01*
X56368821Y-46178971D01*
X56526058Y-46559515D01*
X56816954Y-46850919D01*
X57197223Y-47008820D01*
X57608971Y-47009179D01*
X57989515Y-46851942D01*
X58280919Y-46561046D01*
X58413202Y-46242471D01*
X64623821Y-46242471D01*
X64781058Y-46623015D01*
X65071954Y-46914419D01*
X65452223Y-47072320D01*
X65863971Y-47072679D01*
X66244515Y-46915442D01*
X66535919Y-46624546D01*
X66674607Y-46290547D01*
X66812558Y-46624415D01*
X67103454Y-46915819D01*
X67483723Y-47073720D01*
X67895471Y-47074079D01*
X68276015Y-46916842D01*
X68567419Y-46625946D01*
X68725320Y-46245677D01*
X68725378Y-46178971D01*
X74148821Y-46178971D01*
X74306058Y-46559515D01*
X74596954Y-46850919D01*
X74977223Y-47008820D01*
X75388971Y-47009179D01*
X75769515Y-46851942D01*
X76060919Y-46561046D01*
X76218820Y-46180777D01*
X76218821Y-46178971D01*
X76688821Y-46178971D01*
X76846058Y-46559515D01*
X77136954Y-46850919D01*
X77517223Y-47008820D01*
X77928971Y-47009179D01*
X78309515Y-46851942D01*
X78600919Y-46561046D01*
X78758820Y-46180777D01*
X78758821Y-46178971D01*
X79228821Y-46178971D01*
X79386058Y-46559515D01*
X79676954Y-46850919D01*
X80057223Y-47008820D01*
X80468971Y-47009179D01*
X80835933Y-46857554D01*
X81200223Y-47008820D01*
X81611971Y-47009179D01*
X81992515Y-46851942D01*
X82283919Y-46561046D01*
X82441820Y-46180777D01*
X82442179Y-45769029D01*
X82284942Y-45388485D01*
X81994046Y-45097081D01*
X81613777Y-44939180D01*
X81202029Y-44938821D01*
X80835067Y-45090446D01*
X80470777Y-44939180D01*
X80059029Y-44938821D01*
X79678485Y-45096058D01*
X79387081Y-45386954D01*
X79229180Y-45767223D01*
X79228821Y-46178971D01*
X78758821Y-46178971D01*
X78759179Y-45769029D01*
X78601942Y-45388485D01*
X78311046Y-45097081D01*
X77930777Y-44939180D01*
X77519029Y-44938821D01*
X77138485Y-45096058D01*
X76847081Y-45386954D01*
X76689180Y-45767223D01*
X76688821Y-46178971D01*
X76218821Y-46178971D01*
X76219179Y-45769029D01*
X76061942Y-45388485D01*
X75771046Y-45097081D01*
X75390777Y-44939180D01*
X74979029Y-44938821D01*
X74598485Y-45096058D01*
X74307081Y-45386954D01*
X74149180Y-45767223D01*
X74148821Y-46178971D01*
X68725378Y-46178971D01*
X68725679Y-45833929D01*
X68568442Y-45453385D01*
X68277546Y-45161981D01*
X67897277Y-45004080D01*
X67485529Y-45003721D01*
X67104985Y-45160958D01*
X66813581Y-45451854D01*
X66674893Y-45785853D01*
X66536942Y-45451985D01*
X66246046Y-45160581D01*
X65865777Y-45002680D01*
X65454029Y-45002321D01*
X65073485Y-45159558D01*
X64782081Y-45450454D01*
X64624180Y-45830723D01*
X64623821Y-46242471D01*
X58413202Y-46242471D01*
X58438820Y-46180777D01*
X58439179Y-45769029D01*
X58281942Y-45388485D01*
X57991046Y-45097081D01*
X57610777Y-44939180D01*
X57199029Y-44938821D01*
X56818485Y-45096058D01*
X56527081Y-45386954D01*
X56369180Y-45767223D01*
X56368821Y-46178971D01*
X55898821Y-46178971D01*
X55899179Y-45769029D01*
X55741942Y-45388485D01*
X55451046Y-45097081D01*
X55070777Y-44939180D01*
X54659029Y-44938821D01*
X54278485Y-45096058D01*
X53987081Y-45386954D01*
X53829180Y-45767223D01*
X53828821Y-46178971D01*
X53358821Y-46178971D01*
X53359179Y-45769029D01*
X53201942Y-45388485D01*
X52911046Y-45097081D01*
X52530777Y-44939180D01*
X52119029Y-44938821D01*
X51738485Y-45096058D01*
X51447081Y-45386954D01*
X51289180Y-45767223D01*
X51288821Y-46178971D01*
X44585000Y-46178971D01*
X44585000Y-45847000D01*
X50800000Y-45847000D01*
X50849410Y-45836994D01*
X50891035Y-45808553D01*
X50918315Y-45766159D01*
X50927000Y-45720000D01*
X50927000Y-44661249D01*
X50942310Y-44685041D01*
X51154510Y-44830031D01*
X51406400Y-44881040D01*
X53133600Y-44881040D01*
X53368917Y-44836762D01*
X53585041Y-44697690D01*
X53730031Y-44485490D01*
X53738864Y-44441869D01*
X53750330Y-44459029D01*
X54236511Y-44783885D01*
X54810000Y-44897959D01*
X55383489Y-44783885D01*
X55869670Y-44459029D01*
X56080000Y-44144248D01*
X56290330Y-44459029D01*
X56776511Y-44783885D01*
X57350000Y-44897959D01*
X57923489Y-44783885D01*
X58409670Y-44459029D01*
X58620000Y-44144248D01*
X58830330Y-44459029D01*
X59316511Y-44783885D01*
X59890000Y-44897959D01*
X60463489Y-44783885D01*
X60949670Y-44459029D01*
X61160000Y-44144248D01*
X61370330Y-44459029D01*
X61856511Y-44783885D01*
X62430000Y-44897959D01*
X63003489Y-44783885D01*
X63489670Y-44459029D01*
X63700000Y-44144248D01*
X63910330Y-44459029D01*
X64396511Y-44783885D01*
X64970000Y-44897959D01*
X65543489Y-44783885D01*
X66029670Y-44459029D01*
X66240000Y-44144248D01*
X66450330Y-44459029D01*
X66936511Y-44783885D01*
X67510000Y-44897959D01*
X68083489Y-44783885D01*
X68569670Y-44459029D01*
X68780000Y-44144248D01*
X68990330Y-44459029D01*
X69476511Y-44783885D01*
X70050000Y-44897959D01*
X70623489Y-44783885D01*
X71109670Y-44459029D01*
X71320000Y-44144248D01*
X71530330Y-44459029D01*
X72016511Y-44783885D01*
X72590000Y-44897959D01*
X73163489Y-44783885D01*
X73649670Y-44459029D01*
X73860000Y-44144248D01*
X74070330Y-44459029D01*
X74556511Y-44783885D01*
X75130000Y-44897959D01*
X75703489Y-44783885D01*
X76189670Y-44459029D01*
X76400000Y-44144248D01*
X76610330Y-44459029D01*
X77096511Y-44783885D01*
X77670000Y-44897959D01*
X78243489Y-44783885D01*
X78729670Y-44459029D01*
X78940000Y-44144248D01*
X79150330Y-44459029D01*
X79636511Y-44783885D01*
X80210000Y-44897959D01*
X80783489Y-44783885D01*
X81269670Y-44459029D01*
X81480000Y-44144248D01*
X81690330Y-44459029D01*
X82176511Y-44783885D01*
X82750000Y-44897959D01*
X83323489Y-44783885D01*
X83809670Y-44459029D01*
X84020000Y-44144248D01*
X84230330Y-44459029D01*
X84716511Y-44783885D01*
X85290000Y-44897959D01*
X85863489Y-44783885D01*
X86349670Y-44459029D01*
X86560000Y-44144248D01*
X86770330Y-44459029D01*
X87256511Y-44783885D01*
X87830000Y-44897959D01*
X88403489Y-44783885D01*
X88889670Y-44459029D01*
X89100000Y-44144248D01*
X89310330Y-44459029D01*
X89796511Y-44783885D01*
X90370000Y-44897959D01*
X90943489Y-44783885D01*
X91429670Y-44459029D01*
X91640000Y-44144248D01*
X91850330Y-44459029D01*
X92336511Y-44783885D01*
X92910000Y-44897959D01*
X93483489Y-44783885D01*
X93969670Y-44459029D01*
X94180000Y-44144248D01*
X94390330Y-44459029D01*
X94876511Y-44783885D01*
X95450000Y-44897959D01*
X96023489Y-44783885D01*
X96509670Y-44459029D01*
X96720000Y-44144248D01*
X96930330Y-44459029D01*
X97416511Y-44783885D01*
X97990000Y-44897959D01*
X98563489Y-44783885D01*
X99049670Y-44459029D01*
X99260000Y-44144248D01*
X99470330Y-44459029D01*
X99956511Y-44783885D01*
X100530000Y-44897959D01*
X101103489Y-44783885D01*
X101589670Y-44459029D01*
X101854000Y-44063431D01*
X101854000Y-45720000D01*
G36*
X70339180Y-39290223D02*
X70339120Y-39359550D01*
X70050000Y-39302041D01*
X69476511Y-39416115D01*
X68990330Y-39740971D01*
X68780000Y-40055752D01*
X68569670Y-39740971D01*
X68083489Y-39416115D01*
X67510000Y-39302041D01*
X66936511Y-39416115D01*
X66450330Y-39740971D01*
X66240000Y-40055752D01*
X66029670Y-39740971D01*
X65543489Y-39416115D01*
X64970000Y-39302041D01*
X64396511Y-39416115D01*
X63910330Y-39740971D01*
X63700000Y-40055752D01*
X63489670Y-39740971D01*
X63003489Y-39416115D01*
X62430000Y-39302041D01*
X61856511Y-39416115D01*
X61370330Y-39740971D01*
X61160000Y-40055752D01*
X60949670Y-39740971D01*
X60463489Y-39416115D01*
X59890000Y-39302041D01*
X59316511Y-39416115D01*
X58830330Y-39740971D01*
X58614336Y-40064228D01*
X58556821Y-39941510D01*
X58124947Y-39547312D01*
X57709026Y-39375042D01*
X57477000Y-39496183D01*
X57477000Y-40703000D01*
X57497000Y-40703000D01*
X57497000Y-40957000D01*
X57477000Y-40957000D01*
X57477000Y-40977000D01*
X57223000Y-40977000D01*
X57223000Y-40957000D01*
X57203000Y-40957000D01*
X57203000Y-40703000D01*
X57223000Y-40703000D01*
X57223000Y-39496183D01*
X56990974Y-39375042D01*
X56575053Y-39547312D01*
X56143179Y-39941510D01*
X56085664Y-40064228D01*
X55869670Y-39740971D01*
X55383489Y-39416115D01*
X54810000Y-39302041D01*
X54236511Y-39416115D01*
X53750330Y-39740971D01*
X53540000Y-40055752D01*
X53329670Y-39740971D01*
X52843489Y-39416115D01*
X52270000Y-39302041D01*
X51696511Y-39416115D01*
X51210330Y-39740971D01*
X50927000Y-40165004D01*
X50927000Y-39285000D01*
X70341349Y-39285000D01*
X70339180Y-39290223D01*
X70339180Y-39290223D01*
G37*
X70339180Y-39290223D02*
X70339120Y-39359550D01*
X70050000Y-39302041D01*
X69476511Y-39416115D01*
X68990330Y-39740971D01*
X68780000Y-40055752D01*
X68569670Y-39740971D01*
X68083489Y-39416115D01*
X67510000Y-39302041D01*
X66936511Y-39416115D01*
X66450330Y-39740971D01*
X66240000Y-40055752D01*
X66029670Y-39740971D01*
X65543489Y-39416115D01*
X64970000Y-39302041D01*
X64396511Y-39416115D01*
X63910330Y-39740971D01*
X63700000Y-40055752D01*
X63489670Y-39740971D01*
X63003489Y-39416115D01*
X62430000Y-39302041D01*
X61856511Y-39416115D01*
X61370330Y-39740971D01*
X61160000Y-40055752D01*
X60949670Y-39740971D01*
X60463489Y-39416115D01*
X59890000Y-39302041D01*
X59316511Y-39416115D01*
X58830330Y-39740971D01*
X58614336Y-40064228D01*
X58556821Y-39941510D01*
X58124947Y-39547312D01*
X57709026Y-39375042D01*
X57477000Y-39496183D01*
X57477000Y-40703000D01*
X57497000Y-40703000D01*
X57497000Y-40957000D01*
X57477000Y-40957000D01*
X57477000Y-40977000D01*
X57223000Y-40977000D01*
X57223000Y-40957000D01*
X57203000Y-40957000D01*
X57203000Y-40703000D01*
X57223000Y-40703000D01*
X57223000Y-39496183D01*
X56990974Y-39375042D01*
X56575053Y-39547312D01*
X56143179Y-39941510D01*
X56085664Y-40064228D01*
X55869670Y-39740971D01*
X55383489Y-39416115D01*
X54810000Y-39302041D01*
X54236511Y-39416115D01*
X53750330Y-39740971D01*
X53540000Y-40055752D01*
X53329670Y-39740971D01*
X52843489Y-39416115D01*
X52270000Y-39302041D01*
X51696511Y-39416115D01*
X51210330Y-39740971D01*
X50927000Y-40165004D01*
X50927000Y-39285000D01*
X70341349Y-39285000D01*
X70339180Y-39290223D01*
M02*
